<?xml version="1.0" encoding="UTF-8" standalone="no"?><svg xmlns="http://www.w3.org/2000/svg" xmlns:xlink="http://www.w3.org/1999/xlink" contentScriptType="application/ecmascript" contentStyleType="text/css" height="209px" preserveAspectRatio="none" style="width:453px;height:209px;" version="1.1" viewBox="0 0 453 209" width="453px" zoomAndPan="magnify"><defs/><g><line style="stroke: #000000; stroke-width: 1.0; stroke-dasharray: 5.0,5.0;" x1="24" x2="24" y1="34.2969" y2="168.8281"/><line style="stroke: #000000; stroke-width: 1.0; stroke-dasharray: 5.0,5.0;" x1="340" x2="340" y1="34.2969" y2="168.8281"/><rect fill="#E6E6E6" height="30.2969" style="stroke: #FFFFFF; stroke-width: 1.5;" width="32" x="8" y="3"/><text fill="#000000" font-family="sans-serif" font-size="14" lengthAdjust="spacingAndGlyphs" textLength="18" x="15" y="22.9951">NF</text><rect fill="#E6E6E6" height="30.2969" style="stroke: #FFFFFF; stroke-width: 1.5;" width="32" x="8" y="167.8281"/><text fill="#000000" font-family="sans-serif" font-size="14" lengthAdjust="spacingAndGlyphs" textLength="18" x="15" y="187.8232">NF</text><rect fill="#E6E6E6" height="30.2969" style="stroke: #FFFFFF; stroke-width: 1.5;" width="42" x="319" y="3"/><text fill="#000000" font-family="sans-serif" font-size="14" lengthAdjust="spacingAndGlyphs" textLength="28" x="326" y="22.9951">NRF</text><rect fill="#E6E6E6" height="30.2969" style="stroke: #FFFFFF; stroke-width: 1.5;" width="42" x="319" y="167.8281"/><text fill="#000000" font-family="sans-serif" font-size="14" lengthAdjust="spacingAndGlyphs" textLength="28" x="326" y="187.8232">NRF</text><polygon fill="#000000" points="328,76.5625,338,80.5625,328,84.5625,332,80.5625" style="stroke: #000000; stroke-width: 1.0;"/><line style="stroke: #000000; stroke-width: 1.0;" x1="24" x2="334" y1="80.5625" y2="80.5625"/><text fill="#000000" font-family="sans-serif" font-size="13" lengthAdjust="spacingAndGlyphs" textLength="113" x="31" y="60.3638">1725, HTTP/2 req.</text><text fill="#000000" font-family="sans-serif" font-size="13" lengthAdjust="spacingAndGlyphs" textLength="193" x="31" y="75.4966">GET  /nnrf-disc/v1/nf-instances</text><path d="M345,53.8633 L345,78.8633 L441,78.8633 L441,63.8633 L431,53.8633 L345,53.8633 " fill="#03B5AA" style="stroke: #FFFFFF; stroke-width: 1.0;"/><path d="M431,53.8633 L431,63.8633 L441,63.8633 L431,53.8633 " fill="#03B5AA" style="stroke: #FFFFFF; stroke-width: 1.0;"/><text fill="#000000" font-family="sans-serif" font-size="13" font-weight="bold" lengthAdjust="spacingAndGlyphs" textLength="75" x="351" y="70.9302">NF to NRF</text><polygon fill="#000000" points="35,108.6953,25,112.6953,35,116.6953,31,112.6953" style="stroke: #000000; stroke-width: 1.0;"/><line style="stroke: #000000; stroke-width: 1.0;" x1="29" x2="339" y1="112.6953" y2="112.6953"/><text fill="#000000" font-family="sans-serif" font-size="13" lengthAdjust="spacingAndGlyphs" textLength="140" x="41" y="107.6294">1727, HTTP/2 200 rsp.</text><path d="M345,93.5625 L345,118.5625 L441,118.5625 L441,103.5625 L431,93.5625 L345,93.5625 " fill="#D7FEFC" style="stroke: #FFFFFF; stroke-width: 1.0;"/><path d="M431,93.5625 L431,103.5625 L441,103.5625 L431,93.5625 " fill="#D7FEFC" style="stroke: #FFFFFF; stroke-width: 1.0;"/><text fill="#000000" font-family="sans-serif" font-size="13" font-weight="bold" lengthAdjust="spacingAndGlyphs" textLength="75" x="351" y="110.6294">NRF to NF</text><polygon fill="#000000" points="35,143.8281,25,147.8281,35,151.8281,31,147.8281" style="stroke: #000000; stroke-width: 1.0;"/><line style="stroke: #000000; stroke-width: 1.0;" x1="29" x2="339" y1="147.8281" y2="147.8281"/><text fill="#000000" font-family="sans-serif" font-size="13" lengthAdjust="spacingAndGlyphs" textLength="292" x="41" y="142.7622">1729, HTTP/2 req. or rsp. (no HTTP/2 headers)</text><path d="M345,128.6953 L345,153.6953 L441,153.6953 L441,138.6953 L431,128.6953 L345,128.6953 " fill="#D7FEFC" style="stroke: #FFFFFF; stroke-width: 1.0;"/><path d="M431,128.6953 L431,138.6953 L441,138.6953 L431,128.6953 " fill="#D7FEFC" style="stroke: #FFFFFF; stroke-width: 1.0;"/><text fill="#000000" font-family="sans-serif" font-size="13" font-weight="bold" lengthAdjust="spacingAndGlyphs" textLength="75" x="351" y="145.7622">NRF to NF</text><!--MD5=[c4886a31c541979c25e2aacc9631bc6b]
@startuml
skinparam shadowing false
skinparam NoteBorderColor white
skinparam sequence {
    ArrowColor black
    LifeLineBorderColor black
    LifeLineBackgroundColor black
    ParticipantBorderColor white
    ParticipantBackgroundColor #e6e6e6
}
participant "NF"
participant "NRF"


"NF" -> "NRF": 1725, HTTP/2 req.\nGET  /nnrf-disc/v1/nf-instances

note right #03B5AA
**NF to NRF**
end note

"NRF" -> "NF": 1727, HTTP/2 200 rsp.

note right #D7FEFC
**NRF to NF**
end note


"NRF" -> "NF": 1729, HTTP/2 req. or rsp. (no HTTP/2 headers)

note right #D7FEFC
**NRF to NF**
end note
@enduml

PlantUML version 1.2019.12(Sun Nov 03 11:24:54 CET 2019)
(APACHE source distribution)
Java Runtime: OpenJDK Runtime Environment
JVM: OpenJDK 64-Bit Server VM
Java Version: 11.0.18+10-post-Ubuntu-0ubuntu120.04.1
Operating System: Linux
Default Encoding: UTF-8
Language: en
Country: US
--></g></svg>