<?xml version="1.0" encoding="UTF-8" standalone="no"?><svg xmlns="http://www.w3.org/2000/svg" xmlns:xlink="http://www.w3.org/1999/xlink" contentScriptType="application/ecmascript" contentStyleType="text/css" height="1002px" preserveAspectRatio="none" style="width:915px;height:1002px;" version="1.1" viewBox="0 0 915 1002" width="915px" zoomAndPan="magnify"><defs/><g><line style="stroke: #000000; stroke-width: 1.0; stroke-dasharray: 5.0,5.0;" x1="24" x2="24" y1="34.2969" y2="962.6719"/><line style="stroke: #000000; stroke-width: 1.0; stroke-dasharray: 5.0,5.0;" x1="383" x2="383" y1="34.2969" y2="962.6719"/><rect fill="#E6E6E6" height="30.2969" style="stroke: #FFFFFF; stroke-width: 1.5;" width="32" x="8" y="3"/><text fill="#000000" font-family="sans-serif" font-size="14" lengthAdjust="spacingAndGlyphs" textLength="18" x="15" y="22.9951">NF</text><rect fill="#E6E6E6" height="30.2969" style="stroke: #FFFFFF; stroke-width: 1.5;" width="32" x="8" y="961.6719"/><text fill="#000000" font-family="sans-serif" font-size="14" lengthAdjust="spacingAndGlyphs" textLength="18" x="15" y="981.667">NF</text><rect fill="#E6E6E6" height="30.2969" style="stroke: #FFFFFF; stroke-width: 1.5;" width="42" x="362" y="3"/><text fill="#000000" font-family="sans-serif" font-size="14" lengthAdjust="spacingAndGlyphs" textLength="28" x="369" y="22.9951">NRF</text><rect fill="#E6E6E6" height="30.2969" style="stroke: #FFFFFF; stroke-width: 1.5;" width="42" x="362" y="961.6719"/><text fill="#000000" font-family="sans-serif" font-size="14" lengthAdjust="spacingAndGlyphs" textLength="28" x="369" y="981.667">NRF</text><polygon fill="#000000" points="371,76.5625,381,80.5625,371,84.5625,375,80.5625" style="stroke: #000000; stroke-width: 1.0;"/><line style="stroke: #000000; stroke-width: 1.0;" x1="24" x2="377" y1="80.5625" y2="80.5625"/><text fill="#000000" font-family="sans-serif" font-size="13" lengthAdjust="spacingAndGlyphs" textLength="97" x="31" y="60.3638">18, HTTP/2 req.</text><text fill="#000000" font-family="sans-serif" font-size="13" lengthAdjust="spacingAndGlyphs" textLength="317" x="31" y="75.4966">PUT  /nnrf-nfm/v1/nf-instances/&lt;NF_Instance_ID&gt;</text><path d="M388,53.8633 L388,78.8633 L484,78.8633 L484,63.8633 L474,53.8633 L388,53.8633 " fill="#03B5AA" style="stroke: #FFFFFF; stroke-width: 1.0;"/><path d="M474,53.8633 L474,63.8633 L484,63.8633 L474,53.8633 " fill="#03B5AA" style="stroke: #FFFFFF; stroke-width: 1.0;"/><text fill="#000000" font-family="sans-serif" font-size="13" font-weight="bold" lengthAdjust="spacingAndGlyphs" textLength="75" x="394" y="70.9302">NF to NRF</text><polygon fill="#000000" points="371,154.0938,381,158.0938,371,162.0938,375,158.0938" style="stroke: #000000; stroke-width: 1.0;"/><line style="stroke: #000000; stroke-width: 1.0;" x1="24" x2="377" y1="158.0938" y2="158.0938"/><text fill="#000000" font-family="sans-serif" font-size="13" lengthAdjust="spacingAndGlyphs" textLength="276" x="31" y="153.0278">21, HTTP/2 req. or rsp. (no HTTP/2 headers)</text><path d="M388,93.5625 L388,208.5625 L584,208.5625 L584,103.5625 L574,93.5625 L388,93.5625 " fill="#D7FEFC" style="stroke: #FFFFFF; stroke-width: 1.0;"/><path d="M574,93.5625 L574,103.5625 L584,103.5625 L574,93.5625 " fill="#D7FEFC" style="stroke: #FFFFFF; stroke-width: 1.0;"/><text fill="#000000" font-family="sans-serif" font-size="13" font-weight="bold" lengthAdjust="spacingAndGlyphs" textLength="75" x="394" y="110.6294">NF to NRF</text><text fill="#000000" font-family="sans-serif" font-size="13" lengthAdjust="spacingAndGlyphs" textLength="175" x="394" y="125.7622">&lt;NF_IP&gt; to &lt;NRF_IP&gt; (IPs)</text><text fill="#000000" font-family="sans-serif" font-size="13" lengthAdjust="spacingAndGlyphs" textLength="160" x="394" y="140.895">HTTP/2 stream 1 payload</text><text fill="#000000" font-family="sans-serif" font-size="13" lengthAdjust="spacingAndGlyphs" textLength="8" x="394" y="156.0278">{</text><text fill="#000000" font-family="sans-serif" font-size="13" lengthAdjust="spacingAndGlyphs" textLength="155" x="394" y="171.1606">&lt;NF_Registration_Json&gt;</text><text fill="#000000" font-family="sans-serif" font-size="13" lengthAdjust="spacingAndGlyphs" textLength="8" x="394" y="186.2935">}</text><text fill="#000000" font-family="sans-serif" font-size="13" lengthAdjust="spacingAndGlyphs" textLength="0" x="398" y="201.4263"/><polygon fill="#000000" points="35,234.625,25,238.625,35,242.625,31,238.625" style="stroke: #000000; stroke-width: 1.0;"/><line style="stroke: #000000; stroke-width: 1.0;" x1="29" x2="382" y1="238.625" y2="238.625"/><text fill="#000000" font-family="sans-serif" font-size="13" lengthAdjust="spacingAndGlyphs" textLength="124" x="41" y="233.5591">24, HTTP/2 201 rsp.</text><path d="M388,219.4922 L388,244.4922 L484,244.4922 L484,229.4922 L474,219.4922 L388,219.4922 " fill="#D7FEFC" style="stroke: #FFFFFF; stroke-width: 1.0;"/><path d="M474,219.4922 L474,229.4922 L484,229.4922 L474,219.4922 " fill="#D7FEFC" style="stroke: #FFFFFF; stroke-width: 1.0;"/><text fill="#000000" font-family="sans-serif" font-size="13" font-weight="bold" lengthAdjust="spacingAndGlyphs" textLength="75" x="394" y="236.5591">NRF to NF</text><polygon fill="#000000" points="35,345.4219,25,349.4219,35,353.4219,31,349.4219" style="stroke: #000000; stroke-width: 1.0;"/><line style="stroke: #000000; stroke-width: 1.0;" x1="29" x2="382" y1="349.4219" y2="349.4219"/><text fill="#000000" font-family="sans-serif" font-size="13" lengthAdjust="spacingAndGlyphs" textLength="276" x="41" y="344.356">26, HTTP/2 req. or rsp. (no HTTP/2 headers)</text><path d="M388,254.625 L388,430.625 L646,430.625 L646,264.625 L636,254.625 L388,254.625 " fill="#D7FEFC" style="stroke: #FFFFFF; stroke-width: 1.0;"/><path d="M636,254.625 L636,264.625 L646,264.625 L636,254.625 " fill="#D7FEFC" style="stroke: #FFFFFF; stroke-width: 1.0;"/><text fill="#000000" font-family="sans-serif" font-size="13" font-weight="bold" lengthAdjust="spacingAndGlyphs" textLength="75" x="394" y="271.6919">NRF to NF</text><text fill="#000000" font-family="sans-serif" font-size="13" lengthAdjust="spacingAndGlyphs" textLength="175" x="394" y="286.8247">&lt;NRF_IP&gt; to &lt;NF_IP&gt; (IPs)</text><text fill="#000000" font-family="sans-serif" font-size="13" lengthAdjust="spacingAndGlyphs" textLength="160" x="394" y="301.9575">HTTP/2 stream 1 payload</text><text fill="#000000" font-family="sans-serif" font-size="13" lengthAdjust="spacingAndGlyphs" textLength="8" x="394" y="317.0903">{</text><text fill="#000000" font-family="sans-serif" font-size="13" lengthAdjust="spacingAndGlyphs" textLength="229" x="402" y="332.2231">"nfInstanceId": "&lt;NF_Instance_ID&gt;",</text><text fill="#000000" font-family="sans-serif" font-size="13" lengthAdjust="spacingAndGlyphs" textLength="126" x="402" y="347.356">"nfType": "NF_type",</text><text fill="#000000" font-family="sans-serif" font-size="13" lengthAdjust="spacingAndGlyphs" textLength="165" x="402" y="362.4888">"nfStatus": "REGISTERED",</text><text fill="#000000" font-family="sans-serif" font-size="13" lengthAdjust="spacingAndGlyphs" textLength="138" x="402" y="377.6216">"heartBeatTimer": 10,</text><text fill="#000000" font-family="sans-serif" font-size="13" lengthAdjust="spacingAndGlyphs" textLength="170" x="402" y="392.7544">"nfProfileChangesInd": true</text><text fill="#000000" font-family="sans-serif" font-size="13" lengthAdjust="spacingAndGlyphs" textLength="8" x="394" y="407.8872">}</text><text fill="#000000" font-family="sans-serif" font-size="13" lengthAdjust="spacingAndGlyphs" textLength="0" x="398" y="423.02"/><polygon fill="#000000" points="371,468.3516,381,472.3516,371,476.3516,375,472.3516" style="stroke: #000000; stroke-width: 1.0;"/><line style="stroke: #000000; stroke-width: 1.0;" x1="24" x2="377" y1="472.3516" y2="472.3516"/><text fill="#000000" font-family="sans-serif" font-size="13" lengthAdjust="spacingAndGlyphs" textLength="97" x="31" y="452.1528">27, HTTP/2 req.</text><text fill="#000000" font-family="sans-serif" font-size="13" lengthAdjust="spacingAndGlyphs" textLength="208" x="31" y="467.2856">POST  /nnrf-nfm/v1/subscriptions</text><path d="M388,445.6523 L388,470.6523 L484,470.6523 L484,455.6523 L474,445.6523 L388,445.6523 " fill="#03B5AA" style="stroke: #FFFFFF; stroke-width: 1.0;"/><path d="M474,445.6523 L474,455.6523 L484,455.6523 L474,445.6523 " fill="#03B5AA" style="stroke: #FFFFFF; stroke-width: 1.0;"/><text fill="#000000" font-family="sans-serif" font-size="13" font-weight="bold" lengthAdjust="spacingAndGlyphs" textLength="75" x="394" y="462.7192">NF to NRF</text><polygon fill="#000000" points="371,568.582,381,572.582,371,576.582,375,572.582" style="stroke: #000000; stroke-width: 1.0;"/><line style="stroke: #000000; stroke-width: 1.0;" x1="24" x2="377" y1="572.582" y2="572.582"/><text fill="#000000" font-family="sans-serif" font-size="13" lengthAdjust="spacingAndGlyphs" textLength="276" x="31" y="567.5161">29, HTTP/2 req. or rsp. (no HTTP/2 headers)</text><path d="M388,485.3516 L388,646.3516 L903,646.3516 L903,495.3516 L893,485.3516 L388,485.3516 " fill="#D7FEFC" style="stroke: #FFFFFF; stroke-width: 1.0;"/><path d="M893,485.3516 L893,495.3516 L903,495.3516 L893,485.3516 " fill="#D7FEFC" style="stroke: #FFFFFF; stroke-width: 1.0;"/><text fill="#000000" font-family="sans-serif" font-size="13" font-weight="bold" lengthAdjust="spacingAndGlyphs" textLength="75" x="394" y="502.4185">NF to NRF</text><text fill="#000000" font-family="sans-serif" font-size="13" lengthAdjust="spacingAndGlyphs" textLength="175" x="394" y="517.5513">&lt;NF_IP&gt; to &lt;NRF_IP&gt; (IPs)</text><text fill="#000000" font-family="sans-serif" font-size="13" lengthAdjust="spacingAndGlyphs" textLength="160" x="394" y="532.6841">HTTP/2 stream 3 payload</text><text fill="#000000" font-family="sans-serif" font-size="13" lengthAdjust="spacingAndGlyphs" textLength="8" x="394" y="547.8169">{</text><text fill="#000000" font-family="sans-serif" font-size="13" lengthAdjust="spacingAndGlyphs" textLength="486" x="402" y="562.9497">"nfStatusNotificationUri": "http://&lt;NF_IP&gt;:7777/nnrf-nfm/v1/nf-status-notify",</text><text fill="#000000" font-family="sans-serif" font-size="13" lengthAdjust="spacingAndGlyphs" textLength="252" x="402" y="578.0825">"reqNfInstanceId": "&lt;NF_Instance_ID&gt;",</text><text fill="#000000" font-family="sans-serif" font-size="13" lengthAdjust="spacingAndGlyphs" textLength="101" x="402" y="593.2153">"subscrCond": {</text><text fill="#000000" font-family="sans-serif" font-size="13" lengthAdjust="spacingAndGlyphs" textLength="120" x="410" y="608.3481">&lt;Subscriber_info&gt;</text><text fill="#000000" font-family="sans-serif" font-size="13" lengthAdjust="spacingAndGlyphs" textLength="8" x="394" y="623.481">}</text><text fill="#000000" font-family="sans-serif" font-size="13" lengthAdjust="spacingAndGlyphs" textLength="0" x="398" y="638.6138"/><polygon fill="#000000" points="35,671.8125,25,675.8125,35,679.8125,31,675.8125" style="stroke: #000000; stroke-width: 1.0;"/><line style="stroke: #000000; stroke-width: 1.0;" x1="29" x2="382" y1="675.8125" y2="675.8125"/><text fill="#000000" font-family="sans-serif" font-size="13" lengthAdjust="spacingAndGlyphs" textLength="124" x="41" y="670.7466">31, HTTP/2 201 rsp.</text><path d="M388,656.6797 L388,681.6797 L484,681.6797 L484,666.6797 L474,656.6797 L388,656.6797 " fill="#D7FEFC" style="stroke: #FFFFFF; stroke-width: 1.0;"/><path d="M474,656.6797 L474,666.6797 L484,666.6797 L474,656.6797 " fill="#D7FEFC" style="stroke: #FFFFFF; stroke-width: 1.0;"/><text fill="#000000" font-family="sans-serif" font-size="13" font-weight="bold" lengthAdjust="spacingAndGlyphs" textLength="75" x="394" y="673.7466">NRF to NF</text><polygon fill="#000000" points="371,719.0781,381,723.0781,371,727.0781,375,723.0781" style="stroke: #000000; stroke-width: 1.0;"/><line style="stroke: #000000; stroke-width: 1.0;" x1="24" x2="377" y1="723.0781" y2="723.0781"/><text fill="#000000" font-family="sans-serif" font-size="13" lengthAdjust="spacingAndGlyphs" textLength="105" x="31" y="702.8794">246, HTTP/2 req.</text><text fill="#000000" font-family="sans-serif" font-size="13" lengthAdjust="spacingAndGlyphs" textLength="335" x="31" y="718.0122">PATCH  /nnrf-nfm/v1/nf-instances/&lt;NF_Instance_ID&gt;</text><path d="M388,696.3789 L388,721.3789 L484,721.3789 L484,706.3789 L474,696.3789 L388,696.3789 " fill="#03B5AA" style="stroke: #FFFFFF; stroke-width: 1.0;"/><path d="M474,696.3789 L474,706.3789 L484,706.3789 L474,696.3789 " fill="#03B5AA" style="stroke: #FFFFFF; stroke-width: 1.0;"/><text fill="#000000" font-family="sans-serif" font-size="13" font-weight="bold" lengthAdjust="spacingAndGlyphs" textLength="75" x="394" y="713.4458">NF to NRF</text><polygon fill="#000000" points="371,826.875,381,830.875,371,834.875,375,830.875" style="stroke: #000000; stroke-width: 1.0;"/><line style="stroke: #000000; stroke-width: 1.0;" x1="24" x2="377" y1="830.875" y2="830.875"/><text fill="#000000" font-family="sans-serif" font-size="13" lengthAdjust="spacingAndGlyphs" textLength="284" x="31" y="825.8091">248, HTTP/2 req. or rsp. (no HTTP/2 headers)</text><path d="M388,736.0781 L388,912.0781 L584,912.0781 L584,746.0781 L574,736.0781 L388,736.0781 " fill="#D7FEFC" style="stroke: #FFFFFF; stroke-width: 1.0;"/><path d="M574,736.0781 L574,746.0781 L584,746.0781 L574,736.0781 " fill="#D7FEFC" style="stroke: #FFFFFF; stroke-width: 1.0;"/><text fill="#000000" font-family="sans-serif" font-size="13" font-weight="bold" lengthAdjust="spacingAndGlyphs" textLength="75" x="394" y="753.145">NF to NRF</text><text fill="#000000" font-family="sans-serif" font-size="13" lengthAdjust="spacingAndGlyphs" textLength="175" x="394" y="768.2778">&lt;NF_IP&gt; to &lt;NRF_IP&gt; (IPs)</text><text fill="#000000" font-family="sans-serif" font-size="13" lengthAdjust="spacingAndGlyphs" textLength="160" x="394" y="783.4106">HTTP/2 stream 5 payload</text><text fill="#000000" font-family="sans-serif" font-size="13" lengthAdjust="spacingAndGlyphs" textLength="5" x="394" y="798.5435">[</text><text fill="#000000" font-family="sans-serif" font-size="13" lengthAdjust="spacingAndGlyphs" textLength="8" x="402" y="813.6763">{</text><text fill="#000000" font-family="sans-serif" font-size="13" lengthAdjust="spacingAndGlyphs" textLength="95" x="410" y="828.8091">"op": "replace",</text><text fill="#000000" font-family="sans-serif" font-size="13" lengthAdjust="spacingAndGlyphs" textLength="119" x="410" y="843.9419">"path": "/nfStatus",</text><text fill="#000000" font-family="sans-serif" font-size="13" lengthAdjust="spacingAndGlyphs" textLength="141" x="410" y="859.0747">"value": "REGISTERED"</text><text fill="#000000" font-family="sans-serif" font-size="13" lengthAdjust="spacingAndGlyphs" textLength="8" x="402" y="874.2075">}</text><text fill="#000000" font-family="sans-serif" font-size="13" lengthAdjust="spacingAndGlyphs" textLength="5" x="394" y="889.3403">]</text><text fill="#000000" font-family="sans-serif" font-size="13" lengthAdjust="spacingAndGlyphs" textLength="0" x="398" y="904.4731"/><polygon fill="#000000" points="35,937.6719,25,941.6719,35,945.6719,31,941.6719" style="stroke: #000000; stroke-width: 1.0;"/><line style="stroke: #000000; stroke-width: 1.0;" x1="29" x2="382" y1="941.6719" y2="941.6719"/><text fill="#000000" font-family="sans-serif" font-size="13" lengthAdjust="spacingAndGlyphs" textLength="132" x="41" y="936.606">250, HTTP/2 204 rsp.</text><path d="M388,922.5391 L388,947.5391 L484,947.5391 L484,932.5391 L474,922.5391 L388,922.5391 " fill="#D7FEFC" style="stroke: #FFFFFF; stroke-width: 1.0;"/><path d="M474,922.5391 L474,932.5391 L484,932.5391 L474,922.5391 " fill="#D7FEFC" style="stroke: #FFFFFF; stroke-width: 1.0;"/><text fill="#000000" font-family="sans-serif" font-size="13" font-weight="bold" lengthAdjust="spacingAndGlyphs" textLength="75" x="394" y="939.606">NRF to NF</text><!--MD5=[25810f0fd124c27d251d51835e07e7ca]
@startuml
skinparam shadowing false
skinparam NoteBorderColor white
skinparam sequence {
    ArrowColor black
    LifeLineBorderColor black
    LifeLineBackgroundColor black
    ParticipantBorderColor white
    ParticipantBackgroundColor #e6e6e6
}
participant "NF"
participant "NRF"



"NF" -> "NRF": 18, HTTP/2 req.\nPUT  /nnrf-nfm/v1/nf-instances/<NF_Instance_ID>

note right #03B5AA
**NF to NRF**
end note

"NF" -> "NRF": 21, HTTP/2 req. or rsp. (no HTTP/2 headers)

note right #D7FEFC
**NF to NRF**
<NF_IP> to <NRF_IP> (IPs)
HTTP/2 stream 1 payload
{
<NF_Registration_Json>
}

end note

"NRF" -> "NF": 24, HTTP/2 201 rsp.

note right #D7FEFC
**NRF to NF**
end note

"NRF" -> "NF": 26, HTTP/2 req. or rsp. (no HTTP/2 headers)

note right #D7FEFC
**NRF to NF**
<NRF_IP> to <NF_IP> (IPs)
HTTP/2 stream 1 payload
{
  "nfInstanceId": "<NF_Instance_ID>",
  "nfType": "NF_type",
  "nfStatus": "REGISTERED",
  "heartBeatTimer": 10,
  "nfProfileChangesInd": true
}

end note

"NF" -> "NRF": 27, HTTP/2 req.\nPOST  /nnrf-nfm/v1/subscriptions

note right #03B5AA
**NF to NRF**
end note

"NF" -> "NRF": 29, HTTP/2 req. or rsp. (no HTTP/2 headers)

note right #D7FEFC
**NF to NRF**
<NF_IP> to <NRF_IP> (IPs)
HTTP/2 stream 3 payload
{
  "nfStatusNotificationUri": "http://<NF_IP>:7777/nnrf-nfm/v1/nf-status-notify",
  "reqNfInstanceId": "<NF_Instance_ID>",
  "subscrCond": {
    <Subscriber_info>
}

end note

"NRF" -> "NF": 31, HTTP/2 201 rsp.

note right #D7FEFC
**NRF to NF**
end note
"NF" -> "NRF": 246, HTTP/2 req.\nPATCH  /nnrf-nfm/v1/nf-instances/<NF_Instance_ID>

note right #03B5AA
**NF to NRF**
end note

"NF" -> "NRF": 248, HTTP/2 req. or rsp. (no HTTP/2 headers)

note right #D7FEFC
**NF to NRF**
<NF_IP> to <NRF_IP> (IPs)
HTTP/2 stream 5 payload
[
  {
    "op": "replace",
    "path": "/nfStatus",
    "value": "REGISTERED"
  }
]

end note

"NRF" -> "NF": 250, HTTP/2 204 rsp.

note right #D7FEFC
**NRF to NF**
end note

@enduml

PlantUML version 1.2019.12(Sun Nov 03 11:24:54 CET 2019)
(APACHE source distribution)
Java Runtime: OpenJDK Runtime Environment
JVM: OpenJDK 64-Bit Server VM
Java Version: 11.0.18+10-post-Ubuntu-0ubuntu120.04.1
Operating System: Linux
Default Encoding: UTF-8
Language: en
Country: US
--></g></svg>