<?xml version="1.0" encoding="UTF-8" standalone="no"?><svg xmlns="http://www.w3.org/2000/svg" xmlns:xlink="http://www.w3.org/1999/xlink" contentScriptType="application/ecmascript" contentStyleType="text/css" height="438px" preserveAspectRatio="none" style="width:1352px;height:438px;" version="1.1" viewBox="0 0 1352 438" width="1352px" zoomAndPan="magnify"><defs/><g><line style="stroke: #000000; stroke-width: 1.0; stroke-dasharray: 5.0,5.0;" x1="29" x2="29" y1="34.2969" y2="397.8906"/><line style="stroke: #000000; stroke-width: 1.0; stroke-dasharray: 5.0,5.0;" x1="82" x2="82" y1="34.2969" y2="397.8906"/><line style="stroke: #000000; stroke-width: 1.0; stroke-dasharray: 5.0,5.0;" x1="591.5" x2="591.5" y1="34.2969" y2="397.8906"/><line style="stroke: #000000; stroke-width: 1.0; stroke-dasharray: 5.0,5.0;" x1="647.5" x2="647.5" y1="34.2969" y2="397.8906"/><line style="stroke: #000000; stroke-width: 1.0; stroke-dasharray: 5.0,5.0;" x1="1099" x2="1099" y1="34.2969" y2="397.8906"/><line style="stroke: #000000; stroke-width: 1.0; stroke-dasharray: 5.0,5.0;" x1="1155" x2="1155" y1="34.2969" y2="397.8906"/><line style="stroke: #000000; stroke-width: 1.0; stroke-dasharray: 5.0,5.0;" x1="1214" x2="1214" y1="34.2969" y2="397.8906"/><line style="stroke: #000000; stroke-width: 1.0; stroke-dasharray: 5.0,5.0;" x1="1269" x2="1269" y1="34.2969" y2="397.8906"/><line style="stroke: #000000; stroke-width: 1.0; stroke-dasharray: 5.0,5.0;" x1="1320" x2="1320" y1="34.2969" y2="397.8906"/><rect fill="#E6E6E6" height="30.2969" style="stroke: #FFFFFF; stroke-width: 1.5;" width="43" x="8" y="3"/><text fill="#000000" font-family="sans-serif" font-size="14" lengthAdjust="spacingAndGlyphs" textLength="29" x="15" y="22.9951">AMF</text><rect fill="#E6E6E6" height="30.2969" style="stroke: #FFFFFF; stroke-width: 1.5;" width="43" x="8" y="396.8906"/><text fill="#000000" font-family="sans-serif" font-size="14" lengthAdjust="spacingAndGlyphs" textLength="29" x="15" y="416.8857">AMF</text><rect fill="#E6E6E6" height="30.2969" style="stroke: #FFFFFF; stroke-width: 1.5;" width="43" x="61" y="3"/><text fill="#000000" font-family="sans-serif" font-size="14" lengthAdjust="spacingAndGlyphs" textLength="29" x="68" y="22.9951">SMF</text><rect fill="#E6E6E6" height="30.2969" style="stroke: #FFFFFF; stroke-width: 1.5;" width="43" x="61" y="396.8906"/><text fill="#000000" font-family="sans-serif" font-size="14" lengthAdjust="spacingAndGlyphs" textLength="29" x="68" y="416.8857">SMF</text><rect fill="#E6E6E6" height="30.2969" style="stroke: #FFFFFF; stroke-width: 1.5;" width="42" x="570.5" y="3"/><text fill="#000000" font-family="sans-serif" font-size="14" lengthAdjust="spacingAndGlyphs" textLength="28" x="577.5" y="22.9951">NRF</text><rect fill="#E6E6E6" height="30.2969" style="stroke: #FFFFFF; stroke-width: 1.5;" width="42" x="570.5" y="396.8906"/><text fill="#000000" font-family="sans-serif" font-size="14" lengthAdjust="spacingAndGlyphs" textLength="28" x="577.5" y="416.8857">NRF</text><rect fill="#E6E6E6" height="30.2969" style="stroke: #FFFFFF; stroke-width: 1.5;" width="50" x="622.5" y="3"/><text fill="#000000" font-family="sans-serif" font-size="14" lengthAdjust="spacingAndGlyphs" textLength="36" x="629.5" y="22.9951">NSSF</text><rect fill="#E6E6E6" height="30.2969" style="stroke: #FFFFFF; stroke-width: 1.5;" width="50" x="622.5" y="396.8906"/><text fill="#000000" font-family="sans-serif" font-size="14" lengthAdjust="spacingAndGlyphs" textLength="36" x="629.5" y="416.8857">NSSF</text><rect fill="#E6E6E6" height="30.2969" style="stroke: #FFFFFF; stroke-width: 1.5;" width="45" x="1077" y="3"/><text fill="#000000" font-family="sans-serif" font-size="14" lengthAdjust="spacingAndGlyphs" textLength="31" x="1084" y="22.9951">UDR</text><rect fill="#E6E6E6" height="30.2969" style="stroke: #FFFFFF; stroke-width: 1.5;" width="45" x="1077" y="396.8906"/><text fill="#000000" font-family="sans-serif" font-size="14" lengthAdjust="spacingAndGlyphs" textLength="31" x="1084" y="416.8857">UDR</text><rect fill="#E6E6E6" height="30.2969" style="stroke: #FFFFFF; stroke-width: 1.5;" width="47" x="1132" y="3"/><text fill="#000000" font-family="sans-serif" font-size="14" lengthAdjust="spacingAndGlyphs" textLength="33" x="1139" y="22.9951">UDM</text><rect fill="#E6E6E6" height="30.2969" style="stroke: #FFFFFF; stroke-width: 1.5;" width="47" x="1132" y="396.8906"/><text fill="#000000" font-family="sans-serif" font-size="14" lengthAdjust="spacingAndGlyphs" textLength="33" x="1139" y="416.8857">UDM</text><rect fill="#E6E6E6" height="30.2969" style="stroke: #FFFFFF; stroke-width: 1.5;" width="50" x="1189" y="3"/><text fill="#000000" font-family="sans-serif" font-size="14" lengthAdjust="spacingAndGlyphs" textLength="36" x="1196" y="22.9951">AUSF</text><rect fill="#E6E6E6" height="30.2969" style="stroke: #FFFFFF; stroke-width: 1.5;" width="50" x="1189" y="396.8906"/><text fill="#000000" font-family="sans-serif" font-size="14" lengthAdjust="spacingAndGlyphs" textLength="36" x="1196" y="416.8857">AUSF</text><rect fill="#E6E6E6" height="30.2969" style="stroke: #FFFFFF; stroke-width: 1.5;" width="41" x="1249" y="3"/><text fill="#000000" font-family="sans-serif" font-size="14" lengthAdjust="spacingAndGlyphs" textLength="27" x="1256" y="22.9951">BSF</text><rect fill="#E6E6E6" height="30.2969" style="stroke: #FFFFFF; stroke-width: 1.5;" width="41" x="1249" y="396.8906"/><text fill="#000000" font-family="sans-serif" font-size="14" lengthAdjust="spacingAndGlyphs" textLength="27" x="1256" y="416.8857">BSF</text><rect fill="#E6E6E6" height="30.2969" style="stroke: #FFFFFF; stroke-width: 1.5;" width="41" x="1300" y="3"/><text fill="#000000" font-family="sans-serif" font-size="14" lengthAdjust="spacingAndGlyphs" textLength="27" x="1307" y="22.9951">PCF</text><rect fill="#E6E6E6" height="30.2969" style="stroke: #FFFFFF; stroke-width: 1.5;" width="41" x="1300" y="396.8906"/><text fill="#000000" font-family="sans-serif" font-size="14" lengthAdjust="spacingAndGlyphs" textLength="27" x="1307" y="416.8857">PCF</text><polygon fill="#000000" points="602.5,76.5625,592.5,80.5625,602.5,84.5625,598.5,80.5625" style="stroke: #000000; stroke-width: 1.0;"/><line style="stroke: #000000; stroke-width: 1.0;" x1="596.5" x2="1098.5" y1="80.5625" y2="80.5625"/><text fill="#000000" font-family="sans-serif" font-size="13" lengthAdjust="spacingAndGlyphs" textLength="105" x="608.5" y="60.3638">272, HTTP/2 req.</text><text fill="#000000" font-family="sans-serif" font-size="13" lengthAdjust="spacingAndGlyphs" textLength="484" x="608.5" y="75.4966">PATCH  /nnrf-nfm/v1/nf-instances/4b0128ae-f5bb-41ed-a8be-4384c90eec0c</text><path d="M1104,53.8633 L1104,78.8633 L1211,78.8633 L1211,63.8633 L1201,53.8633 L1104,53.8633 " fill="#03B5AA" style="stroke: #FFFFFF; stroke-width: 1.0;"/><path d="M1201,53.8633 L1201,63.8633 L1211,63.8633 L1201,53.8633 " fill="#03B5AA" style="stroke: #FFFFFF; stroke-width: 1.0;"/><text fill="#000000" font-family="sans-serif" font-size="13" font-weight="bold" lengthAdjust="spacingAndGlyphs" textLength="86" x="1110" y="70.9302">UDR to NRF</text><polygon fill="#000000" points="602.5,108.6953,592.5,112.6953,602.5,116.6953,598.5,112.6953" style="stroke: #000000; stroke-width: 1.0;"/><line style="stroke: #000000; stroke-width: 1.0;" x1="596.5" x2="1098.5" y1="112.6953" y2="112.6953"/><text fill="#000000" font-family="sans-serif" font-size="13" lengthAdjust="spacingAndGlyphs" textLength="284" x="608.5" y="107.6294">273, HTTP/2 req. or rsp. (no HTTP/2 headers)</text><path d="M1104,93.5625 L1104,118.5625 L1211,118.5625 L1211,103.5625 L1201,93.5625 L1104,93.5625 " fill="#03B5AA" style="stroke: #FFFFFF; stroke-width: 1.0;"/><path d="M1201,93.5625 L1201,103.5625 L1211,103.5625 L1201,93.5625 " fill="#03B5AA" style="stroke: #FFFFFF; stroke-width: 1.0;"/><text fill="#000000" font-family="sans-serif" font-size="13" font-weight="bold" lengthAdjust="spacingAndGlyphs" textLength="86" x="1110" y="110.6294">UDR to NRF</text><polygon fill="#000000" points="1087.5,143.8281,1097.5,147.8281,1087.5,151.8281,1091.5,147.8281" style="stroke: #000000; stroke-width: 1.0;"/><line style="stroke: #000000; stroke-width: 1.0;" x1="591.5" x2="1093.5" y1="147.8281" y2="147.8281"/><text fill="#000000" font-family="sans-serif" font-size="13" lengthAdjust="spacingAndGlyphs" textLength="132" x="598.5" y="142.7622">275, HTTP/2 204 rsp.</text><path d="M1104,128.6953 L1104,153.6953 L1211,153.6953 L1211,138.6953 L1201,128.6953 L1104,128.6953 " fill="#D7FEFC" style="stroke: #FFFFFF; stroke-width: 1.0;"/><path d="M1201,128.6953 L1201,138.6953 L1211,138.6953 L1201,128.6953 " fill="#D7FEFC" style="stroke: #FFFFFF; stroke-width: 1.0;"/><text fill="#000000" font-family="sans-serif" font-size="13" font-weight="bold" lengthAdjust="spacingAndGlyphs" textLength="86" x="1110" y="145.7622">NRF to UDR</text><polygon fill="#000000" points="579.5,191.0938,589.5,195.0938,579.5,199.0938,583.5,195.0938" style="stroke: #000000; stroke-width: 1.0;"/><line style="stroke: #000000; stroke-width: 1.0;" x1="29.5" x2="585.5" y1="195.0938" y2="195.0938"/><text fill="#000000" font-family="sans-serif" font-size="13" lengthAdjust="spacingAndGlyphs" textLength="105" x="36.5" y="174.895">277, HTTP/2 req.</text><text fill="#000000" font-family="sans-serif" font-size="13" lengthAdjust="spacingAndGlyphs" textLength="479" x="36.5" y="190.0278">PATCH  /nnrf-nfm/v1/nf-instances/47b17af0-f5bb-41ed-b123-97599415a66f</text><path d="M596,168.3945 L596,193.3945 L704,193.3945 L704,178.3945 L694,168.3945 L596,168.3945 " fill="#03B5AA" style="stroke: #FFFFFF; stroke-width: 1.0;"/><path d="M694,168.3945 L694,178.3945 L704,178.3945 L694,168.3945 " fill="#03B5AA" style="stroke: #FFFFFF; stroke-width: 1.0;"/><text fill="#000000" font-family="sans-serif" font-size="13" font-weight="bold" lengthAdjust="spacingAndGlyphs" textLength="87" x="602" y="185.4614">AMF to NRF</text><polygon fill="#000000" points="579.5,223.2266,589.5,227.2266,579.5,231.2266,583.5,227.2266" style="stroke: #000000; stroke-width: 1.0;"/><line style="stroke: #000000; stroke-width: 1.0;" x1="29.5" x2="585.5" y1="227.2266" y2="227.2266"/><text fill="#000000" font-family="sans-serif" font-size="13" lengthAdjust="spacingAndGlyphs" textLength="284" x="36.5" y="222.1606">278, HTTP/2 req. or rsp. (no HTTP/2 headers)</text><path d="M596,208.0938 L596,233.0938 L704,233.0938 L704,218.0938 L694,208.0938 L596,208.0938 " fill="#03B5AA" style="stroke: #FFFFFF; stroke-width: 1.0;"/><path d="M694,208.0938 L694,218.0938 L704,218.0938 L694,208.0938 " fill="#03B5AA" style="stroke: #FFFFFF; stroke-width: 1.0;"/><text fill="#000000" font-family="sans-serif" font-size="13" font-weight="bold" lengthAdjust="spacingAndGlyphs" textLength="87" x="602" y="225.1606">AMF to NRF</text><polygon fill="#000000" points="40.5,258.3594,30.5,262.3594,40.5,266.3594,36.5,262.3594" style="stroke: #000000; stroke-width: 1.0;"/><line style="stroke: #000000; stroke-width: 1.0;" x1="34.5" x2="590.5" y1="262.3594" y2="262.3594"/><text fill="#000000" font-family="sans-serif" font-size="13" lengthAdjust="spacingAndGlyphs" textLength="132" x="46.5" y="257.2935">280, HTTP/2 204 rsp.</text><path d="M596,243.2266 L596,268.2266 L704,268.2266 L704,253.2266 L694,243.2266 L596,243.2266 " fill="#D7FEFC" style="stroke: #FFFFFF; stroke-width: 1.0;"/><path d="M694,243.2266 L694,253.2266 L704,253.2266 L694,243.2266 " fill="#D7FEFC" style="stroke: #FFFFFF; stroke-width: 1.0;"/><text fill="#000000" font-family="sans-serif" font-size="13" font-weight="bold" lengthAdjust="spacingAndGlyphs" textLength="87" x="602" y="260.2935">NRF to AMF</text><polygon fill="#000000" points="579.5,305.625,589.5,309.625,579.5,313.625,583.5,309.625" style="stroke: #000000; stroke-width: 1.0;"/><line style="stroke: #000000; stroke-width: 1.0;" x1="82.5" x2="585.5" y1="309.625" y2="309.625"/><text fill="#000000" font-family="sans-serif" font-size="13" lengthAdjust="spacingAndGlyphs" textLength="105" x="89.5" y="289.4263">282, HTTP/2 req.</text><text fill="#000000" font-family="sans-serif" font-size="13" lengthAdjust="spacingAndGlyphs" textLength="485" x="89.5" y="304.5591">PATCH  /nnrf-nfm/v1/nf-instances/479bc02a-f5bb-41ed-b387-c91258944675</text><path d="M596,282.9258 L596,307.9258 L703,307.9258 L703,292.9258 L693,282.9258 L596,282.9258 " fill="#03B5AA" style="stroke: #FFFFFF; stroke-width: 1.0;"/><path d="M693,282.9258 L693,292.9258 L703,292.9258 L693,282.9258 " fill="#03B5AA" style="stroke: #FFFFFF; stroke-width: 1.0;"/><text fill="#000000" font-family="sans-serif" font-size="13" font-weight="bold" lengthAdjust="spacingAndGlyphs" textLength="86" x="602" y="299.9927">SMF to NRF</text><polygon fill="#000000" points="579.5,337.7578,589.5,341.7578,579.5,345.7578,583.5,341.7578" style="stroke: #000000; stroke-width: 1.0;"/><line style="stroke: #000000; stroke-width: 1.0;" x1="82.5" x2="585.5" y1="341.7578" y2="341.7578"/><text fill="#000000" font-family="sans-serif" font-size="13" lengthAdjust="spacingAndGlyphs" textLength="284" x="89.5" y="336.6919">283, HTTP/2 req. or rsp. (no HTTP/2 headers)</text><path d="M596,322.625 L596,347.625 L703,347.625 L703,332.625 L693,322.625 L596,322.625 " fill="#03B5AA" style="stroke: #FFFFFF; stroke-width: 1.0;"/><path d="M693,322.625 L693,332.625 L703,332.625 L693,322.625 " fill="#03B5AA" style="stroke: #FFFFFF; stroke-width: 1.0;"/><text fill="#000000" font-family="sans-serif" font-size="13" font-weight="bold" lengthAdjust="spacingAndGlyphs" textLength="86" x="602" y="339.6919">SMF to NRF</text><polygon fill="#000000" points="93.5,372.8906,83.5,376.8906,93.5,380.8906,89.5,376.8906" style="stroke: #000000; stroke-width: 1.0;"/><line style="stroke: #000000; stroke-width: 1.0;" x1="87.5" x2="590.5" y1="376.8906" y2="376.8906"/><text fill="#000000" font-family="sans-serif" font-size="13" lengthAdjust="spacingAndGlyphs" textLength="132" x="99.5" y="371.8247">285, HTTP/2 204 rsp.</text><path d="M596,357.7578 L596,382.7578 L703,382.7578 L703,367.7578 L693,357.7578 L596,357.7578 " fill="#D7FEFC" style="stroke: #FFFFFF; stroke-width: 1.0;"/><path d="M693,357.7578 L693,367.7578 L703,367.7578 L693,357.7578 " fill="#D7FEFC" style="stroke: #FFFFFF; stroke-width: 1.0;"/><text fill="#000000" font-family="sans-serif" font-size="13" font-weight="bold" lengthAdjust="spacingAndGlyphs" textLength="86" x="602" y="374.8247">NRF to SMF</text><!--MD5=[b716812cd1954e15d32f3b506cbd643a]
@startuml
skinparam shadowing false
skinparam NoteBorderColor white
skinparam sequence {
    ArrowColor black
    LifeLineBorderColor black
    LifeLineBackgroundColor black
    ParticipantBorderColor white
    ParticipantBackgroundColor #e6e6e6
}
participant "AMF"
participant "SMF"
participant "NRF"
participant "NSSF"
participant "UDR"
participant "UDM"
participant "AUSF"
participant "BSF"
participant "PCF"

"UDR" -> "NRF": 272, HTTP/2 req.\nPATCH  /nnrf-nfm/v1/nf-instances/4b0128ae-f5bb-41ed-a8be-4384c90eec0c

note right #03B5AA
**UDR to NRF**
end note

"UDR" -> "NRF": 273, HTTP/2 req. or rsp. (no HTTP/2 headers)

note right #03B5AA
**UDR to NRF**
end note

"NRF" -> "UDR": 275, HTTP/2 204 rsp.

note right #D7FEFC
**NRF to UDR**
end note

"AMF" -> "NRF": 277, HTTP/2 req.\nPATCH  /nnrf-nfm/v1/nf-instances/47b17af0-f5bb-41ed-b123-97599415a66f

note right #03B5AA
**AMF to NRF**
end note

"AMF" -> "NRF": 278, HTTP/2 req. or rsp. (no HTTP/2 headers)

note right #03B5AA
**AMF to NRF**
end note

"NRF" -> "AMF": 280, HTTP/2 204 rsp.

note right #D7FEFC
**NRF to AMF**
end note

"SMF" -> "NRF": 282, HTTP/2 req.\nPATCH  /nnrf-nfm/v1/nf-instances/479bc02a-f5bb-41ed-b387-c91258944675

note right #03B5AA
**SMF to NRF**
end note

"SMF" -> "NRF": 283, HTTP/2 req. or rsp. (no HTTP/2 headers)

note right #03B5AA
**SMF to NRF**
end note

"NRF" -> "SMF": 285, HTTP/2 204 rsp.

note right #D7FEFC
**NRF to SMF**
end note

@enduml

PlantUML version 1.2019.12(Sun Nov 03 11:24:54 CET 2019)
(APACHE source distribution)
Java Runtime: OpenJDK Runtime Environment
JVM: OpenJDK 64-Bit Server VM
Java Version: 11.0.18+10-post-Ubuntu-0ubuntu120.04.1
Operating System: Linux
Default Encoding: UTF-8
Language: en
Country: US
--></g></svg>