<?xml version="1.0" encoding="UTF-8" standalone="no"?><svg xmlns="http://www.w3.org/2000/svg" xmlns:xlink="http://www.w3.org/1999/xlink" contentScriptType="application/ecmascript" contentStyleType="text/css" height="412px" preserveAspectRatio="none" style="width:765px;height:412px;" version="1.1" viewBox="0 0 765 412" width="765px" zoomAndPan="magnify"><defs/><g><line style="stroke: #000000; stroke-width: 1.0; stroke-dasharray: 5.0,5.0;" x1="24" x2="24" y1="34.2969" y2="371.8906"/><line style="stroke: #000000; stroke-width: 1.0; stroke-dasharray: 5.0,5.0;" x1="72" x2="72" y1="34.2969" y2="371.8906"/><line style="stroke: #000000; stroke-width: 1.0; stroke-dasharray: 5.0,5.0;" x1="258" x2="258" y1="34.2969" y2="371.8906"/><line style="stroke: #000000; stroke-width: 1.0; stroke-dasharray: 5.0,5.0;" x1="559" x2="559" y1="34.2969" y2="371.8906"/><line style="stroke: #000000; stroke-width: 1.0; stroke-dasharray: 5.0,5.0;" x1="622" x2="622" y1="34.2969" y2="371.8906"/><rect fill="#E6E6E6" height="30.2969" style="stroke: #FFFFFF; stroke-width: 1.5;" width="33" x="8" y="3"/><text fill="#000000" font-family="sans-serif" font-size="14" lengthAdjust="spacingAndGlyphs" textLength="19" x="15" y="22.9951">UE</text><rect fill="#E6E6E6" height="30.2969" style="stroke: #FFFFFF; stroke-width: 1.5;" width="33" x="8" y="370.8906"/><text fill="#000000" font-family="sans-serif" font-size="14" lengthAdjust="spacingAndGlyphs" textLength="19" x="15" y="390.8857">UE</text><rect fill="#E6E6E6" height="30.2969" style="stroke: #FFFFFF; stroke-width: 1.5;" width="43" x="51" y="3"/><text fill="#000000" font-family="sans-serif" font-size="14" lengthAdjust="spacingAndGlyphs" textLength="29" x="58" y="22.9951">gNB</text><rect fill="#E6E6E6" height="30.2969" style="stroke: #FFFFFF; stroke-width: 1.5;" width="43" x="51" y="370.8906"/><text fill="#000000" font-family="sans-serif" font-size="14" lengthAdjust="spacingAndGlyphs" textLength="29" x="58" y="390.8857">gNB</text><rect fill="#E6E6E6" height="30.2969" style="stroke: #FFFFFF; stroke-width: 1.5;" width="41" x="238" y="3"/><text fill="#000000" font-family="sans-serif" font-size="14" lengthAdjust="spacingAndGlyphs" textLength="27" x="245" y="22.9951">UPF</text><rect fill="#E6E6E6" height="30.2969" style="stroke: #FFFFFF; stroke-width: 1.5;" width="41" x="238" y="370.8906"/><text fill="#000000" font-family="sans-serif" font-size="14" lengthAdjust="spacingAndGlyphs" textLength="27" x="245" y="390.8857">UPF</text><rect fill="#E6E6E6" height="30.2969" style="stroke: #FFFFFF; stroke-width: 1.5;" width="43" x="538" y="3"/><text fill="#000000" font-family="sans-serif" font-size="14" lengthAdjust="spacingAndGlyphs" textLength="29" x="545" y="22.9951">SMF</text><rect fill="#E6E6E6" height="30.2969" style="stroke: #FFFFFF; stroke-width: 1.5;" width="43" x="538" y="370.8906"/><text fill="#000000" font-family="sans-serif" font-size="14" lengthAdjust="spacingAndGlyphs" textLength="29" x="545" y="390.8857">SMF</text><rect fill="#E6E6E6" height="30.2969" style="stroke: #FFFFFF; stroke-width: 1.5;" width="62" x="591" y="3"/><text fill="#000000" font-family="sans-serif" font-size="14" lengthAdjust="spacingAndGlyphs" textLength="48" x="598" y="22.9951">8.8.8.8</text><rect fill="#E6E6E6" height="30.2969" style="stroke: #FFFFFF; stroke-width: 1.5;" width="62" x="591" y="370.8906"/><text fill="#000000" font-family="sans-serif" font-size="14" lengthAdjust="spacingAndGlyphs" textLength="48" x="598" y="390.8857">8.8.8.8</text><polygon fill="#000000" points="269.5,76.5625,259.5,80.5625,269.5,84.5625,265.5,80.5625" style="stroke: #000000; stroke-width: 1.0;"/><line style="stroke: #000000; stroke-width: 1.0;" x1="263.5" x2="558.5" y1="80.5625" y2="80.5625"/><text fill="#000000" font-family="sans-serif" font-size="13" lengthAdjust="spacingAndGlyphs" textLength="85" x="275.5" y="60.3638">25, PFCP req.</text><text fill="#000000" font-family="sans-serif" font-size="13" lengthAdjust="spacingAndGlyphs" textLength="267" x="275.5" y="75.4966">PFCP Session Establishment Request (50)</text><path d="M564,53.8633 L564,78.8633 L670,78.8633 L670,63.8633 L660,53.8633 L564,53.8633 " fill="#03B5AA" style="stroke: #FFFFFF; stroke-width: 1.0;"/><path d="M660,53.8633 L660,63.8633 L670,63.8633 L660,53.8633 " fill="#03B5AA" style="stroke: #FFFFFF; stroke-width: 1.0;"/><text fill="#000000" font-family="sans-serif" font-size="13" font-weight="bold" lengthAdjust="spacingAndGlyphs" textLength="85" x="570" y="70.9302">SMF to UPF</text><polygon fill="#000000" points="547.5,120.8281,557.5,124.8281,547.5,128.8281,551.5,124.8281" style="stroke: #000000; stroke-width: 1.0;"/><line style="stroke: #000000; stroke-width: 1.0;" x1="258.5" x2="553.5" y1="124.8281" y2="124.8281"/><text fill="#000000" font-family="sans-serif" font-size="13" lengthAdjust="spacingAndGlyphs" textLength="84" x="265.5" y="104.6294">26, PFCP rsp.</text><text fill="#000000" font-family="sans-serif" font-size="13" lengthAdjust="spacingAndGlyphs" textLength="277" x="265.5" y="119.7622">PFCP Session Establishment Response (51)</text><path d="M564,98.1289 L564,123.1289 L670,123.1289 L670,108.1289 L660,98.1289 L564,98.1289 " fill="#D7FEFC" style="stroke: #FFFFFF; stroke-width: 1.0;"/><path d="M660,98.1289 L660,108.1289 L670,108.1289 L660,98.1289 " fill="#D7FEFC" style="stroke: #FFFFFF; stroke-width: 1.0;"/><text fill="#000000" font-family="sans-serif" font-size="13" font-weight="bold" lengthAdjust="spacingAndGlyphs" textLength="85" x="570" y="115.1958">UPF to SMF</text><polygon fill="#000000" points="269.5,165.0938,259.5,169.0938,269.5,173.0938,265.5,169.0938" style="stroke: #000000; stroke-width: 1.0;"/><line style="stroke: #000000; stroke-width: 1.0;" x1="263.5" x2="558.5" y1="169.0938" y2="169.0938"/><text fill="#000000" font-family="sans-serif" font-size="13" lengthAdjust="spacingAndGlyphs" textLength="85" x="275.5" y="148.895">27, PFCP req.</text><text fill="#000000" font-family="sans-serif" font-size="13" lengthAdjust="spacingAndGlyphs" textLength="252" x="275.5" y="164.0278">PFCP Session Modification Request (52)</text><path d="M564,142.3945 L564,167.3945 L670,167.3945 L670,152.3945 L660,142.3945 L564,142.3945 " fill="#03B5AA" style="stroke: #FFFFFF; stroke-width: 1.0;"/><path d="M660,142.3945 L660,152.3945 L670,152.3945 L660,142.3945 " fill="#03B5AA" style="stroke: #FFFFFF; stroke-width: 1.0;"/><text fill="#000000" font-family="sans-serif" font-size="13" font-weight="bold" lengthAdjust="spacingAndGlyphs" textLength="85" x="570" y="159.4614">SMF to UPF</text><polygon fill="#000000" points="547.5,209.3594,557.5,213.3594,547.5,217.3594,551.5,213.3594" style="stroke: #000000; stroke-width: 1.0;"/><line style="stroke: #000000; stroke-width: 1.0;" x1="258.5" x2="553.5" y1="213.3594" y2="213.3594"/><text fill="#000000" font-family="sans-serif" font-size="13" lengthAdjust="spacingAndGlyphs" textLength="84" x="265.5" y="193.1606">28, PFCP rsp.</text><text fill="#000000" font-family="sans-serif" font-size="13" lengthAdjust="spacingAndGlyphs" textLength="262" x="265.5" y="208.2935">PFCP Session Modification Response (53)</text><path d="M564,186.6602 L564,211.6602 L670,211.6602 L670,196.6602 L660,186.6602 L564,186.6602 " fill="#D7FEFC" style="stroke: #FFFFFF; stroke-width: 1.0;"/><path d="M660,186.6602 L660,196.6602 L670,196.6602 L660,186.6602 " fill="#D7FEFC" style="stroke: #FFFFFF; stroke-width: 1.0;"/><text fill="#000000" font-family="sans-serif" font-size="13" font-weight="bold" lengthAdjust="spacingAndGlyphs" textLength="85" x="570" y="203.7271">UPF to SMF</text><polygon fill="#000000" points="246.5,241.4922,256.5,245.4922,246.5,249.4922,250.5,245.4922" style="stroke: #000000; stroke-width: 1.0;"/><line style="stroke: #000000; stroke-width: 1.0;" x1="72.5" x2="252.5" y1="245.4922" y2="245.4922"/><text fill="#000000" font-family="sans-serif" font-size="13" lengthAdjust="spacingAndGlyphs" textLength="162" x="79.5" y="240.4263">29, GTP&lt;ICMP&gt; ping req.</text><path d="M263,226.3594 L263,251.3594 L369,251.3594 L369,236.3594 L359,226.3594 L263,226.3594 " fill="#5C8001" style="stroke: #FFFFFF; stroke-width: 1.0;"/><path d="M359,226.3594 L359,236.3594 L369,236.3594 L359,226.3594 " fill="#5C8001" style="stroke: #FFFFFF; stroke-width: 1.0;"/><text fill="#000000" font-family="sans-serif" font-size="13" font-weight="bold" lengthAdjust="spacingAndGlyphs" textLength="85" x="269" y="243.4263">gNB to UPF</text><polygon fill="#000000" points="610,276.625,620,280.625,610,284.625,614,280.625" style="stroke: #000000; stroke-width: 1.0;"/><line style="stroke: #000000; stroke-width: 1.0;" x1="258.5" x2="616" y1="280.625" y2="280.625"/><text fill="#000000" font-family="sans-serif" font-size="13" lengthAdjust="spacingAndGlyphs" textLength="115" x="265.5" y="275.5591">30, ICMP ping req.</text><path d="M627,261.4922 L627,286.4922 L753,286.4922 L753,271.4922 L743,261.4922 L627,261.4922 " fill="#5C8001" style="stroke: #FFFFFF; stroke-width: 1.0;"/><path d="M743,261.4922 L743,271.4922 L753,271.4922 L743,261.4922 " fill="#5C8001" style="stroke: #FFFFFF; stroke-width: 1.0;"/><text fill="#000000" font-family="sans-serif" font-size="13" font-weight="bold" lengthAdjust="spacingAndGlyphs" textLength="105" x="633" y="278.5591">UPF to 8.8.8.8</text><polygon fill="#000000" points="269.5,311.7578,259.5,315.7578,269.5,319.7578,265.5,315.7578" style="stroke: #000000; stroke-width: 1.0;"/><line style="stroke: #000000; stroke-width: 1.0;" x1="263.5" x2="621" y1="315.7578" y2="315.7578"/><text fill="#000000" font-family="sans-serif" font-size="13" lengthAdjust="spacingAndGlyphs" textLength="114" x="275.5" y="310.6919">31, ICMP ping rsp.</text><path d="M627,296.625 L627,321.625 L753,321.625 L753,306.625 L743,296.625 L627,296.625 " fill="#EDFEC2" style="stroke: #FFFFFF; stroke-width: 1.0;"/><path d="M743,296.625 L743,306.625 L753,306.625 L743,296.625 " fill="#EDFEC2" style="stroke: #FFFFFF; stroke-width: 1.0;"/><text fill="#000000" font-family="sans-serif" font-size="13" font-weight="bold" lengthAdjust="spacingAndGlyphs" textLength="105" x="633" y="313.6919">8.8.8.8 to UPF</text><polygon fill="#000000" points="35.5,346.8906,25.5,350.8906,35.5,354.8906,31.5,350.8906" style="stroke: #000000; stroke-width: 1.0;"/><line style="stroke: #000000; stroke-width: 1.0;" x1="29.5" x2="621" y1="350.8906" y2="350.8906"/><text fill="#000000" font-family="sans-serif" font-size="13" lengthAdjust="spacingAndGlyphs" textLength="161" x="41.5" y="345.8247">32, GTP&lt;ICMP&gt; ping rsp.</text><path d="M627,331.7578 L627,356.7578 L743,356.7578 L743,341.7578 L733,331.7578 L627,331.7578 " fill="#EDFEC2" style="stroke: #FFFFFF; stroke-width: 1.0;"/><path d="M733,331.7578 L733,341.7578 L743,341.7578 L733,331.7578 " fill="#EDFEC2" style="stroke: #FFFFFF; stroke-width: 1.0;"/><text fill="#000000" font-family="sans-serif" font-size="13" font-weight="bold" lengthAdjust="spacingAndGlyphs" textLength="95" x="633" y="348.8247">8.8.8.8 to UE</text><!--MD5=[2c389e6815094e731921bf3107d5825c]
@startuml
skinparam shadowing false
skinparam NoteBorderColor white
skinparam sequence {
    ArrowColor black
    LifeLineBorderColor black
    LifeLineBackgroundColor black
    ParticipantBorderColor white
    ParticipantBackgroundColor #e6e6e6
}
participant "UE"
participant "gNB"
participant "UPF"
participant "SMF"
participant "8.8.8.8"

"SMF" -> "UPF": 25, PFCP req.\nPFCP Session Establishment Request (50)

note right #03B5AA
**SMF to UPF**
end note

"UPF" -> "SMF": 26, PFCP rsp.\nPFCP Session Establishment Response (51)

note right #D7FEFC
**UPF to SMF**
end note

"SMF" -> "UPF": 27, PFCP req.\nPFCP Session Modification Request (52)

note right #03B5AA
**SMF to UPF**
end note

"UPF" -> "SMF": 28, PFCP rsp.\nPFCP Session Modification Response (53)

note right #D7FEFC
**UPF to SMF**
end note

"gNB" -> "UPF": 29, GTP<ICMP> ping req.

note right #5C8001
**gNB to UPF**
end note

"UPF" -> "8.8.8.8": 30, ICMP ping req.

note right #5C8001
**UPF to 8.8.8.8**
end note

"8.8.8.8" -> "UPF": 31, ICMP ping rsp.

note right #EDFEC2
**8.8.8.8 to UPF**
end note

"8.8.8.8" -> "UE": 32, GTP<ICMP> ping rsp.

note right #EDFEC2
**8.8.8.8 to UE**
end note

@enduml

PlantUML version 1.2019.12(Sun Nov 03 11:24:54 CET 2019)
(APACHE source distribution)
Java Runtime: OpenJDK Runtime Environment
JVM: OpenJDK 64-Bit Server VM
Java Version: 11.0.18+10-post-Ubuntu-0ubuntu120.04.1
Operating System: Linux
Default Encoding: UTF-8
Language: en
Country: US
--></g></svg>