<?xml version="1.0" encoding="UTF-8" standalone="no"?><svg xmlns="http://www.w3.org/2000/svg" xmlns:xlink="http://www.w3.org/1999/xlink" contentScriptType="application/ecmascript" contentStyleType="text/css" height="762px" preserveAspectRatio="none" style="width:564px;height:762px;" version="1.1" viewBox="0 0 564 762" width="564px" zoomAndPan="magnify"><defs/><g><line style="stroke: #000000; stroke-width: 1.0; stroke-dasharray: 5.0,5.0;" x1="29" x2="29" y1="34.2969" y2="721.8203"/><line style="stroke: #000000; stroke-width: 1.0; stroke-dasharray: 5.0,5.0;" x1="82" x2="82" y1="34.2969" y2="721.8203"/><line style="stroke: #000000; stroke-width: 1.0; stroke-dasharray: 5.0,5.0;" x1="134" x2="134" y1="34.2969" y2="721.8203"/><line style="stroke: #000000; stroke-width: 1.0; stroke-dasharray: 5.0,5.0;" x1="187" x2="187" y1="34.2969" y2="721.8203"/><line style="stroke: #000000; stroke-width: 1.0; stroke-dasharray: 5.0,5.0;" x1="442.5" x2="442.5" y1="34.2969" y2="721.8203"/><line style="stroke: #000000; stroke-width: 1.0; stroke-dasharray: 5.0,5.0;" x1="493.5" x2="493.5" y1="34.2969" y2="721.8203"/><rect fill="#E6E6E6" height="30.2969" style="stroke: #FFFFFF; stroke-width: 1.5;" width="43" x="8" y="3"/><text fill="#000000" font-family="sans-serif" font-size="14" lengthAdjust="spacingAndGlyphs" textLength="29" x="15" y="22.9951">AMF</text><rect fill="#E6E6E6" height="30.2969" style="stroke: #FFFFFF; stroke-width: 1.5;" width="43" x="8" y="720.8203"/><text fill="#000000" font-family="sans-serif" font-size="14" lengthAdjust="spacingAndGlyphs" textLength="29" x="15" y="740.8154">AMF</text><rect fill="#E6E6E6" height="30.2969" style="stroke: #FFFFFF; stroke-width: 1.5;" width="43" x="61" y="3"/><text fill="#000000" font-family="sans-serif" font-size="14" lengthAdjust="spacingAndGlyphs" textLength="29" x="68" y="22.9951">SMF</text><rect fill="#E6E6E6" height="30.2969" style="stroke: #FFFFFF; stroke-width: 1.5;" width="43" x="61" y="720.8203"/><text fill="#000000" font-family="sans-serif" font-size="14" lengthAdjust="spacingAndGlyphs" textLength="29" x="68" y="740.8154">SMF</text><rect fill="#E6E6E6" height="30.2969" style="stroke: #FFFFFF; stroke-width: 1.5;" width="41" x="114" y="3"/><text fill="#000000" font-family="sans-serif" font-size="14" lengthAdjust="spacingAndGlyphs" textLength="27" x="121" y="22.9951">PCF</text><rect fill="#E6E6E6" height="30.2969" style="stroke: #FFFFFF; stroke-width: 1.5;" width="41" x="114" y="720.8203"/><text fill="#000000" font-family="sans-serif" font-size="14" lengthAdjust="spacingAndGlyphs" textLength="27" x="121" y="740.8154">PCF</text><rect fill="#E6E6E6" height="30.2969" style="stroke: #FFFFFF; stroke-width: 1.5;" width="45" x="165" y="3"/><text fill="#000000" font-family="sans-serif" font-size="14" lengthAdjust="spacingAndGlyphs" textLength="31" x="172" y="22.9951">UDR</text><rect fill="#E6E6E6" height="30.2969" style="stroke: #FFFFFF; stroke-width: 1.5;" width="45" x="165" y="720.8203"/><text fill="#000000" font-family="sans-serif" font-size="14" lengthAdjust="spacingAndGlyphs" textLength="31" x="172" y="740.8154">UDR</text><rect fill="#E6E6E6" height="30.2969" style="stroke: #FFFFFF; stroke-width: 1.5;" width="42" x="421.5" y="3"/><text fill="#000000" font-family="sans-serif" font-size="14" lengthAdjust="spacingAndGlyphs" textLength="28" x="428.5" y="22.9951">NRF</text><rect fill="#E6E6E6" height="30.2969" style="stroke: #FFFFFF; stroke-width: 1.5;" width="42" x="421.5" y="720.8203"/><text fill="#000000" font-family="sans-serif" font-size="14" lengthAdjust="spacingAndGlyphs" textLength="28" x="428.5" y="740.8154">NRF</text><rect fill="#E6E6E6" height="30.2969" style="stroke: #FFFFFF; stroke-width: 1.5;" width="41" x="473.5" y="3"/><text fill="#000000" font-family="sans-serif" font-size="14" lengthAdjust="spacingAndGlyphs" textLength="27" x="480.5" y="22.9951">BSF</text><rect fill="#E6E6E6" height="30.2969" style="stroke: #FFFFFF; stroke-width: 1.5;" width="41" x="473.5" y="720.8203"/><text fill="#000000" font-family="sans-serif" font-size="14" lengthAdjust="spacingAndGlyphs" textLength="27" x="480.5" y="740.8154">BSF</text><polygon fill="#000000" points="145.5,64.4297,135.5,68.4297,145.5,72.4297,141.5,68.4297" style="stroke: #000000; stroke-width: 1.0;"/><line style="stroke: #000000; stroke-width: 1.0;" x1="139.5" x2="441.5" y1="68.4297" y2="68.4297"/><text fill="#000000" font-family="sans-serif" font-size="13" lengthAdjust="spacingAndGlyphs" textLength="284" x="151.5" y="63.3638">244, HTTP/2 req. or rsp. (no HTTP/2 headers)</text><path d="M447,49.2969 L447,74.2969 L552,74.2969 L552,59.2969 L542,49.2969 L447,49.2969 " fill="#D7FEFC" style="stroke: #FFFFFF; stroke-width: 1.0;"/><path d="M542,49.2969 L542,59.2969 L552,59.2969 L542,49.2969 " fill="#D7FEFC" style="stroke: #FFFFFF; stroke-width: 1.0;"/><text fill="#000000" font-family="sans-serif" font-size="13" font-weight="bold" lengthAdjust="spacingAndGlyphs" textLength="84" x="453" y="66.3638">NRF to PCF</text><polygon fill="#000000" points="430.5,99.5625,440.5,103.5625,430.5,107.5625,434.5,103.5625" style="stroke: #000000; stroke-width: 1.0;"/><line style="stroke: #000000; stroke-width: 1.0;" x1="134.5" x2="436.5" y1="103.5625" y2="103.5625"/><text fill="#000000" font-family="sans-serif" font-size="13" lengthAdjust="spacingAndGlyphs" textLength="284" x="141.5" y="98.4966">246, HTTP/2 req. or rsp. (no HTTP/2 headers)</text><path d="M447,84.4297 L447,109.4297 L552,109.4297 L552,94.4297 L542,84.4297 L447,84.4297 " fill="#D7FEFC" style="stroke: #FFFFFF; stroke-width: 1.0;"/><path d="M542,84.4297 L542,94.4297 L552,94.4297 L542,84.4297 " fill="#D7FEFC" style="stroke: #FFFFFF; stroke-width: 1.0;"/><text fill="#000000" font-family="sans-serif" font-size="13" font-weight="bold" lengthAdjust="spacingAndGlyphs" textLength="84" x="453" y="101.4966">PCF to NRF</text><polygon fill="#000000" points="430.5,134.6953,440.5,138.6953,430.5,142.6953,434.5,138.6953" style="stroke: #000000; stroke-width: 1.0;"/><line style="stroke: #000000; stroke-width: 1.0;" x1="134.5" x2="436.5" y1="138.6953" y2="138.6953"/><text fill="#000000" font-family="sans-serif" font-size="13" lengthAdjust="spacingAndGlyphs" textLength="284" x="141.5" y="133.6294">247, HTTP/2 req. or rsp. (no HTTP/2 headers)</text><path d="M447,119.5625 L447,144.5625 L552,144.5625 L552,129.5625 L542,119.5625 L447,119.5625 " fill="#D7FEFC" style="stroke: #FFFFFF; stroke-width: 1.0;"/><path d="M542,119.5625 L542,129.5625 L552,129.5625 L542,119.5625 " fill="#D7FEFC" style="stroke: #FFFFFF; stroke-width: 1.0;"/><text fill="#000000" font-family="sans-serif" font-size="13" font-weight="bold" lengthAdjust="spacingAndGlyphs" textLength="84" x="453" y="136.6294">PCF to NRF</text><polygon fill="#000000" points="145.5,169.8281,135.5,173.8281,145.5,177.8281,141.5,173.8281" style="stroke: #000000; stroke-width: 1.0;"/><line style="stroke: #000000; stroke-width: 1.0;" x1="139.5" x2="441.5" y1="173.8281" y2="173.8281"/><text fill="#000000" font-family="sans-serif" font-size="13" lengthAdjust="spacingAndGlyphs" textLength="284" x="151.5" y="168.7622">249, HTTP/2 req. or rsp. (no HTTP/2 headers)</text><path d="M447,154.6953 L447,179.6953 L552,179.6953 L552,164.6953 L542,154.6953 L447,154.6953 " fill="#D7FEFC" style="stroke: #FFFFFF; stroke-width: 1.0;"/><path d="M542,154.6953 L542,164.6953 L552,164.6953 L542,154.6953 " fill="#D7FEFC" style="stroke: #FFFFFF; stroke-width: 1.0;"/><text fill="#000000" font-family="sans-serif" font-size="13" font-weight="bold" lengthAdjust="spacingAndGlyphs" textLength="84" x="453" y="171.7622">NRF to PCF</text><polygon fill="#000000" points="430.5,204.9609,440.5,208.9609,430.5,212.9609,434.5,208.9609" style="stroke: #000000; stroke-width: 1.0;"/><line style="stroke: #000000; stroke-width: 1.0;" x1="134.5" x2="436.5" y1="208.9609" y2="208.9609"/><text fill="#000000" font-family="sans-serif" font-size="13" lengthAdjust="spacingAndGlyphs" textLength="284" x="141.5" y="203.895">251, HTTP/2 req. or rsp. (no HTTP/2 headers)</text><path d="M447,189.8281 L447,214.8281 L552,214.8281 L552,199.8281 L542,189.8281 L447,189.8281 " fill="#D7FEFC" style="stroke: #FFFFFF; stroke-width: 1.0;"/><path d="M542,189.8281 L542,199.8281 L552,199.8281 L542,189.8281 " fill="#D7FEFC" style="stroke: #FFFFFF; stroke-width: 1.0;"/><text fill="#000000" font-family="sans-serif" font-size="13" font-weight="bold" lengthAdjust="spacingAndGlyphs" textLength="84" x="453" y="206.895">PCF to NRF</text><polygon fill="#000000" points="430.5,240.0938,440.5,244.0938,430.5,248.0938,434.5,244.0938" style="stroke: #000000; stroke-width: 1.0;"/><line style="stroke: #000000; stroke-width: 1.0;" x1="134.5" x2="436.5" y1="244.0938" y2="244.0938"/><text fill="#000000" font-family="sans-serif" font-size="13" lengthAdjust="spacingAndGlyphs" textLength="284" x="141.5" y="239.0278">252, HTTP/2 req. or rsp. (no HTTP/2 headers)</text><path d="M447,224.9609 L447,249.9609 L552,249.9609 L552,234.9609 L542,224.9609 L447,224.9609 " fill="#D7FEFC" style="stroke: #FFFFFF; stroke-width: 1.0;"/><path d="M542,224.9609 L542,234.9609 L552,234.9609 L542,224.9609 " fill="#D7FEFC" style="stroke: #FFFFFF; stroke-width: 1.0;"/><text fill="#000000" font-family="sans-serif" font-size="13" font-weight="bold" lengthAdjust="spacingAndGlyphs" textLength="84" x="453" y="242.0278">PCF to NRF</text><polygon fill="#000000" points="145.5,275.2266,135.5,279.2266,145.5,283.2266,141.5,279.2266" style="stroke: #000000; stroke-width: 1.0;"/><line style="stroke: #000000; stroke-width: 1.0;" x1="139.5" x2="441.5" y1="279.2266" y2="279.2266"/><text fill="#000000" font-family="sans-serif" font-size="13" lengthAdjust="spacingAndGlyphs" textLength="284" x="151.5" y="274.1606">254, HTTP/2 req. or rsp. (no HTTP/2 headers)</text><path d="M447,260.0938 L447,285.0938 L552,285.0938 L552,270.0938 L542,260.0938 L447,260.0938 " fill="#D7FEFC" style="stroke: #FFFFFF; stroke-width: 1.0;"/><path d="M542,260.0938 L542,270.0938 L552,270.0938 L542,260.0938 " fill="#D7FEFC" style="stroke: #FFFFFF; stroke-width: 1.0;"/><text fill="#000000" font-family="sans-serif" font-size="13" font-weight="bold" lengthAdjust="spacingAndGlyphs" textLength="84" x="453" y="277.1606">NRF to PCF</text><polygon fill="#000000" points="430.5,310.3594,440.5,314.3594,430.5,318.3594,434.5,314.3594" style="stroke: #000000; stroke-width: 1.0;"/><line style="stroke: #000000; stroke-width: 1.0;" x1="134.5" x2="436.5" y1="314.3594" y2="314.3594"/><text fill="#000000" font-family="sans-serif" font-size="13" lengthAdjust="spacingAndGlyphs" textLength="284" x="141.5" y="309.2935">256, HTTP/2 req. or rsp. (no HTTP/2 headers)</text><path d="M447,295.2266 L447,320.2266 L552,320.2266 L552,305.2266 L542,295.2266 L447,295.2266 " fill="#D7FEFC" style="stroke: #FFFFFF; stroke-width: 1.0;"/><path d="M542,295.2266 L542,305.2266 L552,305.2266 L542,295.2266 " fill="#D7FEFC" style="stroke: #FFFFFF; stroke-width: 1.0;"/><text fill="#000000" font-family="sans-serif" font-size="13" font-weight="bold" lengthAdjust="spacingAndGlyphs" textLength="84" x="453" y="312.2935">PCF to NRF</text><polygon fill="#000000" points="430.5,345.4922,440.5,349.4922,430.5,353.4922,434.5,349.4922" style="stroke: #000000; stroke-width: 1.0;"/><line style="stroke: #000000; stroke-width: 1.0;" x1="134.5" x2="436.5" y1="349.4922" y2="349.4922"/><text fill="#000000" font-family="sans-serif" font-size="13" lengthAdjust="spacingAndGlyphs" textLength="284" x="141.5" y="344.4263">257, HTTP/2 req. or rsp. (no HTTP/2 headers)</text><path d="M447,330.3594 L447,355.3594 L552,355.3594 L552,340.3594 L542,330.3594 L447,330.3594 " fill="#D7FEFC" style="stroke: #FFFFFF; stroke-width: 1.0;"/><path d="M542,330.3594 L542,340.3594 L552,340.3594 L542,330.3594 " fill="#D7FEFC" style="stroke: #FFFFFF; stroke-width: 1.0;"/><text fill="#000000" font-family="sans-serif" font-size="13" font-weight="bold" lengthAdjust="spacingAndGlyphs" textLength="84" x="453" y="347.4263">PCF to NRF</text><polygon fill="#000000" points="145.5,380.625,135.5,384.625,145.5,388.625,141.5,384.625" style="stroke: #000000; stroke-width: 1.0;"/><line style="stroke: #000000; stroke-width: 1.0;" x1="139.5" x2="441.5" y1="384.625" y2="384.625"/><text fill="#000000" font-family="sans-serif" font-size="13" lengthAdjust="spacingAndGlyphs" textLength="284" x="151.5" y="379.5591">259, HTTP/2 req. or rsp. (no HTTP/2 headers)</text><path d="M447,365.4922 L447,390.4922 L552,390.4922 L552,375.4922 L542,365.4922 L447,365.4922 " fill="#D7FEFC" style="stroke: #FFFFFF; stroke-width: 1.0;"/><path d="M542,365.4922 L542,375.4922 L552,375.4922 L542,365.4922 " fill="#D7FEFC" style="stroke: #FFFFFF; stroke-width: 1.0;"/><text fill="#000000" font-family="sans-serif" font-size="13" font-weight="bold" lengthAdjust="spacingAndGlyphs" textLength="84" x="453" y="382.5591">NRF to PCF</text><polygon fill="#000000" points="430.5,415.7578,440.5,419.7578,430.5,423.7578,434.5,419.7578" style="stroke: #000000; stroke-width: 1.0;"/><line style="stroke: #000000; stroke-width: 1.0;" x1="134.5" x2="436.5" y1="419.7578" y2="419.7578"/><text fill="#000000" font-family="sans-serif" font-size="13" lengthAdjust="spacingAndGlyphs" textLength="284" x="141.5" y="414.6919">261, HTTP/2 req. or rsp. (no HTTP/2 headers)</text><path d="M447,400.625 L447,425.625 L552,425.625 L552,410.625 L542,400.625 L447,400.625 " fill="#D7FEFC" style="stroke: #FFFFFF; stroke-width: 1.0;"/><path d="M542,400.625 L542,410.625 L552,410.625 L542,400.625 " fill="#D7FEFC" style="stroke: #FFFFFF; stroke-width: 1.0;"/><text fill="#000000" font-family="sans-serif" font-size="13" font-weight="bold" lengthAdjust="spacingAndGlyphs" textLength="84" x="453" y="417.6919">PCF to NRF</text><polygon fill="#000000" points="430.5,450.8906,440.5,454.8906,430.5,458.8906,434.5,454.8906" style="stroke: #000000; stroke-width: 1.0;"/><line style="stroke: #000000; stroke-width: 1.0;" x1="134.5" x2="436.5" y1="454.8906" y2="454.8906"/><text fill="#000000" font-family="sans-serif" font-size="13" lengthAdjust="spacingAndGlyphs" textLength="284" x="141.5" y="449.8247">262, HTTP/2 req. or rsp. (no HTTP/2 headers)</text><path d="M447,435.7578 L447,460.7578 L552,460.7578 L552,445.7578 L542,435.7578 L447,435.7578 " fill="#D7FEFC" style="stroke: #FFFFFF; stroke-width: 1.0;"/><path d="M542,435.7578 L542,445.7578 L552,445.7578 L542,435.7578 " fill="#D7FEFC" style="stroke: #FFFFFF; stroke-width: 1.0;"/><text fill="#000000" font-family="sans-serif" font-size="13" font-weight="bold" lengthAdjust="spacingAndGlyphs" textLength="84" x="453" y="452.8247">PCF to NRF</text><polygon fill="#000000" points="145.5,486.0234,135.5,490.0234,145.5,494.0234,141.5,490.0234" style="stroke: #000000; stroke-width: 1.0;"/><line style="stroke: #000000; stroke-width: 1.0;" x1="139.5" x2="441.5" y1="490.0234" y2="490.0234"/><text fill="#000000" font-family="sans-serif" font-size="13" lengthAdjust="spacingAndGlyphs" textLength="284" x="151.5" y="484.9575">264, HTTP/2 req. or rsp. (no HTTP/2 headers)</text><path d="M447,470.8906 L447,495.8906 L552,495.8906 L552,480.8906 L542,470.8906 L447,470.8906 " fill="#D7FEFC" style="stroke: #FFFFFF; stroke-width: 1.0;"/><path d="M542,470.8906 L542,480.8906 L552,480.8906 L542,470.8906 " fill="#D7FEFC" style="stroke: #FFFFFF; stroke-width: 1.0;"/><text fill="#000000" font-family="sans-serif" font-size="13" font-weight="bold" lengthAdjust="spacingAndGlyphs" textLength="84" x="453" y="487.9575">NRF to PCF</text><polygon fill="#000000" points="430.5,521.1563,440.5,525.1563,430.5,529.1563,434.5,525.1563" style="stroke: #000000; stroke-width: 1.0;"/><line style="stroke: #000000; stroke-width: 1.0;" x1="134.5" x2="436.5" y1="525.1563" y2="525.1563"/><text fill="#000000" font-family="sans-serif" font-size="13" lengthAdjust="spacingAndGlyphs" textLength="284" x="141.5" y="520.0903">266, HTTP/2 req. or rsp. (no HTTP/2 headers)</text><path d="M447,506.0234 L447,531.0234 L552,531.0234 L552,516.0234 L542,506.0234 L447,506.0234 " fill="#D7FEFC" style="stroke: #FFFFFF; stroke-width: 1.0;"/><path d="M542,506.0234 L542,516.0234 L552,516.0234 L542,506.0234 " fill="#D7FEFC" style="stroke: #FFFFFF; stroke-width: 1.0;"/><text fill="#000000" font-family="sans-serif" font-size="13" font-weight="bold" lengthAdjust="spacingAndGlyphs" textLength="84" x="453" y="523.0903">PCF to NRF</text><polygon fill="#000000" points="430.5,556.2891,440.5,560.2891,430.5,564.2891,434.5,560.2891" style="stroke: #000000; stroke-width: 1.0;"/><line style="stroke: #000000; stroke-width: 1.0;" x1="134.5" x2="436.5" y1="560.2891" y2="560.2891"/><text fill="#000000" font-family="sans-serif" font-size="13" lengthAdjust="spacingAndGlyphs" textLength="284" x="141.5" y="555.2231">267, HTTP/2 req. or rsp. (no HTTP/2 headers)</text><path d="M447,541.1563 L447,566.1563 L552,566.1563 L552,551.1563 L542,541.1563 L447,541.1563 " fill="#D7FEFC" style="stroke: #FFFFFF; stroke-width: 1.0;"/><path d="M542,541.1563 L542,551.1563 L552,551.1563 L542,541.1563 " fill="#D7FEFC" style="stroke: #FFFFFF; stroke-width: 1.0;"/><text fill="#000000" font-family="sans-serif" font-size="13" font-weight="bold" lengthAdjust="spacingAndGlyphs" textLength="84" x="453" y="558.2231">PCF to NRF</text><polygon fill="#000000" points="145.5,591.4219,135.5,595.4219,145.5,599.4219,141.5,595.4219" style="stroke: #000000; stroke-width: 1.0;"/><line style="stroke: #000000; stroke-width: 1.0;" x1="139.5" x2="441.5" y1="595.4219" y2="595.4219"/><text fill="#000000" font-family="sans-serif" font-size="13" lengthAdjust="spacingAndGlyphs" textLength="284" x="151.5" y="590.356">269, HTTP/2 req. or rsp. (no HTTP/2 headers)</text><path d="M447,576.2891 L447,601.2891 L552,601.2891 L552,586.2891 L542,576.2891 L447,576.2891 " fill="#D7FEFC" style="stroke: #FFFFFF; stroke-width: 1.0;"/><path d="M542,576.2891 L542,586.2891 L552,586.2891 L542,576.2891 " fill="#D7FEFC" style="stroke: #FFFFFF; stroke-width: 1.0;"/><text fill="#000000" font-family="sans-serif" font-size="13" font-weight="bold" lengthAdjust="spacingAndGlyphs" textLength="84" x="453" y="593.356">NRF to PCF</text><polygon fill="#000000" points="430.5,626.5547,440.5,630.5547,430.5,634.5547,434.5,630.5547" style="stroke: #000000; stroke-width: 1.0;"/><line style="stroke: #000000; stroke-width: 1.0;" x1="134.5" x2="436.5" y1="630.5547" y2="630.5547"/><text fill="#000000" font-family="sans-serif" font-size="13" lengthAdjust="spacingAndGlyphs" textLength="284" x="141.5" y="625.4888">271, HTTP/2 req. or rsp. (no HTTP/2 headers)</text><path d="M447,611.4219 L447,636.4219 L552,636.4219 L552,621.4219 L542,611.4219 L447,611.4219 " fill="#D7FEFC" style="stroke: #FFFFFF; stroke-width: 1.0;"/><path d="M542,611.4219 L542,621.4219 L552,621.4219 L542,611.4219 " fill="#D7FEFC" style="stroke: #FFFFFF; stroke-width: 1.0;"/><text fill="#000000" font-family="sans-serif" font-size="13" font-weight="bold" lengthAdjust="spacingAndGlyphs" textLength="84" x="453" y="628.4888">PCF to NRF</text><polygon fill="#000000" points="430.5,661.6875,440.5,665.6875,430.5,669.6875,434.5,665.6875" style="stroke: #000000; stroke-width: 1.0;"/><line style="stroke: #000000; stroke-width: 1.0;" x1="134.5" x2="436.5" y1="665.6875" y2="665.6875"/><text fill="#000000" font-family="sans-serif" font-size="13" lengthAdjust="spacingAndGlyphs" textLength="284" x="141.5" y="660.6216">272, HTTP/2 req. or rsp. (no HTTP/2 headers)</text><path d="M447,646.5547 L447,671.5547 L552,671.5547 L552,656.5547 L542,646.5547 L447,646.5547 " fill="#D7FEFC" style="stroke: #FFFFFF; stroke-width: 1.0;"/><path d="M542,646.5547 L542,656.5547 L552,656.5547 L542,646.5547 " fill="#D7FEFC" style="stroke: #FFFFFF; stroke-width: 1.0;"/><text fill="#000000" font-family="sans-serif" font-size="13" font-weight="bold" lengthAdjust="spacingAndGlyphs" textLength="84" x="453" y="663.6216">PCF to NRF</text><polygon fill="#000000" points="145.5,696.8203,135.5,700.8203,145.5,704.8203,141.5,700.8203" style="stroke: #000000; stroke-width: 1.0;"/><line style="stroke: #000000; stroke-width: 1.0;" x1="139.5" x2="441.5" y1="700.8203" y2="700.8203"/><text fill="#000000" font-family="sans-serif" font-size="13" lengthAdjust="spacingAndGlyphs" textLength="284" x="151.5" y="695.7544">274, HTTP/2 req. or rsp. (no HTTP/2 headers)</text><path d="M447,681.6875 L447,706.6875 L552,706.6875 L552,691.6875 L542,681.6875 L447,681.6875 " fill="#D7FEFC" style="stroke: #FFFFFF; stroke-width: 1.0;"/><path d="M542,681.6875 L542,691.6875 L552,691.6875 L542,681.6875 " fill="#D7FEFC" style="stroke: #FFFFFF; stroke-width: 1.0;"/><text fill="#000000" font-family="sans-serif" font-size="13" font-weight="bold" lengthAdjust="spacingAndGlyphs" textLength="84" x="453" y="698.7544">NRF to PCF</text><!--MD5=[40c600c956dcddcd3fb0e6a6d745c0ca]
@startuml
skinparam shadowing false
skinparam NoteBorderColor white
skinparam sequence {
    ArrowColor black
    LifeLineBorderColor black
    LifeLineBackgroundColor black
    ParticipantBorderColor white
    ParticipantBackgroundColor #e6e6e6
}
participant "AMF"
participant "SMF"
participant "PCF"
participant "UDR"
participant "NRF"
participant "BSF"

"NRF" -> "PCF": 244, HTTP/2 req. or rsp. (no HTTP/2 headers)

note right #D7FEFC
**NRF to PCF**
end note

"PCF" -> "NRF": 246, HTTP/2 req. or rsp. (no HTTP/2 headers)

note right #D7FEFC
**PCF to NRF**
end note

"PCF" -> "NRF": 247, HTTP/2 req. or rsp. (no HTTP/2 headers)

note right #D7FEFC
**PCF to NRF**
end note

"NRF" -> "PCF": 249, HTTP/2 req. or rsp. (no HTTP/2 headers)

note right #D7FEFC
**NRF to PCF**
end note

"PCF" -> "NRF": 251, HTTP/2 req. or rsp. (no HTTP/2 headers)

note right #D7FEFC
**PCF to NRF**
end note

"PCF" -> "NRF": 252, HTTP/2 req. or rsp. (no HTTP/2 headers)

note right #D7FEFC
**PCF to NRF**
end note

"NRF" -> "PCF": 254, HTTP/2 req. or rsp. (no HTTP/2 headers)

note right #D7FEFC
**NRF to PCF**
end note

"PCF" -> "NRF": 256, HTTP/2 req. or rsp. (no HTTP/2 headers)

note right #D7FEFC
**PCF to NRF**
end note

"PCF" -> "NRF": 257, HTTP/2 req. or rsp. (no HTTP/2 headers)

note right #D7FEFC
**PCF to NRF**
end note

"NRF" -> "PCF": 259, HTTP/2 req. or rsp. (no HTTP/2 headers)

note right #D7FEFC
**NRF to PCF**
end note

"PCF" -> "NRF": 261, HTTP/2 req. or rsp. (no HTTP/2 headers)

note right #D7FEFC
**PCF to NRF**
end note

"PCF" -> "NRF": 262, HTTP/2 req. or rsp. (no HTTP/2 headers)

note right #D7FEFC
**PCF to NRF**
end note

"NRF" -> "PCF": 264, HTTP/2 req. or rsp. (no HTTP/2 headers)

note right #D7FEFC
**NRF to PCF**
end note

"PCF" -> "NRF": 266, HTTP/2 req. or rsp. (no HTTP/2 headers)

note right #D7FEFC
**PCF to NRF**
end note

"PCF" -> "NRF": 267, HTTP/2 req. or rsp. (no HTTP/2 headers)

note right #D7FEFC
**PCF to NRF**
end note

"NRF" -> "PCF": 269, HTTP/2 req. or rsp. (no HTTP/2 headers)

note right #D7FEFC
**NRF to PCF**
end note

"PCF" -> "NRF": 271, HTTP/2 req. or rsp. (no HTTP/2 headers)

note right #D7FEFC
**PCF to NRF**
end note

"PCF" -> "NRF": 272, HTTP/2 req. or rsp. (no HTTP/2 headers)

note right #D7FEFC
**PCF to NRF**
end note

"NRF" -> "PCF": 274, HTTP/2 req. or rsp. (no HTTP/2 headers)

note right #D7FEFC
**NRF to PCF**
end note

@enduml

PlantUML version 1.2019.12(Sun Nov 03 11:24:54 CET 2019)
(APACHE source distribution)
Java Runtime: OpenJDK Runtime Environment
JVM: OpenJDK 64-Bit Server VM
Java Version: 11.0.18+10-post-Ubuntu-0ubuntu120.04.1
Operating System: Linux
Default Encoding: UTF-8
Language: en
Country: US
--></g></svg>