<?xml version="1.0" encoding="UTF-8" standalone="no"?><svg xmlns="http://www.w3.org/2000/svg" xmlns:xlink="http://www.w3.org/1999/xlink" contentScriptType="application/ecmascript" contentStyleType="text/css" height="2206px" preserveAspectRatio="none" style="width:1448px;height:2206px;" version="1.1" viewBox="0 0 1448 2206" width="1448px" zoomAndPan="magnify"><defs/><g><line style="stroke: #000000; stroke-width: 1.0; stroke-dasharray: 5.0,5.0;" x1="30" x2="30" y1="34.2969" y2="2166.0391"/><line style="stroke: #000000; stroke-width: 1.0; stroke-dasharray: 5.0,5.0;" x1="788" x2="788" y1="34.2969" y2="2166.0391"/><line style="stroke: #000000; stroke-width: 1.0; stroke-dasharray: 5.0,5.0;" x1="842" x2="842" y1="34.2969" y2="2166.0391"/><rect fill="#E6E6E6" height="30.2969" style="stroke: #FFFFFF; stroke-width: 1.5;" width="45" x="8" y="3"/><text fill="#000000" font-family="sans-serif" font-size="14" lengthAdjust="spacingAndGlyphs" textLength="31" x="15" y="22.9951">UDR</text><rect fill="#E6E6E6" height="30.2969" style="stroke: #FFFFFF; stroke-width: 1.5;" width="45" x="8" y="2165.0391"/><text fill="#000000" font-family="sans-serif" font-size="14" lengthAdjust="spacingAndGlyphs" textLength="31" x="15" y="2185.0342">UDR</text><rect fill="#E6E6E6" height="30.2969" style="stroke: #FFFFFF; stroke-width: 1.5;" width="47" x="765" y="3"/><text fill="#000000" font-family="sans-serif" font-size="14" lengthAdjust="spacingAndGlyphs" textLength="33" x="772" y="22.9951">UDM</text><rect fill="#E6E6E6" height="30.2969" style="stroke: #FFFFFF; stroke-width: 1.5;" width="47" x="765" y="2165.0391"/><text fill="#000000" font-family="sans-serif" font-size="14" lengthAdjust="spacingAndGlyphs" textLength="33" x="772" y="2185.0342">UDM</text><rect fill="#E6E6E6" height="30.2969" style="stroke: #FFFFFF; stroke-width: 1.5;" width="41" x="822" y="3"/><text fill="#000000" font-family="sans-serif" font-size="14" lengthAdjust="spacingAndGlyphs" textLength="27" x="829" y="22.9951">PCF</text><rect fill="#E6E6E6" height="30.2969" style="stroke: #FFFFFF; stroke-width: 1.5;" width="41" x="822" y="2165.0391"/><text fill="#000000" font-family="sans-serif" font-size="14" lengthAdjust="spacingAndGlyphs" textLength="27" x="829" y="2185.0342">PCF</text><polygon fill="#000000" points="41.5,76.5625,31.5,80.5625,41.5,84.5625,37.5,80.5625" style="stroke: #000000; stroke-width: 1.0;"/><line style="stroke: #000000; stroke-width: 1.0;" x1="35.5" x2="787.5" y1="80.5625" y2="80.5625"/><text fill="#000000" font-family="sans-serif" font-size="13" lengthAdjust="spacingAndGlyphs" textLength="97" x="47.5" y="60.3638">41, HTTP/2 req.</text><text fill="#000000" font-family="sans-serif" font-size="13" lengthAdjust="spacingAndGlyphs" textLength="681" x="47.5" y="75.4966">GET  /nudr-dr/v1/subscription-data/imsi-901700000000004/authentication-data/authentication-subscription</text><path d="M793,53.8633 L793,78.8633 L904,78.8633 L904,63.8633 L894,53.8633 L793,53.8633 " fill="#03B5AA" style="stroke: #FFFFFF; stroke-width: 1.0;"/><path d="M894,53.8633 L894,63.8633 L904,63.8633 L894,53.8633 " fill="#03B5AA" style="stroke: #FFFFFF; stroke-width: 1.0;"/><text fill="#000000" font-family="sans-serif" font-size="13" font-weight="bold" lengthAdjust="spacingAndGlyphs" textLength="90" x="799" y="70.9302">UDM to UDR</text><polygon fill="#000000" points="776.5,108.6953,786.5,112.6953,776.5,116.6953,780.5,112.6953" style="stroke: #000000; stroke-width: 1.0;"/><line style="stroke: #000000; stroke-width: 1.0;" x1="30.5" x2="782.5" y1="112.6953" y2="112.6953"/><text fill="#000000" font-family="sans-serif" font-size="13" lengthAdjust="spacingAndGlyphs" textLength="124" x="37.5" y="107.6294">54, HTTP/2 200 rsp.</text><path d="M793,93.5625 L793,118.5625 L904,118.5625 L904,103.5625 L894,93.5625 L793,93.5625 " fill="#D7FEFC" style="stroke: #FFFFFF; stroke-width: 1.0;"/><path d="M894,93.5625 L894,103.5625 L904,103.5625 L894,93.5625 " fill="#D7FEFC" style="stroke: #FFFFFF; stroke-width: 1.0;"/><text fill="#000000" font-family="sans-serif" font-size="13" font-weight="bold" lengthAdjust="spacingAndGlyphs" textLength="90" x="799" y="110.6294">UDR to UDM</text><polygon fill="#000000" points="776.5,204.3594,786.5,208.3594,776.5,212.3594,780.5,208.3594" style="stroke: #000000; stroke-width: 1.0;"/><line style="stroke: #000000; stroke-width: 1.0;" x1="30.5" x2="782.5" y1="208.3594" y2="208.3594"/><text fill="#000000" font-family="sans-serif" font-size="13" lengthAdjust="spacingAndGlyphs" textLength="276" x="37.5" y="203.2935">55, HTTP/2 req. or rsp. (no HTTP/2 headers)</text><path d="M793,128.6953 L793,274.6953 L1217,274.6953 L1217,138.6953 L1207,128.6953 L793,128.6953 " fill="#D7FEFC" style="stroke: #FFFFFF; stroke-width: 1.0;"/><path d="M1207,128.6953 L1207,138.6953 L1217,138.6953 L1207,128.6953 " fill="#D7FEFC" style="stroke: #FFFFFF; stroke-width: 1.0;"/><text fill="#000000" font-family="sans-serif" font-size="13" font-weight="bold" lengthAdjust="spacingAndGlyphs" textLength="90" x="799" y="145.7622">UDR to UDM</text><text fill="#000000" font-family="sans-serif" font-size="13" lengthAdjust="spacingAndGlyphs" textLength="235" x="799" y="160.895">{ "authenticationMethod": "5G_AKA",</text><text fill="#000000" font-family="sans-serif" font-size="13" lengthAdjust="spacingAndGlyphs" textLength="395" x="807" y="176.0278">"encPermanentKey": "465b5ce8b199b49faa5f0a2ee238a6bc",</text><text fill="#000000" font-family="sans-serif" font-size="13" lengthAdjust="spacingAndGlyphs" textLength="140" x="807" y="191.1606">"sequenceNumber": {</text><text fill="#000000" font-family="sans-serif" font-size="13" lengthAdjust="spacingAndGlyphs" textLength="147" x="815" y="206.2935">"sqn": "000000001d41"</text><text fill="#000000" font-family="sans-serif" font-size="13" lengthAdjust="spacingAndGlyphs" textLength="12" x="807" y="221.4263">},</text><text fill="#000000" font-family="sans-serif" font-size="13" lengthAdjust="spacingAndGlyphs" textLength="270" x="807" y="236.5591">"authenticationManagementField": "8000",</text><text fill="#000000" font-family="sans-serif" font-size="13" lengthAdjust="spacingAndGlyphs" textLength="362" x="807" y="251.6919">"encOpcKey": "e8ed289deba952e4283b54e88e6183ca"}</text><text fill="#000000" font-family="sans-serif" font-size="13" lengthAdjust="spacingAndGlyphs" textLength="0" x="803" y="266.8247"/><polygon fill="#000000" points="41.5,312.1563,31.5,316.1563,41.5,320.1563,37.5,316.1563" style="stroke: #000000; stroke-width: 1.0;"/><line style="stroke: #000000; stroke-width: 1.0;" x1="35.5" x2="787.5" y1="316.1563" y2="316.1563"/><text fill="#000000" font-family="sans-serif" font-size="13" lengthAdjust="spacingAndGlyphs" textLength="97" x="47.5" y="295.9575">57, HTTP/2 req.</text><text fill="#000000" font-family="sans-serif" font-size="13" lengthAdjust="spacingAndGlyphs" textLength="644" x="47.5" y="311.0903">PUT  /nudr-dr/v1/subscription-data/imsi-901700000000004/authentication-data/authentication-status</text><path d="M793,289.457 L793,314.457 L904,314.457 L904,299.457 L894,289.457 L793,289.457 " fill="#03B5AA" style="stroke: #FFFFFF; stroke-width: 1.0;"/><path d="M894,289.457 L894,299.457 L904,299.457 L894,289.457 " fill="#03B5AA" style="stroke: #FFFFFF; stroke-width: 1.0;"/><text fill="#000000" font-family="sans-serif" font-size="13" font-weight="bold" lengthAdjust="spacingAndGlyphs" textLength="90" x="799" y="306.5239">UDM to UDR</text><polygon fill="#000000" points="41.5,344.2891,31.5,348.2891,41.5,352.2891,37.5,348.2891" style="stroke: #000000; stroke-width: 1.0;"/><line style="stroke: #000000; stroke-width: 1.0;" x1="35.5" x2="787.5" y1="348.2891" y2="348.2891"/><text fill="#000000" font-family="sans-serif" font-size="13" lengthAdjust="spacingAndGlyphs" textLength="276" x="47.5" y="343.2231">58, HTTP/2 req. or rsp. (no HTTP/2 headers)</text><path d="M793,329.1563 L793,354.1563 L904,354.1563 L904,339.1563 L894,329.1563 L793,329.1563 " fill="#D7FEFC" style="stroke: #FFFFFF; stroke-width: 1.0;"/><path d="M894,329.1563 L894,339.1563 L904,339.1563 L894,329.1563 " fill="#D7FEFC" style="stroke: #FFFFFF; stroke-width: 1.0;"/><text fill="#000000" font-family="sans-serif" font-size="13" font-weight="bold" lengthAdjust="spacingAndGlyphs" textLength="90" x="799" y="346.2231">UDM to UDR</text><polygon fill="#000000" points="776.5,379.4219,786.5,383.4219,776.5,387.4219,780.5,383.4219" style="stroke: #000000; stroke-width: 1.0;"/><line style="stroke: #000000; stroke-width: 1.0;" x1="30.5" x2="782.5" y1="383.4219" y2="383.4219"/><text fill="#000000" font-family="sans-serif" font-size="13" lengthAdjust="spacingAndGlyphs" textLength="124" x="37.5" y="378.356">66, HTTP/2 204 rsp.</text><path d="M793,364.2891 L793,389.2891 L904,389.2891 L904,374.2891 L894,364.2891 L793,364.2891 " fill="#D7FEFC" style="stroke: #FFFFFF; stroke-width: 1.0;"/><path d="M894,364.2891 L894,374.2891 L904,374.2891 L894,364.2891 " fill="#D7FEFC" style="stroke: #FFFFFF; stroke-width: 1.0;"/><text fill="#000000" font-family="sans-serif" font-size="13" font-weight="bold" lengthAdjust="spacingAndGlyphs" textLength="90" x="799" y="381.356">UDR to UDM</text><polygon fill="#000000" points="41.5,426.6875,31.5,430.6875,41.5,434.6875,37.5,430.6875" style="stroke: #000000; stroke-width: 1.0;"/><line style="stroke: #000000; stroke-width: 1.0;" x1="35.5" x2="787.5" y1="430.6875" y2="430.6875"/><text fill="#000000" font-family="sans-serif" font-size="13" lengthAdjust="spacingAndGlyphs" textLength="97" x="47.5" y="410.4888">67, HTTP/2 req.</text><text fill="#000000" font-family="sans-serif" font-size="13" lengthAdjust="spacingAndGlyphs" textLength="574" x="47.5" y="425.6216">PUT  /nudr-dr/v1/subscription-data/imsi-901700000000004/context-data/amf-3gpp-access</text><path d="M793,403.9883 L793,428.9883 L904,428.9883 L904,413.9883 L894,403.9883 L793,403.9883 " fill="#03B5AA" style="stroke: #FFFFFF; stroke-width: 1.0;"/><path d="M894,403.9883 L894,413.9883 L904,413.9883 L894,403.9883 " fill="#03B5AA" style="stroke: #FFFFFF; stroke-width: 1.0;"/><text fill="#000000" font-family="sans-serif" font-size="13" font-weight="bold" lengthAdjust="spacingAndGlyphs" textLength="90" x="799" y="421.0552">UDM to UDR</text><polygon fill="#000000" points="41.5,534.4844,31.5,538.4844,41.5,542.4844,37.5,538.4844" style="stroke: #000000; stroke-width: 1.0;"/><line style="stroke: #000000; stroke-width: 1.0;" x1="35.5" x2="787.5" y1="538.4844" y2="538.4844"/><text fill="#000000" font-family="sans-serif" font-size="13" lengthAdjust="spacingAndGlyphs" textLength="276" x="47.5" y="533.4185">68, HTTP/2 req. or rsp. (no HTTP/2 headers)</text><path d="M793,443.6875 L793,619.6875 L1436,619.6875 L1436,453.6875 L1426,443.6875 L793,443.6875 " fill="#D7FEFC" style="stroke: #FFFFFF; stroke-width: 1.0;"/><path d="M1426,443.6875 L1426,453.6875 L1436,453.6875 L1426,443.6875 " fill="#D7FEFC" style="stroke: #FFFFFF; stroke-width: 1.0;"/><text fill="#000000" font-family="sans-serif" font-size="13" font-weight="bold" lengthAdjust="spacingAndGlyphs" textLength="90" x="799" y="460.7544">UDM to UDR</text><text fill="#000000" font-family="sans-serif" font-size="13" lengthAdjust="spacingAndGlyphs" textLength="386" x="799" y="475.8872">{"amfInstanceId": "b822f9a4-f687-41ed-a876-f17e422b22ff",</text><text fill="#000000" font-family="sans-serif" font-size="13" lengthAdjust="spacingAndGlyphs" textLength="614" x="807" y="491.02">"deregCallbackUri": "http://10.0.3.1:7777/namf-callback/v1/imsi-901700000000004/dereg-notify",</text><text fill="#000000" font-family="sans-serif" font-size="13" lengthAdjust="spacingAndGlyphs" textLength="66" x="807" y="506.1528">"guami": {</text><text fill="#000000" font-family="sans-serif" font-size="13" lengthAdjust="spacingAndGlyphs" textLength="69" x="815" y="521.2856">"plmnId": {</text><text fill="#000000" font-family="sans-serif" font-size="13" lengthAdjust="spacingAndGlyphs" textLength="83" x="823" y="536.4185">"mcc": "901",</text><text fill="#000000" font-family="sans-serif" font-size="13" lengthAdjust="spacingAndGlyphs" textLength="72" x="823" y="551.5513">"mnc": "70"</text><text fill="#000000" font-family="sans-serif" font-size="13" lengthAdjust="spacingAndGlyphs" textLength="12" x="815" y="566.6841">},</text><text fill="#000000" font-family="sans-serif" font-size="13" lengthAdjust="spacingAndGlyphs" textLength="112" x="815" y="581.8169">"amfId": "020040"</text><text fill="#000000" font-family="sans-serif" font-size="13" lengthAdjust="spacingAndGlyphs" textLength="12" x="807" y="596.9497">},</text><text fill="#000000" font-family="sans-serif" font-size="13" lengthAdjust="spacingAndGlyphs" textLength="102" x="807" y="612.0825">"ratType": "NR"}</text><polygon fill="#000000" points="776.5,645.2813,786.5,649.2813,776.5,653.2813,780.5,649.2813" style="stroke: #000000; stroke-width: 1.0;"/><line style="stroke: #000000; stroke-width: 1.0;" x1="30.5" x2="782.5" y1="649.2813" y2="649.2813"/><text fill="#000000" font-family="sans-serif" font-size="13" lengthAdjust="spacingAndGlyphs" textLength="124" x="37.5" y="644.2153">70, HTTP/2 204 rsp.</text><path d="M793,630.1484 L793,655.1484 L904,655.1484 L904,640.1484 L894,630.1484 L793,630.1484 " fill="#D7FEFC" style="stroke: #FFFFFF; stroke-width: 1.0;"/><path d="M894,630.1484 L894,640.1484 L904,640.1484 L894,630.1484 " fill="#D7FEFC" style="stroke: #FFFFFF; stroke-width: 1.0;"/><text fill="#000000" font-family="sans-serif" font-size="13" font-weight="bold" lengthAdjust="spacingAndGlyphs" textLength="90" x="799" y="647.2153">UDR to UDM</text><polygon fill="#000000" points="41.5,692.5469,31.5,696.5469,41.5,700.5469,37.5,696.5469" style="stroke: #000000; stroke-width: 1.0;"/><line style="stroke: #000000; stroke-width: 1.0;" x1="35.5" x2="787.5" y1="696.5469" y2="696.5469"/><text fill="#000000" font-family="sans-serif" font-size="13" lengthAdjust="spacingAndGlyphs" textLength="97" x="47.5" y="676.3481">71, HTTP/2 req.</text><text fill="#000000" font-family="sans-serif" font-size="13" lengthAdjust="spacingAndGlyphs" textLength="587" x="47.5" y="691.481">GET  /nudr-dr/v1/subscription-data/imsi-901700000000004/90170/provisioned-data/am-data</text><path d="M793,669.8477 L793,694.8477 L904,694.8477 L904,679.8477 L894,669.8477 L793,669.8477 " fill="#03B5AA" style="stroke: #FFFFFF; stroke-width: 1.0;"/><path d="M894,669.8477 L894,679.8477 L904,679.8477 L894,669.8477 " fill="#03B5AA" style="stroke: #FFFFFF; stroke-width: 1.0;"/><text fill="#000000" font-family="sans-serif" font-size="13" font-weight="bold" lengthAdjust="spacingAndGlyphs" textLength="90" x="799" y="686.9146">UDM to UDR</text><polygon fill="#000000" points="776.5,724.6797,786.5,728.6797,776.5,732.6797,780.5,728.6797" style="stroke: #000000; stroke-width: 1.0;"/><line style="stroke: #000000; stroke-width: 1.0;" x1="30.5" x2="782.5" y1="728.6797" y2="728.6797"/><text fill="#000000" font-family="sans-serif" font-size="13" lengthAdjust="spacingAndGlyphs" textLength="124" x="37.5" y="723.6138">74, HTTP/2 200 rsp.</text><path d="M793,709.5469 L793,734.5469 L904,734.5469 L904,719.5469 L894,709.5469 L793,709.5469 " fill="#D7FEFC" style="stroke: #FFFFFF; stroke-width: 1.0;"/><path d="M894,709.5469 L894,719.5469 L904,719.5469 L894,709.5469 " fill="#D7FEFC" style="stroke: #FFFFFF; stroke-width: 1.0;"/><text fill="#000000" font-family="sans-serif" font-size="13" font-weight="bold" lengthAdjust="spacingAndGlyphs" textLength="90" x="799" y="726.6138">UDR to UDM</text><polygon fill="#000000" points="776.5,827.9102,786.5,831.9102,776.5,835.9102,780.5,831.9102" style="stroke: #000000; stroke-width: 1.0;"/><line style="stroke: #000000; stroke-width: 1.0;" x1="30.5" x2="782.5" y1="831.9102" y2="831.9102"/><text fill="#000000" font-family="sans-serif" font-size="13" lengthAdjust="spacingAndGlyphs" textLength="276" x="37.5" y="826.8442">75, HTTP/2 req. or rsp. (no HTTP/2 headers)</text><path d="M793,744.6797 L793,905.6797 L1003,905.6797 L1003,754.6797 L993,744.6797 L793,744.6797 " fill="#D7FEFC" style="stroke: #FFFFFF; stroke-width: 1.0;"/><path d="M993,744.6797 L993,754.6797 L1003,754.6797 L993,744.6797 " fill="#D7FEFC" style="stroke: #FFFFFF; stroke-width: 1.0;"/><text fill="#000000" font-family="sans-serif" font-size="13" font-weight="bold" lengthAdjust="spacingAndGlyphs" textLength="90" x="799" y="761.7466">UDR to UDM</text><text fill="#000000" font-family="sans-serif" font-size="13" lengthAdjust="spacingAndGlyphs" textLength="156" x="799" y="776.8794">{"subscribedUeAmbr": {</text><text fill="#000000" font-family="sans-serif" font-size="13" lengthAdjust="spacingAndGlyphs" textLength="160" x="815" y="792.0122">"uplink": "1048576 Kbps",</text><text fill="#000000" font-family="sans-serif" font-size="13" lengthAdjust="spacingAndGlyphs" textLength="173" x="815" y="807.145">"downlink": "1048576 Kbps"</text><text fill="#000000" font-family="sans-serif" font-size="13" lengthAdjust="spacingAndGlyphs" textLength="12" x="807" y="822.2778">},</text><text fill="#000000" font-family="sans-serif" font-size="13" lengthAdjust="spacingAndGlyphs" textLength="59" x="807" y="837.4106">"nssai": {</text><text fill="#000000" font-family="sans-serif" font-size="13" lengthAdjust="spacingAndGlyphs" textLength="148" x="815" y="852.5435">"defaultSingleNssais": [</text><text fill="#000000" font-family="sans-serif" font-size="13" lengthAdjust="spacingAndGlyphs" textLength="8" x="823" y="867.6763">{</text><text fill="#000000" font-family="sans-serif" font-size="13" lengthAdjust="spacingAndGlyphs" textLength="49" x="831" y="882.8091">"sst": 1,</text><text fill="#000000" font-family="sans-serif" font-size="13" lengthAdjust="spacingAndGlyphs" textLength="120" x="831" y="897.9419">"sd": "000001"}]}}</text><polygon fill="#000000" points="41.5,943.2734,31.5,947.2734,41.5,951.2734,37.5,947.2734" style="stroke: #000000; stroke-width: 1.0;"/><line style="stroke: #000000; stroke-width: 1.0;" x1="35.5" x2="787.5" y1="947.2734" y2="947.2734"/><text fill="#000000" font-family="sans-serif" font-size="13" lengthAdjust="spacingAndGlyphs" textLength="97" x="47.5" y="927.0747">77, HTTP/2 req.</text><text fill="#000000" font-family="sans-serif" font-size="13" lengthAdjust="spacingAndGlyphs" textLength="734" x="47.5" y="942.2075">GET  /nudr-dr/v1/subscription-data/imsi-901700000000004/90170/provisioned-data/smf-selection-subscription-data</text><path d="M793,920.5742 L793,945.5742 L904,945.5742 L904,930.5742 L894,920.5742 L793,920.5742 " fill="#03B5AA" style="stroke: #FFFFFF; stroke-width: 1.0;"/><path d="M894,920.5742 L894,930.5742 L904,930.5742 L894,920.5742 " fill="#03B5AA" style="stroke: #FFFFFF; stroke-width: 1.0;"/><text fill="#000000" font-family="sans-serif" font-size="13" font-weight="bold" lengthAdjust="spacingAndGlyphs" textLength="90" x="799" y="937.6411">UDM to UDR</text><polygon fill="#000000" points="776.5,975.4063,786.5,979.4063,776.5,983.4063,780.5,979.4063" style="stroke: #000000; stroke-width: 1.0;"/><line style="stroke: #000000; stroke-width: 1.0;" x1="30.5" x2="782.5" y1="979.4063" y2="979.4063"/><text fill="#000000" font-family="sans-serif" font-size="13" lengthAdjust="spacingAndGlyphs" textLength="124" x="37.5" y="974.3403">80, HTTP/2 200 rsp.</text><path d="M793,960.2734 L793,985.2734 L904,985.2734 L904,970.2734 L894,960.2734 L793,960.2734 " fill="#D7FEFC" style="stroke: #FFFFFF; stroke-width: 1.0;"/><path d="M894,960.2734 L894,970.2734 L904,970.2734 L894,960.2734 " fill="#D7FEFC" style="stroke: #FFFFFF; stroke-width: 1.0;"/><text fill="#000000" font-family="sans-serif" font-size="13" font-weight="bold" lengthAdjust="spacingAndGlyphs" textLength="90" x="799" y="977.3403">UDR to UDM</text><polygon fill="#000000" points="776.5,1048.3711,786.5,1052.3711,776.5,1056.3711,780.5,1052.3711" style="stroke: #000000; stroke-width: 1.0;"/><line style="stroke: #000000; stroke-width: 1.0;" x1="30.5" x2="782.5" y1="1052.3711" y2="1052.3711"/><text fill="#000000" font-family="sans-serif" font-size="13" lengthAdjust="spacingAndGlyphs" textLength="276" x="37.5" y="1047.3052">81, HTTP/2 req. or rsp. (no HTTP/2 headers)</text><path d="M793,995.4063 L793,1095.4063 L1100,1095.4063 L1100,1005.4063 L1090,995.4063 L793,995.4063 " fill="#D7FEFC" style="stroke: #FFFFFF; stroke-width: 1.0;"/><path d="M1090,995.4063 L1090,1005.4063 L1100,1005.4063 L1090,995.4063 " fill="#D7FEFC" style="stroke: #FFFFFF; stroke-width: 1.0;"/><text fill="#000000" font-family="sans-serif" font-size="13" font-weight="bold" lengthAdjust="spacingAndGlyphs" textLength="90" x="799" y="1012.4731">UDR to UDM</text><text fill="#000000" font-family="sans-serif" font-size="13" lengthAdjust="spacingAndGlyphs" textLength="179" x="799" y="1027.606">{ "subscribedSnssaiInfos": {</text><text fill="#000000" font-family="sans-serif" font-size="13" lengthAdjust="spacingAndGlyphs" textLength="270" x="815" y="1042.7388">"{\n\t\"sst\":\t1,\n\t\"sd\":\t\"000001\"\n}": {</text><text fill="#000000" font-family="sans-serif" font-size="13" lengthAdjust="spacingAndGlyphs" textLength="77" x="823" y="1057.8716">"dnnInfos": [</text><text fill="#000000" font-family="sans-serif" font-size="13" lengthAdjust="spacingAndGlyphs" textLength="148" x="831" y="1073.0044">{ "dnn": "CustomSlice",</text><text fill="#000000" font-family="sans-serif" font-size="13" lengthAdjust="spacingAndGlyphs" textLength="206" x="839" y="1088.1372">"defaultDnnIndicator": true}]}}}</text><polygon fill="#000000" points="41.5,1133.4688,31.5,1137.4688,41.5,1141.4688,37.5,1137.4688" style="stroke: #000000; stroke-width: 1.0;"/><line style="stroke: #000000; stroke-width: 1.0;" x1="35.5" x2="841.5" y1="1137.4688" y2="1137.4688"/><text fill="#000000" font-family="sans-serif" font-size="13" lengthAdjust="spacingAndGlyphs" textLength="97" x="47.5" y="1117.27">93, HTTP/2 req.</text><text fill="#000000" font-family="sans-serif" font-size="13" lengthAdjust="spacingAndGlyphs" textLength="418" x="47.5" y="1132.4028">GET  /nudr-dr/v1/policy-data/ues/imsi-901700000000004/am-data</text><path d="M847,1110.7695 L847,1135.7695 L953,1135.7695 L953,1120.7695 L943,1110.7695 L847,1110.7695 " fill="#03B5AA" style="stroke: #FFFFFF; stroke-width: 1.0;"/><path d="M943,1110.7695 L943,1120.7695 L953,1120.7695 L943,1110.7695 " fill="#03B5AA" style="stroke: #FFFFFF; stroke-width: 1.0;"/><text fill="#000000" font-family="sans-serif" font-size="13" font-weight="bold" lengthAdjust="spacingAndGlyphs" textLength="85" x="853" y="1127.8364">PCF to UDR</text><polygon fill="#000000" points="830.5,1165.6016,840.5,1169.6016,830.5,1173.6016,834.5,1169.6016" style="stroke: #000000; stroke-width: 1.0;"/><line style="stroke: #000000; stroke-width: 1.0;" x1="30.5" x2="836.5" y1="1169.6016" y2="1169.6016"/><text fill="#000000" font-family="sans-serif" font-size="13" lengthAdjust="spacingAndGlyphs" textLength="132" x="37.5" y="1164.5356">103, HTTP/2 200 rsp.</text><path d="M847,1150.4688 L847,1175.4688 L953,1175.4688 L953,1160.4688 L943,1150.4688 L847,1150.4688 " fill="#D7FEFC" style="stroke: #FFFFFF; stroke-width: 1.0;"/><path d="M943,1150.4688 L943,1160.4688 L953,1160.4688 L943,1150.4688 " fill="#D7FEFC" style="stroke: #FFFFFF; stroke-width: 1.0;"/><text fill="#000000" font-family="sans-serif" font-size="13" font-weight="bold" lengthAdjust="spacingAndGlyphs" textLength="85" x="853" y="1167.5356">UDR to PCF</text><polygon fill="#000000" points="830.5,1223.4336,840.5,1227.4336,830.5,1231.4336,834.5,1227.4336" style="stroke: #000000; stroke-width: 1.0;"/><line style="stroke: #000000; stroke-width: 1.0;" x1="30.5" x2="836.5" y1="1227.4336" y2="1227.4336"/><text fill="#000000" font-family="sans-serif" font-size="13" lengthAdjust="spacingAndGlyphs" textLength="284" x="37.5" y="1222.3677">104, HTTP/2 req. or rsp. (no HTTP/2 headers)</text><path d="M847,1185.6016 L847,1255.6016 L1041,1255.6016 L1041,1195.6016 L1031,1185.6016 L847,1185.6016 " fill="#D7FEFC" style="stroke: #FFFFFF; stroke-width: 1.0;"/><path d="M1031,1185.6016 L1031,1195.6016 L1041,1195.6016 L1031,1185.6016 " fill="#D7FEFC" style="stroke: #FFFFFF; stroke-width: 1.0;"/><text fill="#000000" font-family="sans-serif" font-size="13" font-weight="bold" lengthAdjust="spacingAndGlyphs" textLength="85" x="853" y="1202.6685">UDR to PCF</text><text fill="#000000" font-family="sans-serif" font-size="13" lengthAdjust="spacingAndGlyphs" textLength="173" x="853" y="1217.8013">10.0.16.1 to 10.0.10.1 (IPs)</text><text fill="#000000" font-family="sans-serif" font-size="13" lengthAdjust="spacingAndGlyphs" textLength="160" x="853" y="1232.9341">HTTP/2 stream 1 payload</text><text fill="#000000" font-family="sans-serif" font-size="13" lengthAdjust="spacingAndGlyphs" textLength="16" x="853" y="1248.0669">{}</text><polygon fill="#000000" points="41.5,1293.3984,31.5,1297.3984,41.5,1301.3984,37.5,1297.3984" style="stroke: #000000; stroke-width: 1.0;"/><line style="stroke: #000000; stroke-width: 1.0;" x1="35.5" x2="787.5" y1="1297.3984" y2="1297.3984"/><text fill="#000000" font-family="sans-serif" font-size="13" lengthAdjust="spacingAndGlyphs" textLength="105" x="47.5" y="1277.1997">107, HTTP/2 req.</text><text fill="#000000" font-family="sans-serif" font-size="13" lengthAdjust="spacingAndGlyphs" textLength="586" x="47.5" y="1292.3325">GET  /nudr-dr/v1/subscription-data/imsi-901700000000004/90170/provisioned-data/sm-data</text><path d="M793,1270.6992 L793,1295.6992 L904,1295.6992 L904,1280.6992 L894,1270.6992 L793,1270.6992 " fill="#03B5AA" style="stroke: #FFFFFF; stroke-width: 1.0;"/><path d="M894,1270.6992 L894,1280.6992 L904,1280.6992 L894,1270.6992 " fill="#03B5AA" style="stroke: #FFFFFF; stroke-width: 1.0;"/><text fill="#000000" font-family="sans-serif" font-size="13" font-weight="bold" lengthAdjust="spacingAndGlyphs" textLength="90" x="799" y="1287.7661">UDM to UDR</text><polygon fill="#000000" points="776.5,1325.5313,786.5,1329.5313,776.5,1333.5313,780.5,1329.5313" style="stroke: #000000; stroke-width: 1.0;"/><line style="stroke: #000000; stroke-width: 1.0;" x1="30.5" x2="782.5" y1="1329.5313" y2="1329.5313"/><text fill="#000000" font-family="sans-serif" font-size="13" lengthAdjust="spacingAndGlyphs" textLength="132" x="37.5" y="1324.4653">111, HTTP/2 200 rsp.</text><path d="M793,1310.3984 L793,1335.3984 L904,1335.3984 L904,1320.3984 L894,1310.3984 L793,1310.3984 " fill="#D7FEFC" style="stroke: #FFFFFF; stroke-width: 1.0;"/><path d="M894,1310.3984 L894,1320.3984 L904,1320.3984 L894,1310.3984 " fill="#D7FEFC" style="stroke: #FFFFFF; stroke-width: 1.0;"/><text fill="#000000" font-family="sans-serif" font-size="13" font-weight="bold" lengthAdjust="spacingAndGlyphs" textLength="90" x="799" y="1327.4653">UDR to UDM</text><polygon fill="#000000" points="776.5,1617.9219,786.5,1621.9219,776.5,1625.9219,780.5,1621.9219" style="stroke: #000000; stroke-width: 1.0;"/><line style="stroke: #000000; stroke-width: 1.0;" x1="30.5" x2="782.5" y1="1621.9219" y2="1621.9219"/><text fill="#000000" font-family="sans-serif" font-size="13" lengthAdjust="spacingAndGlyphs" textLength="284" x="37.5" y="1616.856">112, HTTP/2 req. or rsp. (no HTTP/2 headers)</text><path d="M793,1345.5313 L793,1884.5313 L1098,1884.5313 L1098,1355.5313 L1088,1345.5313 L793,1345.5313 " fill="#D7FEFC" style="stroke: #FFFFFF; stroke-width: 1.0;"/><path d="M1088,1345.5313 L1088,1355.5313 L1098,1355.5313 L1088,1345.5313 " fill="#D7FEFC" style="stroke: #FFFFFF; stroke-width: 1.0;"/><text fill="#000000" font-family="sans-serif" font-size="13" font-weight="bold" lengthAdjust="spacingAndGlyphs" textLength="90" x="799" y="1362.5981">UDR to UDM</text><text fill="#000000" font-family="sans-serif" font-size="13" lengthAdjust="spacingAndGlyphs" textLength="115" x="799" y="1377.731">[{ "singleNssai": {</text><text fill="#000000" font-family="sans-serif" font-size="13" lengthAdjust="spacingAndGlyphs" textLength="49" x="823" y="1392.8638">"sst": 1,</text><text fill="#000000" font-family="sans-serif" font-size="13" lengthAdjust="spacingAndGlyphs" textLength="91" x="823" y="1407.9966">"sd": "000001"</text><text fill="#000000" font-family="sans-serif" font-size="13" lengthAdjust="spacingAndGlyphs" textLength="12" x="815" y="1423.1294">},</text><text fill="#000000" font-family="sans-serif" font-size="13" lengthAdjust="spacingAndGlyphs" textLength="142" x="815" y="1438.2622">"dnnConfigurations": {</text><text fill="#000000" font-family="sans-serif" font-size="13" lengthAdjust="spacingAndGlyphs" textLength="106" x="823" y="1453.395">"CustomSlice": {</text><text fill="#000000" font-family="sans-serif" font-size="13" lengthAdjust="spacingAndGlyphs" textLength="137" x="831" y="1468.5278">"pduSessionTypes": {</text><text fill="#000000" font-family="sans-serif" font-size="13" lengthAdjust="spacingAndGlyphs" textLength="201" x="839" y="1483.6606">"defaultSessionType": "IPV4V6",</text><text fill="#000000" font-family="sans-serif" font-size="13" lengthAdjust="spacingAndGlyphs" textLength="157" x="839" y="1498.7935">"allowedSessionTypes": [</text><text fill="#000000" font-family="sans-serif" font-size="13" lengthAdjust="spacingAndGlyphs" textLength="42" x="847" y="1513.9263">"IPV4",</text><text fill="#000000" font-family="sans-serif" font-size="13" lengthAdjust="spacingAndGlyphs" textLength="42" x="847" y="1529.0591">"IPV6",</text><text fill="#000000" font-family="sans-serif" font-size="13" lengthAdjust="spacingAndGlyphs" textLength="55" x="847" y="1544.1919">"IPV4V6"</text><text fill="#000000" font-family="sans-serif" font-size="13" lengthAdjust="spacingAndGlyphs" textLength="5" x="839" y="1559.3247">]</text><text fill="#000000" font-family="sans-serif" font-size="13" lengthAdjust="spacingAndGlyphs" textLength="12" x="831" y="1574.4575">},</text><text fill="#000000" font-family="sans-serif" font-size="13" lengthAdjust="spacingAndGlyphs" textLength="89" x="831" y="1589.5903">"sscModes": {</text><text fill="#000000" font-family="sans-serif" font-size="13" lengthAdjust="spacingAndGlyphs" textLength="222" x="839" y="1604.7231">"defaultSscMode": "SSC_MODE_1",</text><text fill="#000000" font-family="sans-serif" font-size="13" lengthAdjust="spacingAndGlyphs" textLength="135" x="839" y="1619.856">"allowedSscModes": [</text><text fill="#000000" font-family="sans-serif" font-size="13" lengthAdjust="spacingAndGlyphs" textLength="102" x="847" y="1634.9888">"SSC_MODE_1",</text><text fill="#000000" font-family="sans-serif" font-size="13" lengthAdjust="spacingAndGlyphs" textLength="102" x="847" y="1650.1216">"SSC_MODE_2",</text><text fill="#000000" font-family="sans-serif" font-size="13" lengthAdjust="spacingAndGlyphs" textLength="98" x="847" y="1665.2544">"SSC_MODE_3"</text><text fill="#000000" font-family="sans-serif" font-size="13" lengthAdjust="spacingAndGlyphs" textLength="5" x="839" y="1680.3872">]</text><text fill="#000000" font-family="sans-serif" font-size="13" lengthAdjust="spacingAndGlyphs" textLength="12" x="831" y="1695.52">},</text><text fill="#000000" font-family="sans-serif" font-size="13" lengthAdjust="spacingAndGlyphs" textLength="106" x="831" y="1710.6528">"5gQosProfile": {</text><text fill="#000000" font-family="sans-serif" font-size="13" lengthAdjust="spacingAndGlyphs" textLength="49" x="839" y="1725.7856">"5qi": 9,</text><text fill="#000000" font-family="sans-serif" font-size="13" lengthAdjust="spacingAndGlyphs" textLength="47" x="839" y="1740.9185">"arp": {</text><text fill="#000000" font-family="sans-serif" font-size="13" lengthAdjust="spacingAndGlyphs" textLength="107" x="847" y="1756.0513">"priorityLevel": 8,</text><text fill="#000000" font-family="sans-serif" font-size="13" lengthAdjust="spacingAndGlyphs" textLength="204" x="847" y="1771.1841">"preemptCap": "NOT_PREEMPT",</text><text fill="#000000" font-family="sans-serif" font-size="13" lengthAdjust="spacingAndGlyphs" textLength="236" x="847" y="1786.3169">"preemptVuln": "NOT_PREEMPTABLE"</text><text fill="#000000" font-family="sans-serif" font-size="13" lengthAdjust="spacingAndGlyphs" textLength="12" x="839" y="1801.4497">},</text><text fill="#000000" font-family="sans-serif" font-size="13" lengthAdjust="spacingAndGlyphs" textLength="103" x="839" y="1816.5825">"priorityLevel": 8</text><text fill="#000000" font-family="sans-serif" font-size="13" lengthAdjust="spacingAndGlyphs" textLength="12" x="831" y="1831.7153">},</text><text fill="#000000" font-family="sans-serif" font-size="13" lengthAdjust="spacingAndGlyphs" textLength="109" x="831" y="1846.8481">"sessionAmbr": {</text><text fill="#000000" font-family="sans-serif" font-size="13" lengthAdjust="spacingAndGlyphs" textLength="160" x="839" y="1861.981">"uplink": "1048576 Kbps",</text><text fill="#000000" font-family="sans-serif" font-size="13" lengthAdjust="spacingAndGlyphs" textLength="210" x="839" y="1877.1138">"downlink": "1048576 Kbps"}}}}]</text><polygon fill="#000000" points="41.5,1922.4453,31.5,1926.4453,41.5,1930.4453,37.5,1926.4453" style="stroke: #000000; stroke-width: 1.0;"/><line style="stroke: #000000; stroke-width: 1.0;" x1="35.5" x2="841.5" y1="1926.4453" y2="1926.4453"/><text fill="#000000" font-family="sans-serif" font-size="13" lengthAdjust="spacingAndGlyphs" textLength="105" x="47.5" y="1906.2466">114, HTTP/2 req.</text><text fill="#000000" font-family="sans-serif" font-size="13" lengthAdjust="spacingAndGlyphs" textLength="417" x="47.5" y="1921.3794">GET  /nudr-dr/v1/policy-data/ues/imsi-901700000000004/sm-data</text><path d="M847,1899.7461 L847,1924.7461 L953,1924.7461 L953,1909.7461 L943,1899.7461 L847,1899.7461 " fill="#03B5AA" style="stroke: #FFFFFF; stroke-width: 1.0;"/><path d="M943,1899.7461 L943,1909.7461 L953,1909.7461 L943,1899.7461 " fill="#03B5AA" style="stroke: #FFFFFF; stroke-width: 1.0;"/><text fill="#000000" font-family="sans-serif" font-size="13" font-weight="bold" lengthAdjust="spacingAndGlyphs" textLength="85" x="853" y="1916.813">PCF to UDR</text><polygon fill="#000000" points="830.5,1954.5781,840.5,1958.5781,830.5,1962.5781,834.5,1958.5781" style="stroke: #000000; stroke-width: 1.0;"/><line style="stroke: #000000; stroke-width: 1.0;" x1="30.5" x2="836.5" y1="1958.5781" y2="1958.5781"/><text fill="#000000" font-family="sans-serif" font-size="13" lengthAdjust="spacingAndGlyphs" textLength="132" x="37.5" y="1953.5122">117, HTTP/2 200 rsp.</text><path d="M847,1939.4453 L847,1964.4453 L953,1964.4453 L953,1949.4453 L943,1939.4453 L847,1939.4453 " fill="#D7FEFC" style="stroke: #FFFFFF; stroke-width: 1.0;"/><path d="M943,1939.4453 L943,1949.4453 L953,1949.4453 L943,1939.4453 " fill="#D7FEFC" style="stroke: #FFFFFF; stroke-width: 1.0;"/><text fill="#000000" font-family="sans-serif" font-size="13" font-weight="bold" lengthAdjust="spacingAndGlyphs" textLength="85" x="853" y="1956.5122">UDR to PCF</text><polygon fill="#000000" points="830.5,2065.375,840.5,2069.375,830.5,2073.375,834.5,2069.375" style="stroke: #000000; stroke-width: 1.0;"/><line style="stroke: #000000; stroke-width: 1.0;" x1="30.5" x2="836.5" y1="2069.375" y2="2069.375"/><text fill="#000000" font-family="sans-serif" font-size="13" lengthAdjust="spacingAndGlyphs" textLength="284" x="37.5" y="2064.3091">118, HTTP/2 req. or rsp. (no HTTP/2 headers)</text><path d="M847,1974.5781 L847,2150.5781 L1154,2150.5781 L1154,1984.5781 L1144,1974.5781 L847,1974.5781 " fill="#D7FEFC" style="stroke: #FFFFFF; stroke-width: 1.0;"/><path d="M1144,1974.5781 L1144,1984.5781 L1154,1984.5781 L1144,1974.5781 " fill="#D7FEFC" style="stroke: #FFFFFF; stroke-width: 1.0;"/><text fill="#000000" font-family="sans-serif" font-size="13" font-weight="bold" lengthAdjust="spacingAndGlyphs" textLength="85" x="853" y="1991.645">UDR to PCF</text><text fill="#000000" font-family="sans-serif" font-size="13" lengthAdjust="spacingAndGlyphs" textLength="163" x="853" y="2006.7778">{"smPolicySnssaiData": {</text><text fill="#000000" font-family="sans-serif" font-size="13" lengthAdjust="spacingAndGlyphs" textLength="270" x="869" y="2021.9106">"{\n\t\"sst\":\t1,\n\t\"sd\":\t\"000001\"\n}": {</text><text fill="#000000" font-family="sans-serif" font-size="13" lengthAdjust="spacingAndGlyphs" textLength="66" x="877" y="2037.0435">"snssai": {</text><text fill="#000000" font-family="sans-serif" font-size="13" lengthAdjust="spacingAndGlyphs" textLength="49" x="885" y="2052.1763">"sst": 1,</text><text fill="#000000" font-family="sans-serif" font-size="13" lengthAdjust="spacingAndGlyphs" textLength="91" x="885" y="2067.3091">"sd": "000001"</text><text fill="#000000" font-family="sans-serif" font-size="13" lengthAdjust="spacingAndGlyphs" textLength="12" x="877" y="2082.4419">},</text><text fill="#000000" font-family="sans-serif" font-size="13" lengthAdjust="spacingAndGlyphs" textLength="139" x="877" y="2097.5747">"smPolicyDnnData": {</text><text fill="#000000" font-family="sans-serif" font-size="13" lengthAdjust="spacingAndGlyphs" textLength="106" x="885" y="2112.7075">"CustomSlice": {</text><text fill="#000000" font-family="sans-serif" font-size="13" lengthAdjust="spacingAndGlyphs" textLength="164" x="893" y="2127.8403">"dnn": "CustomSlice"}}}}</text><text fill="#000000" font-family="sans-serif" font-size="13" lengthAdjust="spacingAndGlyphs" textLength="0" x="857" y="2142.9731"/><!--MD5=[60ffddad0397d32bb5d2ae1aabb6b006]
@startuml
skinparam shadowing false
skinparam NoteBorderColor white
skinparam sequence {
    ArrowColor black
    LifeLineBorderColor black
    LifeLineBackgroundColor black
    ParticipantBorderColor white
    ParticipantBackgroundColor #e6e6e6
}
participant "UDR"
participant "UDM"
participant "PCF"

"UDM" -> "UDR": 41, HTTP/2 req.\nGET  /nudr-dr/v1/subscription-data/imsi-901700000000004/authentication-data/authentication-subscription

note right #03B5AA
**UDM to UDR**
end note

"UDR" -> "UDM": 54, HTTP/2 200 rsp.

note right #D7FEFC
**UDR to UDM**
end note

"UDR" -> "UDM": 55, HTTP/2 req. or rsp. (no HTTP/2 headers)

note right #D7FEFC
**UDR to UDM**
{ "authenticationMethod": "5G_AKA",
  "encPermanentKey": "465b5ce8b199b49faa5f0a2ee238a6bc",
  "sequenceNumber": {
    "sqn": "000000001d41"
  },
  "authenticationManagementField": "8000",
  "encOpcKey": "e8ed289deba952e4283b54e88e6183ca"}

end note

"UDM" -> "UDR": 57, HTTP/2 req.\nPUT  /nudr-dr/v1/subscription-data/imsi-901700000000004/authentication-data/authentication-status

note right #03B5AA
**UDM to UDR**
end note

"UDM" -> "UDR": 58, HTTP/2 req. or rsp. (no HTTP/2 headers)

note right #D7FEFC
**UDM to UDR**
end note

"UDR" -> "UDM": 66, HTTP/2 204 rsp.

note right #D7FEFC
**UDR to UDM**
end note

"UDM" -> "UDR": 67, HTTP/2 req.\nPUT  /nudr-dr/v1/subscription-data/imsi-901700000000004/context-data/amf-3gpp-access

note right #03B5AA
**UDM to UDR**
end note

"UDM" -> "UDR": 68, HTTP/2 req. or rsp. (no HTTP/2 headers)

note right #D7FEFC
**UDM to UDR**
{"amfInstanceId": "b822f9a4-f687-41ed-a876-f17e422b22ff",
  "deregCallbackUri": "http://10.0.3.1:7777/namf-callback/v1/imsi-901700000000004/dereg-notify",
  "guami": {
    "plmnId": {
      "mcc": "901",
      "mnc": "70"
    },
    "amfId": "020040"
  },
  "ratType": "NR"}
end note

"UDR" -> "UDM": 70, HTTP/2 204 rsp.

note right #D7FEFC
**UDR to UDM**
end note

"UDM" -> "UDR": 71, HTTP/2 req.\nGET  /nudr-dr/v1/subscription-data/imsi-901700000000004/90170/provisioned-data/am-data

note right #03B5AA
**UDM to UDR**
end note

"UDR" -> "UDM": 74, HTTP/2 200 rsp.

note right #D7FEFC
**UDR to UDM**
end note

"UDR" -> "UDM": 75, HTTP/2 req. or rsp. (no HTTP/2 headers)

note right #D7FEFC
**UDR to UDM**
{"subscribedUeAmbr": {
    "uplink": "1048576 Kbps",
    "downlink": "1048576 Kbps"
  },
  "nssai": {
    "defaultSingleNssais": [
      {
        "sst": 1,
        "sd": "000001"}]}}
end note

"UDM" -> "UDR": 77, HTTP/2 req.\nGET  /nudr-dr/v1/subscription-data/imsi-901700000000004/90170/provisioned-data/smf-selection-subscription-data

note right #03B5AA
**UDM to UDR**
end note

"UDR" -> "UDM": 80, HTTP/2 200 rsp.

note right #D7FEFC
**UDR to UDM**
end note

"UDR" -> "UDM": 81, HTTP/2 req. or rsp. (no HTTP/2 headers)

note right #D7FEFC
**UDR to UDM**
{ "subscribedSnssaiInfos": {
    "{\n\t\"sst\":\t1,\n\t\"sd\":\t\"000001\"\n}": {
      "dnnInfos": [
        { "dnn": "CustomSlice",
          "defaultDnnIndicator": true}]}}}
end note

"PCF" -> "UDR": 93, HTTP/2 req.\nGET  /nudr-dr/v1/policy-data/ues/imsi-901700000000004/am-data

note right #03B5AA
**PCF to UDR**
end note

"UDR" -> "PCF": 103, HTTP/2 200 rsp.

note right #D7FEFC
**UDR to PCF**
end note

"UDR" -> "PCF": 104, HTTP/2 req. or rsp. (no HTTP/2 headers)

note right #D7FEFC
**UDR to PCF**
10.0.16.1 to 10.0.10.1 (IPs)
HTTP/2 stream 1 payload
{}
end note

"UDM" -> "UDR": 107, HTTP/2 req.\nGET  /nudr-dr/v1/subscription-data/imsi-901700000000004/90170/provisioned-data/sm-data

note right #03B5AA
**UDM to UDR**
end note

"UDR" -> "UDM": 111, HTTP/2 200 rsp.

note right #D7FEFC
**UDR to UDM**
end note

"UDR" -> "UDM": 112, HTTP/2 req. or rsp. (no HTTP/2 headers)

note right #D7FEFC
**UDR to UDM**
[{ "singleNssai": {
      "sst": 1,
      "sd": "000001"
    },
    "dnnConfigurations": {
      "CustomSlice": {
        "pduSessionTypes": {
          "defaultSessionType": "IPV4V6",
          "allowedSessionTypes": [
            "IPV4",
            "IPV6",
            "IPV4V6"
          ]
        },
        "sscModes": {
          "defaultSscMode": "SSC_MODE_1",
          "allowedSscModes": [
            "SSC_MODE_1",
            "SSC_MODE_2",
            "SSC_MODE_3"
          ]
        },
        "5gQosProfile": {
          "5qi": 9,
          "arp": {
            "priorityLevel": 8,
            "preemptCap": "NOT_PREEMPT",
            "preemptVuln": "NOT_PREEMPTABLE"
          },
          "priorityLevel": 8
        },
        "sessionAmbr": {
          "uplink": "1048576 Kbps",
          "downlink": "1048576 Kbps"}}}}]
end note

"PCF" -> "UDR": 114, HTTP/2 req.\nGET  /nudr-dr/v1/policy-data/ues/imsi-901700000000004/sm-data

note right #03B5AA
**PCF to UDR**
end note

"UDR" -> "PCF": 117, HTTP/2 200 rsp.

note right #D7FEFC
**UDR to PCF**
end note

"UDR" -> "PCF": 118, HTTP/2 req. or rsp. (no HTTP/2 headers)

note right #D7FEFC
**UDR to PCF**
{"smPolicySnssaiData": {
    "{\n\t\"sst\":\t1,\n\t\"sd\":\t\"000001\"\n}": {
      "snssai": {
        "sst": 1,
        "sd": "000001"
      },
      "smPolicyDnnData": {
        "CustomSlice": {
          "dnn": "CustomSlice"}}}}

end note

@enduml

PlantUML version 1.2019.12(Sun Nov 03 11:24:54 CET 2019)
(APACHE source distribution)
Java Runtime: OpenJDK Runtime Environment
JVM: OpenJDK 64-Bit Server VM
Java Version: 11.0.18+10-post-Ubuntu-0ubuntu120.04.1
Operating System: Linux
Default Encoding: UTF-8
Language: en
Country: US
--></g></svg>