<?xml version="1.0" encoding="UTF-8" standalone="no"?><svg xmlns="http://www.w3.org/2000/svg" xmlns:xlink="http://www.w3.org/1999/xlink" contentScriptType="application/ecmascript" contentStyleType="text/css" height="616px" preserveAspectRatio="none" style="width:536px;height:616px;" version="1.1" viewBox="0 0 536 616" width="536px" zoomAndPan="magnify"><defs/><g><line style="stroke: #000000; stroke-width: 1.0; stroke-dasharray: 5.0,5.0;" x1="33" x2="33" y1="34.2969" y2="576.4219"/><line style="stroke: #000000; stroke-width: 1.0; stroke-dasharray: 5.0,5.0;" x1="341" x2="341" y1="34.2969" y2="576.4219"/><rect fill="#E6E6E6" height="30.2969" style="stroke: #FFFFFF; stroke-width: 1.5;" width="50" x="8" y="3"/><text fill="#000000" font-family="sans-serif" font-size="14" lengthAdjust="spacingAndGlyphs" textLength="36" x="15" y="22.9951">NSSF</text><rect fill="#E6E6E6" height="30.2969" style="stroke: #FFFFFF; stroke-width: 1.5;" width="50" x="8" y="575.4219"/><text fill="#000000" font-family="sans-serif" font-size="14" lengthAdjust="spacingAndGlyphs" textLength="36" x="15" y="595.417">NSSF</text><rect fill="#E6E6E6" height="30.2969" style="stroke: #FFFFFF; stroke-width: 1.5;" width="42" x="320" y="3"/><text fill="#000000" font-family="sans-serif" font-size="14" lengthAdjust="spacingAndGlyphs" textLength="28" x="327" y="22.9951">NRF</text><rect fill="#E6E6E6" height="30.2969" style="stroke: #FFFFFF; stroke-width: 1.5;" width="42" x="320" y="575.4219"/><text fill="#000000" font-family="sans-serif" font-size="14" lengthAdjust="spacingAndGlyphs" textLength="28" x="327" y="595.417">NRF</text><polygon fill="#000000" points="329,64.4297,339,68.4297,329,72.4297,333,68.4297" style="stroke: #000000; stroke-width: 1.0;"/><line style="stroke: #000000; stroke-width: 1.0;" x1="33" x2="335" y1="68.4297" y2="68.4297"/><text fill="#000000" font-family="sans-serif" font-size="13" lengthAdjust="spacingAndGlyphs" textLength="284" x="40" y="63.3638">167, HTTP/2 req. or rsp. (no HTTP/2 headers)</text><path d="M346,49.2969 L346,74.2969 L460,74.2969 L460,59.2969 L450,49.2969 L346,49.2969 " fill="#D7FEFC" style="stroke: #FFFFFF; stroke-width: 1.0;"/><path d="M450,49.2969 L450,59.2969 L460,59.2969 L450,49.2969 " fill="#D7FEFC" style="stroke: #FFFFFF; stroke-width: 1.0;"/><text fill="#000000" font-family="sans-serif" font-size="13" font-weight="bold" lengthAdjust="spacingAndGlyphs" textLength="93" x="352" y="66.3638">NSSF to NRF</text><polygon fill="#000000" points="44,99.5625,34,103.5625,44,107.5625,40,103.5625" style="stroke: #000000; stroke-width: 1.0;"/><line style="stroke: #000000; stroke-width: 1.0;" x1="38" x2="340" y1="103.5625" y2="103.5625"/><text fill="#000000" font-family="sans-serif" font-size="13" lengthAdjust="spacingAndGlyphs" textLength="284" x="50" y="98.4966">169, HTTP/2 req. or rsp. (no HTTP/2 headers)</text><path d="M346,84.4297 L346,109.4297 L460,109.4297 L460,94.4297 L450,84.4297 L346,84.4297 " fill="#D7FEFC" style="stroke: #FFFFFF; stroke-width: 1.0;"/><path d="M450,84.4297 L450,94.4297 L460,94.4297 L450,84.4297 " fill="#D7FEFC" style="stroke: #FFFFFF; stroke-width: 1.0;"/><text fill="#000000" font-family="sans-serif" font-size="13" font-weight="bold" lengthAdjust="spacingAndGlyphs" textLength="93" x="352" y="101.4966">NRF to NSSF</text><polygon fill="#000000" points="329,134.6953,339,138.6953,329,142.6953,333,138.6953" style="stroke: #000000; stroke-width: 1.0;"/><line style="stroke: #000000; stroke-width: 1.0;" x1="33" x2="335" y1="138.6953" y2="138.6953"/><text fill="#000000" font-family="sans-serif" font-size="13" lengthAdjust="spacingAndGlyphs" textLength="284" x="40" y="133.6294">171, HTTP/2 req. or rsp. (no HTTP/2 headers)</text><path d="M346,119.5625 L346,144.5625 L460,144.5625 L460,129.5625 L450,119.5625 L346,119.5625 " fill="#D7FEFC" style="stroke: #FFFFFF; stroke-width: 1.0;"/><path d="M450,119.5625 L450,129.5625 L460,129.5625 L450,119.5625 " fill="#D7FEFC" style="stroke: #FFFFFF; stroke-width: 1.0;"/><text fill="#000000" font-family="sans-serif" font-size="13" font-weight="bold" lengthAdjust="spacingAndGlyphs" textLength="93" x="352" y="136.6294">NSSF to NRF</text><polygon fill="#000000" points="329,169.8281,339,173.8281,329,177.8281,333,173.8281" style="stroke: #000000; stroke-width: 1.0;"/><line style="stroke: #000000; stroke-width: 1.0;" x1="33" x2="335" y1="173.8281" y2="173.8281"/><text fill="#000000" font-family="sans-serif" font-size="13" lengthAdjust="spacingAndGlyphs" textLength="284" x="40" y="168.7622">172, HTTP/2 req. or rsp. (no HTTP/2 headers)</text><path d="M346,154.6953 L346,179.6953 L460,179.6953 L460,164.6953 L450,154.6953 L346,154.6953 " fill="#D7FEFC" style="stroke: #FFFFFF; stroke-width: 1.0;"/><path d="M450,154.6953 L450,164.6953 L460,164.6953 L450,154.6953 " fill="#D7FEFC" style="stroke: #FFFFFF; stroke-width: 1.0;"/><text fill="#000000" font-family="sans-serif" font-size="13" font-weight="bold" lengthAdjust="spacingAndGlyphs" textLength="93" x="352" y="171.7622">NSSF to NRF</text><polygon fill="#000000" points="44,204.9609,34,208.9609,44,212.9609,40,208.9609" style="stroke: #000000; stroke-width: 1.0;"/><line style="stroke: #000000; stroke-width: 1.0;" x1="38" x2="340" y1="208.9609" y2="208.9609"/><text fill="#000000" font-family="sans-serif" font-size="13" lengthAdjust="spacingAndGlyphs" textLength="284" x="50" y="203.895">174, HTTP/2 req. or rsp. (no HTTP/2 headers)</text><path d="M346,189.8281 L346,214.8281 L460,214.8281 L460,199.8281 L450,189.8281 L346,189.8281 " fill="#D7FEFC" style="stroke: #FFFFFF; stroke-width: 1.0;"/><path d="M450,189.8281 L450,199.8281 L460,199.8281 L450,189.8281 " fill="#D7FEFC" style="stroke: #FFFFFF; stroke-width: 1.0;"/><text fill="#000000" font-family="sans-serif" font-size="13" font-weight="bold" lengthAdjust="spacingAndGlyphs" textLength="93" x="352" y="206.895">NRF to NSSF</text><polygon fill="#000000" points="329,240.0938,339,244.0938,329,248.0938,333,244.0938" style="stroke: #000000; stroke-width: 1.0;"/><line style="stroke: #000000; stroke-width: 1.0;" x1="33" x2="335" y1="244.0938" y2="244.0938"/><text fill="#000000" font-family="sans-serif" font-size="13" lengthAdjust="spacingAndGlyphs" textLength="284" x="40" y="239.0278">176, HTTP/2 req. or rsp. (no HTTP/2 headers)</text><path d="M346,224.9609 L346,249.9609 L460,249.9609 L460,234.9609 L450,224.9609 L346,224.9609 " fill="#D7FEFC" style="stroke: #FFFFFF; stroke-width: 1.0;"/><path d="M450,224.9609 L450,234.9609 L460,234.9609 L450,224.9609 " fill="#D7FEFC" style="stroke: #FFFFFF; stroke-width: 1.0;"/><text fill="#000000" font-family="sans-serif" font-size="13" font-weight="bold" lengthAdjust="spacingAndGlyphs" textLength="93" x="352" y="242.0278">NSSF to NRF</text><polygon fill="#000000" points="329,275.2266,339,279.2266,329,283.2266,333,279.2266" style="stroke: #000000; stroke-width: 1.0;"/><line style="stroke: #000000; stroke-width: 1.0;" x1="33" x2="335" y1="279.2266" y2="279.2266"/><text fill="#000000" font-family="sans-serif" font-size="13" lengthAdjust="spacingAndGlyphs" textLength="284" x="40" y="274.1606">177, HTTP/2 req. or rsp. (no HTTP/2 headers)</text><path d="M346,260.0938 L346,285.0938 L460,285.0938 L460,270.0938 L450,260.0938 L346,260.0938 " fill="#D7FEFC" style="stroke: #FFFFFF; stroke-width: 1.0;"/><path d="M450,260.0938 L450,270.0938 L460,270.0938 L450,260.0938 " fill="#D7FEFC" style="stroke: #FFFFFF; stroke-width: 1.0;"/><text fill="#000000" font-family="sans-serif" font-size="13" font-weight="bold" lengthAdjust="spacingAndGlyphs" textLength="93" x="352" y="277.1606">NSSF to NRF</text><polygon fill="#000000" points="44,310.3594,34,314.3594,44,318.3594,40,314.3594" style="stroke: #000000; stroke-width: 1.0;"/><line style="stroke: #000000; stroke-width: 1.0;" x1="38" x2="340" y1="314.3594" y2="314.3594"/><text fill="#000000" font-family="sans-serif" font-size="13" lengthAdjust="spacingAndGlyphs" textLength="284" x="50" y="309.2935">179, HTTP/2 req. or rsp. (no HTTP/2 headers)</text><path d="M346,295.2266 L346,320.2266 L460,320.2266 L460,305.2266 L450,295.2266 L346,295.2266 " fill="#D7FEFC" style="stroke: #FFFFFF; stroke-width: 1.0;"/><path d="M450,295.2266 L450,305.2266 L460,305.2266 L450,295.2266 " fill="#D7FEFC" style="stroke: #FFFFFF; stroke-width: 1.0;"/><text fill="#000000" font-family="sans-serif" font-size="13" font-weight="bold" lengthAdjust="spacingAndGlyphs" textLength="93" x="352" y="312.2935">NRF to NSSF</text><polygon fill="#000000" points="329,345.4922,339,349.4922,329,353.4922,333,349.4922" style="stroke: #000000; stroke-width: 1.0;"/><line style="stroke: #000000; stroke-width: 1.0;" x1="33" x2="335" y1="349.4922" y2="349.4922"/><text fill="#000000" font-family="sans-serif" font-size="13" lengthAdjust="spacingAndGlyphs" textLength="284" x="40" y="344.4263">181, HTTP/2 req. or rsp. (no HTTP/2 headers)</text><path d="M346,330.3594 L346,355.3594 L460,355.3594 L460,340.3594 L450,330.3594 L346,330.3594 " fill="#D7FEFC" style="stroke: #FFFFFF; stroke-width: 1.0;"/><path d="M450,330.3594 L450,340.3594 L460,340.3594 L450,330.3594 " fill="#D7FEFC" style="stroke: #FFFFFF; stroke-width: 1.0;"/><text fill="#000000" font-family="sans-serif" font-size="13" font-weight="bold" lengthAdjust="spacingAndGlyphs" textLength="93" x="352" y="347.4263">NSSF to NRF</text><polygon fill="#000000" points="329,380.625,339,384.625,329,388.625,333,384.625" style="stroke: #000000; stroke-width: 1.0;"/><line style="stroke: #000000; stroke-width: 1.0;" x1="33" x2="335" y1="384.625" y2="384.625"/><text fill="#000000" font-family="sans-serif" font-size="13" lengthAdjust="spacingAndGlyphs" textLength="284" x="40" y="379.5591">182, HTTP/2 req. or rsp. (no HTTP/2 headers)</text><path d="M346,365.4922 L346,390.4922 L460,390.4922 L460,375.4922 L450,365.4922 L346,365.4922 " fill="#D7FEFC" style="stroke: #FFFFFF; stroke-width: 1.0;"/><path d="M450,365.4922 L450,375.4922 L460,375.4922 L450,365.4922 " fill="#D7FEFC" style="stroke: #FFFFFF; stroke-width: 1.0;"/><text fill="#000000" font-family="sans-serif" font-size="13" font-weight="bold" lengthAdjust="spacingAndGlyphs" textLength="93" x="352" y="382.5591">NSSF to NRF</text><polygon fill="#000000" points="44,415.7578,34,419.7578,44,423.7578,40,419.7578" style="stroke: #000000; stroke-width: 1.0;"/><line style="stroke: #000000; stroke-width: 1.0;" x1="38" x2="340" y1="419.7578" y2="419.7578"/><text fill="#000000" font-family="sans-serif" font-size="13" lengthAdjust="spacingAndGlyphs" textLength="284" x="50" y="414.6919">184, HTTP/2 req. or rsp. (no HTTP/2 headers)</text><path d="M346,400.625 L346,425.625 L460,425.625 L460,410.625 L450,400.625 L346,400.625 " fill="#D7FEFC" style="stroke: #FFFFFF; stroke-width: 1.0;"/><path d="M450,400.625 L450,410.625 L460,410.625 L450,400.625 " fill="#D7FEFC" style="stroke: #FFFFFF; stroke-width: 1.0;"/><text fill="#000000" font-family="sans-serif" font-size="13" font-weight="bold" lengthAdjust="spacingAndGlyphs" textLength="93" x="352" y="417.6919">NRF to NSSF</text><polygon fill="#000000" points="329,466.0234,339,470.0234,329,474.0234,333,470.0234" style="stroke: #000000; stroke-width: 1.0;"/><line style="stroke: #000000; stroke-width: 1.0;" x1="33" x2="335" y1="470.0234" y2="470.0234"/><text fill="#000000" font-family="sans-serif" font-size="13" lengthAdjust="spacingAndGlyphs" textLength="284" x="40" y="464.9575">186, HTTP/2 req. or rsp. (no HTTP/2 headers)</text><path d="M346,435.7578 L346,490.7578 L524,490.7578 L524,445.7578 L514,435.7578 L346,435.7578 " fill="#D7FEFC" style="stroke: #FFFFFF; stroke-width: 1.0;"/><path d="M514,435.7578 L514,445.7578 L524,445.7578 L514,435.7578 " fill="#D7FEFC" style="stroke: #FFFFFF; stroke-width: 1.0;"/><text fill="#000000" font-family="sans-serif" font-size="13" font-weight="bold" lengthAdjust="spacingAndGlyphs" textLength="93" x="352" y="452.8247">NSSF to NRF</text><text fill="#000000" font-family="sans-serif" font-size="13" lengthAdjust="spacingAndGlyphs" textLength="157" x="352" y="467.9575">10.0.9.1 to 10.0.8.1 (IPs)</text><text fill="#000000" font-family="sans-serif" font-size="13" lengthAdjust="spacingAndGlyphs" textLength="0" x="356" y="483.0903"/><polygon fill="#000000" points="329,516.2891,339,520.2891,329,524.2891,333,520.2891" style="stroke: #000000; stroke-width: 1.0;"/><line style="stroke: #000000; stroke-width: 1.0;" x1="33" x2="335" y1="520.2891" y2="520.2891"/><text fill="#000000" font-family="sans-serif" font-size="13" lengthAdjust="spacingAndGlyphs" textLength="284" x="40" y="515.2231">187, HTTP/2 req. or rsp. (no HTTP/2 headers)</text><path d="M346,501.1563 L346,526.1563 L460,526.1563 L460,511.1563 L450,501.1563 L346,501.1563 " fill="#D7FEFC" style="stroke: #FFFFFF; stroke-width: 1.0;"/><path d="M450,501.1563 L450,511.1563 L460,511.1563 L450,501.1563 " fill="#D7FEFC" style="stroke: #FFFFFF; stroke-width: 1.0;"/><text fill="#000000" font-family="sans-serif" font-size="13" font-weight="bold" lengthAdjust="spacingAndGlyphs" textLength="93" x="352" y="518.2231">NSSF to NRF</text><polygon fill="#000000" points="44,551.4219,34,555.4219,44,559.4219,40,555.4219" style="stroke: #000000; stroke-width: 1.0;"/><line style="stroke: #000000; stroke-width: 1.0;" x1="38" x2="340" y1="555.4219" y2="555.4219"/><text fill="#000000" font-family="sans-serif" font-size="13" lengthAdjust="spacingAndGlyphs" textLength="284" x="50" y="550.356">189, HTTP/2 req. or rsp. (no HTTP/2 headers)</text><path d="M346,536.2891 L346,561.2891 L460,561.2891 L460,546.2891 L450,536.2891 L346,536.2891 " fill="#D7FEFC" style="stroke: #FFFFFF; stroke-width: 1.0;"/><path d="M450,536.2891 L450,546.2891 L460,546.2891 L450,536.2891 " fill="#D7FEFC" style="stroke: #FFFFFF; stroke-width: 1.0;"/><text fill="#000000" font-family="sans-serif" font-size="13" font-weight="bold" lengthAdjust="spacingAndGlyphs" textLength="93" x="352" y="553.356">NRF to NSSF</text><!--MD5=[08bc774ab13f40dbf4420d590d48c5c6]
@startuml
skinparam shadowing false
skinparam NoteBorderColor white
skinparam sequence {
    ArrowColor black
    LifeLineBorderColor black
    LifeLineBackgroundColor black
    ParticipantBorderColor white
    ParticipantBackgroundColor #e6e6e6
}
participant "NSSF"
participant "NRF"

"NSSF" -> "NRF": 167, HTTP/2 req. or rsp. (no HTTP/2 headers)

note right #D7FEFC
**NSSF to NRF**
end note

"NRF" -> "NSSF": 169, HTTP/2 req. or rsp. (no HTTP/2 headers)

note right #D7FEFC
**NRF to NSSF**
end note

"NSSF" -> "NRF": 171, HTTP/2 req. or rsp. (no HTTP/2 headers)

note right #D7FEFC
**NSSF to NRF**
end note

"NSSF" -> "NRF": 172, HTTP/2 req. or rsp. (no HTTP/2 headers)

note right #D7FEFC
**NSSF to NRF**
end note

"NRF" -> "NSSF": 174, HTTP/2 req. or rsp. (no HTTP/2 headers)

note right #D7FEFC
**NRF to NSSF**
end note

"NSSF" -> "NRF": 176, HTTP/2 req. or rsp. (no HTTP/2 headers)

note right #D7FEFC
**NSSF to NRF**
end note

"NSSF" -> "NRF": 177, HTTP/2 req. or rsp. (no HTTP/2 headers)

note right #D7FEFC
**NSSF to NRF**
end note

"NRF" -> "NSSF": 179, HTTP/2 req. or rsp. (no HTTP/2 headers)

note right #D7FEFC
**NRF to NSSF**
end note

"NSSF" -> "NRF": 181, HTTP/2 req. or rsp. (no HTTP/2 headers)

note right #D7FEFC
**NSSF to NRF**
end note

"NSSF" -> "NRF": 182, HTTP/2 req. or rsp. (no HTTP/2 headers)

note right #D7FEFC
**NSSF to NRF**
end note

"NRF" -> "NSSF": 184, HTTP/2 req. or rsp. (no HTTP/2 headers)

note right #D7FEFC
**NRF to NSSF**
end note

"NSSF" -> "NRF": 186, HTTP/2 req. or rsp. (no HTTP/2 headers)

note right #D7FEFC
**NSSF to NRF**
10.0.9.1 to 10.0.8.1 (IPs)

end note

"NSSF" -> "NRF": 187, HTTP/2 req. or rsp. (no HTTP/2 headers)

note right #D7FEFC
**NSSF to NRF**
end note

"NRF" -> "NSSF": 189, HTTP/2 req. or rsp. (no HTTP/2 headers)

note right #D7FEFC
**NRF to NSSF**
end note

@enduml

PlantUML version 1.2019.12(Sun Nov 03 11:24:54 CET 2019)
(APACHE source distribution)
Java Runtime: OpenJDK Runtime Environment
JVM: OpenJDK 64-Bit Server VM
Java Version: 11.0.18+10-post-Ubuntu-0ubuntu120.04.1
Operating System: Linux
Default Encoding: UTF-8
Language: en
Country: US
--></g></svg>