<?xml version="1.0" encoding="UTF-8" standalone="no"?><svg xmlns="http://www.w3.org/2000/svg" xmlns:xlink="http://www.w3.org/1999/xlink" contentScriptType="application/ecmascript" contentStyleType="text/css" height="1078px" preserveAspectRatio="none" style="width:515px;height:1078px;" version="1.1" viewBox="0 0 515 1078" width="515px" zoomAndPan="magnify"><defs/><g><line style="stroke: #000000; stroke-width: 1.0; stroke-dasharray: 5.0,5.0;" x1="29" x2="29" y1="34.2969" y2="1038.0156"/><line style="stroke: #000000; stroke-width: 1.0; stroke-dasharray: 5.0,5.0;" x1="82" x2="82" y1="34.2969" y2="1038.0156"/><line style="stroke: #000000; stroke-width: 1.0; stroke-dasharray: 5.0,5.0;" x1="135" x2="135" y1="34.2969" y2="1038.0156"/><line style="stroke: #000000; stroke-width: 1.0; stroke-dasharray: 5.0,5.0;" x1="187" x2="187" y1="34.2969" y2="1038.0156"/><line style="stroke: #000000; stroke-width: 1.0; stroke-dasharray: 5.0,5.0;" x1="241" x2="241" y1="34.2969" y2="1038.0156"/><line style="stroke: #000000; stroke-width: 1.0; stroke-dasharray: 5.0,5.0;" x1="300" x2="300" y1="34.2969" y2="1038.0156"/><line style="stroke: #000000; stroke-width: 1.0; stroke-dasharray: 5.0,5.0;" x1="390.5" x2="390.5" y1="34.2969" y2="1038.0156"/><rect fill="#E6E6E6" height="30.2969" style="stroke: #FFFFFF; stroke-width: 1.5;" width="43" x="8" y="3"/><text fill="#000000" font-family="sans-serif" font-size="14" lengthAdjust="spacingAndGlyphs" textLength="29" x="15" y="22.9951">gNB</text><rect fill="#E6E6E6" height="30.2969" style="stroke: #FFFFFF; stroke-width: 1.5;" width="43" x="8" y="1037.0156"/><text fill="#000000" font-family="sans-serif" font-size="14" lengthAdjust="spacingAndGlyphs" textLength="29" x="15" y="1057.0107">gNB</text><rect fill="#E6E6E6" height="30.2969" style="stroke: #FFFFFF; stroke-width: 1.5;" width="43" x="61" y="3"/><text fill="#000000" font-family="sans-serif" font-size="14" lengthAdjust="spacingAndGlyphs" textLength="29" x="68" y="22.9951">AMF</text><rect fill="#E6E6E6" height="30.2969" style="stroke: #FFFFFF; stroke-width: 1.5;" width="43" x="61" y="1037.0156"/><text fill="#000000" font-family="sans-serif" font-size="14" lengthAdjust="spacingAndGlyphs" textLength="29" x="68" y="1057.0107">AMF</text><rect fill="#E6E6E6" height="30.2969" style="stroke: #FFFFFF; stroke-width: 1.5;" width="43" x="114" y="3"/><text fill="#000000" font-family="sans-serif" font-size="14" lengthAdjust="spacingAndGlyphs" textLength="29" x="121" y="22.9951">SMF</text><rect fill="#E6E6E6" height="30.2969" style="stroke: #FFFFFF; stroke-width: 1.5;" width="43" x="114" y="1037.0156"/><text fill="#000000" font-family="sans-serif" font-size="14" lengthAdjust="spacingAndGlyphs" textLength="29" x="121" y="1057.0107">SMF</text><rect fill="#E6E6E6" height="30.2969" style="stroke: #FFFFFF; stroke-width: 1.5;" width="41" x="167" y="3"/><text fill="#000000" font-family="sans-serif" font-size="14" lengthAdjust="spacingAndGlyphs" textLength="27" x="174" y="22.9951">PCF</text><rect fill="#E6E6E6" height="30.2969" style="stroke: #FFFFFF; stroke-width: 1.5;" width="41" x="167" y="1037.0156"/><text fill="#000000" font-family="sans-serif" font-size="14" lengthAdjust="spacingAndGlyphs" textLength="27" x="174" y="1057.0107">PCF</text><rect fill="#E6E6E6" height="30.2969" style="stroke: #FFFFFF; stroke-width: 1.5;" width="47" x="218" y="3"/><text fill="#000000" font-family="sans-serif" font-size="14" lengthAdjust="spacingAndGlyphs" textLength="33" x="225" y="22.9951">UDM</text><rect fill="#E6E6E6" height="30.2969" style="stroke: #FFFFFF; stroke-width: 1.5;" width="47" x="218" y="1037.0156"/><text fill="#000000" font-family="sans-serif" font-size="14" lengthAdjust="spacingAndGlyphs" textLength="33" x="225" y="1057.0107">UDM</text><rect fill="#E6E6E6" height="30.2969" style="stroke: #FFFFFF; stroke-width: 1.5;" width="50" x="275" y="3"/><text fill="#000000" font-family="sans-serif" font-size="14" lengthAdjust="spacingAndGlyphs" textLength="36" x="282" y="22.9951">AUSF</text><rect fill="#E6E6E6" height="30.2969" style="stroke: #FFFFFF; stroke-width: 1.5;" width="50" x="275" y="1037.0156"/><text fill="#000000" font-family="sans-serif" font-size="14" lengthAdjust="spacingAndGlyphs" textLength="36" x="282" y="1057.0107">AUSF</text><rect fill="#E6E6E6" height="30.2969" style="stroke: #FFFFFF; stroke-width: 1.5;" width="42" x="369.5" y="3"/><text fill="#000000" font-family="sans-serif" font-size="14" lengthAdjust="spacingAndGlyphs" textLength="28" x="376.5" y="22.9951">NRF</text><rect fill="#E6E6E6" height="30.2969" style="stroke: #FFFFFF; stroke-width: 1.5;" width="42" x="369.5" y="1037.0156"/><text fill="#000000" font-family="sans-serif" font-size="14" lengthAdjust="spacingAndGlyphs" textLength="28" x="376.5" y="1057.0107">NRF</text><polygon fill="#000000" points="93.5,64.4297,83.5,68.4297,93.5,72.4297,89.5,68.4297" style="stroke: #000000; stroke-width: 1.0;"/><line style="stroke: #000000; stroke-width: 1.0;" x1="87.5" x2="389.5" y1="68.4297" y2="68.4297"/><text fill="#000000" font-family="sans-serif" font-size="13" lengthAdjust="spacingAndGlyphs" textLength="284" x="99.5" y="63.3638">311, HTTP/2 req. or rsp. (no HTTP/2 headers)</text><path d="M395,49.2969 L395,74.2969 L503,74.2969 L503,59.2969 L493,49.2969 L395,49.2969 " fill="#03B5AA" style="stroke: #FFFFFF; stroke-width: 1.0;"/><path d="M493,49.2969 L493,59.2969 L503,59.2969 L493,49.2969 " fill="#03B5AA" style="stroke: #FFFFFF; stroke-width: 1.0;"/><text fill="#000000" font-family="sans-serif" font-size="13" font-weight="bold" lengthAdjust="spacingAndGlyphs" textLength="87" x="401" y="66.3638">NRF to AMF</text><polygon fill="#000000" points="378.5,99.5625,388.5,103.5625,378.5,107.5625,382.5,103.5625" style="stroke: #000000; stroke-width: 1.0;"/><line style="stroke: #000000; stroke-width: 1.0;" x1="82.5" x2="384.5" y1="103.5625" y2="103.5625"/><text fill="#000000" font-family="sans-serif" font-size="13" lengthAdjust="spacingAndGlyphs" textLength="284" x="89.5" y="98.4966">317, HTTP/2 req. or rsp. (no HTTP/2 headers)</text><path d="M395,84.4297 L395,109.4297 L503,109.4297 L503,94.4297 L493,84.4297 L395,84.4297 " fill="#03B5AA" style="stroke: #FFFFFF; stroke-width: 1.0;"/><path d="M493,84.4297 L493,94.4297 L503,94.4297 L493,84.4297 " fill="#03B5AA" style="stroke: #FFFFFF; stroke-width: 1.0;"/><text fill="#000000" font-family="sans-serif" font-size="13" font-weight="bold" lengthAdjust="spacingAndGlyphs" textLength="87" x="401" y="101.4966">AMF to NRF</text><polygon fill="#000000" points="378.5,134.6953,388.5,138.6953,378.5,142.6953,382.5,138.6953" style="stroke: #000000; stroke-width: 1.0;"/><line style="stroke: #000000; stroke-width: 1.0;" x1="82.5" x2="384.5" y1="138.6953" y2="138.6953"/><text fill="#000000" font-family="sans-serif" font-size="13" lengthAdjust="spacingAndGlyphs" textLength="284" x="89.5" y="133.6294">318, HTTP/2 req. or rsp. (no HTTP/2 headers)</text><path d="M395,119.5625 L395,144.5625 L503,144.5625 L503,129.5625 L493,119.5625 L395,119.5625 " fill="#03B5AA" style="stroke: #FFFFFF; stroke-width: 1.0;"/><path d="M493,119.5625 L493,129.5625 L503,129.5625 L493,119.5625 " fill="#03B5AA" style="stroke: #FFFFFF; stroke-width: 1.0;"/><text fill="#000000" font-family="sans-serif" font-size="13" font-weight="bold" lengthAdjust="spacingAndGlyphs" textLength="87" x="401" y="136.6294">AMF to NRF</text><polygon fill="#000000" points="93.5,169.8281,83.5,173.8281,93.5,177.8281,89.5,173.8281" style="stroke: #000000; stroke-width: 1.0;"/><line style="stroke: #000000; stroke-width: 1.0;" x1="87.5" x2="389.5" y1="173.8281" y2="173.8281"/><text fill="#000000" font-family="sans-serif" font-size="13" lengthAdjust="spacingAndGlyphs" textLength="284" x="99.5" y="168.7622">320, HTTP/2 req. or rsp. (no HTTP/2 headers)</text><path d="M395,154.6953 L395,179.6953 L503,179.6953 L503,164.6953 L493,154.6953 L395,154.6953 " fill="#03B5AA" style="stroke: #FFFFFF; stroke-width: 1.0;"/><path d="M493,154.6953 L493,164.6953 L503,164.6953 L493,154.6953 " fill="#03B5AA" style="stroke: #FFFFFF; stroke-width: 1.0;"/><text fill="#000000" font-family="sans-serif" font-size="13" font-weight="bold" lengthAdjust="spacingAndGlyphs" textLength="87" x="401" y="171.7622">NRF to AMF</text><polygon fill="#000000" points="378.5,204.9609,388.5,208.9609,378.5,212.9609,382.5,208.9609" style="stroke: #000000; stroke-width: 1.0;"/><line style="stroke: #000000; stroke-width: 1.0;" x1="82.5" x2="384.5" y1="208.9609" y2="208.9609"/><text fill="#000000" font-family="sans-serif" font-size="13" lengthAdjust="spacingAndGlyphs" textLength="284" x="89.5" y="203.895">324, HTTP/2 req. or rsp. (no HTTP/2 headers)</text><path d="M395,189.8281 L395,214.8281 L503,214.8281 L503,199.8281 L493,189.8281 L395,189.8281 " fill="#03B5AA" style="stroke: #FFFFFF; stroke-width: 1.0;"/><path d="M493,189.8281 L493,199.8281 L503,199.8281 L493,189.8281 " fill="#03B5AA" style="stroke: #FFFFFF; stroke-width: 1.0;"/><text fill="#000000" font-family="sans-serif" font-size="13" font-weight="bold" lengthAdjust="spacingAndGlyphs" textLength="87" x="401" y="206.895">AMF to NRF</text><polygon fill="#000000" points="378.5,240.0938,388.5,244.0938,378.5,248.0938,382.5,244.0938" style="stroke: #000000; stroke-width: 1.0;"/><line style="stroke: #000000; stroke-width: 1.0;" x1="82.5" x2="384.5" y1="244.0938" y2="244.0938"/><text fill="#000000" font-family="sans-serif" font-size="13" lengthAdjust="spacingAndGlyphs" textLength="284" x="89.5" y="239.0278">325, HTTP/2 req. or rsp. (no HTTP/2 headers)</text><path d="M395,224.9609 L395,249.9609 L503,249.9609 L503,234.9609 L493,224.9609 L395,224.9609 " fill="#03B5AA" style="stroke: #FFFFFF; stroke-width: 1.0;"/><path d="M493,224.9609 L493,234.9609 L503,234.9609 L493,224.9609 " fill="#03B5AA" style="stroke: #FFFFFF; stroke-width: 1.0;"/><text fill="#000000" font-family="sans-serif" font-size="13" font-weight="bold" lengthAdjust="spacingAndGlyphs" textLength="87" x="401" y="242.0278">AMF to NRF</text><polygon fill="#000000" points="93.5,275.2266,83.5,279.2266,93.5,283.2266,89.5,279.2266" style="stroke: #000000; stroke-width: 1.0;"/><line style="stroke: #000000; stroke-width: 1.0;" x1="87.5" x2="389.5" y1="279.2266" y2="279.2266"/><text fill="#000000" font-family="sans-serif" font-size="13" lengthAdjust="spacingAndGlyphs" textLength="284" x="99.5" y="274.1606">327, HTTP/2 req. or rsp. (no HTTP/2 headers)</text><path d="M395,260.0938 L395,285.0938 L503,285.0938 L503,270.0938 L493,260.0938 L395,260.0938 " fill="#03B5AA" style="stroke: #FFFFFF; stroke-width: 1.0;"/><path d="M493,260.0938 L493,270.0938 L503,270.0938 L493,260.0938 " fill="#03B5AA" style="stroke: #FFFFFF; stroke-width: 1.0;"/><text fill="#000000" font-family="sans-serif" font-size="13" font-weight="bold" lengthAdjust="spacingAndGlyphs" textLength="87" x="401" y="277.1606">NRF to AMF</text><polygon fill="#000000" points="378.5,310.3594,388.5,314.3594,378.5,318.3594,382.5,314.3594" style="stroke: #000000; stroke-width: 1.0;"/><line style="stroke: #000000; stroke-width: 1.0;" x1="82.5" x2="384.5" y1="314.3594" y2="314.3594"/><text fill="#000000" font-family="sans-serif" font-size="13" lengthAdjust="spacingAndGlyphs" textLength="284" x="89.5" y="309.2935">335, HTTP/2 req. or rsp. (no HTTP/2 headers)</text><path d="M395,295.2266 L395,320.2266 L503,320.2266 L503,305.2266 L493,295.2266 L395,295.2266 " fill="#03B5AA" style="stroke: #FFFFFF; stroke-width: 1.0;"/><path d="M493,295.2266 L493,305.2266 L503,305.2266 L493,295.2266 " fill="#03B5AA" style="stroke: #FFFFFF; stroke-width: 1.0;"/><text fill="#000000" font-family="sans-serif" font-size="13" font-weight="bold" lengthAdjust="spacingAndGlyphs" textLength="87" x="401" y="312.2935">AMF to NRF</text><polygon fill="#000000" points="378.5,345.4922,388.5,349.4922,378.5,353.4922,382.5,349.4922" style="stroke: #000000; stroke-width: 1.0;"/><line style="stroke: #000000; stroke-width: 1.0;" x1="82.5" x2="384.5" y1="349.4922" y2="349.4922"/><text fill="#000000" font-family="sans-serif" font-size="13" lengthAdjust="spacingAndGlyphs" textLength="284" x="89.5" y="344.4263">336, HTTP/2 req. or rsp. (no HTTP/2 headers)</text><path d="M395,330.3594 L395,355.3594 L503,355.3594 L503,340.3594 L493,330.3594 L395,330.3594 " fill="#03B5AA" style="stroke: #FFFFFF; stroke-width: 1.0;"/><path d="M493,330.3594 L493,340.3594 L503,340.3594 L493,330.3594 " fill="#03B5AA" style="stroke: #FFFFFF; stroke-width: 1.0;"/><text fill="#000000" font-family="sans-serif" font-size="13" font-weight="bold" lengthAdjust="spacingAndGlyphs" textLength="87" x="401" y="347.4263">AMF to NRF</text><polygon fill="#000000" points="93.5,380.625,83.5,384.625,93.5,388.625,89.5,384.625" style="stroke: #000000; stroke-width: 1.0;"/><line style="stroke: #000000; stroke-width: 1.0;" x1="87.5" x2="389.5" y1="384.625" y2="384.625"/><text fill="#000000" font-family="sans-serif" font-size="13" lengthAdjust="spacingAndGlyphs" textLength="284" x="99.5" y="379.5591">338, HTTP/2 req. or rsp. (no HTTP/2 headers)</text><path d="M395,365.4922 L395,390.4922 L503,390.4922 L503,375.4922 L493,365.4922 L395,365.4922 " fill="#03B5AA" style="stroke: #FFFFFF; stroke-width: 1.0;"/><path d="M493,365.4922 L493,375.4922 L503,375.4922 L493,365.4922 " fill="#03B5AA" style="stroke: #FFFFFF; stroke-width: 1.0;"/><text fill="#000000" font-family="sans-serif" font-size="13" font-weight="bold" lengthAdjust="spacingAndGlyphs" textLength="87" x="401" y="382.5591">NRF to AMF</text><polygon fill="#000000" points="378.5,415.7578,388.5,419.7578,378.5,423.7578,382.5,419.7578" style="stroke: #000000; stroke-width: 1.0;"/><line style="stroke: #000000; stroke-width: 1.0;" x1="82.5" x2="384.5" y1="419.7578" y2="419.7578"/><text fill="#000000" font-family="sans-serif" font-size="13" lengthAdjust="spacingAndGlyphs" textLength="284" x="89.5" y="414.6919">344, HTTP/2 req. or rsp. (no HTTP/2 headers)</text><path d="M395,400.625 L395,425.625 L503,425.625 L503,410.625 L493,400.625 L395,400.625 " fill="#03B5AA" style="stroke: #FFFFFF; stroke-width: 1.0;"/><path d="M493,400.625 L493,410.625 L503,410.625 L493,400.625 " fill="#03B5AA" style="stroke: #FFFFFF; stroke-width: 1.0;"/><text fill="#000000" font-family="sans-serif" font-size="13" font-weight="bold" lengthAdjust="spacingAndGlyphs" textLength="87" x="401" y="417.6919">AMF to NRF</text><polygon fill="#000000" points="378.5,450.8906,388.5,454.8906,378.5,458.8906,382.5,454.8906" style="stroke: #000000; stroke-width: 1.0;"/><line style="stroke: #000000; stroke-width: 1.0;" x1="82.5" x2="384.5" y1="454.8906" y2="454.8906"/><text fill="#000000" font-family="sans-serif" font-size="13" lengthAdjust="spacingAndGlyphs" textLength="284" x="89.5" y="449.8247">345, HTTP/2 req. or rsp. (no HTTP/2 headers)</text><path d="M395,435.7578 L395,460.7578 L503,460.7578 L503,445.7578 L493,435.7578 L395,435.7578 " fill="#03B5AA" style="stroke: #FFFFFF; stroke-width: 1.0;"/><path d="M493,435.7578 L493,445.7578 L503,445.7578 L493,435.7578 " fill="#03B5AA" style="stroke: #FFFFFF; stroke-width: 1.0;"/><text fill="#000000" font-family="sans-serif" font-size="13" font-weight="bold" lengthAdjust="spacingAndGlyphs" textLength="87" x="401" y="452.8247">AMF to NRF</text><polygon fill="#000000" points="93.5,486.0234,83.5,490.0234,93.5,494.0234,89.5,490.0234" style="stroke: #000000; stroke-width: 1.0;"/><line style="stroke: #000000; stroke-width: 1.0;" x1="87.5" x2="389.5" y1="490.0234" y2="490.0234"/><text fill="#000000" font-family="sans-serif" font-size="13" lengthAdjust="spacingAndGlyphs" textLength="284" x="99.5" y="484.9575">347, HTTP/2 req. or rsp. (no HTTP/2 headers)</text><path d="M395,470.8906 L395,495.8906 L503,495.8906 L503,480.8906 L493,470.8906 L395,470.8906 " fill="#03B5AA" style="stroke: #FFFFFF; stroke-width: 1.0;"/><path d="M493,470.8906 L493,480.8906 L503,480.8906 L493,470.8906 " fill="#03B5AA" style="stroke: #FFFFFF; stroke-width: 1.0;"/><text fill="#000000" font-family="sans-serif" font-size="13" font-weight="bold" lengthAdjust="spacingAndGlyphs" textLength="87" x="401" y="487.9575">NRF to AMF</text><polygon fill="#000000" points="378.5,521.1563,388.5,525.1563,378.5,529.1563,382.5,525.1563" style="stroke: #000000; stroke-width: 1.0;"/><line style="stroke: #000000; stroke-width: 1.0;" x1="82.5" x2="384.5" y1="525.1563" y2="525.1563"/><text fill="#000000" font-family="sans-serif" font-size="13" lengthAdjust="spacingAndGlyphs" textLength="284" x="89.5" y="520.0903">351, HTTP/2 req. or rsp. (no HTTP/2 headers)</text><path d="M395,506.0234 L395,531.0234 L503,531.0234 L503,516.0234 L493,506.0234 L395,506.0234 " fill="#03B5AA" style="stroke: #FFFFFF; stroke-width: 1.0;"/><path d="M493,506.0234 L493,516.0234 L503,516.0234 L493,506.0234 " fill="#03B5AA" style="stroke: #FFFFFF; stroke-width: 1.0;"/><text fill="#000000" font-family="sans-serif" font-size="13" font-weight="bold" lengthAdjust="spacingAndGlyphs" textLength="87" x="401" y="523.0903">AMF to NRF</text><polygon fill="#000000" points="378.5,556.2891,388.5,560.2891,378.5,564.2891,382.5,560.2891" style="stroke: #000000; stroke-width: 1.0;"/><line style="stroke: #000000; stroke-width: 1.0;" x1="82.5" x2="384.5" y1="560.2891" y2="560.2891"/><text fill="#000000" font-family="sans-serif" font-size="13" lengthAdjust="spacingAndGlyphs" textLength="284" x="89.5" y="555.2231">352, HTTP/2 req. or rsp. (no HTTP/2 headers)</text><path d="M395,541.1563 L395,566.1563 L503,566.1563 L503,551.1563 L493,541.1563 L395,541.1563 " fill="#03B5AA" style="stroke: #FFFFFF; stroke-width: 1.0;"/><path d="M493,541.1563 L493,551.1563 L503,551.1563 L493,541.1563 " fill="#03B5AA" style="stroke: #FFFFFF; stroke-width: 1.0;"/><text fill="#000000" font-family="sans-serif" font-size="13" font-weight="bold" lengthAdjust="spacingAndGlyphs" textLength="87" x="401" y="558.2231">AMF to NRF</text><polygon fill="#000000" points="93.5,591.4219,83.5,595.4219,93.5,599.4219,89.5,595.4219" style="stroke: #000000; stroke-width: 1.0;"/><line style="stroke: #000000; stroke-width: 1.0;" x1="87.5" x2="389.5" y1="595.4219" y2="595.4219"/><text fill="#000000" font-family="sans-serif" font-size="13" lengthAdjust="spacingAndGlyphs" textLength="284" x="99.5" y="590.356">354, HTTP/2 req. or rsp. (no HTTP/2 headers)</text><path d="M395,576.2891 L395,601.2891 L503,601.2891 L503,586.2891 L493,576.2891 L395,576.2891 " fill="#03B5AA" style="stroke: #FFFFFF; stroke-width: 1.0;"/><path d="M493,576.2891 L493,586.2891 L503,586.2891 L493,576.2891 " fill="#03B5AA" style="stroke: #FFFFFF; stroke-width: 1.0;"/><text fill="#000000" font-family="sans-serif" font-size="13" font-weight="bold" lengthAdjust="spacingAndGlyphs" textLength="87" x="401" y="593.356">NRF to AMF</text><polygon fill="#000000" points="378.5,626.5547,388.5,630.5547,378.5,634.5547,382.5,630.5547" style="stroke: #000000; stroke-width: 1.0;"/><line style="stroke: #000000; stroke-width: 1.0;" x1="82.5" x2="384.5" y1="630.5547" y2="630.5547"/><text fill="#000000" font-family="sans-serif" font-size="13" lengthAdjust="spacingAndGlyphs" textLength="284" x="89.5" y="625.4888">362, HTTP/2 req. or rsp. (no HTTP/2 headers)</text><path d="M395,611.4219 L395,636.4219 L503,636.4219 L503,621.4219 L493,611.4219 L395,611.4219 " fill="#03B5AA" style="stroke: #FFFFFF; stroke-width: 1.0;"/><path d="M493,611.4219 L493,621.4219 L503,621.4219 L493,611.4219 " fill="#03B5AA" style="stroke: #FFFFFF; stroke-width: 1.0;"/><text fill="#000000" font-family="sans-serif" font-size="13" font-weight="bold" lengthAdjust="spacingAndGlyphs" textLength="87" x="401" y="628.4888">AMF to NRF</text><polygon fill="#000000" points="378.5,661.6875,388.5,665.6875,378.5,669.6875,382.5,665.6875" style="stroke: #000000; stroke-width: 1.0;"/><line style="stroke: #000000; stroke-width: 1.0;" x1="82.5" x2="384.5" y1="665.6875" y2="665.6875"/><text fill="#000000" font-family="sans-serif" font-size="13" lengthAdjust="spacingAndGlyphs" textLength="284" x="89.5" y="660.6216">363, HTTP/2 req. or rsp. (no HTTP/2 headers)</text><path d="M395,646.5547 L395,671.5547 L503,671.5547 L503,656.5547 L493,646.5547 L395,646.5547 " fill="#03B5AA" style="stroke: #FFFFFF; stroke-width: 1.0;"/><path d="M493,646.5547 L493,656.5547 L503,656.5547 L493,646.5547 " fill="#03B5AA" style="stroke: #FFFFFF; stroke-width: 1.0;"/><text fill="#000000" font-family="sans-serif" font-size="13" font-weight="bold" lengthAdjust="spacingAndGlyphs" textLength="87" x="401" y="663.6216">AMF to NRF</text><polygon fill="#000000" points="93.5,696.8203,83.5,700.8203,93.5,704.8203,89.5,700.8203" style="stroke: #000000; stroke-width: 1.0;"/><line style="stroke: #000000; stroke-width: 1.0;" x1="87.5" x2="389.5" y1="700.8203" y2="700.8203"/><text fill="#000000" font-family="sans-serif" font-size="13" lengthAdjust="spacingAndGlyphs" textLength="284" x="99.5" y="695.7544">365, HTTP/2 req. or rsp. (no HTTP/2 headers)</text><path d="M395,681.6875 L395,706.6875 L503,706.6875 L503,691.6875 L493,681.6875 L395,681.6875 " fill="#03B5AA" style="stroke: #FFFFFF; stroke-width: 1.0;"/><path d="M493,681.6875 L493,691.6875 L503,691.6875 L493,681.6875 " fill="#03B5AA" style="stroke: #FFFFFF; stroke-width: 1.0;"/><text fill="#000000" font-family="sans-serif" font-size="13" font-weight="bold" lengthAdjust="spacingAndGlyphs" textLength="87" x="401" y="698.7544">NRF to AMF</text><polygon fill="#000000" points="378.5,731.9531,388.5,735.9531,378.5,739.9531,382.5,735.9531" style="stroke: #000000; stroke-width: 1.0;"/><line style="stroke: #000000; stroke-width: 1.0;" x1="82.5" x2="384.5" y1="735.9531" y2="735.9531"/><text fill="#000000" font-family="sans-serif" font-size="13" lengthAdjust="spacingAndGlyphs" textLength="284" x="89.5" y="730.8872">369, HTTP/2 req. or rsp. (no HTTP/2 headers)</text><path d="M395,716.8203 L395,741.8203 L503,741.8203 L503,726.8203 L493,716.8203 L395,716.8203 " fill="#03B5AA" style="stroke: #FFFFFF; stroke-width: 1.0;"/><path d="M493,716.8203 L493,726.8203 L503,726.8203 L493,716.8203 " fill="#03B5AA" style="stroke: #FFFFFF; stroke-width: 1.0;"/><text fill="#000000" font-family="sans-serif" font-size="13" font-weight="bold" lengthAdjust="spacingAndGlyphs" textLength="87" x="401" y="733.8872">AMF to NRF</text><polygon fill="#000000" points="378.5,767.0859,388.5,771.0859,378.5,775.0859,382.5,771.0859" style="stroke: #000000; stroke-width: 1.0;"/><line style="stroke: #000000; stroke-width: 1.0;" x1="82.5" x2="384.5" y1="771.0859" y2="771.0859"/><text fill="#000000" font-family="sans-serif" font-size="13" lengthAdjust="spacingAndGlyphs" textLength="284" x="89.5" y="766.02">370, HTTP/2 req. or rsp. (no HTTP/2 headers)</text><path d="M395,751.9531 L395,776.9531 L503,776.9531 L503,761.9531 L493,751.9531 L395,751.9531 " fill="#03B5AA" style="stroke: #FFFFFF; stroke-width: 1.0;"/><path d="M493,751.9531 L493,761.9531 L503,761.9531 L493,751.9531 " fill="#03B5AA" style="stroke: #FFFFFF; stroke-width: 1.0;"/><text fill="#000000" font-family="sans-serif" font-size="13" font-weight="bold" lengthAdjust="spacingAndGlyphs" textLength="87" x="401" y="769.02">AMF to NRF</text><polygon fill="#000000" points="93.5,802.2188,83.5,806.2188,93.5,810.2188,89.5,806.2188" style="stroke: #000000; stroke-width: 1.0;"/><line style="stroke: #000000; stroke-width: 1.0;" x1="87.5" x2="389.5" y1="806.2188" y2="806.2188"/><text fill="#000000" font-family="sans-serif" font-size="13" lengthAdjust="spacingAndGlyphs" textLength="284" x="99.5" y="801.1528">372, HTTP/2 req. or rsp. (no HTTP/2 headers)</text><path d="M395,787.0859 L395,812.0859 L503,812.0859 L503,797.0859 L493,787.0859 L395,787.0859 " fill="#03B5AA" style="stroke: #FFFFFF; stroke-width: 1.0;"/><path d="M493,787.0859 L493,797.0859 L503,797.0859 L493,787.0859 " fill="#03B5AA" style="stroke: #FFFFFF; stroke-width: 1.0;"/><text fill="#000000" font-family="sans-serif" font-size="13" font-weight="bold" lengthAdjust="spacingAndGlyphs" textLength="87" x="401" y="804.1528">NRF to AMF</text><polygon fill="#000000" points="378.5,837.3516,388.5,841.3516,378.5,845.3516,382.5,841.3516" style="stroke: #000000; stroke-width: 1.0;"/><line style="stroke: #000000; stroke-width: 1.0;" x1="82.5" x2="384.5" y1="841.3516" y2="841.3516"/><text fill="#000000" font-family="sans-serif" font-size="13" lengthAdjust="spacingAndGlyphs" textLength="284" x="89.5" y="836.2856">378, HTTP/2 req. or rsp. (no HTTP/2 headers)</text><path d="M395,822.2188 L395,847.2188 L503,847.2188 L503,832.2188 L493,822.2188 L395,822.2188 " fill="#03B5AA" style="stroke: #FFFFFF; stroke-width: 1.0;"/><path d="M493,822.2188 L493,832.2188 L503,832.2188 L493,822.2188 " fill="#03B5AA" style="stroke: #FFFFFF; stroke-width: 1.0;"/><text fill="#000000" font-family="sans-serif" font-size="13" font-weight="bold" lengthAdjust="spacingAndGlyphs" textLength="87" x="401" y="839.2856">AMF to NRF</text><polygon fill="#000000" points="378.5,872.4844,388.5,876.4844,378.5,880.4844,382.5,876.4844" style="stroke: #000000; stroke-width: 1.0;"/><line style="stroke: #000000; stroke-width: 1.0;" x1="82.5" x2="384.5" y1="876.4844" y2="876.4844"/><text fill="#000000" font-family="sans-serif" font-size="13" lengthAdjust="spacingAndGlyphs" textLength="284" x="89.5" y="871.4185">379, HTTP/2 req. or rsp. (no HTTP/2 headers)</text><path d="M395,857.3516 L395,882.3516 L503,882.3516 L503,867.3516 L493,857.3516 L395,857.3516 " fill="#03B5AA" style="stroke: #FFFFFF; stroke-width: 1.0;"/><path d="M493,857.3516 L493,867.3516 L503,867.3516 L493,857.3516 " fill="#03B5AA" style="stroke: #FFFFFF; stroke-width: 1.0;"/><text fill="#000000" font-family="sans-serif" font-size="13" font-weight="bold" lengthAdjust="spacingAndGlyphs" textLength="87" x="401" y="874.4185">AMF to NRF</text><polygon fill="#000000" points="93.5,907.6172,83.5,911.6172,93.5,915.6172,89.5,911.6172" style="stroke: #000000; stroke-width: 1.0;"/><line style="stroke: #000000; stroke-width: 1.0;" x1="87.5" x2="389.5" y1="911.6172" y2="911.6172"/><text fill="#000000" font-family="sans-serif" font-size="13" lengthAdjust="spacingAndGlyphs" textLength="284" x="99.5" y="906.5513">381, HTTP/2 req. or rsp. (no HTTP/2 headers)</text><path d="M395,892.4844 L395,917.4844 L503,917.4844 L503,902.4844 L493,892.4844 L395,892.4844 " fill="#03B5AA" style="stroke: #FFFFFF; stroke-width: 1.0;"/><path d="M493,892.4844 L493,902.4844 L503,902.4844 L493,892.4844 " fill="#03B5AA" style="stroke: #FFFFFF; stroke-width: 1.0;"/><text fill="#000000" font-family="sans-serif" font-size="13" font-weight="bold" lengthAdjust="spacingAndGlyphs" textLength="87" x="401" y="909.5513">NRF to AMF</text><polygon fill="#000000" points="378.5,942.75,388.5,946.75,378.5,950.75,382.5,946.75" style="stroke: #000000; stroke-width: 1.0;"/><line style="stroke: #000000; stroke-width: 1.0;" x1="82.5" x2="384.5" y1="946.75" y2="946.75"/><text fill="#000000" font-family="sans-serif" font-size="13" lengthAdjust="spacingAndGlyphs" textLength="284" x="89.5" y="941.6841">389, HTTP/2 req. or rsp. (no HTTP/2 headers)</text><path d="M395,927.6172 L395,952.6172 L503,952.6172 L503,937.6172 L493,927.6172 L395,927.6172 " fill="#03B5AA" style="stroke: #FFFFFF; stroke-width: 1.0;"/><path d="M493,927.6172 L493,937.6172 L503,937.6172 L493,927.6172 " fill="#03B5AA" style="stroke: #FFFFFF; stroke-width: 1.0;"/><text fill="#000000" font-family="sans-serif" font-size="13" font-weight="bold" lengthAdjust="spacingAndGlyphs" textLength="87" x="401" y="944.6841">AMF to NRF</text><polygon fill="#000000" points="378.5,977.8828,388.5,981.8828,378.5,985.8828,382.5,981.8828" style="stroke: #000000; stroke-width: 1.0;"/><line style="stroke: #000000; stroke-width: 1.0;" x1="82.5" x2="384.5" y1="981.8828" y2="981.8828"/><text fill="#000000" font-family="sans-serif" font-size="13" lengthAdjust="spacingAndGlyphs" textLength="284" x="89.5" y="976.8169">390, HTTP/2 req. or rsp. (no HTTP/2 headers)</text><path d="M395,962.75 L395,987.75 L503,987.75 L503,972.75 L493,962.75 L395,962.75 " fill="#03B5AA" style="stroke: #FFFFFF; stroke-width: 1.0;"/><path d="M493,962.75 L493,972.75 L503,972.75 L493,962.75 " fill="#03B5AA" style="stroke: #FFFFFF; stroke-width: 1.0;"/><text fill="#000000" font-family="sans-serif" font-size="13" font-weight="bold" lengthAdjust="spacingAndGlyphs" textLength="87" x="401" y="979.8169">AMF to NRF</text><polygon fill="#000000" points="93.5,1013.0156,83.5,1017.0156,93.5,1021.0156,89.5,1017.0156" style="stroke: #000000; stroke-width: 1.0;"/><line style="stroke: #000000; stroke-width: 1.0;" x1="87.5" x2="389.5" y1="1017.0156" y2="1017.0156"/><text fill="#000000" font-family="sans-serif" font-size="13" lengthAdjust="spacingAndGlyphs" textLength="284" x="99.5" y="1011.9497">392, HTTP/2 req. or rsp. (no HTTP/2 headers)</text><path d="M395,997.8828 L395,1022.8828 L503,1022.8828 L503,1007.8828 L493,997.8828 L395,997.8828 " fill="#03B5AA" style="stroke: #FFFFFF; stroke-width: 1.0;"/><path d="M493,997.8828 L493,1007.8828 L503,1007.8828 L493,997.8828 " fill="#03B5AA" style="stroke: #FFFFFF; stroke-width: 1.0;"/><text fill="#000000" font-family="sans-serif" font-size="13" font-weight="bold" lengthAdjust="spacingAndGlyphs" textLength="87" x="401" y="1014.9497">NRF to AMF</text><!--MD5=[3414279813ce73b2e2d815081f84d86c]
@startuml
skinparam shadowing false
skinparam NoteBorderColor white
skinparam sequence {
    ArrowColor black
    LifeLineBorderColor black
    LifeLineBackgroundColor black
    ParticipantBorderColor white
    ParticipantBackgroundColor #e6e6e6
}
participant "gNB"
participant "AMF"
participant "SMF"
participant "PCF"
participant "UDM"
participant "AUSF"
participant "NRF"

"NRF" -> "AMF": 311, HTTP/2 req. or rsp. (no HTTP/2 headers)

note right #03B5AA
**NRF to AMF**
end note

"AMF" -> "NRF": 317, HTTP/2 req. or rsp. (no HTTP/2 headers)

note right #03B5AA
**AMF to NRF**
end note

"AMF" -> "NRF": 318, HTTP/2 req. or rsp. (no HTTP/2 headers)

note right #03B5AA
**AMF to NRF**
end note

"NRF" -> "AMF": 320, HTTP/2 req. or rsp. (no HTTP/2 headers)

note right #03B5AA
**NRF to AMF**
end note

"AMF" -> "NRF": 324, HTTP/2 req. or rsp. (no HTTP/2 headers)

note right #03B5AA
**AMF to NRF**
end note

"AMF" -> "NRF": 325, HTTP/2 req. or rsp. (no HTTP/2 headers)

note right #03B5AA
**AMF to NRF**
end note

"NRF" -> "AMF": 327, HTTP/2 req. or rsp. (no HTTP/2 headers)

note right #03B5AA
**NRF to AMF**
end note

"AMF" -> "NRF": 335, HTTP/2 req. or rsp. (no HTTP/2 headers)

note right #03B5AA
**AMF to NRF**
end note

"AMF" -> "NRF": 336, HTTP/2 req. or rsp. (no HTTP/2 headers)

note right #03B5AA
**AMF to NRF**
end note

"NRF" -> "AMF": 338, HTTP/2 req. or rsp. (no HTTP/2 headers)

note right #03B5AA
**NRF to AMF**
end note

"AMF" -> "NRF": 344, HTTP/2 req. or rsp. (no HTTP/2 headers)

note right #03B5AA
**AMF to NRF**
end note

"AMF" -> "NRF": 345, HTTP/2 req. or rsp. (no HTTP/2 headers)

note right #03B5AA
**AMF to NRF**
end note

"NRF" -> "AMF": 347, HTTP/2 req. or rsp. (no HTTP/2 headers)

note right #03B5AA
**NRF to AMF**
end note

"AMF" -> "NRF": 351, HTTP/2 req. or rsp. (no HTTP/2 headers)

note right #03B5AA
**AMF to NRF**
end note

"AMF" -> "NRF": 352, HTTP/2 req. or rsp. (no HTTP/2 headers)

note right #03B5AA
**AMF to NRF**
end note

"NRF" -> "AMF": 354, HTTP/2 req. or rsp. (no HTTP/2 headers)

note right #03B5AA
**NRF to AMF**
end note

"AMF" -> "NRF": 362, HTTP/2 req. or rsp. (no HTTP/2 headers)

note right #03B5AA
**AMF to NRF**
end note

"AMF" -> "NRF": 363, HTTP/2 req. or rsp. (no HTTP/2 headers)

note right #03B5AA
**AMF to NRF**
end note

"NRF" -> "AMF": 365, HTTP/2 req. or rsp. (no HTTP/2 headers)

note right #03B5AA
**NRF to AMF**
end note

"AMF" -> "NRF": 369, HTTP/2 req. or rsp. (no HTTP/2 headers)

note right #03B5AA
**AMF to NRF**
end note

"AMF" -> "NRF": 370, HTTP/2 req. or rsp. (no HTTP/2 headers)

note right #03B5AA
**AMF to NRF**
end note

"NRF" -> "AMF": 372, HTTP/2 req. or rsp. (no HTTP/2 headers)

note right #03B5AA
**NRF to AMF**
end note

"AMF" -> "NRF": 378, HTTP/2 req. or rsp. (no HTTP/2 headers)

note right #03B5AA
**AMF to NRF**
end note

"AMF" -> "NRF": 379, HTTP/2 req. or rsp. (no HTTP/2 headers)

note right #03B5AA
**AMF to NRF**
end note

"NRF" -> "AMF": 381, HTTP/2 req. or rsp. (no HTTP/2 headers)

note right #03B5AA
**NRF to AMF**
end note

"AMF" -> "NRF": 389, HTTP/2 req. or rsp. (no HTTP/2 headers)

note right #03B5AA
**AMF to NRF**
end note

"AMF" -> "NRF": 390, HTTP/2 req. or rsp. (no HTTP/2 headers)

note right #03B5AA
**AMF to NRF**
end note

"NRF" -> "AMF": 392, HTTP/2 req. or rsp. (no HTTP/2 headers)

note right #03B5AA
**NRF to AMF**
end note

@enduml

PlantUML version 1.2019.12(Sun Nov 03 11:24:54 CET 2019)
(APACHE source distribution)
Java Runtime: OpenJDK Runtime Environment
JVM: OpenJDK 64-Bit Server VM
Java Version: 11.0.18+10-post-Ubuntu-0ubuntu120.04.1
Operating System: Linux
Default Encoding: UTF-8
Language: en
Country: US
--></g></svg>