<?xml version="1.0" encoding="UTF-8" standalone="no"?><svg xmlns="http://www.w3.org/2000/svg" xmlns:xlink="http://www.w3.org/1999/xlink" contentScriptType="application/ecmascript" contentStyleType="text/css" height="789px" preserveAspectRatio="none" style="width:801px;height:789px;" version="1.1" viewBox="0 0 801 789" width="801px" zoomAndPan="magnify"><defs/><g><line style="stroke: #000000; stroke-width: 1.0; stroke-dasharray: 5.0,5.0;" x1="24" x2="24" y1="34.2969" y2="749.6797"/><line style="stroke: #000000; stroke-width: 1.0; stroke-dasharray: 5.0,5.0;" x1="72" x2="72" y1="34.2969" y2="749.6797"/><line style="stroke: #000000; stroke-width: 1.0; stroke-dasharray: 5.0,5.0;" x1="125" x2="125" y1="34.2969" y2="749.6797"/><line style="stroke: #000000; stroke-width: 1.0; stroke-dasharray: 5.0,5.0;" x1="276" x2="276" y1="34.2969" y2="749.6797"/><line style="stroke: #000000; stroke-width: 1.0; stroke-dasharray: 5.0,5.0;" x1="539" x2="539" y1="34.2969" y2="749.6797"/><line style="stroke: #000000; stroke-width: 1.0; stroke-dasharray: 5.0,5.0;" x1="658" x2="658" y1="34.2969" y2="749.6797"/><rect fill="#E6E6E6" height="30.2969" style="stroke: #FFFFFF; stroke-width: 1.5;" width="33" x="8" y="3"/><text fill="#000000" font-family="sans-serif" font-size="14" lengthAdjust="spacingAndGlyphs" textLength="19" x="15" y="22.9951">UE</text><rect fill="#E6E6E6" height="30.2969" style="stroke: #FFFFFF; stroke-width: 1.5;" width="33" x="8" y="748.6797"/><text fill="#000000" font-family="sans-serif" font-size="14" lengthAdjust="spacingAndGlyphs" textLength="19" x="15" y="768.6748">UE</text><rect fill="#E6E6E6" height="30.2969" style="stroke: #FFFFFF; stroke-width: 1.5;" width="43" x="51" y="3"/><text fill="#000000" font-family="sans-serif" font-size="14" lengthAdjust="spacingAndGlyphs" textLength="29" x="58" y="22.9951">gNB</text><rect fill="#E6E6E6" height="30.2969" style="stroke: #FFFFFF; stroke-width: 1.5;" width="43" x="51" y="748.6797"/><text fill="#000000" font-family="sans-serif" font-size="14" lengthAdjust="spacingAndGlyphs" textLength="29" x="58" y="768.6748">gNB</text><rect fill="#E6E6E6" height="30.2969" style="stroke: #FFFFFF; stroke-width: 1.5;" width="43" x="104" y="3"/><text fill="#000000" font-family="sans-serif" font-size="14" lengthAdjust="spacingAndGlyphs" textLength="29" x="111" y="22.9951">SMF</text><rect fill="#E6E6E6" height="30.2969" style="stroke: #FFFFFF; stroke-width: 1.5;" width="43" x="104" y="748.6797"/><text fill="#000000" font-family="sans-serif" font-size="14" lengthAdjust="spacingAndGlyphs" textLength="29" x="111" y="768.6748">SMF</text><rect fill="#E6E6E6" height="30.2969" style="stroke: #FFFFFF; stroke-width: 1.5;" width="41" x="256" y="3"/><text fill="#000000" font-family="sans-serif" font-size="14" lengthAdjust="spacingAndGlyphs" textLength="27" x="263" y="22.9951">UPF</text><rect fill="#E6E6E6" height="30.2969" style="stroke: #FFFFFF; stroke-width: 1.5;" width="41" x="256" y="748.6797"/><text fill="#000000" font-family="sans-serif" font-size="14" lengthAdjust="spacingAndGlyphs" textLength="27" x="263" y="768.6748">UPF</text><rect fill="#E6E6E6" height="30.2969" style="stroke: #FFFFFF; stroke-width: 1.5;" width="155" x="462" y="3"/><text fill="#000000" font-family="sans-serif" font-size="14" lengthAdjust="spacingAndGlyphs" textLength="141" x="469" y="22.9951">Spoofed IPs 10.*.0.1</text><rect fill="#E6E6E6" height="30.2969" style="stroke: #FFFFFF; stroke-width: 1.5;" width="155" x="462" y="748.6797"/><text fill="#000000" font-family="sans-serif" font-size="14" lengthAdjust="spacingAndGlyphs" textLength="141" x="469" y="768.6748">Spoofed IPs 10.*.0.1</text><rect fill="#E6E6E6" height="30.2969" style="stroke: #FFFFFF; stroke-width: 1.5;" width="62" x="627" y="3"/><text fill="#000000" font-family="sans-serif" font-size="14" lengthAdjust="spacingAndGlyphs" textLength="48" x="634" y="22.9951">8.8.8.8</text><rect fill="#E6E6E6" height="30.2969" style="stroke: #FFFFFF; stroke-width: 1.5;" width="62" x="627" y="748.6797"/><text fill="#000000" font-family="sans-serif" font-size="14" lengthAdjust="spacingAndGlyphs" textLength="48" x="634" y="768.6748">8.8.8.8</text><polygon fill="#000000" points="264.5,76.5625,274.5,80.5625,264.5,84.5625,268.5,80.5625" style="stroke: #000000; stroke-width: 1.0;"/><line style="stroke: #000000; stroke-width: 1.0;" x1="72.5" x2="270.5" y1="80.5625" y2="80.5625"/><text fill="#000000" font-family="sans-serif" font-size="13" lengthAdjust="spacingAndGlyphs" textLength="170" x="79.5" y="60.3638">164, GTP&lt;ICMP&gt; ping req.</text><text fill="#000000" font-family="sans-serif" font-size="13" lengthAdjust="spacingAndGlyphs" textLength="180" x="79.5" y="75.4966">+21.451s (16:1:23.602.934)</text><path d="M281,53.8633 L281,78.8633 L387,78.8633 L387,63.8633 L377,53.8633 L281,53.8633 " fill="#5C8001" style="stroke: #FFFFFF; stroke-width: 1.0;"/><path d="M377,53.8633 L377,63.8633 L387,63.8633 L377,53.8633 " fill="#5C8001" style="stroke: #FFFFFF; stroke-width: 1.0;"/><text fill="#000000" font-family="sans-serif" font-size="13" font-weight="bold" lengthAdjust="spacingAndGlyphs" textLength="85" x="287" y="70.9302">gNB to UPF</text><polygon fill="#000000" points="646,120.8281,656,124.8281,646,128.8281,650,124.8281" style="stroke: #000000; stroke-width: 1.0;"/><line style="stroke: #000000; stroke-width: 1.0;" x1="24.5" x2="652" y1="124.8281" y2="124.8281"/><text fill="#000000" font-family="sans-serif" font-size="13" lengthAdjust="spacingAndGlyphs" textLength="123" x="31.5" y="104.6294">165, ICMP ping req.</text><text fill="#000000" font-family="sans-serif" font-size="13" lengthAdjust="spacingAndGlyphs" textLength="180" x="31.5" y="119.7622">+21.452s (16:1:23.604.018)</text><path d="M663,98.1289 L663,123.1289 L779,123.1289 L779,108.1289 L769,98.1289 L663,98.1289 " fill="#5C8001" style="stroke: #FFFFFF; stroke-width: 1.0;"/><path d="M769,98.1289 L769,108.1289 L779,108.1289 L769,98.1289 " fill="#5C8001" style="stroke: #FFFFFF; stroke-width: 1.0;"/><text fill="#000000" font-family="sans-serif" font-size="13" font-weight="bold" lengthAdjust="spacingAndGlyphs" textLength="95" x="669" y="115.1958">UE to 8.8.8.8</text><polygon fill="#000000" points="646,165.0938,656,169.0938,646,173.0938,650,169.0938" style="stroke: #000000; stroke-width: 1.0;"/><line style="stroke: #000000; stroke-width: 1.0;" x1="276.5" x2="652" y1="169.0938" y2="169.0938"/><text fill="#000000" font-family="sans-serif" font-size="13" lengthAdjust="spacingAndGlyphs" textLength="123" x="283.5" y="148.895">166, ICMP ping req.</text><text fill="#000000" font-family="sans-serif" font-size="13" lengthAdjust="spacingAndGlyphs" textLength="180" x="283.5" y="164.0278">+21.452s (16:1:23.604.057)</text><path d="M663,142.3945 L663,167.3945 L789,167.3945 L789,152.3945 L779,142.3945 L663,142.3945 " fill="#5C8001" style="stroke: #FFFFFF; stroke-width: 1.0;"/><path d="M779,142.3945 L779,152.3945 L789,152.3945 L779,142.3945 " fill="#5C8001" style="stroke: #FFFFFF; stroke-width: 1.0;"/><text fill="#000000" font-family="sans-serif" font-size="13" font-weight="bold" lengthAdjust="spacingAndGlyphs" textLength="105" x="669" y="159.4614">UPF to 8.8.8.8</text><polygon fill="#000000" points="287.5,209.3594,277.5,213.3594,287.5,217.3594,283.5,213.3594" style="stroke: #000000; stroke-width: 1.0;"/><line style="stroke: #000000; stroke-width: 1.0;" x1="281.5" x2="657" y1="213.3594" y2="213.3594"/><text fill="#000000" font-family="sans-serif" font-size="13" lengthAdjust="spacingAndGlyphs" textLength="122" x="293.5" y="193.1606">167, ICMP ping rsp.</text><text fill="#000000" font-family="sans-serif" font-size="13" lengthAdjust="spacingAndGlyphs" textLength="180" x="293.5" y="208.2935">+21.476s (16:1:23.627.574)</text><path d="M663,186.6602 L663,211.6602 L789,211.6602 L789,196.6602 L779,186.6602 L663,186.6602 " fill="#EDFEC2" style="stroke: #FFFFFF; stroke-width: 1.0;"/><path d="M779,186.6602 L779,196.6602 L789,196.6602 L779,186.6602 " fill="#EDFEC2" style="stroke: #FFFFFF; stroke-width: 1.0;"/><text fill="#000000" font-family="sans-serif" font-size="13" font-weight="bold" lengthAdjust="spacingAndGlyphs" textLength="105" x="669" y="203.7271">8.8.8.8 to UPF</text><polygon fill="#000000" points="35.5,253.625,25.5,257.625,35.5,261.625,31.5,257.625" style="stroke: #000000; stroke-width: 1.0;"/><line style="stroke: #000000; stroke-width: 1.0;" x1="29.5" x2="657" y1="257.625" y2="257.625"/><text fill="#000000" font-family="sans-serif" font-size="13" lengthAdjust="spacingAndGlyphs" textLength="122" x="41.5" y="237.4263">168, ICMP ping rsp.</text><text fill="#000000" font-family="sans-serif" font-size="13" lengthAdjust="spacingAndGlyphs" textLength="180" x="41.5" y="252.5591">+21.476s (16:1:23.627.602)</text><path d="M663,230.9258 L663,255.9258 L779,255.9258 L779,240.9258 L769,230.9258 L663,230.9258 " fill="#EDFEC2" style="stroke: #FFFFFF; stroke-width: 1.0;"/><path d="M769,230.9258 L769,240.9258 L779,240.9258 L769,230.9258 " fill="#EDFEC2" style="stroke: #FFFFFF; stroke-width: 1.0;"/><text fill="#000000" font-family="sans-serif" font-size="13" font-weight="bold" lengthAdjust="spacingAndGlyphs" textLength="95" x="669" y="247.9927">8.8.8.8 to UE</text><polygon fill="#000000" points="83.5,297.8906,73.5,301.8906,83.5,305.8906,79.5,301.8906" style="stroke: #000000; stroke-width: 1.0;"/><line style="stroke: #000000; stroke-width: 1.0;" x1="77.5" x2="275.5" y1="301.8906" y2="301.8906"/><text fill="#000000" font-family="sans-serif" font-size="13" lengthAdjust="spacingAndGlyphs" textLength="169" x="89.5" y="281.6919">169, GTP&lt;ICMP&gt; ping rsp.</text><text fill="#000000" font-family="sans-serif" font-size="13" lengthAdjust="spacingAndGlyphs" textLength="180" x="89.5" y="296.8247">+21.476s (16:1:23.627.928)</text><path d="M281,275.1914 L281,300.1914 L387,300.1914 L387,285.1914 L377,275.1914 L281,275.1914 " fill="#EDFEC2" style="stroke: #FFFFFF; stroke-width: 1.0;"/><path d="M377,275.1914 L377,285.1914 L387,285.1914 L377,275.1914 " fill="#EDFEC2" style="stroke: #FFFFFF; stroke-width: 1.0;"/><text fill="#000000" font-family="sans-serif" font-size="13" font-weight="bold" lengthAdjust="spacingAndGlyphs" textLength="85" x="287" y="292.2583">UPF to gNB</text><polygon fill="#000000" points="287.5,357.2891,277.5,361.2891,287.5,365.2891,283.5,361.2891" style="stroke: #000000; stroke-width: 1.0;"/><line style="stroke: #000000; stroke-width: 1.0;" x1="281.5" x2="538.5" y1="361.2891" y2="361.2891"/><text fill="#000000" font-family="sans-serif" font-size="13" lengthAdjust="spacingAndGlyphs" textLength="93" x="293.5" y="325.9575">717, PFCP req.</text><text fill="#000000" font-family="sans-serif" font-size="13" lengthAdjust="spacingAndGlyphs" textLength="229" x="293.5" y="341.0903">PFCP Association Setup Request (5)</text><text fill="#000000" font-family="sans-serif" font-size="13" lengthAdjust="spacingAndGlyphs" textLength="180" x="293.5" y="356.2231">+78.542s (16:2:20.693.785)</text><path d="M544,327.0234 L544,352.0234 L771,352.0234 L771,337.0234 L761,327.0234 L544,327.0234 " fill="#FFC2D9" style="stroke: #FFFFFF; stroke-width: 1.0;"/><path d="M761,327.0234 L761,337.0234 L771,337.0234 L761,327.0234 " fill="#FFC2D9" style="stroke: #FFFFFF; stroke-width: 1.0;"/><text fill="#000000" font-family="sans-serif" font-size="13" font-weight="bold" lengthAdjust="spacingAndGlyphs" textLength="206" x="550" y="344.0903">Spoofed IPs 10.*.0.1 to UPF</text><polygon fill="#000000" points="527.5,416.6875,537.5,420.6875,527.5,424.6875,531.5,420.6875" style="stroke: #000000; stroke-width: 1.0;"/><line style="stroke: #000000; stroke-width: 1.0;" x1="276.5" x2="533.5" y1="420.6875" y2="420.6875"/><text fill="#000000" font-family="sans-serif" font-size="13" lengthAdjust="spacingAndGlyphs" textLength="92" x="283.5" y="385.356">718, PFCP rsp.</text><text fill="#000000" font-family="sans-serif" font-size="13" lengthAdjust="spacingAndGlyphs" textLength="239" x="283.5" y="400.4888">PFCP Association Setup Response (6)</text><text fill="#000000" font-family="sans-serif" font-size="13" lengthAdjust="spacingAndGlyphs" textLength="180" x="283.5" y="415.6216">+78.547s (16:2:20.698.402)</text><path d="M544,386.4219 L544,411.4219 L771,411.4219 L771,396.4219 L761,386.4219 L544,386.4219 " fill="#D7FEFC" style="stroke: #FFFFFF; stroke-width: 1.0;"/><path d="M761,386.4219 L761,396.4219 L771,396.4219 L761,386.4219 " fill="#D7FEFC" style="stroke: #FFFFFF; stroke-width: 1.0;"/><text fill="#000000" font-family="sans-serif" font-size="13" font-weight="bold" lengthAdjust="spacingAndGlyphs" textLength="206" x="550" y="403.4888">UPF to Spoofed IPs 10.*.0.1</text><polygon fill="#000000" points="287.5,476.0859,277.5,480.0859,287.5,484.0859,283.5,480.0859" style="stroke: #000000; stroke-width: 1.0;"/><line style="stroke: #000000; stroke-width: 1.0;" x1="281.5" x2="538.5" y1="480.0859" y2="480.0859"/><text fill="#000000" font-family="sans-serif" font-size="13" lengthAdjust="spacingAndGlyphs" textLength="93" x="293.5" y="444.7544">719, PFCP req.</text><text fill="#000000" font-family="sans-serif" font-size="13" lengthAdjust="spacingAndGlyphs" textLength="229" x="293.5" y="459.8872">PFCP Association Setup Request (5)</text><text fill="#000000" font-family="sans-serif" font-size="13" lengthAdjust="spacingAndGlyphs" textLength="180" x="293.5" y="475.02">+78.623s (16:2:20.774.568)</text><path d="M544,445.8203 L544,470.8203 L771,470.8203 L771,455.8203 L761,445.8203 L544,445.8203 " fill="#FFC2D9" style="stroke: #FFFFFF; stroke-width: 1.0;"/><path d="M761,445.8203 L761,455.8203 L771,455.8203 L761,445.8203 " fill="#FFC2D9" style="stroke: #FFFFFF; stroke-width: 1.0;"/><text fill="#000000" font-family="sans-serif" font-size="13" font-weight="bold" lengthAdjust="spacingAndGlyphs" textLength="206" x="550" y="462.8872">Spoofed IPs 10.*.0.1 to UPF</text><polygon fill="#000000" points="527.5,535.4844,537.5,539.4844,527.5,543.4844,531.5,539.4844" style="stroke: #000000; stroke-width: 1.0;"/><line style="stroke: #000000; stroke-width: 1.0;" x1="276.5" x2="533.5" y1="539.4844" y2="539.4844"/><text fill="#000000" font-family="sans-serif" font-size="13" lengthAdjust="spacingAndGlyphs" textLength="92" x="283.5" y="504.1528">720, PFCP rsp.</text><text fill="#000000" font-family="sans-serif" font-size="13" lengthAdjust="spacingAndGlyphs" textLength="239" x="283.5" y="519.2856">PFCP Association Setup Response (6)</text><text fill="#000000" font-family="sans-serif" font-size="13" lengthAdjust="spacingAndGlyphs" textLength="172" x="283.5" y="534.4185">+78.623s (16:2:20.774.86)</text><path d="M544,505.2188 L544,530.2188 L771,530.2188 L771,515.2188 L761,505.2188 L544,505.2188 " fill="#D7FEFC" style="stroke: #FFFFFF; stroke-width: 1.0;"/><path d="M761,505.2188 L761,515.2188 L771,515.2188 L761,505.2188 " fill="#D7FEFC" style="stroke: #FFFFFF; stroke-width: 1.0;"/><text fill="#000000" font-family="sans-serif" font-size="13" font-weight="bold" lengthAdjust="spacingAndGlyphs" textLength="206" x="550" y="522.2856">UPF to Spoofed IPs 10.*.0.1</text><polygon fill="#000000" points="287.5,594.8828,277.5,598.8828,287.5,602.8828,283.5,598.8828" style="stroke: #000000; stroke-width: 1.0;"/><line style="stroke: #000000; stroke-width: 1.0;" x1="281.5" x2="538.5" y1="598.8828" y2="598.8828"/><text fill="#000000" font-family="sans-serif" font-size="13" lengthAdjust="spacingAndGlyphs" textLength="93" x="293.5" y="563.5513">727, PFCP req.</text><text fill="#000000" font-family="sans-serif" font-size="13" lengthAdjust="spacingAndGlyphs" textLength="229" x="293.5" y="578.6841">PFCP Association Setup Request (5)</text><text fill="#000000" font-family="sans-serif" font-size="13" lengthAdjust="spacingAndGlyphs" textLength="172" x="293.5" y="593.8169">+78.907s (16:2:21.59.195)</text><path d="M544,564.6172 L544,589.6172 L771,589.6172 L771,574.6172 L761,564.6172 L544,564.6172 " fill="#FFC2D9" style="stroke: #FFFFFF; stroke-width: 1.0;"/><path d="M761,564.6172 L761,574.6172 L771,574.6172 L761,564.6172 " fill="#FFC2D9" style="stroke: #FFFFFF; stroke-width: 1.0;"/><text fill="#000000" font-family="sans-serif" font-size="13" font-weight="bold" lengthAdjust="spacingAndGlyphs" textLength="206" x="550" y="581.6841">Spoofed IPs 10.*.0.1 to UPF</text><polygon fill="#000000" points="264.5,639.1484,274.5,643.1484,264.5,647.1484,268.5,643.1484" style="stroke: #000000; stroke-width: 1.0;"/><line style="stroke: #000000; stroke-width: 1.0;" x1="72.5" x2="270.5" y1="643.1484" y2="643.1484"/><text fill="#000000" font-family="sans-serif" font-size="13" lengthAdjust="spacingAndGlyphs" textLength="178" x="79.5" y="622.9497">1296, GTP&lt;ICMP&gt; ping req.</text><text fill="#000000" font-family="sans-serif" font-size="13" lengthAdjust="spacingAndGlyphs" textLength="180" x="79.5" y="638.0825">+92.766s (16:2:34.918.138)</text><path d="M281,616.4492 L281,641.4492 L387,641.4492 L387,626.4492 L377,616.4492 L281,616.4492 " fill="#5C8001" style="stroke: #FFFFFF; stroke-width: 1.0;"/><path d="M377,616.4492 L377,626.4492 L387,626.4492 L377,616.4492 " fill="#5C8001" style="stroke: #FFFFFF; stroke-width: 1.0;"/><text fill="#000000" font-family="sans-serif" font-size="13" font-weight="bold" lengthAdjust="spacingAndGlyphs" textLength="85" x="287" y="633.5161">gNB to UPF</text><polygon fill="#000000" points="264.5,683.4141,274.5,687.4141,264.5,691.4141,268.5,687.4141" style="stroke: #000000; stroke-width: 1.0;"/><line style="stroke: #000000; stroke-width: 1.0;" x1="72.5" x2="270.5" y1="687.4141" y2="687.4141"/><text fill="#000000" font-family="sans-serif" font-size="13" lengthAdjust="spacingAndGlyphs" textLength="178" x="79.5" y="667.2153">1304, GTP&lt;ICMP&gt; ping req.</text><text fill="#000000" font-family="sans-serif" font-size="13" lengthAdjust="spacingAndGlyphs" textLength="180" x="79.5" y="682.3481">+93.786s (16:2:35.937.532)</text><path d="M281,660.7148 L281,685.7148 L387,685.7148 L387,670.7148 L377,660.7148 L281,660.7148 " fill="#5C8001" style="stroke: #FFFFFF; stroke-width: 1.0;"/><path d="M377,660.7148 L377,670.7148 L387,670.7148 L377,660.7148 " fill="#5C8001" style="stroke: #FFFFFF; stroke-width: 1.0;"/><text fill="#000000" font-family="sans-serif" font-size="13" font-weight="bold" lengthAdjust="spacingAndGlyphs" textLength="85" x="287" y="677.7817">gNB to UPF</text><polygon fill="#000000" points="264.5,727.6797,274.5,731.6797,264.5,735.6797,268.5,731.6797" style="stroke: #000000; stroke-width: 1.0;"/><line style="stroke: #000000; stroke-width: 1.0;" x1="72.5" x2="270.5" y1="731.6797" y2="731.6797"/><text fill="#000000" font-family="sans-serif" font-size="13" lengthAdjust="spacingAndGlyphs" textLength="178" x="79.5" y="711.481">1307, GTP&lt;ICMP&gt; ping req.</text><text fill="#000000" font-family="sans-serif" font-size="13" lengthAdjust="spacingAndGlyphs" textLength="180" x="79.5" y="726.6138">+94.810s (16:2:36.961.556)</text><path d="M281,704.9805 L281,729.9805 L387,729.9805 L387,714.9805 L377,704.9805 L281,704.9805 " fill="#5C8001" style="stroke: #FFFFFF; stroke-width: 1.0;"/><path d="M377,704.9805 L377,714.9805 L387,714.9805 L377,704.9805 " fill="#5C8001" style="stroke: #FFFFFF; stroke-width: 1.0;"/><text fill="#000000" font-family="sans-serif" font-size="13" font-weight="bold" lengthAdjust="spacingAndGlyphs" textLength="85" x="287" y="722.0474">gNB to UPF</text><!--MD5=[4ad58f13ed67bf1380ba6f674af10962]
@startuml
skinparam shadowing false
skinparam NoteBorderColor white
skinparam sequence {
    ArrowColor black
    LifeLineBorderColor black
    LifeLineBackgroundColor black
    ParticipantBorderColor white
    ParticipantBackgroundColor #e6e6e6
}
participant "UE"
participant "gNB"
participant "SMF"
participant "UPF"
participant "Spoofed IPs 10.*.0.1"


"gNB" -> "UPF": 164, GTP<ICMP> ping req.\n+21.451s (16:1:23.602.934)

note right #5C8001
**gNB to UPF**
end note

"UE" -> "8.8.8.8": 165, ICMP ping req.\n+21.452s (16:1:23.604.018)

note right #5C8001
**UE to 8.8.8.8**
end note

"UPF" -> "8.8.8.8": 166, ICMP ping req.\n+21.452s (16:1:23.604.057)

note right #5C8001
**UPF to 8.8.8.8**
end note

"8.8.8.8" -> "UPF": 167, ICMP ping rsp.\n+21.476s (16:1:23.627.574)

note right #EDFEC2
**8.8.8.8 to UPF**
end note

"8.8.8.8" -> "UE": 168, ICMP ping rsp.\n+21.476s (16:1:23.627.602)

note right #EDFEC2
**8.8.8.8 to UE**
end note

"UPF" -> "gNB": 169, GTP<ICMP> ping rsp.\n+21.476s (16:1:23.627.928)

note right #EDFEC2
**UPF to gNB**
end note
"Spoofed IPs 10.*.0.1" -> "UPF": 717, PFCP req.\nPFCP Association Setup Request (5)\n+78.542s (16:2:20.693.785)

note right #FFC2D9
**Spoofed IPs 10.*.0.1 to UPF**
end note

"UPF" -> "Spoofed IPs 10.*.0.1": 718, PFCP rsp.\nPFCP Association Setup Response (6)\n+78.547s (16:2:20.698.402)

note right #D7FEFC
**UPF to Spoofed IPs 10.*.0.1**
end note

"Spoofed IPs 10.*.0.1" -> "UPF": 719, PFCP req.\nPFCP Association Setup Request (5)\n+78.623s (16:2:20.774.568)

note right #FFC2D9
**Spoofed IPs 10.*.0.1 to UPF**
end note

"UPF" -> "Spoofed IPs 10.*.0.1": 720, PFCP rsp.\nPFCP Association Setup Response (6)\n+78.623s (16:2:20.774.86)

note right #D7FEFC
**UPF to Spoofed IPs 10.*.0.1**
end note

"Spoofed IPs 10.*.0.1" -> "UPF": 727, PFCP req.\nPFCP Association Setup Request (5)\n+78.907s (16:2:21.59.195)

note right #FFC2D9
**Spoofed IPs 10.*.0.1 to UPF**
end note

"gNB" -> "UPF": 1296, GTP<ICMP> ping req.\n+92.766s (16:2:34.918.138)

note right #5C8001
**gNB to UPF**
end note

"gNB" -> "UPF": 1304, GTP<ICMP> ping req.\n+93.786s (16:2:35.937.532)

note right #5C8001
**gNB to UPF**
end note

"gNB" -> "UPF": 1307, GTP<ICMP> ping req.\n+94.810s (16:2:36.961.556)

note right #5C8001
**gNB to UPF**
end note

@enduml

PlantUML version 1.2019.12(Sun Nov 03 11:24:54 CET 2019)
(APACHE source distribution)
Java Runtime: OpenJDK Runtime Environment
JVM: OpenJDK 64-Bit Server VM
Java Version: 11.0.17+8-post-Ubuntu-1ubuntu220.04
Operating System: Linux
Default Encoding: UTF-8
Language: en
Country: US
--></g></svg>