<?xml version="1.0" encoding="UTF-8" standalone="no"?><svg xmlns="http://www.w3.org/2000/svg" xmlns:xlink="http://www.w3.org/1999/xlink" contentScriptType="application/ecmascript" contentStyleType="text/css" height="1086px" preserveAspectRatio="none" style="width:801px;height:1086px;" version="1.1" viewBox="0 0 801 1086" width="801px" zoomAndPan="magnify"><defs/><g><line style="stroke: #000000; stroke-width: 1.0; stroke-dasharray: 5.0,5.0;" x1="24" x2="24" y1="34.2969" y2="1046.6719"/><line style="stroke: #000000; stroke-width: 1.0; stroke-dasharray: 5.0,5.0;" x1="72" x2="72" y1="34.2969" y2="1046.6719"/><line style="stroke: #000000; stroke-width: 1.0; stroke-dasharray: 5.0,5.0;" x1="125" x2="125" y1="34.2969" y2="1046.6719"/><line style="stroke: #000000; stroke-width: 1.0; stroke-dasharray: 5.0,5.0;" x1="276" x2="276" y1="34.2969" y2="1046.6719"/><line style="stroke: #000000; stroke-width: 1.0; stroke-dasharray: 5.0,5.0;" x1="539" x2="539" y1="34.2969" y2="1046.6719"/><line style="stroke: #000000; stroke-width: 1.0; stroke-dasharray: 5.0,5.0;" x1="658" x2="658" y1="34.2969" y2="1046.6719"/><rect fill="#E6E6E6" height="30.2969" style="stroke: #FFFFFF; stroke-width: 1.5;" width="33" x="8" y="3"/><text fill="#000000" font-family="sans-serif" font-size="14" lengthAdjust="spacingAndGlyphs" textLength="19" x="15" y="22.9951">UE</text><rect fill="#E6E6E6" height="30.2969" style="stroke: #FFFFFF; stroke-width: 1.5;" width="33" x="8" y="1045.6719"/><text fill="#000000" font-family="sans-serif" font-size="14" lengthAdjust="spacingAndGlyphs" textLength="19" x="15" y="1065.667">UE</text><rect fill="#E6E6E6" height="30.2969" style="stroke: #FFFFFF; stroke-width: 1.5;" width="43" x="51" y="3"/><text fill="#000000" font-family="sans-serif" font-size="14" lengthAdjust="spacingAndGlyphs" textLength="29" x="58" y="22.9951">gNB</text><rect fill="#E6E6E6" height="30.2969" style="stroke: #FFFFFF; stroke-width: 1.5;" width="43" x="51" y="1045.6719"/><text fill="#000000" font-family="sans-serif" font-size="14" lengthAdjust="spacingAndGlyphs" textLength="29" x="58" y="1065.667">gNB</text><rect fill="#E6E6E6" height="30.2969" style="stroke: #FFFFFF; stroke-width: 1.5;" width="43" x="104" y="3"/><text fill="#000000" font-family="sans-serif" font-size="14" lengthAdjust="spacingAndGlyphs" textLength="29" x="111" y="22.9951">SMF</text><rect fill="#E6E6E6" height="30.2969" style="stroke: #FFFFFF; stroke-width: 1.5;" width="43" x="104" y="1045.6719"/><text fill="#000000" font-family="sans-serif" font-size="14" lengthAdjust="spacingAndGlyphs" textLength="29" x="111" y="1065.667">SMF</text><rect fill="#E6E6E6" height="30.2969" style="stroke: #FFFFFF; stroke-width: 1.5;" width="41" x="256" y="3"/><text fill="#000000" font-family="sans-serif" font-size="14" lengthAdjust="spacingAndGlyphs" textLength="27" x="263" y="22.9951">UPF</text><rect fill="#E6E6E6" height="30.2969" style="stroke: #FFFFFF; stroke-width: 1.5;" width="41" x="256" y="1045.6719"/><text fill="#000000" font-family="sans-serif" font-size="14" lengthAdjust="spacingAndGlyphs" textLength="27" x="263" y="1065.667">UPF</text><rect fill="#E6E6E6" height="30.2969" style="stroke: #FFFFFF; stroke-width: 1.5;" width="155" x="462" y="3"/><text fill="#000000" font-family="sans-serif" font-size="14" lengthAdjust="spacingAndGlyphs" textLength="141" x="469" y="22.9951">Spoofed IPs 10.*.0.1</text><rect fill="#E6E6E6" height="30.2969" style="stroke: #FFFFFF; stroke-width: 1.5;" width="155" x="462" y="1045.6719"/><text fill="#000000" font-family="sans-serif" font-size="14" lengthAdjust="spacingAndGlyphs" textLength="141" x="469" y="1065.667">Spoofed IPs 10.*.0.1</text><rect fill="#E6E6E6" height="30.2969" style="stroke: #FFFFFF; stroke-width: 1.5;" width="62" x="627" y="3"/><text fill="#000000" font-family="sans-serif" font-size="14" lengthAdjust="spacingAndGlyphs" textLength="48" x="634" y="22.9951">8.8.8.8</text><rect fill="#E6E6E6" height="30.2969" style="stroke: #FFFFFF; stroke-width: 1.5;" width="62" x="627" y="1045.6719"/><text fill="#000000" font-family="sans-serif" font-size="14" lengthAdjust="spacingAndGlyphs" textLength="48" x="634" y="1065.667">8.8.8.8</text><polygon fill="#000000" points="264.5,76.5625,274.5,80.5625,264.5,84.5625,268.5,80.5625" style="stroke: #000000; stroke-width: 1.0;"/><line style="stroke: #000000; stroke-width: 1.0;" x1="72.5" x2="270.5" y1="80.5625" y2="80.5625"/><text fill="#000000" font-family="sans-serif" font-size="13" lengthAdjust="spacingAndGlyphs" textLength="170" x="79.5" y="60.3638">164, GTP&lt;ICMP&gt; ping req.</text><text fill="#000000" font-family="sans-serif" font-size="13" lengthAdjust="spacingAndGlyphs" textLength="180" x="79.5" y="75.4966">+21.451s (16:1:23.602.934)</text><path d="M281,53.8633 L281,78.8633 L387,78.8633 L387,63.8633 L377,53.8633 L281,53.8633 " fill="#5C8001" style="stroke: #FFFFFF; stroke-width: 1.0;"/><path d="M377,53.8633 L377,63.8633 L387,63.8633 L377,53.8633 " fill="#5C8001" style="stroke: #FFFFFF; stroke-width: 1.0;"/><text fill="#000000" font-family="sans-serif" font-size="13" font-weight="bold" lengthAdjust="spacingAndGlyphs" textLength="85" x="287" y="70.9302">gNB to UPF</text><polygon fill="#000000" points="646,120.8281,656,124.8281,646,128.8281,650,124.8281" style="stroke: #000000; stroke-width: 1.0;"/><line style="stroke: #000000; stroke-width: 1.0;" x1="24.5" x2="652" y1="124.8281" y2="124.8281"/><text fill="#000000" font-family="sans-serif" font-size="13" lengthAdjust="spacingAndGlyphs" textLength="123" x="31.5" y="104.6294">165, ICMP ping req.</text><text fill="#000000" font-family="sans-serif" font-size="13" lengthAdjust="spacingAndGlyphs" textLength="180" x="31.5" y="119.7622">+21.452s (16:1:23.604.018)</text><path d="M663,98.1289 L663,123.1289 L779,123.1289 L779,108.1289 L769,98.1289 L663,98.1289 " fill="#5C8001" style="stroke: #FFFFFF; stroke-width: 1.0;"/><path d="M769,98.1289 L769,108.1289 L779,108.1289 L769,98.1289 " fill="#5C8001" style="stroke: #FFFFFF; stroke-width: 1.0;"/><text fill="#000000" font-family="sans-serif" font-size="13" font-weight="bold" lengthAdjust="spacingAndGlyphs" textLength="95" x="669" y="115.1958">UE to 8.8.8.8</text><polygon fill="#000000" points="646,165.0938,656,169.0938,646,173.0938,650,169.0938" style="stroke: #000000; stroke-width: 1.0;"/><line style="stroke: #000000; stroke-width: 1.0;" x1="276.5" x2="652" y1="169.0938" y2="169.0938"/><text fill="#000000" font-family="sans-serif" font-size="13" lengthAdjust="spacingAndGlyphs" textLength="123" x="283.5" y="148.895">166, ICMP ping req.</text><text fill="#000000" font-family="sans-serif" font-size="13" lengthAdjust="spacingAndGlyphs" textLength="180" x="283.5" y="164.0278">+21.452s (16:1:23.604.057)</text><path d="M663,142.3945 L663,167.3945 L789,167.3945 L789,152.3945 L779,142.3945 L663,142.3945 " fill="#5C8001" style="stroke: #FFFFFF; stroke-width: 1.0;"/><path d="M779,142.3945 L779,152.3945 L789,152.3945 L779,142.3945 " fill="#5C8001" style="stroke: #FFFFFF; stroke-width: 1.0;"/><text fill="#000000" font-family="sans-serif" font-size="13" font-weight="bold" lengthAdjust="spacingAndGlyphs" textLength="105" x="669" y="159.4614">UPF to 8.8.8.8</text><polygon fill="#000000" points="287.5,209.3594,277.5,213.3594,287.5,217.3594,283.5,213.3594" style="stroke: #000000; stroke-width: 1.0;"/><line style="stroke: #000000; stroke-width: 1.0;" x1="281.5" x2="657" y1="213.3594" y2="213.3594"/><text fill="#000000" font-family="sans-serif" font-size="13" lengthAdjust="spacingAndGlyphs" textLength="122" x="293.5" y="193.1606">167, ICMP ping rsp.</text><text fill="#000000" font-family="sans-serif" font-size="13" lengthAdjust="spacingAndGlyphs" textLength="180" x="293.5" y="208.2935">+21.476s (16:1:23.627.574)</text><path d="M663,186.6602 L663,211.6602 L789,211.6602 L789,196.6602 L779,186.6602 L663,186.6602 " fill="#EDFEC2" style="stroke: #FFFFFF; stroke-width: 1.0;"/><path d="M779,186.6602 L779,196.6602 L789,196.6602 L779,186.6602 " fill="#EDFEC2" style="stroke: #FFFFFF; stroke-width: 1.0;"/><text fill="#000000" font-family="sans-serif" font-size="13" font-weight="bold" lengthAdjust="spacingAndGlyphs" textLength="105" x="669" y="203.7271">8.8.8.8 to UPF</text><polygon fill="#000000" points="35.5,253.625,25.5,257.625,35.5,261.625,31.5,257.625" style="stroke: #000000; stroke-width: 1.0;"/><line style="stroke: #000000; stroke-width: 1.0;" x1="29.5" x2="657" y1="257.625" y2="257.625"/><text fill="#000000" font-family="sans-serif" font-size="13" lengthAdjust="spacingAndGlyphs" textLength="122" x="41.5" y="237.4263">168, ICMP ping rsp.</text><text fill="#000000" font-family="sans-serif" font-size="13" lengthAdjust="spacingAndGlyphs" textLength="180" x="41.5" y="252.5591">+21.476s (16:1:23.627.602)</text><path d="M663,230.9258 L663,255.9258 L779,255.9258 L779,240.9258 L769,230.9258 L663,230.9258 " fill="#EDFEC2" style="stroke: #FFFFFF; stroke-width: 1.0;"/><path d="M769,230.9258 L769,240.9258 L779,240.9258 L769,230.9258 " fill="#EDFEC2" style="stroke: #FFFFFF; stroke-width: 1.0;"/><text fill="#000000" font-family="sans-serif" font-size="13" font-weight="bold" lengthAdjust="spacingAndGlyphs" textLength="95" x="669" y="247.9927">8.8.8.8 to UE</text><polygon fill="#000000" points="83.5,297.8906,73.5,301.8906,83.5,305.8906,79.5,301.8906" style="stroke: #000000; stroke-width: 1.0;"/><line style="stroke: #000000; stroke-width: 1.0;" x1="77.5" x2="275.5" y1="301.8906" y2="301.8906"/><text fill="#000000" font-family="sans-serif" font-size="13" lengthAdjust="spacingAndGlyphs" textLength="169" x="89.5" y="281.6919">169, GTP&lt;ICMP&gt; ping rsp.</text><text fill="#000000" font-family="sans-serif" font-size="13" lengthAdjust="spacingAndGlyphs" textLength="180" x="89.5" y="296.8247">+21.476s (16:1:23.627.928)</text><path d="M281,275.1914 L281,300.1914 L387,300.1914 L387,285.1914 L377,275.1914 L281,275.1914 " fill="#EDFEC2" style="stroke: #FFFFFF; stroke-width: 1.0;"/><path d="M377,275.1914 L377,285.1914 L387,285.1914 L377,275.1914 " fill="#EDFEC2" style="stroke: #FFFFFF; stroke-width: 1.0;"/><text fill="#000000" font-family="sans-serif" font-size="13" font-weight="bold" lengthAdjust="spacingAndGlyphs" textLength="85" x="287" y="292.2583">UPF to gNB</text><polygon fill="#000000" points="287.5,357.2891,277.5,361.2891,287.5,365.2891,283.5,361.2891" style="stroke: #000000; stroke-width: 1.0;"/><line style="stroke: #000000; stroke-width: 1.0;" x1="281.5" x2="538.5" y1="361.2891" y2="361.2891"/><text fill="#000000" font-family="sans-serif" font-size="13" lengthAdjust="spacingAndGlyphs" textLength="93" x="293.5" y="325.9575">717, PFCP req.</text><text fill="#000000" font-family="sans-serif" font-size="13" lengthAdjust="spacingAndGlyphs" textLength="229" x="293.5" y="341.0903">PFCP Association Setup Request (5)</text><text fill="#000000" font-family="sans-serif" font-size="13" lengthAdjust="spacingAndGlyphs" textLength="180" x="293.5" y="356.2231">+78.542s (16:2:20.693.785)</text><path d="M544,327.0234 L544,352.0234 L771,352.0234 L771,337.0234 L761,327.0234 L544,327.0234 " fill="#FFC2D9" style="stroke: #FFFFFF; stroke-width: 1.0;"/><path d="M761,327.0234 L761,337.0234 L771,337.0234 L761,327.0234 " fill="#FFC2D9" style="stroke: #FFFFFF; stroke-width: 1.0;"/><text fill="#000000" font-family="sans-serif" font-size="13" font-weight="bold" lengthAdjust="spacingAndGlyphs" textLength="206" x="550" y="344.0903">Spoofed IPs 10.*.0.1 to UPF</text><polygon fill="#000000" points="527.5,416.6875,537.5,420.6875,527.5,424.6875,531.5,420.6875" style="stroke: #000000; stroke-width: 1.0;"/><line style="stroke: #000000; stroke-width: 1.0;" x1="276.5" x2="533.5" y1="420.6875" y2="420.6875"/><text fill="#000000" font-family="sans-serif" font-size="13" lengthAdjust="spacingAndGlyphs" textLength="92" x="283.5" y="385.356">718, PFCP rsp.</text><text fill="#000000" font-family="sans-serif" font-size="13" lengthAdjust="spacingAndGlyphs" textLength="239" x="283.5" y="400.4888">PFCP Association Setup Response (6)</text><text fill="#000000" font-family="sans-serif" font-size="13" lengthAdjust="spacingAndGlyphs" textLength="180" x="283.5" y="415.6216">+78.547s (16:2:20.698.402)</text><path d="M544,386.4219 L544,411.4219 L771,411.4219 L771,396.4219 L761,386.4219 L544,386.4219 " fill="#D7FEFC" style="stroke: #FFFFFF; stroke-width: 1.0;"/><path d="M761,386.4219 L761,396.4219 L771,396.4219 L761,386.4219 " fill="#D7FEFC" style="stroke: #FFFFFF; stroke-width: 1.0;"/><text fill="#000000" font-family="sans-serif" font-size="13" font-weight="bold" lengthAdjust="spacingAndGlyphs" textLength="206" x="550" y="403.4888">UPF to Spoofed IPs 10.*.0.1</text><polygon fill="#000000" points="287.5,476.0859,277.5,480.0859,287.5,484.0859,283.5,480.0859" style="stroke: #000000; stroke-width: 1.0;"/><line style="stroke: #000000; stroke-width: 1.0;" x1="281.5" x2="538.5" y1="480.0859" y2="480.0859"/><text fill="#000000" font-family="sans-serif" font-size="13" lengthAdjust="spacingAndGlyphs" textLength="93" x="293.5" y="444.7544">719, PFCP req.</text><text fill="#000000" font-family="sans-serif" font-size="13" lengthAdjust="spacingAndGlyphs" textLength="229" x="293.5" y="459.8872">PFCP Association Setup Request (5)</text><text fill="#000000" font-family="sans-serif" font-size="13" lengthAdjust="spacingAndGlyphs" textLength="180" x="293.5" y="475.02">+78.623s (16:2:20.774.568)</text><path d="M544,445.8203 L544,470.8203 L771,470.8203 L771,455.8203 L761,445.8203 L544,445.8203 " fill="#FFC2D9" style="stroke: #FFFFFF; stroke-width: 1.0;"/><path d="M761,445.8203 L761,455.8203 L771,455.8203 L761,445.8203 " fill="#FFC2D9" style="stroke: #FFFFFF; stroke-width: 1.0;"/><text fill="#000000" font-family="sans-serif" font-size="13" font-weight="bold" lengthAdjust="spacingAndGlyphs" textLength="206" x="550" y="462.8872">Spoofed IPs 10.*.0.1 to UPF</text><polygon fill="#000000" points="527.5,535.4844,537.5,539.4844,527.5,543.4844,531.5,539.4844" style="stroke: #000000; stroke-width: 1.0;"/><line style="stroke: #000000; stroke-width: 1.0;" x1="276.5" x2="533.5" y1="539.4844" y2="539.4844"/><text fill="#000000" font-family="sans-serif" font-size="13" lengthAdjust="spacingAndGlyphs" textLength="92" x="283.5" y="504.1528">720, PFCP rsp.</text><text fill="#000000" font-family="sans-serif" font-size="13" lengthAdjust="spacingAndGlyphs" textLength="239" x="283.5" y="519.2856">PFCP Association Setup Response (6)</text><text fill="#000000" font-family="sans-serif" font-size="13" lengthAdjust="spacingAndGlyphs" textLength="172" x="283.5" y="534.4185">+78.623s (16:2:20.774.86)</text><path d="M544,505.2188 L544,530.2188 L771,530.2188 L771,515.2188 L761,505.2188 L544,505.2188 " fill="#D7FEFC" style="stroke: #FFFFFF; stroke-width: 1.0;"/><path d="M761,505.2188 L761,515.2188 L771,515.2188 L761,505.2188 " fill="#D7FEFC" style="stroke: #FFFFFF; stroke-width: 1.0;"/><text fill="#000000" font-family="sans-serif" font-size="13" font-weight="bold" lengthAdjust="spacingAndGlyphs" textLength="206" x="550" y="522.2856">UPF to Spoofed IPs 10.*.0.1</text><polygon fill="#000000" points="287.5,594.8828,277.5,598.8828,287.5,602.8828,283.5,598.8828" style="stroke: #000000; stroke-width: 1.0;"/><line style="stroke: #000000; stroke-width: 1.0;" x1="281.5" x2="538.5" y1="598.8828" y2="598.8828"/><text fill="#000000" font-family="sans-serif" font-size="13" lengthAdjust="spacingAndGlyphs" textLength="93" x="293.5" y="563.5513">727, PFCP req.</text><text fill="#000000" font-family="sans-serif" font-size="13" lengthAdjust="spacingAndGlyphs" textLength="229" x="293.5" y="578.6841">PFCP Association Setup Request (5)</text><text fill="#000000" font-family="sans-serif" font-size="13" lengthAdjust="spacingAndGlyphs" textLength="172" x="293.5" y="593.8169">+78.907s (16:2:21.59.195)</text><path d="M544,564.6172 L544,589.6172 L771,589.6172 L771,574.6172 L761,564.6172 L544,564.6172 " fill="#FFC2D9" style="stroke: #FFFFFF; stroke-width: 1.0;"/><path d="M761,564.6172 L761,574.6172 L771,574.6172 L761,564.6172 " fill="#FFC2D9" style="stroke: #FFFFFF; stroke-width: 1.0;"/><text fill="#000000" font-family="sans-serif" font-size="13" font-weight="bold" lengthAdjust="spacingAndGlyphs" textLength="206" x="550" y="581.6841">Spoofed IPs 10.*.0.1 to UPF</text><polygon fill="#000000" points="527.5,654.2813,537.5,658.2813,527.5,662.2813,531.5,658.2813" style="stroke: #000000; stroke-width: 1.0;"/><line style="stroke: #000000; stroke-width: 1.0;" x1="276.5" x2="533.5" y1="658.2813" y2="658.2813"/><text fill="#000000" font-family="sans-serif" font-size="13" lengthAdjust="spacingAndGlyphs" textLength="92" x="283.5" y="622.9497">728, PFCP rsp.</text><text fill="#000000" font-family="sans-serif" font-size="13" lengthAdjust="spacingAndGlyphs" textLength="239" x="283.5" y="638.0825">PFCP Association Setup Response (6)</text><text fill="#000000" font-family="sans-serif" font-size="13" lengthAdjust="spacingAndGlyphs" textLength="164" x="283.5" y="653.2153">+78.908s (16:2:21.60.08)</text><path d="M544,624.0156 L544,649.0156 L771,649.0156 L771,634.0156 L761,624.0156 L544,624.0156 " fill="#D7FEFC" style="stroke: #FFFFFF; stroke-width: 1.0;"/><path d="M761,624.0156 L761,634.0156 L771,634.0156 L761,624.0156 " fill="#D7FEFC" style="stroke: #FFFFFF; stroke-width: 1.0;"/><text fill="#000000" font-family="sans-serif" font-size="13" font-weight="bold" lengthAdjust="spacingAndGlyphs" textLength="206" x="550" y="641.0825">UPF to Spoofed IPs 10.*.0.1</text><polygon fill="#000000" points="287.5,713.6797,277.5,717.6797,287.5,721.6797,283.5,717.6797" style="stroke: #000000; stroke-width: 1.0;"/><line style="stroke: #000000; stroke-width: 1.0;" x1="281.5" x2="538.5" y1="717.6797" y2="717.6797"/><text fill="#000000" font-family="sans-serif" font-size="13" lengthAdjust="spacingAndGlyphs" textLength="93" x="293.5" y="682.3481">729, PFCP req.</text><text fill="#000000" font-family="sans-serif" font-size="13" lengthAdjust="spacingAndGlyphs" textLength="229" x="293.5" y="697.481">PFCP Association Setup Request (5)</text><text fill="#000000" font-family="sans-serif" font-size="13" lengthAdjust="spacingAndGlyphs" textLength="180" x="293.5" y="712.6138">+78.972s (16:2:21.123.554)</text><path d="M544,683.4141 L544,708.4141 L771,708.4141 L771,693.4141 L761,683.4141 L544,683.4141 " fill="#FFC2D9" style="stroke: #FFFFFF; stroke-width: 1.0;"/><path d="M761,683.4141 L761,693.4141 L771,693.4141 L761,683.4141 " fill="#FFC2D9" style="stroke: #FFFFFF; stroke-width: 1.0;"/><text fill="#000000" font-family="sans-serif" font-size="13" font-weight="bold" lengthAdjust="spacingAndGlyphs" textLength="206" x="550" y="700.481">Spoofed IPs 10.*.0.1 to UPF</text><polygon fill="#000000" points="527.5,773.0781,537.5,777.0781,527.5,781.0781,531.5,777.0781" style="stroke: #000000; stroke-width: 1.0;"/><line style="stroke: #000000; stroke-width: 1.0;" x1="276.5" x2="533.5" y1="777.0781" y2="777.0781"/><text fill="#000000" font-family="sans-serif" font-size="13" lengthAdjust="spacingAndGlyphs" textLength="92" x="283.5" y="741.7466">730, PFCP rsp.</text><text fill="#000000" font-family="sans-serif" font-size="13" lengthAdjust="spacingAndGlyphs" textLength="239" x="283.5" y="756.8794">PFCP Association Setup Response (6)</text><text fill="#000000" font-family="sans-serif" font-size="13" lengthAdjust="spacingAndGlyphs" textLength="180" x="283.5" y="772.0122">+78.972s (16:2:21.123.949)</text><path d="M544,742.8125 L544,767.8125 L771,767.8125 L771,752.8125 L761,742.8125 L544,742.8125 " fill="#D7FEFC" style="stroke: #FFFFFF; stroke-width: 1.0;"/><path d="M761,742.8125 L761,752.8125 L771,752.8125 L761,742.8125 " fill="#D7FEFC" style="stroke: #FFFFFF; stroke-width: 1.0;"/><text fill="#000000" font-family="sans-serif" font-size="13" font-weight="bold" lengthAdjust="spacingAndGlyphs" textLength="206" x="550" y="759.8794">UPF to Spoofed IPs 10.*.0.1</text><polygon fill="#000000" points="287.5,832.4766,277.5,836.4766,287.5,840.4766,283.5,836.4766" style="stroke: #000000; stroke-width: 1.0;"/><line style="stroke: #000000; stroke-width: 1.0;" x1="281.5" x2="538.5" y1="836.4766" y2="836.4766"/><text fill="#000000" font-family="sans-serif" font-size="13" lengthAdjust="spacingAndGlyphs" textLength="93" x="293.5" y="801.145">731, PFCP req.</text><text fill="#000000" font-family="sans-serif" font-size="13" lengthAdjust="spacingAndGlyphs" textLength="229" x="293.5" y="816.2778">PFCP Association Setup Request (5)</text><text fill="#000000" font-family="sans-serif" font-size="13" lengthAdjust="spacingAndGlyphs" textLength="180" x="293.5" y="831.4106">+79.014s (16:2:21.165.474)</text><path d="M544,802.2109 L544,827.2109 L771,827.2109 L771,812.2109 L761,802.2109 L544,802.2109 " fill="#FFC2D9" style="stroke: #FFFFFF; stroke-width: 1.0;"/><path d="M761,802.2109 L761,812.2109 L771,812.2109 L761,802.2109 " fill="#FFC2D9" style="stroke: #FFFFFF; stroke-width: 1.0;"/><text fill="#000000" font-family="sans-serif" font-size="13" font-weight="bold" lengthAdjust="spacingAndGlyphs" textLength="206" x="550" y="819.2778">Spoofed IPs 10.*.0.1 to UPF</text><polygon fill="#000000" points="527.5,891.875,537.5,895.875,527.5,899.875,531.5,895.875" style="stroke: #000000; stroke-width: 1.0;"/><line style="stroke: #000000; stroke-width: 1.0;" x1="276.5" x2="533.5" y1="895.875" y2="895.875"/><text fill="#000000" font-family="sans-serif" font-size="13" lengthAdjust="spacingAndGlyphs" textLength="92" x="283.5" y="860.5435">732, PFCP rsp.</text><text fill="#000000" font-family="sans-serif" font-size="13" lengthAdjust="spacingAndGlyphs" textLength="239" x="283.5" y="875.6763">PFCP Association Setup Response (6)</text><text fill="#000000" font-family="sans-serif" font-size="13" lengthAdjust="spacingAndGlyphs" textLength="180" x="283.5" y="890.8091">+79.014s (16:2:21.165.802)</text><path d="M544,861.6094 L544,886.6094 L771,886.6094 L771,871.6094 L761,861.6094 L544,861.6094 " fill="#D7FEFC" style="stroke: #FFFFFF; stroke-width: 1.0;"/><path d="M761,861.6094 L761,871.6094 L771,871.6094 L761,861.6094 " fill="#D7FEFC" style="stroke: #FFFFFF; stroke-width: 1.0;"/><text fill="#000000" font-family="sans-serif" font-size="13" font-weight="bold" lengthAdjust="spacingAndGlyphs" textLength="206" x="550" y="878.6763">UPF to Spoofed IPs 10.*.0.1</text><polygon fill="#000000" points="264.5,936.1406,274.5,940.1406,264.5,944.1406,268.5,940.1406" style="stroke: #000000; stroke-width: 1.0;"/><line style="stroke: #000000; stroke-width: 1.0;" x1="72.5" x2="270.5" y1="940.1406" y2="940.1406"/><text fill="#000000" font-family="sans-serif" font-size="13" lengthAdjust="spacingAndGlyphs" textLength="178" x="79.5" y="919.9419">1296, GTP&lt;ICMP&gt; ping req.</text><text fill="#000000" font-family="sans-serif" font-size="13" lengthAdjust="spacingAndGlyphs" textLength="180" x="79.5" y="935.0747">+92.766s (16:2:34.918.138)</text><path d="M281,913.4414 L281,938.4414 L387,938.4414 L387,923.4414 L377,913.4414 L281,913.4414 " fill="#5C8001" style="stroke: #FFFFFF; stroke-width: 1.0;"/><path d="M377,913.4414 L377,923.4414 L387,923.4414 L377,913.4414 " fill="#5C8001" style="stroke: #FFFFFF; stroke-width: 1.0;"/><text fill="#000000" font-family="sans-serif" font-size="13" font-weight="bold" lengthAdjust="spacingAndGlyphs" textLength="85" x="287" y="930.5083">gNB to UPF</text><polygon fill="#000000" points="264.5,980.4063,274.5,984.4063,264.5,988.4063,268.5,984.4063" style="stroke: #000000; stroke-width: 1.0;"/><line style="stroke: #000000; stroke-width: 1.0;" x1="72.5" x2="270.5" y1="984.4063" y2="984.4063"/><text fill="#000000" font-family="sans-serif" font-size="13" lengthAdjust="spacingAndGlyphs" textLength="178" x="79.5" y="964.2075">1304, GTP&lt;ICMP&gt; ping req.</text><text fill="#000000" font-family="sans-serif" font-size="13" lengthAdjust="spacingAndGlyphs" textLength="180" x="79.5" y="979.3403">+93.786s (16:2:35.937.532)</text><path d="M281,957.707 L281,982.707 L387,982.707 L387,967.707 L377,957.707 L281,957.707 " fill="#5C8001" style="stroke: #FFFFFF; stroke-width: 1.0;"/><path d="M377,957.707 L377,967.707 L387,967.707 L377,957.707 " fill="#5C8001" style="stroke: #FFFFFF; stroke-width: 1.0;"/><text fill="#000000" font-family="sans-serif" font-size="13" font-weight="bold" lengthAdjust="spacingAndGlyphs" textLength="85" x="287" y="974.7739">gNB to UPF</text><polygon fill="#000000" points="264.5,1024.6719,274.5,1028.6719,264.5,1032.6719,268.5,1028.6719" style="stroke: #000000; stroke-width: 1.0;"/><line style="stroke: #000000; stroke-width: 1.0;" x1="72.5" x2="270.5" y1="1028.6719" y2="1028.6719"/><text fill="#000000" font-family="sans-serif" font-size="13" lengthAdjust="spacingAndGlyphs" textLength="178" x="79.5" y="1008.4731">1307, GTP&lt;ICMP&gt; ping req.</text><text fill="#000000" font-family="sans-serif" font-size="13" lengthAdjust="spacingAndGlyphs" textLength="180" x="79.5" y="1023.606">+94.810s (16:2:36.961.556)</text><path d="M281,1001.9727 L281,1026.9727 L387,1026.9727 L387,1011.9727 L377,1001.9727 L281,1001.9727 " fill="#5C8001" style="stroke: #FFFFFF; stroke-width: 1.0;"/><path d="M377,1001.9727 L377,1011.9727 L387,1011.9727 L377,1001.9727 " fill="#5C8001" style="stroke: #FFFFFF; stroke-width: 1.0;"/><text fill="#000000" font-family="sans-serif" font-size="13" font-weight="bold" lengthAdjust="spacingAndGlyphs" textLength="85" x="287" y="1019.0396">gNB to UPF</text><!--MD5=[f16b92546a10347b34c79e3a406cc813]
@startuml
skinparam shadowing false
skinparam NoteBorderColor white
skinparam sequence {
    ArrowColor black
    LifeLineBorderColor black
    LifeLineBackgroundColor black
    ParticipantBorderColor white
    ParticipantBackgroundColor #e6e6e6
}
participant "UE"
participant "gNB"
participant "SMF"
participant "UPF"
participant "Spoofed IPs 10.*.0.1"


"gNB" -> "UPF": 164, GTP<ICMP> ping req.\n+21.451s (16:1:23.602.934)

note right #5C8001
**gNB to UPF**
end note

"UE" -> "8.8.8.8": 165, ICMP ping req.\n+21.452s (16:1:23.604.018)

note right #5C8001
**UE to 8.8.8.8**
end note

"UPF" -> "8.8.8.8": 166, ICMP ping req.\n+21.452s (16:1:23.604.057)

note right #5C8001
**UPF to 8.8.8.8**
end note

"8.8.8.8" -> "UPF": 167, ICMP ping rsp.\n+21.476s (16:1:23.627.574)

note right #EDFEC2
**8.8.8.8 to UPF**
end note

"8.8.8.8" -> "UE": 168, ICMP ping rsp.\n+21.476s (16:1:23.627.602)

note right #EDFEC2
**8.8.8.8 to UE**
end note

"UPF" -> "gNB": 169, GTP<ICMP> ping rsp.\n+21.476s (16:1:23.627.928)

note right #EDFEC2
**UPF to gNB**
end note
"Spoofed IPs 10.*.0.1" -> "UPF": 717, PFCP req.\nPFCP Association Setup Request (5)\n+78.542s (16:2:20.693.785)

note right #FFC2D9
**Spoofed IPs 10.*.0.1 to UPF**
end note

"UPF" -> "Spoofed IPs 10.*.0.1": 718, PFCP rsp.\nPFCP Association Setup Response (6)\n+78.547s (16:2:20.698.402)

note right #D7FEFC
**UPF to Spoofed IPs 10.*.0.1**
end note

"Spoofed IPs 10.*.0.1" -> "UPF": 719, PFCP req.\nPFCP Association Setup Request (5)\n+78.623s (16:2:20.774.568)

note right #FFC2D9
**Spoofed IPs 10.*.0.1 to UPF**
end note

"UPF" -> "Spoofed IPs 10.*.0.1": 720, PFCP rsp.\nPFCP Association Setup Response (6)\n+78.623s (16:2:20.774.86)

note right #D7FEFC
**UPF to Spoofed IPs 10.*.0.1**
end note

"Spoofed IPs 10.*.0.1" -> "UPF": 727, PFCP req.\nPFCP Association Setup Request (5)\n+78.907s (16:2:21.59.195)

note right #FFC2D9
**Spoofed IPs 10.*.0.1 to UPF**
end note

"UPF" -> "Spoofed IPs 10.*.0.1": 728, PFCP rsp.\nPFCP Association Setup Response (6)\n+78.908s (16:2:21.60.08)

note right #D7FEFC
**UPF to Spoofed IPs 10.*.0.1**
end note

"Spoofed IPs 10.*.0.1" -> "UPF": 729, PFCP req.\nPFCP Association Setup Request (5)\n+78.972s (16:2:21.123.554)

note right #FFC2D9
**Spoofed IPs 10.*.0.1 to UPF**
end note

"UPF" -> "Spoofed IPs 10.*.0.1": 730, PFCP rsp.\nPFCP Association Setup Response (6)\n+78.972s (16:2:21.123.949)

note right #D7FEFC
**UPF to Spoofed IPs 10.*.0.1**
end note

"Spoofed IPs 10.*.0.1" -> "UPF": 731, PFCP req.\nPFCP Association Setup Request (5)\n+79.014s (16:2:21.165.474)

note right #FFC2D9
**Spoofed IPs 10.*.0.1 to UPF**
end note

"UPF" -> "Spoofed IPs 10.*.0.1": 732, PFCP rsp.\nPFCP Association Setup Response (6)\n+79.014s (16:2:21.165.802)

note right #D7FEFC
**UPF to Spoofed IPs 10.*.0.1**
end note

"gNB" -> "UPF": 1296, GTP<ICMP> ping req.\n+92.766s (16:2:34.918.138)

note right #5C8001
**gNB to UPF**
end note

"gNB" -> "UPF": 1304, GTP<ICMP> ping req.\n+93.786s (16:2:35.937.532)

note right #5C8001
**gNB to UPF**
end note

"gNB" -> "UPF": 1307, GTP<ICMP> ping req.\n+94.810s (16:2:36.961.556)

note right #5C8001
**gNB to UPF**
end note

@enduml

PlantUML version 1.2019.12(Sun Nov 03 11:24:54 CET 2019)
(APACHE source distribution)
Java Runtime: OpenJDK Runtime Environment
JVM: OpenJDK 64-Bit Server VM
Java Version: 11.0.17+8-post-Ubuntu-1ubuntu220.04
Operating System: Linux
Default Encoding: UTF-8
Language: en
Country: US
--></g></svg>