<?xml version="1.0" encoding="UTF-8" standalone="no"?><svg xmlns="http://www.w3.org/2000/svg" xmlns:xlink="http://www.w3.org/1999/xlink" contentScriptType="application/ecmascript" contentStyleType="text/css" height="807px" preserveAspectRatio="none" style="width:1387px;height:807px;" version="1.1" viewBox="0 0 1387 807" width="1387px" zoomAndPan="magnify"><defs/><g><line style="stroke: #000000; stroke-width: 1.0; stroke-dasharray: 5.0,5.0;" x1="32" x2="32" y1="34.2969" y2="767.0781"/><line style="stroke: #000000; stroke-width: 1.0; stroke-dasharray: 5.0,5.0;" x1="91" x2="91" y1="34.2969" y2="767.0781"/><line style="stroke: #000000; stroke-width: 1.0; stroke-dasharray: 5.0,5.0;" x1="150" x2="150" y1="34.2969" y2="767.0781"/><line style="stroke: #000000; stroke-width: 1.0; stroke-dasharray: 5.0,5.0;" x1="206" x2="206" y1="34.2969" y2="767.0781"/><line style="stroke: #000000; stroke-width: 1.0; stroke-dasharray: 5.0,5.0;" x1="258" x2="258" y1="34.2969" y2="767.0781"/><line style="stroke: #000000; stroke-width: 1.0; stroke-dasharray: 5.0,5.0;" x1="310" x2="310" y1="34.2969" y2="767.0781"/><line style="stroke: #000000; stroke-width: 1.0; stroke-dasharray: 5.0,5.0;" x1="471" x2="471" y1="34.2969" y2="767.0781"/><line style="stroke: #000000; stroke-width: 1.0; stroke-dasharray: 5.0,5.0;" x1="531" x2="531" y1="34.2969" y2="767.0781"/><line style="stroke: #000000; stroke-width: 1.0; stroke-dasharray: 5.0,5.0;" x1="744" x2="744" y1="34.2969" y2="767.0781"/><line style="stroke: #000000; stroke-width: 1.0; stroke-dasharray: 5.0,5.0;" x1="823" x2="823" y1="34.2969" y2="767.0781"/><line style="stroke: #000000; stroke-width: 1.0; stroke-dasharray: 5.0,5.0;" x1="908" x2="908" y1="34.2969" y2="767.0781"/><line style="stroke: #000000; stroke-width: 1.0; stroke-dasharray: 5.0,5.0;" x1="994" x2="994" y1="34.2969" y2="767.0781"/><line style="stroke: #000000; stroke-width: 1.0; stroke-dasharray: 5.0,5.0;" x1="1084" x2="1084" y1="34.2969" y2="767.0781"/><line style="stroke: #000000; stroke-width: 1.0; stroke-dasharray: 5.0,5.0;" x1="1174" x2="1174" y1="34.2969" y2="767.0781"/><line style="stroke: #000000; stroke-width: 1.0; stroke-dasharray: 5.0,5.0;" x1="1264" x2="1264" y1="34.2969" y2="767.0781"/><line style="stroke: #000000; stroke-width: 1.0; stroke-dasharray: 5.0,5.0;" x1="1345" x2="1345" y1="34.2969" y2="767.0781"/><rect fill="#E6E6E6" height="30.2969" style="stroke: #FFFFFF; stroke-width: 1.5;" width="49" x="8" y="3"/><text fill="#000000" font-family="sans-serif" font-size="14" lengthAdjust="spacingAndGlyphs" textLength="35" x="15" y="22.9951">UE_1</text><rect fill="#E6E6E6" height="30.2969" style="stroke: #FFFFFF; stroke-width: 1.5;" width="49" x="8" y="766.0781"/><text fill="#000000" font-family="sans-serif" font-size="14" lengthAdjust="spacingAndGlyphs" textLength="35" x="15" y="786.0732">UE_1</text><rect fill="#E6E6E6" height="30.2969" style="stroke: #FFFFFF; stroke-width: 1.5;" width="49" x="67" y="3"/><text fill="#000000" font-family="sans-serif" font-size="14" lengthAdjust="spacingAndGlyphs" textLength="35" x="74" y="22.9951">UE_2</text><rect fill="#E6E6E6" height="30.2969" style="stroke: #FFFFFF; stroke-width: 1.5;" width="49" x="67" y="766.0781"/><text fill="#000000" font-family="sans-serif" font-size="14" lengthAdjust="spacingAndGlyphs" textLength="35" x="74" y="786.0732">UE_2</text><rect fill="#E6E6E6" height="30.2969" style="stroke: #FFFFFF; stroke-width: 1.5;" width="49" x="126" y="3"/><text fill="#000000" font-family="sans-serif" font-size="14" lengthAdjust="spacingAndGlyphs" textLength="35" x="133" y="22.9951">UE_3</text><rect fill="#E6E6E6" height="30.2969" style="stroke: #FFFFFF; stroke-width: 1.5;" width="49" x="126" y="766.0781"/><text fill="#000000" font-family="sans-serif" font-size="14" lengthAdjust="spacingAndGlyphs" textLength="35" x="133" y="786.0732">UE_3</text><rect fill="#E6E6E6" height="30.2969" style="stroke: #FFFFFF; stroke-width: 1.5;" width="43" x="185" y="3"/><text fill="#000000" font-family="sans-serif" font-size="14" lengthAdjust="spacingAndGlyphs" textLength="29" x="192" y="22.9951">gNB</text><rect fill="#E6E6E6" height="30.2969" style="stroke: #FFFFFF; stroke-width: 1.5;" width="43" x="185" y="766.0781"/><text fill="#000000" font-family="sans-serif" font-size="14" lengthAdjust="spacingAndGlyphs" textLength="29" x="192" y="786.0732">gNB</text><rect fill="#E6E6E6" height="30.2969" style="stroke: #FFFFFF; stroke-width: 1.5;" width="41" x="238" y="3"/><text fill="#000000" font-family="sans-serif" font-size="14" lengthAdjust="spacingAndGlyphs" textLength="27" x="245" y="22.9951">UPF</text><rect fill="#E6E6E6" height="30.2969" style="stroke: #FFFFFF; stroke-width: 1.5;" width="41" x="238" y="766.0781"/><text fill="#000000" font-family="sans-serif" font-size="14" lengthAdjust="spacingAndGlyphs" textLength="27" x="245" y="786.0732">UPF</text><rect fill="#E6E6E6" height="30.2969" style="stroke: #FFFFFF; stroke-width: 1.5;" width="43" x="289" y="3"/><text fill="#000000" font-family="sans-serif" font-size="14" lengthAdjust="spacingAndGlyphs" textLength="29" x="296" y="22.9951">AMF</text><rect fill="#E6E6E6" height="30.2969" style="stroke: #FFFFFF; stroke-width: 1.5;" width="43" x="289" y="766.0781"/><text fill="#000000" font-family="sans-serif" font-size="14" lengthAdjust="spacingAndGlyphs" textLength="29" x="296" y="786.0732">AMF</text><rect fill="#E6E6E6" height="30.2969" style="stroke: #FFFFFF; stroke-width: 1.5;" width="43" x="450" y="3"/><text fill="#000000" font-family="sans-serif" font-size="14" lengthAdjust="spacingAndGlyphs" textLength="29" x="457" y="22.9951">SMF</text><rect fill="#E6E6E6" height="30.2969" style="stroke: #FFFFFF; stroke-width: 1.5;" width="43" x="450" y="766.0781"/><text fill="#000000" font-family="sans-serif" font-size="14" lengthAdjust="spacingAndGlyphs" textLength="29" x="457" y="786.0732">SMF</text><rect fill="#E6E6E6" height="30.2969" style="stroke: #FFFFFF; stroke-width: 1.5;" width="57" x="503" y="3"/><text fill="#000000" font-family="sans-serif" font-size="14" lengthAdjust="spacingAndGlyphs" textLength="43" x="510" y="22.9951">SGWU</text><rect fill="#E6E6E6" height="30.2969" style="stroke: #FFFFFF; stroke-width: 1.5;" width="57" x="503" y="766.0781"/><text fill="#000000" font-family="sans-serif" font-size="14" lengthAdjust="spacingAndGlyphs" textLength="43" x="510" y="786.0732">SGWU</text><rect fill="#E6E6E6" height="30.2969" style="stroke: #FFFFFF; stroke-width: 1.5;" width="57" x="716" y="3"/><text fill="#000000" font-family="sans-serif" font-size="14" lengthAdjust="spacingAndGlyphs" textLength="43" x="723" y="22.9951">SGWC</text><rect fill="#E6E6E6" height="30.2969" style="stroke: #FFFFFF; stroke-width: 1.5;" width="57" x="716" y="766.0781"/><text fill="#000000" font-family="sans-serif" font-size="14" lengthAdjust="spacingAndGlyphs" textLength="43" x="723" y="786.0732">SGWC</text><rect fill="#E6E6E6" height="30.2969" style="stroke: #FFFFFF; stroke-width: 1.5;" width="80" x="783" y="3"/><text fill="#000000" font-family="sans-serif" font-size="14" lengthAdjust="spacingAndGlyphs" textLength="66" x="790" y="22.9951">127.0.0.4</text><rect fill="#E6E6E6" height="30.2969" style="stroke: #FFFFFF; stroke-width: 1.5;" width="80" x="783" y="766.0781"/><text fill="#000000" font-family="sans-serif" font-size="14" lengthAdjust="spacingAndGlyphs" textLength="66" x="790" y="786.0732">127.0.0.4</text><rect fill="#E6E6E6" height="30.2969" style="stroke: #FFFFFF; stroke-width: 1.5;" width="71" x="873" y="3"/><text fill="#000000" font-family="sans-serif" font-size="14" lengthAdjust="spacingAndGlyphs" textLength="57" x="880" y="22.9951">10.0.2.4</text><rect fill="#E6E6E6" height="30.2969" style="stroke: #FFFFFF; stroke-width: 1.5;" width="71" x="873" y="766.0781"/><text fill="#000000" font-family="sans-serif" font-size="14" lengthAdjust="spacingAndGlyphs" textLength="57" x="880" y="786.0732">10.0.2.4</text><rect fill="#E6E6E6" height="30.2969" style="stroke: #FFFFFF; stroke-width: 1.5;" width="80" x="954" y="3"/><text fill="#000000" font-family="sans-serif" font-size="14" lengthAdjust="spacingAndGlyphs" textLength="66" x="961" y="22.9951">127.0.0.9</text><rect fill="#E6E6E6" height="30.2969" style="stroke: #FFFFFF; stroke-width: 1.5;" width="80" x="954" y="766.0781"/><text fill="#000000" font-family="sans-serif" font-size="14" lengthAdjust="spacingAndGlyphs" textLength="66" x="961" y="786.0732">127.0.0.9</text><rect fill="#E6E6E6" height="30.2969" style="stroke: #FFFFFF; stroke-width: 1.5;" width="80" x="1044" y="3"/><text fill="#000000" font-family="sans-serif" font-size="14" lengthAdjust="spacingAndGlyphs" textLength="66" x="1051" y="22.9951">127.0.0.8</text><rect fill="#E6E6E6" height="30.2969" style="stroke: #FFFFFF; stroke-width: 1.5;" width="80" x="1044" y="766.0781"/><text fill="#000000" font-family="sans-serif" font-size="14" lengthAdjust="spacingAndGlyphs" textLength="66" x="1051" y="786.0732">127.0.0.8</text><rect fill="#E6E6E6" height="30.2969" style="stroke: #FFFFFF; stroke-width: 1.5;" width="80" x="1134" y="3"/><text fill="#000000" font-family="sans-serif" font-size="14" lengthAdjust="spacingAndGlyphs" textLength="66" x="1141" y="22.9951">127.0.0.2</text><rect fill="#E6E6E6" height="30.2969" style="stroke: #FFFFFF; stroke-width: 1.5;" width="80" x="1134" y="766.0781"/><text fill="#000000" font-family="sans-serif" font-size="14" lengthAdjust="spacingAndGlyphs" textLength="66" x="1141" y="786.0732">127.0.0.2</text><rect fill="#E6E6E6" height="30.2969" style="stroke: #FFFFFF; stroke-width: 1.5;" width="80" x="1224" y="3"/><text fill="#000000" font-family="sans-serif" font-size="14" lengthAdjust="spacingAndGlyphs" textLength="66" x="1231" y="22.9951">10.45.0.5</text><rect fill="#E6E6E6" height="30.2969" style="stroke: #FFFFFF; stroke-width: 1.5;" width="80" x="1224" y="766.0781"/><text fill="#000000" font-family="sans-serif" font-size="14" lengthAdjust="spacingAndGlyphs" textLength="66" x="1231" y="786.0732">10.45.0.5</text><rect fill="#E6E6E6" height="30.2969" style="stroke: #FFFFFF; stroke-width: 1.5;" width="62" x="1314" y="3"/><text fill="#000000" font-family="sans-serif" font-size="14" lengthAdjust="spacingAndGlyphs" textLength="48" x="1321" y="22.9951">8.8.8.8</text><rect fill="#E6E6E6" height="30.2969" style="stroke: #FFFFFF; stroke-width: 1.5;" width="62" x="1314" y="766.0781"/><text fill="#000000" font-family="sans-serif" font-size="14" lengthAdjust="spacingAndGlyphs" textLength="48" x="1321" y="786.0732">8.8.8.8</text><polygon fill="#000000" points="732.5,91.6953,742.5,95.6953,732.5,99.6953,736.5,95.6953" style="stroke: #000000; stroke-width: 1.0;"/><line style="stroke: #000000; stroke-width: 1.0;" x1="531.5" x2="738.5" y1="95.6953" y2="95.6953"/><text fill="#000000" font-family="sans-serif" font-size="13" lengthAdjust="spacingAndGlyphs" textLength="101" x="538.5" y="60.3638">5890, PFCP req.</text><text fill="#000000" font-family="sans-serif" font-size="13" lengthAdjust="spacingAndGlyphs" textLength="179" x="538.5" y="75.4966">PFCP Heartbeat Request (1)</text><text fill="#000000" font-family="sans-serif" font-size="13" lengthAdjust="spacingAndGlyphs" textLength="188" x="538.5" y="90.6294">+128.734s (14:9:17.889.116)</text><path d="M749,61.4297 L749,86.4297 L883,86.4297 L883,71.4297 L873,61.4297 L749,61.4297 " fill="#80B3FF" style="stroke: #FFFFFF; stroke-width: 1.0;"/><path d="M873,61.4297 L873,71.4297 L883,71.4297 L873,61.4297 " fill="#80B3FF" style="stroke: #FFFFFF; stroke-width: 1.0;"/><text fill="#000000" font-family="sans-serif" font-size="13" font-weight="bold" lengthAdjust="spacingAndGlyphs" textLength="113" x="755" y="78.4966">SGWU to SGWC</text><polygon fill="#000000" points="542.5,151.0938,532.5,155.0938,542.5,159.0938,538.5,155.0938" style="stroke: #000000; stroke-width: 1.0;"/><line style="stroke: #000000; stroke-width: 1.0;" x1="536.5" x2="743.5" y1="155.0938" y2="155.0938"/><text fill="#000000" font-family="sans-serif" font-size="13" lengthAdjust="spacingAndGlyphs" textLength="100" x="548.5" y="119.7622">5891, PFCP rsp.</text><text fill="#000000" font-family="sans-serif" font-size="13" lengthAdjust="spacingAndGlyphs" textLength="189" x="548.5" y="134.895">PFCP Heartbeat Response (2)</text><text fill="#000000" font-family="sans-serif" font-size="13" lengthAdjust="spacingAndGlyphs" textLength="188" x="548.5" y="150.0278">+128.735s (14:9:17.889.323)</text><path d="M749,120.8281 L749,145.8281 L883,145.8281 L883,130.8281 L873,120.8281 L749,120.8281 " fill="#CCE0FF" style="stroke: #FFFFFF; stroke-width: 1.0;"/><path d="M873,120.8281 L873,130.8281 L883,130.8281 L873,120.8281 " fill="#CCE0FF" style="stroke: #FFFFFF; stroke-width: 1.0;"/><text fill="#000000" font-family="sans-serif" font-size="13" font-weight="bold" lengthAdjust="spacingAndGlyphs" textLength="113" x="755" y="137.895">SGWC to SGWU</text><polygon fill="#000000" points="542.5,210.4922,532.5,214.4922,542.5,218.4922,538.5,214.4922" style="stroke: #000000; stroke-width: 1.0;"/><line style="stroke: #000000; stroke-width: 1.0;" x1="536.5" x2="743.5" y1="214.4922" y2="214.4922"/><text fill="#000000" font-family="sans-serif" font-size="13" lengthAdjust="spacingAndGlyphs" textLength="101" x="548.5" y="179.1606">5892, PFCP req.</text><text fill="#000000" font-family="sans-serif" font-size="13" lengthAdjust="spacingAndGlyphs" textLength="179" x="548.5" y="194.2935">PFCP Heartbeat Request (1)</text><text fill="#000000" font-family="sans-serif" font-size="13" lengthAdjust="spacingAndGlyphs" textLength="188" x="548.5" y="209.4263">+128.735s (14:9:17.889.368)</text><path d="M749,180.2266 L749,205.2266 L883,205.2266 L883,190.2266 L873,180.2266 L749,180.2266 " fill="#80B3FF" style="stroke: #FFFFFF; stroke-width: 1.0;"/><path d="M873,180.2266 L873,190.2266 L883,190.2266 L873,180.2266 " fill="#80B3FF" style="stroke: #FFFFFF; stroke-width: 1.0;"/><text fill="#000000" font-family="sans-serif" font-size="13" font-weight="bold" lengthAdjust="spacingAndGlyphs" textLength="113" x="755" y="197.2935">SGWC to SGWU</text><polygon fill="#000000" points="732.5,269.8906,742.5,273.8906,732.5,277.8906,736.5,273.8906" style="stroke: #000000; stroke-width: 1.0;"/><line style="stroke: #000000; stroke-width: 1.0;" x1="531.5" x2="738.5" y1="273.8906" y2="273.8906"/><text fill="#000000" font-family="sans-serif" font-size="13" lengthAdjust="spacingAndGlyphs" textLength="100" x="538.5" y="238.5591">5893, PFCP rsp.</text><text fill="#000000" font-family="sans-serif" font-size="13" lengthAdjust="spacingAndGlyphs" textLength="189" x="538.5" y="253.6919">PFCP Heartbeat Response (2)</text><text fill="#000000" font-family="sans-serif" font-size="13" lengthAdjust="spacingAndGlyphs" textLength="188" x="538.5" y="268.8247">+128.735s (14:9:17.889.501)</text><path d="M749,239.625 L749,264.625 L883,264.625 L883,249.625 L873,239.625 L749,239.625 " fill="#CCE0FF" style="stroke: #FFFFFF; stroke-width: 1.0;"/><path d="M873,239.625 L873,249.625 L883,249.625 L873,239.625 " fill="#CCE0FF" style="stroke: #FFFFFF; stroke-width: 1.0;"/><text fill="#000000" font-family="sans-serif" font-size="13" font-weight="bold" lengthAdjust="spacingAndGlyphs" textLength="113" x="755" y="256.6919">SGWU to SGWC</text><polygon fill="#000000" points="269.5,329.2891,259.5,333.2891,269.5,337.2891,265.5,333.2891" style="stroke: #000000; stroke-width: 1.0;"/><line style="stroke: #000000; stroke-width: 1.0;" x1="263.5" x2="470.5" y1="333.2891" y2="333.2891"/><text fill="#000000" font-family="sans-serif" font-size="13" lengthAdjust="spacingAndGlyphs" textLength="101" x="275.5" y="297.9575">5918, PFCP req.</text><text fill="#000000" font-family="sans-serif" font-size="13" lengthAdjust="spacingAndGlyphs" textLength="179" x="275.5" y="313.0903">PFCP Heartbeat Request (1)</text><text fill="#000000" font-family="sans-serif" font-size="13" lengthAdjust="spacingAndGlyphs" textLength="188" x="275.5" y="328.2231">+134.316s (14:9:23.471.026)</text><path d="M476,299.0234 L476,324.0234 L582,324.0234 L582,309.0234 L572,299.0234 L476,299.0234 " fill="#80B3FF" style="stroke: #FFFFFF; stroke-width: 1.0;"/><path d="M572,299.0234 L572,309.0234 L582,309.0234 L572,299.0234 " fill="#80B3FF" style="stroke: #FFFFFF; stroke-width: 1.0;"/><text fill="#000000" font-family="sans-serif" font-size="13" font-weight="bold" lengthAdjust="spacingAndGlyphs" textLength="85" x="482" y="316.0903">SMF to UPF</text><polygon fill="#000000" points="459.5,388.6875,469.5,392.6875,459.5,396.6875,463.5,392.6875" style="stroke: #000000; stroke-width: 1.0;"/><line style="stroke: #000000; stroke-width: 1.0;" x1="258.5" x2="465.5" y1="392.6875" y2="392.6875"/><text fill="#000000" font-family="sans-serif" font-size="13" lengthAdjust="spacingAndGlyphs" textLength="100" x="265.5" y="357.356">5919, PFCP rsp.</text><text fill="#000000" font-family="sans-serif" font-size="13" lengthAdjust="spacingAndGlyphs" textLength="189" x="265.5" y="372.4888">PFCP Heartbeat Response (2)</text><text fill="#000000" font-family="sans-serif" font-size="13" lengthAdjust="spacingAndGlyphs" textLength="188" x="265.5" y="387.6216">+134.316s (14:9:23.471.234)</text><path d="M476,358.4219 L476,383.4219 L582,383.4219 L582,368.4219 L572,358.4219 L476,358.4219 " fill="#CCE0FF" style="stroke: #FFFFFF; stroke-width: 1.0;"/><path d="M572,358.4219 L572,368.4219 L582,368.4219 L572,358.4219 " fill="#CCE0FF" style="stroke: #FFFFFF; stroke-width: 1.0;"/><text fill="#000000" font-family="sans-serif" font-size="13" font-weight="bold" lengthAdjust="spacingAndGlyphs" textLength="85" x="482" y="375.4888">UPF to SMF</text><polygon fill="#000000" points="459.5,448.0859,469.5,452.0859,459.5,456.0859,463.5,452.0859" style="stroke: #000000; stroke-width: 1.0;"/><line style="stroke: #000000; stroke-width: 1.0;" x1="258.5" x2="465.5" y1="452.0859" y2="452.0859"/><text fill="#000000" font-family="sans-serif" font-size="13" lengthAdjust="spacingAndGlyphs" textLength="101" x="265.5" y="416.7544">5920, PFCP req.</text><text fill="#000000" font-family="sans-serif" font-size="13" lengthAdjust="spacingAndGlyphs" textLength="179" x="265.5" y="431.8872">PFCP Heartbeat Request (1)</text><text fill="#000000" font-family="sans-serif" font-size="13" lengthAdjust="spacingAndGlyphs" textLength="188" x="265.5" y="447.02">+134.317s (14:9:23.471.374)</text><path d="M476,417.8203 L476,442.8203 L582,442.8203 L582,427.8203 L572,417.8203 L476,417.8203 " fill="#80B3FF" style="stroke: #FFFFFF; stroke-width: 1.0;"/><path d="M572,417.8203 L572,427.8203 L582,427.8203 L572,417.8203 " fill="#80B3FF" style="stroke: #FFFFFF; stroke-width: 1.0;"/><text fill="#000000" font-family="sans-serif" font-size="13" font-weight="bold" lengthAdjust="spacingAndGlyphs" textLength="85" x="482" y="434.8872">UPF to SMF</text><polygon fill="#000000" points="269.5,507.4844,259.5,511.4844,269.5,515.4844,265.5,511.4844" style="stroke: #000000; stroke-width: 1.0;"/><line style="stroke: #000000; stroke-width: 1.0;" x1="263.5" x2="470.5" y1="511.4844" y2="511.4844"/><text fill="#000000" font-family="sans-serif" font-size="13" lengthAdjust="spacingAndGlyphs" textLength="100" x="275.5" y="476.1528">5924, PFCP rsp.</text><text fill="#000000" font-family="sans-serif" font-size="13" lengthAdjust="spacingAndGlyphs" textLength="189" x="275.5" y="491.2856">PFCP Heartbeat Response (2)</text><text fill="#000000" font-family="sans-serif" font-size="13" lengthAdjust="spacingAndGlyphs" textLength="188" x="275.5" y="506.4185">+134.321s (14:9:23.475.509)</text><path d="M476,477.2188 L476,502.2188 L582,502.2188 L582,487.2188 L572,477.2188 L476,477.2188 " fill="#CCE0FF" style="stroke: #FFFFFF; stroke-width: 1.0;"/><path d="M572,477.2188 L572,487.2188 L582,487.2188 L572,477.2188 " fill="#CCE0FF" style="stroke: #FFFFFF; stroke-width: 1.0;"/><text fill="#000000" font-family="sans-serif" font-size="13" font-weight="bold" lengthAdjust="spacingAndGlyphs" textLength="85" x="482" y="494.2856">SMF to UPF</text><polygon fill="#000000" points="732.5,566.8828,742.5,570.8828,732.5,574.8828,736.5,570.8828" style="stroke: #000000; stroke-width: 1.0;"/><line style="stroke: #000000; stroke-width: 1.0;" x1="531.5" x2="738.5" y1="570.8828" y2="570.8828"/><text fill="#000000" font-family="sans-serif" font-size="13" lengthAdjust="spacingAndGlyphs" textLength="101" x="538.5" y="535.5513">6084, PFCP req.</text><text fill="#000000" font-family="sans-serif" font-size="13" lengthAdjust="spacingAndGlyphs" textLength="179" x="538.5" y="550.6841">PFCP Heartbeat Request (1)</text><text fill="#000000" font-family="sans-serif" font-size="13" lengthAdjust="spacingAndGlyphs" textLength="188" x="538.5" y="565.8169">+139.736s (14:9:28.890.377)</text><path d="M749,536.6172 L749,561.6172 L883,561.6172 L883,546.6172 L873,536.6172 L749,536.6172 " fill="#80B3FF" style="stroke: #FFFFFF; stroke-width: 1.0;"/><path d="M873,536.6172 L873,546.6172 L883,546.6172 L873,536.6172 " fill="#80B3FF" style="stroke: #FFFFFF; stroke-width: 1.0;"/><text fill="#000000" font-family="sans-serif" font-size="13" font-weight="bold" lengthAdjust="spacingAndGlyphs" textLength="113" x="755" y="553.6841">SGWU to SGWC</text><polygon fill="#000000" points="542.5,626.2813,532.5,630.2813,542.5,634.2813,538.5,630.2813" style="stroke: #000000; stroke-width: 1.0;"/><line style="stroke: #000000; stroke-width: 1.0;" x1="536.5" x2="743.5" y1="630.2813" y2="630.2813"/><text fill="#000000" font-family="sans-serif" font-size="13" lengthAdjust="spacingAndGlyphs" textLength="100" x="548.5" y="594.9497">6085, PFCP rsp.</text><text fill="#000000" font-family="sans-serif" font-size="13" lengthAdjust="spacingAndGlyphs" textLength="189" x="548.5" y="610.0825">PFCP Heartbeat Response (2)</text><text fill="#000000" font-family="sans-serif" font-size="13" lengthAdjust="spacingAndGlyphs" textLength="188" x="548.5" y="625.2153">+139.736s (14:9:28.890.532)</text><path d="M749,596.0156 L749,621.0156 L883,621.0156 L883,606.0156 L873,596.0156 L749,596.0156 " fill="#CCE0FF" style="stroke: #FFFFFF; stroke-width: 1.0;"/><path d="M873,596.0156 L873,606.0156 L883,606.0156 L873,596.0156 " fill="#CCE0FF" style="stroke: #FFFFFF; stroke-width: 1.0;"/><text fill="#000000" font-family="sans-serif" font-size="13" font-weight="bold" lengthAdjust="spacingAndGlyphs" textLength="113" x="755" y="613.0825">SGWC to SGWU</text><polygon fill="#000000" points="542.5,685.6797,532.5,689.6797,542.5,693.6797,538.5,689.6797" style="stroke: #000000; stroke-width: 1.0;"/><line style="stroke: #000000; stroke-width: 1.0;" x1="536.5" x2="743.5" y1="689.6797" y2="689.6797"/><text fill="#000000" font-family="sans-serif" font-size="13" lengthAdjust="spacingAndGlyphs" textLength="101" x="548.5" y="654.3481">6086, PFCP req.</text><text fill="#000000" font-family="sans-serif" font-size="13" lengthAdjust="spacingAndGlyphs" textLength="179" x="548.5" y="669.481">PFCP Heartbeat Request (1)</text><text fill="#000000" font-family="sans-serif" font-size="13" lengthAdjust="spacingAndGlyphs" textLength="188" x="548.5" y="684.6138">+139.736s (14:9:28.890.586)</text><path d="M749,655.4141 L749,680.4141 L883,680.4141 L883,665.4141 L873,655.4141 L749,655.4141 " fill="#80B3FF" style="stroke: #FFFFFF; stroke-width: 1.0;"/><path d="M873,655.4141 L873,665.4141 L883,665.4141 L873,655.4141 " fill="#80B3FF" style="stroke: #FFFFFF; stroke-width: 1.0;"/><text fill="#000000" font-family="sans-serif" font-size="13" font-weight="bold" lengthAdjust="spacingAndGlyphs" textLength="113" x="755" y="672.481">SGWC to SGWU</text><polygon fill="#000000" points="732.5,745.0781,742.5,749.0781,732.5,753.0781,736.5,749.0781" style="stroke: #000000; stroke-width: 1.0;"/><line style="stroke: #000000; stroke-width: 1.0;" x1="531.5" x2="738.5" y1="749.0781" y2="749.0781"/><text fill="#000000" font-family="sans-serif" font-size="13" lengthAdjust="spacingAndGlyphs" textLength="100" x="538.5" y="713.7466">6087, PFCP rsp.</text><text fill="#000000" font-family="sans-serif" font-size="13" lengthAdjust="spacingAndGlyphs" textLength="189" x="538.5" y="728.8794">PFCP Heartbeat Response (2)</text><text fill="#000000" font-family="sans-serif" font-size="13" lengthAdjust="spacingAndGlyphs" textLength="188" x="538.5" y="744.0122">+139.736s (14:9:28.890.782)</text><path d="M749,714.8125 L749,739.8125 L883,739.8125 L883,724.8125 L873,714.8125 L749,714.8125 " fill="#CCE0FF" style="stroke: #FFFFFF; stroke-width: 1.0;"/><path d="M873,714.8125 L873,724.8125 L883,724.8125 L873,714.8125 " fill="#CCE0FF" style="stroke: #FFFFFF; stroke-width: 1.0;"/><text fill="#000000" font-family="sans-serif" font-size="13" font-weight="bold" lengthAdjust="spacingAndGlyphs" textLength="113" x="755" y="731.8794">SGWU to SGWC</text><!--MD5=[81ae912b404f15ff52fef56649a528bb]
@startuml
skinparam shadowing false
skinparam NoteBorderColor white
skinparam sequence {
    ArrowColor black
    LifeLineBorderColor black
    LifeLineBackgroundColor black
    ParticipantBorderColor white
    ParticipantBackgroundColor #e6e6e6
}
participant "UE_1"
participant "UE_2"
participant "UE_3"
participant "gNB"
participant "UPF"
participant "AMF"
participant "SMF"
participant "SGWU"
participant "SGWC"
participant "127.0.0.4"
participant "10.0.2.4"
participant "127.0.0.9"
participant "127.0.0.8"
participant "127.0.0.2"
participant "10.45.0.5"
participant "8.8.8.8"

"SGWU" -> "SGWC": 5890, PFCP req.\nPFCP Heartbeat Request (1)\n+128.734s (14:9:17.889.116)

note right #80b3ff
**SGWU to SGWC**
end note

"SGWC" -> "SGWU": 5891, PFCP rsp.\nPFCP Heartbeat Response (2)\n+128.735s (14:9:17.889.323)

note right #cce0ff
**SGWC to SGWU**
end note

"SGWC" -> "SGWU": 5892, PFCP req.\nPFCP Heartbeat Request (1)\n+128.735s (14:9:17.889.368)

note right #80b3ff
**SGWC to SGWU**
end note

"SGWU" -> "SGWC": 5893, PFCP rsp.\nPFCP Heartbeat Response (2)\n+128.735s (14:9:17.889.501)

note right #cce0ff
**SGWU to SGWC**
end note

"SMF" -> "UPF": 5918, PFCP req.\nPFCP Heartbeat Request (1)\n+134.316s (14:9:23.471.026)

note right #80b3ff
**SMF to UPF**
end note

"UPF" -> "SMF": 5919, PFCP rsp.\nPFCP Heartbeat Response (2)\n+134.316s (14:9:23.471.234)

note right #cce0ff
**UPF to SMF**
end note

"UPF" -> "SMF": 5920, PFCP req.\nPFCP Heartbeat Request (1)\n+134.317s (14:9:23.471.374)

note right #80b3ff
**UPF to SMF**
end note

"SMF" -> "UPF": 5924, PFCP rsp.\nPFCP Heartbeat Response (2)\n+134.321s (14:9:23.475.509)

note right #cce0ff
**SMF to UPF**
end note

"SGWU" -> "SGWC": 6084, PFCP req.\nPFCP Heartbeat Request (1)\n+139.736s (14:9:28.890.377)

note right #80b3ff
**SGWU to SGWC**
end note

"SGWC" -> "SGWU": 6085, PFCP rsp.\nPFCP Heartbeat Response (2)\n+139.736s (14:9:28.890.532)

note right #cce0ff
**SGWC to SGWU**
end note

"SGWC" -> "SGWU": 6086, PFCP req.\nPFCP Heartbeat Request (1)\n+139.736s (14:9:28.890.586)

note right #80b3ff
**SGWC to SGWU**
end note

"SGWU" -> "SGWC": 6087, PFCP rsp.\nPFCP Heartbeat Response (2)\n+139.736s (14:9:28.890.782)

note right #cce0ff
**SGWU to SGWC**
end note

@enduml

PlantUML version 1.2019.12(Sun Nov 03 11:24:54 CET 2019)
(APACHE source distribution)
Java Runtime: OpenJDK Runtime Environment
JVM: OpenJDK 64-Bit Server VM
Java Version: 11.0.17+8-post-Ubuntu-1ubuntu220.04
Operating System: Linux
Default Encoding: UTF-8
Language: en
Country: US
--></g></svg>