<?xml version="1.0" encoding="UTF-8" standalone="no"?><svg xmlns="http://www.w3.org/2000/svg" xmlns:xlink="http://www.w3.org/1999/xlink" contentScriptType="application/ecmascript" contentStyleType="text/css" height="1933px" preserveAspectRatio="none" style="width:1289px;height:1933px;" version="1.1" viewBox="0 0 1289 1933" width="1289px" zoomAndPan="magnify"><defs/><g><line style="stroke: #000000; stroke-width: 1.0; stroke-dasharray: 5.0,5.0;" x1="24" x2="24" y1="34.2969" y2="1893.3828"/><line style="stroke: #000000; stroke-width: 1.0; stroke-dasharray: 5.0,5.0;" x1="72" x2="72" y1="34.2969" y2="1893.3828"/><line style="stroke: #000000; stroke-width: 1.0; stroke-dasharray: 5.0,5.0;" x1="400" x2="400" y1="34.2969" y2="1893.3828"/><line style="stroke: #000000; stroke-width: 1.0; stroke-dasharray: 5.0,5.0;" x1="453" x2="453" y1="34.2969" y2="1893.3828"/><line style="stroke: #000000; stroke-width: 1.0; stroke-dasharray: 5.0,5.0;" x1="754" x2="754" y1="34.2969" y2="1893.3828"/><line style="stroke: #000000; stroke-width: 1.0; stroke-dasharray: 5.0,5.0;" x1="813" x2="813" y1="34.2969" y2="1893.3828"/><line style="stroke: #000000; stroke-width: 1.0; stroke-dasharray: 5.0,5.0;" x1="1076" x2="1076" y1="34.2969" y2="1893.3828"/><line style="stroke: #000000; stroke-width: 1.0; stroke-dasharray: 5.0,5.0;" x1="1146" x2="1146" y1="34.2969" y2="1893.3828"/><rect fill="#E6E6E6" height="30.2969" style="stroke: #FFFFFF; stroke-width: 1.5;" width="33" x="8" y="3"/><text fill="#000000" font-family="sans-serif" font-size="14" lengthAdjust="spacingAndGlyphs" textLength="19" x="15" y="22.9951">UE</text><rect fill="#E6E6E6" height="30.2969" style="stroke: #FFFFFF; stroke-width: 1.5;" width="33" x="8" y="1892.3828"/><text fill="#000000" font-family="sans-serif" font-size="14" lengthAdjust="spacingAndGlyphs" textLength="19" x="15" y="1912.3779">UE</text><rect fill="#E6E6E6" height="30.2969" style="stroke: #FFFFFF; stroke-width: 1.5;" width="43" x="51" y="3"/><text fill="#000000" font-family="sans-serif" font-size="14" lengthAdjust="spacingAndGlyphs" textLength="29" x="58" y="22.9951">gNB</text><rect fill="#E6E6E6" height="30.2969" style="stroke: #FFFFFF; stroke-width: 1.5;" width="43" x="51" y="1892.3828"/><text fill="#000000" font-family="sans-serif" font-size="14" lengthAdjust="spacingAndGlyphs" textLength="29" x="58" y="1912.3779">gNB</text><rect fill="#E6E6E6" height="30.2969" style="stroke: #FFFFFF; stroke-width: 1.5;" width="43" x="379" y="3"/><text fill="#000000" font-family="sans-serif" font-size="14" lengthAdjust="spacingAndGlyphs" textLength="29" x="386" y="22.9951">AMF</text><rect fill="#E6E6E6" height="30.2969" style="stroke: #FFFFFF; stroke-width: 1.5;" width="43" x="379" y="1892.3828"/><text fill="#000000" font-family="sans-serif" font-size="14" lengthAdjust="spacingAndGlyphs" textLength="29" x="386" y="1912.3779">AMF</text><rect fill="#E6E6E6" height="30.2969" style="stroke: #FFFFFF; stroke-width: 1.5;" width="43" x="432" y="3"/><text fill="#000000" font-family="sans-serif" font-size="14" lengthAdjust="spacingAndGlyphs" textLength="29" x="439" y="22.9951">SMF</text><rect fill="#E6E6E6" height="30.2969" style="stroke: #FFFFFF; stroke-width: 1.5;" width="43" x="432" y="1892.3828"/><text fill="#000000" font-family="sans-serif" font-size="14" lengthAdjust="spacingAndGlyphs" textLength="29" x="439" y="1912.3779">SMF</text><rect fill="#E6E6E6" height="30.2969" style="stroke: #FFFFFF; stroke-width: 1.5;" width="41" x="734" y="3"/><text fill="#000000" font-family="sans-serif" font-size="14" lengthAdjust="spacingAndGlyphs" textLength="27" x="741" y="22.9951">UPF</text><rect fill="#E6E6E6" height="30.2969" style="stroke: #FFFFFF; stroke-width: 1.5;" width="41" x="734" y="1892.3828"/><text fill="#000000" font-family="sans-serif" font-size="14" lengthAdjust="spacingAndGlyphs" textLength="27" x="741" y="1912.3779">UPF</text><rect fill="#E6E6E6" height="30.2969" style="stroke: #FFFFFF; stroke-width: 1.5;" width="57" x="785" y="3"/><text fill="#000000" font-family="sans-serif" font-size="14" lengthAdjust="spacingAndGlyphs" textLength="43" x="792" y="22.9951">SGWU</text><rect fill="#E6E6E6" height="30.2969" style="stroke: #FFFFFF; stroke-width: 1.5;" width="57" x="785" y="1892.3828"/><text fill="#000000" font-family="sans-serif" font-size="14" lengthAdjust="spacingAndGlyphs" textLength="43" x="792" y="1912.3779">SGWU</text><rect fill="#E6E6E6" height="30.2969" style="stroke: #FFFFFF; stroke-width: 1.5;" width="57" x="1048" y="3"/><text fill="#000000" font-family="sans-serif" font-size="14" lengthAdjust="spacingAndGlyphs" textLength="43" x="1055" y="22.9951">SGWC</text><rect fill="#E6E6E6" height="30.2969" style="stroke: #FFFFFF; stroke-width: 1.5;" width="57" x="1048" y="1892.3828"/><text fill="#000000" font-family="sans-serif" font-size="14" lengthAdjust="spacingAndGlyphs" textLength="43" x="1055" y="1912.3779">SGWC</text><rect fill="#E6E6E6" height="30.2969" style="stroke: #FFFFFF; stroke-width: 1.5;" width="62" x="1115" y="3"/><text fill="#000000" font-family="sans-serif" font-size="14" lengthAdjust="spacingAndGlyphs" textLength="48" x="1122" y="22.9951">8.8.8.8</text><rect fill="#E6E6E6" height="30.2969" style="stroke: #FFFFFF; stroke-width: 1.5;" width="62" x="1115" y="1892.3828"/><text fill="#000000" font-family="sans-serif" font-size="14" lengthAdjust="spacingAndGlyphs" textLength="48" x="1122" y="1912.3779">8.8.8.8</text><polygon fill="#000000" points="824.5,91.6953,814.5,95.6953,824.5,99.6953,820.5,95.6953" style="stroke: #000000; stroke-width: 1.0;"/><line style="stroke: #000000; stroke-width: 1.0;" x1="818.5" x2="1075.5" y1="95.6953" y2="95.6953"/><text fill="#000000" font-family="sans-serif" font-size="13" lengthAdjust="spacingAndGlyphs" textLength="101" x="830.5" y="60.3638">1074, PFCP req.</text><text fill="#000000" font-family="sans-serif" font-size="13" lengthAdjust="spacingAndGlyphs" textLength="229" x="830.5" y="75.4966">PFCP Association Setup Request (5)</text><text fill="#000000" font-family="sans-serif" font-size="13" lengthAdjust="spacingAndGlyphs" textLength="180" x="830.5" y="90.6294">+4.486s (16:11:54.325.052)</text><path d="M1081,61.4297 L1081,86.4297 L1215,86.4297 L1215,71.4297 L1205,61.4297 L1081,61.4297 " fill="#03B5AA" style="stroke: #FFFFFF; stroke-width: 1.0;"/><path d="M1205,61.4297 L1205,71.4297 L1215,71.4297 L1205,61.4297 " fill="#03B5AA" style="stroke: #FFFFFF; stroke-width: 1.0;"/><text fill="#000000" font-family="sans-serif" font-size="13" font-weight="bold" lengthAdjust="spacingAndGlyphs" textLength="113" x="1087" y="78.4966">SGWC to SGWU</text><polygon fill="#000000" points="1064.5,151.0938,1074.5,155.0938,1064.5,159.0938,1068.5,155.0938" style="stroke: #000000; stroke-width: 1.0;"/><line style="stroke: #000000; stroke-width: 1.0;" x1="813.5" x2="1070.5" y1="155.0938" y2="155.0938"/><text fill="#000000" font-family="sans-serif" font-size="13" lengthAdjust="spacingAndGlyphs" textLength="100" x="820.5" y="119.7622">1223, PFCP rsp.</text><text fill="#000000" font-family="sans-serif" font-size="13" lengthAdjust="spacingAndGlyphs" textLength="239" x="820.5" y="134.895">PFCP Association Setup Response (6)</text><text fill="#000000" font-family="sans-serif" font-size="13" lengthAdjust="spacingAndGlyphs" textLength="180" x="820.5" y="150.0278">+6.989s (16:11:56.828.319)</text><path d="M1081,120.8281 L1081,145.8281 L1215,145.8281 L1215,130.8281 L1205,120.8281 L1081,120.8281 " fill="#D7FEFC" style="stroke: #FFFFFF; stroke-width: 1.0;"/><path d="M1205,120.8281 L1205,130.8281 L1215,130.8281 L1205,120.8281 " fill="#D7FEFC" style="stroke: #FFFFFF; stroke-width: 1.0;"/><text fill="#000000" font-family="sans-serif" font-size="13" font-weight="bold" lengthAdjust="spacingAndGlyphs" textLength="113" x="1087" y="137.895">SGWU to SGWC</text><polygon fill="#000000" points="824.5,210.4922,814.5,214.4922,824.5,218.4922,820.5,214.4922" style="stroke: #000000; stroke-width: 1.0;"/><line style="stroke: #000000; stroke-width: 1.0;" x1="818.5" x2="1075.5" y1="214.4922" y2="214.4922"/><text fill="#000000" font-family="sans-serif" font-size="13" lengthAdjust="spacingAndGlyphs" textLength="101" x="830.5" y="179.1606">1691, PFCP req.</text><text fill="#000000" font-family="sans-serif" font-size="13" lengthAdjust="spacingAndGlyphs" textLength="229" x="830.5" y="194.2935">PFCP Association Setup Request (5)</text><text fill="#000000" font-family="sans-serif" font-size="13" lengthAdjust="spacingAndGlyphs" textLength="164" x="830.5" y="209.4263">+11.218s (16:12:1.56.51)</text><path d="M1081,180.2266 L1081,205.2266 L1215,205.2266 L1215,190.2266 L1205,180.2266 L1081,180.2266 " fill="#03B5AA" style="stroke: #FFFFFF; stroke-width: 1.0;"/><path d="M1205,180.2266 L1205,190.2266 L1215,190.2266 L1205,180.2266 " fill="#03B5AA" style="stroke: #FFFFFF; stroke-width: 1.0;"/><text fill="#000000" font-family="sans-serif" font-size="13" font-weight="bold" lengthAdjust="spacingAndGlyphs" textLength="113" x="1087" y="197.2935">SGWC to SGWU</text><polygon fill="#000000" points="1064.5,269.8906,1074.5,273.8906,1064.5,277.8906,1068.5,273.8906" style="stroke: #000000; stroke-width: 1.0;"/><line style="stroke: #000000; stroke-width: 1.0;" x1="813.5" x2="1070.5" y1="273.8906" y2="273.8906"/><text fill="#000000" font-family="sans-serif" font-size="13" lengthAdjust="spacingAndGlyphs" textLength="100" x="820.5" y="238.5591">1692, PFCP rsp.</text><text fill="#000000" font-family="sans-serif" font-size="13" lengthAdjust="spacingAndGlyphs" textLength="239" x="820.5" y="253.6919">PFCP Association Setup Response (6)</text><text fill="#000000" font-family="sans-serif" font-size="13" lengthAdjust="spacingAndGlyphs" textLength="172" x="820.5" y="268.8247">+11.218s (16:12:1.56.627)</text><path d="M1081,239.625 L1081,264.625 L1215,264.625 L1215,249.625 L1205,239.625 L1081,239.625 " fill="#D7FEFC" style="stroke: #FFFFFF; stroke-width: 1.0;"/><path d="M1205,239.625 L1205,249.625 L1215,249.625 L1205,239.625 " fill="#D7FEFC" style="stroke: #FFFFFF; stroke-width: 1.0;"/><text fill="#000000" font-family="sans-serif" font-size="13" font-weight="bold" lengthAdjust="spacingAndGlyphs" textLength="113" x="1087" y="256.6919">SGWU to SGWC</text><polygon fill="#000000" points="742.5,329.2891,752.5,333.2891,742.5,337.2891,746.5,333.2891" style="stroke: #000000; stroke-width: 1.0;"/><line style="stroke: #000000; stroke-width: 1.0;" x1="453.5" x2="748.5" y1="333.2891" y2="333.2891"/><text fill="#000000" font-family="sans-serif" font-size="13" lengthAdjust="spacingAndGlyphs" textLength="101" x="460.5" y="297.9575">2287, PFCP req.</text><text fill="#000000" font-family="sans-serif" font-size="13" lengthAdjust="spacingAndGlyphs" textLength="229" x="460.5" y="313.0903">PFCP Association Setup Request (5)</text><text fill="#000000" font-family="sans-serif" font-size="13" lengthAdjust="spacingAndGlyphs" textLength="180" x="460.5" y="328.2231">+13.563s (16:12:3.401.762)</text><path d="M759,299.0234 L759,324.0234 L865,324.0234 L865,309.0234 L855,299.0234 L759,299.0234 " fill="#03B5AA" style="stroke: #FFFFFF; stroke-width: 1.0;"/><path d="M855,299.0234 L855,309.0234 L865,309.0234 L855,299.0234 " fill="#03B5AA" style="stroke: #FFFFFF; stroke-width: 1.0;"/><text fill="#000000" font-family="sans-serif" font-size="13" font-weight="bold" lengthAdjust="spacingAndGlyphs" textLength="85" x="765" y="316.0903">SMF to UPF</text><polygon fill="#000000" points="464.5,388.6875,454.5,392.6875,464.5,396.6875,460.5,392.6875" style="stroke: #000000; stroke-width: 1.0;"/><line style="stroke: #000000; stroke-width: 1.0;" x1="458.5" x2="753.5" y1="392.6875" y2="392.6875"/><text fill="#000000" font-family="sans-serif" font-size="13" lengthAdjust="spacingAndGlyphs" textLength="100" x="470.5" y="357.356">2288, PFCP rsp.</text><text fill="#000000" font-family="sans-serif" font-size="13" lengthAdjust="spacingAndGlyphs" textLength="239" x="470.5" y="372.4888">PFCP Association Setup Response (6)</text><text fill="#000000" font-family="sans-serif" font-size="13" lengthAdjust="spacingAndGlyphs" textLength="180" x="470.5" y="387.6216">+13.563s (16:12:3.401.931)</text><path d="M759,358.4219 L759,383.4219 L865,383.4219 L865,368.4219 L855,358.4219 L759,358.4219 " fill="#D7FEFC" style="stroke: #FFFFFF; stroke-width: 1.0;"/><path d="M855,358.4219 L855,368.4219 L865,368.4219 L855,358.4219 " fill="#D7FEFC" style="stroke: #FFFFFF; stroke-width: 1.0;"/><text fill="#000000" font-family="sans-serif" font-size="13" font-weight="bold" lengthAdjust="spacingAndGlyphs" textLength="85" x="765" y="375.4888">UPF to SMF</text><polygon fill="#000000" points="824.5,448.0859,814.5,452.0859,824.5,456.0859,820.5,452.0859" style="stroke: #000000; stroke-width: 1.0;"/><line style="stroke: #000000; stroke-width: 1.0;" x1="818.5" x2="1075.5" y1="452.0859" y2="452.0859"/><text fill="#000000" font-family="sans-serif" font-size="13" lengthAdjust="spacingAndGlyphs" textLength="101" x="830.5" y="416.7544">2858, PFCP req.</text><text fill="#000000" font-family="sans-serif" font-size="13" lengthAdjust="spacingAndGlyphs" textLength="229" x="830.5" y="431.8872">PFCP Association Setup Request (5)</text><text fill="#000000" font-family="sans-serif" font-size="13" lengthAdjust="spacingAndGlyphs" textLength="180" x="830.5" y="447.02">+29.740s (16:12:19.578.97)</text><path d="M1081,417.8203 L1081,442.8203 L1215,442.8203 L1215,427.8203 L1205,417.8203 L1081,417.8203 " fill="#03B5AA" style="stroke: #FFFFFF; stroke-width: 1.0;"/><path d="M1205,417.8203 L1205,427.8203 L1215,427.8203 L1205,417.8203 " fill="#03B5AA" style="stroke: #FFFFFF; stroke-width: 1.0;"/><text fill="#000000" font-family="sans-serif" font-size="13" font-weight="bold" lengthAdjust="spacingAndGlyphs" textLength="113" x="1087" y="434.8872">SGWC to SGWU</text><polygon fill="#000000" points="1064.5,507.4844,1074.5,511.4844,1064.5,515.4844,1068.5,511.4844" style="stroke: #000000; stroke-width: 1.0;"/><line style="stroke: #000000; stroke-width: 1.0;" x1="813.5" x2="1070.5" y1="511.4844" y2="511.4844"/><text fill="#000000" font-family="sans-serif" font-size="13" lengthAdjust="spacingAndGlyphs" textLength="100" x="820.5" y="476.1528">2859, PFCP rsp.</text><text fill="#000000" font-family="sans-serif" font-size="13" lengthAdjust="spacingAndGlyphs" textLength="239" x="820.5" y="491.2856">PFCP Association Setup Response (6)</text><text fill="#000000" font-family="sans-serif" font-size="13" lengthAdjust="spacingAndGlyphs" textLength="188" x="820.5" y="506.4185">+29.740s (16:12:19.579.122)</text><path d="M1081,477.2188 L1081,502.2188 L1215,502.2188 L1215,487.2188 L1205,477.2188 L1081,477.2188 " fill="#D7FEFC" style="stroke: #FFFFFF; stroke-width: 1.0;"/><path d="M1205,477.2188 L1205,487.2188 L1215,487.2188 L1205,477.2188 " fill="#D7FEFC" style="stroke: #FFFFFF; stroke-width: 1.0;"/><text fill="#000000" font-family="sans-serif" font-size="13" font-weight="bold" lengthAdjust="spacingAndGlyphs" textLength="113" x="1087" y="494.2856">SGWU to SGWC</text><polygon fill="#000000" points="388.5,551.75,398.5,555.75,388.5,559.75,392.5,555.75" style="stroke: #000000; stroke-width: 1.0;"/><line style="stroke: #000000; stroke-width: 1.0;" x1="72.5" x2="394.5" y1="555.75" y2="555.75"/><text fill="#000000" font-family="sans-serif" font-size="13" lengthAdjust="spacingAndGlyphs" textLength="169" x="79.5" y="535.5513">3333, NGAP NGSetup (21)</text><text fill="#000000" font-family="sans-serif" font-size="13" lengthAdjust="spacingAndGlyphs" textLength="180" x="79.5" y="550.6841">+46.533s (16:12:36.371.87)</text><path d="M405,529.0508 L405,554.0508 L514,554.0508 L514,539.0508 L504,529.0508 L405,529.0508 " fill="#CDDCF3" style="stroke: #FFFFFF; stroke-width: 1.0;"/><path d="M504,529.0508 L504,539.0508 L514,539.0508 L504,529.0508 " fill="#CDDCF3" style="stroke: #FFFFFF; stroke-width: 1.0;"/><text fill="#000000" font-family="sans-serif" font-size="13" font-weight="bold" lengthAdjust="spacingAndGlyphs" textLength="88" x="411" y="546.1177">gNB to AMF</text><polygon fill="#000000" points="83.5,596.0156,73.5,600.0156,83.5,604.0156,79.5,600.0156" style="stroke: #000000; stroke-width: 1.0;"/><line style="stroke: #000000; stroke-width: 1.0;" x1="77.5" x2="399.5" y1="600.0156" y2="600.0156"/><text fill="#000000" font-family="sans-serif" font-size="13" lengthAdjust="spacingAndGlyphs" textLength="169" x="89.5" y="579.8169">3339, NGAP NGSetup (21)</text><text fill="#000000" font-family="sans-serif" font-size="13" lengthAdjust="spacingAndGlyphs" textLength="188" x="89.5" y="594.9497">+46.724s (16:12:36.562.523)</text><path d="M405,573.3164 L405,598.3164 L514,598.3164 L514,583.3164 L504,573.3164 L405,573.3164 " fill="#CDDCF3" style="stroke: #FFFFFF; stroke-width: 1.0;"/><path d="M504,573.3164 L504,583.3164 L514,583.3164 L504,573.3164 " fill="#CDDCF3" style="stroke: #FFFFFF; stroke-width: 1.0;"/><text fill="#000000" font-family="sans-serif" font-size="13" font-weight="bold" lengthAdjust="spacingAndGlyphs" textLength="88" x="411" y="590.3833">AMF to gNB</text><polygon fill="#000000" points="388.5,640.2813,398.5,644.2813,388.5,648.2813,392.5,644.2813" style="stroke: #000000; stroke-width: 1.0;"/><line style="stroke: #000000; stroke-width: 1.0;" x1="72.5" x2="394.5" y1="644.2813" y2="644.2813"/><text fill="#000000" font-family="sans-serif" font-size="13" lengthAdjust="spacingAndGlyphs" textLength="169" x="79.5" y="624.0825">4016, NGAP NGSetup (21)</text><text fill="#000000" font-family="sans-serif" font-size="13" lengthAdjust="spacingAndGlyphs" textLength="180" x="79.5" y="639.2153">+71.505s (16:13:1.344.387)</text><path d="M405,617.582 L405,642.582 L514,642.582 L514,627.582 L504,617.582 L405,617.582 " fill="#CDDCF3" style="stroke: #FFFFFF; stroke-width: 1.0;"/><path d="M504,617.582 L504,627.582 L514,627.582 L504,617.582 " fill="#CDDCF3" style="stroke: #FFFFFF; stroke-width: 1.0;"/><text fill="#000000" font-family="sans-serif" font-size="13" font-weight="bold" lengthAdjust="spacingAndGlyphs" textLength="88" x="411" y="634.6489">gNB to AMF</text><polygon fill="#000000" points="83.5,684.5469,73.5,688.5469,83.5,692.5469,79.5,688.5469" style="stroke: #000000; stroke-width: 1.0;"/><line style="stroke: #000000; stroke-width: 1.0;" x1="77.5" x2="399.5" y1="688.5469" y2="688.5469"/><text fill="#000000" font-family="sans-serif" font-size="13" lengthAdjust="spacingAndGlyphs" textLength="169" x="89.5" y="668.3481">4018, NGAP NGSetup (21)</text><text fill="#000000" font-family="sans-serif" font-size="13" lengthAdjust="spacingAndGlyphs" textLength="180" x="89.5" y="683.481">+71.506s (16:13:1.345.093)</text><path d="M405,661.8477 L405,686.8477 L514,686.8477 L514,671.8477 L504,661.8477 L405,661.8477 " fill="#CDDCF3" style="stroke: #FFFFFF; stroke-width: 1.0;"/><path d="M504,661.8477 L504,671.8477 L514,671.8477 L504,661.8477 " fill="#CDDCF3" style="stroke: #FFFFFF; stroke-width: 1.0;"/><text fill="#000000" font-family="sans-serif" font-size="13" font-weight="bold" lengthAdjust="spacingAndGlyphs" textLength="88" x="411" y="678.9146">AMF to gNB</text><polygon fill="#000000" points="388.5,743.9453,398.5,747.9453,388.5,751.9453,392.5,747.9453" style="stroke: #000000; stroke-width: 1.0;"/><line style="stroke: #000000; stroke-width: 1.0;" x1="72.5" x2="394.5" y1="747.9453" y2="747.9453"/><text fill="#000000" font-family="sans-serif" font-size="13" lengthAdjust="spacingAndGlyphs" textLength="223" x="79.5" y="712.6138">4102, NGAP InitialUEMessage (15),</text><text fill="#000000" font-family="sans-serif" font-size="13" lengthAdjust="spacingAndGlyphs" textLength="206" x="79.5" y="727.7466">NAS Registration request (0x41)</text><text fill="#000000" font-family="sans-serif" font-size="13" lengthAdjust="spacingAndGlyphs" textLength="180" x="79.5" y="742.8794">+77.734s (16:13:7.572.706)</text><path d="M405,713.6797 L405,738.6797 L514,738.6797 L514,723.6797 L504,713.6797 L405,713.6797 " fill="#285AA4" style="stroke: #FFFFFF; stroke-width: 1.0;"/><path d="M504,713.6797 L504,723.6797 L514,723.6797 L504,713.6797 " fill="#285AA4" style="stroke: #FFFFFF; stroke-width: 1.0;"/><text fill="#000000" font-family="sans-serif" font-size="13" font-weight="bold" lengthAdjust="spacingAndGlyphs" textLength="88" x="411" y="730.7466">gNB to AMF</text><polygon fill="#000000" points="83.5,803.3438,73.5,807.3438,83.5,811.3438,79.5,807.3438" style="stroke: #000000; stroke-width: 1.0;"/><line style="stroke: #000000; stroke-width: 1.0;" x1="77.5" x2="399.5" y1="807.3438" y2="807.3438"/><text fill="#000000" font-family="sans-serif" font-size="13" lengthAdjust="spacingAndGlyphs" textLength="252" x="89.5" y="772.0122">4186, NGAP DownlinkNASTransport (4),</text><text fill="#000000" font-family="sans-serif" font-size="13" lengthAdjust="spacingAndGlyphs" textLength="223" x="89.5" y="787.145">NAS Authentication request (0x56)</text><text fill="#000000" font-family="sans-serif" font-size="13" lengthAdjust="spacingAndGlyphs" textLength="180" x="89.5" y="802.2778">+77.958s (16:13:7.796.975)</text><path d="M405,773.0781 L405,798.0781 L514,798.0781 L514,783.0781 L504,773.0781 L405,773.0781 " fill="#285AA4" style="stroke: #FFFFFF; stroke-width: 1.0;"/><path d="M504,773.0781 L504,783.0781 L514,783.0781 L504,773.0781 " fill="#285AA4" style="stroke: #FFFFFF; stroke-width: 1.0;"/><text fill="#000000" font-family="sans-serif" font-size="13" font-weight="bold" lengthAdjust="spacingAndGlyphs" textLength="88" x="411" y="790.145">AMF to gNB</text><polygon fill="#000000" points="388.5,862.7422,398.5,866.7422,388.5,870.7422,392.5,866.7422" style="stroke: #000000; stroke-width: 1.0;"/><line style="stroke: #000000; stroke-width: 1.0;" x1="72.5" x2="394.5" y1="866.7422" y2="866.7422"/><text fill="#000000" font-family="sans-serif" font-size="13" lengthAdjust="spacingAndGlyphs" textLength="243" x="79.5" y="831.4106">4187, NGAP UplinkNASTransport (46),</text><text fill="#000000" font-family="sans-serif" font-size="13" lengthAdjust="spacingAndGlyphs" textLength="233" x="79.5" y="846.5435">NAS Authentication response (0x57)</text><text fill="#000000" font-family="sans-serif" font-size="13" lengthAdjust="spacingAndGlyphs" textLength="180" x="79.5" y="861.6763">+77.959s (16:13:7.798.226)</text><path d="M405,832.4766 L405,857.4766 L514,857.4766 L514,842.4766 L504,832.4766 L405,832.4766 " fill="#CDDCF3" style="stroke: #FFFFFF; stroke-width: 1.0;"/><path d="M504,832.4766 L504,842.4766 L514,842.4766 L504,832.4766 " fill="#CDDCF3" style="stroke: #FFFFFF; stroke-width: 1.0;"/><text fill="#000000" font-family="sans-serif" font-size="13" font-weight="bold" lengthAdjust="spacingAndGlyphs" textLength="88" x="411" y="849.5435">gNB to AMF</text><polygon fill="#000000" points="83.5,922.1406,73.5,926.1406,83.5,930.1406,79.5,926.1406" style="stroke: #000000; stroke-width: 1.0;"/><line style="stroke: #000000; stroke-width: 1.0;" x1="77.5" x2="399.5" y1="926.1406" y2="926.1406"/><text fill="#000000" font-family="sans-serif" font-size="13" lengthAdjust="spacingAndGlyphs" textLength="252" x="89.5" y="890.8091">4214, NGAP DownlinkNASTransport (4),</text><text fill="#000000" font-family="sans-serif" font-size="13" lengthAdjust="spacingAndGlyphs" textLength="239" x="89.5" y="905.9419">NAS Security mode command (0x5d)</text><text fill="#000000" font-family="sans-serif" font-size="13" lengthAdjust="spacingAndGlyphs" textLength="180" x="89.5" y="921.0747">+77.976s (16:13:7.815.036)</text><path d="M405,891.875 L405,916.875 L514,916.875 L514,901.875 L504,891.875 L405,891.875 " fill="#CDDCF3" style="stroke: #FFFFFF; stroke-width: 1.0;"/><path d="M504,891.875 L504,901.875 L514,901.875 L504,891.875 " fill="#CDDCF3" style="stroke: #FFFFFF; stroke-width: 1.0;"/><text fill="#000000" font-family="sans-serif" font-size="13" font-weight="bold" lengthAdjust="spacingAndGlyphs" textLength="88" x="411" y="908.9419">AMF to gNB</text><polygon fill="#000000" points="388.5,996.6719,398.5,1000.6719,388.5,1004.6719,392.5,1000.6719" style="stroke: #000000; stroke-width: 1.0;"/><line style="stroke: #000000; stroke-width: 1.0;" x1="72.5" x2="394.5" y1="1000.6719" y2="1000.6719"/><text fill="#000000" font-family="sans-serif" font-size="13" lengthAdjust="spacingAndGlyphs" textLength="243" x="79.5" y="950.2075">4215, NGAP UplinkNASTransport (46),</text><text fill="#000000" font-family="sans-serif" font-size="13" lengthAdjust="spacingAndGlyphs" textLength="238" x="79.5" y="965.3403">NAS Security mode complete (0x5e),</text><text fill="#000000" font-family="sans-serif" font-size="13" lengthAdjust="spacingAndGlyphs" textLength="206" x="79.5" y="980.4731">NAS Registration request (0x41)</text><text fill="#000000" font-family="sans-serif" font-size="13" lengthAdjust="spacingAndGlyphs" textLength="180" x="79.5" y="995.606">+77.977s (16:13:7.816.049)</text><path d="M405,958.8398 L405,983.8398 L514,983.8398 L514,968.8398 L504,958.8398 L405,958.8398 " fill="#285AA4" style="stroke: #FFFFFF; stroke-width: 1.0;"/><path d="M504,958.8398 L504,968.8398 L514,968.8398 L504,958.8398 " fill="#285AA4" style="stroke: #FFFFFF; stroke-width: 1.0;"/><text fill="#000000" font-family="sans-serif" font-size="13" font-weight="bold" lengthAdjust="spacingAndGlyphs" textLength="88" x="411" y="975.9067">gNB to AMF</text><polygon fill="#000000" points="83.5,1056.0703,73.5,1060.0703,83.5,1064.0703,79.5,1060.0703" style="stroke: #000000; stroke-width: 1.0;"/><line style="stroke: #000000; stroke-width: 1.0;" x1="77.5" x2="399.5" y1="1060.0703" y2="1060.0703"/><text fill="#000000" font-family="sans-serif" font-size="13" lengthAdjust="spacingAndGlyphs" textLength="236" x="89.5" y="1024.7388">4328, NGAP InitialContextSetup (14),</text><text fill="#000000" font-family="sans-serif" font-size="13" lengthAdjust="spacingAndGlyphs" textLength="200" x="89.5" y="1039.8716">NAS Registration accept (0x42)</text><text fill="#000000" font-family="sans-serif" font-size="13" lengthAdjust="spacingAndGlyphs" textLength="180" x="89.5" y="1055.0044">+78.055s (16:13:7.894.064)</text><path d="M405,1025.8047 L405,1050.8047 L514,1050.8047 L514,1035.8047 L504,1025.8047 L405,1025.8047 " fill="#CDDCF3" style="stroke: #FFFFFF; stroke-width: 1.0;"/><path d="M504,1025.8047 L504,1035.8047 L514,1035.8047 L504,1025.8047 " fill="#CDDCF3" style="stroke: #FFFFFF; stroke-width: 1.0;"/><text fill="#000000" font-family="sans-serif" font-size="13" font-weight="bold" lengthAdjust="spacingAndGlyphs" textLength="88" x="411" y="1042.8716">AMF to gNB</text><polygon fill="#000000" points="388.5,1100.3359,398.5,1104.3359,388.5,1108.3359,392.5,1104.3359" style="stroke: #000000; stroke-width: 1.0;"/><line style="stroke: #000000; stroke-width: 1.0;" x1="72.5" x2="394.5" y1="1104.3359" y2="1104.3359"/><text fill="#000000" font-family="sans-serif" font-size="13" lengthAdjust="spacingAndGlyphs" textLength="232" x="79.5" y="1084.1372">4329, NGAP InitialContextSetup (14)</text><text fill="#000000" font-family="sans-serif" font-size="13" lengthAdjust="spacingAndGlyphs" textLength="180" x="79.5" y="1099.27">+78.057s (16:13:7.896.397)</text><path d="M405,1077.6367 L405,1102.6367 L514,1102.6367 L514,1087.6367 L504,1077.6367 L405,1077.6367 " fill="#CDDCF3" style="stroke: #FFFFFF; stroke-width: 1.0;"/><path d="M504,1077.6367 L504,1087.6367 L514,1087.6367 L504,1077.6367 " fill="#CDDCF3" style="stroke: #FFFFFF; stroke-width: 1.0;"/><text fill="#000000" font-family="sans-serif" font-size="13" font-weight="bold" lengthAdjust="spacingAndGlyphs" textLength="88" x="411" y="1094.7036">gNB to AMF</text><polygon fill="#000000" points="388.5,1190,398.5,1194,388.5,1198,392.5,1194" style="stroke: #000000; stroke-width: 1.0;"/><line style="stroke: #000000; stroke-width: 1.0;" x1="72.5" x2="394.5" y1="1194" y2="1194"/><text fill="#000000" font-family="sans-serif" font-size="13" lengthAdjust="spacingAndGlyphs" textLength="243" x="79.5" y="1128.4028">4335, NGAP UplinkNASTransport (46),</text><text fill="#000000" font-family="sans-serif" font-size="13" lengthAdjust="spacingAndGlyphs" textLength="221" x="79.5" y="1143.5356">NAS Registration complete (0x43),</text><text fill="#000000" font-family="sans-serif" font-size="13" lengthAdjust="spacingAndGlyphs" textLength="193" x="79.5" y="1158.6685">NAS UL NAS transport (0x67),</text><text fill="#000000" font-family="sans-serif" font-size="13" lengthAdjust="spacingAndGlyphs" textLength="304" x="79.5" y="1173.8013">NAS PDU session establishment request (0xc1)</text><text fill="#000000" font-family="sans-serif" font-size="13" lengthAdjust="spacingAndGlyphs" textLength="180" x="79.5" y="1188.9341">+78.262s (16:13:8.101.238)</text><path d="M405,1144.6016 L405,1169.6016 L514,1169.6016 L514,1154.6016 L504,1144.6016 L405,1144.6016 " fill="#285AA4" style="stroke: #FFFFFF; stroke-width: 1.0;"/><path d="M504,1144.6016 L504,1154.6016 L514,1154.6016 L504,1144.6016 " fill="#285AA4" style="stroke: #FFFFFF; stroke-width: 1.0;"/><text fill="#000000" font-family="sans-serif" font-size="13" font-weight="bold" lengthAdjust="spacingAndGlyphs" textLength="88" x="411" y="1161.6685">gNB to AMF</text><polygon fill="#000000" points="83.5,1249.3984,73.5,1253.3984,83.5,1257.3984,79.5,1253.3984" style="stroke: #000000; stroke-width: 1.0;"/><line style="stroke: #000000; stroke-width: 1.0;" x1="77.5" x2="399.5" y1="1253.3984" y2="1253.3984"/><text fill="#000000" font-family="sans-serif" font-size="13" lengthAdjust="spacingAndGlyphs" textLength="252" x="89.5" y="1218.0669">4336, NGAP DownlinkNASTransport (4),</text><text fill="#000000" font-family="sans-serif" font-size="13" lengthAdjust="spacingAndGlyphs" textLength="280" x="89.5" y="1233.1997">NAS Configuration update command (0x54)</text><text fill="#000000" font-family="sans-serif" font-size="13" lengthAdjust="spacingAndGlyphs" textLength="180" x="89.5" y="1248.3325">+78.263s (16:13:8.101.514)</text><path d="M405,1219.1328 L405,1244.1328 L514,1244.1328 L514,1229.1328 L504,1219.1328 L405,1219.1328 " fill="#CDDCF3" style="stroke: #FFFFFF; stroke-width: 1.0;"/><path d="M504,1219.1328 L504,1229.1328 L514,1229.1328 L504,1219.1328 " fill="#CDDCF3" style="stroke: #FFFFFF; stroke-width: 1.0;"/><text fill="#000000" font-family="sans-serif" font-size="13" font-weight="bold" lengthAdjust="spacingAndGlyphs" textLength="88" x="411" y="1236.1997">AMF to gNB</text><polygon fill="#000000" points="742.5,1308.7969,752.5,1312.7969,742.5,1316.7969,746.5,1312.7969" style="stroke: #000000; stroke-width: 1.0;"/><line style="stroke: #000000; stroke-width: 1.0;" x1="453.5" x2="748.5" y1="1312.7969" y2="1312.7969"/><text fill="#000000" font-family="sans-serif" font-size="13" lengthAdjust="spacingAndGlyphs" textLength="101" x="460.5" y="1277.4653">4479, PFCP req.</text><text fill="#000000" font-family="sans-serif" font-size="13" lengthAdjust="spacingAndGlyphs" textLength="267" x="460.5" y="1292.5981">PFCP Session Establishment Request (50)</text><text fill="#000000" font-family="sans-serif" font-size="13" lengthAdjust="spacingAndGlyphs" textLength="180" x="460.5" y="1307.731">+78.423s (16:13:8.261.513)</text><path d="M759,1278.5313 L759,1303.5313 L865,1303.5313 L865,1288.5313 L855,1278.5313 L759,1278.5313 " fill="#03B5AA" style="stroke: #FFFFFF; stroke-width: 1.0;"/><path d="M855,1278.5313 L855,1288.5313 L865,1288.5313 L855,1278.5313 " fill="#03B5AA" style="stroke: #FFFFFF; stroke-width: 1.0;"/><text fill="#000000" font-family="sans-serif" font-size="13" font-weight="bold" lengthAdjust="spacingAndGlyphs" textLength="85" x="765" y="1295.5981">SMF to UPF</text><polygon fill="#000000" points="464.5,1368.1953,454.5,1372.1953,464.5,1376.1953,460.5,1372.1953" style="stroke: #000000; stroke-width: 1.0;"/><line style="stroke: #000000; stroke-width: 1.0;" x1="458.5" x2="753.5" y1="1372.1953" y2="1372.1953"/><text fill="#000000" font-family="sans-serif" font-size="13" lengthAdjust="spacingAndGlyphs" textLength="100" x="470.5" y="1336.8638">4482, PFCP rsp.</text><text fill="#000000" font-family="sans-serif" font-size="13" lengthAdjust="spacingAndGlyphs" textLength="277" x="470.5" y="1351.9966">PFCP Session Establishment Response (51)</text><text fill="#000000" font-family="sans-serif" font-size="13" lengthAdjust="spacingAndGlyphs" textLength="180" x="470.5" y="1367.1294">+78.481s (16:13:8.319.628)</text><path d="M759,1337.9297 L759,1362.9297 L865,1362.9297 L865,1347.9297 L855,1337.9297 L759,1337.9297 " fill="#D7FEFC" style="stroke: #FFFFFF; stroke-width: 1.0;"/><path d="M855,1337.9297 L855,1347.9297 L865,1347.9297 L855,1337.9297 " fill="#D7FEFC" style="stroke: #FFFFFF; stroke-width: 1.0;"/><text fill="#000000" font-family="sans-serif" font-size="13" font-weight="bold" lengthAdjust="spacingAndGlyphs" textLength="85" x="765" y="1354.9966">UPF to SMF</text><polygon fill="#000000" points="83.5,1442.7266,73.5,1446.7266,83.5,1450.7266,79.5,1446.7266" style="stroke: #000000; stroke-width: 1.0;"/><line style="stroke: #000000; stroke-width: 1.0;" x1="77.5" x2="399.5" y1="1446.7266" y2="1446.7266"/><text fill="#000000" font-family="sans-serif" font-size="13" lengthAdjust="spacingAndGlyphs" textLength="290" x="89.5" y="1396.2622">4504, NGAP PDUSessionResourceSetup (29),</text><text fill="#000000" font-family="sans-serif" font-size="13" lengthAdjust="spacingAndGlyphs" textLength="193" x="89.5" y="1411.395">NAS DL NAS transport (0x68),</text><text fill="#000000" font-family="sans-serif" font-size="13" lengthAdjust="spacingAndGlyphs" textLength="298" x="89.5" y="1426.5278">NAS PDU session establishment accept (0xc2)</text><text fill="#000000" font-family="sans-serif" font-size="13" lengthAdjust="spacingAndGlyphs" textLength="180" x="89.5" y="1441.6606">+78.494s (16:13:8.333.052)</text><path d="M405,1404.8945 L405,1429.8945 L514,1429.8945 L514,1414.8945 L504,1404.8945 L405,1404.8945 " fill="#CDDCF3" style="stroke: #FFFFFF; stroke-width: 1.0;"/><path d="M504,1404.8945 L504,1414.8945 L514,1414.8945 L504,1404.8945 " fill="#CDDCF3" style="stroke: #FFFFFF; stroke-width: 1.0;"/><text fill="#000000" font-family="sans-serif" font-size="13" font-weight="bold" lengthAdjust="spacingAndGlyphs" textLength="88" x="411" y="1421.9614">AMF to gNB</text><polygon fill="#000000" points="388.5,1486.9922,398.5,1490.9922,388.5,1494.9922,392.5,1490.9922" style="stroke: #000000; stroke-width: 1.0;"/><line style="stroke: #000000; stroke-width: 1.0;" x1="72.5" x2="394.5" y1="1490.9922" y2="1490.9922"/><text fill="#000000" font-family="sans-serif" font-size="13" lengthAdjust="spacingAndGlyphs" textLength="286" x="79.5" y="1470.7935">4508, NGAP PDUSessionResourceSetup (29)</text><text fill="#000000" font-family="sans-serif" font-size="13" lengthAdjust="spacingAndGlyphs" textLength="180" x="79.5" y="1485.9263">+78.534s (16:13:8.372.931)</text><path d="M405,1464.293 L405,1489.293 L514,1489.293 L514,1474.293 L504,1464.293 L405,1464.293 " fill="#CDDCF3" style="stroke: #FFFFFF; stroke-width: 1.0;"/><path d="M504,1464.293 L504,1474.293 L514,1474.293 L504,1464.293 " fill="#CDDCF3" style="stroke: #FFFFFF; stroke-width: 1.0;"/><text fill="#000000" font-family="sans-serif" font-size="13" font-weight="bold" lengthAdjust="spacingAndGlyphs" textLength="88" x="411" y="1481.3599">gNB to AMF</text><polygon fill="#000000" points="742.5,1546.3906,752.5,1550.3906,742.5,1554.3906,746.5,1550.3906" style="stroke: #000000; stroke-width: 1.0;"/><line style="stroke: #000000; stroke-width: 1.0;" x1="453.5" x2="748.5" y1="1550.3906" y2="1550.3906"/><text fill="#000000" font-family="sans-serif" font-size="13" lengthAdjust="spacingAndGlyphs" textLength="101" x="460.5" y="1515.0591">4513, PFCP req.</text><text fill="#000000" font-family="sans-serif" font-size="13" lengthAdjust="spacingAndGlyphs" textLength="252" x="460.5" y="1530.1919">PFCP Session Modification Request (52)</text><text fill="#000000" font-family="sans-serif" font-size="13" lengthAdjust="spacingAndGlyphs" textLength="180" x="460.5" y="1545.3247">+78.540s (16:13:8.378.739)</text><path d="M759,1516.125 L759,1541.125 L865,1541.125 L865,1526.125 L855,1516.125 L759,1516.125 " fill="#03B5AA" style="stroke: #FFFFFF; stroke-width: 1.0;"/><path d="M855,1516.125 L855,1526.125 L865,1526.125 L855,1516.125 " fill="#03B5AA" style="stroke: #FFFFFF; stroke-width: 1.0;"/><text fill="#000000" font-family="sans-serif" font-size="13" font-weight="bold" lengthAdjust="spacingAndGlyphs" textLength="85" x="765" y="1533.1919">SMF to UPF</text><polygon fill="#000000" points="464.5,1605.7891,454.5,1609.7891,464.5,1613.7891,460.5,1609.7891" style="stroke: #000000; stroke-width: 1.0;"/><line style="stroke: #000000; stroke-width: 1.0;" x1="458.5" x2="753.5" y1="1609.7891" y2="1609.7891"/><text fill="#000000" font-family="sans-serif" font-size="13" lengthAdjust="spacingAndGlyphs" textLength="100" x="470.5" y="1574.4575">4514, PFCP rsp.</text><text fill="#000000" font-family="sans-serif" font-size="13" lengthAdjust="spacingAndGlyphs" textLength="262" x="470.5" y="1589.5903">PFCP Session Modification Response (53)</text><text fill="#000000" font-family="sans-serif" font-size="13" lengthAdjust="spacingAndGlyphs" textLength="172" x="470.5" y="1604.7231">+78.543s (16:13:8.381.73)</text><path d="M759,1575.5234 L759,1600.5234 L865,1600.5234 L865,1585.5234 L855,1575.5234 L759,1575.5234 " fill="#D7FEFC" style="stroke: #FFFFFF; stroke-width: 1.0;"/><path d="M855,1575.5234 L855,1585.5234 L865,1585.5234 L855,1575.5234 " fill="#D7FEFC" style="stroke: #FFFFFF; stroke-width: 1.0;"/><text fill="#000000" font-family="sans-serif" font-size="13" font-weight="bold" lengthAdjust="spacingAndGlyphs" textLength="85" x="765" y="1592.5903">UPF to SMF</text><polygon fill="#000000" points="742.5,1650.0547,752.5,1654.0547,742.5,1658.0547,746.5,1654.0547" style="stroke: #000000; stroke-width: 1.0;"/><line style="stroke: #000000; stroke-width: 1.0;" x1="72.5" x2="748.5" y1="1654.0547" y2="1654.0547"/><text fill="#000000" font-family="sans-serif" font-size="13" lengthAdjust="spacingAndGlyphs" textLength="178" x="79.5" y="1633.856">4600, GTP&lt;ICMP&gt; ping req.</text><text fill="#000000" font-family="sans-serif" font-size="13" lengthAdjust="spacingAndGlyphs" textLength="188" x="79.5" y="1648.9888">+87.104s (16:13:16.942.643)</text><path d="M759,1627.3555 L759,1652.3555 L865,1652.3555 L865,1637.3555 L855,1627.3555 L759,1627.3555 " fill="#5C8001" style="stroke: #FFFFFF; stroke-width: 1.0;"/><path d="M855,1627.3555 L855,1637.3555 L865,1637.3555 L855,1627.3555 " fill="#5C8001" style="stroke: #FFFFFF; stroke-width: 1.0;"/><text fill="#000000" font-family="sans-serif" font-size="13" font-weight="bold" lengthAdjust="spacingAndGlyphs" textLength="85" x="765" y="1644.4224">gNB to UPF</text><polygon fill="#000000" points="1134,1694.3203,1144,1698.3203,1134,1702.3203,1138,1698.3203" style="stroke: #000000; stroke-width: 1.0;"/><line style="stroke: #000000; stroke-width: 1.0;" x1="24.5" x2="1140" y1="1698.3203" y2="1698.3203"/><text fill="#000000" font-family="sans-serif" font-size="13" lengthAdjust="spacingAndGlyphs" textLength="131" x="31.5" y="1678.1216">4601, ICMP ping req.</text><text fill="#000000" font-family="sans-serif" font-size="13" lengthAdjust="spacingAndGlyphs" textLength="188" x="31.5" y="1693.2544">+87.104s (16:13:16.943.323)</text><path d="M1151,1671.6211 L1151,1696.6211 L1267,1696.6211 L1267,1681.6211 L1257,1671.6211 L1151,1671.6211 " fill="#5C8001" style="stroke: #FFFFFF; stroke-width: 1.0;"/><path d="M1257,1671.6211 L1257,1681.6211 L1267,1681.6211 L1257,1671.6211 " fill="#5C8001" style="stroke: #FFFFFF; stroke-width: 1.0;"/><text fill="#000000" font-family="sans-serif" font-size="13" font-weight="bold" lengthAdjust="spacingAndGlyphs" textLength="95" x="1157" y="1688.688">UE to 8.8.8.8</text><polygon fill="#000000" points="1134,1738.5859,1144,1742.5859,1134,1746.5859,1138,1742.5859" style="stroke: #000000; stroke-width: 1.0;"/><line style="stroke: #000000; stroke-width: 1.0;" x1="754.5" x2="1140" y1="1742.5859" y2="1742.5859"/><text fill="#000000" font-family="sans-serif" font-size="13" lengthAdjust="spacingAndGlyphs" textLength="131" x="761.5" y="1722.3872">4602, ICMP ping req.</text><text fill="#000000" font-family="sans-serif" font-size="13" lengthAdjust="spacingAndGlyphs" textLength="188" x="761.5" y="1737.52">+87.104s (16:13:16.943.359)</text><path d="M1151,1715.8867 L1151,1740.8867 L1277,1740.8867 L1277,1725.8867 L1267,1715.8867 L1151,1715.8867 " fill="#5C8001" style="stroke: #FFFFFF; stroke-width: 1.0;"/><path d="M1267,1715.8867 L1267,1725.8867 L1277,1725.8867 L1267,1715.8867 " fill="#5C8001" style="stroke: #FFFFFF; stroke-width: 1.0;"/><text fill="#000000" font-family="sans-serif" font-size="13" font-weight="bold" lengthAdjust="spacingAndGlyphs" textLength="105" x="1157" y="1732.9536">UPF to 8.8.8.8</text><polygon fill="#000000" points="765.5,1782.8516,755.5,1786.8516,765.5,1790.8516,761.5,1786.8516" style="stroke: #000000; stroke-width: 1.0;"/><line style="stroke: #000000; stroke-width: 1.0;" x1="759.5" x2="1145" y1="1786.8516" y2="1786.8516"/><text fill="#000000" font-family="sans-serif" font-size="13" lengthAdjust="spacingAndGlyphs" textLength="130" x="771.5" y="1766.6528">4603, ICMP ping rsp.</text><text fill="#000000" font-family="sans-serif" font-size="13" lengthAdjust="spacingAndGlyphs" textLength="188" x="771.5" y="1781.7856">+87.130s (16:13:16.968.956)</text><path d="M1151,1760.1523 L1151,1785.1523 L1277,1785.1523 L1277,1770.1523 L1267,1760.1523 L1151,1760.1523 " fill="#EDFEC2" style="stroke: #FFFFFF; stroke-width: 1.0;"/><path d="M1267,1760.1523 L1267,1770.1523 L1277,1770.1523 L1267,1760.1523 " fill="#EDFEC2" style="stroke: #FFFFFF; stroke-width: 1.0;"/><text fill="#000000" font-family="sans-serif" font-size="13" font-weight="bold" lengthAdjust="spacingAndGlyphs" textLength="105" x="1157" y="1777.2192">8.8.8.8 to UPF</text><polygon fill="#000000" points="35.5,1827.1172,25.5,1831.1172,35.5,1835.1172,31.5,1831.1172" style="stroke: #000000; stroke-width: 1.0;"/><line style="stroke: #000000; stroke-width: 1.0;" x1="29.5" x2="1145" y1="1831.1172" y2="1831.1172"/><text fill="#000000" font-family="sans-serif" font-size="13" lengthAdjust="spacingAndGlyphs" textLength="130" x="41.5" y="1810.9185">4604, ICMP ping rsp.</text><text fill="#000000" font-family="sans-serif" font-size="13" lengthAdjust="spacingAndGlyphs" textLength="188" x="41.5" y="1826.0513">+87.130s (16:13:16.969.018)</text><path d="M1151,1804.418 L1151,1829.418 L1267,1829.418 L1267,1814.418 L1257,1804.418 L1151,1804.418 " fill="#EDFEC2" style="stroke: #FFFFFF; stroke-width: 1.0;"/><path d="M1257,1804.418 L1257,1814.418 L1267,1814.418 L1257,1804.418 " fill="#EDFEC2" style="stroke: #FFFFFF; stroke-width: 1.0;"/><text fill="#000000" font-family="sans-serif" font-size="13" font-weight="bold" lengthAdjust="spacingAndGlyphs" textLength="95" x="1157" y="1821.4849">8.8.8.8 to UE</text><polygon fill="#000000" points="83.5,1871.3828,73.5,1875.3828,83.5,1879.3828,79.5,1875.3828" style="stroke: #000000; stroke-width: 1.0;"/><line style="stroke: #000000; stroke-width: 1.0;" x1="77.5" x2="753.5" y1="1875.3828" y2="1875.3828"/><text fill="#000000" font-family="sans-serif" font-size="13" lengthAdjust="spacingAndGlyphs" textLength="177" x="89.5" y="1855.1841">4605, GTP&lt;ICMP&gt; ping rsp.</text><text fill="#000000" font-family="sans-serif" font-size="13" lengthAdjust="spacingAndGlyphs" textLength="188" x="89.5" y="1870.3169">+87.130s (16:13:16.969.324)</text><path d="M759,1848.6836 L759,1873.6836 L865,1873.6836 L865,1858.6836 L855,1848.6836 L759,1848.6836 " fill="#EDFEC2" style="stroke: #FFFFFF; stroke-width: 1.0;"/><path d="M855,1848.6836 L855,1858.6836 L865,1858.6836 L855,1848.6836 " fill="#EDFEC2" style="stroke: #FFFFFF; stroke-width: 1.0;"/><text fill="#000000" font-family="sans-serif" font-size="13" font-weight="bold" lengthAdjust="spacingAndGlyphs" textLength="85" x="765" y="1865.7505">UPF to gNB</text><!--MD5=[4aa25070b2c157718732a9e422f6af51]
@startuml
skinparam shadowing false
skinparam NoteBorderColor white
skinparam sequence {
    ArrowColor black
    LifeLineBorderColor black
    LifeLineBackgroundColor black
    ParticipantBorderColor white
    ParticipantBackgroundColor #e6e6e6
}
participant "UE"
participant "gNB"
participant "AMF"
participant "SMF"
participant "UPF"
participant "SGWU"
participant "SGWC"
participant "8.8.8.8"

"SGWC" -> "SGWU": 1074, PFCP req.\nPFCP Association Setup Request (5)\n+4.486s (16:11:54.325.052)

note right #03B5AA
**SGWC to SGWU**
end note

"SGWU" -> "SGWC": 1223, PFCP rsp.\nPFCP Association Setup Response (6)\n+6.989s (16:11:56.828.319)

note right #D7FEFC
**SGWU to SGWC**
end note

"SGWC" -> "SGWU": 1691, PFCP req.\nPFCP Association Setup Request (5)\n+11.218s (16:12:1.56.51)

note right #03B5AA
**SGWC to SGWU**
end note

"SGWU" -> "SGWC": 1692, PFCP rsp.\nPFCP Association Setup Response (6)\n+11.218s (16:12:1.56.627)

note right #D7FEFC
**SGWU to SGWC**
end note

"SMF" -> "UPF": 2287, PFCP req.\nPFCP Association Setup Request (5)\n+13.563s (16:12:3.401.762)

note right #03B5AA
**SMF to UPF**
end note

"UPF" -> "SMF": 2288, PFCP rsp.\nPFCP Association Setup Response (6)\n+13.563s (16:12:3.401.931)

note right #D7FEFC
**UPF to SMF**
end note

"SGWC" -> "SGWU": 2858, PFCP req.\nPFCP Association Setup Request (5)\n+29.740s (16:12:19.578.97)

note right #03B5AA
**SGWC to SGWU**
end note

"SGWU" -> "SGWC": 2859, PFCP rsp.\nPFCP Association Setup Response (6)\n+29.740s (16:12:19.579.122)

note right #D7FEFC
**SGWU to SGWC**
end note

"gNB" -> "AMF": 3333, NGAP NGSetup (21)\n+46.533s (16:12:36.371.87)

note right #CDDCF3
**gNB to AMF**
end note

"AMF" -> "gNB": 3339, NGAP NGSetup (21)\n+46.724s (16:12:36.562.523)

note right #CDDCF3
**AMF to gNB**
end note

"gNB" -> "AMF": 4016, NGAP NGSetup (21)\n+71.505s (16:13:1.344.387)

note right #CDDCF3
**gNB to AMF**
end note

"AMF" -> "gNB": 4018, NGAP NGSetup (21)\n+71.506s (16:13:1.345.093)

note right #CDDCF3
**AMF to gNB**
end note

"gNB" -> "AMF": 4102, NGAP InitialUEMessage (15),\nNAS Registration request (0x41)\n+77.734s (16:13:7.572.706)

note right #285AA4
**gNB to AMF**
end note

"AMF" -> "gNB": 4186, NGAP DownlinkNASTransport (4),\nNAS Authentication request (0x56)\n+77.958s (16:13:7.796.975)

note right #285AA4
**AMF to gNB**
end note

"gNB" -> "AMF": 4187, NGAP UplinkNASTransport (46),\nNAS Authentication response (0x57)\n+77.959s (16:13:7.798.226)

note right #CDDCF3
**gNB to AMF**
end note

"AMF" -> "gNB": 4214, NGAP DownlinkNASTransport (4),\nNAS Security mode command (0x5d)\n+77.976s (16:13:7.815.036)

note right #CDDCF3
**AMF to gNB**
end note

"gNB" -> "AMF": 4215, NGAP UplinkNASTransport (46),\nNAS Security mode complete (0x5e),\nNAS Registration request (0x41)\n+77.977s (16:13:7.816.049)

note right #285AA4
**gNB to AMF**
end note

"AMF" -> "gNB": 4328, NGAP InitialContextSetup (14),\nNAS Registration accept (0x42)\n+78.055s (16:13:7.894.064)

note right #CDDCF3
**AMF to gNB**
end note

"gNB" -> "AMF": 4329, NGAP InitialContextSetup (14)\n+78.057s (16:13:7.896.397)

note right #CDDCF3
**gNB to AMF**
end note

"gNB" -> "AMF": 4335, NGAP UplinkNASTransport (46),\nNAS Registration complete (0x43),\nNAS UL NAS transport (0x67),\nNAS PDU session establishment request (0xc1)\n+78.262s (16:13:8.101.238)

note right #285AA4
**gNB to AMF**
end note

"AMF" -> "gNB": 4336, NGAP DownlinkNASTransport (4),\nNAS Configuration update command (0x54)\n+78.263s (16:13:8.101.514)

note right #CDDCF3
**AMF to gNB**
end note

"SMF" -> "UPF": 4479, PFCP req.\nPFCP Session Establishment Request (50)\n+78.423s (16:13:8.261.513)

note right #03B5AA
**SMF to UPF**
end note

"UPF" -> "SMF": 4482, PFCP rsp.\nPFCP Session Establishment Response (51)\n+78.481s (16:13:8.319.628)

note right #D7FEFC
**UPF to SMF**
end note

"AMF" -> "gNB": 4504, NGAP PDUSessionResourceSetup (29),\nNAS DL NAS transport (0x68),\nNAS PDU session establishment accept (0xc2)\n+78.494s (16:13:8.333.052)

note right #CDDCF3
**AMF to gNB**
end note

"gNB" -> "AMF": 4508, NGAP PDUSessionResourceSetup (29)\n+78.534s (16:13:8.372.931)

note right #CDDCF3
**gNB to AMF**
end note

"SMF" -> "UPF": 4513, PFCP req.\nPFCP Session Modification Request (52)\n+78.540s (16:13:8.378.739)

note right #03B5AA
**SMF to UPF**
end note

"UPF" -> "SMF": 4514, PFCP rsp.\nPFCP Session Modification Response (53)\n+78.543s (16:13:8.381.73)

note right #D7FEFC
**UPF to SMF**
end note

"gNB" -> "UPF": 4600, GTP<ICMP> ping req.\n+87.104s (16:13:16.942.643)

note right #5C8001
**gNB to UPF**
end note

"UE" -> "8.8.8.8": 4601, ICMP ping req.\n+87.104s (16:13:16.943.323)

note right #5C8001
**UE to 8.8.8.8**
end note

"UPF" -> "8.8.8.8": 4602, ICMP ping req.\n+87.104s (16:13:16.943.359)

note right #5C8001
**UPF to 8.8.8.8**
end note

"8.8.8.8" -> "UPF": 4603, ICMP ping rsp.\n+87.130s (16:13:16.968.956)

note right #EDFEC2
**8.8.8.8 to UPF**
end note

"8.8.8.8" -> "UE": 4604, ICMP ping rsp.\n+87.130s (16:13:16.969.018)

note right #EDFEC2
**8.8.8.8 to UE**
end note

"UPF" -> "gNB": 4605, GTP<ICMP> ping rsp.\n+87.130s (16:13:16.969.324)

note right #EDFEC2
**UPF to gNB**
end note

@enduml

PlantUML version 1.2019.12(Sun Nov 03 11:24:54 CET 2019)
(APACHE source distribution)
Java Runtime: OpenJDK Runtime Environment
JVM: OpenJDK 64-Bit Server VM
Java Version: 11.0.17+8-post-Ubuntu-1ubuntu220.04
Operating System: Linux
Default Encoding: UTF-8
Language: en
Country: US
--></g></svg>