<?xml version="1.0" encoding="UTF-8" standalone="no"?><svg xmlns="http://www.w3.org/2000/svg" xmlns:xlink="http://www.w3.org/1999/xlink" contentScriptType="application/ecmascript" contentStyleType="text/css" height="1376px" preserveAspectRatio="none" style="width:842px;height:1376px;" version="1.1" viewBox="0 0 842 1376" width="842px" zoomAndPan="magnify"><defs/><g><line style="stroke: #000000; stroke-width: 1.0; stroke-dasharray: 5.0,5.0;" x1="31" x2="31" y1="34.2969" y2="1335.7344"/><line style="stroke: #000000; stroke-width: 1.0; stroke-dasharray: 5.0,5.0;" x1="155.5" x2="155.5" y1="34.2969" y2="1335.7344"/><line style="stroke: #000000; stroke-width: 1.0; stroke-dasharray: 5.0,5.0;" x1="234.5" x2="234.5" y1="34.2969" y2="1335.7344"/><line style="stroke: #000000; stroke-width: 1.0; stroke-dasharray: 5.0,5.0;" x1="520.5" x2="520.5" y1="34.2969" y2="1335.7344"/><line style="stroke: #000000; stroke-width: 1.0; stroke-dasharray: 5.0,5.0;" x1="645.5" x2="645.5" y1="34.2969" y2="1335.7344"/><rect fill="#E6E6E6" height="30.2969" style="stroke: #FFFFFF; stroke-width: 1.5;" width="46" x="8" y="3"/><text fill="#000000" font-family="sans-serif" font-size="14" lengthAdjust="spacingAndGlyphs" textLength="32" x="15" y="22.9951">Lock</text><rect fill="#E6E6E6" height="30.2969" style="stroke: #FFFFFF; stroke-width: 1.5;" width="46" x="8" y="1334.7344"/><text fill="#000000" font-family="sans-serif" font-size="14" lengthAdjust="spacingAndGlyphs" textLength="32" x="15" y="1354.7295">Lock</text><rect fill="#E6E6E6" height="30.2969" style="stroke: #FFFFFF; stroke-width: 1.5;" width="95" x="108.5" y="3"/><text fill="#000000" font-family="sans-serif" font-size="14" lengthAdjust="spacingAndGlyphs" textLength="81" x="115.5" y="22.9951">Lock_Picker</text><rect fill="#E6E6E6" height="30.2969" style="stroke: #FFFFFF; stroke-width: 1.5;" width="95" x="108.5" y="1334.7344"/><text fill="#000000" font-family="sans-serif" font-size="14" lengthAdjust="spacingAndGlyphs" textLength="81" x="115.5" y="1354.7295">Lock_Picker</text><rect fill="#E6E6E6" height="30.2969" style="stroke: #FFFFFF; stroke-width: 1.5;" width="43" x="213.5" y="3"/><text fill="#000000" font-family="sans-serif" font-size="14" lengthAdjust="spacingAndGlyphs" textLength="29" x="220.5" y="22.9951">gNB</text><rect fill="#E6E6E6" height="30.2969" style="stroke: #FFFFFF; stroke-width: 1.5;" width="43" x="213.5" y="1334.7344"/><text fill="#000000" font-family="sans-serif" font-size="14" lengthAdjust="spacingAndGlyphs" textLength="29" x="220.5" y="1354.7295">gNB</text><rect fill="#E6E6E6" height="30.2969" style="stroke: #FFFFFF; stroke-width: 1.5;" width="41" x="500.5" y="3"/><text fill="#000000" font-family="sans-serif" font-size="14" lengthAdjust="spacingAndGlyphs" textLength="27" x="507.5" y="22.9951">UPF</text><rect fill="#E6E6E6" height="30.2969" style="stroke: #FFFFFF; stroke-width: 1.5;" width="41" x="500.5" y="1334.7344"/><text fill="#000000" font-family="sans-serif" font-size="14" lengthAdjust="spacingAndGlyphs" textLength="27" x="507.5" y="1354.7295">UPF</text><rect fill="#E6E6E6" height="30.2969" style="stroke: #FFFFFF; stroke-width: 1.5;" width="97" x="597.5" y="3"/><text fill="#000000" font-family="sans-serif" font-size="14" lengthAdjust="spacingAndGlyphs" textLength="83" x="604.5" y="22.9951">Lock_Server</text><rect fill="#E6E6E6" height="30.2969" style="stroke: #FFFFFF; stroke-width: 1.5;" width="97" x="597.5" y="1334.7344"/><text fill="#000000" font-family="sans-serif" font-size="14" lengthAdjust="spacingAndGlyphs" textLength="83" x="604.5" y="1354.7295">Lock_Server</text><polygon fill="#000000" points="509,76.5625,519,80.5625,509,84.5625,513,80.5625" style="stroke: #000000; stroke-width: 1.0;"/><line style="stroke: #000000; stroke-width: 1.0;" x1="235" x2="515" y1="80.5625" y2="80.5625"/><text fill="#000000" font-family="sans-serif" font-size="13" lengthAdjust="spacingAndGlyphs" textLength="102" x="242" y="60.3638">172, GTP&lt;KEY&gt;</text><text fill="#000000" font-family="sans-serif" font-size="13" lengthAdjust="spacingAndGlyphs" textLength="101" x="242" y="75.4966">Access Request</text><path d="M526,53.8633 L526,78.8633 L632,78.8633 L632,63.8633 L622,53.8633 L526,53.8633 " fill="#5C8001" style="stroke: #FFFFFF; stroke-width: 1.0;"/><path d="M622,53.8633 L622,63.8633 L632,63.8633 L622,53.8633 " fill="#5C8001" style="stroke: #FFFFFF; stroke-width: 1.0;"/><text fill="#000000" font-family="sans-serif" font-size="13" font-weight="bold" lengthAdjust="spacingAndGlyphs" textLength="85" x="532" y="70.9302">gNB to UPF</text><polygon fill="#000000" points="634,123.8281,644,127.8281,634,131.8281,638,127.8281" style="stroke: #000000; stroke-width: 1.0;"/><line style="stroke: #000000; stroke-width: 1.0;" x1="31" x2="640" y1="127.8281" y2="127.8281"/><text fill="#000000" font-family="sans-serif" font-size="13" lengthAdjust="spacingAndGlyphs" textLength="55" x="38" y="107.6294">173, KEY</text><text fill="#000000" font-family="sans-serif" font-size="13" lengthAdjust="spacingAndGlyphs" textLength="101" x="38" y="122.7622">Access Request</text><path d="M651,93.5625 L651,133.5625 L830,133.5625 L830,103.5625 L820,93.5625 L651,93.5625 " fill="#EDFEC2" style="stroke: #FFFFFF; stroke-width: 1.0;"/><path d="M820,93.5625 L820,103.5625 L830,103.5625 L820,93.5625 " fill="#EDFEC2" style="stroke: #FFFFFF; stroke-width: 1.0;"/><text fill="#000000" font-family="sans-serif" font-size="13" font-weight="bold" lengthAdjust="spacingAndGlyphs" textLength="147" x="657" y="110.6294">Lock to Lock_Server</text><text fill="#000000" font-family="sans-serif" font-size="13" lengthAdjust="spacingAndGlyphs" textLength="158" x="657" y="125.7622">&lt;User_ID&gt;:&lt;Password&gt;</text><polygon fill="#000000" points="634,171.0938,644,175.0938,634,179.0938,638,175.0938" style="stroke: #000000; stroke-width: 1.0;"/><line style="stroke: #000000; stroke-width: 1.0;" x1="521" x2="640" y1="175.0938" y2="175.0938"/><text fill="#000000" font-family="sans-serif" font-size="13" lengthAdjust="spacingAndGlyphs" textLength="55" x="528" y="154.895">173, KEY</text><text fill="#000000" font-family="sans-serif" font-size="13" lengthAdjust="spacingAndGlyphs" textLength="101" x="528" y="170.0278">Access Request</text><path d="M651,148.3945 L651,173.3945 L814,173.3945 L814,158.3945 L804,148.3945 L651,148.3945 " fill="#EDFEC2" style="stroke: #FFFFFF; stroke-width: 1.0;"/><path d="M804,148.3945 L804,158.3945 L814,158.3945 L804,148.3945 " fill="#EDFEC2" style="stroke: #FFFFFF; stroke-width: 1.0;"/><text fill="#000000" font-family="sans-serif" font-size="13" font-weight="bold" lengthAdjust="spacingAndGlyphs" textLength="142" x="657" y="165.4614">UPF to Lock_Server</text><polygon fill="#000000" points="532,215.3594,522,219.3594,532,223.3594,528,219.3594" style="stroke: #000000; stroke-width: 1.0;"/><line style="stroke: #000000; stroke-width: 1.0;" x1="526" x2="645" y1="219.3594" y2="219.3594"/><text fill="#000000" font-family="sans-serif" font-size="13" lengthAdjust="spacingAndGlyphs" textLength="55" x="538" y="199.1606">174, KEY</text><text fill="#000000" font-family="sans-serif" font-size="13" lengthAdjust="spacingAndGlyphs" textLength="94" x="538" y="214.2935">Access Denied</text><path d="M651,192.6602 L651,217.6602 L814,217.6602 L814,202.6602 L804,192.6602 L651,192.6602 " fill="#5C8001" style="stroke: #FFFFFF; stroke-width: 1.0;"/><path d="M804,192.6602 L804,202.6602 L814,202.6602 L804,192.6602 " fill="#5C8001" style="stroke: #FFFFFF; stroke-width: 1.0;"/><text fill="#000000" font-family="sans-serif" font-size="13" font-weight="bold" lengthAdjust="spacingAndGlyphs" textLength="142" x="657" y="209.7271">Lock_Server to UPF</text><polygon fill="#000000" points="42,259.625,32,263.625,42,267.625,38,263.625" style="stroke: #000000; stroke-width: 1.0;"/><line style="stroke: #000000; stroke-width: 1.0;" x1="36" x2="645" y1="263.625" y2="263.625"/><text fill="#000000" font-family="sans-serif" font-size="13" lengthAdjust="spacingAndGlyphs" textLength="55" x="48" y="243.4263">174, KEY</text><text fill="#000000" font-family="sans-serif" font-size="13" lengthAdjust="spacingAndGlyphs" textLength="94" x="48" y="258.5591">Access Denied</text><path d="M651,236.9258 L651,261.9258 L819,261.9258 L819,246.9258 L809,236.9258 L651,236.9258 " fill="#5C8001" style="stroke: #FFFFFF; stroke-width: 1.0;"/><path d="M809,236.9258 L809,246.9258 L819,246.9258 L809,236.9258 " fill="#5C8001" style="stroke: #FFFFFF; stroke-width: 1.0;"/><text fill="#000000" font-family="sans-serif" font-size="13" font-weight="bold" lengthAdjust="spacingAndGlyphs" textLength="147" x="657" y="253.9927">Lock_Server to Lock</text><polygon fill="#000000" points="246,303.8906,236,307.8906,246,311.8906,242,307.8906" style="stroke: #000000; stroke-width: 1.0;"/><line style="stroke: #000000; stroke-width: 1.0;" x1="240" x2="520" y1="307.8906" y2="307.8906"/><text fill="#000000" font-family="sans-serif" font-size="13" lengthAdjust="spacingAndGlyphs" textLength="102" x="252" y="287.6919">175, GTP&lt;KEY&gt;</text><text fill="#000000" font-family="sans-serif" font-size="13" lengthAdjust="spacingAndGlyphs" textLength="94" x="252" y="302.8247">Access Denied</text><path d="M526,281.1914 L526,306.1914 L632,306.1914 L632,291.1914 L622,281.1914 L526,281.1914 " fill="#EDFEC2" style="stroke: #FFFFFF; stroke-width: 1.0;"/><path d="M622,281.1914 L622,291.1914 L632,291.1914 L622,281.1914 " fill="#EDFEC2" style="stroke: #FFFFFF; stroke-width: 1.0;"/><text fill="#000000" font-family="sans-serif" font-size="13" font-weight="bold" lengthAdjust="spacingAndGlyphs" textLength="85" x="532" y="298.2583">UPF to gNB</text><polygon fill="#000000" points="509,348.1563,519,352.1563,509,356.1563,513,352.1563" style="stroke: #000000; stroke-width: 1.0;"/><line style="stroke: #000000; stroke-width: 1.0;" x1="235" x2="515" y1="352.1563" y2="352.1563"/><text fill="#000000" font-family="sans-serif" font-size="13" lengthAdjust="spacingAndGlyphs" textLength="140" x="242" y="331.9575">269, GTP&lt;PFCP req.&gt;</text><text fill="#000000" font-family="sans-serif" font-size="13" lengthAdjust="spacingAndGlyphs" textLength="229" x="242" y="347.0903">PFCP Association Setup Request (5)</text><path d="M526,325.457 L526,350.457 L632,350.457 L632,335.457 L622,325.457 L526,325.457 " fill="#5C8001" style="stroke: #FFFFFF; stroke-width: 1.0;"/><path d="M622,325.457 L622,335.457 L632,335.457 L622,325.457 " fill="#5C8001" style="stroke: #FFFFFF; stroke-width: 1.0;"/><text fill="#000000" font-family="sans-serif" font-size="13" font-weight="bold" lengthAdjust="spacingAndGlyphs" textLength="85" x="532" y="342.5239">gNB to UPF</text><polygon fill="#000000" points="509,392.4219,519,396.4219,509,400.4219,513,396.4219" style="stroke: #000000; stroke-width: 1.0;"/><line style="stroke: #000000; stroke-width: 1.0;" x1="156" x2="515" y1="396.4219" y2="396.4219"/><text fill="#000000" font-family="sans-serif" font-size="13" lengthAdjust="spacingAndGlyphs" textLength="93" x="163" y="376.2231">268, PFCP req.</text><text fill="#000000" font-family="sans-serif" font-size="13" lengthAdjust="spacingAndGlyphs" textLength="229" x="163" y="391.356">PFCP Association Setup Request (5)</text><path d="M526,369.7227 L526,394.7227 L688,394.7227 L688,379.7227 L678,369.7227 L526,369.7227 " fill="#FFC2D9" style="stroke: #FFFFFF; stroke-width: 1.0;"/><path d="M678,369.7227 L678,379.7227 L688,379.7227 L678,369.7227 " fill="#FFC2D9" style="stroke: #FFFFFF; stroke-width: 1.0;"/><text fill="#000000" font-family="sans-serif" font-size="13" font-weight="bold" lengthAdjust="spacingAndGlyphs" textLength="141" x="532" y="386.7896">Lock_Picker to UPF</text><polygon fill="#000000" points="167,436.6875,157,440.6875,167,444.6875,163,440.6875" style="stroke: #000000; stroke-width: 1.0;"/><line style="stroke: #000000; stroke-width: 1.0;" x1="161" x2="520" y1="440.6875" y2="440.6875"/><text fill="#000000" font-family="sans-serif" font-size="13" lengthAdjust="spacingAndGlyphs" textLength="92" x="173" y="420.4888">272, PFCP rsp.</text><text fill="#000000" font-family="sans-serif" font-size="13" lengthAdjust="spacingAndGlyphs" textLength="239" x="173" y="435.6216">PFCP Association Setup Response (6)</text><path d="M526,413.9883 L526,438.9883 L688,438.9883 L688,423.9883 L678,413.9883 L526,413.9883 " fill="#FFEAC2" style="stroke: #FFFFFF; stroke-width: 1.0;"/><path d="M678,413.9883 L678,423.9883 L688,423.9883 L678,413.9883 " fill="#FFEAC2" style="stroke: #FFFFFF; stroke-width: 1.0;"/><text fill="#000000" font-family="sans-serif" font-size="13" font-weight="bold" lengthAdjust="spacingAndGlyphs" textLength="141" x="532" y="431.0552">UPF to Lock_Picker</text><polygon fill="#000000" points="246,480.9531,236,484.9531,246,488.9531,242,484.9531" style="stroke: #000000; stroke-width: 1.0;"/><line style="stroke: #000000; stroke-width: 1.0;" x1="240" x2="520" y1="484.9531" y2="484.9531"/><text fill="#000000" font-family="sans-serif" font-size="13" lengthAdjust="spacingAndGlyphs" textLength="139" x="252" y="464.7544">273, GTP&lt;PFCP rsp.&gt;</text><text fill="#000000" font-family="sans-serif" font-size="13" lengthAdjust="spacingAndGlyphs" textLength="239" x="252" y="479.8872">PFCP Association Setup Response (6)</text><path d="M526,458.2539 L526,483.2539 L632,483.2539 L632,468.2539 L622,458.2539 L526,458.2539 " fill="#EDFEC2" style="stroke: #FFFFFF; stroke-width: 1.0;"/><path d="M622,458.2539 L622,468.2539 L632,468.2539 L622,458.2539 " fill="#EDFEC2" style="stroke: #FFFFFF; stroke-width: 1.0;"/><text fill="#000000" font-family="sans-serif" font-size="13" font-weight="bold" lengthAdjust="spacingAndGlyphs" textLength="85" x="532" y="475.3208">UPF to gNB</text><polygon fill="#000000" points="509,525.2188,519,529.2188,509,533.2188,513,529.2188" style="stroke: #000000; stroke-width: 1.0;"/><line style="stroke: #000000; stroke-width: 1.0;" x1="235" x2="515" y1="529.2188" y2="529.2188"/><text fill="#000000" font-family="sans-serif" font-size="13" lengthAdjust="spacingAndGlyphs" textLength="144" x="242" y="509.02">274,  GTP&lt;PFCP req.&gt;</text><text fill="#000000" font-family="sans-serif" font-size="13" lengthAdjust="spacingAndGlyphs" textLength="252" x="242" y="524.1528">PFCP Session Modification Request (52)</text><path d="M526,502.5195 L526,527.5195 L632,527.5195 L632,512.5195 L622,502.5195 L526,502.5195 " fill="#5C8001" style="stroke: #FFFFFF; stroke-width: 1.0;"/><path d="M622,502.5195 L622,512.5195 L632,512.5195 L622,502.5195 " fill="#5C8001" style="stroke: #FFFFFF; stroke-width: 1.0;"/><text fill="#000000" font-family="sans-serif" font-size="13" font-weight="bold" lengthAdjust="spacingAndGlyphs" textLength="85" x="532" y="519.5864">gNB to UPF</text><polygon fill="#000000" points="509,572.4844,519,576.4844,509,580.4844,513,576.4844" style="stroke: #000000; stroke-width: 1.0;"/><line style="stroke: #000000; stroke-width: 1.0;" x1="156" x2="515" y1="576.4844" y2="576.4844"/><text fill="#000000" font-family="sans-serif" font-size="13" lengthAdjust="spacingAndGlyphs" textLength="97" x="163" y="556.2856">275,  PFCP req.</text><text fill="#000000" font-family="sans-serif" font-size="13" lengthAdjust="spacingAndGlyphs" textLength="252" x="163" y="571.4185">PFCP Session Modification Request (52)</text><path d="M526,542.2188 L526,582.2188 L803,582.2188 L803,552.2188 L793,542.2188 L526,542.2188 " fill="#FFC2D9" style="stroke: #FFFFFF; stroke-width: 1.0;"/><path d="M793,542.2188 L793,552.2188 L803,552.2188 L793,542.2188 " fill="#FFC2D9" style="stroke: #FFFFFF; stroke-width: 1.0;"/><text fill="#000000" font-family="sans-serif" font-size="13" font-weight="bold" lengthAdjust="spacingAndGlyphs" textLength="141" x="532" y="559.2856">Lock_Picker to UPF</text><text fill="#000000" font-family="sans-serif" font-size="13" lengthAdjust="spacingAndGlyphs" textLength="256" x="532" y="574.4185">&lt;Lock_SEID&gt; gNB IP: &lt;Lock_Picker_IP&gt;</text><polygon fill="#000000" points="167,622.75,157,626.75,167,630.75,163,626.75" style="stroke: #000000; stroke-width: 1.0;"/><line style="stroke: #000000; stroke-width: 1.0;" x1="161" x2="520" y1="626.75" y2="626.75"/><text fill="#000000" font-family="sans-serif" font-size="13" lengthAdjust="spacingAndGlyphs" textLength="92" x="173" y="606.5513">277, PFCP rsp.</text><text fill="#000000" font-family="sans-serif" font-size="13" lengthAdjust="spacingAndGlyphs" textLength="262" x="173" y="621.6841">PFCP Session Modification Response (53)</text><path d="M526,592.4844 L526,632.4844 L688,632.4844 L688,602.4844 L678,592.4844 L526,592.4844 " fill="#FFEAC2" style="stroke: #FFFFFF; stroke-width: 1.0;"/><path d="M678,592.4844 L678,602.4844 L688,602.4844 L678,592.4844 " fill="#FFEAC2" style="stroke: #FFFFFF; stroke-width: 1.0;"/><text fill="#000000" font-family="sans-serif" font-size="13" font-weight="bold" lengthAdjust="spacingAndGlyphs" textLength="141" x="532" y="609.5513">UPF to Lock_Picker</text><text fill="#000000" font-family="sans-serif" font-size="13" lengthAdjust="spacingAndGlyphs" textLength="44" x="532" y="624.6841">Accept</text><polygon fill="#000000" points="246,670.0156,236,674.0156,246,678.0156,242,674.0156" style="stroke: #000000; stroke-width: 1.0;"/><line style="stroke: #000000; stroke-width: 1.0;" x1="240" x2="520" y1="674.0156" y2="674.0156"/><text fill="#000000" font-family="sans-serif" font-size="13" lengthAdjust="spacingAndGlyphs" textLength="139" x="252" y="653.8169">278, GTP&lt;PFCP rsp.&gt;</text><text fill="#000000" font-family="sans-serif" font-size="13" lengthAdjust="spacingAndGlyphs" textLength="262" x="252" y="668.9497">PFCP Session Modification Response (53)</text><path d="M526,647.3164 L526,672.3164 L632,672.3164 L632,657.3164 L622,647.3164 L526,647.3164 " fill="#EDFEC2" style="stroke: #FFFFFF; stroke-width: 1.0;"/><path d="M622,647.3164 L622,657.3164 L632,657.3164 L622,647.3164 " fill="#EDFEC2" style="stroke: #FFFFFF; stroke-width: 1.0;"/><text fill="#000000" font-family="sans-serif" font-size="13" font-weight="bold" lengthAdjust="spacingAndGlyphs" textLength="85" x="532" y="664.3833">UPF to gNB</text><polygon fill="#000000" points="509,714.2813,519,718.2813,509,722.2813,513,718.2813" style="stroke: #000000; stroke-width: 1.0;"/><line style="stroke: #000000; stroke-width: 1.0;" x1="235" x2="515" y1="718.2813" y2="718.2813"/><text fill="#000000" font-family="sans-serif" font-size="13" lengthAdjust="spacingAndGlyphs" textLength="102" x="242" y="698.0825">355, GTP&lt;KEY&gt;</text><text fill="#000000" font-family="sans-serif" font-size="13" lengthAdjust="spacingAndGlyphs" textLength="101" x="242" y="713.2153">Access Request</text><path d="M526,691.582 L526,716.582 L632,716.582 L632,701.582 L622,691.582 L526,691.582 " fill="#5C8001" style="stroke: #FFFFFF; stroke-width: 1.0;"/><path d="M622,691.582 L622,701.582 L632,701.582 L622,691.582 " fill="#5C8001" style="stroke: #FFFFFF; stroke-width: 1.0;"/><text fill="#000000" font-family="sans-serif" font-size="13" font-weight="bold" lengthAdjust="spacingAndGlyphs" textLength="85" x="532" y="708.6489">gNB to UPF</text><polygon fill="#000000" points="634,761.5469,644,765.5469,634,769.5469,638,765.5469" style="stroke: #000000; stroke-width: 1.0;"/><line style="stroke: #000000; stroke-width: 1.0;" x1="31" x2="640" y1="765.5469" y2="765.5469"/><text fill="#000000" font-family="sans-serif" font-size="13" lengthAdjust="spacingAndGlyphs" textLength="55" x="38" y="745.3481">356, KEY</text><text fill="#000000" font-family="sans-serif" font-size="13" lengthAdjust="spacingAndGlyphs" textLength="101" x="38" y="760.481">Access Request</text><path d="M651,731.2813 L651,771.2813 L830,771.2813 L830,741.2813 L820,731.2813 L651,731.2813 " fill="#EDFEC2" style="stroke: #FFFFFF; stroke-width: 1.0;"/><path d="M820,731.2813 L820,741.2813 L830,741.2813 L820,731.2813 " fill="#EDFEC2" style="stroke: #FFFFFF; stroke-width: 1.0;"/><text fill="#000000" font-family="sans-serif" font-size="13" font-weight="bold" lengthAdjust="spacingAndGlyphs" textLength="147" x="657" y="748.3481">Lock to Lock_Server</text><text fill="#000000" font-family="sans-serif" font-size="13" lengthAdjust="spacingAndGlyphs" textLength="158" x="657" y="763.481">&lt;User_ID&gt;:&lt;Password&gt;</text><polygon fill="#000000" points="634,808.8125,644,812.8125,634,816.8125,638,812.8125" style="stroke: #000000; stroke-width: 1.0;"/><line style="stroke: #000000; stroke-width: 1.0;" x1="521" x2="640" y1="812.8125" y2="812.8125"/><text fill="#000000" font-family="sans-serif" font-size="13" lengthAdjust="spacingAndGlyphs" textLength="55" x="528" y="792.6138">357, KEY</text><text fill="#000000" font-family="sans-serif" font-size="13" lengthAdjust="spacingAndGlyphs" textLength="101" x="528" y="807.7466">Access Request</text><path d="M651,786.1133 L651,811.1133 L814,811.1133 L814,796.1133 L804,786.1133 L651,786.1133 " fill="#EDFEC2" style="stroke: #FFFFFF; stroke-width: 1.0;"/><path d="M804,786.1133 L804,796.1133 L814,796.1133 L804,786.1133 " fill="#EDFEC2" style="stroke: #FFFFFF; stroke-width: 1.0;"/><text fill="#000000" font-family="sans-serif" font-size="13" font-weight="bold" lengthAdjust="spacingAndGlyphs" textLength="142" x="657" y="803.1802">UPF to Lock_Server</text><polygon fill="#000000" points="532,853.0781,522,857.0781,532,861.0781,528,857.0781" style="stroke: #000000; stroke-width: 1.0;"/><line style="stroke: #000000; stroke-width: 1.0;" x1="526" x2="645" y1="857.0781" y2="857.0781"/><text fill="#000000" font-family="sans-serif" font-size="13" lengthAdjust="spacingAndGlyphs" textLength="55" x="538" y="836.8794">358, KEY</text><text fill="#000000" font-family="sans-serif" font-size="13" lengthAdjust="spacingAndGlyphs" textLength="94" x="538" y="852.0122">Access Denied</text><path d="M651,830.3789 L651,855.3789 L814,855.3789 L814,840.3789 L804,830.3789 L651,830.3789 " fill="#5C8001" style="stroke: #FFFFFF; stroke-width: 1.0;"/><path d="M804,830.3789 L804,840.3789 L814,840.3789 L804,830.3789 " fill="#5C8001" style="stroke: #FFFFFF; stroke-width: 1.0;"/><text fill="#000000" font-family="sans-serif" font-size="13" font-weight="bold" lengthAdjust="spacingAndGlyphs" textLength="142" x="657" y="847.4458">Lock_Server to UPF</text><polygon fill="#000000" points="167,897.3438,157,901.3438,167,905.3438,163,901.3438" style="stroke: #000000; stroke-width: 1.0;"/><line style="stroke: #000000; stroke-width: 1.0;" x1="161" x2="520" y1="901.3438" y2="901.3438"/><text fill="#000000" font-family="sans-serif" font-size="13" lengthAdjust="spacingAndGlyphs" textLength="102" x="173" y="881.145">359, GTP&lt;KEY&gt;</text><text fill="#000000" font-family="sans-serif" font-size="13" lengthAdjust="spacingAndGlyphs" textLength="94" x="173" y="896.2778">Access Denied</text><path d="M526,874.6445 L526,899.6445 L688,899.6445 L688,884.6445 L678,874.6445 L526,874.6445 " fill="#EDFEC2" style="stroke: #FFFFFF; stroke-width: 1.0;"/><path d="M678,874.6445 L678,884.6445 L688,884.6445 L678,874.6445 " fill="#EDFEC2" style="stroke: #FFFFFF; stroke-width: 1.0;"/><text fill="#000000" font-family="sans-serif" font-size="13" font-weight="bold" lengthAdjust="spacingAndGlyphs" textLength="141" x="532" y="891.7114">UPF to Lock_Picker</text><polygon fill="#000000" points="246,941.6094,236,945.6094,246,949.6094,242,945.6094" style="stroke: #000000; stroke-width: 1.0;"/><line style="stroke: #000000; stroke-width: 1.0;" x1="240" x2="520" y1="945.6094" y2="945.6094"/><text fill="#000000" font-family="sans-serif" font-size="13" lengthAdjust="spacingAndGlyphs" textLength="149" x="252" y="925.4106">360, GTP&lt;GTP&lt;KEY&gt;&gt;</text><text fill="#000000" font-family="sans-serif" font-size="13" lengthAdjust="spacingAndGlyphs" textLength="94" x="252" y="940.5435">Access Denied</text><path d="M526,918.9102 L526,943.9102 L632,943.9102 L632,928.9102 L622,918.9102 L526,918.9102 " fill="#EDFEC2" style="stroke: #FFFFFF; stroke-width: 1.0;"/><path d="M622,918.9102 L622,928.9102 L632,928.9102 L622,918.9102 " fill="#EDFEC2" style="stroke: #FFFFFF; stroke-width: 1.0;"/><text fill="#000000" font-family="sans-serif" font-size="13" font-weight="bold" lengthAdjust="spacingAndGlyphs" textLength="85" x="532" y="935.9771">UPF to gNB</text><polygon fill="#000000" points="509,985.875,519,989.875,509,993.875,513,989.875" style="stroke: #000000; stroke-width: 1.0;"/><line style="stroke: #000000; stroke-width: 1.0;" x1="235" x2="515" y1="989.875" y2="989.875"/><text fill="#000000" font-family="sans-serif" font-size="13" lengthAdjust="spacingAndGlyphs" textLength="144" x="242" y="969.6763">371,  GTP&lt;PFCP req.&gt;</text><text fill="#000000" font-family="sans-serif" font-size="13" lengthAdjust="spacingAndGlyphs" textLength="252" x="242" y="984.8091">PFCP Session Modification Request (52)</text><path d="M526,963.1758 L526,988.1758 L632,988.1758 L632,973.1758 L622,963.1758 L526,963.1758 " fill="#5C8001" style="stroke: #FFFFFF; stroke-width: 1.0;"/><path d="M622,963.1758 L622,973.1758 L632,973.1758 L622,963.1758 " fill="#5C8001" style="stroke: #FFFFFF; stroke-width: 1.0;"/><text fill="#000000" font-family="sans-serif" font-size="13" font-weight="bold" lengthAdjust="spacingAndGlyphs" textLength="85" x="532" y="980.2427">gNB to UPF</text><polygon fill="#000000" points="509,1033.1406,519,1037.1406,509,1041.1406,513,1037.1406" style="stroke: #000000; stroke-width: 1.0;"/><line style="stroke: #000000; stroke-width: 1.0;" x1="156" x2="515" y1="1037.1406" y2="1037.1406"/><text fill="#000000" font-family="sans-serif" font-size="13" lengthAdjust="spacingAndGlyphs" textLength="97" x="163" y="1016.9419">372,  PFCP req.</text><text fill="#000000" font-family="sans-serif" font-size="13" lengthAdjust="spacingAndGlyphs" textLength="252" x="163" y="1032.0747">PFCP Session Modification Request (52)</text><path d="M526,1002.875 L526,1042.875 L755,1042.875 L755,1012.875 L745,1002.875 L526,1002.875 " fill="#FFC2D9" style="stroke: #FFFFFF; stroke-width: 1.0;"/><path d="M745,1002.875 L745,1012.875 L755,1012.875 L745,1002.875 " fill="#FFC2D9" style="stroke: #FFFFFF; stroke-width: 1.0;"/><text fill="#000000" font-family="sans-serif" font-size="13" font-weight="bold" lengthAdjust="spacingAndGlyphs" textLength="141" x="532" y="1019.9419">Lock_Picker to UPF</text><text fill="#000000" font-family="sans-serif" font-size="13" lengthAdjust="spacingAndGlyphs" textLength="208" x="532" y="1035.0747">&lt;Lock_SEID&gt; gNB IP: &lt;gNb_IP&gt;</text><polygon fill="#000000" points="167,1083.4063,157,1087.4063,167,1091.4063,163,1087.4063" style="stroke: #000000; stroke-width: 1.0;"/><line style="stroke: #000000; stroke-width: 1.0;" x1="161" x2="520" y1="1087.4063" y2="1087.4063"/><text fill="#000000" font-family="sans-serif" font-size="13" lengthAdjust="spacingAndGlyphs" textLength="92" x="173" y="1067.2075">373, PFCP rsp.</text><text fill="#000000" font-family="sans-serif" font-size="13" lengthAdjust="spacingAndGlyphs" textLength="262" x="173" y="1082.3403">PFCP Session Modification Response (53)</text><path d="M526,1053.1406 L526,1093.1406 L688,1093.1406 L688,1063.1406 L678,1053.1406 L526,1053.1406 " fill="#FFEAC2" style="stroke: #FFFFFF; stroke-width: 1.0;"/><path d="M678,1053.1406 L678,1063.1406 L688,1063.1406 L678,1053.1406 " fill="#FFEAC2" style="stroke: #FFFFFF; stroke-width: 1.0;"/><text fill="#000000" font-family="sans-serif" font-size="13" font-weight="bold" lengthAdjust="spacingAndGlyphs" textLength="141" x="532" y="1070.2075">UPF to Lock_Picker</text><text fill="#000000" font-family="sans-serif" font-size="13" lengthAdjust="spacingAndGlyphs" textLength="44" x="532" y="1085.3403">Accept</text><polygon fill="#000000" points="246,1130.6719,236,1134.6719,246,1138.6719,242,1134.6719" style="stroke: #000000; stroke-width: 1.0;"/><line style="stroke: #000000; stroke-width: 1.0;" x1="240" x2="520" y1="1134.6719" y2="1134.6719"/><text fill="#000000" font-family="sans-serif" font-size="13" lengthAdjust="spacingAndGlyphs" textLength="139" x="252" y="1114.4731">374, GTP&lt;PFCP rsp.&gt;</text><text fill="#000000" font-family="sans-serif" font-size="13" lengthAdjust="spacingAndGlyphs" textLength="262" x="252" y="1129.606">PFCP Session Modification Response (53)</text><path d="M526,1107.9727 L526,1132.9727 L632,1132.9727 L632,1117.9727 L622,1107.9727 L526,1107.9727 " fill="#EDFEC2" style="stroke: #FFFFFF; stroke-width: 1.0;"/><path d="M622,1107.9727 L622,1117.9727 L632,1117.9727 L622,1107.9727 " fill="#EDFEC2" style="stroke: #FFFFFF; stroke-width: 1.0;"/><text fill="#000000" font-family="sans-serif" font-size="13" font-weight="bold" lengthAdjust="spacingAndGlyphs" textLength="85" x="532" y="1125.0396">UPF to gNB</text><polygon fill="#000000" points="509,1174.9375,519,1178.9375,509,1182.9375,513,1178.9375" style="stroke: #000000; stroke-width: 1.0;"/><line style="stroke: #000000; stroke-width: 1.0;" x1="235" x2="515" y1="1178.9375" y2="1178.9375"/><text fill="#000000" font-family="sans-serif" font-size="13" lengthAdjust="spacingAndGlyphs" textLength="102" x="242" y="1158.7388">172, GTP&lt;KEY&gt;</text><text fill="#000000" font-family="sans-serif" font-size="13" lengthAdjust="spacingAndGlyphs" textLength="101" x="242" y="1173.8716">Access Granted</text><path d="M526,1152.2383 L526,1177.2383 L632,1177.2383 L632,1162.2383 L622,1152.2383 L526,1152.2383 " fill="#5C8001" style="stroke: #FFFFFF; stroke-width: 1.0;"/><path d="M622,1152.2383 L622,1162.2383 L632,1162.2383 L622,1152.2383 " fill="#5C8001" style="stroke: #FFFFFF; stroke-width: 1.0;"/><text fill="#000000" font-family="sans-serif" font-size="13" font-weight="bold" lengthAdjust="spacingAndGlyphs" textLength="85" x="532" y="1169.3052">gNB to UPF</text><polygon fill="#000000" points="42,1222.2031,32,1226.2031,42,1230.2031,38,1226.2031" style="stroke: #000000; stroke-width: 1.0;"/><line style="stroke: #000000; stroke-width: 1.0;" x1="36" x2="155" y1="1226.2031" y2="1226.2031"/><text fill="#000000" font-family="sans-serif" font-size="13" lengthAdjust="spacingAndGlyphs" textLength="55" x="48" y="1206.0044">173, KEY</text><text fill="#000000" font-family="sans-serif" font-size="13" lengthAdjust="spacingAndGlyphs" textLength="101" x="48" y="1221.1372">Access Granted</text><path d="M161,1191.9375 L161,1231.9375 L340,1231.9375 L340,1201.9375 L330,1191.9375 L161,1191.9375 " fill="#EDFEC2" style="stroke: #FFFFFF; stroke-width: 1.0;"/><path d="M330,1191.9375 L330,1201.9375 L340,1201.9375 L330,1191.9375 " fill="#EDFEC2" style="stroke: #FFFFFF; stroke-width: 1.0;"/><text fill="#000000" font-family="sans-serif" font-size="13" font-weight="bold" lengthAdjust="spacingAndGlyphs" textLength="146" x="167" y="1209.0044">Lock_Picker to Lock</text><text fill="#000000" font-family="sans-serif" font-size="13" lengthAdjust="spacingAndGlyphs" textLength="158" x="167" y="1224.1372">&lt;User_ID&gt;:&lt;Password&gt;</text><polygon fill="#000000" points="42,1269.4688,32,1273.4688,42,1277.4688,38,1273.4688" style="stroke: #000000; stroke-width: 1.0;"/><line style="stroke: #000000; stroke-width: 1.0;" x1="36" x2="520" y1="1273.4688" y2="1273.4688"/><text fill="#000000" font-family="sans-serif" font-size="13" lengthAdjust="spacingAndGlyphs" textLength="55" x="48" y="1253.27">173, KEY</text><text fill="#000000" font-family="sans-serif" font-size="13" lengthAdjust="spacingAndGlyphs" textLength="101" x="48" y="1268.4028">Access Granted</text><path d="M526,1246.7695 L526,1271.7695 L635,1271.7695 L635,1256.7695 L625,1246.7695 L526,1246.7695 " fill="#EDFEC2" style="stroke: #FFFFFF; stroke-width: 1.0;"/><path d="M625,1246.7695 L625,1256.7695 L635,1256.7695 L625,1246.7695 " fill="#EDFEC2" style="stroke: #FFFFFF; stroke-width: 1.0;"/><text fill="#000000" font-family="sans-serif" font-size="13" font-weight="bold" lengthAdjust="spacingAndGlyphs" textLength="88" x="532" y="1263.8364">UPF to Lock</text><polygon fill="#000000" points="246,1313.7344,236,1317.7344,246,1321.7344,242,1317.7344" style="stroke: #000000; stroke-width: 1.0;"/><line style="stroke: #000000; stroke-width: 1.0;" x1="240" x2="520" y1="1317.7344" y2="1317.7344"/><text fill="#000000" font-family="sans-serif" font-size="13" lengthAdjust="spacingAndGlyphs" textLength="102" x="252" y="1297.5356">374, GTP&lt;KEY&gt;</text><text fill="#000000" font-family="sans-serif" font-size="13" lengthAdjust="spacingAndGlyphs" textLength="101" x="252" y="1312.6685">Access Granted</text><path d="M526,1291.0352 L526,1316.0352 L632,1316.0352 L632,1301.0352 L622,1291.0352 L526,1291.0352 " fill="#EDFEC2" style="stroke: #FFFFFF; stroke-width: 1.0;"/><path d="M622,1291.0352 L622,1301.0352 L632,1301.0352 L622,1291.0352 " fill="#EDFEC2" style="stroke: #FFFFFF; stroke-width: 1.0;"/><text fill="#000000" font-family="sans-serif" font-size="13" font-weight="bold" lengthAdjust="spacingAndGlyphs" textLength="85" x="532" y="1308.1021">UPF to gNB</text><!--MD5=[1af536e5778b800bfa8e78cdb726b563]
@startuml
skinparam shadowing false
skinparam NoteBorderColor white
skinparam sequence {
    ArrowColor black
    LifeLineBorderColor black
    LifeLineBackgroundColor black
    ParticipantBorderColor white
    ParticipantBackgroundColor #e6e6e6
}
participant "Lock"
participant "Lock_Picker"
participant "gNB"
participant "UPF"
participant "Lock_Server"

"gNB" -> "UPF": 172, GTP<KEY>\nAccess Request
note right #5C8001
**gNB to UPF**
end note

"Lock" -> "Lock_Server": 173, KEY\nAccess Request
note right #EDFEC2
**Lock to Lock_Server**
<User_ID>:<Password>
end note

"UPF" -> "Lock_Server": 173, KEY\nAccess Request
note right #EDFEC2
**UPF to Lock_Server**
end note

"Lock_Server" -> "UPF": 174, KEY\nAccess Denied
note right #5C8001
**Lock_Server to UPF**
end note

"Lock_Server" -> "Lock": 174, KEY\nAccess Denied
note right #5C8001
**Lock_Server to Lock**
end note

"UPF" -> "gNB": 175, GTP<KEY>\nAccess Denied

note right #EDFEC2
**UPF to gNB**
end note


"gNB" -> "UPF": 269, GTP<PFCP req.>\nPFCP Association Setup Request (5)
note right #5C8001
**gNB to UPF**
end note

"Lock_Picker" -> "UPF": 268, PFCP req.\nPFCP Association Setup Request (5)

note right #FFC2D9
**Lock_Picker to UPF**
end note

"UPF" -> "Lock_Picker": 272, PFCP rsp.\nPFCP Association Setup Response (6)

note right #FFEAC2
**UPF to Lock_Picker**
end note

"UPF" -> "gNB": 273, GTP<PFCP rsp.>\nPFCP Association Setup Response (6)

note right #EDFEC2
**UPF to gNB**
end note


"gNB" -> "UPF": 274,  GTP<PFCP req.>\nPFCP Session Modification Request (52)

note right #5C8001
**gNB to UPF**
end note

"Lock_Picker" -> "UPF": 275,  PFCP req.\nPFCP Session Modification Request (52)

note right #FFC2D9
**Lock_Picker to UPF**
<Lock_SEID> gNB IP: <Lock_Picker_IP>
end note

"UPF" -> "Lock_Picker": 277, PFCP rsp.\nPFCP Session Modification Response (53)

note right #FFEAC2
**UPF to Lock_Picker**
Accept
end note

"UPF" -> "gNB": 278, GTP<PFCP rsp.>\nPFCP Session Modification Response (53)

note right #EDFEC2
**UPF to gNB**
end note


"gNB" -> "UPF": 355, GTP<KEY>\nAccess Request
note right #5C8001
**gNB to UPF**
end note

"Lock" -> "Lock_Server": 356, KEY\nAccess Request
note right #EDFEC2
**Lock to Lock_Server**
<User_ID>:<Password>
end note

"UPF" -> "Lock_Server": 357, KEY\nAccess Request
note right #EDFEC2
**UPF to Lock_Server**
end note

"Lock_Server" -> "UPF": 358, KEY\nAccess Denied
note right #5C8001
**Lock_Server to UPF**
end note

"UPF" -> "Lock_Picker": 359, GTP<KEY>\nAccess Denied

note right #EDFEC2
**UPF to Lock_Picker**
end note

"UPF" -> "gNB": 360, GTP<GTP<KEY>>\nAccess Denied

note right #EDFEC2
**UPF to gNB**
end note


"gNB" -> "UPF": 371,  GTP<PFCP req.>\nPFCP Session Modification Request (52)

note right #5C8001
**gNB to UPF**
end note

"Lock_Picker" -> "UPF": 372,  PFCP req.\nPFCP Session Modification Request (52)

note right #FFC2D9
**Lock_Picker to UPF**
<Lock_SEID> gNB IP: <gNb_IP>
end note

"UPF" -> "Lock_Picker": 373, PFCP rsp.\nPFCP Session Modification Response (53)

note right #FFEAC2
**UPF to Lock_Picker**
Accept
end note

"UPF" -> "gNB": 374, GTP<PFCP rsp.>\nPFCP Session Modification Response (53)

note right #EDFEC2
**UPF to gNB**
end note

"gNB" -> "UPF": 172, GTP<KEY>\nAccess Granted
note right #5C8001
**gNB to UPF**
end note

"Lock_Picker" -> "Lock": 173, KEY\nAccess Granted
note right #EDFEC2
**Lock_Picker to Lock**
<User_ID>:<Password>
end note

"UPF" -> "Lock": 173, KEY\nAccess Granted
note right #EDFEC2
**UPF to Lock**
end note

"UPF" -> "gNB": 374, GTP<KEY>\nAccess Granted

note right #EDFEC2
**UPF to gNB**
end note
@enduml

PlantUML version 1.2019.12(Sun Nov 03 11:24:54 CET 2019)
(APACHE source distribution)
Java Runtime: OpenJDK Runtime Environment
JVM: OpenJDK 64-Bit Server VM
Java Version: 11.0.18+10-post-Ubuntu-0ubuntu120.04.1
Operating System: Linux
Default Encoding: UTF-8
Language: en
Country: US
--></g></svg>