<?xml version="1.0" encoding="UTF-8" standalone="no"?><svg xmlns="http://www.w3.org/2000/svg" xmlns:xlink="http://www.w3.org/1999/xlink" contentScriptType="application/ecmascript" contentStyleType="text/css" height="1259px" preserveAspectRatio="none" style="width:1323px;height:1259px;" version="1.1" viewBox="0 0 1323 1259" width="1323px" zoomAndPan="magnify"><defs/><g><line style="stroke: #000000; stroke-width: 1.0; stroke-dasharray: 5.0,5.0;" x1="32" x2="32" y1="34.2969" y2="1218.7422"/><line style="stroke: #000000; stroke-width: 1.0; stroke-dasharray: 5.0,5.0;" x1="88" x2="88" y1="34.2969" y2="1218.7422"/><line style="stroke: #000000; stroke-width: 1.0; stroke-dasharray: 5.0,5.0;" x1="141" x2="141" y1="34.2969" y2="1218.7422"/><line style="stroke: #000000; stroke-width: 1.0; stroke-dasharray: 5.0,5.0;" x1="194" x2="194" y1="34.2969" y2="1218.7422"/><line style="stroke: #000000; stroke-width: 1.0; stroke-dasharray: 5.0,5.0;" x1="246" x2="246" y1="34.2969" y2="1218.7422"/><line style="stroke: #000000; stroke-width: 1.0; stroke-dasharray: 5.0,5.0;" x1="305" x2="305" y1="34.2969" y2="1218.7422"/><line style="stroke: #000000; stroke-width: 1.0; stroke-dasharray: 5.0,5.0;" x1="372" x2="372" y1="34.2969" y2="1218.7422"/><line style="stroke: #000000; stroke-width: 1.0; stroke-dasharray: 5.0,5.0;" x1="432" x2="432" y1="34.2969" y2="1218.7422"/><line style="stroke: #000000; stroke-width: 1.0; stroke-dasharray: 5.0,5.0;" x1="941" x2="941" y1="34.2969" y2="1218.7422"/><line style="stroke: #000000; stroke-width: 1.0; stroke-dasharray: 5.0,5.0;" x1="996" x2="996" y1="34.2969" y2="1218.7422"/><line style="stroke: #000000; stroke-width: 1.0; stroke-dasharray: 5.0,5.0;" x1="1047" x2="1047" y1="34.2969" y2="1218.7422"/><line style="stroke: #000000; stroke-width: 1.0; stroke-dasharray: 5.0,5.0;" x1="1100" x2="1100" y1="34.2969" y2="1218.7422"/><line style="stroke: #000000; stroke-width: 1.0; stroke-dasharray: 5.0,5.0;" x1="1164" x2="1164" y1="34.2969" y2="1218.7422"/><line style="stroke: #000000; stroke-width: 1.0; stroke-dasharray: 5.0,5.0;" x1="1230" x2="1230" y1="34.2969" y2="1218.7422"/><line style="stroke: #000000; stroke-width: 1.0; stroke-dasharray: 5.0,5.0;" x1="1288" x2="1288" y1="34.2969" y2="1218.7422"/><rect fill="#E6E6E6" height="30.2969" style="stroke: #FFFFFF; stroke-width: 1.5;" width="49" x="8" y="3"/><text fill="#000000" font-family="sans-serif" font-size="14" lengthAdjust="spacingAndGlyphs" textLength="35" x="15" y="22.9951">UE_1</text><rect fill="#E6E6E6" height="30.2969" style="stroke: #FFFFFF; stroke-width: 1.5;" width="49" x="8" y="1217.7422"/><text fill="#000000" font-family="sans-serif" font-size="14" lengthAdjust="spacingAndGlyphs" textLength="35" x="15" y="1237.7373">UE_1</text><rect fill="#E6E6E6" height="30.2969" style="stroke: #FFFFFF; stroke-width: 1.5;" width="43" x="67" y="3"/><text fill="#000000" font-family="sans-serif" font-size="14" lengthAdjust="spacingAndGlyphs" textLength="29" x="74" y="22.9951">gNB</text><rect fill="#E6E6E6" height="30.2969" style="stroke: #FFFFFF; stroke-width: 1.5;" width="43" x="67" y="1217.7422"/><text fill="#000000" font-family="sans-serif" font-size="14" lengthAdjust="spacingAndGlyphs" textLength="29" x="74" y="1237.7373">gNB</text><rect fill="#E6E6E6" height="30.2969" style="stroke: #FFFFFF; stroke-width: 1.5;" width="43" x="120" y="3"/><text fill="#000000" font-family="sans-serif" font-size="14" lengthAdjust="spacingAndGlyphs" textLength="29" x="127" y="22.9951">AMF</text><rect fill="#E6E6E6" height="30.2969" style="stroke: #FFFFFF; stroke-width: 1.5;" width="43" x="120" y="1217.7422"/><text fill="#000000" font-family="sans-serif" font-size="14" lengthAdjust="spacingAndGlyphs" textLength="29" x="127" y="1237.7373">AMF</text><rect fill="#E6E6E6" height="30.2969" style="stroke: #FFFFFF; stroke-width: 1.5;" width="43" x="173" y="3"/><text fill="#000000" font-family="sans-serif" font-size="14" lengthAdjust="spacingAndGlyphs" textLength="29" x="180" y="22.9951">SMF</text><rect fill="#E6E6E6" height="30.2969" style="stroke: #FFFFFF; stroke-width: 1.5;" width="43" x="173" y="1217.7422"/><text fill="#000000" font-family="sans-serif" font-size="14" lengthAdjust="spacingAndGlyphs" textLength="29" x="180" y="1237.7373">SMF</text><rect fill="#E6E6E6" height="30.2969" style="stroke: #FFFFFF; stroke-width: 1.5;" width="41" x="226" y="3"/><text fill="#000000" font-family="sans-serif" font-size="14" lengthAdjust="spacingAndGlyphs" textLength="27" x="233" y="22.9951">UPF</text><rect fill="#E6E6E6" height="30.2969" style="stroke: #FFFFFF; stroke-width: 1.5;" width="41" x="226" y="1217.7422"/><text fill="#000000" font-family="sans-serif" font-size="14" lengthAdjust="spacingAndGlyphs" textLength="27" x="233" y="1237.7373">UPF</text><rect fill="#E6E6E6" height="30.2969" style="stroke: #FFFFFF; stroke-width: 1.5;" width="57" x="277" y="3"/><text fill="#000000" font-family="sans-serif" font-size="14" lengthAdjust="spacingAndGlyphs" textLength="43" x="284" y="22.9951">SGWU</text><rect fill="#E6E6E6" height="30.2969" style="stroke: #FFFFFF; stroke-width: 1.5;" width="57" x="277" y="1217.7422"/><text fill="#000000" font-family="sans-serif" font-size="14" lengthAdjust="spacingAndGlyphs" textLength="43" x="284" y="1237.7373">SGWU</text><rect fill="#E6E6E6" height="30.2969" style="stroke: #FFFFFF; stroke-width: 1.5;" width="57" x="344" y="3"/><text fill="#000000" font-family="sans-serif" font-size="14" lengthAdjust="spacingAndGlyphs" textLength="43" x="351" y="22.9951">SGWC</text><rect fill="#E6E6E6" height="30.2969" style="stroke: #FFFFFF; stroke-width: 1.5;" width="57" x="344" y="1217.7422"/><text fill="#000000" font-family="sans-serif" font-size="14" lengthAdjust="spacingAndGlyphs" textLength="43" x="351" y="1237.7373">SGWC</text><rect fill="#E6E6E6" height="30.2969" style="stroke: #FFFFFF; stroke-width: 1.5;" width="42" x="411" y="3"/><text fill="#000000" font-family="sans-serif" font-size="14" lengthAdjust="spacingAndGlyphs" textLength="28" x="418" y="22.9951">NRF</text><rect fill="#E6E6E6" height="30.2969" style="stroke: #FFFFFF; stroke-width: 1.5;" width="42" x="411" y="1217.7422"/><text fill="#000000" font-family="sans-serif" font-size="14" lengthAdjust="spacingAndGlyphs" textLength="28" x="418" y="1237.7373">NRF</text><rect fill="#E6E6E6" height="30.2969" style="stroke: #FFFFFF; stroke-width: 1.5;" width="50" x="916" y="3"/><text fill="#000000" font-family="sans-serif" font-size="14" lengthAdjust="spacingAndGlyphs" textLength="36" x="923" y="22.9951">NSSF</text><rect fill="#E6E6E6" height="30.2969" style="stroke: #FFFFFF; stroke-width: 1.5;" width="50" x="916" y="1217.7422"/><text fill="#000000" font-family="sans-serif" font-size="14" lengthAdjust="spacingAndGlyphs" textLength="36" x="923" y="1237.7373">NSSF</text><rect fill="#E6E6E6" height="30.2969" style="stroke: #FFFFFF; stroke-width: 1.5;" width="41" x="976" y="3"/><text fill="#000000" font-family="sans-serif" font-size="14" lengthAdjust="spacingAndGlyphs" textLength="27" x="983" y="22.9951">BSF</text><rect fill="#E6E6E6" height="30.2969" style="stroke: #FFFFFF; stroke-width: 1.5;" width="41" x="976" y="1217.7422"/><text fill="#000000" font-family="sans-serif" font-size="14" lengthAdjust="spacingAndGlyphs" textLength="27" x="983" y="1237.7373">BSF</text><rect fill="#E6E6E6" height="30.2969" style="stroke: #FFFFFF; stroke-width: 1.5;" width="41" x="1027" y="3"/><text fill="#000000" font-family="sans-serif" font-size="14" lengthAdjust="spacingAndGlyphs" textLength="27" x="1034" y="22.9951">PCF</text><rect fill="#E6E6E6" height="30.2969" style="stroke: #FFFFFF; stroke-width: 1.5;" width="41" x="1027" y="1217.7422"/><text fill="#000000" font-family="sans-serif" font-size="14" lengthAdjust="spacingAndGlyphs" textLength="27" x="1034" y="1237.7373">PCF</text><rect fill="#E6E6E6" height="30.2969" style="stroke: #FFFFFF; stroke-width: 1.5;" width="45" x="1078" y="3"/><text fill="#000000" font-family="sans-serif" font-size="14" lengthAdjust="spacingAndGlyphs" textLength="31" x="1085" y="22.9951">UDR</text><rect fill="#E6E6E6" height="30.2969" style="stroke: #FFFFFF; stroke-width: 1.5;" width="45" x="1078" y="1217.7422"/><text fill="#000000" font-family="sans-serif" font-size="14" lengthAdjust="spacingAndGlyphs" textLength="31" x="1085" y="1237.7373">UDR</text><rect fill="#E6E6E6" height="30.2969" style="stroke: #FFFFFF; stroke-width: 1.5;" width="62" x="1133" y="3"/><text fill="#000000" font-family="sans-serif" font-size="14" lengthAdjust="spacingAndGlyphs" textLength="48" x="1140" y="22.9951">8.8.8.8</text><rect fill="#E6E6E6" height="30.2969" style="stroke: #FFFFFF; stroke-width: 1.5;" width="62" x="1133" y="1217.7422"/><text fill="#000000" font-family="sans-serif" font-size="14" lengthAdjust="spacingAndGlyphs" textLength="48" x="1140" y="1237.7373">8.8.8.8</text><rect fill="#E6E6E6" height="30.2969" style="stroke: #FFFFFF; stroke-width: 1.5;" width="50" x="1205" y="3"/><text fill="#000000" font-family="sans-serif" font-size="14" lengthAdjust="spacingAndGlyphs" textLength="36" x="1212" y="22.9951">AUSF</text><rect fill="#E6E6E6" height="30.2969" style="stroke: #FFFFFF; stroke-width: 1.5;" width="50" x="1205" y="1217.7422"/><text fill="#000000" font-family="sans-serif" font-size="14" lengthAdjust="spacingAndGlyphs" textLength="36" x="1212" y="1237.7373">AUSF</text><rect fill="#E6E6E6" height="30.2969" style="stroke: #FFFFFF; stroke-width: 1.5;" width="47" x="1265" y="3"/><text fill="#000000" font-family="sans-serif" font-size="14" lengthAdjust="spacingAndGlyphs" textLength="33" x="1272" y="22.9951">UDM</text><rect fill="#E6E6E6" height="30.2969" style="stroke: #FFFFFF; stroke-width: 1.5;" width="47" x="1265" y="1217.7422"/><text fill="#000000" font-family="sans-serif" font-size="14" lengthAdjust="spacingAndGlyphs" textLength="33" x="1272" y="1237.7373">UDM</text><polygon fill="#000000" points="1088.5,64.4297,1098.5,68.4297,1088.5,72.4297,1092.5,68.4297" style="stroke: #000000; stroke-width: 1.0;"/><line style="stroke: #000000; stroke-width: 1.0;" x1="432" x2="1094.5" y1="68.4297" y2="68.4297"/><text fill="#000000" font-family="sans-serif" font-size="13" lengthAdjust="spacingAndGlyphs" textLength="292" x="439" y="63.3638">2981, HTTP/2 req. or rsp. (no HTTP/2 headers)</text><path d="M1105,49.2969 L1105,74.2969 L1212,74.2969 L1212,59.2969 L1202,49.2969 L1105,49.2969 " fill="#D7FEFC" style="stroke: #FFFFFF; stroke-width: 1.0;"/><path d="M1202,49.2969 L1202,59.2969 L1212,59.2969 L1202,49.2969 " fill="#D7FEFC" style="stroke: #FFFFFF; stroke-width: 1.0;"/><text fill="#000000" font-family="sans-serif" font-size="13" font-weight="bold" lengthAdjust="spacingAndGlyphs" textLength="86" x="1111" y="66.3638">NRF to UDR</text><polygon fill="#000000" points="984.5,99.5625,994.5,103.5625,984.5,107.5625,988.5,103.5625" style="stroke: #000000; stroke-width: 1.0;"/><line style="stroke: #000000; stroke-width: 1.0;" x1="432" x2="990.5" y1="103.5625" y2="103.5625"/><text fill="#000000" font-family="sans-serif" font-size="13" lengthAdjust="spacingAndGlyphs" textLength="292" x="439" y="98.4966">2984, HTTP/2 req. or rsp. (no HTTP/2 headers)</text><path d="M1001,84.4297 L1001,109.4297 L1105,109.4297 L1105,94.4297 L1095,84.4297 L1001,84.4297 " fill="#D7FEFC" style="stroke: #FFFFFF; stroke-width: 1.0;"/><path d="M1095,84.4297 L1095,94.4297 L1105,94.4297 L1095,84.4297 " fill="#D7FEFC" style="stroke: #FFFFFF; stroke-width: 1.0;"/><text fill="#000000" font-family="sans-serif" font-size="13" font-weight="bold" lengthAdjust="spacingAndGlyphs" textLength="83" x="1007" y="101.4966">NRF to BSF</text><polygon fill="#000000" points="984.5,134.6953,994.5,138.6953,984.5,142.6953,988.5,138.6953" style="stroke: #000000; stroke-width: 1.0;"/><line style="stroke: #000000; stroke-width: 1.0;" x1="432" x2="990.5" y1="138.6953" y2="138.6953"/><text fill="#000000" font-family="sans-serif" font-size="13" lengthAdjust="spacingAndGlyphs" textLength="292" x="439" y="133.6294">2985, HTTP/2 req. or rsp. (no HTTP/2 headers)</text><path d="M1001,119.5625 L1001,144.5625 L1105,144.5625 L1105,129.5625 L1095,119.5625 L1001,119.5625 " fill="#D7FEFC" style="stroke: #FFFFFF; stroke-width: 1.0;"/><path d="M1095,119.5625 L1095,129.5625 L1105,129.5625 L1095,119.5625 " fill="#D7FEFC" style="stroke: #FFFFFF; stroke-width: 1.0;"/><text fill="#000000" font-family="sans-serif" font-size="13" font-weight="bold" lengthAdjust="spacingAndGlyphs" textLength="83" x="1007" y="136.6294">NRF to BSF</text><polygon fill="#000000" points="1035.5,169.8281,1045.5,173.8281,1035.5,177.8281,1039.5,173.8281" style="stroke: #000000; stroke-width: 1.0;"/><line style="stroke: #000000; stroke-width: 1.0;" x1="432" x2="1041.5" y1="173.8281" y2="173.8281"/><text fill="#000000" font-family="sans-serif" font-size="13" lengthAdjust="spacingAndGlyphs" textLength="140" x="439" y="168.7622">2988, HTTP/2 200 rsp.</text><path d="M1052,154.6953 L1052,179.6953 L1157,179.6953 L1157,164.6953 L1147,154.6953 L1052,154.6953 " fill="#D7FEFC" style="stroke: #FFFFFF; stroke-width: 1.0;"/><path d="M1147,154.6953 L1147,164.6953 L1157,164.6953 L1147,154.6953 " fill="#D7FEFC" style="stroke: #FFFFFF; stroke-width: 1.0;"/><text fill="#000000" font-family="sans-serif" font-size="13" font-weight="bold" lengthAdjust="spacingAndGlyphs" textLength="84" x="1058" y="171.7622">NRF to PCF</text><polygon fill="#000000" points="1035.5,204.9609,1045.5,208.9609,1035.5,212.9609,1039.5,208.9609" style="stroke: #000000; stroke-width: 1.0;"/><line style="stroke: #000000; stroke-width: 1.0;" x1="432" x2="1041.5" y1="208.9609" y2="208.9609"/><text fill="#000000" font-family="sans-serif" font-size="13" lengthAdjust="spacingAndGlyphs" textLength="140" x="439" y="203.895">2989, HTTP/2 200 rsp.</text><path d="M1052,189.8281 L1052,214.8281 L1157,214.8281 L1157,199.8281 L1147,189.8281 L1052,189.8281 " fill="#D7FEFC" style="stroke: #FFFFFF; stroke-width: 1.0;"/><path d="M1147,189.8281 L1147,199.8281 L1157,199.8281 L1147,189.8281 " fill="#D7FEFC" style="stroke: #FFFFFF; stroke-width: 1.0;"/><text fill="#000000" font-family="sans-serif" font-size="13" font-weight="bold" lengthAdjust="spacingAndGlyphs" textLength="84" x="1058" y="206.895">NRF to PCF</text><polygon fill="#000000" points="1035.5,240.0938,1045.5,244.0938,1035.5,248.0938,1039.5,244.0938" style="stroke: #000000; stroke-width: 1.0;"/><line style="stroke: #000000; stroke-width: 1.0;" x1="432" x2="1041.5" y1="244.0938" y2="244.0938"/><text fill="#000000" font-family="sans-serif" font-size="13" lengthAdjust="spacingAndGlyphs" textLength="292" x="439" y="239.0278">2992, HTTP/2 req. or rsp. (no HTTP/2 headers)</text><path d="M1052,224.9609 L1052,249.9609 L1157,249.9609 L1157,234.9609 L1147,224.9609 L1052,224.9609 " fill="#D7FEFC" style="stroke: #FFFFFF; stroke-width: 1.0;"/><path d="M1147,224.9609 L1147,234.9609 L1157,234.9609 L1147,224.9609 " fill="#D7FEFC" style="stroke: #FFFFFF; stroke-width: 1.0;"/><text fill="#000000" font-family="sans-serif" font-size="13" font-weight="bold" lengthAdjust="spacingAndGlyphs" textLength="84" x="1058" y="242.0278">NRF to PCF</text><polygon fill="#000000" points="1035.5,275.2266,1045.5,279.2266,1035.5,283.2266,1039.5,279.2266" style="stroke: #000000; stroke-width: 1.0;"/><line style="stroke: #000000; stroke-width: 1.0;" x1="432" x2="1041.5" y1="279.2266" y2="279.2266"/><text fill="#000000" font-family="sans-serif" font-size="13" lengthAdjust="spacingAndGlyphs" textLength="292" x="439" y="274.1606">2993, HTTP/2 req. or rsp. (no HTTP/2 headers)</text><path d="M1052,260.0938 L1052,285.0938 L1157,285.0938 L1157,270.0938 L1147,260.0938 L1052,260.0938 " fill="#D7FEFC" style="stroke: #FFFFFF; stroke-width: 1.0;"/><path d="M1147,260.0938 L1147,270.0938 L1157,270.0938 L1147,260.0938 " fill="#D7FEFC" style="stroke: #FFFFFF; stroke-width: 1.0;"/><text fill="#000000" font-family="sans-serif" font-size="13" font-weight="bold" lengthAdjust="spacingAndGlyphs" textLength="84" x="1058" y="277.1606">NRF to PCF</text><polygon fill="#000000" points="443,337.625,433,341.625,443,345.625,439,341.625" style="stroke: #000000; stroke-width: 1.0;"/><line style="stroke: #000000; stroke-width: 1.0;" x1="437" x2="1046.5" y1="341.625" y2="341.625"/><text fill="#000000" font-family="sans-serif" font-size="13" lengthAdjust="spacingAndGlyphs" textLength="113" x="449" y="306.2935">2996, HTTP/2 req.</text><text fill="#000000" font-family="sans-serif" font-size="13" lengthAdjust="spacingAndGlyphs" textLength="208" x="449" y="321.4263">POST  /nnrf-nfm/v1/subscriptions</text><text fill="#000000" font-family="sans-serif" font-size="13" lengthAdjust="spacingAndGlyphs" textLength="217" x="449" y="336.5591">PATCH  /nnrf-nfm/v1/subscriptions</text><path d="M1052,307.3594 L1052,332.3594 L1157,332.3594 L1157,317.3594 L1147,307.3594 L1052,307.3594 " fill="#03B5AA" style="stroke: #FFFFFF; stroke-width: 1.0;"/><path d="M1147,307.3594 L1147,317.3594 L1157,317.3594 L1147,307.3594 " fill="#03B5AA" style="stroke: #FFFFFF; stroke-width: 1.0;"/><text fill="#000000" font-family="sans-serif" font-size="13" font-weight="bold" lengthAdjust="spacingAndGlyphs" textLength="84" x="1058" y="324.4263">PCF to NRF</text><polygon fill="#000000" points="443,397.0234,433,401.0234,443,405.0234,439,401.0234" style="stroke: #000000; stroke-width: 1.0;"/><line style="stroke: #000000; stroke-width: 1.0;" x1="437" x2="1046.5" y1="401.0234" y2="401.0234"/><text fill="#000000" font-family="sans-serif" font-size="13" lengthAdjust="spacingAndGlyphs" textLength="113" x="449" y="365.6919">2997, HTTP/2 req.</text><text fill="#000000" font-family="sans-serif" font-size="13" lengthAdjust="spacingAndGlyphs" textLength="208" x="449" y="380.8247">POST  /nnrf-nfm/v1/subscriptions</text><text fill="#000000" font-family="sans-serif" font-size="13" lengthAdjust="spacingAndGlyphs" textLength="217" x="449" y="395.9575">PATCH  /nnrf-nfm/v1/subscriptions</text><path d="M1052,366.7578 L1052,391.7578 L1157,391.7578 L1157,376.7578 L1147,366.7578 L1052,366.7578 " fill="#03B5AA" style="stroke: #FFFFFF; stroke-width: 1.0;"/><path d="M1147,366.7578 L1147,376.7578 L1157,376.7578 L1147,366.7578 " fill="#03B5AA" style="stroke: #FFFFFF; stroke-width: 1.0;"/><text fill="#000000" font-family="sans-serif" font-size="13" font-weight="bold" lengthAdjust="spacingAndGlyphs" textLength="84" x="1058" y="383.8247">PCF to NRF</text><polygon fill="#000000" points="443,429.1563,433,433.1563,443,437.1563,439,433.1563" style="stroke: #000000; stroke-width: 1.0;"/><line style="stroke: #000000; stroke-width: 1.0;" x1="437" x2="1046.5" y1="433.1563" y2="433.1563"/><text fill="#000000" font-family="sans-serif" font-size="13" lengthAdjust="spacingAndGlyphs" textLength="292" x="449" y="428.0903">2998, HTTP/2 req. or rsp. (no HTTP/2 headers)</text><path d="M1052,414.0234 L1052,439.0234 L1157,439.0234 L1157,424.0234 L1147,414.0234 L1052,414.0234 " fill="#D7FEFC" style="stroke: #FFFFFF; stroke-width: 1.0;"/><path d="M1147,414.0234 L1147,424.0234 L1157,424.0234 L1147,414.0234 " fill="#D7FEFC" style="stroke: #FFFFFF; stroke-width: 1.0;"/><text fill="#000000" font-family="sans-serif" font-size="13" font-weight="bold" lengthAdjust="spacingAndGlyphs" textLength="84" x="1058" y="431.0903">PCF to NRF</text><polygon fill="#000000" points="443,464.2891,433,468.2891,443,472.2891,439,468.2891" style="stroke: #000000; stroke-width: 1.0;"/><line style="stroke: #000000; stroke-width: 1.0;" x1="437" x2="1046.5" y1="468.2891" y2="468.2891"/><text fill="#000000" font-family="sans-serif" font-size="13" lengthAdjust="spacingAndGlyphs" textLength="292" x="449" y="463.2231">2999, HTTP/2 req. or rsp. (no HTTP/2 headers)</text><path d="M1052,449.1563 L1052,474.1563 L1157,474.1563 L1157,459.1563 L1147,449.1563 L1052,449.1563 " fill="#D7FEFC" style="stroke: #FFFFFF; stroke-width: 1.0;"/><path d="M1147,449.1563 L1147,459.1563 L1157,459.1563 L1147,449.1563 " fill="#D7FEFC" style="stroke: #FFFFFF; stroke-width: 1.0;"/><text fill="#000000" font-family="sans-serif" font-size="13" font-weight="bold" lengthAdjust="spacingAndGlyphs" textLength="84" x="1058" y="466.2231">PCF to NRF</text><polygon fill="#000000" points="443,526.6875,433,530.6875,443,534.6875,439,530.6875" style="stroke: #000000; stroke-width: 1.0;"/><line style="stroke: #000000; stroke-width: 1.0;" x1="437" x2="1046.5" y1="530.6875" y2="530.6875"/><text fill="#000000" font-family="sans-serif" font-size="13" lengthAdjust="spacingAndGlyphs" textLength="113" x="449" y="495.356">3000, HTTP/2 req.</text><text fill="#000000" font-family="sans-serif" font-size="13" lengthAdjust="spacingAndGlyphs" textLength="208" x="449" y="510.4888">POST  /nnrf-nfm/v1/subscriptions</text><text fill="#000000" font-family="sans-serif" font-size="13" lengthAdjust="spacingAndGlyphs" textLength="217" x="449" y="525.6216">PATCH  /nnrf-nfm/v1/subscriptions</text><path d="M1052,496.4219 L1052,521.4219 L1157,521.4219 L1157,506.4219 L1147,496.4219 L1052,496.4219 " fill="#03B5AA" style="stroke: #FFFFFF; stroke-width: 1.0;"/><path d="M1147,496.4219 L1147,506.4219 L1157,506.4219 L1147,496.4219 " fill="#03B5AA" style="stroke: #FFFFFF; stroke-width: 1.0;"/><text fill="#000000" font-family="sans-serif" font-size="13" font-weight="bold" lengthAdjust="spacingAndGlyphs" textLength="84" x="1058" y="513.4888">PCF to NRF</text><polygon fill="#000000" points="443,586.0859,433,590.0859,443,594.0859,439,590.0859" style="stroke: #000000; stroke-width: 1.0;"/><line style="stroke: #000000; stroke-width: 1.0;" x1="437" x2="1046.5" y1="590.0859" y2="590.0859"/><text fill="#000000" font-family="sans-serif" font-size="13" lengthAdjust="spacingAndGlyphs" textLength="113" x="449" y="554.7544">3001, HTTP/2 req.</text><text fill="#000000" font-family="sans-serif" font-size="13" lengthAdjust="spacingAndGlyphs" textLength="208" x="449" y="569.8872">POST  /nnrf-nfm/v1/subscriptions</text><text fill="#000000" font-family="sans-serif" font-size="13" lengthAdjust="spacingAndGlyphs" textLength="217" x="449" y="585.02">PATCH  /nnrf-nfm/v1/subscriptions</text><path d="M1052,555.8203 L1052,580.8203 L1157,580.8203 L1157,565.8203 L1147,555.8203 L1052,555.8203 " fill="#03B5AA" style="stroke: #FFFFFF; stroke-width: 1.0;"/><path d="M1147,555.8203 L1147,565.8203 L1157,565.8203 L1147,555.8203 " fill="#03B5AA" style="stroke: #FFFFFF; stroke-width: 1.0;"/><text fill="#000000" font-family="sans-serif" font-size="13" font-weight="bold" lengthAdjust="spacingAndGlyphs" textLength="84" x="1058" y="572.8872">PCF to NRF</text><polygon fill="#000000" points="443,645.4844,433,649.4844,443,653.4844,439,649.4844" style="stroke: #000000; stroke-width: 1.0;"/><line style="stroke: #000000; stroke-width: 1.0;" x1="437" x2="940" y1="649.4844" y2="649.4844"/><text fill="#000000" font-family="sans-serif" font-size="13" lengthAdjust="spacingAndGlyphs" textLength="113" x="449" y="614.1528">3002, HTTP/2 req.</text><text fill="#000000" font-family="sans-serif" font-size="13" lengthAdjust="spacingAndGlyphs" textLength="485" x="449" y="629.2856">PATCH  /nnrf-nfm/v1/nf-instances/3c1774e6-f5a8-41ed-ba4e-c32b10ea0d21</text><text fill="#000000" font-family="sans-serif" font-size="13" lengthAdjust="spacingAndGlyphs" textLength="485" x="449" y="644.4185">PATCH  /nnrf-nfm/v1/nf-instances/3c1774e6-f5a8-41ed-ba4e-c32b10ea0d21</text><path d="M946,615.2188 L946,640.2188 L1060,640.2188 L1060,625.2188 L1050,615.2188 L946,615.2188 " fill="#03B5AA" style="stroke: #FFFFFF; stroke-width: 1.0;"/><path d="M1050,615.2188 L1050,625.2188 L1060,625.2188 L1050,615.2188 " fill="#03B5AA" style="stroke: #FFFFFF; stroke-width: 1.0;"/><text fill="#000000" font-family="sans-serif" font-size="13" font-weight="bold" lengthAdjust="spacingAndGlyphs" textLength="93" x="952" y="632.2856">NSSF to NRF</text><polygon fill="#000000" points="443,704.8828,433,708.8828,443,712.8828,439,708.8828" style="stroke: #000000; stroke-width: 1.0;"/><line style="stroke: #000000; stroke-width: 1.0;" x1="437" x2="940" y1="708.8828" y2="708.8828"/><text fill="#000000" font-family="sans-serif" font-size="13" lengthAdjust="spacingAndGlyphs" textLength="113" x="449" y="673.5513">3003, HTTP/2 req.</text><text fill="#000000" font-family="sans-serif" font-size="13" lengthAdjust="spacingAndGlyphs" textLength="485" x="449" y="688.6841">PATCH  /nnrf-nfm/v1/nf-instances/3c1774e6-f5a8-41ed-ba4e-c32b10ea0d21</text><text fill="#000000" font-family="sans-serif" font-size="13" lengthAdjust="spacingAndGlyphs" textLength="485" x="449" y="703.8169">PATCH  /nnrf-nfm/v1/nf-instances/3c1774e6-f5a8-41ed-ba4e-c32b10ea0d21</text><path d="M946,674.6172 L946,699.6172 L1060,699.6172 L1060,684.6172 L1050,674.6172 L946,674.6172 " fill="#03B5AA" style="stroke: #FFFFFF; stroke-width: 1.0;"/><path d="M1050,674.6172 L1050,684.6172 L1060,684.6172 L1050,674.6172 " fill="#03B5AA" style="stroke: #FFFFFF; stroke-width: 1.0;"/><text fill="#000000" font-family="sans-serif" font-size="13" font-weight="bold" lengthAdjust="spacingAndGlyphs" textLength="93" x="952" y="691.6841">NSSF to NRF</text><polygon fill="#000000" points="443,737.0156,433,741.0156,443,745.0156,439,741.0156" style="stroke: #000000; stroke-width: 1.0;"/><line style="stroke: #000000; stroke-width: 1.0;" x1="437" x2="940" y1="741.0156" y2="741.0156"/><text fill="#000000" font-family="sans-serif" font-size="13" lengthAdjust="spacingAndGlyphs" textLength="292" x="449" y="735.9497">3004, HTTP/2 req. or rsp. (no HTTP/2 headers)</text><path d="M946,721.8828 L946,746.8828 L1060,746.8828 L1060,731.8828 L1050,721.8828 L946,721.8828 " fill="#D7FEFC" style="stroke: #FFFFFF; stroke-width: 1.0;"/><path d="M1050,721.8828 L1050,731.8828 L1060,731.8828 L1050,721.8828 " fill="#D7FEFC" style="stroke: #FFFFFF; stroke-width: 1.0;"/><text fill="#000000" font-family="sans-serif" font-size="13" font-weight="bold" lengthAdjust="spacingAndGlyphs" textLength="93" x="952" y="738.9497">NSSF to NRF</text><polygon fill="#000000" points="443,772.1484,433,776.1484,443,780.1484,439,776.1484" style="stroke: #000000; stroke-width: 1.0;"/><line style="stroke: #000000; stroke-width: 1.0;" x1="437" x2="940" y1="776.1484" y2="776.1484"/><text fill="#000000" font-family="sans-serif" font-size="13" lengthAdjust="spacingAndGlyphs" textLength="292" x="449" y="771.0825">3005, HTTP/2 req. or rsp. (no HTTP/2 headers)</text><path d="M946,757.0156 L946,782.0156 L1060,782.0156 L1060,767.0156 L1050,757.0156 L946,757.0156 " fill="#D7FEFC" style="stroke: #FFFFFF; stroke-width: 1.0;"/><path d="M1050,757.0156 L1050,767.0156 L1060,767.0156 L1050,757.0156 " fill="#D7FEFC" style="stroke: #FFFFFF; stroke-width: 1.0;"/><text fill="#000000" font-family="sans-serif" font-size="13" font-weight="bold" lengthAdjust="spacingAndGlyphs" textLength="93" x="952" y="774.0825">NSSF to NRF</text><polygon fill="#000000" points="1035.5,807.2813,1045.5,811.2813,1035.5,815.2813,1039.5,811.2813" style="stroke: #000000; stroke-width: 1.0;"/><line style="stroke: #000000; stroke-width: 1.0;" x1="432" x2="1041.5" y1="811.2813" y2="811.2813"/><text fill="#000000" font-family="sans-serif" font-size="13" lengthAdjust="spacingAndGlyphs" textLength="292" x="439" y="806.2153">3012, HTTP/2 req. or rsp. (no HTTP/2 headers)</text><path d="M1052,792.1484 L1052,817.1484 L1157,817.1484 L1157,802.1484 L1147,792.1484 L1052,792.1484 " fill="#D7FEFC" style="stroke: #FFFFFF; stroke-width: 1.0;"/><path d="M1147,792.1484 L1147,802.1484 L1157,802.1484 L1147,792.1484 " fill="#D7FEFC" style="stroke: #FFFFFF; stroke-width: 1.0;"/><text fill="#000000" font-family="sans-serif" font-size="13" font-weight="bold" lengthAdjust="spacingAndGlyphs" textLength="84" x="1058" y="809.2153">NRF to PCF</text><polygon fill="#000000" points="1035.5,842.4141,1045.5,846.4141,1035.5,850.4141,1039.5,846.4141" style="stroke: #000000; stroke-width: 1.0;"/><line style="stroke: #000000; stroke-width: 1.0;" x1="432" x2="1041.5" y1="846.4141" y2="846.4141"/><text fill="#000000" font-family="sans-serif" font-size="13" lengthAdjust="spacingAndGlyphs" textLength="292" x="439" y="841.3481">3013, HTTP/2 req. or rsp. (no HTTP/2 headers)</text><path d="M1052,827.2813 L1052,852.2813 L1157,852.2813 L1157,837.2813 L1147,827.2813 L1052,827.2813 " fill="#D7FEFC" style="stroke: #FFFFFF; stroke-width: 1.0;"/><path d="M1147,827.2813 L1147,837.2813 L1157,837.2813 L1147,827.2813 " fill="#D7FEFC" style="stroke: #FFFFFF; stroke-width: 1.0;"/><text fill="#000000" font-family="sans-serif" font-size="13" font-weight="bold" lengthAdjust="spacingAndGlyphs" textLength="84" x="1058" y="844.3481">NRF to PCF</text><polygon fill="#000000" points="929,877.5469,939,881.5469,929,885.5469,933,881.5469" style="stroke: #000000; stroke-width: 1.0;"/><line style="stroke: #000000; stroke-width: 1.0;" x1="432" x2="935" y1="881.5469" y2="881.5469"/><text fill="#000000" font-family="sans-serif" font-size="13" lengthAdjust="spacingAndGlyphs" textLength="140" x="439" y="876.481">3014, HTTP/2 200 rsp.</text><path d="M946,862.4141 L946,887.4141 L1060,887.4141 L1060,872.4141 L1050,862.4141 L946,862.4141 " fill="#D7FEFC" style="stroke: #FFFFFF; stroke-width: 1.0;"/><path d="M1050,862.4141 L1050,872.4141 L1060,872.4141 L1050,862.4141 " fill="#D7FEFC" style="stroke: #FFFFFF; stroke-width: 1.0;"/><text fill="#000000" font-family="sans-serif" font-size="13" font-weight="bold" lengthAdjust="spacingAndGlyphs" textLength="93" x="952" y="879.481">NRF to NSSF</text><polygon fill="#000000" points="929,912.6797,939,916.6797,929,920.6797,933,916.6797" style="stroke: #000000; stroke-width: 1.0;"/><line style="stroke: #000000; stroke-width: 1.0;" x1="432" x2="935" y1="916.6797" y2="916.6797"/><text fill="#000000" font-family="sans-serif" font-size="13" lengthAdjust="spacingAndGlyphs" textLength="140" x="439" y="911.6138">3015, HTTP/2 200 rsp.</text><path d="M946,897.5469 L946,922.5469 L1060,922.5469 L1060,907.5469 L1050,897.5469 L946,897.5469 " fill="#D7FEFC" style="stroke: #FFFFFF; stroke-width: 1.0;"/><path d="M1050,897.5469 L1050,907.5469 L1060,907.5469 L1050,897.5469 " fill="#D7FEFC" style="stroke: #FFFFFF; stroke-width: 1.0;"/><text fill="#000000" font-family="sans-serif" font-size="13" font-weight="bold" lengthAdjust="spacingAndGlyphs" textLength="93" x="952" y="914.6138">NRF to NSSF</text><polygon fill="#000000" points="1035.5,947.8125,1045.5,951.8125,1035.5,955.8125,1039.5,951.8125" style="stroke: #000000; stroke-width: 1.0;"/><line style="stroke: #000000; stroke-width: 1.0;" x1="432" x2="1041.5" y1="951.8125" y2="951.8125"/><text fill="#000000" font-family="sans-serif" font-size="13" lengthAdjust="spacingAndGlyphs" textLength="292" x="439" y="946.7466">3018, HTTP/2 req. or rsp. (no HTTP/2 headers)</text><path d="M1052,932.6797 L1052,957.6797 L1157,957.6797 L1157,942.6797 L1147,932.6797 L1052,932.6797 " fill="#D7FEFC" style="stroke: #FFFFFF; stroke-width: 1.0;"/><path d="M1147,932.6797 L1147,942.6797 L1157,942.6797 L1147,932.6797 " fill="#D7FEFC" style="stroke: #FFFFFF; stroke-width: 1.0;"/><text fill="#000000" font-family="sans-serif" font-size="13" font-weight="bold" lengthAdjust="spacingAndGlyphs" textLength="84" x="1058" y="949.7466">NRF to PCF</text><polygon fill="#000000" points="1035.5,982.9453,1045.5,986.9453,1035.5,990.9453,1039.5,986.9453" style="stroke: #000000; stroke-width: 1.0;"/><line style="stroke: #000000; stroke-width: 1.0;" x1="432" x2="1041.5" y1="986.9453" y2="986.9453"/><text fill="#000000" font-family="sans-serif" font-size="13" lengthAdjust="spacingAndGlyphs" textLength="292" x="439" y="981.8794">3019, HTTP/2 req. or rsp. (no HTTP/2 headers)</text><path d="M1052,967.8125 L1052,992.8125 L1157,992.8125 L1157,977.8125 L1147,967.8125 L1052,967.8125 " fill="#D7FEFC" style="stroke: #FFFFFF; stroke-width: 1.0;"/><path d="M1147,967.8125 L1147,977.8125 L1157,977.8125 L1147,967.8125 " fill="#D7FEFC" style="stroke: #FFFFFF; stroke-width: 1.0;"/><text fill="#000000" font-family="sans-serif" font-size="13" font-weight="bold" lengthAdjust="spacingAndGlyphs" textLength="84" x="1058" y="984.8794">NRF to PCF</text><polygon fill="#000000" points="929,1018.0781,939,1022.0781,929,1026.0781,933,1022.0781" style="stroke: #000000; stroke-width: 1.0;"/><line style="stroke: #000000; stroke-width: 1.0;" x1="432" x2="935" y1="1022.0781" y2="1022.0781"/><text fill="#000000" font-family="sans-serif" font-size="13" lengthAdjust="spacingAndGlyphs" textLength="292" x="439" y="1017.0122">3022, HTTP/2 req. or rsp. (no HTTP/2 headers)</text><path d="M946,1002.9453 L946,1027.9453 L1060,1027.9453 L1060,1012.9453 L1050,1002.9453 L946,1002.9453 " fill="#D7FEFC" style="stroke: #FFFFFF; stroke-width: 1.0;"/><path d="M1050,1002.9453 L1050,1012.9453 L1060,1012.9453 L1050,1002.9453 " fill="#D7FEFC" style="stroke: #FFFFFF; stroke-width: 1.0;"/><text fill="#000000" font-family="sans-serif" font-size="13" font-weight="bold" lengthAdjust="spacingAndGlyphs" textLength="93" x="952" y="1020.0122">NRF to NSSF</text><polygon fill="#000000" points="929,1053.2109,939,1057.2109,929,1061.2109,933,1057.2109" style="stroke: #000000; stroke-width: 1.0;"/><line style="stroke: #000000; stroke-width: 1.0;" x1="432" x2="935" y1="1057.2109" y2="1057.2109"/><text fill="#000000" font-family="sans-serif" font-size="13" lengthAdjust="spacingAndGlyphs" textLength="292" x="439" y="1052.145">3023, HTTP/2 req. or rsp. (no HTTP/2 headers)</text><path d="M946,1038.0781 L946,1063.0781 L1060,1063.0781 L1060,1048.0781 L1050,1038.0781 L946,1038.0781 " fill="#D7FEFC" style="stroke: #FFFFFF; stroke-width: 1.0;"/><path d="M1050,1038.0781 L1050,1048.0781 L1060,1048.0781 L1050,1038.0781 " fill="#D7FEFC" style="stroke: #FFFFFF; stroke-width: 1.0;"/><text fill="#000000" font-family="sans-serif" font-size="13" font-weight="bold" lengthAdjust="spacingAndGlyphs" textLength="93" x="952" y="1055.145">NRF to NSSF</text><polygon fill="#000000" points="1035.5,1088.3438,1045.5,1092.3438,1035.5,1096.3438,1039.5,1092.3438" style="stroke: #000000; stroke-width: 1.0;"/><line style="stroke: #000000; stroke-width: 1.0;" x1="432" x2="1041.5" y1="1092.3438" y2="1092.3438"/><text fill="#000000" font-family="sans-serif" font-size="13" lengthAdjust="spacingAndGlyphs" textLength="292" x="439" y="1087.2778">3026, HTTP/2 req. or rsp. (no HTTP/2 headers)</text><path d="M1052,1073.2109 L1052,1098.2109 L1157,1098.2109 L1157,1083.2109 L1147,1073.2109 L1052,1073.2109 " fill="#D7FEFC" style="stroke: #FFFFFF; stroke-width: 1.0;"/><path d="M1147,1073.2109 L1147,1083.2109 L1157,1083.2109 L1147,1073.2109 " fill="#D7FEFC" style="stroke: #FFFFFF; stroke-width: 1.0;"/><text fill="#000000" font-family="sans-serif" font-size="13" font-weight="bold" lengthAdjust="spacingAndGlyphs" textLength="84" x="1058" y="1090.2778">NRF to PCF</text><polygon fill="#000000" points="1035.5,1123.4766,1045.5,1127.4766,1035.5,1131.4766,1039.5,1127.4766" style="stroke: #000000; stroke-width: 1.0;"/><line style="stroke: #000000; stroke-width: 1.0;" x1="432" x2="1041.5" y1="1127.4766" y2="1127.4766"/><text fill="#000000" font-family="sans-serif" font-size="13" lengthAdjust="spacingAndGlyphs" textLength="292" x="439" y="1122.4106">3027, HTTP/2 req. or rsp. (no HTTP/2 headers)</text><path d="M1052,1108.3438 L1052,1133.3438 L1157,1133.3438 L1157,1118.3438 L1147,1108.3438 L1052,1108.3438 " fill="#D7FEFC" style="stroke: #FFFFFF; stroke-width: 1.0;"/><path d="M1147,1108.3438 L1147,1118.3438 L1157,1118.3438 L1147,1108.3438 " fill="#D7FEFC" style="stroke: #FFFFFF; stroke-width: 1.0;"/><text fill="#000000" font-family="sans-serif" font-size="13" font-weight="bold" lengthAdjust="spacingAndGlyphs" textLength="84" x="1058" y="1125.4106">NRF to PCF</text><polygon fill="#000000" points="1035.5,1158.6094,1045.5,1162.6094,1035.5,1166.6094,1039.5,1162.6094" style="stroke: #000000; stroke-width: 1.0;"/><line style="stroke: #000000; stroke-width: 1.0;" x1="432" x2="1041.5" y1="1162.6094" y2="1162.6094"/><text fill="#000000" font-family="sans-serif" font-size="13" lengthAdjust="spacingAndGlyphs" textLength="292" x="439" y="1157.5435">3028, HTTP/2 req. or rsp. (no HTTP/2 headers)</text><path d="M1052,1143.4766 L1052,1168.4766 L1157,1168.4766 L1157,1153.4766 L1147,1143.4766 L1052,1143.4766 " fill="#D7FEFC" style="stroke: #FFFFFF; stroke-width: 1.0;"/><path d="M1147,1143.4766 L1147,1153.4766 L1157,1153.4766 L1147,1143.4766 " fill="#D7FEFC" style="stroke: #FFFFFF; stroke-width: 1.0;"/><text fill="#000000" font-family="sans-serif" font-size="13" font-weight="bold" lengthAdjust="spacingAndGlyphs" textLength="84" x="1058" y="1160.5435">NRF to PCF</text><polygon fill="#000000" points="1035.5,1193.7422,1045.5,1197.7422,1035.5,1201.7422,1039.5,1197.7422" style="stroke: #000000; stroke-width: 1.0;"/><line style="stroke: #000000; stroke-width: 1.0;" x1="432" x2="1041.5" y1="1197.7422" y2="1197.7422"/><text fill="#000000" font-family="sans-serif" font-size="13" lengthAdjust="spacingAndGlyphs" textLength="292" x="439" y="1192.6763">3029, HTTP/2 req. or rsp. (no HTTP/2 headers)</text><path d="M1052,1178.6094 L1052,1203.6094 L1157,1203.6094 L1157,1188.6094 L1147,1178.6094 L1052,1178.6094 " fill="#D7FEFC" style="stroke: #FFFFFF; stroke-width: 1.0;"/><path d="M1147,1178.6094 L1147,1188.6094 L1157,1188.6094 L1147,1178.6094 " fill="#D7FEFC" style="stroke: #FFFFFF; stroke-width: 1.0;"/><text fill="#000000" font-family="sans-serif" font-size="13" font-weight="bold" lengthAdjust="spacingAndGlyphs" textLength="84" x="1058" y="1195.6763">NRF to PCF</text><!--MD5=[ff49e9c3f89daf45d9fce10103cf3fdb]
@startuml
skinparam shadowing false
skinparam NoteBorderColor white
skinparam sequence {
    ArrowColor black
    LifeLineBorderColor black
    LifeLineBackgroundColor black
    ParticipantBorderColor white
    ParticipantBackgroundColor #e6e6e6
}
participant "UE_1"
participant "gNB"
participant "AMF"
participant "SMF"
participant "UPF"
participant "SGWU"
participant "SGWC"
participant "NRF"
participant "NSSF"
participant "BSF"
participant "PCF"
participant "UDR"
participant "8.8.8.8"
participant "AUSF"
participant "UDM"

"NRF" -> "UDR": 2981, HTTP/2 req. or rsp. (no HTTP/2 headers)

note right #D7FEFC
**NRF to UDR**
end note

"NRF" -> "BSF": 2984, HTTP/2 req. or rsp. (no HTTP/2 headers)

note right #D7FEFC
**NRF to BSF**
end note

"NRF" -> "BSF": 2985, HTTP/2 req. or rsp. (no HTTP/2 headers)

note right #D7FEFC
**NRF to BSF**
end note

"NRF" -> "PCF": 2988, HTTP/2 200 rsp.

note right #D7FEFC
**NRF to PCF**
end note

"NRF" -> "PCF": 2989, HTTP/2 200 rsp.

note right #D7FEFC
**NRF to PCF**
end note

"NRF" -> "PCF": 2992, HTTP/2 req. or rsp. (no HTTP/2 headers)

note right #D7FEFC
**NRF to PCF**
end note

"NRF" -> "PCF": 2993, HTTP/2 req. or rsp. (no HTTP/2 headers)

note right #D7FEFC
**NRF to PCF**
end note

"PCF" -> "NRF": 2996, HTTP/2 req.\nPOST  /nnrf-nfm/v1/subscriptions\nPATCH  /nnrf-nfm/v1/subscriptions

note right #03B5AA
**PCF to NRF**
end note

"PCF" -> "NRF": 2997, HTTP/2 req.\nPOST  /nnrf-nfm/v1/subscriptions\nPATCH  /nnrf-nfm/v1/subscriptions

note right #03B5AA
**PCF to NRF**
end note

"PCF" -> "NRF": 2998, HTTP/2 req. or rsp. (no HTTP/2 headers)

note right #D7FEFC
**PCF to NRF**
end note

"PCF" -> "NRF": 2999, HTTP/2 req. or rsp. (no HTTP/2 headers)

note right #D7FEFC
**PCF to NRF**
end note

"PCF" -> "NRF": 3000, HTTP/2 req.\nPOST  /nnrf-nfm/v1/subscriptions\nPATCH  /nnrf-nfm/v1/subscriptions

note right #03B5AA
**PCF to NRF**
end note

"PCF" -> "NRF": 3001, HTTP/2 req.\nPOST  /nnrf-nfm/v1/subscriptions\nPATCH  /nnrf-nfm/v1/subscriptions

note right #03B5AA
**PCF to NRF**
end note

"NSSF" -> "NRF": 3002, HTTP/2 req.\nPATCH  /nnrf-nfm/v1/nf-instances/3c1774e6-f5a8-41ed-ba4e-c32b10ea0d21\nPATCH  /nnrf-nfm/v1/nf-instances/3c1774e6-f5a8-41ed-ba4e-c32b10ea0d21

note right #03B5AA
**NSSF to NRF**
end note

"NSSF" -> "NRF": 3003, HTTP/2 req.\nPATCH  /nnrf-nfm/v1/nf-instances/3c1774e6-f5a8-41ed-ba4e-c32b10ea0d21\nPATCH  /nnrf-nfm/v1/nf-instances/3c1774e6-f5a8-41ed-ba4e-c32b10ea0d21

note right #03B5AA
**NSSF to NRF**
end note

"NSSF" -> "NRF": 3004, HTTP/2 req. or rsp. (no HTTP/2 headers)

note right #D7FEFC
**NSSF to NRF**
end note

"NSSF" -> "NRF": 3005, HTTP/2 req. or rsp. (no HTTP/2 headers)

note right #D7FEFC
**NSSF to NRF**
end note

"NRF" -> "PCF": 3012, HTTP/2 req. or rsp. (no HTTP/2 headers)

note right #D7FEFC
**NRF to PCF**
end note

"NRF" -> "PCF": 3013, HTTP/2 req. or rsp. (no HTTP/2 headers)

note right #D7FEFC
**NRF to PCF**
end note

"NRF" -> "NSSF": 3014, HTTP/2 200 rsp.

note right #D7FEFC
**NRF to NSSF**
end note

"NRF" -> "NSSF": 3015, HTTP/2 200 rsp.

note right #D7FEFC
**NRF to NSSF**
end note

"NRF" -> "PCF": 3018, HTTP/2 req. or rsp. (no HTTP/2 headers)

note right #D7FEFC
**NRF to PCF**
end note

"NRF" -> "PCF": 3019, HTTP/2 req. or rsp. (no HTTP/2 headers)

note right #D7FEFC
**NRF to PCF**
end note

"NRF" -> "NSSF": 3022, HTTP/2 req. or rsp. (no HTTP/2 headers)

note right #D7FEFC
**NRF to NSSF**
end note

"NRF" -> "NSSF": 3023, HTTP/2 req. or rsp. (no HTTP/2 headers)

note right #D7FEFC
**NRF to NSSF**
end note

"NRF" -> "PCF": 3026, HTTP/2 req. or rsp. (no HTTP/2 headers)

note right #D7FEFC
**NRF to PCF**
end note

"NRF" -> "PCF": 3027, HTTP/2 req. or rsp. (no HTTP/2 headers)

note right #D7FEFC
**NRF to PCF**
end note

"NRF" -> "PCF": 3028, HTTP/2 req. or rsp. (no HTTP/2 headers)

note right #D7FEFC
**NRF to PCF**
end note

"NRF" -> "PCF": 3029, HTTP/2 req. or rsp. (no HTTP/2 headers)

note right #D7FEFC
**NRF to PCF**
end note

@enduml

PlantUML version 1.2019.12(Sun Nov 03 11:24:54 CET 2019)
(APACHE source distribution)
Java Runtime: OpenJDK Runtime Environment
JVM: OpenJDK 64-Bit Server VM
Java Version: 11.0.18+10-post-Ubuntu-0ubuntu120.04.1
Operating System: Linux
Default Encoding: UTF-8
Language: en
Country: US
--></g></svg>