<?xml version="1.0" encoding="UTF-8" standalone="no"?><svg xmlns="http://www.w3.org/2000/svg" xmlns:xlink="http://www.w3.org/1999/xlink" contentScriptType="application/ecmascript" contentStyleType="text/css" height="1559px" preserveAspectRatio="none" style="width:1164px;height:1559px;" version="1.1" viewBox="0 0 1164 1559" width="1164px" zoomAndPan="magnify"><defs/><g><line style="stroke: #000000; stroke-width: 1.0; stroke-dasharray: 5.0,5.0;" x1="29" x2="29" y1="34.2969" y2="1519.5938"/><line style="stroke: #000000; stroke-width: 1.0; stroke-dasharray: 5.0,5.0;" x1="82" x2="82" y1="34.2969" y2="1519.5938"/><line style="stroke: #000000; stroke-width: 1.0; stroke-dasharray: 5.0,5.0;" x1="135" x2="135" y1="34.2969" y2="1519.5938"/><line style="stroke: #000000; stroke-width: 1.0; stroke-dasharray: 5.0,5.0;" x1="187" x2="187" y1="34.2969" y2="1519.5938"/><line style="stroke: #000000; stroke-width: 1.0; stroke-dasharray: 5.0,5.0;" x1="246" x2="246" y1="34.2969" y2="1519.5938"/><line style="stroke: #000000; stroke-width: 1.0; stroke-dasharray: 5.0,5.0;" x1="313" x2="313" y1="34.2969" y2="1519.5938"/><line style="stroke: #000000; stroke-width: 1.0; stroke-dasharray: 5.0,5.0;" x1="373" x2="373" y1="34.2969" y2="1519.5938"/><line style="stroke: #000000; stroke-width: 1.0; stroke-dasharray: 5.0,5.0;" x1="688.5" x2="688.5" y1="34.2969" y2="1519.5938"/><line style="stroke: #000000; stroke-width: 1.0; stroke-dasharray: 5.0,5.0;" x1="746.5" x2="746.5" y1="34.2969" y2="1519.5938"/><line style="stroke: #000000; stroke-width: 1.0; stroke-dasharray: 5.0,5.0;" x1="812.5" x2="812.5" y1="34.2969" y2="1519.5938"/><line style="stroke: #000000; stroke-width: 1.0; stroke-dasharray: 5.0,5.0;" x1="876.5" x2="876.5" y1="34.2969" y2="1519.5938"/><line style="stroke: #000000; stroke-width: 1.0; stroke-dasharray: 5.0,5.0;" x1="930.5" x2="930.5" y1="34.2969" y2="1519.5938"/><line style="stroke: #000000; stroke-width: 1.0; stroke-dasharray: 5.0,5.0;" x1="986.5" x2="986.5" y1="34.2969" y2="1519.5938"/><line style="stroke: #000000; stroke-width: 1.0; stroke-dasharray: 5.0,5.0;" x1="1041.5" x2="1041.5" y1="34.2969" y2="1519.5938"/><rect fill="#E6E6E6" height="30.2969" style="stroke: #FFFFFF; stroke-width: 1.5;" width="43" x="8" y="3"/><text fill="#000000" font-family="sans-serif" font-size="14" lengthAdjust="spacingAndGlyphs" textLength="29" x="15" y="22.9951">gNB</text><rect fill="#E6E6E6" height="30.2969" style="stroke: #FFFFFF; stroke-width: 1.5;" width="43" x="8" y="1518.5938"/><text fill="#000000" font-family="sans-serif" font-size="14" lengthAdjust="spacingAndGlyphs" textLength="29" x="15" y="1538.5889">gNB</text><rect fill="#E6E6E6" height="30.2969" style="stroke: #FFFFFF; stroke-width: 1.5;" width="43" x="61" y="3"/><text fill="#000000" font-family="sans-serif" font-size="14" lengthAdjust="spacingAndGlyphs" textLength="29" x="68" y="22.9951">AMF</text><rect fill="#E6E6E6" height="30.2969" style="stroke: #FFFFFF; stroke-width: 1.5;" width="43" x="61" y="1518.5938"/><text fill="#000000" font-family="sans-serif" font-size="14" lengthAdjust="spacingAndGlyphs" textLength="29" x="68" y="1538.5889">AMF</text><rect fill="#E6E6E6" height="30.2969" style="stroke: #FFFFFF; stroke-width: 1.5;" width="43" x="114" y="3"/><text fill="#000000" font-family="sans-serif" font-size="14" lengthAdjust="spacingAndGlyphs" textLength="29" x="121" y="22.9951">SMF</text><rect fill="#E6E6E6" height="30.2969" style="stroke: #FFFFFF; stroke-width: 1.5;" width="43" x="114" y="1518.5938"/><text fill="#000000" font-family="sans-serif" font-size="14" lengthAdjust="spacingAndGlyphs" textLength="29" x="121" y="1538.5889">SMF</text><rect fill="#E6E6E6" height="30.2969" style="stroke: #FFFFFF; stroke-width: 1.5;" width="41" x="167" y="3"/><text fill="#000000" font-family="sans-serif" font-size="14" lengthAdjust="spacingAndGlyphs" textLength="27" x="174" y="22.9951">UPF</text><rect fill="#E6E6E6" height="30.2969" style="stroke: #FFFFFF; stroke-width: 1.5;" width="41" x="167" y="1518.5938"/><text fill="#000000" font-family="sans-serif" font-size="14" lengthAdjust="spacingAndGlyphs" textLength="27" x="174" y="1538.5889">UPF</text><rect fill="#E6E6E6" height="30.2969" style="stroke: #FFFFFF; stroke-width: 1.5;" width="57" x="218" y="3"/><text fill="#000000" font-family="sans-serif" font-size="14" lengthAdjust="spacingAndGlyphs" textLength="43" x="225" y="22.9951">SGWU</text><rect fill="#E6E6E6" height="30.2969" style="stroke: #FFFFFF; stroke-width: 1.5;" width="57" x="218" y="1518.5938"/><text fill="#000000" font-family="sans-serif" font-size="14" lengthAdjust="spacingAndGlyphs" textLength="43" x="225" y="1538.5889">SGWU</text><rect fill="#E6E6E6" height="30.2969" style="stroke: #FFFFFF; stroke-width: 1.5;" width="57" x="285" y="3"/><text fill="#000000" font-family="sans-serif" font-size="14" lengthAdjust="spacingAndGlyphs" textLength="43" x="292" y="22.9951">SGWC</text><rect fill="#E6E6E6" height="30.2969" style="stroke: #FFFFFF; stroke-width: 1.5;" width="57" x="285" y="1518.5938"/><text fill="#000000" font-family="sans-serif" font-size="14" lengthAdjust="spacingAndGlyphs" textLength="43" x="292" y="1538.5889">SGWC</text><rect fill="#E6E6E6" height="30.2969" style="stroke: #FFFFFF; stroke-width: 1.5;" width="42" x="352" y="3"/><text fill="#000000" font-family="sans-serif" font-size="14" lengthAdjust="spacingAndGlyphs" textLength="28" x="359" y="22.9951">NRF</text><rect fill="#E6E6E6" height="30.2969" style="stroke: #FFFFFF; stroke-width: 1.5;" width="42" x="352" y="1518.5938"/><text fill="#000000" font-family="sans-serif" font-size="14" lengthAdjust="spacingAndGlyphs" textLength="28" x="359" y="1538.5889">NRF</text><rect fill="#E6E6E6" height="30.2969" style="stroke: #FFFFFF; stroke-width: 1.5;" width="45" x="666.5" y="3"/><text fill="#000000" font-family="sans-serif" font-size="14" lengthAdjust="spacingAndGlyphs" textLength="31" x="673.5" y="22.9951">UDR</text><rect fill="#E6E6E6" height="30.2969" style="stroke: #FFFFFF; stroke-width: 1.5;" width="45" x="666.5" y="1518.5938"/><text fill="#000000" font-family="sans-serif" font-size="14" lengthAdjust="spacingAndGlyphs" textLength="31" x="673.5" y="1538.5889">UDR</text><rect fill="#E6E6E6" height="30.2969" style="stroke: #FFFFFF; stroke-width: 1.5;" width="50" x="721.5" y="3"/><text fill="#000000" font-family="sans-serif" font-size="14" lengthAdjust="spacingAndGlyphs" textLength="36" x="728.5" y="22.9951">AUSF</text><rect fill="#E6E6E6" height="30.2969" style="stroke: #FFFFFF; stroke-width: 1.5;" width="50" x="721.5" y="1518.5938"/><text fill="#000000" font-family="sans-serif" font-size="14" lengthAdjust="spacingAndGlyphs" textLength="36" x="728.5" y="1538.5889">AUSF</text><rect fill="#E6E6E6" height="30.2969" style="stroke: #FFFFFF; stroke-width: 1.5;" width="62" x="781.5" y="3"/><text fill="#000000" font-family="sans-serif" font-size="14" lengthAdjust="spacingAndGlyphs" textLength="48" x="788.5" y="22.9951">8.8.8.8</text><rect fill="#E6E6E6" height="30.2969" style="stroke: #FFFFFF; stroke-width: 1.5;" width="62" x="781.5" y="1518.5938"/><text fill="#000000" font-family="sans-serif" font-size="14" lengthAdjust="spacingAndGlyphs" textLength="48" x="788.5" y="1538.5889">8.8.8.8</text><rect fill="#E6E6E6" height="30.2969" style="stroke: #FFFFFF; stroke-width: 1.5;" width="47" x="853.5" y="3"/><text fill="#000000" font-family="sans-serif" font-size="14" lengthAdjust="spacingAndGlyphs" textLength="33" x="860.5" y="22.9951">UDM</text><rect fill="#E6E6E6" height="30.2969" style="stroke: #FFFFFF; stroke-width: 1.5;" width="47" x="853.5" y="1518.5938"/><text fill="#000000" font-family="sans-serif" font-size="14" lengthAdjust="spacingAndGlyphs" textLength="33" x="860.5" y="1538.5889">UDM</text><rect fill="#E6E6E6" height="30.2969" style="stroke: #FFFFFF; stroke-width: 1.5;" width="41" x="910.5" y="3"/><text fill="#000000" font-family="sans-serif" font-size="14" lengthAdjust="spacingAndGlyphs" textLength="27" x="917.5" y="22.9951">BSF</text><rect fill="#E6E6E6" height="30.2969" style="stroke: #FFFFFF; stroke-width: 1.5;" width="41" x="910.5" y="1518.5938"/><text fill="#000000" font-family="sans-serif" font-size="14" lengthAdjust="spacingAndGlyphs" textLength="27" x="917.5" y="1538.5889">BSF</text><rect fill="#E6E6E6" height="30.2969" style="stroke: #FFFFFF; stroke-width: 1.5;" width="50" x="961.5" y="3"/><text fill="#000000" font-family="sans-serif" font-size="14" lengthAdjust="spacingAndGlyphs" textLength="36" x="968.5" y="22.9951">NSSF</text><rect fill="#E6E6E6" height="30.2969" style="stroke: #FFFFFF; stroke-width: 1.5;" width="50" x="961.5" y="1518.5938"/><text fill="#000000" font-family="sans-serif" font-size="14" lengthAdjust="spacingAndGlyphs" textLength="36" x="968.5" y="1538.5889">NSSF</text><rect fill="#E6E6E6" height="30.2969" style="stroke: #FFFFFF; stroke-width: 1.5;" width="41" x="1021.5" y="3"/><text fill="#000000" font-family="sans-serif" font-size="14" lengthAdjust="spacingAndGlyphs" textLength="27" x="1028.5" y="22.9951">PCF</text><rect fill="#E6E6E6" height="30.2969" style="stroke: #FFFFFF; stroke-width: 1.5;" width="41" x="1021.5" y="1518.5938"/><text fill="#000000" font-family="sans-serif" font-size="14" lengthAdjust="spacingAndGlyphs" textLength="27" x="1028.5" y="1538.5889">PCF</text><polygon fill="#000000" points="677,76.5625,687,80.5625,677,84.5625,681,80.5625" style="stroke: #000000; stroke-width: 1.0;"/><line style="stroke: #000000; stroke-width: 1.0;" x1="373" x2="683" y1="80.5625" y2="80.5625"/><text fill="#000000" font-family="sans-serif" font-size="13" lengthAdjust="spacingAndGlyphs" textLength="292" x="380" y="60.3638">2981, HTTP/2 req. or rsp. (no HTTP/2 headers)</text><text fill="#000000" font-family="sans-serif" font-size="13" lengthAdjust="spacingAndGlyphs" textLength="180" x="380" y="75.4966">+38.122s (20:17:57.965.68)</text><path d="M694,53.8633 L694,78.8633 L801,78.8633 L801,63.8633 L791,53.8633 L694,53.8633 " fill="#03B5AA" style="stroke: #FFFFFF; stroke-width: 1.0;"/><path d="M791,53.8633 L791,63.8633 L801,63.8633 L791,53.8633 " fill="#03B5AA" style="stroke: #FFFFFF; stroke-width: 1.0;"/><text fill="#000000" font-family="sans-serif" font-size="13" font-weight="bold" lengthAdjust="spacingAndGlyphs" textLength="86" x="700" y="70.9302">NRF to UDR</text><polygon fill="#000000" points="919,120.8281,929,124.8281,919,128.8281,923,124.8281" style="stroke: #000000; stroke-width: 1.0;"/><line style="stroke: #000000; stroke-width: 1.0;" x1="373" x2="925" y1="124.8281" y2="124.8281"/><text fill="#000000" font-family="sans-serif" font-size="13" lengthAdjust="spacingAndGlyphs" textLength="292" x="380" y="104.6294">2984, HTTP/2 req. or rsp. (no HTTP/2 headers)</text><text fill="#000000" font-family="sans-serif" font-size="13" lengthAdjust="spacingAndGlyphs" textLength="188" x="380" y="119.7622">+38.123s (20:17:57.965.873)</text><path d="M936,98.1289 L936,123.1289 L1040,123.1289 L1040,108.1289 L1030,98.1289 L936,98.1289 " fill="#03B5AA" style="stroke: #FFFFFF; stroke-width: 1.0;"/><path d="M1030,98.1289 L1030,108.1289 L1040,108.1289 L1030,98.1289 " fill="#03B5AA" style="stroke: #FFFFFF; stroke-width: 1.0;"/><text fill="#000000" font-family="sans-serif" font-size="13" font-weight="bold" lengthAdjust="spacingAndGlyphs" textLength="83" x="942" y="115.1958">NRF to BSF</text><polygon fill="#000000" points="919,165.0938,929,169.0938,919,173.0938,923,169.0938" style="stroke: #000000; stroke-width: 1.0;"/><line style="stroke: #000000; stroke-width: 1.0;" x1="373" x2="925" y1="169.0938" y2="169.0938"/><text fill="#000000" font-family="sans-serif" font-size="13" lengthAdjust="spacingAndGlyphs" textLength="292" x="380" y="148.895">2985, HTTP/2 req. or rsp. (no HTTP/2 headers)</text><text fill="#000000" font-family="sans-serif" font-size="13" lengthAdjust="spacingAndGlyphs" textLength="188" x="380" y="164.0278">+38.123s (20:17:57.965.893)</text><path d="M936,142.3945 L936,167.3945 L1040,167.3945 L1040,152.3945 L1030,142.3945 L936,142.3945 " fill="#03B5AA" style="stroke: #FFFFFF; stroke-width: 1.0;"/><path d="M1030,142.3945 L1030,152.3945 L1040,152.3945 L1030,142.3945 " fill="#03B5AA" style="stroke: #FFFFFF; stroke-width: 1.0;"/><text fill="#000000" font-family="sans-serif" font-size="13" font-weight="bold" lengthAdjust="spacingAndGlyphs" textLength="83" x="942" y="159.4614">NRF to BSF</text><polygon fill="#000000" points="1030,209.3594,1040,213.3594,1030,217.3594,1034,213.3594" style="stroke: #000000; stroke-width: 1.0;"/><line style="stroke: #000000; stroke-width: 1.0;" x1="373" x2="1036" y1="213.3594" y2="213.3594"/><text fill="#000000" font-family="sans-serif" font-size="13" lengthAdjust="spacingAndGlyphs" textLength="140" x="380" y="193.1606">2988, HTTP/2 200 rsp.</text><text fill="#000000" font-family="sans-serif" font-size="13" lengthAdjust="spacingAndGlyphs" textLength="188" x="380" y="208.2935">+38.137s (20:17:57.980.198)</text><path d="M1047,186.6602 L1047,211.6602 L1152,211.6602 L1152,196.6602 L1142,186.6602 L1047,186.6602 " fill="#D7FEFC" style="stroke: #FFFFFF; stroke-width: 1.0;"/><path d="M1142,186.6602 L1142,196.6602 L1152,196.6602 L1142,186.6602 " fill="#D7FEFC" style="stroke: #FFFFFF; stroke-width: 1.0;"/><text fill="#000000" font-family="sans-serif" font-size="13" font-weight="bold" lengthAdjust="spacingAndGlyphs" textLength="84" x="1053" y="203.7271">NRF to PCF</text><polygon fill="#000000" points="1030,253.625,1040,257.625,1030,261.625,1034,257.625" style="stroke: #000000; stroke-width: 1.0;"/><line style="stroke: #000000; stroke-width: 1.0;" x1="373" x2="1036" y1="257.625" y2="257.625"/><text fill="#000000" font-family="sans-serif" font-size="13" lengthAdjust="spacingAndGlyphs" textLength="140" x="380" y="237.4263">2989, HTTP/2 200 rsp.</text><text fill="#000000" font-family="sans-serif" font-size="13" lengthAdjust="spacingAndGlyphs" textLength="188" x="380" y="252.5591">+38.137s (20:17:57.980.245)</text><path d="M1047,230.9258 L1047,255.9258 L1152,255.9258 L1152,240.9258 L1142,230.9258 L1047,230.9258 " fill="#D7FEFC" style="stroke: #FFFFFF; stroke-width: 1.0;"/><path d="M1142,230.9258 L1142,240.9258 L1152,240.9258 L1142,230.9258 " fill="#D7FEFC" style="stroke: #FFFFFF; stroke-width: 1.0;"/><text fill="#000000" font-family="sans-serif" font-size="13" font-weight="bold" lengthAdjust="spacingAndGlyphs" textLength="84" x="1053" y="247.9927">NRF to PCF</text><polygon fill="#000000" points="1030,297.8906,1040,301.8906,1030,305.8906,1034,301.8906" style="stroke: #000000; stroke-width: 1.0;"/><line style="stroke: #000000; stroke-width: 1.0;" x1="373" x2="1036" y1="301.8906" y2="301.8906"/><text fill="#000000" font-family="sans-serif" font-size="13" lengthAdjust="spacingAndGlyphs" textLength="292" x="380" y="281.6919">2992, HTTP/2 req. or rsp. (no HTTP/2 headers)</text><text fill="#000000" font-family="sans-serif" font-size="13" lengthAdjust="spacingAndGlyphs" textLength="188" x="380" y="296.8247">+38.137s (20:17:57.980.578)</text><path d="M1047,275.1914 L1047,300.1914 L1152,300.1914 L1152,285.1914 L1142,275.1914 L1047,275.1914 " fill="#03B5AA" style="stroke: #FFFFFF; stroke-width: 1.0;"/><path d="M1142,275.1914 L1142,285.1914 L1152,285.1914 L1142,275.1914 " fill="#03B5AA" style="stroke: #FFFFFF; stroke-width: 1.0;"/><text fill="#000000" font-family="sans-serif" font-size="13" font-weight="bold" lengthAdjust="spacingAndGlyphs" textLength="84" x="1053" y="292.2583">NRF to PCF</text><polygon fill="#000000" points="1030,342.1563,1040,346.1563,1030,350.1563,1034,346.1563" style="stroke: #000000; stroke-width: 1.0;"/><line style="stroke: #000000; stroke-width: 1.0;" x1="373" x2="1036" y1="346.1563" y2="346.1563"/><text fill="#000000" font-family="sans-serif" font-size="13" lengthAdjust="spacingAndGlyphs" textLength="292" x="380" y="325.9575">2993, HTTP/2 req. or rsp. (no HTTP/2 headers)</text><text fill="#000000" font-family="sans-serif" font-size="13" lengthAdjust="spacingAndGlyphs" textLength="188" x="380" y="341.0903">+38.137s (20:17:57.980.683)</text><path d="M1047,319.457 L1047,344.457 L1152,344.457 L1152,329.457 L1142,319.457 L1047,319.457 " fill="#03B5AA" style="stroke: #FFFFFF; stroke-width: 1.0;"/><path d="M1142,319.457 L1142,329.457 L1152,329.457 L1142,319.457 " fill="#03B5AA" style="stroke: #FFFFFF; stroke-width: 1.0;"/><text fill="#000000" font-family="sans-serif" font-size="13" font-weight="bold" lengthAdjust="spacingAndGlyphs" textLength="84" x="1053" y="336.5239">NRF to PCF</text><polygon fill="#000000" points="384,416.6875,374,420.6875,384,424.6875,380,420.6875" style="stroke: #000000; stroke-width: 1.0;"/><line style="stroke: #000000; stroke-width: 1.0;" x1="378" x2="1041" y1="420.6875" y2="420.6875"/><text fill="#000000" font-family="sans-serif" font-size="13" lengthAdjust="spacingAndGlyphs" textLength="113" x="390" y="370.2231">2996, HTTP/2 req.</text><text fill="#000000" font-family="sans-serif" font-size="13" lengthAdjust="spacingAndGlyphs" textLength="208" x="390" y="385.356">POST  /nnrf-nfm/v1/subscriptions</text><text fill="#000000" font-family="sans-serif" font-size="13" lengthAdjust="spacingAndGlyphs" textLength="217" x="390" y="400.4888">PATCH  /nnrf-nfm/v1/subscriptions</text><text fill="#000000" font-family="sans-serif" font-size="13" lengthAdjust="spacingAndGlyphs" textLength="188" x="390" y="415.6216">+38.138s (20:17:57.981.345)</text><path d="M1047,378.8555 L1047,403.8555 L1152,403.8555 L1152,388.8555 L1142,378.8555 L1047,378.8555 " fill="#03B5AA" style="stroke: #FFFFFF; stroke-width: 1.0;"/><path d="M1142,378.8555 L1142,388.8555 L1152,388.8555 L1142,378.8555 " fill="#03B5AA" style="stroke: #FFFFFF; stroke-width: 1.0;"/><text fill="#000000" font-family="sans-serif" font-size="13" font-weight="bold" lengthAdjust="spacingAndGlyphs" textLength="84" x="1053" y="395.9224">PCF to NRF</text><polygon fill="#000000" points="384,491.2188,374,495.2188,384,499.2188,380,495.2188" style="stroke: #000000; stroke-width: 1.0;"/><line style="stroke: #000000; stroke-width: 1.0;" x1="378" x2="1041" y1="495.2188" y2="495.2188"/><text fill="#000000" font-family="sans-serif" font-size="13" lengthAdjust="spacingAndGlyphs" textLength="113" x="390" y="444.7544">2997, HTTP/2 req.</text><text fill="#000000" font-family="sans-serif" font-size="13" lengthAdjust="spacingAndGlyphs" textLength="208" x="390" y="459.8872">POST  /nnrf-nfm/v1/subscriptions</text><text fill="#000000" font-family="sans-serif" font-size="13" lengthAdjust="spacingAndGlyphs" textLength="217" x="390" y="475.02">PATCH  /nnrf-nfm/v1/subscriptions</text><text fill="#000000" font-family="sans-serif" font-size="13" lengthAdjust="spacingAndGlyphs" textLength="180" x="390" y="490.1528">+38.138s (20:17:57.981.55)</text><path d="M1047,453.3867 L1047,478.3867 L1152,478.3867 L1152,463.3867 L1142,453.3867 L1047,453.3867 " fill="#03B5AA" style="stroke: #FFFFFF; stroke-width: 1.0;"/><path d="M1142,453.3867 L1142,463.3867 L1152,463.3867 L1142,453.3867 " fill="#03B5AA" style="stroke: #FFFFFF; stroke-width: 1.0;"/><text fill="#000000" font-family="sans-serif" font-size="13" font-weight="bold" lengthAdjust="spacingAndGlyphs" textLength="84" x="1053" y="470.4536">PCF to NRF</text><polygon fill="#000000" points="384,535.4844,374,539.4844,384,543.4844,380,539.4844" style="stroke: #000000; stroke-width: 1.0;"/><line style="stroke: #000000; stroke-width: 1.0;" x1="378" x2="1041" y1="539.4844" y2="539.4844"/><text fill="#000000" font-family="sans-serif" font-size="13" lengthAdjust="spacingAndGlyphs" textLength="292" x="390" y="519.2856">2998, HTTP/2 req. or rsp. (no HTTP/2 headers)</text><text fill="#000000" font-family="sans-serif" font-size="13" lengthAdjust="spacingAndGlyphs" textLength="188" x="390" y="534.4185">+38.138s (20:17:57.981.651)</text><path d="M1047,512.7852 L1047,537.7852 L1152,537.7852 L1152,522.7852 L1142,512.7852 L1047,512.7852 " fill="#03B5AA" style="stroke: #FFFFFF; stroke-width: 1.0;"/><path d="M1142,512.7852 L1142,522.7852 L1152,522.7852 L1142,512.7852 " fill="#03B5AA" style="stroke: #FFFFFF; stroke-width: 1.0;"/><text fill="#000000" font-family="sans-serif" font-size="13" font-weight="bold" lengthAdjust="spacingAndGlyphs" textLength="84" x="1053" y="529.8521">PCF to NRF</text><polygon fill="#000000" points="384,579.75,374,583.75,384,587.75,380,583.75" style="stroke: #000000; stroke-width: 1.0;"/><line style="stroke: #000000; stroke-width: 1.0;" x1="378" x2="1041" y1="583.75" y2="583.75"/><text fill="#000000" font-family="sans-serif" font-size="13" lengthAdjust="spacingAndGlyphs" textLength="292" x="390" y="563.5513">2999, HTTP/2 req. or rsp. (no HTTP/2 headers)</text><text fill="#000000" font-family="sans-serif" font-size="13" lengthAdjust="spacingAndGlyphs" textLength="188" x="390" y="578.6841">+38.139s (20:17:57.982.614)</text><path d="M1047,557.0508 L1047,582.0508 L1152,582.0508 L1152,567.0508 L1142,557.0508 L1047,557.0508 " fill="#03B5AA" style="stroke: #FFFFFF; stroke-width: 1.0;"/><path d="M1142,557.0508 L1142,567.0508 L1152,567.0508 L1142,557.0508 " fill="#03B5AA" style="stroke: #FFFFFF; stroke-width: 1.0;"/><text fill="#000000" font-family="sans-serif" font-size="13" font-weight="bold" lengthAdjust="spacingAndGlyphs" textLength="84" x="1053" y="574.1177">PCF to NRF</text><polygon fill="#000000" points="384,654.2813,374,658.2813,384,662.2813,380,658.2813" style="stroke: #000000; stroke-width: 1.0;"/><line style="stroke: #000000; stroke-width: 1.0;" x1="378" x2="1041" y1="658.2813" y2="658.2813"/><text fill="#000000" font-family="sans-serif" font-size="13" lengthAdjust="spacingAndGlyphs" textLength="113" x="390" y="607.8169">3000, HTTP/2 req.</text><text fill="#000000" font-family="sans-serif" font-size="13" lengthAdjust="spacingAndGlyphs" textLength="208" x="390" y="622.9497">POST  /nnrf-nfm/v1/subscriptions</text><text fill="#000000" font-family="sans-serif" font-size="13" lengthAdjust="spacingAndGlyphs" textLength="217" x="390" y="638.0825">PATCH  /nnrf-nfm/v1/subscriptions</text><text fill="#000000" font-family="sans-serif" font-size="13" lengthAdjust="spacingAndGlyphs" textLength="188" x="390" y="653.2153">+38.139s (20:17:57.981.826)</text><path d="M1047,616.4492 L1047,641.4492 L1152,641.4492 L1152,626.4492 L1142,616.4492 L1047,616.4492 " fill="#03B5AA" style="stroke: #FFFFFF; stroke-width: 1.0;"/><path d="M1142,616.4492 L1142,626.4492 L1152,626.4492 L1142,616.4492 " fill="#03B5AA" style="stroke: #FFFFFF; stroke-width: 1.0;"/><text fill="#000000" font-family="sans-serif" font-size="13" font-weight="bold" lengthAdjust="spacingAndGlyphs" textLength="84" x="1053" y="633.5161">PCF to NRF</text><polygon fill="#000000" points="384,728.8125,374,732.8125,384,736.8125,380,732.8125" style="stroke: #000000; stroke-width: 1.0;"/><line style="stroke: #000000; stroke-width: 1.0;" x1="378" x2="1041" y1="732.8125" y2="732.8125"/><text fill="#000000" font-family="sans-serif" font-size="13" lengthAdjust="spacingAndGlyphs" textLength="113" x="390" y="682.3481">3001, HTTP/2 req.</text><text fill="#000000" font-family="sans-serif" font-size="13" lengthAdjust="spacingAndGlyphs" textLength="208" x="390" y="697.481">POST  /nnrf-nfm/v1/subscriptions</text><text fill="#000000" font-family="sans-serif" font-size="13" lengthAdjust="spacingAndGlyphs" textLength="217" x="390" y="712.6138">PATCH  /nnrf-nfm/v1/subscriptions</text><text fill="#000000" font-family="sans-serif" font-size="13" lengthAdjust="spacingAndGlyphs" textLength="188" x="390" y="727.7466">+38.139s (20:17:57.982.639)</text><path d="M1047,690.9805 L1047,715.9805 L1152,715.9805 L1152,700.9805 L1142,690.9805 L1047,690.9805 " fill="#03B5AA" style="stroke: #FFFFFF; stroke-width: 1.0;"/><path d="M1142,690.9805 L1142,700.9805 L1152,700.9805 L1142,690.9805 " fill="#03B5AA" style="stroke: #FFFFFF; stroke-width: 1.0;"/><text fill="#000000" font-family="sans-serif" font-size="13" font-weight="bold" lengthAdjust="spacingAndGlyphs" textLength="84" x="1053" y="708.0474">PCF to NRF</text><polygon fill="#000000" points="384,803.3438,374,807.3438,384,811.3438,380,807.3438" style="stroke: #000000; stroke-width: 1.0;"/><line style="stroke: #000000; stroke-width: 1.0;" x1="378" x2="985.5" y1="807.3438" y2="807.3438"/><text fill="#000000" font-family="sans-serif" font-size="13" lengthAdjust="spacingAndGlyphs" textLength="113" x="390" y="756.8794">3002, HTTP/2 req.</text><text fill="#000000" font-family="sans-serif" font-size="13" lengthAdjust="spacingAndGlyphs" textLength="485" x="390" y="772.0122">PATCH  /nnrf-nfm/v1/nf-instances/3c1774e6-f5a8-41ed-ba4e-c32b10ea0d21</text><text fill="#000000" font-family="sans-serif" font-size="13" lengthAdjust="spacingAndGlyphs" textLength="485" x="390" y="787.145">PATCH  /nnrf-nfm/v1/nf-instances/3c1774e6-f5a8-41ed-ba4e-c32b10ea0d21</text><text fill="#000000" font-family="sans-serif" font-size="13" lengthAdjust="spacingAndGlyphs" textLength="188" x="390" y="802.2778">+38.139s (20:17:57.982.377)</text><path d="M991,765.5117 L991,790.5117 L1105,790.5117 L1105,775.5117 L1095,765.5117 L991,765.5117 " fill="#03B5AA" style="stroke: #FFFFFF; stroke-width: 1.0;"/><path d="M1095,765.5117 L1095,775.5117 L1105,775.5117 L1095,765.5117 " fill="#03B5AA" style="stroke: #FFFFFF; stroke-width: 1.0;"/><text fill="#000000" font-family="sans-serif" font-size="13" font-weight="bold" lengthAdjust="spacingAndGlyphs" textLength="93" x="997" y="782.5786">NSSF to NRF</text><polygon fill="#000000" points="384,877.875,374,881.875,384,885.875,380,881.875" style="stroke: #000000; stroke-width: 1.0;"/><line style="stroke: #000000; stroke-width: 1.0;" x1="378" x2="985.5" y1="881.875" y2="881.875"/><text fill="#000000" font-family="sans-serif" font-size="13" lengthAdjust="spacingAndGlyphs" textLength="113" x="390" y="831.4106">3003, HTTP/2 req.</text><text fill="#000000" font-family="sans-serif" font-size="13" lengthAdjust="spacingAndGlyphs" textLength="485" x="390" y="846.5435">PATCH  /nnrf-nfm/v1/nf-instances/3c1774e6-f5a8-41ed-ba4e-c32b10ea0d21</text><text fill="#000000" font-family="sans-serif" font-size="13" lengthAdjust="spacingAndGlyphs" textLength="485" x="390" y="861.6763">PATCH  /nnrf-nfm/v1/nf-instances/3c1774e6-f5a8-41ed-ba4e-c32b10ea0d21</text><text fill="#000000" font-family="sans-serif" font-size="13" lengthAdjust="spacingAndGlyphs" textLength="188" x="390" y="876.8091">+38.139s (20:17:57.982.653)</text><path d="M991,840.043 L991,865.043 L1105,865.043 L1105,850.043 L1095,840.043 L991,840.043 " fill="#03B5AA" style="stroke: #FFFFFF; stroke-width: 1.0;"/><path d="M1095,840.043 L1095,850.043 L1105,850.043 L1095,840.043 " fill="#03B5AA" style="stroke: #FFFFFF; stroke-width: 1.0;"/><text fill="#000000" font-family="sans-serif" font-size="13" font-weight="bold" lengthAdjust="spacingAndGlyphs" textLength="93" x="997" y="857.1099">NSSF to NRF</text><polygon fill="#000000" points="384,922.1406,374,926.1406,384,930.1406,380,926.1406" style="stroke: #000000; stroke-width: 1.0;"/><line style="stroke: #000000; stroke-width: 1.0;" x1="378" x2="985.5" y1="926.1406" y2="926.1406"/><text fill="#000000" font-family="sans-serif" font-size="13" lengthAdjust="spacingAndGlyphs" textLength="292" x="390" y="905.9419">3004, HTTP/2 req. or rsp. (no HTTP/2 headers)</text><text fill="#000000" font-family="sans-serif" font-size="13" lengthAdjust="spacingAndGlyphs" textLength="188" x="390" y="921.0747">+38.139s (20:17:57.982.405)</text><path d="M991,899.4414 L991,924.4414 L1105,924.4414 L1105,909.4414 L1095,899.4414 L991,899.4414 " fill="#03B5AA" style="stroke: #FFFFFF; stroke-width: 1.0;"/><path d="M1095,899.4414 L1095,909.4414 L1105,909.4414 L1095,899.4414 " fill="#03B5AA" style="stroke: #FFFFFF; stroke-width: 1.0;"/><text fill="#000000" font-family="sans-serif" font-size="13" font-weight="bold" lengthAdjust="spacingAndGlyphs" textLength="93" x="997" y="916.5083">NSSF to NRF</text><polygon fill="#000000" points="384,966.4063,374,970.4063,384,974.4063,380,970.4063" style="stroke: #000000; stroke-width: 1.0;"/><line style="stroke: #000000; stroke-width: 1.0;" x1="378" x2="985.5" y1="970.4063" y2="970.4063"/><text fill="#000000" font-family="sans-serif" font-size="13" lengthAdjust="spacingAndGlyphs" textLength="292" x="390" y="950.2075">3005, HTTP/2 req. or rsp. (no HTTP/2 headers)</text><text fill="#000000" font-family="sans-serif" font-size="13" lengthAdjust="spacingAndGlyphs" textLength="188" x="390" y="965.3403">+38.139s (20:17:57.982.669)</text><path d="M991,943.707 L991,968.707 L1105,968.707 L1105,953.707 L1095,943.707 L991,943.707 " fill="#03B5AA" style="stroke: #FFFFFF; stroke-width: 1.0;"/><path d="M1095,943.707 L1095,953.707 L1105,953.707 L1095,943.707 " fill="#03B5AA" style="stroke: #FFFFFF; stroke-width: 1.0;"/><text fill="#000000" font-family="sans-serif" font-size="13" font-weight="bold" lengthAdjust="spacingAndGlyphs" textLength="93" x="997" y="960.7739">NSSF to NRF</text><polygon fill="#000000" points="1030,1010.6719,1040,1014.6719,1030,1018.6719,1034,1014.6719" style="stroke: #000000; stroke-width: 1.0;"/><line style="stroke: #000000; stroke-width: 1.0;" x1="373" x2="1036" y1="1014.6719" y2="1014.6719"/><text fill="#000000" font-family="sans-serif" font-size="13" lengthAdjust="spacingAndGlyphs" textLength="292" x="380" y="994.4731">3012, HTTP/2 req. or rsp. (no HTTP/2 headers)</text><text fill="#000000" font-family="sans-serif" font-size="13" lengthAdjust="spacingAndGlyphs" textLength="188" x="380" y="1009.606">+38.142s (20:17:57.985.057)</text><path d="M1047,987.9727 L1047,1012.9727 L1152,1012.9727 L1152,997.9727 L1142,987.9727 L1047,987.9727 " fill="#03B5AA" style="stroke: #FFFFFF; stroke-width: 1.0;"/><path d="M1142,987.9727 L1142,997.9727 L1152,997.9727 L1142,987.9727 " fill="#03B5AA" style="stroke: #FFFFFF; stroke-width: 1.0;"/><text fill="#000000" font-family="sans-serif" font-size="13" font-weight="bold" lengthAdjust="spacingAndGlyphs" textLength="84" x="1053" y="1005.0396">NRF to PCF</text><polygon fill="#000000" points="1030,1054.9375,1040,1058.9375,1030,1062.9375,1034,1058.9375" style="stroke: #000000; stroke-width: 1.0;"/><line style="stroke: #000000; stroke-width: 1.0;" x1="373" x2="1036" y1="1058.9375" y2="1058.9375"/><text fill="#000000" font-family="sans-serif" font-size="13" lengthAdjust="spacingAndGlyphs" textLength="292" x="380" y="1038.7388">3013, HTTP/2 req. or rsp. (no HTTP/2 headers)</text><text fill="#000000" font-family="sans-serif" font-size="13" lengthAdjust="spacingAndGlyphs" textLength="188" x="380" y="1053.8716">+38.142s (20:17:57.985.114)</text><path d="M1047,1032.2383 L1047,1057.2383 L1152,1057.2383 L1152,1042.2383 L1142,1032.2383 L1047,1032.2383 " fill="#03B5AA" style="stroke: #FFFFFF; stroke-width: 1.0;"/><path d="M1142,1032.2383 L1142,1042.2383 L1152,1042.2383 L1142,1032.2383 " fill="#03B5AA" style="stroke: #FFFFFF; stroke-width: 1.0;"/><text fill="#000000" font-family="sans-serif" font-size="13" font-weight="bold" lengthAdjust="spacingAndGlyphs" textLength="84" x="1053" y="1049.3052">NRF to PCF</text><polygon fill="#000000" points="974.5,1099.2031,984.5,1103.2031,974.5,1107.2031,978.5,1103.2031" style="stroke: #000000; stroke-width: 1.0;"/><line style="stroke: #000000; stroke-width: 1.0;" x1="373" x2="980.5" y1="1103.2031" y2="1103.2031"/><text fill="#000000" font-family="sans-serif" font-size="13" lengthAdjust="spacingAndGlyphs" textLength="140" x="380" y="1083.0044">3014, HTTP/2 200 rsp.</text><text fill="#000000" font-family="sans-serif" font-size="13" lengthAdjust="spacingAndGlyphs" textLength="172" x="380" y="1098.1372">+38.163s (20:17:58.6.208)</text><path d="M991,1076.5039 L991,1101.5039 L1105,1101.5039 L1105,1086.5039 L1095,1076.5039 L991,1076.5039 " fill="#D7FEFC" style="stroke: #FFFFFF; stroke-width: 1.0;"/><path d="M1095,1076.5039 L1095,1086.5039 L1105,1086.5039 L1095,1076.5039 " fill="#D7FEFC" style="stroke: #FFFFFF; stroke-width: 1.0;"/><text fill="#000000" font-family="sans-serif" font-size="13" font-weight="bold" lengthAdjust="spacingAndGlyphs" textLength="93" x="997" y="1093.5708">NRF to NSSF</text><polygon fill="#000000" points="974.5,1143.4688,984.5,1147.4688,974.5,1151.4688,978.5,1147.4688" style="stroke: #000000; stroke-width: 1.0;"/><line style="stroke: #000000; stroke-width: 1.0;" x1="373" x2="980.5" y1="1147.4688" y2="1147.4688"/><text fill="#000000" font-family="sans-serif" font-size="13" lengthAdjust="spacingAndGlyphs" textLength="140" x="380" y="1127.27">3015, HTTP/2 200 rsp.</text><text fill="#000000" font-family="sans-serif" font-size="13" lengthAdjust="spacingAndGlyphs" textLength="172" x="380" y="1142.4028">+38.163s (20:17:58.6.244)</text><path d="M991,1120.7695 L991,1145.7695 L1105,1145.7695 L1105,1130.7695 L1095,1120.7695 L991,1120.7695 " fill="#D7FEFC" style="stroke: #FFFFFF; stroke-width: 1.0;"/><path d="M1095,1120.7695 L1095,1130.7695 L1105,1130.7695 L1095,1120.7695 " fill="#D7FEFC" style="stroke: #FFFFFF; stroke-width: 1.0;"/><text fill="#000000" font-family="sans-serif" font-size="13" font-weight="bold" lengthAdjust="spacingAndGlyphs" textLength="93" x="997" y="1137.8364">NRF to NSSF</text><polygon fill="#000000" points="1030,1187.7344,1040,1191.7344,1030,1195.7344,1034,1191.7344" style="stroke: #000000; stroke-width: 1.0;"/><line style="stroke: #000000; stroke-width: 1.0;" x1="373" x2="1036" y1="1191.7344" y2="1191.7344"/><text fill="#000000" font-family="sans-serif" font-size="13" lengthAdjust="spacingAndGlyphs" textLength="292" x="380" y="1171.5356">3018, HTTP/2 req. or rsp. (no HTTP/2 headers)</text><text fill="#000000" font-family="sans-serif" font-size="13" lengthAdjust="spacingAndGlyphs" textLength="180" x="380" y="1186.6685">+38.171s (20:17:58.14.576)</text><path d="M1047,1165.0352 L1047,1190.0352 L1152,1190.0352 L1152,1175.0352 L1142,1165.0352 L1047,1165.0352 " fill="#03B5AA" style="stroke: #FFFFFF; stroke-width: 1.0;"/><path d="M1142,1165.0352 L1142,1175.0352 L1152,1175.0352 L1142,1165.0352 " fill="#03B5AA" style="stroke: #FFFFFF; stroke-width: 1.0;"/><text fill="#000000" font-family="sans-serif" font-size="13" font-weight="bold" lengthAdjust="spacingAndGlyphs" textLength="84" x="1053" y="1182.1021">NRF to PCF</text><polygon fill="#000000" points="1030,1232,1040,1236,1030,1240,1034,1236" style="stroke: #000000; stroke-width: 1.0;"/><line style="stroke: #000000; stroke-width: 1.0;" x1="373" x2="1036" y1="1236" y2="1236"/><text fill="#000000" font-family="sans-serif" font-size="13" lengthAdjust="spacingAndGlyphs" textLength="292" x="380" y="1215.8013">3019, HTTP/2 req. or rsp. (no HTTP/2 headers)</text><text fill="#000000" font-family="sans-serif" font-size="13" lengthAdjust="spacingAndGlyphs" textLength="180" x="380" y="1230.9341">+38.171s (20:17:58.14.618)</text><path d="M1047,1209.3008 L1047,1234.3008 L1152,1234.3008 L1152,1219.3008 L1142,1209.3008 L1047,1209.3008 " fill="#03B5AA" style="stroke: #FFFFFF; stroke-width: 1.0;"/><path d="M1142,1209.3008 L1142,1219.3008 L1152,1219.3008 L1142,1209.3008 " fill="#03B5AA" style="stroke: #FFFFFF; stroke-width: 1.0;"/><text fill="#000000" font-family="sans-serif" font-size="13" font-weight="bold" lengthAdjust="spacingAndGlyphs" textLength="84" x="1053" y="1226.3677">NRF to PCF</text><polygon fill="#000000" points="974.5,1276.2656,984.5,1280.2656,974.5,1284.2656,978.5,1280.2656" style="stroke: #000000; stroke-width: 1.0;"/><line style="stroke: #000000; stroke-width: 1.0;" x1="373" x2="980.5" y1="1280.2656" y2="1280.2656"/><text fill="#000000" font-family="sans-serif" font-size="13" lengthAdjust="spacingAndGlyphs" textLength="292" x="380" y="1260.0669">3022, HTTP/2 req. or rsp. (no HTTP/2 headers)</text><text fill="#000000" font-family="sans-serif" font-size="13" lengthAdjust="spacingAndGlyphs" textLength="180" x="380" y="1275.1997">+38.172s (20:17:58.15.621)</text><path d="M991,1253.5664 L991,1278.5664 L1105,1278.5664 L1105,1263.5664 L1095,1253.5664 L991,1253.5664 " fill="#03B5AA" style="stroke: #FFFFFF; stroke-width: 1.0;"/><path d="M1095,1253.5664 L1095,1263.5664 L1105,1263.5664 L1095,1253.5664 " fill="#03B5AA" style="stroke: #FFFFFF; stroke-width: 1.0;"/><text fill="#000000" font-family="sans-serif" font-size="13" font-weight="bold" lengthAdjust="spacingAndGlyphs" textLength="93" x="997" y="1270.6333">NRF to NSSF</text><polygon fill="#000000" points="974.5,1320.5313,984.5,1324.5313,974.5,1328.5313,978.5,1324.5313" style="stroke: #000000; stroke-width: 1.0;"/><line style="stroke: #000000; stroke-width: 1.0;" x1="373" x2="980.5" y1="1324.5313" y2="1324.5313"/><text fill="#000000" font-family="sans-serif" font-size="13" lengthAdjust="spacingAndGlyphs" textLength="292" x="380" y="1304.3325">3023, HTTP/2 req. or rsp. (no HTTP/2 headers)</text><text fill="#000000" font-family="sans-serif" font-size="13" lengthAdjust="spacingAndGlyphs" textLength="180" x="380" y="1319.4653">+38.172s (20:17:58.15.667)</text><path d="M991,1297.832 L991,1322.832 L1105,1322.832 L1105,1307.832 L1095,1297.832 L991,1297.832 " fill="#03B5AA" style="stroke: #FFFFFF; stroke-width: 1.0;"/><path d="M1095,1297.832 L1095,1307.832 L1105,1307.832 L1095,1297.832 " fill="#03B5AA" style="stroke: #FFFFFF; stroke-width: 1.0;"/><text fill="#000000" font-family="sans-serif" font-size="13" font-weight="bold" lengthAdjust="spacingAndGlyphs" textLength="93" x="997" y="1314.8989">NRF to NSSF</text><polygon fill="#000000" points="1030,1364.7969,1040,1368.7969,1030,1372.7969,1034,1368.7969" style="stroke: #000000; stroke-width: 1.0;"/><line style="stroke: #000000; stroke-width: 1.0;" x1="373" x2="1036" y1="1368.7969" y2="1368.7969"/><text fill="#000000" font-family="sans-serif" font-size="13" lengthAdjust="spacingAndGlyphs" textLength="292" x="380" y="1348.5981">3026, HTTP/2 req. or rsp. (no HTTP/2 headers)</text><text fill="#000000" font-family="sans-serif" font-size="13" lengthAdjust="spacingAndGlyphs" textLength="188" x="380" y="1363.731">+38.274s (20:17:58.116.793)</text><path d="M1047,1342.0977 L1047,1367.0977 L1152,1367.0977 L1152,1352.0977 L1142,1342.0977 L1047,1342.0977 " fill="#03B5AA" style="stroke: #FFFFFF; stroke-width: 1.0;"/><path d="M1142,1342.0977 L1142,1352.0977 L1152,1352.0977 L1142,1342.0977 " fill="#03B5AA" style="stroke: #FFFFFF; stroke-width: 1.0;"/><text fill="#000000" font-family="sans-serif" font-size="13" font-weight="bold" lengthAdjust="spacingAndGlyphs" textLength="84" x="1053" y="1359.1646">NRF to PCF</text><polygon fill="#000000" points="1030,1409.0625,1040,1413.0625,1030,1417.0625,1034,1413.0625" style="stroke: #000000; stroke-width: 1.0;"/><line style="stroke: #000000; stroke-width: 1.0;" x1="373" x2="1036" y1="1413.0625" y2="1413.0625"/><text fill="#000000" font-family="sans-serif" font-size="13" lengthAdjust="spacingAndGlyphs" textLength="292" x="380" y="1392.8638">3027, HTTP/2 req. or rsp. (no HTTP/2 headers)</text><text fill="#000000" font-family="sans-serif" font-size="13" lengthAdjust="spacingAndGlyphs" textLength="180" x="380" y="1407.9966">+38.274s (20:17:58.116.82)</text><path d="M1047,1386.3633 L1047,1411.3633 L1152,1411.3633 L1152,1396.3633 L1142,1386.3633 L1047,1386.3633 " fill="#03B5AA" style="stroke: #FFFFFF; stroke-width: 1.0;"/><path d="M1142,1386.3633 L1142,1396.3633 L1152,1396.3633 L1142,1386.3633 " fill="#03B5AA" style="stroke: #FFFFFF; stroke-width: 1.0;"/><text fill="#000000" font-family="sans-serif" font-size="13" font-weight="bold" lengthAdjust="spacingAndGlyphs" textLength="84" x="1053" y="1403.4302">NRF to PCF</text><polygon fill="#000000" points="1030,1453.3281,1040,1457.3281,1030,1461.3281,1034,1457.3281" style="stroke: #000000; stroke-width: 1.0;"/><line style="stroke: #000000; stroke-width: 1.0;" x1="373" x2="1036" y1="1457.3281" y2="1457.3281"/><text fill="#000000" font-family="sans-serif" font-size="13" lengthAdjust="spacingAndGlyphs" textLength="292" x="380" y="1437.1294">3028, HTTP/2 req. or rsp. (no HTTP/2 headers)</text><text fill="#000000" font-family="sans-serif" font-size="13" lengthAdjust="spacingAndGlyphs" textLength="188" x="380" y="1452.2622">+38.274s (20:17:58.117.063)</text><path d="M1047,1430.6289 L1047,1455.6289 L1152,1455.6289 L1152,1440.6289 L1142,1430.6289 L1047,1430.6289 " fill="#03B5AA" style="stroke: #FFFFFF; stroke-width: 1.0;"/><path d="M1142,1430.6289 L1142,1440.6289 L1152,1440.6289 L1142,1430.6289 " fill="#03B5AA" style="stroke: #FFFFFF; stroke-width: 1.0;"/><text fill="#000000" font-family="sans-serif" font-size="13" font-weight="bold" lengthAdjust="spacingAndGlyphs" textLength="84" x="1053" y="1447.6958">NRF to PCF</text><polygon fill="#000000" points="1030,1497.5938,1040,1501.5938,1030,1505.5938,1034,1501.5938" style="stroke: #000000; stroke-width: 1.0;"/><line style="stroke: #000000; stroke-width: 1.0;" x1="373" x2="1036" y1="1501.5938" y2="1501.5938"/><text fill="#000000" font-family="sans-serif" font-size="13" lengthAdjust="spacingAndGlyphs" textLength="292" x="380" y="1481.395">3029, HTTP/2 req. or rsp. (no HTTP/2 headers)</text><text fill="#000000" font-family="sans-serif" font-size="13" lengthAdjust="spacingAndGlyphs" textLength="188" x="380" y="1496.5278">+38.274s (20:17:58.117.136)</text><path d="M1047,1474.8945 L1047,1499.8945 L1152,1499.8945 L1152,1484.8945 L1142,1474.8945 L1047,1474.8945 " fill="#03B5AA" style="stroke: #FFFFFF; stroke-width: 1.0;"/><path d="M1142,1474.8945 L1142,1484.8945 L1152,1484.8945 L1142,1474.8945 " fill="#03B5AA" style="stroke: #FFFFFF; stroke-width: 1.0;"/><text fill="#000000" font-family="sans-serif" font-size="13" font-weight="bold" lengthAdjust="spacingAndGlyphs" textLength="84" x="1053" y="1491.9614">NRF to PCF</text><!--MD5=[4d5a90ff019a4d8dff0864056d096233]
@startuml
skinparam shadowing false
skinparam NoteBorderColor white
skinparam sequence {
    ArrowColor black
    LifeLineBorderColor black
    LifeLineBackgroundColor black
    ParticipantBorderColor white
    ParticipantBackgroundColor #e6e6e6
}
participant "gNB"
participant "AMF"
participant "SMF"
participant "UPF"
participant "SGWU"
participant "SGWC"
participant "NRF"
participant "UDR"
participant "AUSF"
participant "8.8.8.8"
participant "UDM"
participant "BSF"
participant "NSSF"
participant "PCF"

"NRF" -> "UDR": 2981, HTTP/2 req. or rsp. (no HTTP/2 headers)\n+38.122s (20:17:57.965.68)

note right #03B5AA
**NRF to UDR**
end note

"NRF" -> "BSF": 2984, HTTP/2 req. or rsp. (no HTTP/2 headers)\n+38.123s (20:17:57.965.873)

note right #03B5AA
**NRF to BSF**
end note

"NRF" -> "BSF": 2985, HTTP/2 req. or rsp. (no HTTP/2 headers)\n+38.123s (20:17:57.965.893)

note right #03B5AA
**NRF to BSF**
end note

"NRF" -> "PCF": 2988, HTTP/2 200 rsp.\n+38.137s (20:17:57.980.198)

note right #D7FEFC
**NRF to PCF**
end note

"NRF" -> "PCF": 2989, HTTP/2 200 rsp.\n+38.137s (20:17:57.980.245)

note right #D7FEFC
**NRF to PCF**
end note

"NRF" -> "PCF": 2992, HTTP/2 req. or rsp. (no HTTP/2 headers)\n+38.137s (20:17:57.980.578)

note right #03B5AA
**NRF to PCF**
end note

"NRF" -> "PCF": 2993, HTTP/2 req. or rsp. (no HTTP/2 headers)\n+38.137s (20:17:57.980.683)

note right #03B5AA
**NRF to PCF**
end note

"PCF" -> "NRF": 2996, HTTP/2 req.\nPOST  /nnrf-nfm/v1/subscriptions\nPATCH  /nnrf-nfm/v1/subscriptions\n+38.138s (20:17:57.981.345)

note right #03B5AA
**PCF to NRF**
end note

"PCF" -> "NRF": 2997, HTTP/2 req.\nPOST  /nnrf-nfm/v1/subscriptions\nPATCH  /nnrf-nfm/v1/subscriptions\n+38.138s (20:17:57.981.55)

note right #03B5AA
**PCF to NRF**
end note

"PCF" -> "NRF": 2998, HTTP/2 req. or rsp. (no HTTP/2 headers)\n+38.138s (20:17:57.981.651)

note right #03B5AA
**PCF to NRF**
end note

"PCF" -> "NRF": 2999, HTTP/2 req. or rsp. (no HTTP/2 headers)\n+38.139s (20:17:57.982.614)

note right #03B5AA
**PCF to NRF**
end note

"PCF" -> "NRF": 3000, HTTP/2 req.\nPOST  /nnrf-nfm/v1/subscriptions\nPATCH  /nnrf-nfm/v1/subscriptions\n+38.139s (20:17:57.981.826)

note right #03B5AA
**PCF to NRF**
end note

"PCF" -> "NRF": 3001, HTTP/2 req.\nPOST  /nnrf-nfm/v1/subscriptions\nPATCH  /nnrf-nfm/v1/subscriptions\n+38.139s (20:17:57.982.639)

note right #03B5AA
**PCF to NRF**
end note

"NSSF" -> "NRF": 3002, HTTP/2 req.\nPATCH  /nnrf-nfm/v1/nf-instances/3c1774e6-f5a8-41ed-ba4e-c32b10ea0d21\nPATCH  /nnrf-nfm/v1/nf-instances/3c1774e6-f5a8-41ed-ba4e-c32b10ea0d21\n+38.139s (20:17:57.982.377)

note right #03B5AA
**NSSF to NRF**
end note

"NSSF" -> "NRF": 3003, HTTP/2 req.\nPATCH  /nnrf-nfm/v1/nf-instances/3c1774e6-f5a8-41ed-ba4e-c32b10ea0d21\nPATCH  /nnrf-nfm/v1/nf-instances/3c1774e6-f5a8-41ed-ba4e-c32b10ea0d21\n+38.139s (20:17:57.982.653)

note right #03B5AA
**NSSF to NRF**
end note

"NSSF" -> "NRF": 3004, HTTP/2 req. or rsp. (no HTTP/2 headers)\n+38.139s (20:17:57.982.405)

note right #03B5AA
**NSSF to NRF**
end note

"NSSF" -> "NRF": 3005, HTTP/2 req. or rsp. (no HTTP/2 headers)\n+38.139s (20:17:57.982.669)

note right #03B5AA
**NSSF to NRF**
end note

"NRF" -> "PCF": 3012, HTTP/2 req. or rsp. (no HTTP/2 headers)\n+38.142s (20:17:57.985.057)

note right #03B5AA
**NRF to PCF**
end note

"NRF" -> "PCF": 3013, HTTP/2 req. or rsp. (no HTTP/2 headers)\n+38.142s (20:17:57.985.114)

note right #03B5AA
**NRF to PCF**
end note

"NRF" -> "NSSF": 3014, HTTP/2 200 rsp.\n+38.163s (20:17:58.6.208)

note right #D7FEFC
**NRF to NSSF**
end note

"NRF" -> "NSSF": 3015, HTTP/2 200 rsp.\n+38.163s (20:17:58.6.244)

note right #D7FEFC
**NRF to NSSF**
end note

"NRF" -> "PCF": 3018, HTTP/2 req. or rsp. (no HTTP/2 headers)\n+38.171s (20:17:58.14.576)

note right #03B5AA
**NRF to PCF**
end note

"NRF" -> "PCF": 3019, HTTP/2 req. or rsp. (no HTTP/2 headers)\n+38.171s (20:17:58.14.618)

note right #03B5AA
**NRF to PCF**
end note

"NRF" -> "NSSF": 3022, HTTP/2 req. or rsp. (no HTTP/2 headers)\n+38.172s (20:17:58.15.621)

note right #03B5AA
**NRF to NSSF**
end note

"NRF" -> "NSSF": 3023, HTTP/2 req. or rsp. (no HTTP/2 headers)\n+38.172s (20:17:58.15.667)

note right #03B5AA
**NRF to NSSF**
end note

"NRF" -> "PCF": 3026, HTTP/2 req. or rsp. (no HTTP/2 headers)\n+38.274s (20:17:58.116.793)

note right #03B5AA
**NRF to PCF**
end note

"NRF" -> "PCF": 3027, HTTP/2 req. or rsp. (no HTTP/2 headers)\n+38.274s (20:17:58.116.82)

note right #03B5AA
**NRF to PCF**
end note

"NRF" -> "PCF": 3028, HTTP/2 req. or rsp. (no HTTP/2 headers)\n+38.274s (20:17:58.117.063)

note right #03B5AA
**NRF to PCF**
end note

"NRF" -> "PCF": 3029, HTTP/2 req. or rsp. (no HTTP/2 headers)\n+38.274s (20:17:58.117.136)

note right #03B5AA
**NRF to PCF**
end note

@enduml

PlantUML version 1.2019.12(Sun Nov 03 11:24:54 CET 2019)
(APACHE source distribution)
Java Runtime: OpenJDK Runtime Environment
JVM: OpenJDK 64-Bit Server VM
Java Version: 11.0.18+10-post-Ubuntu-0ubuntu120.04.1
Operating System: Linux
Default Encoding: UTF-8
Language: en
Country: US
--></g></svg>