<?xml version="1.0" encoding="UTF-8" standalone="no"?><svg xmlns="http://www.w3.org/2000/svg" xmlns:xlink="http://www.w3.org/1999/xlink" contentScriptType="application/ecmascript" contentStyleType="text/css" height="856px" preserveAspectRatio="none" style="width:1406px;height:856px;" version="1.1" viewBox="0 0 1406 856" width="1406px" zoomAndPan="magnify"><defs/><g><line style="stroke: #000000; stroke-width: 1.0; stroke-dasharray: 5.0,5.0;" x1="59" x2="59" y1="34.2969" y2="816.5469"/><line style="stroke: #000000; stroke-width: 1.0; stroke-dasharray: 5.0,5.0;" x1="142" x2="142" y1="34.2969" y2="816.5469"/><line style="stroke: #000000; stroke-width: 1.0; stroke-dasharray: 5.0,5.0;" x1="487" x2="487" y1="34.2969" y2="816.5469"/><line style="stroke: #000000; stroke-width: 1.0; stroke-dasharray: 5.0,5.0;" x1="832" x2="832" y1="34.2969" y2="816.5469"/><line style="stroke: #000000; stroke-width: 1.0; stroke-dasharray: 5.0,5.0;" x1="884" x2="884" y1="34.2969" y2="816.5469"/><line style="stroke: #000000; stroke-width: 1.0; stroke-dasharray: 5.0,5.0;" x1="1195" x2="1195" y1="34.2969" y2="816.5469"/><rect fill="#E6E6E6" height="30.2969" style="stroke: #FFFFFF; stroke-width: 1.5;" width="103" x="8" y="3"/><text fill="#000000" font-family="sans-serif" font-size="14" lengthAdjust="spacingAndGlyphs" textLength="89" x="15" y="22.9951">Malicious_UE</text><rect fill="#E6E6E6" height="30.2969" style="stroke: #FFFFFF; stroke-width: 1.5;" width="103" x="8" y="815.5469"/><text fill="#000000" font-family="sans-serif" font-size="14" lengthAdjust="spacingAndGlyphs" textLength="89" x="15" y="835.542">Malicious_UE</text><rect fill="#E6E6E6" height="30.2969" style="stroke: #FFFFFF; stroke-width: 1.5;" width="43" x="121" y="3"/><text fill="#000000" font-family="sans-serif" font-size="14" lengthAdjust="spacingAndGlyphs" textLength="29" x="128" y="22.9951">gNB</text><rect fill="#E6E6E6" height="30.2969" style="stroke: #FFFFFF; stroke-width: 1.5;" width="43" x="121" y="815.5469"/><text fill="#000000" font-family="sans-serif" font-size="14" lengthAdjust="spacingAndGlyphs" textLength="29" x="128" y="835.542">gNB</text><rect fill="#E6E6E6" height="30.2969" style="stroke: #FFFFFF; stroke-width: 1.5;" width="41" x="467" y="3"/><text fill="#000000" font-family="sans-serif" font-size="14" lengthAdjust="spacingAndGlyphs" textLength="27" x="474" y="22.9951">UPF</text><rect fill="#E6E6E6" height="30.2969" style="stroke: #FFFFFF; stroke-width: 1.5;" width="41" x="467" y="815.5469"/><text fill="#000000" font-family="sans-serif" font-size="14" lengthAdjust="spacingAndGlyphs" textLength="27" x="474" y="835.542">UPF</text><rect fill="#E6E6E6" height="30.2969" style="stroke: #FFFFFF; stroke-width: 1.5;" width="43" x="811" y="3"/><text fill="#000000" font-family="sans-serif" font-size="14" lengthAdjust="spacingAndGlyphs" textLength="29" x="818" y="22.9951">SMF</text><rect fill="#E6E6E6" height="30.2969" style="stroke: #FFFFFF; stroke-width: 1.5;" width="43" x="811" y="815.5469"/><text fill="#000000" font-family="sans-serif" font-size="14" lengthAdjust="spacingAndGlyphs" textLength="29" x="818" y="835.542">SMF</text><rect fill="#E6E6E6" height="30.2969" style="stroke: #FFFFFF; stroke-width: 1.5;" width="41" x="864" y="3"/><text fill="#000000" font-family="sans-serif" font-size="14" lengthAdjust="spacingAndGlyphs" textLength="27" x="871" y="22.9951">BSF</text><rect fill="#E6E6E6" height="30.2969" style="stroke: #FFFFFF; stroke-width: 1.5;" width="41" x="864" y="815.5469"/><text fill="#000000" font-family="sans-serif" font-size="14" lengthAdjust="spacingAndGlyphs" textLength="27" x="871" y="835.542">BSF</text><rect fill="#E6E6E6" height="30.2969" style="stroke: #FFFFFF; stroke-width: 1.5;" width="41" x="1175" y="3"/><text fill="#000000" font-family="sans-serif" font-size="14" lengthAdjust="spacingAndGlyphs" textLength="27" x="1182" y="22.9951">PCF</text><rect fill="#E6E6E6" height="30.2969" style="stroke: #FFFFFF; stroke-width: 1.5;" width="41" x="1175" y="815.5469"/><text fill="#000000" font-family="sans-serif" font-size="14" lengthAdjust="spacingAndGlyphs" textLength="27" x="1182" y="835.542">PCF</text><polygon fill="#000000" points="475.5,76.5625,485.5,80.5625,475.5,84.5625,479.5,80.5625" style="stroke: #000000; stroke-width: 1.0;"/><line style="stroke: #000000; stroke-width: 1.0;" x1="142.5" x2="481.5" y1="80.5625" y2="80.5625"/><text fill="#000000" font-family="sans-serif" font-size="13" lengthAdjust="spacingAndGlyphs" textLength="113" x="149.5" y="60.3638">4089, HTTP/2 req.</text><text fill="#000000" font-family="sans-serif" font-size="13" lengthAdjust="spacingAndGlyphs" textLength="321" x="149.5" y="75.4966">POST  /nsmf-pdusession/v1/sm-contexts/4/release</text><path d="M492,53.8633 L492,78.8633 L598,78.8633 L598,63.8633 L588,53.8633 L492,53.8633 " fill="#5C8001" style="stroke: #FFFFFF; stroke-width: 1.0;"/><path d="M588,53.8633 L588,63.8633 L598,63.8633 L588,53.8633 " fill="#5C8001" style="stroke: #FFFFFF; stroke-width: 1.0;"/><text fill="#000000" font-family="sans-serif" font-size="13" font-weight="bold" lengthAdjust="spacingAndGlyphs" textLength="85" x="498" y="70.9302">gNB to UPF</text><polygon fill="#000000" points="820.5,120.8281,830.5,124.8281,820.5,128.8281,824.5,124.8281" style="stroke: #000000; stroke-width: 1.0;"/><line style="stroke: #000000; stroke-width: 1.0;" x1="59.5" x2="826.5" y1="124.8281" y2="124.8281"/><text fill="#000000" font-family="sans-serif" font-size="13" lengthAdjust="spacingAndGlyphs" textLength="113" x="66.5" y="104.6294">4090, HTTP/2 req.</text><text fill="#000000" font-family="sans-serif" font-size="13" lengthAdjust="spacingAndGlyphs" textLength="321" x="66.5" y="119.7622">POST  /nsmf-pdusession/v1/sm-contexts/4/release</text><path d="M837,98.1289 L837,123.1289 L1008,123.1289 L1008,108.1289 L998,98.1289 L837,98.1289 " fill="#FFC2D9" style="stroke: #FFFFFF; stroke-width: 1.0;"/><path d="M998,98.1289 L998,108.1289 L1008,108.1289 L998,98.1289 " fill="#FFC2D9" style="stroke: #FFFFFF; stroke-width: 1.0;"/><text fill="#000000" font-family="sans-serif" font-size="13" font-weight="bold" lengthAdjust="spacingAndGlyphs" textLength="150" x="843" y="115.1958">Malicious_UE to SMF</text><polygon fill="#000000" points="820.5,165.0938,830.5,169.0938,820.5,173.0938,824.5,169.0938" style="stroke: #000000; stroke-width: 1.0;"/><line style="stroke: #000000; stroke-width: 1.0;" x1="487.5" x2="826.5" y1="169.0938" y2="169.0938"/><text fill="#000000" font-family="sans-serif" font-size="13" lengthAdjust="spacingAndGlyphs" textLength="113" x="494.5" y="148.895">4091, HTTP/2 req.</text><text fill="#000000" font-family="sans-serif" font-size="13" lengthAdjust="spacingAndGlyphs" textLength="321" x="494.5" y="164.0278">POST  /nsmf-pdusession/v1/sm-contexts/4/release</text><path d="M837,142.3945 L837,167.3945 L943,167.3945 L943,152.3945 L933,142.3945 L837,142.3945 " fill="#03B5AA" style="stroke: #FFFFFF; stroke-width: 1.0;"/><path d="M933,142.3945 L933,152.3945 L943,152.3945 L933,142.3945 " fill="#03B5AA" style="stroke: #FFFFFF; stroke-width: 1.0;"/><text fill="#000000" font-family="sans-serif" font-size="13" font-weight="bold" lengthAdjust="spacingAndGlyphs" textLength="85" x="843" y="159.4614">UPF to SMF</text><polygon fill="#000000" points="1183.5,209.3594,1193.5,213.3594,1183.5,217.3594,1187.5,213.3594" style="stroke: #000000; stroke-width: 1.0;"/><line style="stroke: #000000; stroke-width: 1.0;" x1="832.5" x2="1189.5" y1="213.3594" y2="213.3594"/><text fill="#000000" font-family="sans-serif" font-size="13" lengthAdjust="spacingAndGlyphs" textLength="113" x="839.5" y="193.1606">4125, HTTP/2 req.</text><text fill="#000000" font-family="sans-serif" font-size="13" lengthAdjust="spacingAndGlyphs" textLength="329" x="839.5" y="208.2935">POST  /npcf-smpolicycontrol/v1/sm-policies/4/delete</text><path d="M1200,186.6602 L1200,211.6602 L1306,211.6602 L1306,196.6602 L1296,186.6602 L1200,186.6602 " fill="#FFEAC2" style="stroke: #FFFFFF; stroke-width: 1.0;"/><path d="M1296,186.6602 L1296,196.6602 L1306,196.6602 L1296,186.6602 " fill="#FFEAC2" style="stroke: #FFFFFF; stroke-width: 1.0;"/><text fill="#000000" font-family="sans-serif" font-size="13" font-weight="bold" lengthAdjust="spacingAndGlyphs" textLength="85" x="1206" y="203.7271">SMF to PCF</text><polygon fill="#000000" points="1183.5,309.5898,1193.5,313.5898,1183.5,317.5898,1187.5,313.5898" style="stroke: #000000; stroke-width: 1.0;"/><line style="stroke: #000000; stroke-width: 1.0;" x1="832.5" x2="1189.5" y1="313.5898" y2="313.5898"/><text fill="#000000" font-family="sans-serif" font-size="13" lengthAdjust="spacingAndGlyphs" textLength="292" x="839.5" y="308.5239">4129, HTTP/2 req. or rsp. (no HTTP/2 headers)</text><path d="M1200,226.3594 L1200,387.3594 L1394,387.3594 L1394,236.3594 L1384,226.3594 L1200,226.3594 " fill="#FFEAC2" style="stroke: #FFFFFF; stroke-width: 1.0;"/><path d="M1384,226.3594 L1384,236.3594 L1394,236.3594 L1384,226.3594 " fill="#FFEAC2" style="stroke: #FFFFFF; stroke-width: 1.0;"/><text fill="#000000" font-family="sans-serif" font-size="13" font-weight="bold" lengthAdjust="spacingAndGlyphs" textLength="85" x="1206" y="243.4263">SMF to PCF</text><text fill="#000000" font-family="sans-serif" font-size="13" lengthAdjust="spacingAndGlyphs" textLength="173" x="1206" y="258.5591">10.0.14.1 to 10.0.10.1 (IPs)</text><text fill="#000000" font-family="sans-serif" font-size="13" lengthAdjust="spacingAndGlyphs" textLength="160" x="1206" y="273.6919">HTTP/2 stream 1 payload</text><text fill="#000000" font-family="sans-serif" font-size="13" lengthAdjust="spacingAndGlyphs" textLength="8" x="1206" y="288.8247">{</text><text fill="#000000" font-family="sans-serif" font-size="13" lengthAdjust="spacingAndGlyphs" textLength="124" x="1214" y="303.9575">"servingNetwork": {</text><text fill="#000000" font-family="sans-serif" font-size="13" lengthAdjust="spacingAndGlyphs" textLength="83" x="1222" y="319.0903">"mcc": "901",</text><text fill="#000000" font-family="sans-serif" font-size="13" lengthAdjust="spacingAndGlyphs" textLength="72" x="1222" y="334.2231">"mnc": "70"</text><text fill="#000000" font-family="sans-serif" font-size="13" lengthAdjust="spacingAndGlyphs" textLength="8" x="1214" y="349.356">}</text><text fill="#000000" font-family="sans-serif" font-size="13" lengthAdjust="spacingAndGlyphs" textLength="8" x="1206" y="364.4888">}</text><text fill="#000000" font-family="sans-serif" font-size="13" lengthAdjust="spacingAndGlyphs" textLength="0" x="1210" y="379.6216"/><polygon fill="#000000" points="895.5,424.9531,885.5,428.9531,895.5,432.9531,891.5,428.9531" style="stroke: #000000; stroke-width: 1.0;"/><line style="stroke: #000000; stroke-width: 1.0;" x1="889.5" x2="1194.5" y1="428.9531" y2="428.9531"/><text fill="#000000" font-family="sans-serif" font-size="13" lengthAdjust="spacingAndGlyphs" textLength="113" x="901.5" y="408.7544">4157, HTTP/2 req.</text><text fill="#000000" font-family="sans-serif" font-size="13" lengthAdjust="spacingAndGlyphs" textLength="287" x="901.5" y="423.8872">DELETE  /nbsf-management/v1/pcfBindings/4</text><path d="M1200,402.2539 L1200,427.2539 L1303,427.2539 L1303,412.2539 L1293,402.2539 L1200,402.2539 " fill="#03B5AA" style="stroke: #FFFFFF; stroke-width: 1.0;"/><path d="M1293,402.2539 L1293,412.2539 L1303,412.2539 L1293,402.2539 " fill="#03B5AA" style="stroke: #FFFFFF; stroke-width: 1.0;"/><text fill="#000000" font-family="sans-serif" font-size="13" font-weight="bold" lengthAdjust="spacingAndGlyphs" textLength="82" x="1206" y="419.3208">PCF to BSF</text><polygon fill="#000000" points="1183.5,457.0859,1193.5,461.0859,1183.5,465.0859,1187.5,461.0859" style="stroke: #000000; stroke-width: 1.0;"/><line style="stroke: #000000; stroke-width: 1.0;" x1="884.5" x2="1189.5" y1="461.0859" y2="461.0859"/><text fill="#000000" font-family="sans-serif" font-size="13" lengthAdjust="spacingAndGlyphs" textLength="140" x="891.5" y="456.02">4173, HTTP/2 204 rsp.</text><path d="M1200,441.9531 L1200,466.9531 L1303,466.9531 L1303,451.9531 L1293,441.9531 L1200,441.9531 " fill="#D7FEFC" style="stroke: #FFFFFF; stroke-width: 1.0;"/><path d="M1293,441.9531 L1293,451.9531 L1303,451.9531 L1293,441.9531 " fill="#D7FEFC" style="stroke: #FFFFFF; stroke-width: 1.0;"/><text fill="#000000" font-family="sans-serif" font-size="13" font-weight="bold" lengthAdjust="spacingAndGlyphs" textLength="82" x="1206" y="459.02">BSF to PCF</text><polygon fill="#000000" points="843.5,492.2188,833.5,496.2188,843.5,500.2188,839.5,496.2188" style="stroke: #000000; stroke-width: 1.0;"/><line style="stroke: #000000; stroke-width: 1.0;" x1="837.5" x2="1194.5" y1="496.2188" y2="496.2188"/><text fill="#000000" font-family="sans-serif" font-size="13" lengthAdjust="spacingAndGlyphs" textLength="140" x="849.5" y="491.1528">4181, HTTP/2 204 rsp.</text><path d="M1200,477.0859 L1200,502.0859 L1306,502.0859 L1306,487.0859 L1296,477.0859 L1200,477.0859 " fill="#D7FEFC" style="stroke: #FFFFFF; stroke-width: 1.0;"/><path d="M1296,477.0859 L1296,487.0859 L1306,487.0859 L1296,477.0859 " fill="#D7FEFC" style="stroke: #FFFFFF; stroke-width: 1.0;"/><text fill="#000000" font-family="sans-serif" font-size="13" font-weight="bold" lengthAdjust="spacingAndGlyphs" textLength="85" x="1206" y="494.1528">PCF to SMF</text><polygon fill="#000000" points="498.5,539.4844,488.5,543.4844,498.5,547.4844,494.5,543.4844" style="stroke: #000000; stroke-width: 1.0;"/><line style="stroke: #000000; stroke-width: 1.0;" x1="492.5" x2="831.5" y1="543.4844" y2="543.4844"/><text fill="#000000" font-family="sans-serif" font-size="13" lengthAdjust="spacingAndGlyphs" textLength="101" x="504.5" y="523.2856">4185, PFCP req.</text><text fill="#000000" font-family="sans-serif" font-size="13" lengthAdjust="spacingAndGlyphs" textLength="229" x="504.5" y="538.4185">PFCP Session Deletion Request (54)</text><path d="M837,516.7852 L837,541.7852 L943,541.7852 L943,526.7852 L933,516.7852 L837,516.7852 " fill="#FFEAC2" style="stroke: #FFFFFF; stroke-width: 1.0;"/><path d="M933,516.7852 L933,526.7852 L943,526.7852 L933,516.7852 " fill="#FFEAC2" style="stroke: #FFFFFF; stroke-width: 1.0;"/><text fill="#000000" font-family="sans-serif" font-size="13" font-weight="bold" lengthAdjust="spacingAndGlyphs" textLength="85" x="843" y="533.8521">SMF to UPF</text><polygon fill="#000000" points="820.5,583.75,830.5,587.75,820.5,591.75,824.5,587.75" style="stroke: #000000; stroke-width: 1.0;"/><line style="stroke: #000000; stroke-width: 1.0;" x1="487.5" x2="826.5" y1="587.75" y2="587.75"/><text fill="#000000" font-family="sans-serif" font-size="13" lengthAdjust="spacingAndGlyphs" textLength="100" x="494.5" y="567.5513">4187, PFCP rsp.</text><text fill="#000000" font-family="sans-serif" font-size="13" lengthAdjust="spacingAndGlyphs" textLength="239" x="494.5" y="582.6841">PFCP Session Deletion Response (55)</text><path d="M837,561.0508 L837,586.0508 L943,586.0508 L943,571.0508 L933,561.0508 L837,561.0508 " fill="#D7FEFC" style="stroke: #FFFFFF; stroke-width: 1.0;"/><path d="M933,561.0508 L933,571.0508 L943,571.0508 L933,561.0508 " fill="#D7FEFC" style="stroke: #FFFFFF; stroke-width: 1.0;"/><text fill="#000000" font-family="sans-serif" font-size="13" font-weight="bold" lengthAdjust="spacingAndGlyphs" textLength="85" x="843" y="578.1177">UPF to SMF</text><polygon fill="#000000" points="498.5,615.8828,488.5,619.8828,498.5,623.8828,494.5,619.8828" style="stroke: #000000; stroke-width: 1.0;"/><line style="stroke: #000000; stroke-width: 1.0;" x1="492.5" x2="831.5" y1="619.8828" y2="619.8828"/><text fill="#000000" font-family="sans-serif" font-size="13" lengthAdjust="spacingAndGlyphs" textLength="140" x="504.5" y="614.8169">4193, HTTP/2 204 rsp.</text><path d="M837,600.75 L837,625.75 L943,625.75 L943,610.75 L933,600.75 L837,600.75 " fill="#D7FEFC" style="stroke: #FFFFFF; stroke-width: 1.0;"/><path d="M933,600.75 L933,610.75 L943,610.75 L933,600.75 " fill="#D7FEFC" style="stroke: #FFFFFF; stroke-width: 1.0;"/><text fill="#000000" font-family="sans-serif" font-size="13" font-weight="bold" lengthAdjust="spacingAndGlyphs" textLength="85" x="843" y="617.8169">SMF to UPF</text><polygon fill="#000000" points="153.5,651.0156,143.5,655.0156,153.5,659.0156,149.5,655.0156" style="stroke: #000000; stroke-width: 1.0;"/><line style="stroke: #000000; stroke-width: 1.0;" x1="147.5" x2="486.5" y1="655.0156" y2="655.0156"/><text fill="#000000" font-family="sans-serif" font-size="13" lengthAdjust="spacingAndGlyphs" textLength="140" x="159.5" y="649.9497">4195, HTTP/2 204 rsp.</text><path d="M492,635.8828 L492,660.8828 L598,660.8828 L598,645.8828 L588,635.8828 L492,635.8828 " fill="#EDFEC2" style="stroke: #FFFFFF; stroke-width: 1.0;"/><path d="M588,635.8828 L588,645.8828 L598,645.8828 L588,635.8828 " fill="#EDFEC2" style="stroke: #FFFFFF; stroke-width: 1.0;"/><text fill="#000000" font-family="sans-serif" font-size="13" font-weight="bold" lengthAdjust="spacingAndGlyphs" textLength="85" x="498" y="652.9497">UPF to gNB</text><polygon fill="#000000" points="70.5,686.1484,60.5,690.1484,70.5,694.1484,66.5,690.1484" style="stroke: #000000; stroke-width: 1.0;"/><line style="stroke: #000000; stroke-width: 1.0;" x1="64.5" x2="831.5" y1="690.1484" y2="690.1484"/><text fill="#000000" font-family="sans-serif" font-size="13" lengthAdjust="spacingAndGlyphs" textLength="140" x="76.5" y="685.0825">4196, HTTP/2 204 rsp.</text><path d="M837,671.0156 L837,696.0156 L1008,696.0156 L1008,681.0156 L998,671.0156 L837,671.0156 " fill="#D7FEFC" style="stroke: #FFFFFF; stroke-width: 1.0;"/><path d="M998,671.0156 L998,681.0156 L1008,681.0156 L998,671.0156 " fill="#D7FEFC" style="stroke: #FFFFFF; stroke-width: 1.0;"/><text fill="#000000" font-family="sans-serif" font-size="13" font-weight="bold" lengthAdjust="spacingAndGlyphs" textLength="150" x="843" y="688.0825">SMF to Malicious_UE</text><polygon fill="#000000" points="498.5,721.2813,488.5,725.2813,498.5,729.2813,494.5,725.2813" style="stroke: #000000; stroke-width: 1.0;"/><line style="stroke: #000000; stroke-width: 1.0;" x1="492.5" x2="831.5" y1="725.2813" y2="725.2813"/><text fill="#000000" font-family="sans-serif" font-size="13" lengthAdjust="spacingAndGlyphs" textLength="140" x="504.5" y="720.2153">4199, HTTP/2 204 rsp.</text><path d="M837,706.1484 L837,731.1484 L943,731.1484 L943,716.1484 L933,706.1484 L837,706.1484 " fill="#D7FEFC" style="stroke: #FFFFFF; stroke-width: 1.0;"/><path d="M933,706.1484 L933,716.1484 L943,716.1484 L933,706.1484 " fill="#D7FEFC" style="stroke: #FFFFFF; stroke-width: 1.0;"/><text fill="#000000" font-family="sans-serif" font-size="13" font-weight="bold" lengthAdjust="spacingAndGlyphs" textLength="85" x="843" y="723.2153">SMF to UPF</text><polygon fill="#000000" points="153.5,756.4141,143.5,760.4141,153.5,764.4141,149.5,760.4141" style="stroke: #000000; stroke-width: 1.0;"/><line style="stroke: #000000; stroke-width: 1.0;" x1="147.5" x2="486.5" y1="760.4141" y2="760.4141"/><text fill="#000000" font-family="sans-serif" font-size="13" lengthAdjust="spacingAndGlyphs" textLength="140" x="159.5" y="755.3481">4209, HTTP/2 204 rsp.</text><path d="M492,741.2813 L492,766.2813 L598,766.2813 L598,751.2813 L588,741.2813 L492,741.2813 " fill="#EDFEC2" style="stroke: #FFFFFF; stroke-width: 1.0;"/><path d="M588,741.2813 L588,751.2813 L598,751.2813 L588,741.2813 " fill="#EDFEC2" style="stroke: #FFFFFF; stroke-width: 1.0;"/><text fill="#000000" font-family="sans-serif" font-size="13" font-weight="bold" lengthAdjust="spacingAndGlyphs" textLength="85" x="498" y="758.3481">UPF to gNB</text><polygon fill="#000000" points="70.5,791.5469,60.5,795.5469,70.5,799.5469,66.5,795.5469" style="stroke: #000000; stroke-width: 1.0;"/><line style="stroke: #000000; stroke-width: 1.0;" x1="64.5" x2="831.5" y1="795.5469" y2="795.5469"/><text fill="#000000" font-family="sans-serif" font-size="13" lengthAdjust="spacingAndGlyphs" textLength="140" x="76.5" y="790.481">4210, HTTP/2 204 rsp.</text><path d="M837,776.4141 L837,801.4141 L1008,801.4141 L1008,786.4141 L998,776.4141 L837,776.4141 " fill="#FFEAC2" style="stroke: #FFFFFF; stroke-width: 1.0;"/><path d="M998,776.4141 L998,786.4141 L1008,786.4141 L998,776.4141 " fill="#FFEAC2" style="stroke: #FFFFFF; stroke-width: 1.0;"/><text fill="#000000" font-family="sans-serif" font-size="13" font-weight="bold" lengthAdjust="spacingAndGlyphs" textLength="150" x="843" y="793.481">SMF to Malicious_UE</text><!--MD5=[81d9cf94fa40ae897f3c24fb231afcd2]
@startuml
skinparam shadowing false
skinparam NoteBorderColor white
skinparam sequence {
    ArrowColor black
    LifeLineBorderColor black
    LifeLineBackgroundColor black
    ParticipantBorderColor white
    ParticipantBackgroundColor #e6e6e6
}
participant "Malicious_UE"
participant "gNB"
participant "UPF"
participant "SMF"
participant "BSF"
participant "PCF"

"gNB" -> "UPF": 4089, HTTP/2 req.\nPOST  /nsmf-pdusession/v1/sm-contexts/4/release

note right #5C8001
**gNB to UPF**
end note

"Malicious_UE" -> "SMF": 4090, HTTP/2 req.\nPOST  /nsmf-pdusession/v1/sm-contexts/4/release

note right #FFC2D9
**Malicious_UE to SMF**
end note

"UPF" -> "SMF": 4091, HTTP/2 req.\nPOST  /nsmf-pdusession/v1/sm-contexts/4/release

note right #03B5AA
**UPF to SMF**
end note
"SMF" -> "PCF": 4125, HTTP/2 req.\nPOST  /npcf-smpolicycontrol/v1/sm-policies/4/delete

note right #FFEAC2
**SMF to PCF**
end note

"SMF" -> "PCF": 4129, HTTP/2 req. or rsp. (no HTTP/2 headers)

note right #FFEAC2
**SMF to PCF**
10.0.14.1 to 10.0.10.1 (IPs)
HTTP/2 stream 1 payload
{
  "servingNetwork": {
    "mcc": "901",
    "mnc": "70"
  }
}

end note

"PCF" -> "BSF": 4157, HTTP/2 req.\nDELETE  /nbsf-management/v1/pcfBindings/4

note right #03B5AA
**PCF to BSF**
end note

"BSF" -> "PCF": 4173, HTTP/2 204 rsp.

note right #D7FEFC
**BSF to PCF**
end note

"PCF" -> "SMF": 4181, HTTP/2 204 rsp.

note right #D7FEFC
**PCF to SMF**
end note


"SMF" -> "UPF": 4185, PFCP req.\nPFCP Session Deletion Request (54)

note right #FFEAC2
**SMF to UPF**
end note

"UPF" -> "SMF": 4187, PFCP rsp.\nPFCP Session Deletion Response (55)

note right #D7FEFC
**UPF to SMF**
end note


"SMF" -> "UPF": 4193, HTTP/2 204 rsp.

note right #D7FEFC
**SMF to UPF**
end note

"UPF" -> "gNB": 4195, HTTP/2 204 rsp.

note right #EDFEC2
**UPF to gNB**
end note

"SMF" -> "Malicious_UE": 4196, HTTP/2 204 rsp.

note right #D7FEFC
**SMF to Malicious_UE**
end note

"SMF" -> "UPF": 4199, HTTP/2 204 rsp.

note right #D7FEFC
**SMF to UPF**
end note

"UPF" -> "gNB": 4209, HTTP/2 204 rsp.

note right  #EDFEC2
**UPF to gNB**
end note

"SMF" -> "Malicious_UE": 4210, HTTP/2 204 rsp.

note right #FFEAC2
**SMF to Malicious_UE**
end note

@enduml

PlantUML version 1.2019.12(Sun Nov 03 11:24:54 CET 2019)
(APACHE source distribution)
Java Runtime: OpenJDK Runtime Environment
JVM: OpenJDK 64-Bit Server VM
Java Version: 11.0.18+10-post-Ubuntu-0ubuntu120.04.1
Operating System: Linux
Default Encoding: UTF-8
Language: en
Country: US
--></g></svg>