<?xml version="1.0" encoding="UTF-8" standalone="no"?><svg xmlns="http://www.w3.org/2000/svg" xmlns:xlink="http://www.w3.org/1999/xlink" contentScriptType="application/ecmascript" contentStyleType="text/css" height="1520px" preserveAspectRatio="none" style="width:803px;height:1520px;" version="1.1" viewBox="0 0 803 1520" width="803px" zoomAndPan="magnify"><defs/><g><line style="stroke: #000000; stroke-width: 1.0; stroke-dasharray: 5.0,5.0;" x1="29" x2="29" y1="34.2969" y2="1479.8594"/><line style="stroke: #000000; stroke-width: 1.0; stroke-dasharray: 5.0,5.0;" x1="330" x2="330" y1="34.2969" y2="1479.8594"/><line style="stroke: #000000; stroke-width: 1.0; stroke-dasharray: 5.0,5.0;" x1="389" x2="389" y1="34.2969" y2="1479.8594"/><line style="stroke: #000000; stroke-width: 1.0; stroke-dasharray: 5.0,5.0;" x1="652" x2="652" y1="34.2969" y2="1479.8594"/><rect fill="#E6E6E6" height="30.2969" style="stroke: #FFFFFF; stroke-width: 1.5;" width="43" x="8" y="3"/><text fill="#000000" font-family="sans-serif" font-size="14" lengthAdjust="spacingAndGlyphs" textLength="29" x="15" y="22.9951">SMF</text><rect fill="#E6E6E6" height="30.2969" style="stroke: #FFFFFF; stroke-width: 1.5;" width="43" x="8" y="1478.8594"/><text fill="#000000" font-family="sans-serif" font-size="14" lengthAdjust="spacingAndGlyphs" textLength="29" x="15" y="1498.8545">SMF</text><rect fill="#E6E6E6" height="30.2969" style="stroke: #FFFFFF; stroke-width: 1.5;" width="41" x="310" y="3"/><text fill="#000000" font-family="sans-serif" font-size="14" lengthAdjust="spacingAndGlyphs" textLength="27" x="317" y="22.9951">UPF</text><rect fill="#E6E6E6" height="30.2969" style="stroke: #FFFFFF; stroke-width: 1.5;" width="41" x="310" y="1478.8594"/><text fill="#000000" font-family="sans-serif" font-size="14" lengthAdjust="spacingAndGlyphs" textLength="27" x="317" y="1498.8545">UPF</text><rect fill="#E6E6E6" height="30.2969" style="stroke: #FFFFFF; stroke-width: 1.5;" width="57" x="361" y="3"/><text fill="#000000" font-family="sans-serif" font-size="14" lengthAdjust="spacingAndGlyphs" textLength="43" x="368" y="22.9951">SGWU</text><rect fill="#E6E6E6" height="30.2969" style="stroke: #FFFFFF; stroke-width: 1.5;" width="57" x="361" y="1478.8594"/><text fill="#000000" font-family="sans-serif" font-size="14" lengthAdjust="spacingAndGlyphs" textLength="43" x="368" y="1498.8545">SGWU</text><rect fill="#E6E6E6" height="30.2969" style="stroke: #FFFFFF; stroke-width: 1.5;" width="57" x="624" y="3"/><text fill="#000000" font-family="sans-serif" font-size="14" lengthAdjust="spacingAndGlyphs" textLength="43" x="631" y="22.9951">SGWC</text><rect fill="#E6E6E6" height="30.2969" style="stroke: #FFFFFF; stroke-width: 1.5;" width="57" x="624" y="1478.8594"/><text fill="#000000" font-family="sans-serif" font-size="14" lengthAdjust="spacingAndGlyphs" textLength="43" x="631" y="1498.8545">SGWC</text><polygon fill="#000000" points="400.5,91.6953,390.5,95.6953,400.5,99.6953,396.5,95.6953" style="stroke: #000000; stroke-width: 1.0;"/><line style="stroke: #000000; stroke-width: 1.0;" x1="394.5" x2="651.5" y1="95.6953" y2="95.6953"/><text fill="#000000" font-family="sans-serif" font-size="13" lengthAdjust="spacingAndGlyphs" textLength="85" x="406.5" y="60.3638">44, PFCP req.</text><text fill="#000000" font-family="sans-serif" font-size="13" lengthAdjust="spacingAndGlyphs" textLength="229" x="406.5" y="75.4966">PFCP Association Setup Request (5)</text><text fill="#000000" font-family="sans-serif" font-size="13" lengthAdjust="spacingAndGlyphs" textLength="180" x="406.5" y="90.6294">+0.000s (17:43:53.811.146)</text><path d="M657,61.4297 L657,86.4297 L791,86.4297 L791,71.4297 L781,61.4297 L657,61.4297 " fill="#03B5AA" style="stroke: #FFFFFF; stroke-width: 1.0;"/><path d="M781,61.4297 L781,71.4297 L791,71.4297 L781,61.4297 " fill="#03B5AA" style="stroke: #FFFFFF; stroke-width: 1.0;"/><text fill="#000000" font-family="sans-serif" font-size="13" font-weight="bold" lengthAdjust="spacingAndGlyphs" textLength="113" x="663" y="78.4966">SGWC to SGWU</text><polygon fill="#000000" points="40.5,151.0938,30.5,155.0938,40.5,159.0938,36.5,155.0938" style="stroke: #000000; stroke-width: 1.0;"/><line style="stroke: #000000; stroke-width: 1.0;" x1="34.5" x2="329.5" y1="155.0938" y2="155.0938"/><text fill="#000000" font-family="sans-serif" font-size="13" lengthAdjust="spacingAndGlyphs" textLength="85" x="46.5" y="119.7622">57, PFCP req.</text><text fill="#000000" font-family="sans-serif" font-size="13" lengthAdjust="spacingAndGlyphs" textLength="229" x="46.5" y="134.895">PFCP Association Setup Request (5)</text><text fill="#000000" font-family="sans-serif" font-size="13" lengthAdjust="spacingAndGlyphs" textLength="180" x="46.5" y="150.0278">+0.551s (17:43:54.362.026)</text><path d="M335,120.8281 L335,145.8281 L441,145.8281 L441,130.8281 L431,120.8281 L335,120.8281 " fill="#03B5AA" style="stroke: #FFFFFF; stroke-width: 1.0;"/><path d="M431,120.8281 L431,130.8281 L441,130.8281 L431,120.8281 " fill="#03B5AA" style="stroke: #FFFFFF; stroke-width: 1.0;"/><text fill="#000000" font-family="sans-serif" font-size="13" font-weight="bold" lengthAdjust="spacingAndGlyphs" textLength="85" x="341" y="137.895">UPF to SMF</text><polygon fill="#000000" points="318.5,210.4922,328.5,214.4922,318.5,218.4922,322.5,214.4922" style="stroke: #000000; stroke-width: 1.0;"/><line style="stroke: #000000; stroke-width: 1.0;" x1="29.5" x2="324.5" y1="214.4922" y2="214.4922"/><text fill="#000000" font-family="sans-serif" font-size="13" lengthAdjust="spacingAndGlyphs" textLength="85" x="36.5" y="179.1606">92, PFCP req.</text><text fill="#000000" font-family="sans-serif" font-size="13" lengthAdjust="spacingAndGlyphs" textLength="229" x="36.5" y="194.2935">PFCP Association Setup Request (5)</text><text fill="#000000" font-family="sans-serif" font-size="13" lengthAdjust="spacingAndGlyphs" textLength="172" x="36.5" y="209.4263">+1.208s (17:43:55.18.967)</text><path d="M335,180.2266 L335,205.2266 L441,205.2266 L441,190.2266 L431,180.2266 L335,180.2266 " fill="#03B5AA" style="stroke: #FFFFFF; stroke-width: 1.0;"/><path d="M431,180.2266 L431,190.2266 L441,190.2266 L431,180.2266 " fill="#03B5AA" style="stroke: #FFFFFF; stroke-width: 1.0;"/><text fill="#000000" font-family="sans-serif" font-size="13" font-weight="bold" lengthAdjust="spacingAndGlyphs" textLength="85" x="341" y="197.2935">SMF to UPF</text><polygon fill="#000000" points="40.5,269.8906,30.5,273.8906,40.5,277.8906,36.5,273.8906" style="stroke: #000000; stroke-width: 1.0;"/><line style="stroke: #000000; stroke-width: 1.0;" x1="34.5" x2="329.5" y1="273.8906" y2="273.8906"/><text fill="#000000" font-family="sans-serif" font-size="13" lengthAdjust="spacingAndGlyphs" textLength="84" x="46.5" y="238.5591">93, PFCP rsp.</text><text fill="#000000" font-family="sans-serif" font-size="13" lengthAdjust="spacingAndGlyphs" textLength="239" x="46.5" y="253.6919">PFCP Association Setup Response (6)</text><text fill="#000000" font-family="sans-serif" font-size="13" lengthAdjust="spacingAndGlyphs" textLength="172" x="46.5" y="268.8247">+1.208s (17:43:55.19.129)</text><path d="M335,239.625 L335,264.625 L441,264.625 L441,249.625 L431,239.625 L335,239.625 " fill="#D7FEFC" style="stroke: #FFFFFF; stroke-width: 1.0;"/><path d="M431,239.625 L431,249.625 L441,249.625 L431,239.625 " fill="#D7FEFC" style="stroke: #FFFFFF; stroke-width: 1.0;"/><text fill="#000000" font-family="sans-serif" font-size="13" font-weight="bold" lengthAdjust="spacingAndGlyphs" textLength="85" x="341" y="256.6919">UPF to SMF</text><polygon fill="#000000" points="400.5,329.2891,390.5,333.2891,400.5,337.2891,396.5,333.2891" style="stroke: #000000; stroke-width: 1.0;"/><line style="stroke: #000000; stroke-width: 1.0;" x1="394.5" x2="651.5" y1="333.2891" y2="333.2891"/><text fill="#000000" font-family="sans-serif" font-size="13" lengthAdjust="spacingAndGlyphs" textLength="93" x="406.5" y="297.9575">355, PFCP req.</text><text fill="#000000" font-family="sans-serif" font-size="13" lengthAdjust="spacingAndGlyphs" textLength="229" x="406.5" y="313.0903">PFCP Association Setup Request (5)</text><text fill="#000000" font-family="sans-serif" font-size="13" lengthAdjust="spacingAndGlyphs" textLength="180" x="406.5" y="328.2231">+2.502s (17:43:56.313.209)</text><path d="M657,299.0234 L657,324.0234 L791,324.0234 L791,309.0234 L781,299.0234 L657,299.0234 " fill="#03B5AA" style="stroke: #FFFFFF; stroke-width: 1.0;"/><path d="M781,299.0234 L781,309.0234 L791,309.0234 L781,299.0234 " fill="#03B5AA" style="stroke: #FFFFFF; stroke-width: 1.0;"/><text fill="#000000" font-family="sans-serif" font-size="13" font-weight="bold" lengthAdjust="spacingAndGlyphs" textLength="113" x="663" y="316.0903">SGWC to SGWU</text><polygon fill="#000000" points="640.5,388.6875,650.5,392.6875,640.5,396.6875,644.5,392.6875" style="stroke: #000000; stroke-width: 1.0;"/><line style="stroke: #000000; stroke-width: 1.0;" x1="389.5" x2="646.5" y1="392.6875" y2="392.6875"/><text fill="#000000" font-family="sans-serif" font-size="13" lengthAdjust="spacingAndGlyphs" textLength="92" x="396.5" y="357.356">356, PFCP rsp.</text><text fill="#000000" font-family="sans-serif" font-size="13" lengthAdjust="spacingAndGlyphs" textLength="239" x="396.5" y="372.4888">PFCP Association Setup Response (6)</text><text fill="#000000" font-family="sans-serif" font-size="13" lengthAdjust="spacingAndGlyphs" textLength="180" x="396.5" y="387.6216">+2.504s (17:43:56.315.444)</text><path d="M657,358.4219 L657,383.4219 L791,383.4219 L791,368.4219 L781,358.4219 L657,358.4219 " fill="#D7FEFC" style="stroke: #FFFFFF; stroke-width: 1.0;"/><path d="M781,358.4219 L781,368.4219 L791,368.4219 L781,358.4219 " fill="#D7FEFC" style="stroke: #FFFFFF; stroke-width: 1.0;"/><text fill="#000000" font-family="sans-serif" font-size="13" font-weight="bold" lengthAdjust="spacingAndGlyphs" textLength="113" x="663" y="375.4888">SGWU to SGWC</text><polygon fill="#000000" points="40.5,448.0859,30.5,452.0859,40.5,456.0859,36.5,452.0859" style="stroke: #000000; stroke-width: 1.0;"/><line style="stroke: #000000; stroke-width: 1.0;" x1="34.5" x2="329.5" y1="452.0859" y2="452.0859"/><text fill="#000000" font-family="sans-serif" font-size="13" lengthAdjust="spacingAndGlyphs" textLength="93" x="46.5" y="416.7544">402, PFCP req.</text><text fill="#000000" font-family="sans-serif" font-size="13" lengthAdjust="spacingAndGlyphs" textLength="229" x="46.5" y="431.8872">PFCP Association Setup Request (5)</text><text fill="#000000" font-family="sans-serif" font-size="13" lengthAdjust="spacingAndGlyphs" textLength="180" x="46.5" y="447.02">+3.053s (17:43:56.864.601)</text><path d="M335,417.8203 L335,442.8203 L441,442.8203 L441,427.8203 L431,417.8203 L335,417.8203 " fill="#03B5AA" style="stroke: #FFFFFF; stroke-width: 1.0;"/><path d="M431,417.8203 L431,427.8203 L441,427.8203 L431,417.8203 " fill="#03B5AA" style="stroke: #FFFFFF; stroke-width: 1.0;"/><text fill="#000000" font-family="sans-serif" font-size="13" font-weight="bold" lengthAdjust="spacingAndGlyphs" textLength="85" x="341" y="434.8872">UPF to SMF</text><polygon fill="#000000" points="318.5,507.4844,328.5,511.4844,318.5,515.4844,322.5,511.4844" style="stroke: #000000; stroke-width: 1.0;"/><line style="stroke: #000000; stroke-width: 1.0;" x1="29.5" x2="324.5" y1="511.4844" y2="511.4844"/><text fill="#000000" font-family="sans-serif" font-size="13" lengthAdjust="spacingAndGlyphs" textLength="92" x="36.5" y="476.1528">403, PFCP rsp.</text><text fill="#000000" font-family="sans-serif" font-size="13" lengthAdjust="spacingAndGlyphs" textLength="239" x="36.5" y="491.2856">PFCP Association Setup Response (6)</text><text fill="#000000" font-family="sans-serif" font-size="13" lengthAdjust="spacingAndGlyphs" textLength="180" x="36.5" y="506.4185">+3.054s (17:43:56.864.815)</text><path d="M335,477.2188 L335,502.2188 L441,502.2188 L441,487.2188 L431,477.2188 L335,477.2188 " fill="#D7FEFC" style="stroke: #FFFFFF; stroke-width: 1.0;"/><path d="M431,477.2188 L431,487.2188 L441,487.2188 L431,477.2188 " fill="#D7FEFC" style="stroke: #FFFFFF; stroke-width: 1.0;"/><text fill="#000000" font-family="sans-serif" font-size="13" font-weight="bold" lengthAdjust="spacingAndGlyphs" textLength="85" x="341" y="494.2856">SMF to UPF</text><polygon fill="#000000" points="318.5,566.8828,328.5,570.8828,318.5,574.8828,322.5,570.8828" style="stroke: #000000; stroke-width: 1.0;"/><line style="stroke: #000000; stroke-width: 1.0;" x1="29.5" x2="324.5" y1="570.8828" y2="570.8828"/><text fill="#000000" font-family="sans-serif" font-size="13" lengthAdjust="spacingAndGlyphs" textLength="101" x="36.5" y="535.5513">1280, PFCP req.</text><text fill="#000000" font-family="sans-serif" font-size="13" lengthAdjust="spacingAndGlyphs" textLength="267" x="36.5" y="550.6841">PFCP Session Establishment Request (50)</text><text fill="#000000" font-family="sans-serif" font-size="13" lengthAdjust="spacingAndGlyphs" textLength="188" x="36.5" y="565.8169">+32.751s (17:44:26.562.429)</text><path d="M335,536.6172 L335,561.6172 L441,561.6172 L441,546.6172 L431,536.6172 L335,536.6172 " fill="#03B5AA" style="stroke: #FFFFFF; stroke-width: 1.0;"/><path d="M431,536.6172 L431,546.6172 L441,546.6172 L431,536.6172 " fill="#03B5AA" style="stroke: #FFFFFF; stroke-width: 1.0;"/><text fill="#000000" font-family="sans-serif" font-size="13" font-weight="bold" lengthAdjust="spacingAndGlyphs" textLength="85" x="341" y="553.6841">SMF to UPF</text><polygon fill="#000000" points="40.5,626.2813,30.5,630.2813,40.5,634.2813,36.5,630.2813" style="stroke: #000000; stroke-width: 1.0;"/><line style="stroke: #000000; stroke-width: 1.0;" x1="34.5" x2="329.5" y1="630.2813" y2="630.2813"/><text fill="#000000" font-family="sans-serif" font-size="13" lengthAdjust="spacingAndGlyphs" textLength="100" x="46.5" y="594.9497">1282, PFCP rsp.</text><text fill="#000000" font-family="sans-serif" font-size="13" lengthAdjust="spacingAndGlyphs" textLength="277" x="46.5" y="610.0825">PFCP Session Establishment Response (51)</text><text fill="#000000" font-family="sans-serif" font-size="13" lengthAdjust="spacingAndGlyphs" textLength="188" x="46.5" y="625.2153">+32.758s (17:44:26.569.117)</text><path d="M335,596.0156 L335,621.0156 L441,621.0156 L441,606.0156 L431,596.0156 L335,596.0156 " fill="#D7FEFC" style="stroke: #FFFFFF; stroke-width: 1.0;"/><path d="M431,596.0156 L431,606.0156 L441,606.0156 L431,596.0156 " fill="#D7FEFC" style="stroke: #FFFFFF; stroke-width: 1.0;"/><text fill="#000000" font-family="sans-serif" font-size="13" font-weight="bold" lengthAdjust="spacingAndGlyphs" textLength="85" x="341" y="613.0825">UPF to SMF</text><polygon fill="#000000" points="318.5,685.6797,328.5,689.6797,318.5,693.6797,322.5,689.6797" style="stroke: #000000; stroke-width: 1.0;"/><line style="stroke: #000000; stroke-width: 1.0;" x1="29.5" x2="324.5" y1="689.6797" y2="689.6797"/><text fill="#000000" font-family="sans-serif" font-size="13" lengthAdjust="spacingAndGlyphs" textLength="101" x="36.5" y="654.3481">1316, PFCP req.</text><text fill="#000000" font-family="sans-serif" font-size="13" lengthAdjust="spacingAndGlyphs" textLength="252" x="36.5" y="669.481">PFCP Session Modification Request (52)</text><text fill="#000000" font-family="sans-serif" font-size="13" lengthAdjust="spacingAndGlyphs" textLength="188" x="36.5" y="684.6138">+32.833s (17:44:26.644.014)</text><path d="M335,655.4141 L335,680.4141 L441,680.4141 L441,665.4141 L431,655.4141 L335,655.4141 " fill="#03B5AA" style="stroke: #FFFFFF; stroke-width: 1.0;"/><path d="M431,655.4141 L431,665.4141 L441,665.4141 L431,655.4141 " fill="#03B5AA" style="stroke: #FFFFFF; stroke-width: 1.0;"/><text fill="#000000" font-family="sans-serif" font-size="13" font-weight="bold" lengthAdjust="spacingAndGlyphs" textLength="85" x="341" y="672.481">SMF to UPF</text><polygon fill="#000000" points="40.5,745.0781,30.5,749.0781,40.5,753.0781,36.5,749.0781" style="stroke: #000000; stroke-width: 1.0;"/><line style="stroke: #000000; stroke-width: 1.0;" x1="34.5" x2="329.5" y1="749.0781" y2="749.0781"/><text fill="#000000" font-family="sans-serif" font-size="13" lengthAdjust="spacingAndGlyphs" textLength="100" x="46.5" y="713.7466">1317, PFCP rsp.</text><text fill="#000000" font-family="sans-serif" font-size="13" lengthAdjust="spacingAndGlyphs" textLength="262" x="46.5" y="728.8794">PFCP Session Modification Response (53)</text><text fill="#000000" font-family="sans-serif" font-size="13" lengthAdjust="spacingAndGlyphs" textLength="188" x="46.5" y="744.0122">+32.833s (17:44:26.644.339)</text><path d="M335,714.8125 L335,739.8125 L441,739.8125 L441,724.8125 L431,714.8125 L335,714.8125 " fill="#D7FEFC" style="stroke: #FFFFFF; stroke-width: 1.0;"/><path d="M431,714.8125 L431,724.8125 L441,724.8125 L431,714.8125 " fill="#D7FEFC" style="stroke: #FFFFFF; stroke-width: 1.0;"/><text fill="#000000" font-family="sans-serif" font-size="13" font-weight="bold" lengthAdjust="spacingAndGlyphs" textLength="85" x="341" y="731.8794">UPF to SMF</text><polygon fill="#000000" points="318.5,804.4766,328.5,808.4766,318.5,812.4766,322.5,808.4766" style="stroke: #000000; stroke-width: 1.0;"/><line style="stroke: #000000; stroke-width: 1.0;" x1="29.5" x2="324.5" y1="808.4766" y2="808.4766"/><text fill="#000000" font-family="sans-serif" font-size="13" lengthAdjust="spacingAndGlyphs" textLength="101" x="36.5" y="773.145">1490, PFCP req.</text><text fill="#000000" font-family="sans-serif" font-size="13" lengthAdjust="spacingAndGlyphs" textLength="267" x="36.5" y="788.2778">PFCP Session Establishment Request (50)</text><text fill="#000000" font-family="sans-serif" font-size="13" lengthAdjust="spacingAndGlyphs" textLength="188" x="36.5" y="803.4106">+35.420s (17:44:29.231.552)</text><path d="M335,774.2109 L335,799.2109 L441,799.2109 L441,784.2109 L431,774.2109 L335,774.2109 " fill="#03B5AA" style="stroke: #FFFFFF; stroke-width: 1.0;"/><path d="M431,774.2109 L431,784.2109 L441,784.2109 L431,774.2109 " fill="#03B5AA" style="stroke: #FFFFFF; stroke-width: 1.0;"/><text fill="#000000" font-family="sans-serif" font-size="13" font-weight="bold" lengthAdjust="spacingAndGlyphs" textLength="85" x="341" y="791.2778">SMF to UPF</text><polygon fill="#000000" points="40.5,863.875,30.5,867.875,40.5,871.875,36.5,867.875" style="stroke: #000000; stroke-width: 1.0;"/><line style="stroke: #000000; stroke-width: 1.0;" x1="34.5" x2="329.5" y1="867.875" y2="867.875"/><text fill="#000000" font-family="sans-serif" font-size="13" lengthAdjust="spacingAndGlyphs" textLength="100" x="46.5" y="832.5435">1491, PFCP rsp.</text><text fill="#000000" font-family="sans-serif" font-size="13" lengthAdjust="spacingAndGlyphs" textLength="277" x="46.5" y="847.6763">PFCP Session Establishment Response (51)</text><text fill="#000000" font-family="sans-serif" font-size="13" lengthAdjust="spacingAndGlyphs" textLength="188" x="46.5" y="862.8091">+35.421s (17:44:29.231.758)</text><path d="M335,833.6094 L335,858.6094 L441,858.6094 L441,843.6094 L431,833.6094 L335,833.6094 " fill="#D7FEFC" style="stroke: #FFFFFF; stroke-width: 1.0;"/><path d="M431,833.6094 L431,843.6094 L441,843.6094 L431,833.6094 " fill="#D7FEFC" style="stroke: #FFFFFF; stroke-width: 1.0;"/><text fill="#000000" font-family="sans-serif" font-size="13" font-weight="bold" lengthAdjust="spacingAndGlyphs" textLength="85" x="341" y="850.6763">UPF to SMF</text><polygon fill="#000000" points="318.5,923.2734,328.5,927.2734,318.5,931.2734,322.5,927.2734" style="stroke: #000000; stroke-width: 1.0;"/><line style="stroke: #000000; stroke-width: 1.0;" x1="29.5" x2="324.5" y1="927.2734" y2="927.2734"/><text fill="#000000" font-family="sans-serif" font-size="13" lengthAdjust="spacingAndGlyphs" textLength="101" x="36.5" y="891.9419">1501, PFCP req.</text><text fill="#000000" font-family="sans-serif" font-size="13" lengthAdjust="spacingAndGlyphs" textLength="252" x="36.5" y="907.0747">PFCP Session Modification Request (52)</text><text fill="#000000" font-family="sans-serif" font-size="13" lengthAdjust="spacingAndGlyphs" textLength="188" x="36.5" y="922.2075">+35.461s (17:44:29.271.821)</text><path d="M335,893.0078 L335,918.0078 L441,918.0078 L441,903.0078 L431,893.0078 L335,893.0078 " fill="#03B5AA" style="stroke: #FFFFFF; stroke-width: 1.0;"/><path d="M431,893.0078 L431,903.0078 L441,903.0078 L431,893.0078 " fill="#03B5AA" style="stroke: #FFFFFF; stroke-width: 1.0;"/><text fill="#000000" font-family="sans-serif" font-size="13" font-weight="bold" lengthAdjust="spacingAndGlyphs" textLength="85" x="341" y="910.0747">SMF to UPF</text><polygon fill="#000000" points="40.5,982.6719,30.5,986.6719,40.5,990.6719,36.5,986.6719" style="stroke: #000000; stroke-width: 1.0;"/><line style="stroke: #000000; stroke-width: 1.0;" x1="34.5" x2="329.5" y1="986.6719" y2="986.6719"/><text fill="#000000" font-family="sans-serif" font-size="13" lengthAdjust="spacingAndGlyphs" textLength="100" x="46.5" y="951.3403">1502, PFCP rsp.</text><text fill="#000000" font-family="sans-serif" font-size="13" lengthAdjust="spacingAndGlyphs" textLength="262" x="46.5" y="966.4731">PFCP Session Modification Response (53)</text><text fill="#000000" font-family="sans-serif" font-size="13" lengthAdjust="spacingAndGlyphs" textLength="188" x="46.5" y="981.606">+35.461s (17:44:29.272.176)</text><path d="M335,952.4063 L335,977.4063 L441,977.4063 L441,962.4063 L431,952.4063 L335,952.4063 " fill="#D7FEFC" style="stroke: #FFFFFF; stroke-width: 1.0;"/><path d="M431,952.4063 L431,962.4063 L441,962.4063 L431,952.4063 " fill="#D7FEFC" style="stroke: #FFFFFF; stroke-width: 1.0;"/><text fill="#000000" font-family="sans-serif" font-size="13" font-weight="bold" lengthAdjust="spacingAndGlyphs" textLength="85" x="341" y="969.4731">UPF to SMF</text><polygon fill="#000000" points="318.5,1042.0703,328.5,1046.0703,318.5,1050.0703,322.5,1046.0703" style="stroke: #000000; stroke-width: 1.0;"/><line style="stroke: #000000; stroke-width: 1.0;" x1="29.5" x2="324.5" y1="1046.0703" y2="1046.0703"/><text fill="#000000" font-family="sans-serif" font-size="13" lengthAdjust="spacingAndGlyphs" textLength="101" x="36.5" y="1010.7388">1643, PFCP req.</text><text fill="#000000" font-family="sans-serif" font-size="13" lengthAdjust="spacingAndGlyphs" textLength="267" x="36.5" y="1025.8716">PFCP Session Establishment Request (50)</text><text fill="#000000" font-family="sans-serif" font-size="13" lengthAdjust="spacingAndGlyphs" textLength="188" x="36.5" y="1041.0044">+36.935s (17:44:30.746.638)</text><path d="M335,1011.8047 L335,1036.8047 L441,1036.8047 L441,1021.8047 L431,1011.8047 L335,1011.8047 " fill="#03B5AA" style="stroke: #FFFFFF; stroke-width: 1.0;"/><path d="M431,1011.8047 L431,1021.8047 L441,1021.8047 L431,1011.8047 " fill="#03B5AA" style="stroke: #FFFFFF; stroke-width: 1.0;"/><text fill="#000000" font-family="sans-serif" font-size="13" font-weight="bold" lengthAdjust="spacingAndGlyphs" textLength="85" x="341" y="1028.8716">SMF to UPF</text><polygon fill="#000000" points="40.5,1101.4688,30.5,1105.4688,40.5,1109.4688,36.5,1105.4688" style="stroke: #000000; stroke-width: 1.0;"/><line style="stroke: #000000; stroke-width: 1.0;" x1="34.5" x2="329.5" y1="1105.4688" y2="1105.4688"/><text fill="#000000" font-family="sans-serif" font-size="13" lengthAdjust="spacingAndGlyphs" textLength="100" x="46.5" y="1070.1372">1644, PFCP rsp.</text><text fill="#000000" font-family="sans-serif" font-size="13" lengthAdjust="spacingAndGlyphs" textLength="277" x="46.5" y="1085.27">PFCP Session Establishment Response (51)</text><text fill="#000000" font-family="sans-serif" font-size="13" lengthAdjust="spacingAndGlyphs" textLength="188" x="46.5" y="1100.4028">+36.936s (17:44:30.747.101)</text><path d="M335,1071.2031 L335,1096.2031 L441,1096.2031 L441,1081.2031 L431,1071.2031 L335,1071.2031 " fill="#D7FEFC" style="stroke: #FFFFFF; stroke-width: 1.0;"/><path d="M431,1071.2031 L431,1081.2031 L441,1081.2031 L431,1071.2031 " fill="#D7FEFC" style="stroke: #FFFFFF; stroke-width: 1.0;"/><text fill="#000000" font-family="sans-serif" font-size="13" font-weight="bold" lengthAdjust="spacingAndGlyphs" textLength="85" x="341" y="1088.27">UPF to SMF</text><polygon fill="#000000" points="318.5,1160.8672,328.5,1164.8672,318.5,1168.8672,322.5,1164.8672" style="stroke: #000000; stroke-width: 1.0;"/><line style="stroke: #000000; stroke-width: 1.0;" x1="29.5" x2="324.5" y1="1164.8672" y2="1164.8672"/><text fill="#000000" font-family="sans-serif" font-size="13" lengthAdjust="spacingAndGlyphs" textLength="101" x="36.5" y="1129.5356">1655, PFCP req.</text><text fill="#000000" font-family="sans-serif" font-size="13" lengthAdjust="spacingAndGlyphs" textLength="252" x="36.5" y="1144.6685">PFCP Session Modification Request (52)</text><text fill="#000000" font-family="sans-serif" font-size="13" lengthAdjust="spacingAndGlyphs" textLength="188" x="36.5" y="1159.8013">+36.981s (17:44:30.792.157)</text><path d="M335,1130.6016 L335,1155.6016 L441,1155.6016 L441,1140.6016 L431,1130.6016 L335,1130.6016 " fill="#03B5AA" style="stroke: #FFFFFF; stroke-width: 1.0;"/><path d="M431,1130.6016 L431,1140.6016 L441,1140.6016 L431,1130.6016 " fill="#03B5AA" style="stroke: #FFFFFF; stroke-width: 1.0;"/><text fill="#000000" font-family="sans-serif" font-size="13" font-weight="bold" lengthAdjust="spacingAndGlyphs" textLength="85" x="341" y="1147.6685">SMF to UPF</text><polygon fill="#000000" points="40.5,1220.2656,30.5,1224.2656,40.5,1228.2656,36.5,1224.2656" style="stroke: #000000; stroke-width: 1.0;"/><line style="stroke: #000000; stroke-width: 1.0;" x1="34.5" x2="329.5" y1="1224.2656" y2="1224.2656"/><text fill="#000000" font-family="sans-serif" font-size="13" lengthAdjust="spacingAndGlyphs" textLength="100" x="46.5" y="1188.9341">1656, PFCP rsp.</text><text fill="#000000" font-family="sans-serif" font-size="13" lengthAdjust="spacingAndGlyphs" textLength="262" x="46.5" y="1204.0669">PFCP Session Modification Response (53)</text><text fill="#000000" font-family="sans-serif" font-size="13" lengthAdjust="spacingAndGlyphs" textLength="188" x="46.5" y="1219.1997">+36.981s (17:44:30.792.305)</text><path d="M335,1190 L335,1215 L441,1215 L441,1200 L431,1190 L335,1190 " fill="#D7FEFC" style="stroke: #FFFFFF; stroke-width: 1.0;"/><path d="M431,1190 L431,1200 L441,1200 L431,1190 " fill="#D7FEFC" style="stroke: #FFFFFF; stroke-width: 1.0;"/><text fill="#000000" font-family="sans-serif" font-size="13" font-weight="bold" lengthAdjust="spacingAndGlyphs" textLength="85" x="341" y="1207.0669">UPF to SMF</text><polygon fill="#000000" points="318.5,1279.6641,328.5,1283.6641,318.5,1287.6641,322.5,1283.6641" style="stroke: #000000; stroke-width: 1.0;"/><line style="stroke: #000000; stroke-width: 1.0;" x1="29.5" x2="324.5" y1="1283.6641" y2="1283.6641"/><text fill="#000000" font-family="sans-serif" font-size="13" lengthAdjust="spacingAndGlyphs" textLength="101" x="36.5" y="1248.3325">1807, PFCP req.</text><text fill="#000000" font-family="sans-serif" font-size="13" lengthAdjust="spacingAndGlyphs" textLength="267" x="36.5" y="1263.4653">PFCP Session Establishment Request (50)</text><text fill="#000000" font-family="sans-serif" font-size="13" lengthAdjust="spacingAndGlyphs" textLength="188" x="36.5" y="1278.5981">+38.811s (17:44:32.621.823)</text><path d="M335,1249.3984 L335,1274.3984 L441,1274.3984 L441,1259.3984 L431,1249.3984 L335,1249.3984 " fill="#03B5AA" style="stroke: #FFFFFF; stroke-width: 1.0;"/><path d="M431,1249.3984 L431,1259.3984 L441,1259.3984 L431,1249.3984 " fill="#03B5AA" style="stroke: #FFFFFF; stroke-width: 1.0;"/><text fill="#000000" font-family="sans-serif" font-size="13" font-weight="bold" lengthAdjust="spacingAndGlyphs" textLength="85" x="341" y="1266.4653">SMF to UPF</text><polygon fill="#000000" points="40.5,1339.0625,30.5,1343.0625,40.5,1347.0625,36.5,1343.0625" style="stroke: #000000; stroke-width: 1.0;"/><line style="stroke: #000000; stroke-width: 1.0;" x1="34.5" x2="329.5" y1="1343.0625" y2="1343.0625"/><text fill="#000000" font-family="sans-serif" font-size="13" lengthAdjust="spacingAndGlyphs" textLength="100" x="46.5" y="1307.731">1808, PFCP rsp.</text><text fill="#000000" font-family="sans-serif" font-size="13" lengthAdjust="spacingAndGlyphs" textLength="277" x="46.5" y="1322.8638">PFCP Session Establishment Response (51)</text><text fill="#000000" font-family="sans-serif" font-size="13" lengthAdjust="spacingAndGlyphs" textLength="180" x="46.5" y="1337.9966">+38.811s (17:44:32.622.06)</text><path d="M335,1308.7969 L335,1333.7969 L441,1333.7969 L441,1318.7969 L431,1308.7969 L335,1308.7969 " fill="#D7FEFC" style="stroke: #FFFFFF; stroke-width: 1.0;"/><path d="M431,1308.7969 L431,1318.7969 L441,1318.7969 L431,1308.7969 " fill="#D7FEFC" style="stroke: #FFFFFF; stroke-width: 1.0;"/><text fill="#000000" font-family="sans-serif" font-size="13" font-weight="bold" lengthAdjust="spacingAndGlyphs" textLength="85" x="341" y="1325.8638">UPF to SMF</text><polygon fill="#000000" points="318.5,1398.4609,328.5,1402.4609,318.5,1406.4609,322.5,1402.4609" style="stroke: #000000; stroke-width: 1.0;"/><line style="stroke: #000000; stroke-width: 1.0;" x1="29.5" x2="324.5" y1="1402.4609" y2="1402.4609"/><text fill="#000000" font-family="sans-serif" font-size="13" lengthAdjust="spacingAndGlyphs" textLength="101" x="36.5" y="1367.1294">1821, PFCP req.</text><text fill="#000000" font-family="sans-serif" font-size="13" lengthAdjust="spacingAndGlyphs" textLength="252" x="36.5" y="1382.2622">PFCP Session Modification Request (52)</text><text fill="#000000" font-family="sans-serif" font-size="13" lengthAdjust="spacingAndGlyphs" textLength="188" x="36.5" y="1397.395">+38.842s (17:44:32.653.445)</text><path d="M335,1368.1953 L335,1393.1953 L441,1393.1953 L441,1378.1953 L431,1368.1953 L335,1368.1953 " fill="#03B5AA" style="stroke: #FFFFFF; stroke-width: 1.0;"/><path d="M431,1368.1953 L431,1378.1953 L441,1378.1953 L431,1368.1953 " fill="#03B5AA" style="stroke: #FFFFFF; stroke-width: 1.0;"/><text fill="#000000" font-family="sans-serif" font-size="13" font-weight="bold" lengthAdjust="spacingAndGlyphs" textLength="85" x="341" y="1385.2622">SMF to UPF</text><polygon fill="#000000" points="40.5,1457.8594,30.5,1461.8594,40.5,1465.8594,36.5,1461.8594" style="stroke: #000000; stroke-width: 1.0;"/><line style="stroke: #000000; stroke-width: 1.0;" x1="34.5" x2="329.5" y1="1461.8594" y2="1461.8594"/><text fill="#000000" font-family="sans-serif" font-size="13" lengthAdjust="spacingAndGlyphs" textLength="100" x="46.5" y="1426.5278">1822, PFCP rsp.</text><text fill="#000000" font-family="sans-serif" font-size="13" lengthAdjust="spacingAndGlyphs" textLength="262" x="46.5" y="1441.6606">PFCP Session Modification Response (53)</text><text fill="#000000" font-family="sans-serif" font-size="13" lengthAdjust="spacingAndGlyphs" textLength="180" x="46.5" y="1456.7935">+38.842s (17:44:32.653.55)</text><path d="M335,1427.5938 L335,1452.5938 L441,1452.5938 L441,1437.5938 L431,1427.5938 L335,1427.5938 " fill="#D7FEFC" style="stroke: #FFFFFF; stroke-width: 1.0;"/><path d="M431,1427.5938 L431,1437.5938 L441,1437.5938 L431,1427.5938 " fill="#D7FEFC" style="stroke: #FFFFFF; stroke-width: 1.0;"/><text fill="#000000" font-family="sans-serif" font-size="13" font-weight="bold" lengthAdjust="spacingAndGlyphs" textLength="85" x="341" y="1444.6606">UPF to SMF</text><!--MD5=[a2391758d552671cdb7a08fa69fbdbc1]
@startuml
skinparam shadowing false
skinparam NoteBorderColor white
skinparam sequence {
    ArrowColor black
    LifeLineBorderColor black
    LifeLineBackgroundColor black
    ParticipantBorderColor white
    ParticipantBackgroundColor #e6e6e6
}
participant "SMF"
participant "UPF"
participant "SGWU"
participant "SGWC"

"SGWC" -> "SGWU": 44, PFCP req.\nPFCP Association Setup Request (5)\n+0.000s (17:43:53.811.146)

note right #03B5AA
**SGWC to SGWU**
end note

"UPF" -> "SMF": 57, PFCP req.\nPFCP Association Setup Request (5)\n+0.551s (17:43:54.362.026)

note right #03B5AA
**UPF to SMF**
end note

"SMF" -> "UPF": 92, PFCP req.\nPFCP Association Setup Request (5)\n+1.208s (17:43:55.18.967)

note right #03B5AA
**SMF to UPF**
end note

"UPF" -> "SMF": 93, PFCP rsp.\nPFCP Association Setup Response (6)\n+1.208s (17:43:55.19.129)

note right #D7FEFC
**UPF to SMF**
end note

"SGWC" -> "SGWU": 355, PFCP req.\nPFCP Association Setup Request (5)\n+2.502s (17:43:56.313.209)

note right #03B5AA
**SGWC to SGWU**
end note

"SGWU" -> "SGWC": 356, PFCP rsp.\nPFCP Association Setup Response (6)\n+2.504s (17:43:56.315.444)

note right #D7FEFC
**SGWU to SGWC**
end note

"UPF" -> "SMF": 402, PFCP req.\nPFCP Association Setup Request (5)\n+3.053s (17:43:56.864.601)

note right #03B5AA
**UPF to SMF**
end note

"SMF" -> "UPF": 403, PFCP rsp.\nPFCP Association Setup Response (6)\n+3.054s (17:43:56.864.815)

note right #D7FEFC
**SMF to UPF**
end note

"SMF" -> "UPF": 1280, PFCP req.\nPFCP Session Establishment Request (50)\n+32.751s (17:44:26.562.429)

note right #03B5AA
**SMF to UPF**
end note

"UPF" -> "SMF": 1282, PFCP rsp.\nPFCP Session Establishment Response (51)\n+32.758s (17:44:26.569.117)

note right #D7FEFC
**UPF to SMF**
end note

"SMF" -> "UPF": 1316, PFCP req.\nPFCP Session Modification Request (52)\n+32.833s (17:44:26.644.014)

note right #03B5AA
**SMF to UPF**
end note

"UPF" -> "SMF": 1317, PFCP rsp.\nPFCP Session Modification Response (53)\n+32.833s (17:44:26.644.339)

note right #D7FEFC
**UPF to SMF**
end note

"SMF" -> "UPF": 1490, PFCP req.\nPFCP Session Establishment Request (50)\n+35.420s (17:44:29.231.552)

note right #03B5AA
**SMF to UPF**
end note

"UPF" -> "SMF": 1491, PFCP rsp.\nPFCP Session Establishment Response (51)\n+35.421s (17:44:29.231.758)

note right #D7FEFC
**UPF to SMF**
end note

"SMF" -> "UPF": 1501, PFCP req.\nPFCP Session Modification Request (52)\n+35.461s (17:44:29.271.821)

note right #03B5AA
**SMF to UPF**
end note

"UPF" -> "SMF": 1502, PFCP rsp.\nPFCP Session Modification Response (53)\n+35.461s (17:44:29.272.176)

note right #D7FEFC
**UPF to SMF**
end note

"SMF" -> "UPF": 1643, PFCP req.\nPFCP Session Establishment Request (50)\n+36.935s (17:44:30.746.638)

note right #03B5AA
**SMF to UPF**
end note

"UPF" -> "SMF": 1644, PFCP rsp.\nPFCP Session Establishment Response (51)\n+36.936s (17:44:30.747.101)

note right #D7FEFC
**UPF to SMF**
end note

"SMF" -> "UPF": 1655, PFCP req.\nPFCP Session Modification Request (52)\n+36.981s (17:44:30.792.157)

note right #03B5AA
**SMF to UPF**
end note

"UPF" -> "SMF": 1656, PFCP rsp.\nPFCP Session Modification Response (53)\n+36.981s (17:44:30.792.305)

note right #D7FEFC
**UPF to SMF**
end note

"SMF" -> "UPF": 1807, PFCP req.\nPFCP Session Establishment Request (50)\n+38.811s (17:44:32.621.823)

note right #03B5AA
**SMF to UPF**
end note

"UPF" -> "SMF": 1808, PFCP rsp.\nPFCP Session Establishment Response (51)\n+38.811s (17:44:32.622.06)

note right #D7FEFC
**UPF to SMF**
end note

"SMF" -> "UPF": 1821, PFCP req.\nPFCP Session Modification Request (52)\n+38.842s (17:44:32.653.445)

note right #03B5AA
**SMF to UPF**
end note

"UPF" -> "SMF": 1822, PFCP rsp.\nPFCP Session Modification Response (53)\n+38.842s (17:44:32.653.55)

note right #D7FEFC
**UPF to SMF**
end note

@enduml

PlantUML version 1.2019.12(Sun Nov 03 11:24:54 CET 2019)
(APACHE source distribution)
Java Runtime: OpenJDK Runtime Environment
JVM: OpenJDK 64-Bit Server VM
Java Version: 11.0.17+8-post-Ubuntu-1ubuntu220.04
Operating System: Linux
Default Encoding: UTF-8
Language: en
Country: US
--></g></svg>