<?xml version="1.0" encoding="UTF-8" standalone="no"?><svg xmlns="http://www.w3.org/2000/svg" xmlns:xlink="http://www.w3.org/1999/xlink" contentScriptType="application/ecmascript" contentStyleType="text/css" height="358px" preserveAspectRatio="none" style="width:1176px;height:358px;" version="1.1" viewBox="0 0 1176 358" width="1176px" zoomAndPan="magnify"><defs/><g><line style="stroke: #000000; stroke-width: 1.0; stroke-dasharray: 5.0,5.0;" x1="68" x2="68" y1="34.2969" y2="318.4922"/><line style="stroke: #000000; stroke-width: 1.0; stroke-dasharray: 5.0,5.0;" x1="368" x2="368" y1="34.2969" y2="318.4922"/><line style="stroke: #000000; stroke-width: 1.0; stroke-dasharray: 5.0,5.0;" x1="1040.5" x2="1040.5" y1="34.2969" y2="318.4922"/><rect fill="#E6E6E6" height="30.2969" style="stroke: #FFFFFF; stroke-width: 1.5;" width="120" x="8" y="3"/><text fill="#000000" font-family="sans-serif" font-size="14" lengthAdjust="spacingAndGlyphs" textLength="106" x="15" y="22.9951">Malicious_Actor</text><rect fill="#E6E6E6" height="30.2969" style="stroke: #FFFFFF; stroke-width: 1.5;" width="120" x="8" y="317.4922"/><text fill="#000000" font-family="sans-serif" font-size="14" lengthAdjust="spacingAndGlyphs" textLength="106" x="15" y="337.4873">Malicious_Actor</text><rect fill="#E6E6E6" height="30.2969" style="stroke: #FFFFFF; stroke-width: 1.5;" width="50" x="343" y="3"/><text fill="#000000" font-family="sans-serif" font-size="14" lengthAdjust="spacingAndGlyphs" textLength="36" x="350" y="22.9951">AUSF</text><rect fill="#E6E6E6" height="30.2969" style="stroke: #FFFFFF; stroke-width: 1.5;" width="50" x="343" y="317.4922"/><text fill="#000000" font-family="sans-serif" font-size="14" lengthAdjust="spacingAndGlyphs" textLength="36" x="350" y="337.4873">AUSF</text><rect fill="#E6E6E6" height="30.2969" style="stroke: #FFFFFF; stroke-width: 1.5;" width="47" x="1017.5" y="3"/><text fill="#000000" font-family="sans-serif" font-size="14" lengthAdjust="spacingAndGlyphs" textLength="33" x="1024.5" y="22.9951">UDM</text><rect fill="#E6E6E6" height="30.2969" style="stroke: #FFFFFF; stroke-width: 1.5;" width="47" x="1017.5" y="317.4922"/><text fill="#000000" font-family="sans-serif" font-size="14" lengthAdjust="spacingAndGlyphs" textLength="33" x="1024.5" y="337.4873">UDM</text><polygon fill="#000000" points="356,76.5625,366,80.5625,356,84.5625,360,80.5625" style="stroke: #000000; stroke-width: 1.0;"/><line style="stroke: #000000; stroke-width: 1.0;" x1="68" x2="362" y1="80.5625" y2="80.5625"/><text fill="#000000" font-family="sans-serif" font-size="13" lengthAdjust="spacingAndGlyphs" textLength="89" x="75" y="60.3638">6, HTTP/2 req.</text><text fill="#000000" font-family="sans-serif" font-size="13" lengthAdjust="spacingAndGlyphs" textLength="258" x="75" y="75.4966">POST  /nausf-auth/v1/ue-authentications</text><path d="M373,53.8633 L373,78.8633 L571,78.8633 L571,63.8633 L561,53.8633 L373,53.8633 " fill="#FFC2D9" style="stroke: #FFFFFF; stroke-width: 1.0;"/><path d="M561,53.8633 L561,63.8633 L571,63.8633 L561,53.8633 " fill="#FFC2D9" style="stroke: #FFFFFF; stroke-width: 1.0;"/><text fill="#000000" font-family="sans-serif" font-size="13" font-weight="bold" lengthAdjust="spacingAndGlyphs" textLength="177" x="379" y="70.9302">Malicious_Actor to AUSF</text><polygon fill="#000000" points="1029,120.8281,1039,124.8281,1029,128.8281,1033,124.8281" style="stroke: #000000; stroke-width: 1.0;"/><line style="stroke: #000000; stroke-width: 1.0;" x1="368" x2="1035" y1="124.8281" y2="124.8281"/><text fill="#000000" font-family="sans-serif" font-size="13" lengthAdjust="spacingAndGlyphs" textLength="89" x="375" y="104.6294">8, HTTP/2 req.</text><text fill="#000000" font-family="sans-serif" font-size="13" lengthAdjust="spacingAndGlyphs" textLength="649" x="375" y="119.7622">POST  /nudm-ueau/v1/suci-0-901-70-0000-0-0-00000001234/security-information/generate-auth-data</text><path d="M1046,98.1289 L1046,123.1289 L1164,123.1289 L1164,108.1289 L1154,98.1289 L1046,98.1289 " fill="#FFEAC2" style="stroke: #FFFFFF; stroke-width: 1.0;"/><path d="M1154,98.1289 L1154,108.1289 L1164,108.1289 L1154,98.1289 " fill="#FFEAC2" style="stroke: #FFFFFF; stroke-width: 1.0;"/><text fill="#000000" font-family="sans-serif" font-size="13" font-weight="bold" lengthAdjust="spacingAndGlyphs" textLength="97" x="1052" y="115.1958">AUSF to UDM</text><polygon fill="#000000" points="1029,152.9609,1039,156.9609,1029,160.9609,1033,156.9609" style="stroke: #000000; stroke-width: 1.0;"/><line style="stroke: #000000; stroke-width: 1.0;" x1="368" x2="1035" y1="156.9609" y2="156.9609"/><text fill="#000000" font-family="sans-serif" font-size="13" lengthAdjust="spacingAndGlyphs" textLength="268" x="375" y="151.895">9, HTTP/2 req. or rsp. (no HTTP/2 headers)</text><path d="M1046,137.8281 L1046,162.8281 L1164,162.8281 L1164,147.8281 L1154,137.8281 L1046,137.8281 " fill="#D7FEFC" style="stroke: #FFFFFF; stroke-width: 1.0;"/><path d="M1154,137.8281 L1154,147.8281 L1164,147.8281 L1154,137.8281 " fill="#D7FEFC" style="stroke: #FFFFFF; stroke-width: 1.0;"/><text fill="#000000" font-family="sans-serif" font-size="13" font-weight="bold" lengthAdjust="spacingAndGlyphs" textLength="97" x="1052" y="154.895">AUSF to UDM</text><polygon fill="#000000" points="379,188.0938,369,192.0938,379,196.0938,375,192.0938" style="stroke: #000000; stroke-width: 1.0;"/><line style="stroke: #000000; stroke-width: 1.0;" x1="373" x2="1040" y1="192.0938" y2="192.0938"/><text fill="#000000" font-family="sans-serif" font-size="13" lengthAdjust="spacingAndGlyphs" textLength="124" x="385" y="187.0278">11, HTTP/2 404 rsp.</text><path d="M1046,172.9609 L1046,197.9609 L1164,197.9609 L1164,182.9609 L1154,172.9609 L1046,172.9609 " fill="#D7FEFC" style="stroke: #FFFFFF; stroke-width: 1.0;"/><path d="M1154,172.9609 L1154,182.9609 L1164,182.9609 L1154,172.9609 " fill="#D7FEFC" style="stroke: #FFFFFF; stroke-width: 1.0;"/><text fill="#000000" font-family="sans-serif" font-size="13" font-weight="bold" lengthAdjust="spacingAndGlyphs" textLength="97" x="1052" y="190.0278">UDM to AUSF</text><polygon fill="#000000" points="379,223.2266,369,227.2266,379,231.2266,375,227.2266" style="stroke: #000000; stroke-width: 1.0;"/><line style="stroke: #000000; stroke-width: 1.0;" x1="373" x2="1040" y1="227.2266" y2="227.2266"/><text fill="#000000" font-family="sans-serif" font-size="13" lengthAdjust="spacingAndGlyphs" textLength="276" x="385" y="222.1606">12, HTTP/2 req. or rsp. (no HTTP/2 headers)</text><path d="M1046,208.0938 L1046,233.0938 L1164,233.0938 L1164,218.0938 L1154,208.0938 L1046,208.0938 " fill="#D7FEFC" style="stroke: #FFFFFF; stroke-width: 1.0;"/><path d="M1154,208.0938 L1154,218.0938 L1164,218.0938 L1154,208.0938 " fill="#D7FEFC" style="stroke: #FFFFFF; stroke-width: 1.0;"/><text fill="#000000" font-family="sans-serif" font-size="13" font-weight="bold" lengthAdjust="spacingAndGlyphs" textLength="97" x="1052" y="225.1606">UDM to AUSF</text><polygon fill="#000000" points="79,258.3594,69,262.3594,79,266.3594,75,262.3594" style="stroke: #000000; stroke-width: 1.0;"/><line style="stroke: #000000; stroke-width: 1.0;" x1="73" x2="367" y1="262.3594" y2="262.3594"/><text fill="#000000" font-family="sans-serif" font-size="13" lengthAdjust="spacingAndGlyphs" textLength="124" x="85" y="257.2935">15, HTTP/2 404 rsp.</text><path d="M373,243.2266 L373,268.2266 L571,268.2266 L571,253.2266 L561,243.2266 L373,243.2266 " fill="#D7FEFC" style="stroke: #FFFFFF; stroke-width: 1.0;"/><path d="M561,243.2266 L561,253.2266 L571,253.2266 L561,243.2266 " fill="#D7FEFC" style="stroke: #FFFFFF; stroke-width: 1.0;"/><text fill="#000000" font-family="sans-serif" font-size="13" font-weight="bold" lengthAdjust="spacingAndGlyphs" textLength="177" x="379" y="260.2935">AUSF to Malicious_Actor</text><polygon fill="#000000" points="79,293.4922,69,297.4922,79,301.4922,75,297.4922" style="stroke: #000000; stroke-width: 1.0;"/><line style="stroke: #000000; stroke-width: 1.0;" x1="73" x2="367" y1="297.4922" y2="297.4922"/><text fill="#000000" font-family="sans-serif" font-size="13" lengthAdjust="spacingAndGlyphs" textLength="276" x="85" y="292.4263">16, HTTP/2 req. or rsp. (no HTTP/2 headers)</text><path d="M373,278.3594 L373,303.3594 L571,303.3594 L571,288.3594 L561,278.3594 L373,278.3594 " fill="#D7FEFC" style="stroke: #FFFFFF; stroke-width: 1.0;"/><path d="M561,278.3594 L561,288.3594 L571,288.3594 L561,278.3594 " fill="#D7FEFC" style="stroke: #FFFFFF; stroke-width: 1.0;"/><text fill="#000000" font-family="sans-serif" font-size="13" font-weight="bold" lengthAdjust="spacingAndGlyphs" textLength="177" x="379" y="295.4263">AUSF to Malicious_Actor</text><!--MD5=[19e6128571038944e71f6fc773e860f9]
@startuml
skinparam shadowing false
skinparam NoteBorderColor white
skinparam sequence {
    ArrowColor black
    LifeLineBorderColor black
    LifeLineBackgroundColor black
    ParticipantBorderColor white
    ParticipantBackgroundColor #e6e6e6
}
participant "Malicious_Actor"
participant "AUSF"
participant "UDM"



"Malicious_Actor" -> "AUSF": 6, HTTP/2 req.\nPOST  /nausf-auth/v1/ue-authentications

note right #FFC2D9
**Malicious_Actor to AUSF**
end note

"AUSF" -> "UDM": 8, HTTP/2 req.\nPOST  /nudm-ueau/v1/suci-0-901-70-0000-0-0-00000001234/security-information/generate-auth-data

note right #FFEAC2
**AUSF to UDM**
end note

"AUSF" -> "UDM": 9, HTTP/2 req. or rsp. (no HTTP/2 headers)

note right #D7FEFC
**AUSF to UDM**
end note

"UDM" -> "AUSF": 11, HTTP/2 404 rsp.

note right #D7FEFC
**UDM to AUSF**
end note

"UDM" -> "AUSF": 12, HTTP/2 req. or rsp. (no HTTP/2 headers)

note right #D7FEFC
**UDM to AUSF**
end note

"AUSF" -> "Malicious_Actor": 15, HTTP/2 404 rsp.

note right #D7FEFC
**AUSF to Malicious_Actor**
end note

"AUSF" -> "Malicious_Actor": 16, HTTP/2 req. or rsp. (no HTTP/2 headers)

note right #D7FEFC
**AUSF to Malicious_Actor**
end note


@enduml

PlantUML version 1.2019.12(Sun Nov 03 11:24:54 CET 2019)
(APACHE source distribution)
Java Runtime: OpenJDK Runtime Environment
JVM: OpenJDK 64-Bit Server VM
Java Version: 11.0.18+10-post-Ubuntu-0ubuntu120.04.1
Operating System: Linux
Default Encoding: UTF-8
Language: en
Country: US
--></g></svg>