<?xml version="1.0" encoding="UTF-8" standalone="no"?><svg xmlns="http://www.w3.org/2000/svg" xmlns:xlink="http://www.w3.org/1999/xlink" contentScriptType="application/ecmascript" contentStyleType="text/css" height="323px" preserveAspectRatio="none" style="width:933px;height:323px;" version="1.1" viewBox="0 0 933 323" width="933px" zoomAndPan="magnify"><defs/><g><line style="stroke: #000000; stroke-width: 1.0; stroke-dasharray: 5.0,5.0;" x1="68" x2="68" y1="34.2969" y2="283.3594"/><line style="stroke: #000000; stroke-width: 1.0; stroke-dasharray: 5.0,5.0;" x1="367.5" x2="367.5" y1="34.2969" y2="283.3594"/><line style="stroke: #000000; stroke-width: 1.0; stroke-dasharray: 5.0,5.0;" x1="809.5" x2="809.5" y1="34.2969" y2="283.3594"/><rect fill="#E6E6E6" height="30.2969" style="stroke: #FFFFFF; stroke-width: 1.5;" width="120" x="8" y="3"/><text fill="#000000" font-family="sans-serif" font-size="14" lengthAdjust="spacingAndGlyphs" textLength="106" x="15" y="22.9951">Malicious_Actor</text><rect fill="#E6E6E6" height="30.2969" style="stroke: #FFFFFF; stroke-width: 1.5;" width="120" x="8" y="282.3594"/><text fill="#000000" font-family="sans-serif" font-size="14" lengthAdjust="spacingAndGlyphs" textLength="106" x="15" y="302.3545">Malicious_Actor</text><rect fill="#E6E6E6" height="30.2969" style="stroke: #FFFFFF; stroke-width: 1.5;" width="41" x="347.5" y="3"/><text fill="#000000" font-family="sans-serif" font-size="14" lengthAdjust="spacingAndGlyphs" textLength="27" x="354.5" y="22.9951">PCF</text><rect fill="#E6E6E6" height="30.2969" style="stroke: #FFFFFF; stroke-width: 1.5;" width="41" x="347.5" y="282.3594"/><text fill="#000000" font-family="sans-serif" font-size="14" lengthAdjust="spacingAndGlyphs" textLength="27" x="354.5" y="302.3545">PCF</text><rect fill="#E6E6E6" height="30.2969" style="stroke: #FFFFFF; stroke-width: 1.5;" width="45" x="787.5" y="3"/><text fill="#000000" font-family="sans-serif" font-size="14" lengthAdjust="spacingAndGlyphs" textLength="31" x="794.5" y="22.9951">UDR</text><rect fill="#E6E6E6" height="30.2969" style="stroke: #FFFFFF; stroke-width: 1.5;" width="45" x="787.5" y="282.3594"/><text fill="#000000" font-family="sans-serif" font-size="14" lengthAdjust="spacingAndGlyphs" textLength="31" x="794.5" y="302.3545">UDR</text><polygon fill="#000000" points="356,76.5625,366,80.5625,356,84.5625,360,80.5625" style="stroke: #000000; stroke-width: 1.0;"/><line style="stroke: #000000; stroke-width: 1.0;" x1="68" x2="362" y1="80.5625" y2="80.5625"/><text fill="#000000" font-family="sans-serif" font-size="13" lengthAdjust="spacingAndGlyphs" textLength="97" x="75" y="60.3638">11, HTTP/2 req.</text><text fill="#000000" font-family="sans-serif" font-size="13" lengthAdjust="spacingAndGlyphs" textLength="259" x="75" y="75.4966">POST  /npcf-am-policy-control/v1/policies</text><path d="M373,53.8633 L373,78.8633 L562,78.8633 L562,63.8633 L552,53.8633 L373,53.8633 " fill="#FFC2D9" style="stroke: #FFFFFF; stroke-width: 1.0;"/><path d="M552,53.8633 L552,63.8633 L562,63.8633 L552,53.8633 " fill="#FFC2D9" style="stroke: #FFFFFF; stroke-width: 1.0;"/><text fill="#000000" font-family="sans-serif" font-size="13" font-weight="bold" lengthAdjust="spacingAndGlyphs" textLength="168" x="379" y="70.9302">Malicious_Actor to PCF</text><polygon fill="#000000" points="798,120.8281,808,124.8281,798,128.8281,802,124.8281" style="stroke: #000000; stroke-width: 1.0;"/><line style="stroke: #000000; stroke-width: 1.0;" x1="368" x2="804" y1="124.8281" y2="124.8281"/><text fill="#000000" font-family="sans-serif" font-size="13" lengthAdjust="spacingAndGlyphs" textLength="97" x="375" y="104.6294">13, HTTP/2 req.</text><text fill="#000000" font-family="sans-serif" font-size="13" lengthAdjust="spacingAndGlyphs" textLength="418" x="375" y="119.7622">GET  /nudr-dr/v1/policy-data/ues/imsi-901700000000004/am-data</text><path d="M815,98.1289 L815,123.1289 L921,123.1289 L921,108.1289 L911,98.1289 L815,98.1289 " fill="#FFEAC2" style="stroke: #FFFFFF; stroke-width: 1.0;"/><path d="M911,98.1289 L911,108.1289 L921,108.1289 L911,98.1289 " fill="#FFEAC2" style="stroke: #FFFFFF; stroke-width: 1.0;"/><text fill="#000000" font-family="sans-serif" font-size="13" font-weight="bold" lengthAdjust="spacingAndGlyphs" textLength="85" x="821" y="115.1958">PCF to UDR</text><polygon fill="#000000" points="379,152.9609,369,156.9609,379,160.9609,375,156.9609" style="stroke: #000000; stroke-width: 1.0;"/><line style="stroke: #000000; stroke-width: 1.0;" x1="373" x2="809" y1="156.9609" y2="156.9609"/><text fill="#000000" font-family="sans-serif" font-size="13" lengthAdjust="spacingAndGlyphs" textLength="124" x="385" y="151.895">14, HTTP/2 200 rsp.</text><path d="M815,137.8281 L815,162.8281 L921,162.8281 L921,147.8281 L911,137.8281 L815,137.8281 " fill="#D7FEFC" style="stroke: #FFFFFF; stroke-width: 1.0;"/><path d="M911,137.8281 L911,147.8281 L921,147.8281 L911,137.8281 " fill="#D7FEFC" style="stroke: #FFFFFF; stroke-width: 1.0;"/><text fill="#000000" font-family="sans-serif" font-size="13" font-weight="bold" lengthAdjust="spacingAndGlyphs" textLength="85" x="821" y="154.895">UDR to PCF</text><polygon fill="#000000" points="379,188.0938,369,192.0938,379,196.0938,375,192.0938" style="stroke: #000000; stroke-width: 1.0;"/><line style="stroke: #000000; stroke-width: 1.0;" x1="373" x2="809" y1="192.0938" y2="192.0938"/><text fill="#000000" font-family="sans-serif" font-size="13" lengthAdjust="spacingAndGlyphs" textLength="276" x="385" y="187.0278">16, HTTP/2 req. or rsp. (no HTTP/2 headers)</text><path d="M815,172.9609 L815,197.9609 L921,197.9609 L921,182.9609 L911,172.9609 L815,172.9609 " fill="#D7FEFC" style="stroke: #FFFFFF; stroke-width: 1.0;"/><path d="M911,172.9609 L911,182.9609 L921,182.9609 L911,172.9609 " fill="#D7FEFC" style="stroke: #FFFFFF; stroke-width: 1.0;"/><text fill="#000000" font-family="sans-serif" font-size="13" font-weight="bold" lengthAdjust="spacingAndGlyphs" textLength="85" x="821" y="190.0278">UDR to PCF</text><polygon fill="#000000" points="79,223.2266,69,227.2266,79,231.2266,75,227.2266" style="stroke: #000000; stroke-width: 1.0;"/><line style="stroke: #000000; stroke-width: 1.0;" x1="73" x2="367" y1="227.2266" y2="227.2266"/><text fill="#000000" font-family="sans-serif" font-size="13" lengthAdjust="spacingAndGlyphs" textLength="124" x="85" y="222.1606">24, HTTP/2 201 rsp.</text><path d="M373,208.0938 L373,233.0938 L562,233.0938 L562,218.0938 L552,208.0938 L373,208.0938 " fill="#D7FEFC" style="stroke: #FFFFFF; stroke-width: 1.0;"/><path d="M552,208.0938 L552,218.0938 L562,218.0938 L552,208.0938 " fill="#D7FEFC" style="stroke: #FFFFFF; stroke-width: 1.0;"/><text fill="#000000" font-family="sans-serif" font-size="13" font-weight="bold" lengthAdjust="spacingAndGlyphs" textLength="168" x="379" y="225.1606">PCF to Malicious_Actor</text><polygon fill="#000000" points="79,258.3594,69,262.3594,79,266.3594,75,262.3594" style="stroke: #000000; stroke-width: 1.0;"/><line style="stroke: #000000; stroke-width: 1.0;" x1="73" x2="367" y1="262.3594" y2="262.3594"/><text fill="#000000" font-family="sans-serif" font-size="13" lengthAdjust="spacingAndGlyphs" textLength="276" x="85" y="257.2935">25, HTTP/2 req. or rsp. (no HTTP/2 headers)</text><path d="M373,243.2266 L373,268.2266 L562,268.2266 L562,253.2266 L552,243.2266 L373,243.2266 " fill="#D7FEFC" style="stroke: #FFFFFF; stroke-width: 1.0;"/><path d="M552,243.2266 L552,253.2266 L562,253.2266 L552,243.2266 " fill="#D7FEFC" style="stroke: #FFFFFF; stroke-width: 1.0;"/><text fill="#000000" font-family="sans-serif" font-size="13" font-weight="bold" lengthAdjust="spacingAndGlyphs" textLength="168" x="379" y="260.2935">PCF to Malicious_Actor</text><!--MD5=[a21cca8548c65b4fb06eb7dc9f4a9ad6]
@startuml
skinparam shadowing false
skinparam NoteBorderColor white
skinparam sequence {
    ArrowColor black
    LifeLineBorderColor black
    LifeLineBackgroundColor black
    ParticipantBorderColor white
    ParticipantBackgroundColor #e6e6e6
}
participant "Malicious_Actor"
participant "PCF"
participant "UDR"

"Malicious_Actor" -> "PCF": 11, HTTP/2 req.\nPOST  /npcf-am-policy-control/v1/policies

note right #FFC2D9
**Malicious_Actor to PCF**
end note

"PCF" -> "UDR": 13, HTTP/2 req.\nGET  /nudr-dr/v1/policy-data/ues/imsi-901700000000004/am-data

note right #FFEAC2
**PCF to UDR**
end note

"UDR" -> "PCF": 14, HTTP/2 200 rsp.

note right #D7FEFC
**UDR to PCF**
end note

"UDR" -> "PCF": 16, HTTP/2 req. or rsp. (no HTTP/2 headers)

note right #D7FEFC
**UDR to PCF**
end note

"PCF" -> "Malicious_Actor": 24, HTTP/2 201 rsp.

note right #D7FEFC
**PCF to Malicious_Actor**
end note

"PCF" -> "Malicious_Actor": 25, HTTP/2 req. or rsp. (no HTTP/2 headers)

note right #D7FEFC
**PCF to Malicious_Actor**
end note

@enduml

PlantUML version 1.2019.12(Sun Nov 03 11:24:54 CET 2019)
(APACHE source distribution)
Java Runtime: OpenJDK Runtime Environment
JVM: OpenJDK 64-Bit Server VM
Java Version: 11.0.18+10-post-Ubuntu-0ubuntu120.04.1
Operating System: Linux
Default Encoding: UTF-8
Language: en
Country: US
--></g></svg>