<?xml version="1.0" encoding="UTF-8" standalone="no"?><svg xmlns="http://www.w3.org/2000/svg" xmlns:xlink="http://www.w3.org/1999/xlink" contentScriptType="application/ecmascript" contentStyleType="text/css" height="1369px" preserveAspectRatio="none" style="width:1109px;height:1369px;" version="1.1" viewBox="0 0 1109 1369" width="1109px" zoomAndPan="magnify"><defs/><g><line style="stroke: #000000; stroke-width: 1.0; stroke-dasharray: 5.0,5.0;" x1="24" x2="24" y1="34.2969" y2="1329.6641"/><line style="stroke: #000000; stroke-width: 1.0; stroke-dasharray: 5.0,5.0;" x1="72" x2="72" y1="34.2969" y2="1329.6641"/><line style="stroke: #000000; stroke-width: 1.0; stroke-dasharray: 5.0,5.0;" x1="400" x2="400" y1="34.2969" y2="1329.6641"/><line style="stroke: #000000; stroke-width: 1.0; stroke-dasharray: 5.0,5.0;" x1="453" x2="453" y1="34.2969" y2="1329.6641"/><line style="stroke: #000000; stroke-width: 1.0; stroke-dasharray: 5.0,5.0;" x1="754" x2="754" y1="34.2969" y2="1329.6641"/><line style="stroke: #000000; stroke-width: 1.0; stroke-dasharray: 5.0,5.0;" x1="966.5" x2="966.5" y1="34.2969" y2="1329.6641"/><rect fill="#E6E6E6" height="30.2969" style="stroke: #FFFFFF; stroke-width: 1.5;" width="33" x="8" y="3"/><text fill="#000000" font-family="sans-serif" font-size="14" lengthAdjust="spacingAndGlyphs" textLength="19" x="15" y="22.9951">UE</text><rect fill="#E6E6E6" height="30.2969" style="stroke: #FFFFFF; stroke-width: 1.5;" width="33" x="8" y="1328.6641"/><text fill="#000000" font-family="sans-serif" font-size="14" lengthAdjust="spacingAndGlyphs" textLength="19" x="15" y="1348.6592">UE</text><rect fill="#E6E6E6" height="30.2969" style="stroke: #FFFFFF; stroke-width: 1.5;" width="43" x="51" y="3"/><text fill="#000000" font-family="sans-serif" font-size="14" lengthAdjust="spacingAndGlyphs" textLength="29" x="58" y="22.9951">gNB</text><rect fill="#E6E6E6" height="30.2969" style="stroke: #FFFFFF; stroke-width: 1.5;" width="43" x="51" y="1328.6641"/><text fill="#000000" font-family="sans-serif" font-size="14" lengthAdjust="spacingAndGlyphs" textLength="29" x="58" y="1348.6592">gNB</text><rect fill="#E6E6E6" height="30.2969" style="stroke: #FFFFFF; stroke-width: 1.5;" width="43" x="379" y="3"/><text fill="#000000" font-family="sans-serif" font-size="14" lengthAdjust="spacingAndGlyphs" textLength="29" x="386" y="22.9951">AMF</text><rect fill="#E6E6E6" height="30.2969" style="stroke: #FFFFFF; stroke-width: 1.5;" width="43" x="379" y="1328.6641"/><text fill="#000000" font-family="sans-serif" font-size="14" lengthAdjust="spacingAndGlyphs" textLength="29" x="386" y="1348.6592">AMF</text><rect fill="#E6E6E6" height="30.2969" style="stroke: #FFFFFF; stroke-width: 1.5;" width="43" x="432" y="3"/><text fill="#000000" font-family="sans-serif" font-size="14" lengthAdjust="spacingAndGlyphs" textLength="29" x="439" y="22.9951">SMF</text><rect fill="#E6E6E6" height="30.2969" style="stroke: #FFFFFF; stroke-width: 1.5;" width="43" x="432" y="1328.6641"/><text fill="#000000" font-family="sans-serif" font-size="14" lengthAdjust="spacingAndGlyphs" textLength="29" x="439" y="1348.6592">SMF</text><rect fill="#E6E6E6" height="30.2969" style="stroke: #FFFFFF; stroke-width: 1.5;" width="41" x="734" y="3"/><text fill="#000000" font-family="sans-serif" font-size="14" lengthAdjust="spacingAndGlyphs" textLength="27" x="741" y="22.9951">UPF</text><rect fill="#E6E6E6" height="30.2969" style="stroke: #FFFFFF; stroke-width: 1.5;" width="41" x="734" y="1328.6641"/><text fill="#000000" font-family="sans-serif" font-size="14" lengthAdjust="spacingAndGlyphs" textLength="27" x="741" y="1348.6592">UPF</text><rect fill="#E6E6E6" height="30.2969" style="stroke: #FFFFFF; stroke-width: 1.5;" width="62" x="935.5" y="3"/><text fill="#000000" font-family="sans-serif" font-size="14" lengthAdjust="spacingAndGlyphs" textLength="48" x="942.5" y="22.9951">8.8.8.8</text><rect fill="#E6E6E6" height="30.2969" style="stroke: #FFFFFF; stroke-width: 1.5;" width="62" x="935.5" y="1328.6641"/><text fill="#000000" font-family="sans-serif" font-size="14" lengthAdjust="spacingAndGlyphs" textLength="48" x="942.5" y="1348.6592">8.8.8.8</text><polygon fill="#000000" points="388.5,76.5625,398.5,80.5625,388.5,84.5625,392.5,80.5625" style="stroke: #000000; stroke-width: 1.0;"/><line style="stroke: #000000; stroke-width: 1.0;" x1="72.5" x2="394.5" y1="80.5625" y2="80.5625"/><text fill="#000000" font-family="sans-serif" font-size="13" lengthAdjust="spacingAndGlyphs" textLength="161" x="79.5" y="60.3638">467, NGAP NGSetup (21)</text><text fill="#000000" font-family="sans-serif" font-size="13" lengthAdjust="spacingAndGlyphs" textLength="188" x="79.5" y="75.4966">+21.421s (16:59:16.935.175)</text><path d="M405,53.8633 L405,78.8633 L514,78.8633 L514,63.8633 L504,53.8633 L405,53.8633 " fill="#CDDCF3" style="stroke: #FFFFFF; stroke-width: 1.0;"/><path d="M504,53.8633 L504,63.8633 L514,63.8633 L504,53.8633 " fill="#CDDCF3" style="stroke: #FFFFFF; stroke-width: 1.0;"/><text fill="#000000" font-family="sans-serif" font-size="13" font-weight="bold" lengthAdjust="spacingAndGlyphs" textLength="88" x="411" y="70.9302">gNB to AMF</text><polygon fill="#000000" points="83.5,120.8281,73.5,124.8281,83.5,128.8281,79.5,124.8281" style="stroke: #000000; stroke-width: 1.0;"/><line style="stroke: #000000; stroke-width: 1.0;" x1="77.5" x2="399.5" y1="124.8281" y2="124.8281"/><text fill="#000000" font-family="sans-serif" font-size="13" lengthAdjust="spacingAndGlyphs" textLength="161" x="89.5" y="104.6294">469, NGAP NGSetup (21)</text><text fill="#000000" font-family="sans-serif" font-size="13" lengthAdjust="spacingAndGlyphs" textLength="188" x="89.5" y="119.7622">+21.479s (16:59:16.992.589)</text><path d="M405,98.1289 L405,123.1289 L514,123.1289 L514,108.1289 L504,98.1289 L405,98.1289 " fill="#CDDCF3" style="stroke: #FFFFFF; stroke-width: 1.0;"/><path d="M504,98.1289 L504,108.1289 L514,108.1289 L504,98.1289 " fill="#CDDCF3" style="stroke: #FFFFFF; stroke-width: 1.0;"/><text fill="#000000" font-family="sans-serif" font-size="13" font-weight="bold" lengthAdjust="spacingAndGlyphs" textLength="88" x="411" y="115.1958">AMF to gNB</text><polygon fill="#000000" points="388.5,180.2266,398.5,184.2266,388.5,188.2266,392.5,184.2266" style="stroke: #000000; stroke-width: 1.0;"/><line style="stroke: #000000; stroke-width: 1.0;" x1="72.5" x2="394.5" y1="184.2266" y2="184.2266"/><text fill="#000000" font-family="sans-serif" font-size="13" lengthAdjust="spacingAndGlyphs" textLength="215" x="79.5" y="148.895">626, NGAP InitialUEMessage (15),</text><text fill="#000000" font-family="sans-serif" font-size="13" lengthAdjust="spacingAndGlyphs" textLength="206" x="79.5" y="164.0278">NAS Registration request (0x41)</text><text fill="#000000" font-family="sans-serif" font-size="13" lengthAdjust="spacingAndGlyphs" textLength="172" x="79.5" y="179.1606">+32.494s (16:59:28.7.789)</text><path d="M405,149.9609 L405,174.9609 L514,174.9609 L514,159.9609 L504,149.9609 L405,149.9609 " fill="#285AA4" style="stroke: #FFFFFF; stroke-width: 1.0;"/><path d="M504,149.9609 L504,159.9609 L514,159.9609 L504,149.9609 " fill="#285AA4" style="stroke: #FFFFFF; stroke-width: 1.0;"/><text fill="#000000" font-family="sans-serif" font-size="13" font-weight="bold" lengthAdjust="spacingAndGlyphs" textLength="88" x="411" y="167.0278">gNB to AMF</text><polygon fill="#000000" points="83.5,239.625,73.5,243.625,83.5,247.625,79.5,243.625" style="stroke: #000000; stroke-width: 1.0;"/><line style="stroke: #000000; stroke-width: 1.0;" x1="77.5" x2="399.5" y1="243.625" y2="243.625"/><text fill="#000000" font-family="sans-serif" font-size="13" lengthAdjust="spacingAndGlyphs" textLength="244" x="89.5" y="208.2935">713, NGAP DownlinkNASTransport (4),</text><text fill="#000000" font-family="sans-serif" font-size="13" lengthAdjust="spacingAndGlyphs" textLength="223" x="89.5" y="223.4263">NAS Authentication request (0x56)</text><text fill="#000000" font-family="sans-serif" font-size="13" lengthAdjust="spacingAndGlyphs" textLength="188" x="89.5" y="238.5591">+32.692s (16:59:28.206.091)</text><path d="M405,209.3594 L405,234.3594 L514,234.3594 L514,219.3594 L504,209.3594 L405,209.3594 " fill="#285AA4" style="stroke: #FFFFFF; stroke-width: 1.0;"/><path d="M504,209.3594 L504,219.3594 L514,219.3594 L504,209.3594 " fill="#285AA4" style="stroke: #FFFFFF; stroke-width: 1.0;"/><text fill="#000000" font-family="sans-serif" font-size="13" font-weight="bold" lengthAdjust="spacingAndGlyphs" textLength="88" x="411" y="226.4263">AMF to gNB</text><polygon fill="#000000" points="388.5,299.0234,398.5,303.0234,388.5,307.0234,392.5,303.0234" style="stroke: #000000; stroke-width: 1.0;"/><line style="stroke: #000000; stroke-width: 1.0;" x1="72.5" x2="394.5" y1="303.0234" y2="303.0234"/><text fill="#000000" font-family="sans-serif" font-size="13" lengthAdjust="spacingAndGlyphs" textLength="235" x="79.5" y="267.6919">714, NGAP UplinkNASTransport (46),</text><text fill="#000000" font-family="sans-serif" font-size="13" lengthAdjust="spacingAndGlyphs" textLength="233" x="79.5" y="282.8247">NAS Authentication response (0x57)</text><text fill="#000000" font-family="sans-serif" font-size="13" lengthAdjust="spacingAndGlyphs" textLength="188" x="79.5" y="297.9575">+32.697s (16:59:28.210.332)</text><path d="M405,268.7578 L405,293.7578 L514,293.7578 L514,278.7578 L504,268.7578 L405,268.7578 " fill="#CDDCF3" style="stroke: #FFFFFF; stroke-width: 1.0;"/><path d="M504,268.7578 L504,278.7578 L514,278.7578 L504,268.7578 " fill="#CDDCF3" style="stroke: #FFFFFF; stroke-width: 1.0;"/><text fill="#000000" font-family="sans-serif" font-size="13" font-weight="bold" lengthAdjust="spacingAndGlyphs" textLength="88" x="411" y="285.8247">gNB to AMF</text><polygon fill="#000000" points="83.5,358.4219,73.5,362.4219,83.5,366.4219,79.5,362.4219" style="stroke: #000000; stroke-width: 1.0;"/><line style="stroke: #000000; stroke-width: 1.0;" x1="77.5" x2="399.5" y1="362.4219" y2="362.4219"/><text fill="#000000" font-family="sans-serif" font-size="13" lengthAdjust="spacingAndGlyphs" textLength="244" x="89.5" y="327.0903">742, NGAP DownlinkNASTransport (4),</text><text fill="#000000" font-family="sans-serif" font-size="13" lengthAdjust="spacingAndGlyphs" textLength="239" x="89.5" y="342.2231">NAS Security mode command (0x5d)</text><text fill="#000000" font-family="sans-serif" font-size="13" lengthAdjust="spacingAndGlyphs" textLength="188" x="89.5" y="357.356">+32.730s (16:59:28.243.347)</text><path d="M405,328.1563 L405,353.1563 L514,353.1563 L514,338.1563 L504,328.1563 L405,328.1563 " fill="#CDDCF3" style="stroke: #FFFFFF; stroke-width: 1.0;"/><path d="M504,328.1563 L504,338.1563 L514,338.1563 L504,328.1563 " fill="#CDDCF3" style="stroke: #FFFFFF; stroke-width: 1.0;"/><text fill="#000000" font-family="sans-serif" font-size="13" font-weight="bold" lengthAdjust="spacingAndGlyphs" textLength="88" x="411" y="345.2231">AMF to gNB</text><polygon fill="#000000" points="388.5,432.9531,398.5,436.9531,388.5,440.9531,392.5,436.9531" style="stroke: #000000; stroke-width: 1.0;"/><line style="stroke: #000000; stroke-width: 1.0;" x1="72.5" x2="394.5" y1="436.9531" y2="436.9531"/><text fill="#000000" font-family="sans-serif" font-size="13" lengthAdjust="spacingAndGlyphs" textLength="235" x="79.5" y="386.4888">743, NGAP UplinkNASTransport (46),</text><text fill="#000000" font-family="sans-serif" font-size="13" lengthAdjust="spacingAndGlyphs" textLength="238" x="79.5" y="401.6216">NAS Security mode complete (0x5e),</text><text fill="#000000" font-family="sans-serif" font-size="13" lengthAdjust="spacingAndGlyphs" textLength="206" x="79.5" y="416.7544">NAS Registration request (0x41)</text><text fill="#000000" font-family="sans-serif" font-size="13" lengthAdjust="spacingAndGlyphs" textLength="188" x="79.5" y="431.8872">+32.731s (16:59:28.244.818)</text><path d="M405,395.1211 L405,420.1211 L514,420.1211 L514,405.1211 L504,395.1211 L405,395.1211 " fill="#285AA4" style="stroke: #FFFFFF; stroke-width: 1.0;"/><path d="M504,395.1211 L504,405.1211 L514,405.1211 L504,395.1211 " fill="#285AA4" style="stroke: #FFFFFF; stroke-width: 1.0;"/><text fill="#000000" font-family="sans-serif" font-size="13" font-weight="bold" lengthAdjust="spacingAndGlyphs" textLength="88" x="411" y="412.188">gNB to AMF</text><polygon fill="#000000" points="83.5,492.3516,73.5,496.3516,83.5,500.3516,79.5,496.3516" style="stroke: #000000; stroke-width: 1.0;"/><line style="stroke: #000000; stroke-width: 1.0;" x1="77.5" x2="399.5" y1="496.3516" y2="496.3516"/><text fill="#000000" font-family="sans-serif" font-size="13" lengthAdjust="spacingAndGlyphs" textLength="228" x="89.5" y="461.02">859, NGAP InitialContextSetup (14),</text><text fill="#000000" font-family="sans-serif" font-size="13" lengthAdjust="spacingAndGlyphs" textLength="200" x="89.5" y="476.1528">NAS Registration accept (0x42)</text><text fill="#000000" font-family="sans-serif" font-size="13" lengthAdjust="spacingAndGlyphs" textLength="188" x="89.5" y="491.2856">+32.827s (16:59:28.340.548)</text><path d="M405,462.0859 L405,487.0859 L514,487.0859 L514,472.0859 L504,462.0859 L405,462.0859 " fill="#CDDCF3" style="stroke: #FFFFFF; stroke-width: 1.0;"/><path d="M504,462.0859 L504,472.0859 L514,472.0859 L504,462.0859 " fill="#CDDCF3" style="stroke: #FFFFFF; stroke-width: 1.0;"/><text fill="#000000" font-family="sans-serif" font-size="13" font-weight="bold" lengthAdjust="spacingAndGlyphs" textLength="88" x="411" y="479.1528">AMF to gNB</text><polygon fill="#000000" points="388.5,536.6172,398.5,540.6172,388.5,544.6172,392.5,540.6172" style="stroke: #000000; stroke-width: 1.0;"/><line style="stroke: #000000; stroke-width: 1.0;" x1="72.5" x2="394.5" y1="540.6172" y2="540.6172"/><text fill="#000000" font-family="sans-serif" font-size="13" lengthAdjust="spacingAndGlyphs" textLength="224" x="79.5" y="520.4185">860, NGAP InitialContextSetup (14)</text><text fill="#000000" font-family="sans-serif" font-size="13" lengthAdjust="spacingAndGlyphs" textLength="188" x="79.5" y="535.5513">+32.828s (16:59:28.342.092)</text><path d="M405,513.918 L405,538.918 L514,538.918 L514,523.918 L504,513.918 L405,513.918 " fill="#CDDCF3" style="stroke: #FFFFFF; stroke-width: 1.0;"/><path d="M504,513.918 L504,523.918 L514,523.918 L504,513.918 " fill="#CDDCF3" style="stroke: #FFFFFF; stroke-width: 1.0;"/><text fill="#000000" font-family="sans-serif" font-size="13" font-weight="bold" lengthAdjust="spacingAndGlyphs" textLength="88" x="411" y="530.9849">gNB to AMF</text><polygon fill="#000000" points="388.5,626.2813,398.5,630.2813,388.5,634.2813,392.5,630.2813" style="stroke: #000000; stroke-width: 1.0;"/><line style="stroke: #000000; stroke-width: 1.0;" x1="72.5" x2="394.5" y1="630.2813" y2="630.2813"/><text fill="#000000" font-family="sans-serif" font-size="13" lengthAdjust="spacingAndGlyphs" textLength="235" x="79.5" y="564.6841">872, NGAP UplinkNASTransport (46),</text><text fill="#000000" font-family="sans-serif" font-size="13" lengthAdjust="spacingAndGlyphs" textLength="221" x="79.5" y="579.8169">NAS Registration complete (0x43),</text><text fill="#000000" font-family="sans-serif" font-size="13" lengthAdjust="spacingAndGlyphs" textLength="193" x="79.5" y="594.9497">NAS UL NAS transport (0x67),</text><text fill="#000000" font-family="sans-serif" font-size="13" lengthAdjust="spacingAndGlyphs" textLength="304" x="79.5" y="610.0825">NAS PDU session establishment request (0xc1)</text><text fill="#000000" font-family="sans-serif" font-size="13" lengthAdjust="spacingAndGlyphs" textLength="188" x="79.5" y="625.2153">+33.061s (16:59:28.574.793)</text><path d="M405,580.8828 L405,605.8828 L514,605.8828 L514,590.8828 L504,580.8828 L405,580.8828 " fill="#285AA4" style="stroke: #FFFFFF; stroke-width: 1.0;"/><path d="M504,580.8828 L504,590.8828 L514,590.8828 L504,580.8828 " fill="#285AA4" style="stroke: #FFFFFF; stroke-width: 1.0;"/><text fill="#000000" font-family="sans-serif" font-size="13" font-weight="bold" lengthAdjust="spacingAndGlyphs" textLength="88" x="411" y="597.9497">gNB to AMF</text><polygon fill="#000000" points="83.5,685.6797,73.5,689.6797,83.5,693.6797,79.5,689.6797" style="stroke: #000000; stroke-width: 1.0;"/><line style="stroke: #000000; stroke-width: 1.0;" x1="77.5" x2="399.5" y1="689.6797" y2="689.6797"/><text fill="#000000" font-family="sans-serif" font-size="13" lengthAdjust="spacingAndGlyphs" textLength="244" x="89.5" y="654.3481">873, NGAP DownlinkNASTransport (4),</text><text fill="#000000" font-family="sans-serif" font-size="13" lengthAdjust="spacingAndGlyphs" textLength="280" x="89.5" y="669.481">NAS Configuration update command (0x54)</text><text fill="#000000" font-family="sans-serif" font-size="13" lengthAdjust="spacingAndGlyphs" textLength="188" x="89.5" y="684.6138">+33.062s (16:59:28.575.511)</text><path d="M405,655.4141 L405,680.4141 L514,680.4141 L514,665.4141 L504,655.4141 L405,655.4141 " fill="#CDDCF3" style="stroke: #FFFFFF; stroke-width: 1.0;"/><path d="M504,655.4141 L504,665.4141 L514,665.4141 L504,655.4141 " fill="#CDDCF3" style="stroke: #FFFFFF; stroke-width: 1.0;"/><text fill="#000000" font-family="sans-serif" font-size="13" font-weight="bold" lengthAdjust="spacingAndGlyphs" textLength="88" x="411" y="672.481">AMF to gNB</text><polygon fill="#000000" points="742.5,745.0781,752.5,749.0781,742.5,753.0781,746.5,749.0781" style="stroke: #000000; stroke-width: 1.0;"/><line style="stroke: #000000; stroke-width: 1.0;" x1="453.5" x2="748.5" y1="749.0781" y2="749.0781"/><text fill="#000000" font-family="sans-serif" font-size="13" lengthAdjust="spacingAndGlyphs" textLength="101" x="460.5" y="713.7466">1015, PFCP req.</text><text fill="#000000" font-family="sans-serif" font-size="13" lengthAdjust="spacingAndGlyphs" textLength="267" x="460.5" y="728.8794">PFCP Session Establishment Request (50)</text><text fill="#000000" font-family="sans-serif" font-size="13" lengthAdjust="spacingAndGlyphs" textLength="188" x="460.5" y="744.0122">+33.174s (16:59:28.687.663)</text><path d="M759,714.8125 L759,739.8125 L865,739.8125 L865,724.8125 L855,714.8125 L759,714.8125 " fill="#03B5AA" style="stroke: #FFFFFF; stroke-width: 1.0;"/><path d="M855,714.8125 L855,724.8125 L865,724.8125 L855,714.8125 " fill="#03B5AA" style="stroke: #FFFFFF; stroke-width: 1.0;"/><text fill="#000000" font-family="sans-serif" font-size="13" font-weight="bold" lengthAdjust="spacingAndGlyphs" textLength="85" x="765" y="731.8794">SMF to UPF</text><polygon fill="#000000" points="464.5,804.4766,454.5,808.4766,464.5,812.4766,460.5,808.4766" style="stroke: #000000; stroke-width: 1.0;"/><line style="stroke: #000000; stroke-width: 1.0;" x1="458.5" x2="753.5" y1="808.4766" y2="808.4766"/><text fill="#000000" font-family="sans-serif" font-size="13" lengthAdjust="spacingAndGlyphs" textLength="100" x="470.5" y="773.145">1021, PFCP rsp.</text><text fill="#000000" font-family="sans-serif" font-size="13" lengthAdjust="spacingAndGlyphs" textLength="277" x="470.5" y="788.2778">PFCP Session Establishment Response (51)</text><text fill="#000000" font-family="sans-serif" font-size="13" lengthAdjust="spacingAndGlyphs" textLength="188" x="470.5" y="803.4106">+33.259s (16:59:28.773.117)</text><path d="M759,774.2109 L759,799.2109 L865,799.2109 L865,784.2109 L855,774.2109 L759,774.2109 " fill="#D7FEFC" style="stroke: #FFFFFF; stroke-width: 1.0;"/><path d="M855,774.2109 L855,784.2109 L865,784.2109 L855,774.2109 " fill="#D7FEFC" style="stroke: #FFFFFF; stroke-width: 1.0;"/><text fill="#000000" font-family="sans-serif" font-size="13" font-weight="bold" lengthAdjust="spacingAndGlyphs" textLength="85" x="765" y="791.2778">UPF to SMF</text><polygon fill="#000000" points="83.5,879.0078,73.5,883.0078,83.5,887.0078,79.5,883.0078" style="stroke: #000000; stroke-width: 1.0;"/><line style="stroke: #000000; stroke-width: 1.0;" x1="77.5" x2="399.5" y1="883.0078" y2="883.0078"/><text fill="#000000" font-family="sans-serif" font-size="13" lengthAdjust="spacingAndGlyphs" textLength="290" x="89.5" y="832.5435">1045, NGAP PDUSessionResourceSetup (29),</text><text fill="#000000" font-family="sans-serif" font-size="13" lengthAdjust="spacingAndGlyphs" textLength="193" x="89.5" y="847.6763">NAS DL NAS transport (0x68),</text><text fill="#000000" font-family="sans-serif" font-size="13" lengthAdjust="spacingAndGlyphs" textLength="298" x="89.5" y="862.8091">NAS PDU session establishment accept (0xc2)</text><text fill="#000000" font-family="sans-serif" font-size="13" lengthAdjust="spacingAndGlyphs" textLength="188" x="89.5" y="877.9419">+33.287s (16:59:28.800.793)</text><path d="M405,841.1758 L405,866.1758 L514,866.1758 L514,851.1758 L504,841.1758 L405,841.1758 " fill="#CDDCF3" style="stroke: #FFFFFF; stroke-width: 1.0;"/><path d="M504,841.1758 L504,851.1758 L514,851.1758 L504,841.1758 " fill="#CDDCF3" style="stroke: #FFFFFF; stroke-width: 1.0;"/><text fill="#000000" font-family="sans-serif" font-size="13" font-weight="bold" lengthAdjust="spacingAndGlyphs" textLength="88" x="411" y="858.2427">AMF to gNB</text><polygon fill="#000000" points="388.5,923.2734,398.5,927.2734,388.5,931.2734,392.5,927.2734" style="stroke: #000000; stroke-width: 1.0;"/><line style="stroke: #000000; stroke-width: 1.0;" x1="72.5" x2="394.5" y1="927.2734" y2="927.2734"/><text fill="#000000" font-family="sans-serif" font-size="13" lengthAdjust="spacingAndGlyphs" textLength="286" x="79.5" y="907.0747">1049, NGAP PDUSessionResourceSetup (29)</text><text fill="#000000" font-family="sans-serif" font-size="13" lengthAdjust="spacingAndGlyphs" textLength="188" x="79.5" y="922.2075">+33.349s (16:59:28.862.732)</text><path d="M405,900.5742 L405,925.5742 L514,925.5742 L514,910.5742 L504,900.5742 L405,900.5742 " fill="#CDDCF3" style="stroke: #FFFFFF; stroke-width: 1.0;"/><path d="M504,900.5742 L504,910.5742 L514,910.5742 L504,900.5742 " fill="#CDDCF3" style="stroke: #FFFFFF; stroke-width: 1.0;"/><text fill="#000000" font-family="sans-serif" font-size="13" font-weight="bold" lengthAdjust="spacingAndGlyphs" textLength="88" x="411" y="917.6411">gNB to AMF</text><polygon fill="#000000" points="742.5,982.6719,752.5,986.6719,742.5,990.6719,746.5,986.6719" style="stroke: #000000; stroke-width: 1.0;"/><line style="stroke: #000000; stroke-width: 1.0;" x1="453.5" x2="748.5" y1="986.6719" y2="986.6719"/><text fill="#000000" font-family="sans-serif" font-size="13" lengthAdjust="spacingAndGlyphs" textLength="101" x="460.5" y="951.3403">1053, PFCP req.</text><text fill="#000000" font-family="sans-serif" font-size="13" lengthAdjust="spacingAndGlyphs" textLength="252" x="460.5" y="966.4731">PFCP Session Modification Request (52)</text><text fill="#000000" font-family="sans-serif" font-size="13" lengthAdjust="spacingAndGlyphs" textLength="188" x="460.5" y="981.606">+33.368s (16:59:28.881.385)</text><path d="M759,952.4063 L759,977.4063 L865,977.4063 L865,962.4063 L855,952.4063 L759,952.4063 " fill="#03B5AA" style="stroke: #FFFFFF; stroke-width: 1.0;"/><path d="M855,952.4063 L855,962.4063 L865,962.4063 L855,952.4063 " fill="#03B5AA" style="stroke: #FFFFFF; stroke-width: 1.0;"/><text fill="#000000" font-family="sans-serif" font-size="13" font-weight="bold" lengthAdjust="spacingAndGlyphs" textLength="85" x="765" y="969.4731">SMF to UPF</text><polygon fill="#000000" points="464.5,1042.0703,454.5,1046.0703,464.5,1050.0703,460.5,1046.0703" style="stroke: #000000; stroke-width: 1.0;"/><line style="stroke: #000000; stroke-width: 1.0;" x1="458.5" x2="753.5" y1="1046.0703" y2="1046.0703"/><text fill="#000000" font-family="sans-serif" font-size="13" lengthAdjust="spacingAndGlyphs" textLength="100" x="470.5" y="1010.7388">1054, PFCP rsp.</text><text fill="#000000" font-family="sans-serif" font-size="13" lengthAdjust="spacingAndGlyphs" textLength="262" x="470.5" y="1025.8716">PFCP Session Modification Response (53)</text><text fill="#000000" font-family="sans-serif" font-size="13" lengthAdjust="spacingAndGlyphs" textLength="188" x="470.5" y="1041.0044">+33.369s (16:59:28.882.398)</text><path d="M759,1011.8047 L759,1036.8047 L865,1036.8047 L865,1021.8047 L855,1011.8047 L759,1011.8047 " fill="#D7FEFC" style="stroke: #FFFFFF; stroke-width: 1.0;"/><path d="M855,1011.8047 L855,1021.8047 L865,1021.8047 L855,1011.8047 " fill="#D7FEFC" style="stroke: #FFFFFF; stroke-width: 1.0;"/><text fill="#000000" font-family="sans-serif" font-size="13" font-weight="bold" lengthAdjust="spacingAndGlyphs" textLength="85" x="765" y="1028.8716">UPF to SMF</text><polygon fill="#000000" points="742.5,1086.3359,752.5,1090.3359,742.5,1094.3359,746.5,1090.3359" style="stroke: #000000; stroke-width: 1.0;"/><line style="stroke: #000000; stroke-width: 1.0;" x1="72.5" x2="748.5" y1="1090.3359" y2="1090.3359"/><text fill="#000000" font-family="sans-serif" font-size="13" lengthAdjust="spacingAndGlyphs" textLength="178" x="79.5" y="1070.1372">1096, GTP&lt;ICMP&gt; ping req.</text><text fill="#000000" font-family="sans-serif" font-size="13" lengthAdjust="spacingAndGlyphs" textLength="188" x="79.5" y="1085.27">+36.644s (16:59:32.157.614)</text><path d="M759,1063.6367 L759,1088.6367 L865,1088.6367 L865,1073.6367 L855,1063.6367 L759,1063.6367 " fill="#5C8001" style="stroke: #FFFFFF; stroke-width: 1.0;"/><path d="M855,1063.6367 L855,1073.6367 L865,1073.6367 L855,1063.6367 " fill="#5C8001" style="stroke: #FFFFFF; stroke-width: 1.0;"/><text fill="#000000" font-family="sans-serif" font-size="13" font-weight="bold" lengthAdjust="spacingAndGlyphs" textLength="85" x="765" y="1080.7036">gNB to UPF</text><polygon fill="#000000" points="954.5,1130.6016,964.5,1134.6016,954.5,1138.6016,958.5,1134.6016" style="stroke: #000000; stroke-width: 1.0;"/><line style="stroke: #000000; stroke-width: 1.0;" x1="24.5" x2="960.5" y1="1134.6016" y2="1134.6016"/><text fill="#000000" font-family="sans-serif" font-size="13" lengthAdjust="spacingAndGlyphs" textLength="131" x="31.5" y="1114.4028">1097, ICMP ping req.</text><text fill="#000000" font-family="sans-serif" font-size="13" lengthAdjust="spacingAndGlyphs" textLength="188" x="31.5" y="1129.5356">+36.645s (16:59:32.158.259)</text><path d="M971,1107.9023 L971,1132.9023 L1087,1132.9023 L1087,1117.9023 L1077,1107.9023 L971,1107.9023 " fill="#5C8001" style="stroke: #FFFFFF; stroke-width: 1.0;"/><path d="M1077,1107.9023 L1077,1117.9023 L1087,1117.9023 L1077,1107.9023 " fill="#5C8001" style="stroke: #FFFFFF; stroke-width: 1.0;"/><text fill="#000000" font-family="sans-serif" font-size="13" font-weight="bold" lengthAdjust="spacingAndGlyphs" textLength="95" x="977" y="1124.9692">UE to 8.8.8.8</text><polygon fill="#000000" points="954.5,1174.8672,964.5,1178.8672,954.5,1182.8672,958.5,1178.8672" style="stroke: #000000; stroke-width: 1.0;"/><line style="stroke: #000000; stroke-width: 1.0;" x1="754.5" x2="960.5" y1="1178.8672" y2="1178.8672"/><text fill="#000000" font-family="sans-serif" font-size="13" lengthAdjust="spacingAndGlyphs" textLength="131" x="761.5" y="1158.6685">1098, ICMP ping req.</text><text fill="#000000" font-family="sans-serif" font-size="13" lengthAdjust="spacingAndGlyphs" textLength="188" x="761.5" y="1173.8013">+36.645s (16:59:32.158.298)</text><path d="M971,1152.168 L971,1177.168 L1097,1177.168 L1097,1162.168 L1087,1152.168 L971,1152.168 " fill="#5C8001" style="stroke: #FFFFFF; stroke-width: 1.0;"/><path d="M1087,1152.168 L1087,1162.168 L1097,1162.168 L1087,1152.168 " fill="#5C8001" style="stroke: #FFFFFF; stroke-width: 1.0;"/><text fill="#000000" font-family="sans-serif" font-size="13" font-weight="bold" lengthAdjust="spacingAndGlyphs" textLength="105" x="977" y="1169.2349">UPF to 8.8.8.8</text><polygon fill="#000000" points="765.5,1219.1328,755.5,1223.1328,765.5,1227.1328,761.5,1223.1328" style="stroke: #000000; stroke-width: 1.0;"/><line style="stroke: #000000; stroke-width: 1.0;" x1="759.5" x2="965.5" y1="1223.1328" y2="1223.1328"/><text fill="#000000" font-family="sans-serif" font-size="13" lengthAdjust="spacingAndGlyphs" textLength="130" x="771.5" y="1202.9341">1099, ICMP ping rsp.</text><text fill="#000000" font-family="sans-serif" font-size="13" lengthAdjust="spacingAndGlyphs" textLength="188" x="771.5" y="1218.0669">+36.690s (16:59:32.203.269)</text><path d="M971,1196.4336 L971,1221.4336 L1097,1221.4336 L1097,1206.4336 L1087,1196.4336 L971,1196.4336 " fill="#EDFEC2" style="stroke: #FFFFFF; stroke-width: 1.0;"/><path d="M1087,1196.4336 L1087,1206.4336 L1097,1206.4336 L1087,1196.4336 " fill="#EDFEC2" style="stroke: #FFFFFF; stroke-width: 1.0;"/><text fill="#000000" font-family="sans-serif" font-size="13" font-weight="bold" lengthAdjust="spacingAndGlyphs" textLength="105" x="977" y="1213.5005">8.8.8.8 to UPF</text><polygon fill="#000000" points="35.5,1263.3984,25.5,1267.3984,35.5,1271.3984,31.5,1267.3984" style="stroke: #000000; stroke-width: 1.0;"/><line style="stroke: #000000; stroke-width: 1.0;" x1="29.5" x2="965.5" y1="1267.3984" y2="1267.3984"/><text fill="#000000" font-family="sans-serif" font-size="13" lengthAdjust="spacingAndGlyphs" textLength="130" x="41.5" y="1247.1997">1100, ICMP ping rsp.</text><text fill="#000000" font-family="sans-serif" font-size="13" lengthAdjust="spacingAndGlyphs" textLength="188" x="41.5" y="1262.3325">+36.690s (16:59:32.203.298)</text><path d="M971,1240.6992 L971,1265.6992 L1087,1265.6992 L1087,1250.6992 L1077,1240.6992 L971,1240.6992 " fill="#EDFEC2" style="stroke: #FFFFFF; stroke-width: 1.0;"/><path d="M1077,1240.6992 L1077,1250.6992 L1087,1250.6992 L1077,1240.6992 " fill="#EDFEC2" style="stroke: #FFFFFF; stroke-width: 1.0;"/><text fill="#000000" font-family="sans-serif" font-size="13" font-weight="bold" lengthAdjust="spacingAndGlyphs" textLength="95" x="977" y="1257.7661">8.8.8.8 to UE</text><polygon fill="#000000" points="83.5,1307.6641,73.5,1311.6641,83.5,1315.6641,79.5,1311.6641" style="stroke: #000000; stroke-width: 1.0;"/><line style="stroke: #000000; stroke-width: 1.0;" x1="77.5" x2="753.5" y1="1311.6641" y2="1311.6641"/><text fill="#000000" font-family="sans-serif" font-size="13" lengthAdjust="spacingAndGlyphs" textLength="177" x="89.5" y="1291.4653">1101, GTP&lt;ICMP&gt; ping rsp.</text><text fill="#000000" font-family="sans-serif" font-size="13" lengthAdjust="spacingAndGlyphs" textLength="188" x="89.5" y="1306.5981">+36.690s (16:59:32.203.394)</text><path d="M759,1284.9648 L759,1309.9648 L865,1309.9648 L865,1294.9648 L855,1284.9648 L759,1284.9648 " fill="#EDFEC2" style="stroke: #FFFFFF; stroke-width: 1.0;"/><path d="M855,1284.9648 L855,1294.9648 L865,1294.9648 L855,1284.9648 " fill="#EDFEC2" style="stroke: #FFFFFF; stroke-width: 1.0;"/><text fill="#000000" font-family="sans-serif" font-size="13" font-weight="bold" lengthAdjust="spacingAndGlyphs" textLength="85" x="765" y="1302.0317">UPF to gNB</text><!--MD5=[c6b9e6c3938a70c4bc5187af8c26b42b]
@startuml
skinparam shadowing false
skinparam NoteBorderColor white
skinparam sequence {
    ArrowColor black
    LifeLineBorderColor black
    LifeLineBackgroundColor black
    ParticipantBorderColor white
    ParticipantBackgroundColor #e6e6e6
}
participant "UE"
participant "gNB"
participant "AMF"
participant "SMF"
participant "UPF"
participant "8.8.8.8"

"gNB" -> "AMF": 467, NGAP NGSetup (21)\n+21.421s (16:59:16.935.175)

note right #CDDCF3
**gNB to AMF**
end note

"AMF" -> "gNB": 469, NGAP NGSetup (21)\n+21.479s (16:59:16.992.589)

note right #CDDCF3
**AMF to gNB**
end note

"gNB" -> "AMF": 626, NGAP InitialUEMessage (15),\nNAS Registration request (0x41)\n+32.494s (16:59:28.7.789)

note right #285AA4
**gNB to AMF**
end note

"AMF" -> "gNB": 713, NGAP DownlinkNASTransport (4),\nNAS Authentication request (0x56)\n+32.692s (16:59:28.206.091)

note right #285AA4
**AMF to gNB**
end note

"gNB" -> "AMF": 714, NGAP UplinkNASTransport (46),\nNAS Authentication response (0x57)\n+32.697s (16:59:28.210.332)

note right #CDDCF3
**gNB to AMF**
end note

"AMF" -> "gNB": 742, NGAP DownlinkNASTransport (4),\nNAS Security mode command (0x5d)\n+32.730s (16:59:28.243.347)

note right #CDDCF3
**AMF to gNB**
end note

"gNB" -> "AMF": 743, NGAP UplinkNASTransport (46),\nNAS Security mode complete (0x5e),\nNAS Registration request (0x41)\n+32.731s (16:59:28.244.818)

note right #285AA4
**gNB to AMF**
end note

"AMF" -> "gNB": 859, NGAP InitialContextSetup (14),\nNAS Registration accept (0x42)\n+32.827s (16:59:28.340.548)

note right #CDDCF3
**AMF to gNB**
end note

"gNB" -> "AMF": 860, NGAP InitialContextSetup (14)\n+32.828s (16:59:28.342.092)

note right #CDDCF3
**gNB to AMF**
end note

"gNB" -> "AMF": 872, NGAP UplinkNASTransport (46),\nNAS Registration complete (0x43),\nNAS UL NAS transport (0x67),\nNAS PDU session establishment request (0xc1)\n+33.061s (16:59:28.574.793)

note right #285AA4
**gNB to AMF**
end note

"AMF" -> "gNB": 873, NGAP DownlinkNASTransport (4),\nNAS Configuration update command (0x54)\n+33.062s (16:59:28.575.511)

note right #CDDCF3
**AMF to gNB**
end note

"SMF" -> "UPF": 1015, PFCP req.\nPFCP Session Establishment Request (50)\n+33.174s (16:59:28.687.663)

note right #03B5AA
**SMF to UPF**
end note

"UPF" -> "SMF": 1021, PFCP rsp.\nPFCP Session Establishment Response (51)\n+33.259s (16:59:28.773.117)

note right #D7FEFC
**UPF to SMF**
end note

"AMF" -> "gNB": 1045, NGAP PDUSessionResourceSetup (29),\nNAS DL NAS transport (0x68),\nNAS PDU session establishment accept (0xc2)\n+33.287s (16:59:28.800.793)

note right #CDDCF3
**AMF to gNB**
end note

"gNB" -> "AMF": 1049, NGAP PDUSessionResourceSetup (29)\n+33.349s (16:59:28.862.732)

note right #CDDCF3
**gNB to AMF**
end note

"SMF" -> "UPF": 1053, PFCP req.\nPFCP Session Modification Request (52)\n+33.368s (16:59:28.881.385)

note right #03B5AA
**SMF to UPF**
end note

"UPF" -> "SMF": 1054, PFCP rsp.\nPFCP Session Modification Response (53)\n+33.369s (16:59:28.882.398)

note right #D7FEFC
**UPF to SMF**
end note

"gNB" -> "UPF": 1096, GTP<ICMP> ping req.\n+36.644s (16:59:32.157.614)

note right #5C8001
**gNB to UPF**
end note

"UE" -> "8.8.8.8": 1097, ICMP ping req.\n+36.645s (16:59:32.158.259)

note right #5C8001
**UE to 8.8.8.8**
end note

"UPF" -> "8.8.8.8": 1098, ICMP ping req.\n+36.645s (16:59:32.158.298)

note right #5C8001
**UPF to 8.8.8.8**
end note

"8.8.8.8" -> "UPF": 1099, ICMP ping rsp.\n+36.690s (16:59:32.203.269)

note right #EDFEC2
**8.8.8.8 to UPF**
end note

"8.8.8.8" -> "UE": 1100, ICMP ping rsp.\n+36.690s (16:59:32.203.298)

note right #EDFEC2
**8.8.8.8 to UE**
end note

"UPF" -> "gNB": 1101, GTP<ICMP> ping rsp.\n+36.690s (16:59:32.203.394)

note right #EDFEC2
**UPF to gNB**
end note

@enduml

PlantUML version 1.2019.12(Sun Nov 03 11:24:54 CET 2019)
(APACHE source distribution)
Java Runtime: OpenJDK Runtime Environment
JVM: OpenJDK 64-Bit Server VM
Java Version: 11.0.17+8-post-Ubuntu-1ubuntu220.04
Operating System: Linux
Default Encoding: UTF-8
Language: en
Country: US
--></g></svg>