<?xml version="1.0" encoding="UTF-8" standalone="no"?><svg xmlns="http://www.w3.org/2000/svg" xmlns:xlink="http://www.w3.org/1999/xlink" contentScriptType="application/ecmascript" contentStyleType="text/css" height="450px" preserveAspectRatio="none" style="width:832px;height:450px;" version="1.1" viewBox="0 0 832 450" width="832px" zoomAndPan="magnify"><defs/><g><line style="stroke: #000000; stroke-width: 1.0; stroke-dasharray: 5.0,5.0;" x1="29" x2="29" y1="34.2969" y2="410.6875"/><line style="stroke: #000000; stroke-width: 1.0; stroke-dasharray: 5.0,5.0;" x1="292" x2="292" y1="34.2969" y2="410.6875"/><line style="stroke: #000000; stroke-width: 1.0; stroke-dasharray: 5.0,5.0;" x1="351" x2="351" y1="34.2969" y2="410.6875"/><line style="stroke: #000000; stroke-width: 1.0; stroke-dasharray: 5.0,5.0;" x1="418" x2="418" y1="34.2969" y2="410.6875"/><line style="stroke: #000000; stroke-width: 1.0; stroke-dasharray: 5.0,5.0;" x1="681" x2="681" y1="34.2969" y2="410.6875"/><rect fill="#E6E6E6" height="30.2969" style="stroke: #FFFFFF; stroke-width: 1.5;" width="43" x="8" y="3"/><text fill="#000000" font-family="sans-serif" font-size="14" lengthAdjust="spacingAndGlyphs" textLength="29" x="15" y="22.9951">SMF</text><rect fill="#E6E6E6" height="30.2969" style="stroke: #FFFFFF; stroke-width: 1.5;" width="43" x="8" y="409.6875"/><text fill="#000000" font-family="sans-serif" font-size="14" lengthAdjust="spacingAndGlyphs" textLength="29" x="15" y="429.6826">SMF</text><rect fill="#E6E6E6" height="30.2969" style="stroke: #FFFFFF; stroke-width: 1.5;" width="41" x="272" y="3"/><text fill="#000000" font-family="sans-serif" font-size="14" lengthAdjust="spacingAndGlyphs" textLength="27" x="279" y="22.9951">UPF</text><rect fill="#E6E6E6" height="30.2969" style="stroke: #FFFFFF; stroke-width: 1.5;" width="41" x="272" y="409.6875"/><text fill="#000000" font-family="sans-serif" font-size="14" lengthAdjust="spacingAndGlyphs" textLength="27" x="279" y="429.6826">UPF</text><rect fill="#E6E6E6" height="30.2969" style="stroke: #FFFFFF; stroke-width: 1.5;" width="57" x="323" y="3"/><text fill="#000000" font-family="sans-serif" font-size="14" lengthAdjust="spacingAndGlyphs" textLength="43" x="330" y="22.9951">UPF_2</text><rect fill="#E6E6E6" height="30.2969" style="stroke: #FFFFFF; stroke-width: 1.5;" width="57" x="323" y="409.6875"/><text fill="#000000" font-family="sans-serif" font-size="14" lengthAdjust="spacingAndGlyphs" textLength="43" x="330" y="429.6826">UPF_2</text><rect fill="#E6E6E6" height="30.2969" style="stroke: #FFFFFF; stroke-width: 1.5;" width="57" x="390" y="3"/><text fill="#000000" font-family="sans-serif" font-size="14" lengthAdjust="spacingAndGlyphs" textLength="43" x="397" y="22.9951">SGWU</text><rect fill="#E6E6E6" height="30.2969" style="stroke: #FFFFFF; stroke-width: 1.5;" width="57" x="390" y="409.6875"/><text fill="#000000" font-family="sans-serif" font-size="14" lengthAdjust="spacingAndGlyphs" textLength="43" x="397" y="429.6826">SGWU</text><rect fill="#E6E6E6" height="30.2969" style="stroke: #FFFFFF; stroke-width: 1.5;" width="57" x="653" y="3"/><text fill="#000000" font-family="sans-serif" font-size="14" lengthAdjust="spacingAndGlyphs" textLength="43" x="660" y="22.9951">SGWC</text><rect fill="#E6E6E6" height="30.2969" style="stroke: #FFFFFF; stroke-width: 1.5;" width="57" x="653" y="409.6875"/><text fill="#000000" font-family="sans-serif" font-size="14" lengthAdjust="spacingAndGlyphs" textLength="43" x="660" y="429.6826">SGWC</text><polygon fill="#000000" points="429.5,91.6953,419.5,95.6953,429.5,99.6953,425.5,95.6953" style="stroke: #000000; stroke-width: 1.0;"/><line style="stroke: #000000; stroke-width: 1.0;" x1="423.5" x2="680.5" y1="95.6953" y2="95.6953"/><text fill="#000000" font-family="sans-serif" font-size="13" lengthAdjust="spacingAndGlyphs" textLength="93" x="435.5" y="60.3638">155, PFCP req.</text><text fill="#000000" font-family="sans-serif" font-size="13" lengthAdjust="spacingAndGlyphs" textLength="229" x="435.5" y="75.4966">PFCP Association Setup Request (5)</text><text fill="#000000" font-family="sans-serif" font-size="13" lengthAdjust="spacingAndGlyphs" textLength="180" x="435.5" y="90.6294">+2.506s (15:15:54.525.612)</text><path d="M686,61.4297 L686,86.4297 L820,86.4297 L820,71.4297 L810,61.4297 L686,61.4297 " fill="#03B5AA" style="stroke: #FFFFFF; stroke-width: 1.0;"/><path d="M810,61.4297 L810,71.4297 L820,71.4297 L810,61.4297 " fill="#03B5AA" style="stroke: #FFFFFF; stroke-width: 1.0;"/><text fill="#000000" font-family="sans-serif" font-size="13" font-weight="bold" lengthAdjust="spacingAndGlyphs" textLength="113" x="692" y="78.4966">SGWC to SGWU</text><polygon fill="#000000" points="669.5,151.0938,679.5,155.0938,669.5,159.0938,673.5,155.0938" style="stroke: #000000; stroke-width: 1.0;"/><line style="stroke: #000000; stroke-width: 1.0;" x1="418.5" x2="675.5" y1="155.0938" y2="155.0938"/><text fill="#000000" font-family="sans-serif" font-size="13" lengthAdjust="spacingAndGlyphs" textLength="92" x="425.5" y="119.7622">156, PFCP rsp.</text><text fill="#000000" font-family="sans-serif" font-size="13" lengthAdjust="spacingAndGlyphs" textLength="239" x="425.5" y="134.895">PFCP Association Setup Response (6)</text><text fill="#000000" font-family="sans-serif" font-size="13" lengthAdjust="spacingAndGlyphs" textLength="180" x="425.5" y="150.0278">+2.511s (15:15:54.530.106)</text><path d="M686,120.8281 L686,145.8281 L820,145.8281 L820,130.8281 L810,120.8281 L686,120.8281 " fill="#D7FEFC" style="stroke: #FFFFFF; stroke-width: 1.0;"/><path d="M810,120.8281 L810,130.8281 L820,130.8281 L810,120.8281 " fill="#D7FEFC" style="stroke: #FFFFFF; stroke-width: 1.0;"/><text fill="#000000" font-family="sans-serif" font-size="13" font-weight="bold" lengthAdjust="spacingAndGlyphs" textLength="113" x="692" y="137.895">SGWU to SGWC</text><polygon fill="#000000" points="280.5,210.4922,290.5,214.4922,280.5,218.4922,284.5,214.4922" style="stroke: #000000; stroke-width: 1.0;"/><line style="stroke: #000000; stroke-width: 1.0;" x1="29.5" x2="286.5" y1="214.4922" y2="214.4922"/><text fill="#000000" font-family="sans-serif" font-size="13" lengthAdjust="spacingAndGlyphs" textLength="93" x="36.5" y="179.1606">646, PFCP req.</text><text fill="#000000" font-family="sans-serif" font-size="13" lengthAdjust="spacingAndGlyphs" textLength="229" x="36.5" y="194.2935">PFCP Association Setup Request (5)</text><text fill="#000000" font-family="sans-serif" font-size="13" lengthAdjust="spacingAndGlyphs" textLength="180" x="36.5" y="209.4263">+5.819s (15:15:57.838.658)</text><path d="M297,180.2266 L297,205.2266 L403,205.2266 L403,190.2266 L393,180.2266 L297,180.2266 " fill="#03B5AA" style="stroke: #FFFFFF; stroke-width: 1.0;"/><path d="M393,180.2266 L393,190.2266 L403,190.2266 L393,180.2266 " fill="#03B5AA" style="stroke: #FFFFFF; stroke-width: 1.0;"/><text fill="#000000" font-family="sans-serif" font-size="13" font-weight="bold" lengthAdjust="spacingAndGlyphs" textLength="85" x="303" y="197.2935">SMF to UPF</text><polygon fill="#000000" points="40.5,269.8906,30.5,273.8906,40.5,277.8906,36.5,273.8906" style="stroke: #000000; stroke-width: 1.0;"/><line style="stroke: #000000; stroke-width: 1.0;" x1="34.5" x2="291.5" y1="273.8906" y2="273.8906"/><text fill="#000000" font-family="sans-serif" font-size="13" lengthAdjust="spacingAndGlyphs" textLength="92" x="46.5" y="238.5591">647, PFCP rsp.</text><text fill="#000000" font-family="sans-serif" font-size="13" lengthAdjust="spacingAndGlyphs" textLength="239" x="46.5" y="253.6919">PFCP Association Setup Response (6)</text><text fill="#000000" font-family="sans-serif" font-size="13" lengthAdjust="spacingAndGlyphs" textLength="180" x="46.5" y="268.8247">+5.820s (15:15:57.839.267)</text><path d="M297,239.625 L297,264.625 L403,264.625 L403,249.625 L393,239.625 L297,239.625 " fill="#D7FEFC" style="stroke: #FFFFFF; stroke-width: 1.0;"/><path d="M393,239.625 L393,249.625 L403,249.625 L393,239.625 " fill="#D7FEFC" style="stroke: #FFFFFF; stroke-width: 1.0;"/><text fill="#000000" font-family="sans-serif" font-size="13" font-weight="bold" lengthAdjust="spacingAndGlyphs" textLength="85" x="303" y="256.6919">UPF to SMF</text><polygon fill="#000000" points="339.5,329.2891,349.5,333.2891,339.5,337.2891,343.5,333.2891" style="stroke: #000000; stroke-width: 1.0;"/><line style="stroke: #000000; stroke-width: 1.0;" x1="29.5" x2="345.5" y1="333.2891" y2="333.2891"/><text fill="#000000" font-family="sans-serif" font-size="13" lengthAdjust="spacingAndGlyphs" textLength="93" x="36.5" y="297.9575">714, PFCP req.</text><text fill="#000000" font-family="sans-serif" font-size="13" lengthAdjust="spacingAndGlyphs" textLength="229" x="36.5" y="313.0903">PFCP Association Setup Request (5)</text><text fill="#000000" font-family="sans-serif" font-size="13" lengthAdjust="spacingAndGlyphs" textLength="180" x="36.5" y="328.2231">+11.795s (15:16:3.814.715)</text><path d="M356,299.0234 L356,324.0234 L478,324.0234 L478,309.0234 L468,299.0234 L356,299.0234 " fill="#03B5AA" style="stroke: #FFFFFF; stroke-width: 1.0;"/><path d="M468,299.0234 L468,309.0234 L478,309.0234 L468,299.0234 " fill="#03B5AA" style="stroke: #FFFFFF; stroke-width: 1.0;"/><text fill="#000000" font-family="sans-serif" font-size="13" font-weight="bold" lengthAdjust="spacingAndGlyphs" textLength="101" x="362" y="316.0903">SMF to UPF_2</text><polygon fill="#000000" points="40.5,388.6875,30.5,392.6875,40.5,396.6875,36.5,392.6875" style="stroke: #000000; stroke-width: 1.0;"/><line style="stroke: #000000; stroke-width: 1.0;" x1="34.5" x2="350.5" y1="392.6875" y2="392.6875"/><text fill="#000000" font-family="sans-serif" font-size="13" lengthAdjust="spacingAndGlyphs" textLength="92" x="46.5" y="357.356">715, PFCP rsp.</text><text fill="#000000" font-family="sans-serif" font-size="13" lengthAdjust="spacingAndGlyphs" textLength="239" x="46.5" y="372.4888">PFCP Association Setup Response (6)</text><text fill="#000000" font-family="sans-serif" font-size="13" lengthAdjust="spacingAndGlyphs" textLength="180" x="46.5" y="387.6216">+11.797s (15:16:3.816.355)</text><path d="M356,358.4219 L356,383.4219 L478,383.4219 L478,368.4219 L468,358.4219 L356,358.4219 " fill="#D7FEFC" style="stroke: #FFFFFF; stroke-width: 1.0;"/><path d="M468,358.4219 L468,368.4219 L478,368.4219 L468,358.4219 " fill="#D7FEFC" style="stroke: #FFFFFF; stroke-width: 1.0;"/><text fill="#000000" font-family="sans-serif" font-size="13" font-weight="bold" lengthAdjust="spacingAndGlyphs" textLength="101" x="362" y="375.4888">UPF_2 to SMF</text><!--MD5=[f2ba608ac4c664909760d0d0cb7d0cd0]
@startuml
skinparam shadowing false
skinparam NoteBorderColor white
skinparam sequence {
    ArrowColor black
    LifeLineBorderColor black
    LifeLineBackgroundColor black
    ParticipantBorderColor white
    ParticipantBackgroundColor #e6e6e6
}
participant "SMF"
participant "UPF"
participant "UPF_2"
participant "SGWU"
participant "SGWC"

"SGWC" -> "SGWU": 155, PFCP req.\nPFCP Association Setup Request (5)\n+2.506s (15:15:54.525.612)

note right #03B5AA
**SGWC to SGWU**
end note

"SGWU" -> "SGWC": 156, PFCP rsp.\nPFCP Association Setup Response (6)\n+2.511s (15:15:54.530.106)

note right #D7FEFC
**SGWU to SGWC**
end note

"SMF" -> "UPF": 646, PFCP req.\nPFCP Association Setup Request (5)\n+5.819s (15:15:57.838.658)

note right #03B5AA
**SMF to UPF**
end note

"UPF" -> "SMF": 647, PFCP rsp.\nPFCP Association Setup Response (6)\n+5.820s (15:15:57.839.267)

note right #D7FEFC
**UPF to SMF**
end note

"SMF" -> "UPF_2": 714, PFCP req.\nPFCP Association Setup Request (5)\n+11.795s (15:16:3.814.715)

note right #03B5AA
**SMF to UPF_2**
end note

"UPF_2" -> "SMF": 715, PFCP rsp.\nPFCP Association Setup Response (6)\n+11.797s (15:16:3.816.355)

note right #D7FEFC
**UPF_2 to SMF**
end note

@enduml

PlantUML version 1.2019.12(Sun Nov 03 11:24:54 CET 2019)
(APACHE source distribution)
Java Runtime: OpenJDK Runtime Environment
JVM: OpenJDK 64-Bit Server VM
Java Version: 11.0.18+10-post-Ubuntu-0ubuntu120.04.1
Operating System: Linux
Default Encoding: UTF-8
Language: en
Country: US
--></g></svg>