<?xml version="1.0" encoding="UTF-8" standalone="no"?><svg xmlns="http://www.w3.org/2000/svg" xmlns:xlink="http://www.w3.org/1999/xlink" contentScriptType="application/ecmascript" contentStyleType="text/css" height="629px" preserveAspectRatio="none" style="width:832px;height:629px;" version="1.1" viewBox="0 0 832 629" width="832px" zoomAndPan="magnify"><defs/><g><line style="stroke: #000000; stroke-width: 1.0; stroke-dasharray: 5.0,5.0;" x1="29" x2="29" y1="34.2969" y2="588.8828"/><line style="stroke: #000000; stroke-width: 1.0; stroke-dasharray: 5.0,5.0;" x1="292" x2="292" y1="34.2969" y2="588.8828"/><line style="stroke: #000000; stroke-width: 1.0; stroke-dasharray: 5.0,5.0;" x1="351" x2="351" y1="34.2969" y2="588.8828"/><line style="stroke: #000000; stroke-width: 1.0; stroke-dasharray: 5.0,5.0;" x1="418" x2="418" y1="34.2969" y2="588.8828"/><line style="stroke: #000000; stroke-width: 1.0; stroke-dasharray: 5.0,5.0;" x1="681" x2="681" y1="34.2969" y2="588.8828"/><rect fill="#E6E6E6" height="30.2969" style="stroke: #FFFFFF; stroke-width: 1.5;" width="43" x="8" y="3"/><text fill="#000000" font-family="sans-serif" font-size="14" lengthAdjust="spacingAndGlyphs" textLength="29" x="15" y="22.9951">SMF</text><rect fill="#E6E6E6" height="30.2969" style="stroke: #FFFFFF; stroke-width: 1.5;" width="43" x="8" y="587.8828"/><text fill="#000000" font-family="sans-serif" font-size="14" lengthAdjust="spacingAndGlyphs" textLength="29" x="15" y="607.8779">SMF</text><rect fill="#E6E6E6" height="30.2969" style="stroke: #FFFFFF; stroke-width: 1.5;" width="41" x="272" y="3"/><text fill="#000000" font-family="sans-serif" font-size="14" lengthAdjust="spacingAndGlyphs" textLength="27" x="279" y="22.9951">UPF</text><rect fill="#E6E6E6" height="30.2969" style="stroke: #FFFFFF; stroke-width: 1.5;" width="41" x="272" y="587.8828"/><text fill="#000000" font-family="sans-serif" font-size="14" lengthAdjust="spacingAndGlyphs" textLength="27" x="279" y="607.8779">UPF</text><rect fill="#E6E6E6" height="30.2969" style="stroke: #FFFFFF; stroke-width: 1.5;" width="57" x="323" y="3"/><text fill="#000000" font-family="sans-serif" font-size="14" lengthAdjust="spacingAndGlyphs" textLength="43" x="330" y="22.9951">UPF_2</text><rect fill="#E6E6E6" height="30.2969" style="stroke: #FFFFFF; stroke-width: 1.5;" width="57" x="323" y="587.8828"/><text fill="#000000" font-family="sans-serif" font-size="14" lengthAdjust="spacingAndGlyphs" textLength="43" x="330" y="607.8779">UPF_2</text><rect fill="#E6E6E6" height="30.2969" style="stroke: #FFFFFF; stroke-width: 1.5;" width="57" x="390" y="3"/><text fill="#000000" font-family="sans-serif" font-size="14" lengthAdjust="spacingAndGlyphs" textLength="43" x="397" y="22.9951">SGWU</text><rect fill="#E6E6E6" height="30.2969" style="stroke: #FFFFFF; stroke-width: 1.5;" width="57" x="390" y="587.8828"/><text fill="#000000" font-family="sans-serif" font-size="14" lengthAdjust="spacingAndGlyphs" textLength="43" x="397" y="607.8779">SGWU</text><rect fill="#E6E6E6" height="30.2969" style="stroke: #FFFFFF; stroke-width: 1.5;" width="57" x="653" y="3"/><text fill="#000000" font-family="sans-serif" font-size="14" lengthAdjust="spacingAndGlyphs" textLength="43" x="660" y="22.9951">SGWC</text><rect fill="#E6E6E6" height="30.2969" style="stroke: #FFFFFF; stroke-width: 1.5;" width="57" x="653" y="587.8828"/><text fill="#000000" font-family="sans-serif" font-size="14" lengthAdjust="spacingAndGlyphs" textLength="43" x="660" y="607.8779">SGWC</text><polygon fill="#000000" points="429.5,91.6953,419.5,95.6953,429.5,99.6953,425.5,95.6953" style="stroke: #000000; stroke-width: 1.0;"/><line style="stroke: #000000; stroke-width: 1.0;" x1="423.5" x2="680.5" y1="95.6953" y2="95.6953"/><text fill="#000000" font-family="sans-serif" font-size="13" lengthAdjust="spacingAndGlyphs" textLength="85" x="435.5" y="60.3638">14, PFCP req.</text><text fill="#000000" font-family="sans-serif" font-size="13" lengthAdjust="spacingAndGlyphs" textLength="229" x="435.5" y="75.4966">PFCP Association Setup Request (5)</text><text fill="#000000" font-family="sans-serif" font-size="13" lengthAdjust="spacingAndGlyphs" textLength="172" x="435.5" y="90.6294">+0.000s (15:15:52.19.527)</text><path d="M686,61.4297 L686,86.4297 L820,86.4297 L820,71.4297 L810,61.4297 L686,61.4297 " fill="#03B5AA" style="stroke: #FFFFFF; stroke-width: 1.0;"/><path d="M810,61.4297 L810,71.4297 L820,71.4297 L810,61.4297 " fill="#03B5AA" style="stroke: #FFFFFF; stroke-width: 1.0;"/><text fill="#000000" font-family="sans-serif" font-size="13" font-weight="bold" lengthAdjust="spacingAndGlyphs" textLength="113" x="692" y="78.4966">SGWC to SGWU</text><polygon fill="#000000" points="280.5,151.0938,290.5,155.0938,280.5,159.0938,284.5,155.0938" style="stroke: #000000; stroke-width: 1.0;"/><line style="stroke: #000000; stroke-width: 1.0;" x1="29.5" x2="286.5" y1="155.0938" y2="155.0938"/><text fill="#000000" font-family="sans-serif" font-size="13" lengthAdjust="spacingAndGlyphs" textLength="85" x="36.5" y="119.7622">29, PFCP req.</text><text fill="#000000" font-family="sans-serif" font-size="13" lengthAdjust="spacingAndGlyphs" textLength="229" x="36.5" y="134.895">PFCP Association Setup Request (5)</text><text fill="#000000" font-family="sans-serif" font-size="13" lengthAdjust="spacingAndGlyphs" textLength="180" x="36.5" y="150.0278">+0.807s (15:15:52.826.673)</text><path d="M297,120.8281 L297,145.8281 L403,145.8281 L403,130.8281 L393,120.8281 L297,120.8281 " fill="#03B5AA" style="stroke: #FFFFFF; stroke-width: 1.0;"/><path d="M393,120.8281 L393,130.8281 L403,130.8281 L393,120.8281 " fill="#03B5AA" style="stroke: #FFFFFF; stroke-width: 1.0;"/><text fill="#000000" font-family="sans-serif" font-size="13" font-weight="bold" lengthAdjust="spacingAndGlyphs" textLength="85" x="303" y="137.895">SMF to UPF</text><polygon fill="#000000" points="429.5,210.4922,419.5,214.4922,429.5,218.4922,425.5,214.4922" style="stroke: #000000; stroke-width: 1.0;"/><line style="stroke: #000000; stroke-width: 1.0;" x1="423.5" x2="680.5" y1="214.4922" y2="214.4922"/><text fill="#000000" font-family="sans-serif" font-size="13" lengthAdjust="spacingAndGlyphs" textLength="93" x="435.5" y="179.1606">155, PFCP req.</text><text fill="#000000" font-family="sans-serif" font-size="13" lengthAdjust="spacingAndGlyphs" textLength="229" x="435.5" y="194.2935">PFCP Association Setup Request (5)</text><text fill="#000000" font-family="sans-serif" font-size="13" lengthAdjust="spacingAndGlyphs" textLength="180" x="435.5" y="209.4263">+2.506s (15:15:54.525.612)</text><path d="M686,180.2266 L686,205.2266 L820,205.2266 L820,190.2266 L810,180.2266 L686,180.2266 " fill="#03B5AA" style="stroke: #FFFFFF; stroke-width: 1.0;"/><path d="M810,180.2266 L810,190.2266 L820,190.2266 L810,180.2266 " fill="#03B5AA" style="stroke: #FFFFFF; stroke-width: 1.0;"/><text fill="#000000" font-family="sans-serif" font-size="13" font-weight="bold" lengthAdjust="spacingAndGlyphs" textLength="113" x="692" y="197.2935">SGWC to SGWU</text><polygon fill="#000000" points="669.5,269.8906,679.5,273.8906,669.5,277.8906,673.5,273.8906" style="stroke: #000000; stroke-width: 1.0;"/><line style="stroke: #000000; stroke-width: 1.0;" x1="418.5" x2="675.5" y1="273.8906" y2="273.8906"/><text fill="#000000" font-family="sans-serif" font-size="13" lengthAdjust="spacingAndGlyphs" textLength="92" x="425.5" y="238.5591">156, PFCP rsp.</text><text fill="#000000" font-family="sans-serif" font-size="13" lengthAdjust="spacingAndGlyphs" textLength="239" x="425.5" y="253.6919">PFCP Association Setup Response (6)</text><text fill="#000000" font-family="sans-serif" font-size="13" lengthAdjust="spacingAndGlyphs" textLength="180" x="425.5" y="268.8247">+2.511s (15:15:54.530.106)</text><path d="M686,239.625 L686,264.625 L820,264.625 L820,249.625 L810,239.625 L686,239.625 " fill="#D7FEFC" style="stroke: #FFFFFF; stroke-width: 1.0;"/><path d="M810,239.625 L810,249.625 L820,249.625 L810,239.625 " fill="#D7FEFC" style="stroke: #FFFFFF; stroke-width: 1.0;"/><text fill="#000000" font-family="sans-serif" font-size="13" font-weight="bold" lengthAdjust="spacingAndGlyphs" textLength="113" x="692" y="256.6919">SGWU to SGWC</text><polygon fill="#000000" points="280.5,329.2891,290.5,333.2891,280.5,337.2891,284.5,333.2891" style="stroke: #000000; stroke-width: 1.0;"/><line style="stroke: #000000; stroke-width: 1.0;" x1="29.5" x2="286.5" y1="333.2891" y2="333.2891"/><text fill="#000000" font-family="sans-serif" font-size="13" lengthAdjust="spacingAndGlyphs" textLength="93" x="36.5" y="297.9575">221, PFCP req.</text><text fill="#000000" font-family="sans-serif" font-size="13" lengthAdjust="spacingAndGlyphs" textLength="229" x="36.5" y="313.0903">PFCP Association Setup Request (5)</text><text fill="#000000" font-family="sans-serif" font-size="13" lengthAdjust="spacingAndGlyphs" textLength="180" x="36.5" y="328.2231">+3.316s (15:15:55.335.612)</text><path d="M297,299.0234 L297,324.0234 L403,324.0234 L403,309.0234 L393,299.0234 L297,299.0234 " fill="#03B5AA" style="stroke: #FFFFFF; stroke-width: 1.0;"/><path d="M393,299.0234 L393,309.0234 L403,309.0234 L393,299.0234 " fill="#03B5AA" style="stroke: #FFFFFF; stroke-width: 1.0;"/><text fill="#000000" font-family="sans-serif" font-size="13" font-weight="bold" lengthAdjust="spacingAndGlyphs" textLength="85" x="303" y="316.0903">SMF to UPF</text><polygon fill="#000000" points="280.5,388.6875,290.5,392.6875,280.5,396.6875,284.5,392.6875" style="stroke: #000000; stroke-width: 1.0;"/><line style="stroke: #000000; stroke-width: 1.0;" x1="29.5" x2="286.5" y1="392.6875" y2="392.6875"/><text fill="#000000" font-family="sans-serif" font-size="13" lengthAdjust="spacingAndGlyphs" textLength="93" x="36.5" y="357.356">646, PFCP req.</text><text fill="#000000" font-family="sans-serif" font-size="13" lengthAdjust="spacingAndGlyphs" textLength="229" x="36.5" y="372.4888">PFCP Association Setup Request (5)</text><text fill="#000000" font-family="sans-serif" font-size="13" lengthAdjust="spacingAndGlyphs" textLength="180" x="36.5" y="387.6216">+5.819s (15:15:57.838.658)</text><path d="M297,358.4219 L297,383.4219 L403,383.4219 L403,368.4219 L393,358.4219 L297,358.4219 " fill="#03B5AA" style="stroke: #FFFFFF; stroke-width: 1.0;"/><path d="M393,358.4219 L393,368.4219 L403,368.4219 L393,358.4219 " fill="#03B5AA" style="stroke: #FFFFFF; stroke-width: 1.0;"/><text fill="#000000" font-family="sans-serif" font-size="13" font-weight="bold" lengthAdjust="spacingAndGlyphs" textLength="85" x="303" y="375.4888">SMF to UPF</text><polygon fill="#000000" points="40.5,448.0859,30.5,452.0859,40.5,456.0859,36.5,452.0859" style="stroke: #000000; stroke-width: 1.0;"/><line style="stroke: #000000; stroke-width: 1.0;" x1="34.5" x2="291.5" y1="452.0859" y2="452.0859"/><text fill="#000000" font-family="sans-serif" font-size="13" lengthAdjust="spacingAndGlyphs" textLength="92" x="46.5" y="416.7544">647, PFCP rsp.</text><text fill="#000000" font-family="sans-serif" font-size="13" lengthAdjust="spacingAndGlyphs" textLength="239" x="46.5" y="431.8872">PFCP Association Setup Response (6)</text><text fill="#000000" font-family="sans-serif" font-size="13" lengthAdjust="spacingAndGlyphs" textLength="180" x="46.5" y="447.02">+5.820s (15:15:57.839.267)</text><path d="M297,417.8203 L297,442.8203 L403,442.8203 L403,427.8203 L393,417.8203 L297,417.8203 " fill="#D7FEFC" style="stroke: #FFFFFF; stroke-width: 1.0;"/><path d="M393,417.8203 L393,427.8203 L403,427.8203 L393,417.8203 " fill="#D7FEFC" style="stroke: #FFFFFF; stroke-width: 1.0;"/><text fill="#000000" font-family="sans-serif" font-size="13" font-weight="bold" lengthAdjust="spacingAndGlyphs" textLength="85" x="303" y="434.8872">UPF to SMF</text><polygon fill="#000000" points="339.5,507.4844,349.5,511.4844,339.5,515.4844,343.5,511.4844" style="stroke: #000000; stroke-width: 1.0;"/><line style="stroke: #000000; stroke-width: 1.0;" x1="29.5" x2="345.5" y1="511.4844" y2="511.4844"/><text fill="#000000" font-family="sans-serif" font-size="13" lengthAdjust="spacingAndGlyphs" textLength="93" x="36.5" y="476.1528">714, PFCP req.</text><text fill="#000000" font-family="sans-serif" font-size="13" lengthAdjust="spacingAndGlyphs" textLength="229" x="36.5" y="491.2856">PFCP Association Setup Request (5)</text><text fill="#000000" font-family="sans-serif" font-size="13" lengthAdjust="spacingAndGlyphs" textLength="180" x="36.5" y="506.4185">+11.795s (15:16:3.814.715)</text><path d="M356,477.2188 L356,502.2188 L478,502.2188 L478,487.2188 L468,477.2188 L356,477.2188 " fill="#03B5AA" style="stroke: #FFFFFF; stroke-width: 1.0;"/><path d="M468,477.2188 L468,487.2188 L478,487.2188 L468,477.2188 " fill="#03B5AA" style="stroke: #FFFFFF; stroke-width: 1.0;"/><text fill="#000000" font-family="sans-serif" font-size="13" font-weight="bold" lengthAdjust="spacingAndGlyphs" textLength="101" x="362" y="494.2856">SMF to UPF_2</text><polygon fill="#000000" points="40.5,566.8828,30.5,570.8828,40.5,574.8828,36.5,570.8828" style="stroke: #000000; stroke-width: 1.0;"/><line style="stroke: #000000; stroke-width: 1.0;" x1="34.5" x2="350.5" y1="570.8828" y2="570.8828"/><text fill="#000000" font-family="sans-serif" font-size="13" lengthAdjust="spacingAndGlyphs" textLength="92" x="46.5" y="535.5513">715, PFCP rsp.</text><text fill="#000000" font-family="sans-serif" font-size="13" lengthAdjust="spacingAndGlyphs" textLength="239" x="46.5" y="550.6841">PFCP Association Setup Response (6)</text><text fill="#000000" font-family="sans-serif" font-size="13" lengthAdjust="spacingAndGlyphs" textLength="180" x="46.5" y="565.8169">+11.797s (15:16:3.816.355)</text><path d="M356,536.6172 L356,561.6172 L478,561.6172 L478,546.6172 L468,536.6172 L356,536.6172 " fill="#D7FEFC" style="stroke: #FFFFFF; stroke-width: 1.0;"/><path d="M468,536.6172 L468,546.6172 L478,546.6172 L468,536.6172 " fill="#D7FEFC" style="stroke: #FFFFFF; stroke-width: 1.0;"/><text fill="#000000" font-family="sans-serif" font-size="13" font-weight="bold" lengthAdjust="spacingAndGlyphs" textLength="101" x="362" y="553.6841">UPF_2 to SMF</text><!--MD5=[f02bde963460dadcb19edfcaa35968f0]
@startuml
skinparam shadowing false
skinparam NoteBorderColor white
skinparam sequence {
    ArrowColor black
    LifeLineBorderColor black
    LifeLineBackgroundColor black
    ParticipantBorderColor white
    ParticipantBackgroundColor #e6e6e6
}
participant "SMF"
participant "UPF"
participant "UPF_2"
participant "SGWU"
participant "SGWC"

"SGWC" -> "SGWU": 14, PFCP req.\nPFCP Association Setup Request (5)\n+0.000s (15:15:52.19.527)

note right #03B5AA
**SGWC to SGWU**
end note

"SMF" -> "UPF": 29, PFCP req.\nPFCP Association Setup Request (5)\n+0.807s (15:15:52.826.673)

note right #03B5AA
**SMF to UPF**
end note

"SGWC" -> "SGWU": 155, PFCP req.\nPFCP Association Setup Request (5)\n+2.506s (15:15:54.525.612)

note right #03B5AA
**SGWC to SGWU**
end note

"SGWU" -> "SGWC": 156, PFCP rsp.\nPFCP Association Setup Response (6)\n+2.511s (15:15:54.530.106)

note right #D7FEFC
**SGWU to SGWC**
end note

"SMF" -> "UPF": 221, PFCP req.\nPFCP Association Setup Request (5)\n+3.316s (15:15:55.335.612)

note right #03B5AA
**SMF to UPF**
end note

"SMF" -> "UPF": 646, PFCP req.\nPFCP Association Setup Request (5)\n+5.819s (15:15:57.838.658)

note right #03B5AA
**SMF to UPF**
end note

"UPF" -> "SMF": 647, PFCP rsp.\nPFCP Association Setup Response (6)\n+5.820s (15:15:57.839.267)

note right #D7FEFC
**UPF to SMF**
end note

"SMF" -> "UPF_2": 714, PFCP req.\nPFCP Association Setup Request (5)\n+11.795s (15:16:3.814.715)

note right #03B5AA
**SMF to UPF_2**
end note

"UPF_2" -> "SMF": 715, PFCP rsp.\nPFCP Association Setup Response (6)\n+11.797s (15:16:3.816.355)

note right #D7FEFC
**UPF_2 to SMF**
end note

@enduml

PlantUML version 1.2019.12(Sun Nov 03 11:24:54 CET 2019)
(APACHE source distribution)
Java Runtime: OpenJDK Runtime Environment
JVM: OpenJDK 64-Bit Server VM
Java Version: 11.0.17+8-post-Ubuntu-1ubuntu220.04
Operating System: Linux
Default Encoding: UTF-8
Language: en
Country: US
--></g></svg>