<?xml version="1.0" encoding="UTF-8" standalone="no"?><svg xmlns="http://www.w3.org/2000/svg" xmlns:xlink="http://www.w3.org/1999/xlink" contentScriptType="application/ecmascript" contentStyleType="text/css" height="360px" preserveAspectRatio="none" style="width:832px;height:360px;" version="1.1" viewBox="0 0 832 360" width="832px" zoomAndPan="magnify"><defs/><g><line style="stroke: #000000; stroke-width: 1.0; stroke-dasharray: 5.0,5.0;" x1="29" x2="29" y1="34.2969" y2="319.8906"/><line style="stroke: #000000; stroke-width: 1.0; stroke-dasharray: 5.0,5.0;" x1="292" x2="292" y1="34.2969" y2="319.8906"/><line style="stroke: #000000; stroke-width: 1.0; stroke-dasharray: 5.0,5.0;" x1="351" x2="351" y1="34.2969" y2="319.8906"/><line style="stroke: #000000; stroke-width: 1.0; stroke-dasharray: 5.0,5.0;" x1="418" x2="418" y1="34.2969" y2="319.8906"/><line style="stroke: #000000; stroke-width: 1.0; stroke-dasharray: 5.0,5.0;" x1="681" x2="681" y1="34.2969" y2="319.8906"/><rect fill="#E6E6E6" height="30.2969" style="stroke: #FFFFFF; stroke-width: 1.5;" width="43" x="8" y="3"/><text fill="#000000" font-family="sans-serif" font-size="14" lengthAdjust="spacingAndGlyphs" textLength="29" x="15" y="22.9951">SMF</text><rect fill="#E6E6E6" height="30.2969" style="stroke: #FFFFFF; stroke-width: 1.5;" width="43" x="8" y="318.8906"/><text fill="#000000" font-family="sans-serif" font-size="14" lengthAdjust="spacingAndGlyphs" textLength="29" x="15" y="338.8857">SMF</text><rect fill="#E6E6E6" height="30.2969" style="stroke: #FFFFFF; stroke-width: 1.5;" width="41" x="272" y="3"/><text fill="#000000" font-family="sans-serif" font-size="14" lengthAdjust="spacingAndGlyphs" textLength="27" x="279" y="22.9951">UPF</text><rect fill="#E6E6E6" height="30.2969" style="stroke: #FFFFFF; stroke-width: 1.5;" width="41" x="272" y="318.8906"/><text fill="#000000" font-family="sans-serif" font-size="14" lengthAdjust="spacingAndGlyphs" textLength="27" x="279" y="338.8857">UPF</text><rect fill="#E6E6E6" height="30.2969" style="stroke: #FFFFFF; stroke-width: 1.5;" width="57" x="323" y="3"/><text fill="#000000" font-family="sans-serif" font-size="14" lengthAdjust="spacingAndGlyphs" textLength="43" x="330" y="22.9951">UPF_2</text><rect fill="#E6E6E6" height="30.2969" style="stroke: #FFFFFF; stroke-width: 1.5;" width="57" x="323" y="318.8906"/><text fill="#000000" font-family="sans-serif" font-size="14" lengthAdjust="spacingAndGlyphs" textLength="43" x="330" y="338.8857">UPF_2</text><rect fill="#E6E6E6" height="30.2969" style="stroke: #FFFFFF; stroke-width: 1.5;" width="57" x="390" y="3"/><text fill="#000000" font-family="sans-serif" font-size="14" lengthAdjust="spacingAndGlyphs" textLength="43" x="397" y="22.9951">SGWU</text><rect fill="#E6E6E6" height="30.2969" style="stroke: #FFFFFF; stroke-width: 1.5;" width="57" x="390" y="318.8906"/><text fill="#000000" font-family="sans-serif" font-size="14" lengthAdjust="spacingAndGlyphs" textLength="43" x="397" y="338.8857">SGWU</text><rect fill="#E6E6E6" height="30.2969" style="stroke: #FFFFFF; stroke-width: 1.5;" width="57" x="653" y="3"/><text fill="#000000" font-family="sans-serif" font-size="14" lengthAdjust="spacingAndGlyphs" textLength="43" x="660" y="22.9951">SGWC</text><rect fill="#E6E6E6" height="30.2969" style="stroke: #FFFFFF; stroke-width: 1.5;" width="57" x="653" y="318.8906"/><text fill="#000000" font-family="sans-serif" font-size="14" lengthAdjust="spacingAndGlyphs" textLength="43" x="660" y="338.8857">SGWC</text><polygon fill="#000000" points="429.5,76.5625,419.5,80.5625,429.5,84.5625,425.5,80.5625" style="stroke: #000000; stroke-width: 1.0;"/><line style="stroke: #000000; stroke-width: 1.0;" x1="423.5" x2="680.5" y1="80.5625" y2="80.5625"/><text fill="#000000" font-family="sans-serif" font-size="13" lengthAdjust="spacingAndGlyphs" textLength="93" x="435.5" y="60.3638">155, PFCP req.</text><text fill="#000000" font-family="sans-serif" font-size="13" lengthAdjust="spacingAndGlyphs" textLength="229" x="435.5" y="75.4966">PFCP Association Setup Request (5)</text><path d="M686,53.8633 L686,78.8633 L820,78.8633 L820,63.8633 L810,53.8633 L686,53.8633 " fill="#03B5AA" style="stroke: #FFFFFF; stroke-width: 1.0;"/><path d="M810,53.8633 L810,63.8633 L820,63.8633 L810,53.8633 " fill="#03B5AA" style="stroke: #FFFFFF; stroke-width: 1.0;"/><text fill="#000000" font-family="sans-serif" font-size="13" font-weight="bold" lengthAdjust="spacingAndGlyphs" textLength="113" x="692" y="70.9302">SGWC to SGWU</text><polygon fill="#000000" points="669.5,120.8281,679.5,124.8281,669.5,128.8281,673.5,124.8281" style="stroke: #000000; stroke-width: 1.0;"/><line style="stroke: #000000; stroke-width: 1.0;" x1="418.5" x2="675.5" y1="124.8281" y2="124.8281"/><text fill="#000000" font-family="sans-serif" font-size="13" lengthAdjust="spacingAndGlyphs" textLength="92" x="425.5" y="104.6294">156, PFCP rsp.</text><text fill="#000000" font-family="sans-serif" font-size="13" lengthAdjust="spacingAndGlyphs" textLength="239" x="425.5" y="119.7622">PFCP Association Setup Response (6)</text><path d="M686,98.1289 L686,123.1289 L820,123.1289 L820,108.1289 L810,98.1289 L686,98.1289 " fill="#D7FEFC" style="stroke: #FFFFFF; stroke-width: 1.0;"/><path d="M810,98.1289 L810,108.1289 L820,108.1289 L810,98.1289 " fill="#D7FEFC" style="stroke: #FFFFFF; stroke-width: 1.0;"/><text fill="#000000" font-family="sans-serif" font-size="13" font-weight="bold" lengthAdjust="spacingAndGlyphs" textLength="113" x="692" y="115.1958">SGWU to SGWC</text><polygon fill="#000000" points="280.5,165.0938,290.5,169.0938,280.5,173.0938,284.5,169.0938" style="stroke: #000000; stroke-width: 1.0;"/><line style="stroke: #000000; stroke-width: 1.0;" x1="29.5" x2="286.5" y1="169.0938" y2="169.0938"/><text fill="#000000" font-family="sans-serif" font-size="13" lengthAdjust="spacingAndGlyphs" textLength="93" x="36.5" y="148.895">646, PFCP req.</text><text fill="#000000" font-family="sans-serif" font-size="13" lengthAdjust="spacingAndGlyphs" textLength="229" x="36.5" y="164.0278">PFCP Association Setup Request (5)</text><path d="M297,142.3945 L297,167.3945 L403,167.3945 L403,152.3945 L393,142.3945 L297,142.3945 " fill="#03B5AA" style="stroke: #FFFFFF; stroke-width: 1.0;"/><path d="M393,142.3945 L393,152.3945 L403,152.3945 L393,142.3945 " fill="#03B5AA" style="stroke: #FFFFFF; stroke-width: 1.0;"/><text fill="#000000" font-family="sans-serif" font-size="13" font-weight="bold" lengthAdjust="spacingAndGlyphs" textLength="85" x="303" y="159.4614">SMF to UPF</text><polygon fill="#000000" points="40.5,209.3594,30.5,213.3594,40.5,217.3594,36.5,213.3594" style="stroke: #000000; stroke-width: 1.0;"/><line style="stroke: #000000; stroke-width: 1.0;" x1="34.5" x2="291.5" y1="213.3594" y2="213.3594"/><text fill="#000000" font-family="sans-serif" font-size="13" lengthAdjust="spacingAndGlyphs" textLength="92" x="46.5" y="193.1606">647, PFCP rsp.</text><text fill="#000000" font-family="sans-serif" font-size="13" lengthAdjust="spacingAndGlyphs" textLength="239" x="46.5" y="208.2935">PFCP Association Setup Response (6)</text><path d="M297,186.6602 L297,211.6602 L403,211.6602 L403,196.6602 L393,186.6602 L297,186.6602 " fill="#D7FEFC" style="stroke: #FFFFFF; stroke-width: 1.0;"/><path d="M393,186.6602 L393,196.6602 L403,196.6602 L393,186.6602 " fill="#D7FEFC" style="stroke: #FFFFFF; stroke-width: 1.0;"/><text fill="#000000" font-family="sans-serif" font-size="13" font-weight="bold" lengthAdjust="spacingAndGlyphs" textLength="85" x="303" y="203.7271">UPF to SMF</text><polygon fill="#000000" points="339.5,253.625,349.5,257.625,339.5,261.625,343.5,257.625" style="stroke: #000000; stroke-width: 1.0;"/><line style="stroke: #000000; stroke-width: 1.0;" x1="29.5" x2="345.5" y1="257.625" y2="257.625"/><text fill="#000000" font-family="sans-serif" font-size="13" lengthAdjust="spacingAndGlyphs" textLength="93" x="36.5" y="237.4263">714, PFCP req.</text><text fill="#000000" font-family="sans-serif" font-size="13" lengthAdjust="spacingAndGlyphs" textLength="229" x="36.5" y="252.5591">PFCP Association Setup Request (5)</text><path d="M356,230.9258 L356,255.9258 L478,255.9258 L478,240.9258 L468,230.9258 L356,230.9258 " fill="#03B5AA" style="stroke: #FFFFFF; stroke-width: 1.0;"/><path d="M468,230.9258 L468,240.9258 L478,240.9258 L468,230.9258 " fill="#03B5AA" style="stroke: #FFFFFF; stroke-width: 1.0;"/><text fill="#000000" font-family="sans-serif" font-size="13" font-weight="bold" lengthAdjust="spacingAndGlyphs" textLength="101" x="362" y="247.9927">SMF to UPF_2</text><polygon fill="#000000" points="40.5,297.8906,30.5,301.8906,40.5,305.8906,36.5,301.8906" style="stroke: #000000; stroke-width: 1.0;"/><line style="stroke: #000000; stroke-width: 1.0;" x1="34.5" x2="350.5" y1="301.8906" y2="301.8906"/><text fill="#000000" font-family="sans-serif" font-size="13" lengthAdjust="spacingAndGlyphs" textLength="92" x="46.5" y="281.6919">715, PFCP rsp.</text><text fill="#000000" font-family="sans-serif" font-size="13" lengthAdjust="spacingAndGlyphs" textLength="239" x="46.5" y="296.8247">PFCP Association Setup Response (6)</text><path d="M356,275.1914 L356,300.1914 L478,300.1914 L478,285.1914 L468,275.1914 L356,275.1914 " fill="#D7FEFC" style="stroke: #FFFFFF; stroke-width: 1.0;"/><path d="M468,275.1914 L468,285.1914 L478,285.1914 L468,275.1914 " fill="#D7FEFC" style="stroke: #FFFFFF; stroke-width: 1.0;"/><text fill="#000000" font-family="sans-serif" font-size="13" font-weight="bold" lengthAdjust="spacingAndGlyphs" textLength="101" x="362" y="292.2583">UPF_2 to SMF</text><!--MD5=[f90359e4c943a9baaa038600259f342e]
@startuml
skinparam shadowing false
skinparam NoteBorderColor white
skinparam sequence {
    ArrowColor black
    LifeLineBorderColor black
    LifeLineBackgroundColor black
    ParticipantBorderColor white
    ParticipantBackgroundColor #e6e6e6
}
participant "SMF"
participant "UPF"
participant "UPF_2"
participant "SGWU"
participant "SGWC"

"SGWC" -> "SGWU": 155, PFCP req.\nPFCP Association Setup Request (5)

note right #03B5AA
**SGWC to SGWU**
end note

"SGWU" -> "SGWC": 156, PFCP rsp.\nPFCP Association Setup Response (6)

note right #D7FEFC
**SGWU to SGWC**
end note

"SMF" -> "UPF": 646, PFCP req.\nPFCP Association Setup Request (5)

note right #03B5AA
**SMF to UPF**
end note

"UPF" -> "SMF": 647, PFCP rsp.\nPFCP Association Setup Response (6)

note right #D7FEFC
**UPF to SMF**
end note

"SMF" -> "UPF_2": 714, PFCP req.\nPFCP Association Setup Request (5)

note right #03B5AA
**SMF to UPF_2**
end note

"UPF_2" -> "SMF": 715, PFCP rsp.\nPFCP Association Setup Response (6)

note right #D7FEFC
**UPF_2 to SMF**
end note

@enduml

PlantUML version 1.2019.12(Sun Nov 03 11:24:54 CET 2019)
(APACHE source distribution)
Java Runtime: OpenJDK Runtime Environment
JVM: OpenJDK 64-Bit Server VM
Java Version: 11.0.18+10-post-Ubuntu-0ubuntu120.04.1
Operating System: Linux
Default Encoding: UTF-8
Language: en
Country: US
--></g></svg>