<?xml version="1.0" encoding="UTF-8" standalone="no"?><svg xmlns="http://www.w3.org/2000/svg" xmlns:xlink="http://www.w3.org/1999/xlink" contentScriptType="application/ecmascript" contentStyleType="text/css" height="993px" preserveAspectRatio="none" style="width:1020px;height:993px;" version="1.1" viewBox="0 0 1020 993" width="1020px" zoomAndPan="magnify"><defs/><g><line style="stroke: #000000; stroke-width: 1.0; stroke-dasharray: 5.0,5.0;" x1="58" x2="58" y1="34.2969" y2="953.6797"/><line style="stroke: #000000; stroke-width: 1.0; stroke-dasharray: 5.0,5.0;" x1="168" x2="168" y1="34.2969" y2="953.6797"/><line style="stroke: #000000; stroke-width: 1.0; stroke-dasharray: 5.0,5.0;" x1="249" x2="249" y1="34.2969" y2="953.6797"/><line style="stroke: #000000; stroke-width: 1.0; stroke-dasharray: 5.0,5.0;" x1="302" x2="302" y1="34.2969" y2="953.6797"/><line style="stroke: #000000; stroke-width: 1.0; stroke-dasharray: 5.0,5.0;" x1="355" x2="355" y1="34.2969" y2="953.6797"/><line style="stroke: #000000; stroke-width: 1.0; stroke-dasharray: 5.0,5.0;" x1="618" x2="618" y1="34.2969" y2="953.6797"/><line style="stroke: #000000; stroke-width: 1.0; stroke-dasharray: 5.0,5.0;" x1="677" x2="677" y1="34.2969" y2="953.6797"/><line style="stroke: #000000; stroke-width: 1.0; stroke-dasharray: 5.0,5.0;" x1="744" x2="744" y1="34.2969" y2="953.6797"/><line style="stroke: #000000; stroke-width: 1.0; stroke-dasharray: 5.0,5.0;" x1="814" x2="814" y1="34.2969" y2="953.6797"/><rect fill="#E6E6E6" height="30.2969" style="stroke: #FFFFFF; stroke-width: 1.5;" width="100" x="8" y="3"/><text fill="#000000" font-family="sans-serif" font-size="14" lengthAdjust="spacingAndGlyphs" textLength="86" x="15" y="22.9951">Malicious UE</text><rect fill="#E6E6E6" height="30.2969" style="stroke: #FFFFFF; stroke-width: 1.5;" width="100" x="8" y="952.6797"/><text fill="#000000" font-family="sans-serif" font-size="14" lengthAdjust="spacingAndGlyphs" textLength="86" x="15" y="972.6748">Malicious UE</text><rect fill="#E6E6E6" height="30.2969" style="stroke: #FFFFFF; stroke-width: 1.5;" width="100" x="118" y="3"/><text fill="#000000" font-family="sans-serif" font-size="14" lengthAdjust="spacingAndGlyphs" textLength="86" x="125" y="22.9951">Targeted UE</text><rect fill="#E6E6E6" height="30.2969" style="stroke: #FFFFFF; stroke-width: 1.5;" width="100" x="118" y="952.6797"/><text fill="#000000" font-family="sans-serif" font-size="14" lengthAdjust="spacingAndGlyphs" textLength="86" x="125" y="972.6748">Targeted UE</text><rect fill="#E6E6E6" height="30.2969" style="stroke: #FFFFFF; stroke-width: 1.5;" width="43" x="228" y="3"/><text fill="#000000" font-family="sans-serif" font-size="14" lengthAdjust="spacingAndGlyphs" textLength="29" x="235" y="22.9951">gNB</text><rect fill="#E6E6E6" height="30.2969" style="stroke: #FFFFFF; stroke-width: 1.5;" width="43" x="228" y="952.6797"/><text fill="#000000" font-family="sans-serif" font-size="14" lengthAdjust="spacingAndGlyphs" textLength="29" x="235" y="972.6748">gNB</text><rect fill="#E6E6E6" height="30.2969" style="stroke: #FFFFFF; stroke-width: 1.5;" width="43" x="281" y="3"/><text fill="#000000" font-family="sans-serif" font-size="14" lengthAdjust="spacingAndGlyphs" textLength="29" x="288" y="22.9951">AMF</text><rect fill="#E6E6E6" height="30.2969" style="stroke: #FFFFFF; stroke-width: 1.5;" width="43" x="281" y="952.6797"/><text fill="#000000" font-family="sans-serif" font-size="14" lengthAdjust="spacingAndGlyphs" textLength="29" x="288" y="972.6748">AMF</text><rect fill="#E6E6E6" height="30.2969" style="stroke: #FFFFFF; stroke-width: 1.5;" width="43" x="334" y="3"/><text fill="#000000" font-family="sans-serif" font-size="14" lengthAdjust="spacingAndGlyphs" textLength="29" x="341" y="22.9951">SMF</text><rect fill="#E6E6E6" height="30.2969" style="stroke: #FFFFFF; stroke-width: 1.5;" width="43" x="334" y="952.6797"/><text fill="#000000" font-family="sans-serif" font-size="14" lengthAdjust="spacingAndGlyphs" textLength="29" x="341" y="972.6748">SMF</text><rect fill="#E6E6E6" height="30.2969" style="stroke: #FFFFFF; stroke-width: 1.5;" width="41" x="598" y="3"/><text fill="#000000" font-family="sans-serif" font-size="14" lengthAdjust="spacingAndGlyphs" textLength="27" x="605" y="22.9951">UPF</text><rect fill="#E6E6E6" height="30.2969" style="stroke: #FFFFFF; stroke-width: 1.5;" width="41" x="598" y="952.6797"/><text fill="#000000" font-family="sans-serif" font-size="14" lengthAdjust="spacingAndGlyphs" textLength="27" x="605" y="972.6748">UPF</text><rect fill="#E6E6E6" height="30.2969" style="stroke: #FFFFFF; stroke-width: 1.5;" width="57" x="649" y="3"/><text fill="#000000" font-family="sans-serif" font-size="14" lengthAdjust="spacingAndGlyphs" textLength="43" x="656" y="22.9951">SGWU</text><rect fill="#E6E6E6" height="30.2969" style="stroke: #FFFFFF; stroke-width: 1.5;" width="57" x="649" y="952.6797"/><text fill="#000000" font-family="sans-serif" font-size="14" lengthAdjust="spacingAndGlyphs" textLength="43" x="656" y="972.6748">SGWU</text><rect fill="#E6E6E6" height="30.2969" style="stroke: #FFFFFF; stroke-width: 1.5;" width="57" x="716" y="3"/><text fill="#000000" font-family="sans-serif" font-size="14" lengthAdjust="spacingAndGlyphs" textLength="43" x="723" y="22.9951">SGWC</text><rect fill="#E6E6E6" height="30.2969" style="stroke: #FFFFFF; stroke-width: 1.5;" width="57" x="716" y="952.6797"/><text fill="#000000" font-family="sans-serif" font-size="14" lengthAdjust="spacingAndGlyphs" textLength="43" x="723" y="972.6748">SGWC</text><rect fill="#E6E6E6" height="30.2969" style="stroke: #FFFFFF; stroke-width: 1.5;" width="62" x="783" y="3"/><text fill="#000000" font-family="sans-serif" font-size="14" lengthAdjust="spacingAndGlyphs" textLength="48" x="790" y="22.9951">8.8.8.8</text><rect fill="#E6E6E6" height="30.2969" style="stroke: #FFFFFF; stroke-width: 1.5;" width="62" x="783" y="952.6797"/><text fill="#000000" font-family="sans-serif" font-size="14" lengthAdjust="spacingAndGlyphs" textLength="48" x="790" y="972.6748">8.8.8.8</text><polygon fill="#000000" points="606.5,64.4297,616.5,68.4297,606.5,72.4297,610.5,68.4297" style="stroke: #000000; stroke-width: 1.0;"/><line style="stroke: #000000; stroke-width: 1.0;" x1="249.5" x2="612.5" y1="68.4297" y2="68.4297"/><text fill="#000000" font-family="sans-serif" font-size="13" lengthAdjust="spacingAndGlyphs" textLength="178" x="256.5" y="63.3638">4248, GTP&lt;ICMP&gt; ping req.</text><path d="M623,49.2969 L623,74.2969 L729,74.2969 L729,59.2969 L719,49.2969 L623,49.2969 " fill="#5C8001" style="stroke: #FFFFFF; stroke-width: 1.0;"/><path d="M719,49.2969 L719,59.2969 L729,59.2969 L719,49.2969 " fill="#5C8001" style="stroke: #FFFFFF; stroke-width: 1.0;"/><text fill="#000000" font-family="sans-serif" font-size="13" font-weight="bold" lengthAdjust="spacingAndGlyphs" textLength="85" x="629" y="66.3638">gNB to UPF</text><polygon fill="#000000" points="802,99.5625,812,103.5625,802,107.5625,806,103.5625" style="stroke: #000000; stroke-width: 1.0;"/><line style="stroke: #000000; stroke-width: 1.0;" x1="168" x2="808" y1="103.5625" y2="103.5625"/><text fill="#000000" font-family="sans-serif" font-size="13" lengthAdjust="spacingAndGlyphs" textLength="131" x="175" y="98.4966">4249, ICMP ping req.</text><path d="M819,84.4297 L819,109.4297 L1007,109.4297 L1007,94.4297 L997,84.4297 L819,84.4297 " fill="#5C8001" style="stroke: #FFFFFF; stroke-width: 1.0;"/><path d="M997,84.4297 L997,94.4297 L1007,94.4297 L997,84.4297 " fill="#5C8001" style="stroke: #FFFFFF; stroke-width: 1.0;"/><text fill="#000000" font-family="sans-serif" font-size="13" font-weight="bold" lengthAdjust="spacingAndGlyphs" textLength="167" x="825" y="101.4966">Targeted UE to 8.8.8.8</text><polygon fill="#000000" points="802,134.6953,812,138.6953,802,142.6953,806,138.6953" style="stroke: #000000; stroke-width: 1.0;"/><line style="stroke: #000000; stroke-width: 1.0;" x1="618.5" x2="808" y1="138.6953" y2="138.6953"/><text fill="#000000" font-family="sans-serif" font-size="13" lengthAdjust="spacingAndGlyphs" textLength="131" x="625.5" y="133.6294">4250, ICMP ping req.</text><path d="M819,119.5625 L819,144.5625 L945,144.5625 L945,129.5625 L935,119.5625 L819,119.5625 " fill="#5C8001" style="stroke: #FFFFFF; stroke-width: 1.0;"/><path d="M935,119.5625 L935,129.5625 L945,129.5625 L935,119.5625 " fill="#5C8001" style="stroke: #FFFFFF; stroke-width: 1.0;"/><text fill="#000000" font-family="sans-serif" font-size="13" font-weight="bold" lengthAdjust="spacingAndGlyphs" textLength="105" x="825" y="136.6294">UPF to 8.8.8.8</text><polygon fill="#000000" points="629.5,169.8281,619.5,173.8281,629.5,177.8281,625.5,173.8281" style="stroke: #000000; stroke-width: 1.0;"/><line style="stroke: #000000; stroke-width: 1.0;" x1="623.5" x2="813" y1="173.8281" y2="173.8281"/><text fill="#000000" font-family="sans-serif" font-size="13" lengthAdjust="spacingAndGlyphs" textLength="130" x="635.5" y="168.7622">4251, ICMP ping rsp.</text><path d="M819,154.6953 L819,179.6953 L945,179.6953 L945,164.6953 L935,154.6953 L819,154.6953 " fill="#EDFEC2" style="stroke: #FFFFFF; stroke-width: 1.0;"/><path d="M935,154.6953 L935,164.6953 L945,164.6953 L935,154.6953 " fill="#EDFEC2" style="stroke: #FFFFFF; stroke-width: 1.0;"/><text fill="#000000" font-family="sans-serif" font-size="13" font-weight="bold" lengthAdjust="spacingAndGlyphs" textLength="105" x="825" y="171.7622">8.8.8.8 to UPF</text><polygon fill="#000000" points="179,204.9609,169,208.9609,179,212.9609,175,208.9609" style="stroke: #000000; stroke-width: 1.0;"/><line style="stroke: #000000; stroke-width: 1.0;" x1="173" x2="813" y1="208.9609" y2="208.9609"/><text fill="#000000" font-family="sans-serif" font-size="13" lengthAdjust="spacingAndGlyphs" textLength="130" x="185" y="203.895">4252, ICMP ping rsp.</text><path d="M819,189.8281 L819,214.8281 L1007,214.8281 L1007,199.8281 L997,189.8281 L819,189.8281 " fill="#EDFEC2" style="stroke: #FFFFFF; stroke-width: 1.0;"/><path d="M997,189.8281 L997,199.8281 L1007,199.8281 L997,189.8281 " fill="#EDFEC2" style="stroke: #FFFFFF; stroke-width: 1.0;"/><text fill="#000000" font-family="sans-serif" font-size="13" font-weight="bold" lengthAdjust="spacingAndGlyphs" textLength="167" x="825" y="206.895">8.8.8.8 to Targeted UE</text><polygon fill="#000000" points="260.5,240.0938,250.5,244.0938,260.5,248.0938,256.5,244.0938" style="stroke: #000000; stroke-width: 1.0;"/><line style="stroke: #000000; stroke-width: 1.0;" x1="254.5" x2="617.5" y1="244.0938" y2="244.0938"/><text fill="#000000" font-family="sans-serif" font-size="13" lengthAdjust="spacingAndGlyphs" textLength="177" x="266.5" y="239.0278">4253, GTP&lt;ICMP&gt; ping rsp.</text><path d="M623,224.9609 L623,249.9609 L729,249.9609 L729,234.9609 L719,224.9609 L623,224.9609 " fill="#EDFEC2" style="stroke: #FFFFFF; stroke-width: 1.0;"/><path d="M719,224.9609 L719,234.9609 L729,234.9609 L719,224.9609 " fill="#EDFEC2" style="stroke: #FFFFFF; stroke-width: 1.0;"/><text fill="#000000" font-family="sans-serif" font-size="13" font-weight="bold" lengthAdjust="spacingAndGlyphs" textLength="85" x="629" y="242.0278">UPF to gNB</text><polygon fill="#000000" points="606.5,287.3594,616.5,291.3594,606.5,295.3594,610.5,291.3594" style="stroke: #000000; stroke-width: 1.0;"/><line style="stroke: #000000; stroke-width: 1.0;" x1="249.5" x2="612.5" y1="291.3594" y2="291.3594"/><text fill="#000000" font-family="sans-serif" font-size="13" lengthAdjust="spacingAndGlyphs" textLength="101" x="256.5" y="271.1606">4335, PFCP req.</text><text fill="#000000" font-family="sans-serif" font-size="13" lengthAdjust="spacingAndGlyphs" textLength="229" x="256.5" y="286.2935">PFCP Association Setup Request (5)</text><path d="M623,264.6602 L623,289.6602 L729,289.6602 L729,274.6602 L719,264.6602 L623,264.6602 " fill="#5C8001" style="stroke: #FFFFFF; stroke-width: 1.0;"/><path d="M719,264.6602 L719,274.6602 L729,274.6602 L719,264.6602 " fill="#5C8001" style="stroke: #FFFFFF; stroke-width: 1.0;"/><text fill="#000000" font-family="sans-serif" font-size="13" font-weight="bold" lengthAdjust="spacingAndGlyphs" textLength="85" x="629" y="281.7271">gNB to UPF</text><polygon fill="#000000" points="606.5,331.625,616.5,335.625,606.5,339.625,610.5,335.625" style="stroke: #000000; stroke-width: 1.0;"/><line style="stroke: #000000; stroke-width: 1.0;" x1="58" x2="612.5" y1="335.625" y2="335.625"/><text fill="#000000" font-family="sans-serif" font-size="13" lengthAdjust="spacingAndGlyphs" textLength="101" x="65" y="315.4263">4335, PFCP req.</text><text fill="#000000" font-family="sans-serif" font-size="13" lengthAdjust="spacingAndGlyphs" textLength="229" x="65" y="330.5591">PFCP Association Setup Request (5)</text><path d="M623,308.9258 L623,333.9258 L729,333.9258 L729,318.9258 L719,308.9258 L623,308.9258 " fill="#FFC2D9" style="stroke: #FFFFFF; stroke-width: 1.0;"/><path d="M719,308.9258 L719,318.9258 L729,318.9258 L719,308.9258 " fill="#FFC2D9" style="stroke: #FFFFFF; stroke-width: 1.0;"/><text fill="#000000" font-family="sans-serif" font-size="13" font-weight="bold" lengthAdjust="spacingAndGlyphs" textLength="85" x="629" y="325.9927">gNB to UPF</text><polygon fill="#000000" points="69,375.8906,59,379.8906,69,383.8906,65,379.8906" style="stroke: #000000; stroke-width: 1.0;"/><line style="stroke: #000000; stroke-width: 1.0;" x1="63" x2="617.5" y1="379.8906" y2="379.8906"/><text fill="#000000" font-family="sans-serif" font-size="13" lengthAdjust="spacingAndGlyphs" textLength="100" x="75" y="359.6919">4337, PFCP rsp.</text><text fill="#000000" font-family="sans-serif" font-size="13" lengthAdjust="spacingAndGlyphs" textLength="239" x="75" y="374.8247">PFCP Association Setup Response (6)</text><path d="M623,353.1914 L623,378.1914 L790,378.1914 L790,363.1914 L780,353.1914 L623,353.1914 " fill="#FFEAC2" style="stroke: #FFFFFF; stroke-width: 1.0;"/><path d="M780,353.1914 L780,363.1914 L790,363.1914 L780,353.1914 " fill="#FFEAC2" style="stroke: #FFFFFF; stroke-width: 1.0;"/><text fill="#000000" font-family="sans-serif" font-size="13" font-weight="bold" lengthAdjust="spacingAndGlyphs" textLength="146" x="629" y="370.2583">UPF to Malicious UE</text><polygon fill="#000000" points="260.5,420.1563,250.5,424.1563,260.5,428.1563,256.5,424.1563" style="stroke: #000000; stroke-width: 1.0;"/><line style="stroke: #000000; stroke-width: 1.0;" x1="254.5" x2="617.5" y1="424.1563" y2="424.1563"/><text fill="#000000" font-family="sans-serif" font-size="13" lengthAdjust="spacingAndGlyphs" textLength="100" x="266.5" y="403.9575">4338, PFCP rsp.</text><text fill="#000000" font-family="sans-serif" font-size="13" lengthAdjust="spacingAndGlyphs" textLength="239" x="266.5" y="419.0903">PFCP Association Setup Response (6)</text><path d="M623,397.457 L623,422.457 L729,422.457 L729,407.457 L719,397.457 L623,397.457 " fill="#FFEAC2" style="stroke: #FFFFFF; stroke-width: 1.0;"/><path d="M719,397.457 L719,407.457 L729,407.457 L719,397.457 " fill="#FFEAC2" style="stroke: #FFFFFF; stroke-width: 1.0;"/><text fill="#000000" font-family="sans-serif" font-size="13" font-weight="bold" lengthAdjust="spacingAndGlyphs" textLength="85" x="629" y="414.5239">UPF to gNB</text><polygon fill="#000000" points="606.5,464.4219,616.5,468.4219,606.5,472.4219,610.5,468.4219" style="stroke: #000000; stroke-width: 1.0;"/><line style="stroke: #000000; stroke-width: 1.0;" x1="249.5" x2="612.5" y1="468.4219" y2="468.4219"/><text fill="#000000" font-family="sans-serif" font-size="13" lengthAdjust="spacingAndGlyphs" textLength="345" x="256.5" y="448.2231">4339, &lt;PORT_UNREACHABLE&gt; PFCP,GTP&lt;ICMP&gt; rsp.</text><text fill="#000000" font-family="sans-serif" font-size="13" lengthAdjust="spacingAndGlyphs" textLength="239" x="256.5" y="463.356">PFCP Association Setup Response (6)</text><path d="M623,441.7227 L623,466.7227 L729,466.7227 L729,451.7227 L719,441.7227 L623,441.7227 " fill="#D7FEFC" style="stroke: #FFFFFF; stroke-width: 1.0;"/><path d="M719,441.7227 L719,451.7227 L729,451.7227 L719,441.7227 " fill="#D7FEFC" style="stroke: #FFFFFF; stroke-width: 1.0;"/><text fill="#000000" font-family="sans-serif" font-size="13" font-weight="bold" lengthAdjust="spacingAndGlyphs" textLength="85" x="629" y="458.7896">gNB to UPF</text><polygon fill="#000000" points="606.5,508.6875,616.5,512.6875,606.5,516.6875,610.5,512.6875" style="stroke: #000000; stroke-width: 1.0;"/><line style="stroke: #000000; stroke-width: 1.0;" x1="249.5" x2="612.5" y1="512.6875" y2="512.6875"/><text fill="#000000" font-family="sans-serif" font-size="13" lengthAdjust="spacingAndGlyphs" textLength="101" x="256.5" y="492.4888">4341, PFCP req.</text><text fill="#000000" font-family="sans-serif" font-size="13" lengthAdjust="spacingAndGlyphs" textLength="229" x="256.5" y="507.6216">PFCP Session Deletion Request (54)</text><path d="M623,485.9883 L623,510.9883 L729,510.9883 L729,495.9883 L719,485.9883 L623,485.9883 " fill="#5C8001" style="stroke: #FFFFFF; stroke-width: 1.0;"/><path d="M719,485.9883 L719,495.9883 L729,495.9883 L719,485.9883 " fill="#5C8001" style="stroke: #FFFFFF; stroke-width: 1.0;"/><text fill="#000000" font-family="sans-serif" font-size="13" font-weight="bold" lengthAdjust="spacingAndGlyphs" textLength="85" x="629" y="503.0552">gNB to UPF</text><polygon fill="#000000" points="606.5,552.9531,616.5,556.9531,606.5,560.9531,610.5,556.9531" style="stroke: #000000; stroke-width: 1.0;"/><line style="stroke: #000000; stroke-width: 1.0;" x1="58" x2="612.5" y1="556.9531" y2="556.9531"/><text fill="#000000" font-family="sans-serif" font-size="13" lengthAdjust="spacingAndGlyphs" textLength="101" x="65" y="536.7544">4341, PFCP req.</text><text fill="#000000" font-family="sans-serif" font-size="13" lengthAdjust="spacingAndGlyphs" textLength="229" x="65" y="551.8872">PFCP Session Deletion Request (54)</text><path d="M623,530.2539 L623,555.2539 L729,555.2539 L729,540.2539 L719,530.2539 L623,530.2539 " fill="#FFC2D9" style="stroke: #FFFFFF; stroke-width: 1.0;"/><path d="M719,530.2539 L719,540.2539 L729,540.2539 L719,530.2539 " fill="#FFC2D9" style="stroke: #FFFFFF; stroke-width: 1.0;"/><text fill="#000000" font-family="sans-serif" font-size="13" font-weight="bold" lengthAdjust="spacingAndGlyphs" textLength="85" x="629" y="547.3208">gNB to UPF</text><polygon fill="#000000" points="69,597.2188,59,601.2188,69,605.2188,65,601.2188" style="stroke: #000000; stroke-width: 1.0;"/><line style="stroke: #000000; stroke-width: 1.0;" x1="63" x2="617.5" y1="601.2188" y2="601.2188"/><text fill="#000000" font-family="sans-serif" font-size="13" lengthAdjust="spacingAndGlyphs" textLength="100" x="75" y="581.02">4343, PFCP rsp.</text><text fill="#000000" font-family="sans-serif" font-size="13" lengthAdjust="spacingAndGlyphs" textLength="239" x="75" y="596.1528">PFCP Session Deletion Response (55)</text><path d="M623,574.5195 L623,599.5195 L790,599.5195 L790,584.5195 L780,574.5195 L623,574.5195 " fill="#FFEAC2" style="stroke: #FFFFFF; stroke-width: 1.0;"/><path d="M780,574.5195 L780,584.5195 L790,584.5195 L780,574.5195 " fill="#FFEAC2" style="stroke: #FFFFFF; stroke-width: 1.0;"/><text fill="#000000" font-family="sans-serif" font-size="13" font-weight="bold" lengthAdjust="spacingAndGlyphs" textLength="146" x="629" y="591.5864">UPF to Malicious UE</text><polygon fill="#000000" points="260.5,641.4844,250.5,645.4844,260.5,649.4844,256.5,645.4844" style="stroke: #000000; stroke-width: 1.0;"/><line style="stroke: #000000; stroke-width: 1.0;" x1="254.5" x2="617.5" y1="645.4844" y2="645.4844"/><text fill="#000000" font-family="sans-serif" font-size="13" lengthAdjust="spacingAndGlyphs" textLength="100" x="266.5" y="625.2856">4344, PFCP rsp.</text><text fill="#000000" font-family="sans-serif" font-size="13" lengthAdjust="spacingAndGlyphs" textLength="239" x="266.5" y="640.4185">PFCP Session Deletion Response (55)</text><path d="M623,618.7852 L623,643.7852 L729,643.7852 L729,628.7852 L719,618.7852 L623,618.7852 " fill="#FFEAC2" style="stroke: #FFFFFF; stroke-width: 1.0;"/><path d="M719,618.7852 L719,628.7852 L729,628.7852 L719,618.7852 " fill="#FFEAC2" style="stroke: #FFFFFF; stroke-width: 1.0;"/><text fill="#000000" font-family="sans-serif" font-size="13" font-weight="bold" lengthAdjust="spacingAndGlyphs" textLength="85" x="629" y="635.8521">UPF to gNB</text><polygon fill="#000000" points="606.5,685.75,616.5,689.75,606.5,693.75,610.5,689.75" style="stroke: #000000; stroke-width: 1.0;"/><line style="stroke: #000000; stroke-width: 1.0;" x1="249.5" x2="612.5" y1="689.75" y2="689.75"/><text fill="#000000" font-family="sans-serif" font-size="13" lengthAdjust="spacingAndGlyphs" textLength="345" x="256.5" y="669.5513">4345, &lt;PORT_UNREACHABLE&gt; PFCP,GTP&lt;ICMP&gt; rsp.</text><text fill="#000000" font-family="sans-serif" font-size="13" lengthAdjust="spacingAndGlyphs" textLength="239" x="256.5" y="684.6841">PFCP Session Deletion Response (55)</text><path d="M623,663.0508 L623,688.0508 L729,688.0508 L729,673.0508 L719,663.0508 L623,663.0508 " fill="#D7FEFC" style="stroke: #FFFFFF; stroke-width: 1.0;"/><path d="M719,663.0508 L719,673.0508 L729,673.0508 L719,663.0508 " fill="#D7FEFC" style="stroke: #FFFFFF; stroke-width: 1.0;"/><text fill="#000000" font-family="sans-serif" font-size="13" font-weight="bold" lengthAdjust="spacingAndGlyphs" textLength="85" x="629" y="680.1177">gNB to UPF</text><polygon fill="#000000" points="606.5,717.8828,616.5,721.8828,606.5,725.8828,610.5,721.8828" style="stroke: #000000; stroke-width: 1.0;"/><line style="stroke: #000000; stroke-width: 1.0;" x1="249.5" x2="612.5" y1="721.8828" y2="721.8828"/><text fill="#000000" font-family="sans-serif" font-size="13" lengthAdjust="spacingAndGlyphs" textLength="178" x="256.5" y="716.8169">4406, GTP&lt;ICMP&gt; ping req.</text><path d="M623,702.75 L623,727.75 L729,727.75 L729,712.75 L719,702.75 L623,702.75 " fill="#5C8001" style="stroke: #FFFFFF; stroke-width: 1.0;"/><path d="M719,702.75 L719,712.75 L729,712.75 L719,702.75 " fill="#5C8001" style="stroke: #FFFFFF; stroke-width: 1.0;"/><text fill="#000000" font-family="sans-serif" font-size="13" font-weight="bold" lengthAdjust="spacingAndGlyphs" textLength="85" x="629" y="719.8169">gNB to UPF</text><polygon fill="#000000" points="802,753.0156,812,757.0156,802,761.0156,806,757.0156" style="stroke: #000000; stroke-width: 1.0;"/><line style="stroke: #000000; stroke-width: 1.0;" x1="58" x2="808" y1="757.0156" y2="757.0156"/><text fill="#000000" font-family="sans-serif" font-size="13" lengthAdjust="spacingAndGlyphs" textLength="131" x="65" y="751.9497">4407, ICMP ping req.</text><path d="M819,737.8828 L819,762.8828 L1008,762.8828 L1008,747.8828 L998,737.8828 L819,737.8828 " fill="#5C8001" style="stroke: #FFFFFF; stroke-width: 1.0;"/><path d="M998,737.8828 L998,747.8828 L1008,747.8828 L998,737.8828 " fill="#5C8001" style="stroke: #FFFFFF; stroke-width: 1.0;"/><text fill="#000000" font-family="sans-serif" font-size="13" font-weight="bold" lengthAdjust="spacingAndGlyphs" textLength="168" x="825" y="754.9497">Malicious UE to 8.8.8.8</text><polygon fill="#000000" points="802,788.1484,812,792.1484,802,796.1484,806,792.1484" style="stroke: #000000; stroke-width: 1.0;"/><line style="stroke: #000000; stroke-width: 1.0;" x1="618.5" x2="808" y1="792.1484" y2="792.1484"/><text fill="#000000" font-family="sans-serif" font-size="13" lengthAdjust="spacingAndGlyphs" textLength="131" x="625.5" y="787.0825">4408, ICMP ping req.</text><path d="M819,773.0156 L819,798.0156 L945,798.0156 L945,783.0156 L935,773.0156 L819,773.0156 " fill="#5C8001" style="stroke: #FFFFFF; stroke-width: 1.0;"/><path d="M935,773.0156 L935,783.0156 L945,783.0156 L935,773.0156 " fill="#5C8001" style="stroke: #FFFFFF; stroke-width: 1.0;"/><text fill="#000000" font-family="sans-serif" font-size="13" font-weight="bold" lengthAdjust="spacingAndGlyphs" textLength="105" x="825" y="790.0825">UPF to 8.8.8.8</text><polygon fill="#000000" points="629.5,823.2813,619.5,827.2813,629.5,831.2813,625.5,827.2813" style="stroke: #000000; stroke-width: 1.0;"/><line style="stroke: #000000; stroke-width: 1.0;" x1="623.5" x2="813" y1="827.2813" y2="827.2813"/><text fill="#000000" font-family="sans-serif" font-size="13" lengthAdjust="spacingAndGlyphs" textLength="130" x="635.5" y="822.2153">4409, ICMP ping rsp.</text><path d="M819,808.1484 L819,833.1484 L945,833.1484 L945,818.1484 L935,808.1484 L819,808.1484 " fill="#EDFEC2" style="stroke: #FFFFFF; stroke-width: 1.0;"/><path d="M935,808.1484 L935,818.1484 L945,818.1484 L935,808.1484 " fill="#EDFEC2" style="stroke: #FFFFFF; stroke-width: 1.0;"/><text fill="#000000" font-family="sans-serif" font-size="13" font-weight="bold" lengthAdjust="spacingAndGlyphs" textLength="105" x="825" y="825.2153">8.8.8.8 to UPF</text><polygon fill="#000000" points="69,858.4141,59,862.4141,69,866.4141,65,862.4141" style="stroke: #000000; stroke-width: 1.0;"/><line style="stroke: #000000; stroke-width: 1.0;" x1="63" x2="813" y1="862.4141" y2="862.4141"/><text fill="#000000" font-family="sans-serif" font-size="13" lengthAdjust="spacingAndGlyphs" textLength="130" x="75" y="857.3481">4410, ICMP ping rsp.</text><path d="M819,843.2813 L819,868.2813 L1008,868.2813 L1008,853.2813 L998,843.2813 L819,843.2813 " fill="#EDFEC2" style="stroke: #FFFFFF; stroke-width: 1.0;"/><path d="M998,843.2813 L998,853.2813 L1008,853.2813 L998,843.2813 " fill="#EDFEC2" style="stroke: #FFFFFF; stroke-width: 1.0;"/><text fill="#000000" font-family="sans-serif" font-size="13" font-weight="bold" lengthAdjust="spacingAndGlyphs" textLength="168" x="825" y="860.3481">8.8.8.8 to Malicious UE</text><polygon fill="#000000" points="260.5,893.5469,250.5,897.5469,260.5,901.5469,256.5,897.5469" style="stroke: #000000; stroke-width: 1.0;"/><line style="stroke: #000000; stroke-width: 1.0;" x1="254.5" x2="617.5" y1="897.5469" y2="897.5469"/><text fill="#000000" font-family="sans-serif" font-size="13" lengthAdjust="spacingAndGlyphs" textLength="177" x="266.5" y="892.481">4411, GTP&lt;ICMP&gt; ping rsp.</text><path d="M623,878.4141 L623,903.4141 L729,903.4141 L729,888.4141 L719,878.4141 L623,878.4141 " fill="#EDFEC2" style="stroke: #FFFFFF; stroke-width: 1.0;"/><path d="M719,878.4141 L719,888.4141 L729,888.4141 L719,878.4141 " fill="#EDFEC2" style="stroke: #FFFFFF; stroke-width: 1.0;"/><text fill="#000000" font-family="sans-serif" font-size="13" font-weight="bold" lengthAdjust="spacingAndGlyphs" textLength="85" x="629" y="895.481">UPF to gNB</text><polygon fill="#000000" points="606.5,928.6797,616.5,932.6797,606.5,936.6797,610.5,932.6797" style="stroke: #000000; stroke-width: 1.0;"/><line style="stroke: #000000; stroke-width: 1.0;" x1="249.5" x2="612.5" y1="932.6797" y2="932.6797"/><text fill="#000000" font-family="sans-serif" font-size="13" lengthAdjust="spacingAndGlyphs" textLength="178" x="256.5" y="927.6138">4412, GTP&lt;ICMP&gt; ping req.</text><path d="M623,913.5469 L623,938.5469 L729,938.5469 L729,923.5469 L719,913.5469 L623,913.5469 " fill="#5C8001" style="stroke: #FFFFFF; stroke-width: 1.0;"/><path d="M719,913.5469 L719,923.5469 L729,923.5469 L719,913.5469 " fill="#5C8001" style="stroke: #FFFFFF; stroke-width: 1.0;"/><text fill="#000000" font-family="sans-serif" font-size="13" font-weight="bold" lengthAdjust="spacingAndGlyphs" textLength="85" x="629" y="930.6138">gNB to UPF</text><!--MD5=[434bc461b220396f1931530c2211c49a]
@startuml
skinparam shadowing false
skinparam NoteBorderColor white
skinparam sequence {
    ArrowColor black
    LifeLineBorderColor black
    LifeLineBackgroundColor black
    ParticipantBorderColor white
    ParticipantBackgroundColor #e6e6e6
}

participant "Malicious UE"
participant "Targeted UE"
participant "gNB"
participant "AMF"
participant "SMF"
participant "UPF"
participant "SGWU"
participant "SGWC"

participant "8.8.8.8"

"gNB" -> "UPF": 4248, GTP<ICMP> ping req.

note right #5C8001
**gNB to UPF**
end note

"Targeted UE" -> "8.8.8.8": 4249, ICMP ping req.
note right #5C8001
**Targeted UE to 8.8.8.8**
end note

"UPF" -> "8.8.8.8": 4250, ICMP ping req.
note right #5C8001
**UPF to 8.8.8.8**
end note

"8.8.8.8" -> "UPF": 4251, ICMP ping rsp.

note right #EDFEC2
**8.8.8.8 to UPF**
end note

"8.8.8.8" -> "Targeted UE": 4252, ICMP ping rsp.

note right #EDFEC2
**8.8.8.8 to Targeted UE**
end note

"UPF" -> "gNB": 4253, GTP<ICMP> ping rsp.

note right #EDFEC2
**UPF to gNB**
end note

"gNB" -> "UPF": 4335, PFCP req.\nPFCP Association Setup Request (5)

note right #5C8001
**gNB to UPF**
end note

"Malicious UE" -> "UPF": 4335, PFCP req.\nPFCP Association Setup Request (5)

note right #FFC2D9
**gNB to UPF**
end note

"UPF" -> "Malicious UE": 4337, PFCP rsp.\nPFCP Association Setup Response (6)

note right #FFEAC2
**UPF to Malicious UE**
end note

"UPF" -> "gNB": 4338, PFCP rsp.\nPFCP Association Setup Response (6)

note right #FFEAC2
**UPF to gNB**
end note

"gNB" -> "UPF": 4339, <PORT_UNREACHABLE> PFCP,GTP<ICMP> rsp.\nPFCP Association Setup Response (6)

note right #D7FEFC
**gNB to UPF**
end note

"gNB" -> "UPF": 4341, PFCP req.\nPFCP Session Deletion Request (54)

note right #5C8001
**gNB to UPF**
end note

"Malicious UE" -> "UPF": 4341, PFCP req.\nPFCP Session Deletion Request (54)

note right #FFC2D9
**gNB to UPF**
end note


"UPF" -> "Malicious UE": 4343, PFCP rsp.\nPFCP Session Deletion Response (55)

note right #FFEAC2
**UPF to Malicious UE**
end note

"UPF" -> "gNB": 4344, PFCP rsp.\nPFCP Session Deletion Response (55)

note right #FFEAC2
**UPF to gNB**
end note

"gNB" -> "UPF": 4345, <PORT_UNREACHABLE> PFCP,GTP<ICMP> rsp.\nPFCP Session Deletion Response (55)

note right #D7FEFC
**gNB to UPF**
end note

"gNB" -> "UPF": 4406, GTP<ICMP> ping req.

note right #5C8001
**gNB to UPF**
end note

"Malicious UE" -> "8.8.8.8": 4407, ICMP ping req.

note right #5C8001
**Malicious UE to 8.8.8.8**
end note

"UPF" -> "8.8.8.8": 4408, ICMP ping req.

note right #5C8001
**UPF to 8.8.8.8**
end note

"8.8.8.8" -> "UPF": 4409, ICMP ping rsp.

note right #EDFEC2
**8.8.8.8 to UPF**
end note

"8.8.8.8" -> "Malicious UE": 4410, ICMP ping rsp.

note right #EDFEC2
**8.8.8.8 to Malicious UE**
end note

"UPF" -> "gNB": 4411, GTP<ICMP> ping rsp.

note right #EDFEC2
**UPF to gNB**
end note

"gNB" -> "UPF": 4412, GTP<ICMP> ping req.

note right #5C8001
**gNB to UPF**
end note

@enduml

PlantUML version 1.2019.12(Sun Nov 03 11:24:54 CET 2019)
(APACHE source distribution)
Java Runtime: OpenJDK Runtime Environment
JVM: OpenJDK 64-Bit Server VM
Java Version: 11.0.18+10-post-Ubuntu-0ubuntu120.04.1
Operating System: Linux
Default Encoding: UTF-8
Language: en
Country: US
--></g></svg>