<?xml version="1.0" encoding="UTF-8" standalone="no"?><svg xmlns="http://www.w3.org/2000/svg" xmlns:xlink="http://www.w3.org/1999/xlink" contentScriptType="application/ecmascript" contentStyleType="text/css" height="1145px" preserveAspectRatio="none" style="width:1044px;height:1145px;" version="1.1" viewBox="0 0 1044 1145" width="1044px" zoomAndPan="magnify"><defs/><g><line style="stroke: #000000; stroke-width: 1.0; stroke-dasharray: 5.0,5.0;" x1="58" x2="58" y1="34.2969" y2="1104.9375"/><line style="stroke: #000000; stroke-width: 1.0; stroke-dasharray: 5.0,5.0;" x1="168" x2="168" y1="34.2969" y2="1104.9375"/><line style="stroke: #000000; stroke-width: 1.0; stroke-dasharray: 5.0,5.0;" x1="249" x2="249" y1="34.2969" y2="1104.9375"/><line style="stroke: #000000; stroke-width: 1.0; stroke-dasharray: 5.0,5.0;" x1="302" x2="302" y1="34.2969" y2="1104.9375"/><line style="stroke: #000000; stroke-width: 1.0; stroke-dasharray: 5.0,5.0;" x1="355" x2="355" y1="34.2969" y2="1104.9375"/><line style="stroke: #000000; stroke-width: 1.0; stroke-dasharray: 5.0,5.0;" x1="618" x2="618" y1="34.2969" y2="1104.9375"/><line style="stroke: #000000; stroke-width: 1.0; stroke-dasharray: 5.0,5.0;" x1="677" x2="677" y1="34.2969" y2="1104.9375"/><line style="stroke: #000000; stroke-width: 1.0; stroke-dasharray: 5.0,5.0;" x1="744" x2="744" y1="34.2969" y2="1104.9375"/><line style="stroke: #000000; stroke-width: 1.0; stroke-dasharray: 5.0,5.0;" x1="838.5" x2="838.5" y1="34.2969" y2="1104.9375"/><rect fill="#E6E6E6" height="30.2969" style="stroke: #FFFFFF; stroke-width: 1.5;" width="100" x="8" y="3"/><text fill="#000000" font-family="sans-serif" font-size="14" lengthAdjust="spacingAndGlyphs" textLength="86" x="15" y="22.9951">Malicious UE</text><rect fill="#E6E6E6" height="30.2969" style="stroke: #FFFFFF; stroke-width: 1.5;" width="100" x="8" y="1103.9375"/><text fill="#000000" font-family="sans-serif" font-size="14" lengthAdjust="spacingAndGlyphs" textLength="86" x="15" y="1123.9326">Malicious UE</text><rect fill="#E6E6E6" height="30.2969" style="stroke: #FFFFFF; stroke-width: 1.5;" width="100" x="118" y="3"/><text fill="#000000" font-family="sans-serif" font-size="14" lengthAdjust="spacingAndGlyphs" textLength="86" x="125" y="22.9951">Targeted UE</text><rect fill="#E6E6E6" height="30.2969" style="stroke: #FFFFFF; stroke-width: 1.5;" width="100" x="118" y="1103.9375"/><text fill="#000000" font-family="sans-serif" font-size="14" lengthAdjust="spacingAndGlyphs" textLength="86" x="125" y="1123.9326">Targeted UE</text><rect fill="#E6E6E6" height="30.2969" style="stroke: #FFFFFF; stroke-width: 1.5;" width="43" x="228" y="3"/><text fill="#000000" font-family="sans-serif" font-size="14" lengthAdjust="spacingAndGlyphs" textLength="29" x="235" y="22.9951">gNB</text><rect fill="#E6E6E6" height="30.2969" style="stroke: #FFFFFF; stroke-width: 1.5;" width="43" x="228" y="1103.9375"/><text fill="#000000" font-family="sans-serif" font-size="14" lengthAdjust="spacingAndGlyphs" textLength="29" x="235" y="1123.9326">gNB</text><rect fill="#E6E6E6" height="30.2969" style="stroke: #FFFFFF; stroke-width: 1.5;" width="43" x="281" y="3"/><text fill="#000000" font-family="sans-serif" font-size="14" lengthAdjust="spacingAndGlyphs" textLength="29" x="288" y="22.9951">AMF</text><rect fill="#E6E6E6" height="30.2969" style="stroke: #FFFFFF; stroke-width: 1.5;" width="43" x="281" y="1103.9375"/><text fill="#000000" font-family="sans-serif" font-size="14" lengthAdjust="spacingAndGlyphs" textLength="29" x="288" y="1123.9326">AMF</text><rect fill="#E6E6E6" height="30.2969" style="stroke: #FFFFFF; stroke-width: 1.5;" width="43" x="334" y="3"/><text fill="#000000" font-family="sans-serif" font-size="14" lengthAdjust="spacingAndGlyphs" textLength="29" x="341" y="22.9951">SMF</text><rect fill="#E6E6E6" height="30.2969" style="stroke: #FFFFFF; stroke-width: 1.5;" width="43" x="334" y="1103.9375"/><text fill="#000000" font-family="sans-serif" font-size="14" lengthAdjust="spacingAndGlyphs" textLength="29" x="341" y="1123.9326">SMF</text><rect fill="#E6E6E6" height="30.2969" style="stroke: #FFFFFF; stroke-width: 1.5;" width="41" x="598" y="3"/><text fill="#000000" font-family="sans-serif" font-size="14" lengthAdjust="spacingAndGlyphs" textLength="27" x="605" y="22.9951">UPF</text><rect fill="#E6E6E6" height="30.2969" style="stroke: #FFFFFF; stroke-width: 1.5;" width="41" x="598" y="1103.9375"/><text fill="#000000" font-family="sans-serif" font-size="14" lengthAdjust="spacingAndGlyphs" textLength="27" x="605" y="1123.9326">UPF</text><rect fill="#E6E6E6" height="30.2969" style="stroke: #FFFFFF; stroke-width: 1.5;" width="57" x="649" y="3"/><text fill="#000000" font-family="sans-serif" font-size="14" lengthAdjust="spacingAndGlyphs" textLength="43" x="656" y="22.9951">SGWU</text><rect fill="#E6E6E6" height="30.2969" style="stroke: #FFFFFF; stroke-width: 1.5;" width="57" x="649" y="1103.9375"/><text fill="#000000" font-family="sans-serif" font-size="14" lengthAdjust="spacingAndGlyphs" textLength="43" x="656" y="1123.9326">SGWU</text><rect fill="#E6E6E6" height="30.2969" style="stroke: #FFFFFF; stroke-width: 1.5;" width="57" x="716" y="3"/><text fill="#000000" font-family="sans-serif" font-size="14" lengthAdjust="spacingAndGlyphs" textLength="43" x="723" y="22.9951">SGWC</text><rect fill="#E6E6E6" height="30.2969" style="stroke: #FFFFFF; stroke-width: 1.5;" width="57" x="716" y="1103.9375"/><text fill="#000000" font-family="sans-serif" font-size="14" lengthAdjust="spacingAndGlyphs" textLength="43" x="723" y="1123.9326">SGWC</text><rect fill="#E6E6E6" height="30.2969" style="stroke: #FFFFFF; stroke-width: 1.5;" width="62" x="807.5" y="3"/><text fill="#000000" font-family="sans-serif" font-size="14" lengthAdjust="spacingAndGlyphs" textLength="48" x="814.5" y="22.9951">8.8.8.8</text><rect fill="#E6E6E6" height="30.2969" style="stroke: #FFFFFF; stroke-width: 1.5;" width="62" x="807.5" y="1103.9375"/><text fill="#000000" font-family="sans-serif" font-size="14" lengthAdjust="spacingAndGlyphs" textLength="48" x="814.5" y="1123.9326">8.8.8.8</text><polygon fill="#000000" points="606.5,76.5625,616.5,80.5625,606.5,84.5625,610.5,80.5625" style="stroke: #000000; stroke-width: 1.0;"/><line style="stroke: #000000; stroke-width: 1.0;" x1="249.5" x2="612.5" y1="80.5625" y2="80.5625"/><text fill="#000000" font-family="sans-serif" font-size="13" lengthAdjust="spacingAndGlyphs" textLength="178" x="256.5" y="60.3638">4248, GTP&lt;ICMP&gt; ping req.</text><text fill="#000000" font-family="sans-serif" font-size="13" lengthAdjust="spacingAndGlyphs" textLength="196" x="256.5" y="75.4966">+336.876s (19:37:15.511.346)</text><path d="M623,53.8633 L623,78.8633 L729,78.8633 L729,63.8633 L719,53.8633 L623,53.8633 " fill="#5C8001" style="stroke: #FFFFFF; stroke-width: 1.0;"/><path d="M719,53.8633 L719,63.8633 L729,63.8633 L719,53.8633 " fill="#5C8001" style="stroke: #FFFFFF; stroke-width: 1.0;"/><text fill="#000000" font-family="sans-serif" font-size="13" font-weight="bold" lengthAdjust="spacingAndGlyphs" textLength="85" x="629" y="70.9302">gNB to UPF</text><polygon fill="#000000" points="826.5,120.8281,836.5,124.8281,826.5,128.8281,830.5,124.8281" style="stroke: #000000; stroke-width: 1.0;"/><line style="stroke: #000000; stroke-width: 1.0;" x1="168" x2="832.5" y1="124.8281" y2="124.8281"/><text fill="#000000" font-family="sans-serif" font-size="13" lengthAdjust="spacingAndGlyphs" textLength="131" x="175" y="104.6294">4249, ICMP ping req.</text><text fill="#000000" font-family="sans-serif" font-size="13" lengthAdjust="spacingAndGlyphs" textLength="196" x="175" y="119.7622">+336.876s (19:37:15.511.446)</text><path d="M843,98.1289 L843,123.1289 L1031,123.1289 L1031,108.1289 L1021,98.1289 L843,98.1289 " fill="#5C8001" style="stroke: #FFFFFF; stroke-width: 1.0;"/><path d="M1021,98.1289 L1021,108.1289 L1031,108.1289 L1021,98.1289 " fill="#5C8001" style="stroke: #FFFFFF; stroke-width: 1.0;"/><text fill="#000000" font-family="sans-serif" font-size="13" font-weight="bold" lengthAdjust="spacingAndGlyphs" textLength="167" x="849" y="115.1958">Targeted UE to 8.8.8.8</text><polygon fill="#000000" points="826.5,165.0938,836.5,169.0938,826.5,173.0938,830.5,169.0938" style="stroke: #000000; stroke-width: 1.0;"/><line style="stroke: #000000; stroke-width: 1.0;" x1="618.5" x2="832.5" y1="169.0938" y2="169.0938"/><text fill="#000000" font-family="sans-serif" font-size="13" lengthAdjust="spacingAndGlyphs" textLength="131" x="625.5" y="148.895">4250, ICMP ping req.</text><text fill="#000000" font-family="sans-serif" font-size="13" lengthAdjust="spacingAndGlyphs" textLength="196" x="625.5" y="164.0278">+336.876s (19:37:15.511.472)</text><path d="M843,142.3945 L843,167.3945 L969,167.3945 L969,152.3945 L959,142.3945 L843,142.3945 " fill="#5C8001" style="stroke: #FFFFFF; stroke-width: 1.0;"/><path d="M959,142.3945 L959,152.3945 L969,152.3945 L959,142.3945 " fill="#5C8001" style="stroke: #FFFFFF; stroke-width: 1.0;"/><text fill="#000000" font-family="sans-serif" font-size="13" font-weight="bold" lengthAdjust="spacingAndGlyphs" textLength="105" x="849" y="159.4614">UPF to 8.8.8.8</text><polygon fill="#000000" points="629.5,209.3594,619.5,213.3594,629.5,217.3594,625.5,213.3594" style="stroke: #000000; stroke-width: 1.0;"/><line style="stroke: #000000; stroke-width: 1.0;" x1="623.5" x2="837.5" y1="213.3594" y2="213.3594"/><text fill="#000000" font-family="sans-serif" font-size="13" lengthAdjust="spacingAndGlyphs" textLength="130" x="635.5" y="193.1606">4251, ICMP ping rsp.</text><text fill="#000000" font-family="sans-serif" font-size="13" lengthAdjust="spacingAndGlyphs" textLength="196" x="635.5" y="208.2935">+336.903s (19:37:15.538.321)</text><path d="M843,186.6602 L843,211.6602 L969,211.6602 L969,196.6602 L959,186.6602 L843,186.6602 " fill="#EDFEC2" style="stroke: #FFFFFF; stroke-width: 1.0;"/><path d="M959,186.6602 L959,196.6602 L969,196.6602 L959,186.6602 " fill="#EDFEC2" style="stroke: #FFFFFF; stroke-width: 1.0;"/><text fill="#000000" font-family="sans-serif" font-size="13" font-weight="bold" lengthAdjust="spacingAndGlyphs" textLength="105" x="849" y="203.7271">8.8.8.8 to UPF</text><polygon fill="#000000" points="179,253.625,169,257.625,179,261.625,175,257.625" style="stroke: #000000; stroke-width: 1.0;"/><line style="stroke: #000000; stroke-width: 1.0;" x1="173" x2="837.5" y1="257.625" y2="257.625"/><text fill="#000000" font-family="sans-serif" font-size="13" lengthAdjust="spacingAndGlyphs" textLength="130" x="185" y="237.4263">4252, ICMP ping rsp.</text><text fill="#000000" font-family="sans-serif" font-size="13" lengthAdjust="spacingAndGlyphs" textLength="196" x="185" y="252.5591">+336.903s (19:37:15.538.348)</text><path d="M843,230.9258 L843,255.9258 L1031,255.9258 L1031,240.9258 L1021,230.9258 L843,230.9258 " fill="#EDFEC2" style="stroke: #FFFFFF; stroke-width: 1.0;"/><path d="M1021,230.9258 L1021,240.9258 L1031,240.9258 L1021,230.9258 " fill="#EDFEC2" style="stroke: #FFFFFF; stroke-width: 1.0;"/><text fill="#000000" font-family="sans-serif" font-size="13" font-weight="bold" lengthAdjust="spacingAndGlyphs" textLength="167" x="849" y="247.9927">8.8.8.8 to Targeted UE</text><polygon fill="#000000" points="260.5,297.8906,250.5,301.8906,260.5,305.8906,256.5,301.8906" style="stroke: #000000; stroke-width: 1.0;"/><line style="stroke: #000000; stroke-width: 1.0;" x1="254.5" x2="617.5" y1="301.8906" y2="301.8906"/><text fill="#000000" font-family="sans-serif" font-size="13" lengthAdjust="spacingAndGlyphs" textLength="177" x="266.5" y="281.6919">4253, GTP&lt;ICMP&gt; ping rsp.</text><text fill="#000000" font-family="sans-serif" font-size="13" lengthAdjust="spacingAndGlyphs" textLength="196" x="266.5" y="296.8247">+336.903s (19:37:15.538.465)</text><path d="M623,275.1914 L623,300.1914 L729,300.1914 L729,285.1914 L719,275.1914 L623,275.1914 " fill="#EDFEC2" style="stroke: #FFFFFF; stroke-width: 1.0;"/><path d="M719,275.1914 L719,285.1914 L729,285.1914 L719,275.1914 " fill="#EDFEC2" style="stroke: #FFFFFF; stroke-width: 1.0;"/><text fill="#000000" font-family="sans-serif" font-size="13" font-weight="bold" lengthAdjust="spacingAndGlyphs" textLength="85" x="629" y="292.2583">UPF to gNB</text><polygon fill="#000000" points="606.5,357.2891,616.5,361.2891,606.5,365.2891,610.5,361.2891" style="stroke: #000000; stroke-width: 1.0;"/><line style="stroke: #000000; stroke-width: 1.0;" x1="249.5" x2="612.5" y1="361.2891" y2="361.2891"/><text fill="#000000" font-family="sans-serif" font-size="13" lengthAdjust="spacingAndGlyphs" textLength="101" x="256.5" y="325.9575">4335, PFCP req.</text><text fill="#000000" font-family="sans-serif" font-size="13" lengthAdjust="spacingAndGlyphs" textLength="229" x="256.5" y="341.0903">PFCP Association Setup Request (5)</text><text fill="#000000" font-family="sans-serif" font-size="13" lengthAdjust="spacingAndGlyphs" textLength="196" x="256.5" y="356.2231">+345.330s (19:37:23.965.739)</text><path d="M623,327.0234 L623,352.0234 L729,352.0234 L729,337.0234 L719,327.0234 L623,327.0234 " fill="#FFC2D9" style="stroke: #FFFFFF; stroke-width: 1.0;"/><path d="M719,327.0234 L719,337.0234 L729,337.0234 L719,327.0234 " fill="#FFC2D9" style="stroke: #FFFFFF; stroke-width: 1.0;"/><text fill="#000000" font-family="sans-serif" font-size="13" font-weight="bold" lengthAdjust="spacingAndGlyphs" textLength="85" x="629" y="344.0903">gNB to UPF</text><polygon fill="#000000" points="69,416.6875,59,420.6875,69,424.6875,65,420.6875" style="stroke: #000000; stroke-width: 1.0;"/><line style="stroke: #000000; stroke-width: 1.0;" x1="63" x2="617.5" y1="420.6875" y2="420.6875"/><text fill="#000000" font-family="sans-serif" font-size="13" lengthAdjust="spacingAndGlyphs" textLength="100" x="75" y="385.356">4337, PFCP rsp.</text><text fill="#000000" font-family="sans-serif" font-size="13" lengthAdjust="spacingAndGlyphs" textLength="239" x="75" y="400.4888">PFCP Association Setup Response (6)</text><text fill="#000000" font-family="sans-serif" font-size="13" lengthAdjust="spacingAndGlyphs" textLength="196" x="75" y="415.6216">+345.331s (19:37:23.966.094)</text><path d="M623,386.4219 L623,411.4219 L790,411.4219 L790,396.4219 L780,386.4219 L623,386.4219 " fill="#FFEAC2" style="stroke: #FFFFFF; stroke-width: 1.0;"/><path d="M780,386.4219 L780,396.4219 L790,396.4219 L780,386.4219 " fill="#FFEAC2" style="stroke: #FFFFFF; stroke-width: 1.0;"/><text fill="#000000" font-family="sans-serif" font-size="13" font-weight="bold" lengthAdjust="spacingAndGlyphs" textLength="146" x="629" y="403.4888">UPF to Malicious UE</text><polygon fill="#000000" points="260.5,476.0859,250.5,480.0859,260.5,484.0859,256.5,480.0859" style="stroke: #000000; stroke-width: 1.0;"/><line style="stroke: #000000; stroke-width: 1.0;" x1="254.5" x2="617.5" y1="480.0859" y2="480.0859"/><text fill="#000000" font-family="sans-serif" font-size="13" lengthAdjust="spacingAndGlyphs" textLength="100" x="266.5" y="444.7544">4338, PFCP rsp.</text><text fill="#000000" font-family="sans-serif" font-size="13" lengthAdjust="spacingAndGlyphs" textLength="239" x="266.5" y="459.8872">PFCP Association Setup Response (6)</text><text fill="#000000" font-family="sans-serif" font-size="13" lengthAdjust="spacingAndGlyphs" textLength="196" x="266.5" y="475.02">+345.331s (19:37:23.966.152)</text><path d="M623,445.8203 L623,470.8203 L729,470.8203 L729,455.8203 L719,445.8203 L623,445.8203 " fill="#FFEAC2" style="stroke: #FFFFFF; stroke-width: 1.0;"/><path d="M719,445.8203 L719,455.8203 L729,455.8203 L719,445.8203 " fill="#FFEAC2" style="stroke: #FFFFFF; stroke-width: 1.0;"/><text fill="#000000" font-family="sans-serif" font-size="13" font-weight="bold" lengthAdjust="spacingAndGlyphs" textLength="85" x="629" y="462.8872">UPF to gNB</text><polygon fill="#000000" points="606.5,535.4844,616.5,539.4844,606.5,543.4844,610.5,539.4844" style="stroke: #000000; stroke-width: 1.0;"/><line style="stroke: #000000; stroke-width: 1.0;" x1="249.5" x2="612.5" y1="539.4844" y2="539.4844"/><text fill="#000000" font-family="sans-serif" font-size="13" lengthAdjust="spacingAndGlyphs" textLength="345" x="256.5" y="504.1528">4339, &lt;PORT_UNREACHABLE&gt; PFCP,GTP&lt;ICMP&gt; rsp.</text><text fill="#000000" font-family="sans-serif" font-size="13" lengthAdjust="spacingAndGlyphs" textLength="239" x="256.5" y="519.2856">PFCP Association Setup Response (6)</text><text fill="#000000" font-family="sans-serif" font-size="13" lengthAdjust="spacingAndGlyphs" textLength="196" x="256.5" y="534.4185">+345.334s (19:37:23.970.004)</text><path d="M623,505.2188 L623,530.2188 L729,530.2188 L729,515.2188 L719,505.2188 L623,505.2188 " fill="#D7FEFC" style="stroke: #FFFFFF; stroke-width: 1.0;"/><path d="M719,505.2188 L719,515.2188 L729,515.2188 L719,505.2188 " fill="#D7FEFC" style="stroke: #FFFFFF; stroke-width: 1.0;"/><text fill="#000000" font-family="sans-serif" font-size="13" font-weight="bold" lengthAdjust="spacingAndGlyphs" textLength="85" x="629" y="522.2856">gNB to UPF</text><polygon fill="#000000" points="606.5,594.8828,616.5,598.8828,606.5,602.8828,610.5,598.8828" style="stroke: #000000; stroke-width: 1.0;"/><line style="stroke: #000000; stroke-width: 1.0;" x1="249.5" x2="612.5" y1="598.8828" y2="598.8828"/><text fill="#000000" font-family="sans-serif" font-size="13" lengthAdjust="spacingAndGlyphs" textLength="101" x="256.5" y="563.5513">4341, PFCP req.</text><text fill="#000000" font-family="sans-serif" font-size="13" lengthAdjust="spacingAndGlyphs" textLength="229" x="256.5" y="578.6841">PFCP Session Deletion Request (54)</text><text fill="#000000" font-family="sans-serif" font-size="13" lengthAdjust="spacingAndGlyphs" textLength="196" x="256.5" y="593.8169">+345.344s (19:37:23.979.791)</text><path d="M623,564.6172 L623,589.6172 L729,589.6172 L729,574.6172 L719,564.6172 L623,564.6172 " fill="#FFC2D9" style="stroke: #FFFFFF; stroke-width: 1.0;"/><path d="M719,564.6172 L719,574.6172 L729,574.6172 L719,564.6172 " fill="#FFC2D9" style="stroke: #FFFFFF; stroke-width: 1.0;"/><text fill="#000000" font-family="sans-serif" font-size="13" font-weight="bold" lengthAdjust="spacingAndGlyphs" textLength="85" x="629" y="581.6841">gNB to UPF</text><polygon fill="#000000" points="69,654.2813,59,658.2813,69,662.2813,65,658.2813" style="stroke: #000000; stroke-width: 1.0;"/><line style="stroke: #000000; stroke-width: 1.0;" x1="63" x2="617.5" y1="658.2813" y2="658.2813"/><text fill="#000000" font-family="sans-serif" font-size="13" lengthAdjust="spacingAndGlyphs" textLength="100" x="75" y="622.9497">4343, PFCP rsp.</text><text fill="#000000" font-family="sans-serif" font-size="13" lengthAdjust="spacingAndGlyphs" textLength="239" x="75" y="638.0825">PFCP Session Deletion Response (55)</text><text fill="#000000" font-family="sans-serif" font-size="13" lengthAdjust="spacingAndGlyphs" textLength="196" x="75" y="653.2153">+345.345s (19:37:23.980.052)</text><path d="M623,624.0156 L623,649.0156 L790,649.0156 L790,634.0156 L780,624.0156 L623,624.0156 " fill="#FFEAC2" style="stroke: #FFFFFF; stroke-width: 1.0;"/><path d="M780,624.0156 L780,634.0156 L790,634.0156 L780,624.0156 " fill="#FFEAC2" style="stroke: #FFFFFF; stroke-width: 1.0;"/><text fill="#000000" font-family="sans-serif" font-size="13" font-weight="bold" lengthAdjust="spacingAndGlyphs" textLength="146" x="629" y="641.0825">UPF to Malicious UE</text><polygon fill="#000000" points="260.5,713.6797,250.5,717.6797,260.5,721.6797,256.5,717.6797" style="stroke: #000000; stroke-width: 1.0;"/><line style="stroke: #000000; stroke-width: 1.0;" x1="254.5" x2="617.5" y1="717.6797" y2="717.6797"/><text fill="#000000" font-family="sans-serif" font-size="13" lengthAdjust="spacingAndGlyphs" textLength="100" x="266.5" y="682.3481">4344, PFCP rsp.</text><text fill="#000000" font-family="sans-serif" font-size="13" lengthAdjust="spacingAndGlyphs" textLength="239" x="266.5" y="697.481">PFCP Session Deletion Response (55)</text><text fill="#000000" font-family="sans-serif" font-size="13" lengthAdjust="spacingAndGlyphs" textLength="196" x="266.5" y="712.6138">+345.345s (19:37:23.980.203)</text><path d="M623,683.4141 L623,708.4141 L729,708.4141 L729,693.4141 L719,683.4141 L623,683.4141 " fill="#FFEAC2" style="stroke: #FFFFFF; stroke-width: 1.0;"/><path d="M719,683.4141 L719,693.4141 L729,693.4141 L719,683.4141 " fill="#FFEAC2" style="stroke: #FFFFFF; stroke-width: 1.0;"/><text fill="#000000" font-family="sans-serif" font-size="13" font-weight="bold" lengthAdjust="spacingAndGlyphs" textLength="85" x="629" y="700.481">UPF to gNB</text><polygon fill="#000000" points="606.5,773.0781,616.5,777.0781,606.5,781.0781,610.5,777.0781" style="stroke: #000000; stroke-width: 1.0;"/><line style="stroke: #000000; stroke-width: 1.0;" x1="249.5" x2="612.5" y1="777.0781" y2="777.0781"/><text fill="#000000" font-family="sans-serif" font-size="13" lengthAdjust="spacingAndGlyphs" textLength="345" x="256.5" y="741.7466">4345, &lt;PORT_UNREACHABLE&gt; PFCP,GTP&lt;ICMP&gt; rsp.</text><text fill="#000000" font-family="sans-serif" font-size="13" lengthAdjust="spacingAndGlyphs" textLength="239" x="256.5" y="756.8794">PFCP Session Deletion Response (55)</text><text fill="#000000" font-family="sans-serif" font-size="13" lengthAdjust="spacingAndGlyphs" textLength="196" x="256.5" y="772.0122">+345.346s (19:37:23.981.585)</text><path d="M623,742.8125 L623,767.8125 L729,767.8125 L729,752.8125 L719,742.8125 L623,742.8125 " fill="#D7FEFC" style="stroke: #FFFFFF; stroke-width: 1.0;"/><path d="M719,742.8125 L719,752.8125 L729,752.8125 L719,742.8125 " fill="#D7FEFC" style="stroke: #FFFFFF; stroke-width: 1.0;"/><text fill="#000000" font-family="sans-serif" font-size="13" font-weight="bold" lengthAdjust="spacingAndGlyphs" textLength="85" x="629" y="759.8794">gNB to UPF</text><polygon fill="#000000" points="606.5,817.3438,616.5,821.3438,606.5,825.3438,610.5,821.3438" style="stroke: #000000; stroke-width: 1.0;"/><line style="stroke: #000000; stroke-width: 1.0;" x1="249.5" x2="612.5" y1="821.3438" y2="821.3438"/><text fill="#000000" font-family="sans-serif" font-size="13" lengthAdjust="spacingAndGlyphs" textLength="178" x="256.5" y="801.145">4406, GTP&lt;ICMP&gt; ping req.</text><text fill="#000000" font-family="sans-serif" font-size="13" lengthAdjust="spacingAndGlyphs" textLength="196" x="256.5" y="816.2778">+349.317s (19:37:27.952.887)</text><path d="M623,794.6445 L623,819.6445 L729,819.6445 L729,804.6445 L719,794.6445 L623,794.6445 " fill="#5C8001" style="stroke: #FFFFFF; stroke-width: 1.0;"/><path d="M719,794.6445 L719,804.6445 L729,804.6445 L719,794.6445 " fill="#5C8001" style="stroke: #FFFFFF; stroke-width: 1.0;"/><text fill="#000000" font-family="sans-serif" font-size="13" font-weight="bold" lengthAdjust="spacingAndGlyphs" textLength="85" x="629" y="811.7114">gNB to UPF</text><polygon fill="#000000" points="826.5,861.6094,836.5,865.6094,826.5,869.6094,830.5,865.6094" style="stroke: #000000; stroke-width: 1.0;"/><line style="stroke: #000000; stroke-width: 1.0;" x1="58" x2="832.5" y1="865.6094" y2="865.6094"/><text fill="#000000" font-family="sans-serif" font-size="13" lengthAdjust="spacingAndGlyphs" textLength="131" x="65" y="845.4106">4407, ICMP ping req.</text><text fill="#000000" font-family="sans-serif" font-size="13" lengthAdjust="spacingAndGlyphs" textLength="196" x="65" y="860.5435">+349.317s (19:37:27.953.008)</text><path d="M843,838.9102 L843,863.9102 L1032,863.9102 L1032,848.9102 L1022,838.9102 L843,838.9102 " fill="#5C8001" style="stroke: #FFFFFF; stroke-width: 1.0;"/><path d="M1022,838.9102 L1022,848.9102 L1032,848.9102 L1022,838.9102 " fill="#5C8001" style="stroke: #FFFFFF; stroke-width: 1.0;"/><text fill="#000000" font-family="sans-serif" font-size="13" font-weight="bold" lengthAdjust="spacingAndGlyphs" textLength="168" x="849" y="855.9771">Malicious UE to 8.8.8.8</text><polygon fill="#000000" points="826.5,905.875,836.5,909.875,826.5,913.875,830.5,909.875" style="stroke: #000000; stroke-width: 1.0;"/><line style="stroke: #000000; stroke-width: 1.0;" x1="618.5" x2="832.5" y1="909.875" y2="909.875"/><text fill="#000000" font-family="sans-serif" font-size="13" lengthAdjust="spacingAndGlyphs" textLength="131" x="625.5" y="889.6763">4408, ICMP ping req.</text><text fill="#000000" font-family="sans-serif" font-size="13" lengthAdjust="spacingAndGlyphs" textLength="196" x="625.5" y="904.8091">+349.318s (19:37:27.953.039)</text><path d="M843,883.1758 L843,908.1758 L969,908.1758 L969,893.1758 L959,883.1758 L843,883.1758 " fill="#5C8001" style="stroke: #FFFFFF; stroke-width: 1.0;"/><path d="M959,883.1758 L959,893.1758 L969,893.1758 L959,883.1758 " fill="#5C8001" style="stroke: #FFFFFF; stroke-width: 1.0;"/><text fill="#000000" font-family="sans-serif" font-size="13" font-weight="bold" lengthAdjust="spacingAndGlyphs" textLength="105" x="849" y="900.2427">UPF to 8.8.8.8</text><polygon fill="#000000" points="629.5,950.1406,619.5,954.1406,629.5,958.1406,625.5,954.1406" style="stroke: #000000; stroke-width: 1.0;"/><line style="stroke: #000000; stroke-width: 1.0;" x1="623.5" x2="837.5" y1="954.1406" y2="954.1406"/><text fill="#000000" font-family="sans-serif" font-size="13" lengthAdjust="spacingAndGlyphs" textLength="130" x="635.5" y="933.9419">4409, ICMP ping rsp.</text><text fill="#000000" font-family="sans-serif" font-size="13" lengthAdjust="spacingAndGlyphs" textLength="196" x="635.5" y="949.0747">+349.351s (19:37:27.986.845)</text><path d="M843,927.4414 L843,952.4414 L969,952.4414 L969,937.4414 L959,927.4414 L843,927.4414 " fill="#EDFEC2" style="stroke: #FFFFFF; stroke-width: 1.0;"/><path d="M959,927.4414 L959,937.4414 L969,937.4414 L959,927.4414 " fill="#EDFEC2" style="stroke: #FFFFFF; stroke-width: 1.0;"/><text fill="#000000" font-family="sans-serif" font-size="13" font-weight="bold" lengthAdjust="spacingAndGlyphs" textLength="105" x="849" y="944.5083">8.8.8.8 to UPF</text><polygon fill="#000000" points="69,994.4063,59,998.4063,69,1002.4063,65,998.4063" style="stroke: #000000; stroke-width: 1.0;"/><line style="stroke: #000000; stroke-width: 1.0;" x1="63" x2="837.5" y1="998.4063" y2="998.4063"/><text fill="#000000" font-family="sans-serif" font-size="13" lengthAdjust="spacingAndGlyphs" textLength="130" x="75" y="978.2075">4410, ICMP ping rsp.</text><text fill="#000000" font-family="sans-serif" font-size="13" lengthAdjust="spacingAndGlyphs" textLength="188" x="75" y="993.3403">+349.351s (19:37:27.986.99)</text><path d="M843,971.707 L843,996.707 L1032,996.707 L1032,981.707 L1022,971.707 L843,971.707 " fill="#EDFEC2" style="stroke: #FFFFFF; stroke-width: 1.0;"/><path d="M1022,971.707 L1022,981.707 L1032,981.707 L1022,971.707 " fill="#EDFEC2" style="stroke: #FFFFFF; stroke-width: 1.0;"/><text fill="#000000" font-family="sans-serif" font-size="13" font-weight="bold" lengthAdjust="spacingAndGlyphs" textLength="168" x="849" y="988.7739">8.8.8.8 to Malicious UE</text><polygon fill="#000000" points="260.5,1038.6719,250.5,1042.6719,260.5,1046.6719,256.5,1042.6719" style="stroke: #000000; stroke-width: 1.0;"/><line style="stroke: #000000; stroke-width: 1.0;" x1="254.5" x2="617.5" y1="1042.6719" y2="1042.6719"/><text fill="#000000" font-family="sans-serif" font-size="13" lengthAdjust="spacingAndGlyphs" textLength="177" x="266.5" y="1022.4731">4411, GTP&lt;ICMP&gt; ping rsp.</text><text fill="#000000" font-family="sans-serif" font-size="13" lengthAdjust="spacingAndGlyphs" textLength="196" x="266.5" y="1037.606">+349.352s (19:37:27.987.329)</text><path d="M623,1015.9727 L623,1040.9727 L729,1040.9727 L729,1025.9727 L719,1015.9727 L623,1015.9727 " fill="#EDFEC2" style="stroke: #FFFFFF; stroke-width: 1.0;"/><path d="M719,1015.9727 L719,1025.9727 L729,1025.9727 L719,1015.9727 " fill="#EDFEC2" style="stroke: #FFFFFF; stroke-width: 1.0;"/><text fill="#000000" font-family="sans-serif" font-size="13" font-weight="bold" lengthAdjust="spacingAndGlyphs" textLength="85" x="629" y="1033.0396">UPF to gNB</text><polygon fill="#000000" points="606.5,1082.9375,616.5,1086.9375,606.5,1090.9375,610.5,1086.9375" style="stroke: #000000; stroke-width: 1.0;"/><line style="stroke: #000000; stroke-width: 1.0;" x1="249.5" x2="612.5" y1="1086.9375" y2="1086.9375"/><text fill="#000000" font-family="sans-serif" font-size="13" lengthAdjust="spacingAndGlyphs" textLength="178" x="256.5" y="1066.7388">4412, GTP&lt;ICMP&gt; ping req.</text><text fill="#000000" font-family="sans-serif" font-size="13" lengthAdjust="spacingAndGlyphs" textLength="188" x="256.5" y="1081.8716">+349.381s (19:37:28.16.781)</text><path d="M623,1060.2383 L623,1085.2383 L729,1085.2383 L729,1070.2383 L719,1060.2383 L623,1060.2383 " fill="#5C8001" style="stroke: #FFFFFF; stroke-width: 1.0;"/><path d="M719,1060.2383 L719,1070.2383 L729,1070.2383 L719,1060.2383 " fill="#5C8001" style="stroke: #FFFFFF; stroke-width: 1.0;"/><text fill="#000000" font-family="sans-serif" font-size="13" font-weight="bold" lengthAdjust="spacingAndGlyphs" textLength="85" x="629" y="1077.3052">gNB to UPF</text><!--MD5=[54f28e1e1c71d81904803d73ba3f13fc]
@startuml
skinparam shadowing false
skinparam NoteBorderColor white
skinparam sequence {
    ArrowColor black
    LifeLineBorderColor black
    LifeLineBackgroundColor black
    ParticipantBorderColor white
    ParticipantBackgroundColor #e6e6e6
}

participant "Malicious UE"
participant "Targeted UE"
participant "gNB"
participant "AMF"
participant "SMF"
participant "UPF"
participant "SGWU"
participant "SGWC"

participant "8.8.8.8"

"gNB" -> "UPF": 4248, GTP<ICMP> ping req.\n+336.876s (19:37:15.511.346)

note right #5C8001
**gNB to UPF**
end note

"Targeted UE" -> "8.8.8.8": 4249, ICMP ping req.\n+336.876s (19:37:15.511.446)

note right #5C8001
**Targeted UE to 8.8.8.8**
end note

"UPF" -> "8.8.8.8": 4250, ICMP ping req.\n+336.876s (19:37:15.511.472)

note right #5C8001
**UPF to 8.8.8.8**
end note

"8.8.8.8" -> "UPF": 4251, ICMP ping rsp.\n+336.903s (19:37:15.538.321)

note right #EDFEC2
**8.8.8.8 to UPF**
end note

"8.8.8.8" -> "Targeted UE": 4252, ICMP ping rsp.\n+336.903s (19:37:15.538.348)

note right #EDFEC2
**8.8.8.8 to Targeted UE**
end note

"UPF" -> "gNB": 4253, GTP<ICMP> ping rsp.\n+336.903s (19:37:15.538.465)

note right #EDFEC2
**UPF to gNB**
end note

"gNB" -> "UPF": 4335, PFCP req.\nPFCP Association Setup Request (5)\n+345.330s (19:37:23.965.739)

note right #FFC2D9
**gNB to UPF**
end note

"UPF" -> "Malicious UE": 4337, PFCP rsp.\nPFCP Association Setup Response (6)\n+345.331s (19:37:23.966.094)

note right #FFEAC2
**UPF to Malicious UE**
end note

"UPF" -> "gNB": 4338, PFCP rsp.\nPFCP Association Setup Response (6)\n+345.331s (19:37:23.966.152)

note right #FFEAC2
**UPF to gNB**
end note

"gNB" -> "UPF": 4339, <PORT_UNREACHABLE> PFCP,GTP<ICMP> rsp.\nPFCP Association Setup Response (6)\n+345.334s (19:37:23.970.004)

note right #D7FEFC
**gNB to UPF**
end note

"gNB" -> "UPF": 4341, PFCP req.\nPFCP Session Deletion Request (54)\n+345.344s (19:37:23.979.791)

note right #FFC2D9
**gNB to UPF**
end note

"UPF" -> "Malicious UE": 4343, PFCP rsp.\nPFCP Session Deletion Response (55)\n+345.345s (19:37:23.980.052)

note right #FFEAC2
**UPF to Malicious UE**
end note

"UPF" -> "gNB": 4344, PFCP rsp.\nPFCP Session Deletion Response (55)\n+345.345s (19:37:23.980.203)

note right #FFEAC2
**UPF to gNB**
end note

"gNB" -> "UPF": 4345, <PORT_UNREACHABLE> PFCP,GTP<ICMP> rsp.\nPFCP Session Deletion Response (55)\n+345.346s (19:37:23.981.585)

note right #D7FEFC
**gNB to UPF**
end note

"gNB" -> "UPF": 4406, GTP<ICMP> ping req.\n+349.317s (19:37:27.952.887)

note right #5C8001
**gNB to UPF**
end note

"Malicious UE" -> "8.8.8.8": 4407, ICMP ping req.\n+349.317s (19:37:27.953.008)

note right #5C8001
**Malicious UE to 8.8.8.8**
end note

"UPF" -> "8.8.8.8": 4408, ICMP ping req.\n+349.318s (19:37:27.953.039)

note right #5C8001
**UPF to 8.8.8.8**
end note

"8.8.8.8" -> "UPF": 4409, ICMP ping rsp.\n+349.351s (19:37:27.986.845)

note right #EDFEC2
**8.8.8.8 to UPF**
end note

"8.8.8.8" -> "Malicious UE": 4410, ICMP ping rsp.\n+349.351s (19:37:27.986.99)

note right #EDFEC2
**8.8.8.8 to Malicious UE**
end note

"UPF" -> "gNB": 4411, GTP<ICMP> ping rsp.\n+349.352s (19:37:27.987.329)

note right #EDFEC2
**UPF to gNB**
end note

"gNB" -> "UPF": 4412, GTP<ICMP> ping req.\n+349.381s (19:37:28.16.781)

note right #5C8001
**gNB to UPF**
end note

@enduml

PlantUML version 1.2019.12(Sun Nov 03 11:24:54 CET 2019)
(APACHE source distribution)
Java Runtime: OpenJDK Runtime Environment
JVM: OpenJDK 64-Bit Server VM
Java Version: 11.0.17+8-post-Ubuntu-1ubuntu220.04
Operating System: Linux
Default Encoding: UTF-8
Language: en
Country: US
--></g></svg>