<?xml version="1.0" encoding="UTF-8" standalone="no"?><svg xmlns="http://www.w3.org/2000/svg" xmlns:xlink="http://www.w3.org/1999/xlink" contentScriptType="application/ecmascript" contentStyleType="text/css" height="905px" preserveAspectRatio="none" style="width:1020px;height:905px;" version="1.1" viewBox="0 0 1020 905" width="1020px" zoomAndPan="magnify"><defs/><g><line style="stroke: #000000; stroke-width: 1.0; stroke-dasharray: 5.0,5.0;" x1="58" x2="58" y1="34.2969" y2="865.1484"/><line style="stroke: #000000; stroke-width: 1.0; stroke-dasharray: 5.0,5.0;" x1="168" x2="168" y1="34.2969" y2="865.1484"/><line style="stroke: #000000; stroke-width: 1.0; stroke-dasharray: 5.0,5.0;" x1="249" x2="249" y1="34.2969" y2="865.1484"/><line style="stroke: #000000; stroke-width: 1.0; stroke-dasharray: 5.0,5.0;" x1="302" x2="302" y1="34.2969" y2="865.1484"/><line style="stroke: #000000; stroke-width: 1.0; stroke-dasharray: 5.0,5.0;" x1="355" x2="355" y1="34.2969" y2="865.1484"/><line style="stroke: #000000; stroke-width: 1.0; stroke-dasharray: 5.0,5.0;" x1="618" x2="618" y1="34.2969" y2="865.1484"/><line style="stroke: #000000; stroke-width: 1.0; stroke-dasharray: 5.0,5.0;" x1="677" x2="677" y1="34.2969" y2="865.1484"/><line style="stroke: #000000; stroke-width: 1.0; stroke-dasharray: 5.0,5.0;" x1="744" x2="744" y1="34.2969" y2="865.1484"/><line style="stroke: #000000; stroke-width: 1.0; stroke-dasharray: 5.0,5.0;" x1="814" x2="814" y1="34.2969" y2="865.1484"/><rect fill="#E6E6E6" height="30.2969" style="stroke: #FFFFFF; stroke-width: 1.5;" width="100" x="8" y="3"/><text fill="#000000" font-family="sans-serif" font-size="14" lengthAdjust="spacingAndGlyphs" textLength="86" x="15" y="22.9951">Malicious UE</text><rect fill="#E6E6E6" height="30.2969" style="stroke: #FFFFFF; stroke-width: 1.5;" width="100" x="8" y="864.1484"/><text fill="#000000" font-family="sans-serif" font-size="14" lengthAdjust="spacingAndGlyphs" textLength="86" x="15" y="884.1436">Malicious UE</text><rect fill="#E6E6E6" height="30.2969" style="stroke: #FFFFFF; stroke-width: 1.5;" width="100" x="118" y="3"/><text fill="#000000" font-family="sans-serif" font-size="14" lengthAdjust="spacingAndGlyphs" textLength="86" x="125" y="22.9951">Targeted UE</text><rect fill="#E6E6E6" height="30.2969" style="stroke: #FFFFFF; stroke-width: 1.5;" width="100" x="118" y="864.1484"/><text fill="#000000" font-family="sans-serif" font-size="14" lengthAdjust="spacingAndGlyphs" textLength="86" x="125" y="884.1436">Targeted UE</text><rect fill="#E6E6E6" height="30.2969" style="stroke: #FFFFFF; stroke-width: 1.5;" width="43" x="228" y="3"/><text fill="#000000" font-family="sans-serif" font-size="14" lengthAdjust="spacingAndGlyphs" textLength="29" x="235" y="22.9951">gNB</text><rect fill="#E6E6E6" height="30.2969" style="stroke: #FFFFFF; stroke-width: 1.5;" width="43" x="228" y="864.1484"/><text fill="#000000" font-family="sans-serif" font-size="14" lengthAdjust="spacingAndGlyphs" textLength="29" x="235" y="884.1436">gNB</text><rect fill="#E6E6E6" height="30.2969" style="stroke: #FFFFFF; stroke-width: 1.5;" width="43" x="281" y="3"/><text fill="#000000" font-family="sans-serif" font-size="14" lengthAdjust="spacingAndGlyphs" textLength="29" x="288" y="22.9951">AMF</text><rect fill="#E6E6E6" height="30.2969" style="stroke: #FFFFFF; stroke-width: 1.5;" width="43" x="281" y="864.1484"/><text fill="#000000" font-family="sans-serif" font-size="14" lengthAdjust="spacingAndGlyphs" textLength="29" x="288" y="884.1436">AMF</text><rect fill="#E6E6E6" height="30.2969" style="stroke: #FFFFFF; stroke-width: 1.5;" width="43" x="334" y="3"/><text fill="#000000" font-family="sans-serif" font-size="14" lengthAdjust="spacingAndGlyphs" textLength="29" x="341" y="22.9951">SMF</text><rect fill="#E6E6E6" height="30.2969" style="stroke: #FFFFFF; stroke-width: 1.5;" width="43" x="334" y="864.1484"/><text fill="#000000" font-family="sans-serif" font-size="14" lengthAdjust="spacingAndGlyphs" textLength="29" x="341" y="884.1436">SMF</text><rect fill="#E6E6E6" height="30.2969" style="stroke: #FFFFFF; stroke-width: 1.5;" width="41" x="598" y="3"/><text fill="#000000" font-family="sans-serif" font-size="14" lengthAdjust="spacingAndGlyphs" textLength="27" x="605" y="22.9951">UPF</text><rect fill="#E6E6E6" height="30.2969" style="stroke: #FFFFFF; stroke-width: 1.5;" width="41" x="598" y="864.1484"/><text fill="#000000" font-family="sans-serif" font-size="14" lengthAdjust="spacingAndGlyphs" textLength="27" x="605" y="884.1436">UPF</text><rect fill="#E6E6E6" height="30.2969" style="stroke: #FFFFFF; stroke-width: 1.5;" width="57" x="649" y="3"/><text fill="#000000" font-family="sans-serif" font-size="14" lengthAdjust="spacingAndGlyphs" textLength="43" x="656" y="22.9951">SGWU</text><rect fill="#E6E6E6" height="30.2969" style="stroke: #FFFFFF; stroke-width: 1.5;" width="57" x="649" y="864.1484"/><text fill="#000000" font-family="sans-serif" font-size="14" lengthAdjust="spacingAndGlyphs" textLength="43" x="656" y="884.1436">SGWU</text><rect fill="#E6E6E6" height="30.2969" style="stroke: #FFFFFF; stroke-width: 1.5;" width="57" x="716" y="3"/><text fill="#000000" font-family="sans-serif" font-size="14" lengthAdjust="spacingAndGlyphs" textLength="43" x="723" y="22.9951">SGWC</text><rect fill="#E6E6E6" height="30.2969" style="stroke: #FFFFFF; stroke-width: 1.5;" width="57" x="716" y="864.1484"/><text fill="#000000" font-family="sans-serif" font-size="14" lengthAdjust="spacingAndGlyphs" textLength="43" x="723" y="884.1436">SGWC</text><rect fill="#E6E6E6" height="30.2969" style="stroke: #FFFFFF; stroke-width: 1.5;" width="62" x="783" y="3"/><text fill="#000000" font-family="sans-serif" font-size="14" lengthAdjust="spacingAndGlyphs" textLength="48" x="790" y="22.9951">8.8.8.8</text><rect fill="#E6E6E6" height="30.2969" style="stroke: #FFFFFF; stroke-width: 1.5;" width="62" x="783" y="864.1484"/><text fill="#000000" font-family="sans-serif" font-size="14" lengthAdjust="spacingAndGlyphs" textLength="48" x="790" y="884.1436">8.8.8.8</text><polygon fill="#000000" points="606.5,64.4297,616.5,68.4297,606.5,72.4297,610.5,68.4297" style="stroke: #000000; stroke-width: 1.0;"/><line style="stroke: #000000; stroke-width: 1.0;" x1="249.5" x2="612.5" y1="68.4297" y2="68.4297"/><text fill="#000000" font-family="sans-serif" font-size="13" lengthAdjust="spacingAndGlyphs" textLength="178" x="256.5" y="63.3638">4248, GTP&lt;ICMP&gt; ping req.</text><path d="M623,49.2969 L623,74.2969 L729,74.2969 L729,59.2969 L719,49.2969 L623,49.2969 " fill="#5C8001" style="stroke: #FFFFFF; stroke-width: 1.0;"/><path d="M719,49.2969 L719,59.2969 L729,59.2969 L719,49.2969 " fill="#5C8001" style="stroke: #FFFFFF; stroke-width: 1.0;"/><text fill="#000000" font-family="sans-serif" font-size="13" font-weight="bold" lengthAdjust="spacingAndGlyphs" textLength="85" x="629" y="66.3638">gNB to UPF</text><polygon fill="#000000" points="802,99.5625,812,103.5625,802,107.5625,806,103.5625" style="stroke: #000000; stroke-width: 1.0;"/><line style="stroke: #000000; stroke-width: 1.0;" x1="168" x2="808" y1="103.5625" y2="103.5625"/><text fill="#000000" font-family="sans-serif" font-size="13" lengthAdjust="spacingAndGlyphs" textLength="131" x="175" y="98.4966">4249, ICMP ping req.</text><path d="M819,84.4297 L819,109.4297 L1007,109.4297 L1007,94.4297 L997,84.4297 L819,84.4297 " fill="#5C8001" style="stroke: #FFFFFF; stroke-width: 1.0;"/><path d="M997,84.4297 L997,94.4297 L1007,94.4297 L997,84.4297 " fill="#5C8001" style="stroke: #FFFFFF; stroke-width: 1.0;"/><text fill="#000000" font-family="sans-serif" font-size="13" font-weight="bold" lengthAdjust="spacingAndGlyphs" textLength="167" x="825" y="101.4966">Targeted UE to 8.8.8.8</text><polygon fill="#000000" points="802,134.6953,812,138.6953,802,142.6953,806,138.6953" style="stroke: #000000; stroke-width: 1.0;"/><line style="stroke: #000000; stroke-width: 1.0;" x1="618.5" x2="808" y1="138.6953" y2="138.6953"/><text fill="#000000" font-family="sans-serif" font-size="13" lengthAdjust="spacingAndGlyphs" textLength="131" x="625.5" y="133.6294">4250, ICMP ping req.</text><path d="M819,119.5625 L819,144.5625 L945,144.5625 L945,129.5625 L935,119.5625 L819,119.5625 " fill="#5C8001" style="stroke: #FFFFFF; stroke-width: 1.0;"/><path d="M935,119.5625 L935,129.5625 L945,129.5625 L935,119.5625 " fill="#5C8001" style="stroke: #FFFFFF; stroke-width: 1.0;"/><text fill="#000000" font-family="sans-serif" font-size="13" font-weight="bold" lengthAdjust="spacingAndGlyphs" textLength="105" x="825" y="136.6294">UPF to 8.8.8.8</text><polygon fill="#000000" points="629.5,169.8281,619.5,173.8281,629.5,177.8281,625.5,173.8281" style="stroke: #000000; stroke-width: 1.0;"/><line style="stroke: #000000; stroke-width: 1.0;" x1="623.5" x2="813" y1="173.8281" y2="173.8281"/><text fill="#000000" font-family="sans-serif" font-size="13" lengthAdjust="spacingAndGlyphs" textLength="130" x="635.5" y="168.7622">4251, ICMP ping rsp.</text><path d="M819,154.6953 L819,179.6953 L945,179.6953 L945,164.6953 L935,154.6953 L819,154.6953 " fill="#EDFEC2" style="stroke: #FFFFFF; stroke-width: 1.0;"/><path d="M935,154.6953 L935,164.6953 L945,164.6953 L935,154.6953 " fill="#EDFEC2" style="stroke: #FFFFFF; stroke-width: 1.0;"/><text fill="#000000" font-family="sans-serif" font-size="13" font-weight="bold" lengthAdjust="spacingAndGlyphs" textLength="105" x="825" y="171.7622">8.8.8.8 to UPF</text><polygon fill="#000000" points="179,204.9609,169,208.9609,179,212.9609,175,208.9609" style="stroke: #000000; stroke-width: 1.0;"/><line style="stroke: #000000; stroke-width: 1.0;" x1="173" x2="813" y1="208.9609" y2="208.9609"/><text fill="#000000" font-family="sans-serif" font-size="13" lengthAdjust="spacingAndGlyphs" textLength="130" x="185" y="203.895">4252, ICMP ping rsp.</text><path d="M819,189.8281 L819,214.8281 L1007,214.8281 L1007,199.8281 L997,189.8281 L819,189.8281 " fill="#EDFEC2" style="stroke: #FFFFFF; stroke-width: 1.0;"/><path d="M997,189.8281 L997,199.8281 L1007,199.8281 L997,189.8281 " fill="#EDFEC2" style="stroke: #FFFFFF; stroke-width: 1.0;"/><text fill="#000000" font-family="sans-serif" font-size="13" font-weight="bold" lengthAdjust="spacingAndGlyphs" textLength="167" x="825" y="206.895">8.8.8.8 to Targeted UE</text><polygon fill="#000000" points="260.5,240.0938,250.5,244.0938,260.5,248.0938,256.5,244.0938" style="stroke: #000000; stroke-width: 1.0;"/><line style="stroke: #000000; stroke-width: 1.0;" x1="254.5" x2="617.5" y1="244.0938" y2="244.0938"/><text fill="#000000" font-family="sans-serif" font-size="13" lengthAdjust="spacingAndGlyphs" textLength="177" x="266.5" y="239.0278">4253, GTP&lt;ICMP&gt; ping rsp.</text><path d="M623,224.9609 L623,249.9609 L729,249.9609 L729,234.9609 L719,224.9609 L623,224.9609 " fill="#EDFEC2" style="stroke: #FFFFFF; stroke-width: 1.0;"/><path d="M719,224.9609 L719,234.9609 L729,234.9609 L719,224.9609 " fill="#EDFEC2" style="stroke: #FFFFFF; stroke-width: 1.0;"/><text fill="#000000" font-family="sans-serif" font-size="13" font-weight="bold" lengthAdjust="spacingAndGlyphs" textLength="85" x="629" y="242.0278">UPF to gNB</text><polygon fill="#000000" points="606.5,287.3594,616.5,291.3594,606.5,295.3594,610.5,291.3594" style="stroke: #000000; stroke-width: 1.0;"/><line style="stroke: #000000; stroke-width: 1.0;" x1="249.5" x2="612.5" y1="291.3594" y2="291.3594"/><text fill="#000000" font-family="sans-serif" font-size="13" lengthAdjust="spacingAndGlyphs" textLength="101" x="256.5" y="271.1606">4335, PFCP req.</text><text fill="#000000" font-family="sans-serif" font-size="13" lengthAdjust="spacingAndGlyphs" textLength="229" x="256.5" y="286.2935">PFCP Association Setup Request (5)</text><path d="M623,264.6602 L623,289.6602 L729,289.6602 L729,274.6602 L719,264.6602 L623,264.6602 " fill="#FFC2D9" style="stroke: #FFFFFF; stroke-width: 1.0;"/><path d="M719,264.6602 L719,274.6602 L729,274.6602 L719,264.6602 " fill="#FFC2D9" style="stroke: #FFFFFF; stroke-width: 1.0;"/><text fill="#000000" font-family="sans-serif" font-size="13" font-weight="bold" lengthAdjust="spacingAndGlyphs" textLength="85" x="629" y="281.7271">gNB to UPF</text><polygon fill="#000000" points="69,331.625,59,335.625,69,339.625,65,335.625" style="stroke: #000000; stroke-width: 1.0;"/><line style="stroke: #000000; stroke-width: 1.0;" x1="63" x2="617.5" y1="335.625" y2="335.625"/><text fill="#000000" font-family="sans-serif" font-size="13" lengthAdjust="spacingAndGlyphs" textLength="100" x="75" y="315.4263">4337, PFCP rsp.</text><text fill="#000000" font-family="sans-serif" font-size="13" lengthAdjust="spacingAndGlyphs" textLength="239" x="75" y="330.5591">PFCP Association Setup Response (6)</text><path d="M623,308.9258 L623,333.9258 L790,333.9258 L790,318.9258 L780,308.9258 L623,308.9258 " fill="#FFEAC2" style="stroke: #FFFFFF; stroke-width: 1.0;"/><path d="M780,308.9258 L780,318.9258 L790,318.9258 L780,308.9258 " fill="#FFEAC2" style="stroke: #FFFFFF; stroke-width: 1.0;"/><text fill="#000000" font-family="sans-serif" font-size="13" font-weight="bold" lengthAdjust="spacingAndGlyphs" textLength="146" x="629" y="325.9927">UPF to Malicious UE</text><polygon fill="#000000" points="260.5,375.8906,250.5,379.8906,260.5,383.8906,256.5,379.8906" style="stroke: #000000; stroke-width: 1.0;"/><line style="stroke: #000000; stroke-width: 1.0;" x1="254.5" x2="617.5" y1="379.8906" y2="379.8906"/><text fill="#000000" font-family="sans-serif" font-size="13" lengthAdjust="spacingAndGlyphs" textLength="100" x="266.5" y="359.6919">4338, PFCP rsp.</text><text fill="#000000" font-family="sans-serif" font-size="13" lengthAdjust="spacingAndGlyphs" textLength="239" x="266.5" y="374.8247">PFCP Association Setup Response (6)</text><path d="M623,353.1914 L623,378.1914 L729,378.1914 L729,363.1914 L719,353.1914 L623,353.1914 " fill="#FFEAC2" style="stroke: #FFFFFF; stroke-width: 1.0;"/><path d="M719,353.1914 L719,363.1914 L729,363.1914 L719,353.1914 " fill="#FFEAC2" style="stroke: #FFFFFF; stroke-width: 1.0;"/><text fill="#000000" font-family="sans-serif" font-size="13" font-weight="bold" lengthAdjust="spacingAndGlyphs" textLength="85" x="629" y="370.2583">UPF to gNB</text><polygon fill="#000000" points="606.5,420.1563,616.5,424.1563,606.5,428.1563,610.5,424.1563" style="stroke: #000000; stroke-width: 1.0;"/><line style="stroke: #000000; stroke-width: 1.0;" x1="249.5" x2="612.5" y1="424.1563" y2="424.1563"/><text fill="#000000" font-family="sans-serif" font-size="13" lengthAdjust="spacingAndGlyphs" textLength="345" x="256.5" y="403.9575">4339, &lt;PORT_UNREACHABLE&gt; PFCP,GTP&lt;ICMP&gt; rsp.</text><text fill="#000000" font-family="sans-serif" font-size="13" lengthAdjust="spacingAndGlyphs" textLength="239" x="256.5" y="419.0903">PFCP Association Setup Response (6)</text><path d="M623,397.457 L623,422.457 L729,422.457 L729,407.457 L719,397.457 L623,397.457 " fill="#D7FEFC" style="stroke: #FFFFFF; stroke-width: 1.0;"/><path d="M719,397.457 L719,407.457 L729,407.457 L719,397.457 " fill="#D7FEFC" style="stroke: #FFFFFF; stroke-width: 1.0;"/><text fill="#000000" font-family="sans-serif" font-size="13" font-weight="bold" lengthAdjust="spacingAndGlyphs" textLength="85" x="629" y="414.5239">gNB to UPF</text><polygon fill="#000000" points="606.5,464.4219,616.5,468.4219,606.5,472.4219,610.5,468.4219" style="stroke: #000000; stroke-width: 1.0;"/><line style="stroke: #000000; stroke-width: 1.0;" x1="249.5" x2="612.5" y1="468.4219" y2="468.4219"/><text fill="#000000" font-family="sans-serif" font-size="13" lengthAdjust="spacingAndGlyphs" textLength="101" x="256.5" y="448.2231">4341, PFCP req.</text><text fill="#000000" font-family="sans-serif" font-size="13" lengthAdjust="spacingAndGlyphs" textLength="229" x="256.5" y="463.356">PFCP Session Deletion Request (54)</text><path d="M623,441.7227 L623,466.7227 L729,466.7227 L729,451.7227 L719,441.7227 L623,441.7227 " fill="#FFC2D9" style="stroke: #FFFFFF; stroke-width: 1.0;"/><path d="M719,441.7227 L719,451.7227 L729,451.7227 L719,441.7227 " fill="#FFC2D9" style="stroke: #FFFFFF; stroke-width: 1.0;"/><text fill="#000000" font-family="sans-serif" font-size="13" font-weight="bold" lengthAdjust="spacingAndGlyphs" textLength="85" x="629" y="458.7896">gNB to UPF</text><polygon fill="#000000" points="69,508.6875,59,512.6875,69,516.6875,65,512.6875" style="stroke: #000000; stroke-width: 1.0;"/><line style="stroke: #000000; stroke-width: 1.0;" x1="63" x2="617.5" y1="512.6875" y2="512.6875"/><text fill="#000000" font-family="sans-serif" font-size="13" lengthAdjust="spacingAndGlyphs" textLength="100" x="75" y="492.4888">4343, PFCP rsp.</text><text fill="#000000" font-family="sans-serif" font-size="13" lengthAdjust="spacingAndGlyphs" textLength="239" x="75" y="507.6216">PFCP Session Deletion Response (55)</text><path d="M623,485.9883 L623,510.9883 L790,510.9883 L790,495.9883 L780,485.9883 L623,485.9883 " fill="#FFEAC2" style="stroke: #FFFFFF; stroke-width: 1.0;"/><path d="M780,485.9883 L780,495.9883 L790,495.9883 L780,485.9883 " fill="#FFEAC2" style="stroke: #FFFFFF; stroke-width: 1.0;"/><text fill="#000000" font-family="sans-serif" font-size="13" font-weight="bold" lengthAdjust="spacingAndGlyphs" textLength="146" x="629" y="503.0552">UPF to Malicious UE</text><polygon fill="#000000" points="260.5,552.9531,250.5,556.9531,260.5,560.9531,256.5,556.9531" style="stroke: #000000; stroke-width: 1.0;"/><line style="stroke: #000000; stroke-width: 1.0;" x1="254.5" x2="617.5" y1="556.9531" y2="556.9531"/><text fill="#000000" font-family="sans-serif" font-size="13" lengthAdjust="spacingAndGlyphs" textLength="100" x="266.5" y="536.7544">4344, PFCP rsp.</text><text fill="#000000" font-family="sans-serif" font-size="13" lengthAdjust="spacingAndGlyphs" textLength="239" x="266.5" y="551.8872">PFCP Session Deletion Response (55)</text><path d="M623,530.2539 L623,555.2539 L729,555.2539 L729,540.2539 L719,530.2539 L623,530.2539 " fill="#FFEAC2" style="stroke: #FFFFFF; stroke-width: 1.0;"/><path d="M719,530.2539 L719,540.2539 L729,540.2539 L719,530.2539 " fill="#FFEAC2" style="stroke: #FFFFFF; stroke-width: 1.0;"/><text fill="#000000" font-family="sans-serif" font-size="13" font-weight="bold" lengthAdjust="spacingAndGlyphs" textLength="85" x="629" y="547.3208">UPF to gNB</text><polygon fill="#000000" points="606.5,597.2188,616.5,601.2188,606.5,605.2188,610.5,601.2188" style="stroke: #000000; stroke-width: 1.0;"/><line style="stroke: #000000; stroke-width: 1.0;" x1="249.5" x2="612.5" y1="601.2188" y2="601.2188"/><text fill="#000000" font-family="sans-serif" font-size="13" lengthAdjust="spacingAndGlyphs" textLength="345" x="256.5" y="581.02">4345, &lt;PORT_UNREACHABLE&gt; PFCP,GTP&lt;ICMP&gt; rsp.</text><text fill="#000000" font-family="sans-serif" font-size="13" lengthAdjust="spacingAndGlyphs" textLength="239" x="256.5" y="596.1528">PFCP Session Deletion Response (55)</text><path d="M623,574.5195 L623,599.5195 L729,599.5195 L729,584.5195 L719,574.5195 L623,574.5195 " fill="#D7FEFC" style="stroke: #FFFFFF; stroke-width: 1.0;"/><path d="M719,574.5195 L719,584.5195 L729,584.5195 L719,574.5195 " fill="#D7FEFC" style="stroke: #FFFFFF; stroke-width: 1.0;"/><text fill="#000000" font-family="sans-serif" font-size="13" font-weight="bold" lengthAdjust="spacingAndGlyphs" textLength="85" x="629" y="591.5864">gNB to UPF</text><polygon fill="#000000" points="606.5,629.3516,616.5,633.3516,606.5,637.3516,610.5,633.3516" style="stroke: #000000; stroke-width: 1.0;"/><line style="stroke: #000000; stroke-width: 1.0;" x1="249.5" x2="612.5" y1="633.3516" y2="633.3516"/><text fill="#000000" font-family="sans-serif" font-size="13" lengthAdjust="spacingAndGlyphs" textLength="178" x="256.5" y="628.2856">4406, GTP&lt;ICMP&gt; ping req.</text><path d="M623,614.2188 L623,639.2188 L729,639.2188 L729,624.2188 L719,614.2188 L623,614.2188 " fill="#5C8001" style="stroke: #FFFFFF; stroke-width: 1.0;"/><path d="M719,614.2188 L719,624.2188 L729,624.2188 L719,614.2188 " fill="#5C8001" style="stroke: #FFFFFF; stroke-width: 1.0;"/><text fill="#000000" font-family="sans-serif" font-size="13" font-weight="bold" lengthAdjust="spacingAndGlyphs" textLength="85" x="629" y="631.2856">gNB to UPF</text><polygon fill="#000000" points="802,664.4844,812,668.4844,802,672.4844,806,668.4844" style="stroke: #000000; stroke-width: 1.0;"/><line style="stroke: #000000; stroke-width: 1.0;" x1="58" x2="808" y1="668.4844" y2="668.4844"/><text fill="#000000" font-family="sans-serif" font-size="13" lengthAdjust="spacingAndGlyphs" textLength="131" x="65" y="663.4185">4407, ICMP ping req.</text><path d="M819,649.3516 L819,674.3516 L1008,674.3516 L1008,659.3516 L998,649.3516 L819,649.3516 " fill="#5C8001" style="stroke: #FFFFFF; stroke-width: 1.0;"/><path d="M998,649.3516 L998,659.3516 L1008,659.3516 L998,649.3516 " fill="#5C8001" style="stroke: #FFFFFF; stroke-width: 1.0;"/><text fill="#000000" font-family="sans-serif" font-size="13" font-weight="bold" lengthAdjust="spacingAndGlyphs" textLength="168" x="825" y="666.4185">Malicious UE to 8.8.8.8</text><polygon fill="#000000" points="802,699.6172,812,703.6172,802,707.6172,806,703.6172" style="stroke: #000000; stroke-width: 1.0;"/><line style="stroke: #000000; stroke-width: 1.0;" x1="618.5" x2="808" y1="703.6172" y2="703.6172"/><text fill="#000000" font-family="sans-serif" font-size="13" lengthAdjust="spacingAndGlyphs" textLength="131" x="625.5" y="698.5513">4408, ICMP ping req.</text><path d="M819,684.4844 L819,709.4844 L945,709.4844 L945,694.4844 L935,684.4844 L819,684.4844 " fill="#5C8001" style="stroke: #FFFFFF; stroke-width: 1.0;"/><path d="M935,684.4844 L935,694.4844 L945,694.4844 L935,684.4844 " fill="#5C8001" style="stroke: #FFFFFF; stroke-width: 1.0;"/><text fill="#000000" font-family="sans-serif" font-size="13" font-weight="bold" lengthAdjust="spacingAndGlyphs" textLength="105" x="825" y="701.5513">UPF to 8.8.8.8</text><polygon fill="#000000" points="629.5,734.75,619.5,738.75,629.5,742.75,625.5,738.75" style="stroke: #000000; stroke-width: 1.0;"/><line style="stroke: #000000; stroke-width: 1.0;" x1="623.5" x2="813" y1="738.75" y2="738.75"/><text fill="#000000" font-family="sans-serif" font-size="13" lengthAdjust="spacingAndGlyphs" textLength="130" x="635.5" y="733.6841">4409, ICMP ping rsp.</text><path d="M819,719.6172 L819,744.6172 L945,744.6172 L945,729.6172 L935,719.6172 L819,719.6172 " fill="#EDFEC2" style="stroke: #FFFFFF; stroke-width: 1.0;"/><path d="M935,719.6172 L935,729.6172 L945,729.6172 L935,719.6172 " fill="#EDFEC2" style="stroke: #FFFFFF; stroke-width: 1.0;"/><text fill="#000000" font-family="sans-serif" font-size="13" font-weight="bold" lengthAdjust="spacingAndGlyphs" textLength="105" x="825" y="736.6841">8.8.8.8 to UPF</text><polygon fill="#000000" points="69,769.8828,59,773.8828,69,777.8828,65,773.8828" style="stroke: #000000; stroke-width: 1.0;"/><line style="stroke: #000000; stroke-width: 1.0;" x1="63" x2="813" y1="773.8828" y2="773.8828"/><text fill="#000000" font-family="sans-serif" font-size="13" lengthAdjust="spacingAndGlyphs" textLength="130" x="75" y="768.8169">4410, ICMP ping rsp.</text><path d="M819,754.75 L819,779.75 L1008,779.75 L1008,764.75 L998,754.75 L819,754.75 " fill="#EDFEC2" style="stroke: #FFFFFF; stroke-width: 1.0;"/><path d="M998,754.75 L998,764.75 L1008,764.75 L998,754.75 " fill="#EDFEC2" style="stroke: #FFFFFF; stroke-width: 1.0;"/><text fill="#000000" font-family="sans-serif" font-size="13" font-weight="bold" lengthAdjust="spacingAndGlyphs" textLength="168" x="825" y="771.8169">8.8.8.8 to Malicious UE</text><polygon fill="#000000" points="260.5,805.0156,250.5,809.0156,260.5,813.0156,256.5,809.0156" style="stroke: #000000; stroke-width: 1.0;"/><line style="stroke: #000000; stroke-width: 1.0;" x1="254.5" x2="617.5" y1="809.0156" y2="809.0156"/><text fill="#000000" font-family="sans-serif" font-size="13" lengthAdjust="spacingAndGlyphs" textLength="177" x="266.5" y="803.9497">4411, GTP&lt;ICMP&gt; ping rsp.</text><path d="M623,789.8828 L623,814.8828 L729,814.8828 L729,799.8828 L719,789.8828 L623,789.8828 " fill="#EDFEC2" style="stroke: #FFFFFF; stroke-width: 1.0;"/><path d="M719,789.8828 L719,799.8828 L729,799.8828 L719,789.8828 " fill="#EDFEC2" style="stroke: #FFFFFF; stroke-width: 1.0;"/><text fill="#000000" font-family="sans-serif" font-size="13" font-weight="bold" lengthAdjust="spacingAndGlyphs" textLength="85" x="629" y="806.9497">UPF to gNB</text><polygon fill="#000000" points="606.5,840.1484,616.5,844.1484,606.5,848.1484,610.5,844.1484" style="stroke: #000000; stroke-width: 1.0;"/><line style="stroke: #000000; stroke-width: 1.0;" x1="249.5" x2="612.5" y1="844.1484" y2="844.1484"/><text fill="#000000" font-family="sans-serif" font-size="13" lengthAdjust="spacingAndGlyphs" textLength="178" x="256.5" y="839.0825">4412, GTP&lt;ICMP&gt; ping req.</text><path d="M623,825.0156 L623,850.0156 L729,850.0156 L729,835.0156 L719,825.0156 L623,825.0156 " fill="#5C8001" style="stroke: #FFFFFF; stroke-width: 1.0;"/><path d="M719,825.0156 L719,835.0156 L729,835.0156 L719,825.0156 " fill="#5C8001" style="stroke: #FFFFFF; stroke-width: 1.0;"/><text fill="#000000" font-family="sans-serif" font-size="13" font-weight="bold" lengthAdjust="spacingAndGlyphs" textLength="85" x="629" y="842.0825">gNB to UPF</text><!--MD5=[004786dd5e09bf3323537b839477488d]
@startuml
skinparam shadowing false
skinparam NoteBorderColor white
skinparam sequence {
    ArrowColor black
    LifeLineBorderColor black
    LifeLineBackgroundColor black
    ParticipantBorderColor white
    ParticipantBackgroundColor #e6e6e6
}

participant "Malicious UE"
participant "Targeted UE"
participant "gNB"
participant "AMF"
participant "SMF"
participant "UPF"
participant "SGWU"
participant "SGWC"

participant "8.8.8.8"

"gNB" -> "UPF": 4248, GTP<ICMP> ping req.

note right #5C8001
**gNB to UPF**
end note

"Targeted UE" -> "8.8.8.8": 4249, ICMP ping req.
note right #5C8001
**Targeted UE to 8.8.8.8**
end note

"UPF" -> "8.8.8.8": 4250, ICMP ping req.
note right #5C8001
**UPF to 8.8.8.8**
end note

"8.8.8.8" -> "UPF": 4251, ICMP ping rsp.

note right #EDFEC2
**8.8.8.8 to UPF**
end note

"8.8.8.8" -> "Targeted UE": 4252, ICMP ping rsp.

note right #EDFEC2
**8.8.8.8 to Targeted UE**
end note

"UPF" -> "gNB": 4253, GTP<ICMP> ping rsp.

note right #EDFEC2
**UPF to gNB**
end note

"gNB" -> "UPF": 4335, PFCP req.\nPFCP Association Setup Request (5)

note right #FFC2D9
**gNB to UPF**
end note

"UPF" -> "Malicious UE": 4337, PFCP rsp.\nPFCP Association Setup Response (6)

note right #FFEAC2
**UPF to Malicious UE**
end note

"UPF" -> "gNB": 4338, PFCP rsp.\nPFCP Association Setup Response (6)

note right #FFEAC2
**UPF to gNB**
end note

"gNB" -> "UPF": 4339, <PORT_UNREACHABLE> PFCP,GTP<ICMP> rsp.\nPFCP Association Setup Response (6)

note right #D7FEFC
**gNB to UPF**
end note

"gNB" -> "UPF": 4341, PFCP req.\nPFCP Session Deletion Request (54)

note right #FFC2D9
**gNB to UPF**
end note

"UPF" -> "Malicious UE": 4343, PFCP rsp.\nPFCP Session Deletion Response (55)

note right #FFEAC2
**UPF to Malicious UE**
end note

"UPF" -> "gNB": 4344, PFCP rsp.\nPFCP Session Deletion Response (55)

note right #FFEAC2
**UPF to gNB**
end note

"gNB" -> "UPF": 4345, <PORT_UNREACHABLE> PFCP,GTP<ICMP> rsp.\nPFCP Session Deletion Response (55)

note right #D7FEFC
**gNB to UPF**
end note

"gNB" -> "UPF": 4406, GTP<ICMP> ping req.

note right #5C8001
**gNB to UPF**
end note

"Malicious UE" -> "8.8.8.8": 4407, ICMP ping req.

note right #5C8001
**Malicious UE to 8.8.8.8**
end note

"UPF" -> "8.8.8.8": 4408, ICMP ping req.

note right #5C8001
**UPF to 8.8.8.8**
end note

"8.8.8.8" -> "UPF": 4409, ICMP ping rsp.

note right #EDFEC2
**8.8.8.8 to UPF**
end note

"8.8.8.8" -> "Malicious UE": 4410, ICMP ping rsp.

note right #EDFEC2
**8.8.8.8 to Malicious UE**
end note

"UPF" -> "gNB": 4411, GTP<ICMP> ping rsp.

note right #EDFEC2
**UPF to gNB**
end note

"gNB" -> "UPF": 4412, GTP<ICMP> ping req.

note right #5C8001
**gNB to UPF**
end note

@enduml

PlantUML version 1.2019.12(Sun Nov 03 11:24:54 CET 2019)
(APACHE source distribution)
Java Runtime: OpenJDK Runtime Environment
JVM: OpenJDK 64-Bit Server VM
Java Version: 11.0.18+10-post-Ubuntu-0ubuntu120.04.1
Operating System: Linux
Default Encoding: UTF-8
Language: en
Country: US
--></g></svg>