<?xml version="1.0" encoding="UTF-8" standalone="no"?><svg xmlns="http://www.w3.org/2000/svg" xmlns:xlink="http://www.w3.org/1999/xlink" contentScriptType="application/ecmascript" contentStyleType="text/css" height="1100px" preserveAspectRatio="none" style="width:1044px;height:1100px;" version="1.1" viewBox="0 0 1044 1100" width="1044px" zoomAndPan="magnify"><defs/><g><line style="stroke: #000000; stroke-width: 1.0; stroke-dasharray: 5.0,5.0;" x1="58" x2="58" y1="34.2969" y2="1060.6719"/><line style="stroke: #000000; stroke-width: 1.0; stroke-dasharray: 5.0,5.0;" x1="168" x2="168" y1="34.2969" y2="1060.6719"/><line style="stroke: #000000; stroke-width: 1.0; stroke-dasharray: 5.0,5.0;" x1="249" x2="249" y1="34.2969" y2="1060.6719"/><line style="stroke: #000000; stroke-width: 1.0; stroke-dasharray: 5.0,5.0;" x1="302" x2="302" y1="34.2969" y2="1060.6719"/><line style="stroke: #000000; stroke-width: 1.0; stroke-dasharray: 5.0,5.0;" x1="355" x2="355" y1="34.2969" y2="1060.6719"/><line style="stroke: #000000; stroke-width: 1.0; stroke-dasharray: 5.0,5.0;" x1="618" x2="618" y1="34.2969" y2="1060.6719"/><line style="stroke: #000000; stroke-width: 1.0; stroke-dasharray: 5.0,5.0;" x1="677" x2="677" y1="34.2969" y2="1060.6719"/><line style="stroke: #000000; stroke-width: 1.0; stroke-dasharray: 5.0,5.0;" x1="744" x2="744" y1="34.2969" y2="1060.6719"/><line style="stroke: #000000; stroke-width: 1.0; stroke-dasharray: 5.0,5.0;" x1="838.5" x2="838.5" y1="34.2969" y2="1060.6719"/><rect fill="#E6E6E6" height="30.2969" style="stroke: #FFFFFF; stroke-width: 1.5;" width="100" x="8" y="3"/><text fill="#000000" font-family="sans-serif" font-size="14" lengthAdjust="spacingAndGlyphs" textLength="86" x="15" y="22.9951">Malicious UE</text><rect fill="#E6E6E6" height="30.2969" style="stroke: #FFFFFF; stroke-width: 1.5;" width="100" x="8" y="1059.6719"/><text fill="#000000" font-family="sans-serif" font-size="14" lengthAdjust="spacingAndGlyphs" textLength="86" x="15" y="1079.667">Malicious UE</text><rect fill="#E6E6E6" height="30.2969" style="stroke: #FFFFFF; stroke-width: 1.5;" width="100" x="118" y="3"/><text fill="#000000" font-family="sans-serif" font-size="14" lengthAdjust="spacingAndGlyphs" textLength="86" x="125" y="22.9951">Targeted UE</text><rect fill="#E6E6E6" height="30.2969" style="stroke: #FFFFFF; stroke-width: 1.5;" width="100" x="118" y="1059.6719"/><text fill="#000000" font-family="sans-serif" font-size="14" lengthAdjust="spacingAndGlyphs" textLength="86" x="125" y="1079.667">Targeted UE</text><rect fill="#E6E6E6" height="30.2969" style="stroke: #FFFFFF; stroke-width: 1.5;" width="43" x="228" y="3"/><text fill="#000000" font-family="sans-serif" font-size="14" lengthAdjust="spacingAndGlyphs" textLength="29" x="235" y="22.9951">gNB</text><rect fill="#E6E6E6" height="30.2969" style="stroke: #FFFFFF; stroke-width: 1.5;" width="43" x="228" y="1059.6719"/><text fill="#000000" font-family="sans-serif" font-size="14" lengthAdjust="spacingAndGlyphs" textLength="29" x="235" y="1079.667">gNB</text><rect fill="#E6E6E6" height="30.2969" style="stroke: #FFFFFF; stroke-width: 1.5;" width="43" x="281" y="3"/><text fill="#000000" font-family="sans-serif" font-size="14" lengthAdjust="spacingAndGlyphs" textLength="29" x="288" y="22.9951">AMF</text><rect fill="#E6E6E6" height="30.2969" style="stroke: #FFFFFF; stroke-width: 1.5;" width="43" x="281" y="1059.6719"/><text fill="#000000" font-family="sans-serif" font-size="14" lengthAdjust="spacingAndGlyphs" textLength="29" x="288" y="1079.667">AMF</text><rect fill="#E6E6E6" height="30.2969" style="stroke: #FFFFFF; stroke-width: 1.5;" width="43" x="334" y="3"/><text fill="#000000" font-family="sans-serif" font-size="14" lengthAdjust="spacingAndGlyphs" textLength="29" x="341" y="22.9951">SMF</text><rect fill="#E6E6E6" height="30.2969" style="stroke: #FFFFFF; stroke-width: 1.5;" width="43" x="334" y="1059.6719"/><text fill="#000000" font-family="sans-serif" font-size="14" lengthAdjust="spacingAndGlyphs" textLength="29" x="341" y="1079.667">SMF</text><rect fill="#E6E6E6" height="30.2969" style="stroke: #FFFFFF; stroke-width: 1.5;" width="41" x="598" y="3"/><text fill="#000000" font-family="sans-serif" font-size="14" lengthAdjust="spacingAndGlyphs" textLength="27" x="605" y="22.9951">UPF</text><rect fill="#E6E6E6" height="30.2969" style="stroke: #FFFFFF; stroke-width: 1.5;" width="41" x="598" y="1059.6719"/><text fill="#000000" font-family="sans-serif" font-size="14" lengthAdjust="spacingAndGlyphs" textLength="27" x="605" y="1079.667">UPF</text><rect fill="#E6E6E6" height="30.2969" style="stroke: #FFFFFF; stroke-width: 1.5;" width="57" x="649" y="3"/><text fill="#000000" font-family="sans-serif" font-size="14" lengthAdjust="spacingAndGlyphs" textLength="43" x="656" y="22.9951">SGWU</text><rect fill="#E6E6E6" height="30.2969" style="stroke: #FFFFFF; stroke-width: 1.5;" width="57" x="649" y="1059.6719"/><text fill="#000000" font-family="sans-serif" font-size="14" lengthAdjust="spacingAndGlyphs" textLength="43" x="656" y="1079.667">SGWU</text><rect fill="#E6E6E6" height="30.2969" style="stroke: #FFFFFF; stroke-width: 1.5;" width="57" x="716" y="3"/><text fill="#000000" font-family="sans-serif" font-size="14" lengthAdjust="spacingAndGlyphs" textLength="43" x="723" y="22.9951">SGWC</text><rect fill="#E6E6E6" height="30.2969" style="stroke: #FFFFFF; stroke-width: 1.5;" width="57" x="716" y="1059.6719"/><text fill="#000000" font-family="sans-serif" font-size="14" lengthAdjust="spacingAndGlyphs" textLength="43" x="723" y="1079.667">SGWC</text><rect fill="#E6E6E6" height="30.2969" style="stroke: #FFFFFF; stroke-width: 1.5;" width="62" x="807.5" y="3"/><text fill="#000000" font-family="sans-serif" font-size="14" lengthAdjust="spacingAndGlyphs" textLength="48" x="814.5" y="22.9951">8.8.8.8</text><rect fill="#E6E6E6" height="30.2969" style="stroke: #FFFFFF; stroke-width: 1.5;" width="62" x="807.5" y="1059.6719"/><text fill="#000000" font-family="sans-serif" font-size="14" lengthAdjust="spacingAndGlyphs" textLength="48" x="814.5" y="1079.667">8.8.8.8</text><polygon fill="#000000" points="606.5,76.5625,616.5,80.5625,606.5,84.5625,610.5,80.5625" style="stroke: #000000; stroke-width: 1.0;"/><line style="stroke: #000000; stroke-width: 1.0;" x1="249.5" x2="612.5" y1="80.5625" y2="80.5625"/><text fill="#000000" font-family="sans-serif" font-size="13" lengthAdjust="spacingAndGlyphs" textLength="178" x="256.5" y="60.3638">4248, GTP&lt;ICMP&gt; ping req.</text><text fill="#000000" font-family="sans-serif" font-size="13" lengthAdjust="spacingAndGlyphs" textLength="196" x="256.5" y="75.4966">+336.876s (19:37:15.511.346)</text><path d="M623,53.8633 L623,78.8633 L729,78.8633 L729,63.8633 L719,53.8633 L623,53.8633 " fill="#5C8001" style="stroke: #FFFFFF; stroke-width: 1.0;"/><path d="M719,53.8633 L719,63.8633 L729,63.8633 L719,53.8633 " fill="#5C8001" style="stroke: #FFFFFF; stroke-width: 1.0;"/><text fill="#000000" font-family="sans-serif" font-size="13" font-weight="bold" lengthAdjust="spacingAndGlyphs" textLength="85" x="629" y="70.9302">gNB to UPF</text><polygon fill="#000000" points="826.5,120.8281,836.5,124.8281,826.5,128.8281,830.5,124.8281" style="stroke: #000000; stroke-width: 1.0;"/><line style="stroke: #000000; stroke-width: 1.0;" x1="168" x2="832.5" y1="124.8281" y2="124.8281"/><text fill="#000000" font-family="sans-serif" font-size="13" lengthAdjust="spacingAndGlyphs" textLength="131" x="175" y="104.6294">4249, ICMP ping req.</text><text fill="#000000" font-family="sans-serif" font-size="13" lengthAdjust="spacingAndGlyphs" textLength="196" x="175" y="119.7622">+336.876s (19:37:15.511.446)</text><path d="M843,98.1289 L843,123.1289 L1031,123.1289 L1031,108.1289 L1021,98.1289 L843,98.1289 " fill="#5C8001" style="stroke: #FFFFFF; stroke-width: 1.0;"/><path d="M1021,98.1289 L1021,108.1289 L1031,108.1289 L1021,98.1289 " fill="#5C8001" style="stroke: #FFFFFF; stroke-width: 1.0;"/><text fill="#000000" font-family="sans-serif" font-size="13" font-weight="bold" lengthAdjust="spacingAndGlyphs" textLength="167" x="849" y="115.1958">Targeted UE to 8.8.8.8</text><polygon fill="#000000" points="826.5,165.0938,836.5,169.0938,826.5,173.0938,830.5,169.0938" style="stroke: #000000; stroke-width: 1.0;"/><line style="stroke: #000000; stroke-width: 1.0;" x1="618.5" x2="832.5" y1="169.0938" y2="169.0938"/><text fill="#000000" font-family="sans-serif" font-size="13" lengthAdjust="spacingAndGlyphs" textLength="131" x="625.5" y="148.895">4250, ICMP ping req.</text><text fill="#000000" font-family="sans-serif" font-size="13" lengthAdjust="spacingAndGlyphs" textLength="196" x="625.5" y="164.0278">+336.876s (19:37:15.511.472)</text><path d="M843,142.3945 L843,167.3945 L969,167.3945 L969,152.3945 L959,142.3945 L843,142.3945 " fill="#5C8001" style="stroke: #FFFFFF; stroke-width: 1.0;"/><path d="M959,142.3945 L959,152.3945 L969,152.3945 L959,142.3945 " fill="#5C8001" style="stroke: #FFFFFF; stroke-width: 1.0;"/><text fill="#000000" font-family="sans-serif" font-size="13" font-weight="bold" lengthAdjust="spacingAndGlyphs" textLength="105" x="849" y="159.4614">UPF to 8.8.8.8</text><polygon fill="#000000" points="629.5,209.3594,619.5,213.3594,629.5,217.3594,625.5,213.3594" style="stroke: #000000; stroke-width: 1.0;"/><line style="stroke: #000000; stroke-width: 1.0;" x1="623.5" x2="837.5" y1="213.3594" y2="213.3594"/><text fill="#000000" font-family="sans-serif" font-size="13" lengthAdjust="spacingAndGlyphs" textLength="130" x="635.5" y="193.1606">4251, ICMP ping rsp.</text><text fill="#000000" font-family="sans-serif" font-size="13" lengthAdjust="spacingAndGlyphs" textLength="196" x="635.5" y="208.2935">+336.903s (19:37:15.538.321)</text><path d="M843,186.6602 L843,211.6602 L969,211.6602 L969,196.6602 L959,186.6602 L843,186.6602 " fill="#EDFEC2" style="stroke: #FFFFFF; stroke-width: 1.0;"/><path d="M959,186.6602 L959,196.6602 L969,196.6602 L959,186.6602 " fill="#EDFEC2" style="stroke: #FFFFFF; stroke-width: 1.0;"/><text fill="#000000" font-family="sans-serif" font-size="13" font-weight="bold" lengthAdjust="spacingAndGlyphs" textLength="105" x="849" y="203.7271">8.8.8.8 to UPF</text><polygon fill="#000000" points="179,253.625,169,257.625,179,261.625,175,257.625" style="stroke: #000000; stroke-width: 1.0;"/><line style="stroke: #000000; stroke-width: 1.0;" x1="173" x2="837.5" y1="257.625" y2="257.625"/><text fill="#000000" font-family="sans-serif" font-size="13" lengthAdjust="spacingAndGlyphs" textLength="130" x="185" y="237.4263">4252, ICMP ping rsp.</text><text fill="#000000" font-family="sans-serif" font-size="13" lengthAdjust="spacingAndGlyphs" textLength="196" x="185" y="252.5591">+336.903s (19:37:15.538.348)</text><path d="M843,230.9258 L843,255.9258 L1031,255.9258 L1031,240.9258 L1021,230.9258 L843,230.9258 " fill="#EDFEC2" style="stroke: #FFFFFF; stroke-width: 1.0;"/><path d="M1021,230.9258 L1021,240.9258 L1031,240.9258 L1021,230.9258 " fill="#EDFEC2" style="stroke: #FFFFFF; stroke-width: 1.0;"/><text fill="#000000" font-family="sans-serif" font-size="13" font-weight="bold" lengthAdjust="spacingAndGlyphs" textLength="167" x="849" y="247.9927">8.8.8.8 to Targeted UE</text><polygon fill="#000000" points="606.5,313.0234,616.5,317.0234,606.5,321.0234,610.5,317.0234" style="stroke: #000000; stroke-width: 1.0;"/><line style="stroke: #000000; stroke-width: 1.0;" x1="249.5" x2="612.5" y1="317.0234" y2="317.0234"/><text fill="#000000" font-family="sans-serif" font-size="13" lengthAdjust="spacingAndGlyphs" textLength="101" x="256.5" y="281.6919">4335, PFCP req.</text><text fill="#000000" font-family="sans-serif" font-size="13" lengthAdjust="spacingAndGlyphs" textLength="229" x="256.5" y="296.8247">PFCP Association Setup Request (5)</text><text fill="#000000" font-family="sans-serif" font-size="13" lengthAdjust="spacingAndGlyphs" textLength="196" x="256.5" y="311.9575">+345.330s (19:37:23.965.739)</text><path d="M623,282.7578 L623,307.7578 L729,307.7578 L729,292.7578 L719,282.7578 L623,282.7578 " fill="#FFC2D9" style="stroke: #FFFFFF; stroke-width: 1.0;"/><path d="M719,282.7578 L719,292.7578 L729,292.7578 L719,282.7578 " fill="#FFC2D9" style="stroke: #FFFFFF; stroke-width: 1.0;"/><text fill="#000000" font-family="sans-serif" font-size="13" font-weight="bold" lengthAdjust="spacingAndGlyphs" textLength="85" x="629" y="299.8247">gNB to UPF</text><polygon fill="#000000" points="69,372.4219,59,376.4219,69,380.4219,65,376.4219" style="stroke: #000000; stroke-width: 1.0;"/><line style="stroke: #000000; stroke-width: 1.0;" x1="63" x2="617.5" y1="376.4219" y2="376.4219"/><text fill="#000000" font-family="sans-serif" font-size="13" lengthAdjust="spacingAndGlyphs" textLength="100" x="75" y="341.0903">4337, PFCP rsp.</text><text fill="#000000" font-family="sans-serif" font-size="13" lengthAdjust="spacingAndGlyphs" textLength="239" x="75" y="356.2231">PFCP Association Setup Response (6)</text><text fill="#000000" font-family="sans-serif" font-size="13" lengthAdjust="spacingAndGlyphs" textLength="196" x="75" y="371.356">+345.331s (19:37:23.966.094)</text><path d="M623,342.1563 L623,367.1563 L790,367.1563 L790,352.1563 L780,342.1563 L623,342.1563 " fill="#FFEAC2" style="stroke: #FFFFFF; stroke-width: 1.0;"/><path d="M780,342.1563 L780,352.1563 L790,352.1563 L780,342.1563 " fill="#FFEAC2" style="stroke: #FFFFFF; stroke-width: 1.0;"/><text fill="#000000" font-family="sans-serif" font-size="13" font-weight="bold" lengthAdjust="spacingAndGlyphs" textLength="146" x="629" y="359.2231">UPF to Malicious UE</text><polygon fill="#000000" points="260.5,431.8203,250.5,435.8203,260.5,439.8203,256.5,435.8203" style="stroke: #000000; stroke-width: 1.0;"/><line style="stroke: #000000; stroke-width: 1.0;" x1="254.5" x2="617.5" y1="435.8203" y2="435.8203"/><text fill="#000000" font-family="sans-serif" font-size="13" lengthAdjust="spacingAndGlyphs" textLength="100" x="266.5" y="400.4888">4338, PFCP rsp.</text><text fill="#000000" font-family="sans-serif" font-size="13" lengthAdjust="spacingAndGlyphs" textLength="239" x="266.5" y="415.6216">PFCP Association Setup Response (6)</text><text fill="#000000" font-family="sans-serif" font-size="13" lengthAdjust="spacingAndGlyphs" textLength="196" x="266.5" y="430.7544">+345.331s (19:37:23.966.152)</text><path d="M623,401.5547 L623,426.5547 L729,426.5547 L729,411.5547 L719,401.5547 L623,401.5547 " fill="#FFEAC2" style="stroke: #FFFFFF; stroke-width: 1.0;"/><path d="M719,401.5547 L719,411.5547 L729,411.5547 L719,401.5547 " fill="#FFEAC2" style="stroke: #FFFFFF; stroke-width: 1.0;"/><text fill="#000000" font-family="sans-serif" font-size="13" font-weight="bold" lengthAdjust="spacingAndGlyphs" textLength="85" x="629" y="418.6216">UPF to gNB</text><polygon fill="#000000" points="606.5,491.2188,616.5,495.2188,606.5,499.2188,610.5,495.2188" style="stroke: #000000; stroke-width: 1.0;"/><line style="stroke: #000000; stroke-width: 1.0;" x1="249.5" x2="612.5" y1="495.2188" y2="495.2188"/><text fill="#000000" font-family="sans-serif" font-size="13" lengthAdjust="spacingAndGlyphs" textLength="345" x="256.5" y="459.8872">4339, &lt;PORT_UNREACHABLE&gt; PFCP,GTP&lt;ICMP&gt; rsp.</text><text fill="#000000" font-family="sans-serif" font-size="13" lengthAdjust="spacingAndGlyphs" textLength="239" x="256.5" y="475.02">PFCP Association Setup Response (6)</text><text fill="#000000" font-family="sans-serif" font-size="13" lengthAdjust="spacingAndGlyphs" textLength="196" x="256.5" y="490.1528">+345.334s (19:37:23.970.004)</text><path d="M623,460.9531 L623,485.9531 L729,485.9531 L729,470.9531 L719,460.9531 L623,460.9531 " fill="#D7FEFC" style="stroke: #FFFFFF; stroke-width: 1.0;"/><path d="M719,460.9531 L719,470.9531 L729,470.9531 L719,460.9531 " fill="#D7FEFC" style="stroke: #FFFFFF; stroke-width: 1.0;"/><text fill="#000000" font-family="sans-serif" font-size="13" font-weight="bold" lengthAdjust="spacingAndGlyphs" textLength="85" x="629" y="478.02">gNB to UPF</text><polygon fill="#000000" points="606.5,550.6172,616.5,554.6172,606.5,558.6172,610.5,554.6172" style="stroke: #000000; stroke-width: 1.0;"/><line style="stroke: #000000; stroke-width: 1.0;" x1="249.5" x2="612.5" y1="554.6172" y2="554.6172"/><text fill="#000000" font-family="sans-serif" font-size="13" lengthAdjust="spacingAndGlyphs" textLength="101" x="256.5" y="519.2856">4341, PFCP req.</text><text fill="#000000" font-family="sans-serif" font-size="13" lengthAdjust="spacingAndGlyphs" textLength="229" x="256.5" y="534.4185">PFCP Session Deletion Request (54)</text><text fill="#000000" font-family="sans-serif" font-size="13" lengthAdjust="spacingAndGlyphs" textLength="196" x="256.5" y="549.5513">+345.344s (19:37:23.979.791)</text><path d="M623,520.3516 L623,545.3516 L729,545.3516 L729,530.3516 L719,520.3516 L623,520.3516 " fill="#FFC2D9" style="stroke: #FFFFFF; stroke-width: 1.0;"/><path d="M719,520.3516 L719,530.3516 L729,530.3516 L719,520.3516 " fill="#FFC2D9" style="stroke: #FFFFFF; stroke-width: 1.0;"/><text fill="#000000" font-family="sans-serif" font-size="13" font-weight="bold" lengthAdjust="spacingAndGlyphs" textLength="85" x="629" y="537.4185">gNB to UPF</text><polygon fill="#000000" points="69,610.0156,59,614.0156,69,618.0156,65,614.0156" style="stroke: #000000; stroke-width: 1.0;"/><line style="stroke: #000000; stroke-width: 1.0;" x1="63" x2="617.5" y1="614.0156" y2="614.0156"/><text fill="#000000" font-family="sans-serif" font-size="13" lengthAdjust="spacingAndGlyphs" textLength="100" x="75" y="578.6841">4343, PFCP rsp.</text><text fill="#000000" font-family="sans-serif" font-size="13" lengthAdjust="spacingAndGlyphs" textLength="239" x="75" y="593.8169">PFCP Session Deletion Response (55)</text><text fill="#000000" font-family="sans-serif" font-size="13" lengthAdjust="spacingAndGlyphs" textLength="196" x="75" y="608.9497">+345.345s (19:37:23.980.052)</text><path d="M623,579.75 L623,604.75 L790,604.75 L790,589.75 L780,579.75 L623,579.75 " fill="#FFEAC2" style="stroke: #FFFFFF; stroke-width: 1.0;"/><path d="M780,579.75 L780,589.75 L790,589.75 L780,579.75 " fill="#FFEAC2" style="stroke: #FFFFFF; stroke-width: 1.0;"/><text fill="#000000" font-family="sans-serif" font-size="13" font-weight="bold" lengthAdjust="spacingAndGlyphs" textLength="146" x="629" y="596.8169">UPF to Malicious UE</text><polygon fill="#000000" points="260.5,669.4141,250.5,673.4141,260.5,677.4141,256.5,673.4141" style="stroke: #000000; stroke-width: 1.0;"/><line style="stroke: #000000; stroke-width: 1.0;" x1="254.5" x2="617.5" y1="673.4141" y2="673.4141"/><text fill="#000000" font-family="sans-serif" font-size="13" lengthAdjust="spacingAndGlyphs" textLength="100" x="266.5" y="638.0825">4344, PFCP rsp.</text><text fill="#000000" font-family="sans-serif" font-size="13" lengthAdjust="spacingAndGlyphs" textLength="239" x="266.5" y="653.2153">PFCP Session Deletion Response (55)</text><text fill="#000000" font-family="sans-serif" font-size="13" lengthAdjust="spacingAndGlyphs" textLength="196" x="266.5" y="668.3481">+345.345s (19:37:23.980.203)</text><path d="M623,639.1484 L623,664.1484 L729,664.1484 L729,649.1484 L719,639.1484 L623,639.1484 " fill="#FFEAC2" style="stroke: #FFFFFF; stroke-width: 1.0;"/><path d="M719,639.1484 L719,649.1484 L729,649.1484 L719,639.1484 " fill="#FFEAC2" style="stroke: #FFFFFF; stroke-width: 1.0;"/><text fill="#000000" font-family="sans-serif" font-size="13" font-weight="bold" lengthAdjust="spacingAndGlyphs" textLength="85" x="629" y="656.2153">UPF to gNB</text><polygon fill="#000000" points="606.5,728.8125,616.5,732.8125,606.5,736.8125,610.5,732.8125" style="stroke: #000000; stroke-width: 1.0;"/><line style="stroke: #000000; stroke-width: 1.0;" x1="249.5" x2="612.5" y1="732.8125" y2="732.8125"/><text fill="#000000" font-family="sans-serif" font-size="13" lengthAdjust="spacingAndGlyphs" textLength="345" x="256.5" y="697.481">4345, &lt;PORT_UNREACHABLE&gt; PFCP,GTP&lt;ICMP&gt; rsp.</text><text fill="#000000" font-family="sans-serif" font-size="13" lengthAdjust="spacingAndGlyphs" textLength="239" x="256.5" y="712.6138">PFCP Session Deletion Response (55)</text><text fill="#000000" font-family="sans-serif" font-size="13" lengthAdjust="spacingAndGlyphs" textLength="196" x="256.5" y="727.7466">+345.346s (19:37:23.981.585)</text><path d="M623,698.5469 L623,723.5469 L729,723.5469 L729,708.5469 L719,698.5469 L623,698.5469 " fill="#D7FEFC" style="stroke: #FFFFFF; stroke-width: 1.0;"/><path d="M719,698.5469 L719,708.5469 L729,708.5469 L719,698.5469 " fill="#D7FEFC" style="stroke: #FFFFFF; stroke-width: 1.0;"/><text fill="#000000" font-family="sans-serif" font-size="13" font-weight="bold" lengthAdjust="spacingAndGlyphs" textLength="85" x="629" y="715.6138">gNB to UPF</text><polygon fill="#000000" points="606.5,773.0781,616.5,777.0781,606.5,781.0781,610.5,777.0781" style="stroke: #000000; stroke-width: 1.0;"/><line style="stroke: #000000; stroke-width: 1.0;" x1="249.5" x2="612.5" y1="777.0781" y2="777.0781"/><text fill="#000000" font-family="sans-serif" font-size="13" lengthAdjust="spacingAndGlyphs" textLength="178" x="256.5" y="756.8794">4406, GTP&lt;ICMP&gt; ping req.</text><text fill="#000000" font-family="sans-serif" font-size="13" lengthAdjust="spacingAndGlyphs" textLength="196" x="256.5" y="772.0122">+349.317s (19:37:27.952.887)</text><path d="M623,750.3789 L623,775.3789 L729,775.3789 L729,760.3789 L719,750.3789 L623,750.3789 " fill="#5C8001" style="stroke: #FFFFFF; stroke-width: 1.0;"/><path d="M719,750.3789 L719,760.3789 L729,760.3789 L719,750.3789 " fill="#5C8001" style="stroke: #FFFFFF; stroke-width: 1.0;"/><text fill="#000000" font-family="sans-serif" font-size="13" font-weight="bold" lengthAdjust="spacingAndGlyphs" textLength="85" x="629" y="767.4458">gNB to UPF</text><polygon fill="#000000" points="826.5,817.3438,836.5,821.3438,826.5,825.3438,830.5,821.3438" style="stroke: #000000; stroke-width: 1.0;"/><line style="stroke: #000000; stroke-width: 1.0;" x1="58" x2="832.5" y1="821.3438" y2="821.3438"/><text fill="#000000" font-family="sans-serif" font-size="13" lengthAdjust="spacingAndGlyphs" textLength="131" x="65" y="801.145">4407, ICMP ping req.</text><text fill="#000000" font-family="sans-serif" font-size="13" lengthAdjust="spacingAndGlyphs" textLength="196" x="65" y="816.2778">+349.317s (19:37:27.953.008)</text><path d="M843,794.6445 L843,819.6445 L1032,819.6445 L1032,804.6445 L1022,794.6445 L843,794.6445 " fill="#5C8001" style="stroke: #FFFFFF; stroke-width: 1.0;"/><path d="M1022,794.6445 L1022,804.6445 L1032,804.6445 L1022,794.6445 " fill="#5C8001" style="stroke: #FFFFFF; stroke-width: 1.0;"/><text fill="#000000" font-family="sans-serif" font-size="13" font-weight="bold" lengthAdjust="spacingAndGlyphs" textLength="168" x="849" y="811.7114">Malicious UE to 8.8.8.8</text><polygon fill="#000000" points="826.5,861.6094,836.5,865.6094,826.5,869.6094,830.5,865.6094" style="stroke: #000000; stroke-width: 1.0;"/><line style="stroke: #000000; stroke-width: 1.0;" x1="618.5" x2="832.5" y1="865.6094" y2="865.6094"/><text fill="#000000" font-family="sans-serif" font-size="13" lengthAdjust="spacingAndGlyphs" textLength="131" x="625.5" y="845.4106">4408, ICMP ping req.</text><text fill="#000000" font-family="sans-serif" font-size="13" lengthAdjust="spacingAndGlyphs" textLength="196" x="625.5" y="860.5435">+349.318s (19:37:27.953.039)</text><path d="M843,838.9102 L843,863.9102 L969,863.9102 L969,848.9102 L959,838.9102 L843,838.9102 " fill="#5C8001" style="stroke: #FFFFFF; stroke-width: 1.0;"/><path d="M959,838.9102 L959,848.9102 L969,848.9102 L959,838.9102 " fill="#5C8001" style="stroke: #FFFFFF; stroke-width: 1.0;"/><text fill="#000000" font-family="sans-serif" font-size="13" font-weight="bold" lengthAdjust="spacingAndGlyphs" textLength="105" x="849" y="855.9771">UPF to 8.8.8.8</text><polygon fill="#000000" points="629.5,905.875,619.5,909.875,629.5,913.875,625.5,909.875" style="stroke: #000000; stroke-width: 1.0;"/><line style="stroke: #000000; stroke-width: 1.0;" x1="623.5" x2="837.5" y1="909.875" y2="909.875"/><text fill="#000000" font-family="sans-serif" font-size="13" lengthAdjust="spacingAndGlyphs" textLength="130" x="635.5" y="889.6763">4409, ICMP ping rsp.</text><text fill="#000000" font-family="sans-serif" font-size="13" lengthAdjust="spacingAndGlyphs" textLength="196" x="635.5" y="904.8091">+349.351s (19:37:27.986.845)</text><path d="M843,883.1758 L843,908.1758 L969,908.1758 L969,893.1758 L959,883.1758 L843,883.1758 " fill="#EDFEC2" style="stroke: #FFFFFF; stroke-width: 1.0;"/><path d="M959,883.1758 L959,893.1758 L969,893.1758 L959,883.1758 " fill="#EDFEC2" style="stroke: #FFFFFF; stroke-width: 1.0;"/><text fill="#000000" font-family="sans-serif" font-size="13" font-weight="bold" lengthAdjust="spacingAndGlyphs" textLength="105" x="849" y="900.2427">8.8.8.8 to UPF</text><polygon fill="#000000" points="69,950.1406,59,954.1406,69,958.1406,65,954.1406" style="stroke: #000000; stroke-width: 1.0;"/><line style="stroke: #000000; stroke-width: 1.0;" x1="63" x2="837.5" y1="954.1406" y2="954.1406"/><text fill="#000000" font-family="sans-serif" font-size="13" lengthAdjust="spacingAndGlyphs" textLength="130" x="75" y="933.9419">4410, ICMP ping rsp.</text><text fill="#000000" font-family="sans-serif" font-size="13" lengthAdjust="spacingAndGlyphs" textLength="188" x="75" y="949.0747">+349.351s (19:37:27.986.99)</text><path d="M843,927.4414 L843,952.4414 L1032,952.4414 L1032,937.4414 L1022,927.4414 L843,927.4414 " fill="#EDFEC2" style="stroke: #FFFFFF; stroke-width: 1.0;"/><path d="M1022,927.4414 L1022,937.4414 L1032,937.4414 L1022,927.4414 " fill="#EDFEC2" style="stroke: #FFFFFF; stroke-width: 1.0;"/><text fill="#000000" font-family="sans-serif" font-size="13" font-weight="bold" lengthAdjust="spacingAndGlyphs" textLength="168" x="849" y="944.5083">8.8.8.8 to Malicious UE</text><polygon fill="#000000" points="260.5,994.4063,250.5,998.4063,260.5,1002.4063,256.5,998.4063" style="stroke: #000000; stroke-width: 1.0;"/><line style="stroke: #000000; stroke-width: 1.0;" x1="254.5" x2="617.5" y1="998.4063" y2="998.4063"/><text fill="#000000" font-family="sans-serif" font-size="13" lengthAdjust="spacingAndGlyphs" textLength="177" x="266.5" y="978.2075">4411, GTP&lt;ICMP&gt; ping rsp.</text><text fill="#000000" font-family="sans-serif" font-size="13" lengthAdjust="spacingAndGlyphs" textLength="196" x="266.5" y="993.3403">+349.352s (19:37:27.987.329)</text><path d="M623,971.707 L623,996.707 L729,996.707 L729,981.707 L719,971.707 L623,971.707 " fill="#EDFEC2" style="stroke: #FFFFFF; stroke-width: 1.0;"/><path d="M719,971.707 L719,981.707 L729,981.707 L719,971.707 " fill="#EDFEC2" style="stroke: #FFFFFF; stroke-width: 1.0;"/><text fill="#000000" font-family="sans-serif" font-size="13" font-weight="bold" lengthAdjust="spacingAndGlyphs" textLength="85" x="629" y="988.7739">UPF to gNB</text><polygon fill="#000000" points="606.5,1038.6719,616.5,1042.6719,606.5,1046.6719,610.5,1042.6719" style="stroke: #000000; stroke-width: 1.0;"/><line style="stroke: #000000; stroke-width: 1.0;" x1="249.5" x2="612.5" y1="1042.6719" y2="1042.6719"/><text fill="#000000" font-family="sans-serif" font-size="13" lengthAdjust="spacingAndGlyphs" textLength="178" x="256.5" y="1022.4731">4412, GTP&lt;ICMP&gt; ping req.</text><text fill="#000000" font-family="sans-serif" font-size="13" lengthAdjust="spacingAndGlyphs" textLength="188" x="256.5" y="1037.606">+349.381s (19:37:28.16.781)</text><path d="M623,1015.9727 L623,1040.9727 L729,1040.9727 L729,1025.9727 L719,1015.9727 L623,1015.9727 " fill="#5C8001" style="stroke: #FFFFFF; stroke-width: 1.0;"/><path d="M719,1015.9727 L719,1025.9727 L729,1025.9727 L719,1015.9727 " fill="#5C8001" style="stroke: #FFFFFF; stroke-width: 1.0;"/><text fill="#000000" font-family="sans-serif" font-size="13" font-weight="bold" lengthAdjust="spacingAndGlyphs" textLength="85" x="629" y="1033.0396">gNB to UPF</text><!--MD5=[e5db473adad1921c055f71c3a08badc2]
@startuml
skinparam shadowing false
skinparam NoteBorderColor white
skinparam sequence {
    ArrowColor black
    LifeLineBorderColor black
    LifeLineBackgroundColor black
    ParticipantBorderColor white
    ParticipantBackgroundColor #e6e6e6
}

participant "Malicious UE"
participant "Targeted UE"
participant "gNB"
participant "AMF"
participant "SMF"
participant "UPF"
participant "SGWU"
participant "SGWC"

participant "8.8.8.8"

"gNB" -> "UPF": 4248, GTP<ICMP> ping req.\n+336.876s (19:37:15.511.346)

note right #5C8001
**gNB to UPF**
end note

"Targeted UE" -> "8.8.8.8": 4249, ICMP ping req.\n+336.876s (19:37:15.511.446)

note right #5C8001
**Targeted UE to 8.8.8.8**
end note

"UPF" -> "8.8.8.8": 4250, ICMP ping req.\n+336.876s (19:37:15.511.472)

note right #5C8001
**UPF to 8.8.8.8**
end note

"8.8.8.8" -> "UPF": 4251, ICMP ping rsp.\n+336.903s (19:37:15.538.321)

note right #EDFEC2
**8.8.8.8 to UPF**
end note

"8.8.8.8" -> "Targeted UE": 4252, ICMP ping rsp.\n+336.903s (19:37:15.538.348)

note right #EDFEC2
**8.8.8.8 to Targeted UE**
end note

"gNB" -> "UPF": 4335, PFCP req.\nPFCP Association Setup Request (5)\n+345.330s (19:37:23.965.739)

note right #FFC2D9
**gNB to UPF**
end note

"UPF" -> "Malicious UE": 4337, PFCP rsp.\nPFCP Association Setup Response (6)\n+345.331s (19:37:23.966.094)

note right #FFEAC2
**UPF to Malicious UE**
end note

"UPF" -> "gNB": 4338, PFCP rsp.\nPFCP Association Setup Response (6)\n+345.331s (19:37:23.966.152)

note right #FFEAC2
**UPF to gNB**
end note

"gNB" -> "UPF": 4339, <PORT_UNREACHABLE> PFCP,GTP<ICMP> rsp.\nPFCP Association Setup Response (6)\n+345.334s (19:37:23.970.004)

note right #D7FEFC
**gNB to UPF**
end note

"gNB" -> "UPF": 4341, PFCP req.\nPFCP Session Deletion Request (54)\n+345.344s (19:37:23.979.791)

note right #FFC2D9
**gNB to UPF**
end note

"UPF" -> "Malicious UE": 4343, PFCP rsp.\nPFCP Session Deletion Response (55)\n+345.345s (19:37:23.980.052)

note right #FFEAC2
**UPF to Malicious UE**
end note

"UPF" -> "gNB": 4344, PFCP rsp.\nPFCP Session Deletion Response (55)\n+345.345s (19:37:23.980.203)

note right #FFEAC2
**UPF to gNB**
end note

"gNB" -> "UPF": 4345, <PORT_UNREACHABLE> PFCP,GTP<ICMP> rsp.\nPFCP Session Deletion Response (55)\n+345.346s (19:37:23.981.585)

note right #D7FEFC
**gNB to UPF**
end note

"gNB" -> "UPF": 4406, GTP<ICMP> ping req.\n+349.317s (19:37:27.952.887)

note right #5C8001
**gNB to UPF**
end note

"Malicious UE" -> "8.8.8.8": 4407, ICMP ping req.\n+349.317s (19:37:27.953.008)

note right #5C8001
**Malicious UE to 8.8.8.8**
end note

"UPF" -> "8.8.8.8": 4408, ICMP ping req.\n+349.318s (19:37:27.953.039)

note right #5C8001
**UPF to 8.8.8.8**
end note

"8.8.8.8" -> "UPF": 4409, ICMP ping rsp.\n+349.351s (19:37:27.986.845)

note right #EDFEC2
**8.8.8.8 to UPF**
end note

"8.8.8.8" -> "Malicious UE": 4410, ICMP ping rsp.\n+349.351s (19:37:27.986.99)

note right #EDFEC2
**8.8.8.8 to Malicious UE**
end note

"UPF" -> "gNB": 4411, GTP<ICMP> ping rsp.\n+349.352s (19:37:27.987.329)

note right #EDFEC2
**UPF to gNB**
end note

"gNB" -> "UPF": 4412, GTP<ICMP> ping req.\n+349.381s (19:37:28.16.781)

note right #5C8001
**gNB to UPF**
end note

@enduml

PlantUML version 1.2019.12(Sun Nov 03 11:24:54 CET 2019)
(APACHE source distribution)
Java Runtime: OpenJDK Runtime Environment
JVM: OpenJDK 64-Bit Server VM
Java Version: 11.0.17+8-post-Ubuntu-1ubuntu220.04
Operating System: Linux
Default Encoding: UTF-8
Language: en
Country: US
--></g></svg>